<svg width="100" height="89" viewBox="0 0 100 89" fill="none" xmlns="http://www.w3.org/2000/svg">
<path fill-rule="evenodd" clip-rule="evenodd" d="M64.6218 74.4865C68.6871 66.9367 71.2763 56.3392 71.2763 44.5C71.2763 32.6607 68.6871 22.0633 64.6218 14.5134C60.503 6.86423 55.2217 2.89639 50.0002 2.89639C44.7787 2.89639 39.4974 6.86423 35.3786 14.5134C31.3133 22.0633 28.7241 32.6607 28.7241 44.5C28.7241 56.3392 31.3133 66.9367 35.3786 74.4865C39.4974 82.1357 44.7787 86.1036 50.0002 86.1036C55.2217 86.1036 60.503 82.1357 64.6218 74.4865ZM50.0002 88.5429C63.0978 88.5429 73.7156 68.8242 73.7156 44.5C73.7156 20.1758 63.0978 0.457092 50.0002 0.457092C36.9025 0.457092 26.2848 20.1758 26.2848 44.5C26.2848 68.8242 36.9025 88.5429 50.0002 88.5429Z" fill="black"/>
<path fill-rule="evenodd" clip-rule="evenodd" d="M83.2799 46.8303C78.7742 39.5347 70.8911 31.9936 60.638 26.074C50.3849 20.1544 39.9126 17.098 31.3416 16.8437C22.6578 16.5861 16.5809 19.1759 13.9702 23.6979C11.3595 28.2198 12.1551 34.7775 16.72 42.1691C21.2258 49.4646 29.1088 57.0057 39.3619 62.9253C49.615 68.8449 60.0873 71.9013 68.6583 72.1556C77.3421 72.4132 83.419 69.8234 86.0297 65.3015C88.6405 60.7795 87.8449 54.2218 83.2799 46.8303ZM88.1422 66.5211C94.6911 55.1782 82.9231 36.1236 61.8577 23.9615C40.7923 11.7994 18.4065 11.1353 11.8577 22.4782C5.30887 33.8211 17.0769 52.8757 38.1423 65.0378C59.2077 77.1999 81.5934 77.864 88.1422 66.5211Z" fill="black"/>
<path fill-rule="evenodd" clip-rule="evenodd" d="M68.6583 16.8438C60.0873 17.0981 49.615 20.1545 39.362 26.0741C29.1089 31.9937 21.2258 39.5348 16.7201 46.8304C12.1551 54.2219 11.3595 60.7796 13.9702 65.3015C16.581 69.8235 22.6579 72.4133 31.3417 72.1557C39.9127 71.9014 50.385 68.845 60.6381 62.9254C70.8911 57.0058 78.7742 49.4647 83.2799 42.1691C87.8449 34.7775 88.6405 28.2199 86.0298 23.6979C83.419 19.176 77.3421 16.5862 68.6583 16.8438ZM88.1423 22.4783C81.5934 11.1354 59.2077 11.7995 38.1423 23.9616C17.0769 36.1237 5.30892 55.1783 11.8578 66.5212C18.4066 77.8641 40.7923 77.2 61.8577 65.0379C82.9231 52.8758 94.6911 33.8212 88.1423 22.4783Z" fill="black"/>
<path d="M56.917 45.1776C56.917 48.9198 53.8834 51.9534 50.1412 51.9534C46.399 51.9534 43.3654 48.9198 43.3654 45.1776C43.3654 41.4354 46.399 38.4017 50.1412 38.4017C53.8834 38.4017 56.917 41.4354 56.917 45.1776Z" fill="#FFBC00"/>
<path fill-rule="evenodd" clip-rule="evenodd" d="M50.1412 49.5141C52.5362 49.5141 54.4777 47.5726 54.4777 45.1776C54.4777 42.7826 52.5362 40.841 50.1412 40.841C47.7462 40.841 45.8047 42.7826 45.8047 45.1776C45.8047 47.5726 47.7462 49.5141 50.1412 49.5141ZM50.1412 51.9534C53.8834 51.9534 56.917 48.9198 56.917 45.1776C56.917 41.4354 53.8834 38.4017 50.1412 38.4017C46.399 38.4017 43.3654 41.4354 43.3654 45.1776C43.3654 48.9198 46.399 51.9534 50.1412 51.9534Z" fill="black"/>
<path d="M50.1411 72.2809C48.6442 72.2809 47.4308 71.0674 47.4308 69.5706C47.4308 68.0737 48.6442 66.8602 50.1411 66.8602C51.638 66.8602 52.8514 68.0737 52.8514 69.5706C52.8514 71.0674 51.638 72.2809 50.1411 72.2809Z" fill="#FFBC00"/>
<path fill-rule="evenodd" clip-rule="evenodd" d="M49.328 69.5706C49.328 70.0196 49.692 70.3837 50.1411 70.3837C50.5902 70.3837 50.9542 70.0196 50.9542 69.5706C50.9542 69.1215 50.5902 68.7575 50.1411 68.7575C49.692 68.7575 49.328 69.1215 49.328 69.5706ZM47.4308 69.5706C47.4308 71.0674 48.6442 72.2809 50.1411 72.2809C51.638 72.2809 52.8514 71.0674 52.8514 69.5706C52.8514 68.0737 51.638 66.8602 50.1411 66.8602C48.6442 66.8602 47.4308 68.0737 47.4308 69.5706Z" fill="black"/>
<path d="M50.1411 22.1398C48.6442 22.1398 47.4308 20.9263 47.4308 19.4294C47.4308 17.9326 48.6442 16.7191 50.1411 16.7191C51.638 16.7191 52.8514 17.9326 52.8514 19.4294C52.8514 20.9263 51.638 22.1398 50.1411 22.1398Z" fill="#FFBC00"/>
<path fill-rule="evenodd" clip-rule="evenodd" d="M49.328 19.4294C49.328 19.8785 49.692 20.2425 50.1411 20.2425C50.5902 20.2425 50.9542 19.8785 50.9542 19.4294C50.9542 18.9804 50.5902 18.6163 50.1411 18.6163C49.692 18.6163 49.328 18.9804 49.328 19.4294ZM47.4308 19.4294C47.4308 20.9263 48.6442 22.1398 50.1411 22.1398C51.638 22.1398 52.8514 20.9263 52.8514 19.4294C52.8514 17.9326 51.638 16.7191 50.1411 16.7191C48.6442 16.7191 47.4308 17.9326 47.4308 19.4294Z" fill="black"/>
<path d="M36.6116 15.375C36.6116 17.6264 34.7865 19.4516 32.535 19.4516C30.2836 19.4516 28.4585 17.6264 28.4585 15.375C28.4585 13.1236 30.2836 11.2985 32.535 11.2985C34.7865 11.2985 36.6116 13.1236 36.6116 15.375Z" fill="#FFBC00"/>
<path fill-rule="evenodd" clip-rule="evenodd" d="M32.535 17.5543C33.7387 17.5543 34.7144 16.5786 34.7144 15.375C34.7144 14.1714 33.7387 13.1957 32.535 13.1957C31.3314 13.1957 30.3557 14.1714 30.3557 15.375C30.3557 16.5786 31.3314 17.5543 32.535 17.5543ZM32.535 19.4516C34.7865 19.4516 36.6116 17.6264 36.6116 15.375C36.6116 13.1236 34.7865 11.2985 32.535 11.2985C30.2836 11.2985 28.4585 13.1236 28.4585 15.375C28.4585 17.6264 30.2836 19.4516 32.535 19.4516Z" fill="black"/>
<path d="M71.1685 15.375C71.1685 17.6264 69.3433 19.4516 67.0919 19.4516C64.8405 19.4516 63.0154 17.6264 63.0154 15.375C63.0154 13.1236 64.8405 11.2985 67.0919 11.2985C69.3433 11.2985 71.1685 13.1236 71.1685 15.375Z" fill="#FFBC00"/>
<path fill-rule="evenodd" clip-rule="evenodd" d="M67.0919 17.5543C68.2955 17.5543 69.2712 16.5786 69.2712 15.375C69.2712 14.1714 68.2955 13.1957 67.0919 13.1957C65.8883 13.1957 64.9126 14.1714 64.9126 15.375C64.9126 16.5786 65.8883 17.5543 67.0919 17.5543ZM67.0919 19.4516C69.3433 19.4516 71.1685 17.6264 71.1685 15.375C71.1685 13.1236 69.3433 11.2985 67.0919 11.2985C64.8405 11.2985 63.0154 13.1236 63.0154 15.375C63.0154 17.6264 64.8405 19.4516 67.0919 19.4516Z" fill="black"/>
<path d="M71.1685 73.6472C71.1685 75.8986 69.3433 77.7237 67.0919 77.7237C64.8405 77.7237 63.0154 75.8986 63.0154 73.6472C63.0154 71.3958 64.8405 69.5706 67.0919 69.5706C69.3433 69.5706 71.1685 71.3958 71.1685 73.6472Z" fill="#FFBC00"/>
<path fill-rule="evenodd" clip-rule="evenodd" d="M67.0919 75.8265C68.2955 75.8265 69.2712 74.8508 69.2712 73.6472C69.2712 72.4436 68.2955 71.4678 67.0919 71.4678C65.8883 71.4678 64.9126 72.4436 64.9126 73.6472C64.9126 74.8508 65.8883 75.8265 67.0919 75.8265ZM67.0919 77.7237C69.3433 77.7237 71.1685 75.8986 71.1685 73.6472C71.1685 71.3958 69.3433 69.5706 67.0919 69.5706C64.8405 69.5706 63.0154 71.3958 63.0154 73.6472C63.0154 75.8986 64.8405 77.7237 67.0919 77.7237Z" fill="black"/>
<path d="M36.6116 73.6472C36.6116 75.8986 34.7865 77.7237 32.535 77.7237C30.2836 77.7237 28.4585 75.8986 28.4585 73.6472C28.4585 71.3958 30.2836 69.5706 32.535 69.5706C34.7865 69.5706 36.6116 71.3958 36.6116 73.6472Z" fill="#FFBC00"/>
<path fill-rule="evenodd" clip-rule="evenodd" d="M32.535 75.8265C33.7387 75.8265 34.7144 74.8508 34.7144 73.6472C34.7144 72.4436 33.7387 71.4678 32.535 71.4678C31.3314 71.4678 30.3557 72.4436 30.3557 73.6472C30.3557 74.8508 31.3314 75.8265 32.535 75.8265ZM32.535 77.7237C34.7865 77.7237 36.6116 75.8986 36.6116 73.6472C36.6116 71.3958 34.7865 69.5706 32.535 69.5706C30.2836 69.5706 28.4585 71.3958 28.4585 73.6472C28.4585 75.8986 30.2836 77.7237 32.535 77.7237Z" fill="black"/>
<path d="M86.6254 44.4474C86.6254 46.2894 85.1321 47.7827 83.2901 47.7827C81.448 47.7827 79.9547 46.2894 79.9547 44.4474C79.9547 42.6053 81.448 41.112 83.2901 41.112C85.1321 41.112 86.6254 42.6053 86.6254 44.4474Z" fill="#FFBC00"/>
<path fill-rule="evenodd" clip-rule="evenodd" d="M83.2901 45.8855C84.0843 45.8855 84.7282 45.2416 84.7282 44.4474C84.7282 43.6531 84.0843 43.0092 83.2901 43.0092C82.4958 43.0092 81.8519 43.6531 81.8519 44.4474C81.8519 45.2416 82.4958 45.8855 83.2901 45.8855ZM83.2901 47.7827C85.1321 47.7827 86.6254 46.2894 86.6254 44.4474C86.6254 42.6053 85.1321 41.112 83.2901 41.112C81.448 41.112 79.9547 42.6053 79.9547 44.4474C79.9547 46.2894 81.448 47.7827 83.2901 47.7827Z" fill="black"/>
<path d="M20.2224 44.4474C20.2224 46.2894 18.7291 47.7827 16.887 47.7827C15.0449 47.7827 13.5516 46.2894 13.5516 44.4474C13.5516 42.6053 15.0449 41.112 16.887 41.112C18.7291 41.112 20.2224 42.6053 20.2224 44.4474Z" fill="#FFBC00"/>
<path fill-rule="evenodd" clip-rule="evenodd" d="M16.887 45.8855C17.6813 45.8855 18.3251 45.2416 18.3251 44.4474C18.3251 43.6531 17.6813 43.0092 16.887 43.0092C16.0927 43.0092 15.4489 43.6531 15.4489 44.4474C15.4489 45.2416 16.0927 45.8855 16.887 45.8855ZM16.887 47.7827C18.7291 47.7827 20.2224 46.2894 20.2224 44.4474C20.2224 42.6053 18.7291 41.112 16.887 41.112C15.0449 41.112 13.5516 42.6053 13.5516 44.4474C13.5516 46.2894 15.0449 47.7827 16.887 47.7827Z" fill="black"/>
</svg>
