<svg width="100" height="101" viewBox="0 0 100 101" fill="none" xmlns="http://www.w3.org/2000/svg">
<path fill-rule="evenodd" clip-rule="evenodd" d="M60.7361 61.2361C71.4091 50.5631 71.4091 33.2588 60.7361 22.5859C50.0631 11.9129 32.7588 11.9129 22.0859 22.5859C11.4129 33.2588 11.4129 50.5631 22.0859 61.2361C32.7588 71.9091 50.0631 71.9091 60.7361 61.2361ZM62.1165 62.6165C73.5518 51.1811 73.5518 32.6408 62.1165 21.2055C50.6811 9.77017 32.1408 9.77017 20.7055 21.2055C9.27016 32.6408 9.27016 51.1811 20.7055 62.6165C32.1408 74.0518 50.6811 74.0518 62.1165 62.6165Z" fill="black"/>
<path fill-rule="evenodd" clip-rule="evenodd" d="M63.42 65.3011L60.6592 62.5403L62.0396 61.16L64.8003 63.9207L66.0273 62.6937C66.832 61.889 68.1367 61.889 68.9414 62.6937L81.2113 74.9636C82.0161 75.7683 82.0161 77.073 81.2113 77.8777L77.377 81.7121C76.5723 82.5168 75.2676 82.5168 74.4629 81.7121L62.193 69.4421C61.3883 68.6374 61.3883 67.3328 62.193 66.528L63.42 65.3011ZM63.5733 67.9084C63.531 67.9508 63.531 68.0194 63.5733 68.0618L75.8433 80.3317C75.8856 80.3741 75.9543 80.3741 75.9966 80.3317L79.831 76.4974C79.8733 76.455 79.8733 76.3863 79.831 76.344L67.5611 64.0741C67.5187 64.0317 67.45 64.0317 67.4077 64.0741L63.5733 67.9084Z" fill="black"/>
<path d="M84.6101 76.4251C84.6101 78.2269 83.1495 79.6875 81.3477 79.6875C79.546 79.6875 78.0854 78.2269 78.0854 76.4251C78.0854 74.6233 79.546 73.1627 81.3477 73.1627C83.1495 73.1627 84.6101 74.6233 84.6101 76.4251Z" fill="#FFBC00"/>
<path fill-rule="evenodd" clip-rule="evenodd" d="M81.3477 78.1692C82.311 78.1692 83.0918 77.3883 83.0918 76.4251C83.0918 75.4619 82.311 74.681 81.3477 74.681C80.3845 74.681 79.6037 75.4619 79.6037 76.4251C79.6037 77.3883 80.3845 78.1692 81.3477 78.1692ZM81.3477 79.6875C83.1495 79.6875 84.6101 78.2269 84.6101 76.4251C84.6101 74.6233 83.1495 73.1627 81.3477 73.1627C79.546 73.1627 78.0854 74.6233 78.0854 76.4251C78.0854 78.2269 79.546 79.6875 81.3477 79.6875Z" fill="black"/>
<path d="M79.1875 81.848C79.1875 83.6497 77.7268 85.1104 75.9251 85.1104C74.1233 85.1104 72.6627 83.6497 72.6627 81.848C72.6627 80.0462 74.1233 78.5856 75.9251 78.5856C77.7268 78.5856 79.1875 80.0462 79.1875 81.848Z" fill="#FFBC00"/>
<path fill-rule="evenodd" clip-rule="evenodd" d="M75.9251 83.592C76.8883 83.592 77.6691 82.8112 77.6691 81.848C77.6691 80.8847 76.8883 80.1039 75.9251 80.1039C74.9618 80.1039 74.181 80.8847 74.181 81.848C74.181 82.8112 74.9618 83.592 75.9251 83.592ZM75.9251 85.1104C77.7268 85.1104 79.1875 83.6497 79.1875 81.848C79.1875 80.0462 77.7268 78.5856 75.9251 78.5856C74.1233 78.5856 72.6627 80.0462 72.6627 81.848C72.6627 83.6497 74.1233 85.1104 75.9251 85.1104Z" fill="black"/>
<path d="M64.0044 61.2422C64.0044 63.044 62.5438 64.5046 60.742 64.5046C58.9402 64.5046 57.4796 63.044 57.4796 61.2422C57.4796 59.4404 58.9402 57.9798 60.742 57.9798C62.5438 57.9798 64.0044 59.4404 64.0044 61.2422Z" fill="#FFBC00"/>
<path fill-rule="evenodd" clip-rule="evenodd" d="M60.742 62.9863C61.7052 62.9863 62.4861 62.2054 62.4861 61.2422C62.4861 60.279 61.7052 59.4981 60.742 59.4981C59.7788 59.4981 58.9979 60.279 58.9979 61.2422C58.9979 62.2054 59.7788 62.9863 60.742 62.9863ZM60.742 64.5046C62.5438 64.5046 64.0044 63.044 64.0044 61.2422C64.0044 59.4404 62.5438 57.9798 60.742 57.9798C58.9402 57.9798 57.4796 59.4404 57.4796 61.2422C57.4796 63.044 58.9402 64.5046 60.742 64.5046Z" fill="black"/>
<path d="M24.9615 21.115C24.9615 22.9167 23.5008 24.3774 21.6991 24.3774C19.8973 24.3774 18.4367 22.9167 18.4367 21.115C18.4367 19.3132 19.8973 17.8526 21.6991 17.8526C23.5008 17.8526 24.9615 19.3132 24.9615 21.115Z" fill="#FFBC00"/>
<path fill-rule="evenodd" clip-rule="evenodd" d="M21.6991 22.859C22.6623 22.859 23.4431 22.0782 23.4431 21.115C23.4431 20.1517 22.6623 19.3709 21.6991 19.3709C20.7358 19.3709 19.955 20.1517 19.955 21.115C19.955 22.0782 20.7358 22.859 21.6991 22.859ZM21.6991 24.3774C23.5008 24.3774 24.9615 22.9167 24.9615 21.115C24.9615 19.3132 23.5008 17.8526 21.6991 17.8526C19.8973 17.8526 18.4367 19.3132 18.4367 21.115C18.4367 22.9167 19.8973 24.3774 21.6991 24.3774Z" fill="black"/>
<path d="M70.4095 62.818C70.4095 64.2922 69.2145 65.4872 67.7403 65.4872C66.2661 65.4872 65.0711 64.2922 65.0711 62.818C65.0711 61.3438 66.2661 60.1487 67.7403 60.1487C69.2145 60.1487 70.4095 61.3438 70.4095 62.818Z" fill="#FFBC00"/>
<path fill-rule="evenodd" clip-rule="evenodd" d="M67.7403 63.9689C68.3759 63.9689 68.8912 63.4536 68.8912 62.818C68.8912 62.1823 68.3759 61.6671 67.7403 61.6671C67.1047 61.6671 66.5894 62.1823 66.5894 62.818C66.5894 63.4536 67.1047 63.9689 67.7403 63.9689ZM67.7403 65.4872C69.2145 65.4872 70.4095 64.2922 70.4095 62.818C70.4095 61.3438 69.2145 60.1487 67.7403 60.1487C66.2661 60.1487 65.0711 61.3438 65.0711 62.818C65.0711 64.2922 66.2661 65.4872 67.7403 65.4872Z" fill="black"/>
<path d="M64.987 68.2405C64.987 69.7147 63.7919 70.9097 62.3178 70.9097C60.8436 70.9097 59.6485 69.7147 59.6485 68.2405C59.6485 66.7663 60.8436 65.5713 62.3178 65.5713C63.7919 65.5713 64.987 66.7663 64.987 68.2405Z" fill="#FFBC00"/>
<path fill-rule="evenodd" clip-rule="evenodd" d="M62.3178 69.3914C62.9534 69.3914 63.4687 68.8761 63.4687 68.2405C63.4687 67.6049 62.9534 67.0896 62.3178 67.0896C61.6821 67.0896 61.1669 67.6049 61.1669 68.2405C61.1669 68.8761 61.6821 69.3914 62.3178 69.3914ZM62.3178 70.9097C63.7919 70.9097 64.987 69.7147 64.987 68.2405C64.987 66.7663 63.7919 65.5713 62.3178 65.5713C60.8436 65.5713 59.6485 66.7663 59.6485 68.2405C59.6485 69.7147 60.8436 70.9097 62.3178 70.9097Z" fill="black"/>
<path d="M23.7751 61.1912C23.7751 62.6654 22.5801 63.8604 21.1059 63.8604C19.6317 63.8604 18.4367 62.6654 18.4367 61.1912C18.4367 59.717 19.6317 58.522 21.1059 58.522C22.5801 58.522 23.7751 59.717 23.7751 61.1912Z" fill="#FFBC00"/>
<path fill-rule="evenodd" clip-rule="evenodd" d="M21.1059 62.3421C21.7415 62.3421 22.2568 61.8268 22.2568 61.1912C22.2568 60.5556 21.7415 60.0403 21.1059 60.0403C20.4703 60.0403 19.955 60.5556 19.955 61.1912C19.955 61.8268 20.4703 62.3421 21.1059 62.3421ZM21.1059 63.8604C22.5801 63.8604 23.7751 62.6654 23.7751 61.1912C23.7751 59.717 22.5801 58.522 21.1059 58.522C19.6317 58.522 18.4367 59.717 18.4367 61.1912C18.4367 62.6654 19.6317 63.8604 21.1059 63.8604Z" fill="black"/>
<path d="M64.4447 21.6061C64.4447 23.0803 63.2496 24.2754 61.7754 24.2754C60.3013 24.2754 59.1062 23.0803 59.1062 21.6061C59.1062 20.1319 60.3013 18.9369 61.7754 18.9369C63.2496 18.9369 64.4447 20.1319 64.4447 21.6061Z" fill="#FFBC00"/>
<path fill-rule="evenodd" clip-rule="evenodd" d="M61.7754 22.757C62.4111 22.757 62.9263 22.2418 62.9263 21.6061C62.9263 20.9705 62.4111 20.4552 61.7754 20.4552C61.1398 20.4552 60.6245 20.9705 60.6245 21.6061C60.6245 22.2418 61.1398 22.757 61.7754 22.757ZM61.7754 24.2754C63.2496 24.2754 64.4447 23.0803 64.4447 21.6061C64.4447 20.1319 63.2496 18.9369 61.7754 18.9369C60.3013 18.9369 59.1062 20.1319 59.1062 21.6061C59.1062 23.0803 60.3013 24.2754 61.7754 24.2754Z" fill="black"/>
<path d="M20.7427 41.7122C20.0683 41.7122 19.5181 41.1651 19.5561 40.4919C19.7733 36.6354 21.0173 32.8986 23.1694 29.6733C25.3215 26.448 28.2944 23.8649 31.772 22.1838C32.3791 21.8904 33.0955 22.1884 33.3543 22.8111C33.6132 23.4337 33.3162 24.1448 32.7112 24.4426C29.6782 25.9355 27.0849 28.2047 25.2006 31.0287C23.3164 33.8526 22.2166 37.1183 22.0023 40.492C21.9596 41.165 21.417 41.7122 20.7427 41.7122Z" fill="black"/>
<path d="M22.1847 49.3802C21.5823 49.623 20.8938 49.3323 20.684 48.7176C20.3257 47.6677 20.0485 46.592 19.8549 45.4997C19.7414 44.8601 20.2037 44.2729 20.8485 44.1943C21.4933 44.1158 22.076 44.5757 22.1937 45.2145C22.3574 46.1034 22.5832 46.9797 22.8694 47.837C23.0752 48.4532 22.7872 49.1374 22.1847 49.3802Z" fill="black"/>
</svg>
