<svg width="20" height="20" xmlns="http://www.w3.org/2000/svg" xmlns:xlink="http://www.w3.org/1999/xlink"><defs><path id="a" d="M0 0h19.047v8.333H0z"/></defs><g fill-rule="evenodd"><path d="M9.524 2.381a2.383 2.383 0 00-2.381 2.38 2.383 2.383 0 002.38 2.382 2.383 2.383 0 002.382-2.381A2.383 2.383 0 009.524 2.38m0 7.143a4.767 4.767 0 01-4.762-4.762A4.767 4.767 0 019.524 0a4.767 4.767 0 014.762 4.762 4.767 4.767 0 01-4.762 4.762" /><g transform="translate(0 10.714)"><mask id="b" ><use xlink:href="#a"/></mask><path d="M2.57 5.952h13.908c-.713-2.152-3.374-3.571-6.955-3.571-3.58 0-6.241 1.419-6.953 3.571zm16.477 2.381H0v-1.19C0 2.937 3.916 0 9.523 0c5.609 0 9.524 2.937 9.524 7.143v1.19z" mask="url(#b)"/></g></g></svg>
