<svg width="100" height="101" viewBox="0 0 100 101" fill="none" xmlns="http://www.w3.org/2000/svg">
<path fill-rule="evenodd" clip-rule="evenodd" d="M63.0544 1.74361L99.2265 19.0761L85.4779 34.9956L99.2265 50.9151L85.7748 57.3607V81.5755L50.0065 98.3647L14.9297 82.2879V57.5744L0.764771 50.9255L14.5381 34.9774L0.788892 18.3336L36.9571 1.75651L50.0001 16.859L63.0544 1.74361ZM47.9569 18.3719L16.5434 33.4242L4.84524 19.2632L36.2827 4.8544L47.9569 18.3719ZM16.5234 36.5574L4.86936 50.0516L36.9685 65.1185L47.9974 51.6388L16.5234 36.5574ZM48.7325 54.7439L37.6797 68.2529L17.4649 58.7644V80.661L48.7325 94.992V54.7439ZM51.2678 94.9721L83.2396 79.9649V58.5755L63.0544 68.2476L51.2678 54.5999V94.9721ZM50.0001 49.7872L80.8695 34.9956L50.0001 20.204L19.1308 34.9956L50.0001 49.7872ZM83.4769 36.5574L52.0434 51.6193L63.7065 65.1239L95.14 50.062L83.4769 36.5574ZM83.4769 33.4337L52.0434 18.3719L63.7065 4.8673L95.14 19.9292L83.4769 33.4337Z" fill="black"/>
<path d="M52.8169 18.7982C52.8169 20.3539 51.5557 21.6151 50 21.6151C48.4443 21.6151 47.1831 20.3539 47.1831 18.7982C47.1831 17.2424 48.4443 15.9813 50 15.9813C51.5557 15.9813 52.8169 17.2424 52.8169 18.7982Z" fill="#FFBC00"/>
<path fill-rule="evenodd" clip-rule="evenodd" d="M50 19.6432C50.4667 19.6432 50.8451 19.2649 50.8451 18.7982C50.8451 18.3315 50.4667 17.9531 50 17.9531C49.5333 17.9531 49.1549 18.3315 49.1549 18.7982C49.1549 19.2649 49.5333 19.6432 50 19.6432ZM50 21.6151C51.5557 21.6151 52.8169 20.3539 52.8169 18.7982C52.8169 17.2424 51.5557 15.9813 50 15.9813C48.4443 15.9813 47.1831 17.2424 47.1831 18.7982C47.1831 20.3539 48.4443 21.6151 50 21.6151Z" fill="black"/>
<path d="M66.197 3.30537C66.197 4.8611 64.9359 6.12227 63.3801 6.12227C61.8244 6.12227 60.5632 4.8611 60.5632 3.30537C60.5632 1.74963 61.8244 0.488464 63.3801 0.488464C64.9359 0.488464 66.197 1.74963 66.197 3.30537Z" fill="#FFBC00"/>
<path fill-rule="evenodd" clip-rule="evenodd" d="M63.3801 4.15044C63.8469 4.15044 64.2252 3.77208 64.2252 3.30537C64.2252 2.83865 63.8469 2.46029 63.3801 2.46029C62.9134 2.46029 62.5351 2.83865 62.5351 3.30537C62.5351 3.77208 62.9134 4.15044 63.3801 4.15044ZM63.3801 6.12227C64.9359 6.12227 66.197 4.8611 66.197 3.30537C66.197 1.74963 64.9359 0.488464 63.3801 0.488464C61.8244 0.488464 60.5632 1.74963 60.5632 3.30537C60.5632 4.8611 61.8244 6.12227 63.3801 6.12227Z" fill="black"/>
<path d="M100 20.2067C100 21.7624 98.7388 23.0236 97.1831 23.0236C95.6274 23.0236 94.3662 21.7624 94.3662 20.2067C94.3662 18.6509 95.6274 17.3898 97.1831 17.3898C98.7388 17.3898 100 18.6509 100 20.2067Z" fill="#FFBC00"/>
<path fill-rule="evenodd" clip-rule="evenodd" d="M97.1831 21.0517C97.6498 21.0517 98.0282 20.6734 98.0282 20.2067C98.0282 19.74 97.6498 19.3616 97.1831 19.3616C96.7164 19.3616 96.338 19.74 96.338 20.2067C96.338 20.6734 96.7164 21.0517 97.1831 21.0517ZM97.1831 23.0236C98.7388 23.0236 100 21.7624 100 20.2067C100 18.6509 98.7388 17.3898 97.1831 17.3898C95.6274 17.3898 94.3662 18.6509 94.3662 20.2067C94.3662 21.7624 95.6274 23.0236 97.1831 23.0236Z" fill="black"/>
<path d="M5.6338 18.7982C5.6338 20.3539 4.37263 21.6151 2.8169 21.6151C1.26117 21.6151 0 20.3539 0 18.7982C0 17.2424 1.26117 15.9813 2.8169 15.9813C4.37263 15.9813 5.6338 17.2424 5.6338 18.7982Z" fill="#FFBC00"/>
<path fill-rule="evenodd" clip-rule="evenodd" d="M2.8169 19.6432C3.28362 19.6432 3.66197 19.2649 3.66197 18.7982C3.66197 18.3315 3.28362 17.9531 2.8169 17.9531C2.35018 17.9531 1.97183 18.3315 1.97183 18.7982C1.97183 19.2649 2.35018 19.6432 2.8169 19.6432ZM2.8169 21.6151C4.37263 21.6151 5.6338 20.3539 5.6338 18.7982C5.6338 17.2424 4.37263 15.9813 2.8169 15.9813C1.26117 15.9813 0 17.2424 0 18.7982C0 20.3539 1.26117 21.6151 2.8169 21.6151Z" fill="black"/>
<path d="M39.4368 3.30537C39.4368 4.8611 38.1756 6.12227 36.6199 6.12227C35.0641 6.12227 33.803 4.8611 33.803 3.30537C33.803 1.74963 35.0641 0.488464 36.6199 0.488464C38.1756 0.488464 39.4368 1.74963 39.4368 3.30537Z" fill="#FFBC00"/>
<path fill-rule="evenodd" clip-rule="evenodd" d="M36.6199 4.15044C37.0866 4.15044 37.4649 3.77208 37.4649 3.30537C37.4649 2.83865 37.0866 2.46029 36.6199 2.46029C36.1532 2.46029 35.7748 2.83865 35.7748 3.30537C35.7748 3.77208 36.1532 4.15044 36.6199 4.15044ZM36.6199 6.12227C38.1756 6.12227 39.4368 4.8611 39.4368 3.30537C39.4368 1.74963 38.1756 0.488464 36.6199 0.488464C35.0641 0.488464 33.803 1.74963 33.803 3.30537C33.803 4.8611 35.0641 6.12227 36.6199 6.12227Z" fill="black"/>
<path d="M87.9191 81.4199C87.9191 83.3344 86.3671 84.8864 84.4526 84.8864C82.5381 84.8864 80.9861 83.3344 80.9861 81.4199C80.9861 79.5054 82.5381 77.9534 84.4526 77.9534C86.3671 77.9534 87.9191 79.5054 87.9191 81.4199Z" fill="#FFBC00"/>
<path fill-rule="evenodd" clip-rule="evenodd" d="M84.4526 82.9145C85.2781 82.9145 85.9473 82.2453 85.9473 81.4199C85.9473 80.5944 85.2781 79.9252 84.4526 79.9252C83.6271 79.9252 82.9579 80.5944 82.9579 81.4199C82.9579 82.2453 83.6271 82.9145 84.4526 82.9145ZM84.4526 84.8864C86.3671 84.8864 87.9191 83.3344 87.9191 81.4199C87.9191 79.5054 86.3671 77.9534 84.4526 77.9534C82.5381 77.9534 80.9861 79.5054 80.9861 81.4199C80.9861 83.3344 82.5381 84.8864 84.4526 84.8864Z" fill="black"/>
<path d="M87.2147 34.9409C87.2147 36.8554 85.6627 38.4074 83.7482 38.4074C81.8337 38.4074 80.2817 36.8554 80.2817 34.9409C80.2817 33.0264 81.8337 31.4744 83.7482 31.4744C85.6627 31.4744 87.2147 33.0264 87.2147 34.9409Z" fill="#FFBC00"/>
<path fill-rule="evenodd" clip-rule="evenodd" d="M83.7482 36.4356C84.5737 36.4356 85.2429 35.7664 85.2429 34.9409C85.2429 34.1154 84.5737 33.4462 83.7482 33.4462C82.9228 33.4462 82.2536 34.1154 82.2536 34.9409C82.2536 35.7664 82.9228 36.4356 83.7482 36.4356ZM83.7482 38.4074C85.6627 38.4074 87.2147 36.8554 87.2147 34.9409C87.2147 33.0264 85.6627 31.4744 83.7482 31.4744C81.8337 31.4744 80.2817 33.0264 80.2817 34.9409C80.2817 36.8554 81.8337 38.4074 83.7482 38.4074Z" fill="black"/>
<path d="M99.8908 50.4337C99.8908 52.3482 98.3388 53.9002 96.4243 53.9002C94.5098 53.9002 92.9578 52.3482 92.9578 50.4337C92.9578 48.5192 94.5098 46.9672 96.4243 46.9672C98.3388 46.9672 99.8908 48.5192 99.8908 50.4337Z" fill="#FFBC00"/>
<path fill-rule="evenodd" clip-rule="evenodd" d="M96.4243 51.9284C97.2498 51.9284 97.9189 51.2592 97.9189 50.4337C97.9189 49.6082 97.2498 48.9391 96.4243 48.9391C95.5988 48.9391 94.9296 49.6082 94.9296 50.4337C94.9296 51.2592 95.5988 51.9284 96.4243 51.9284ZM96.4243 53.9002C98.3388 53.9002 99.8908 52.3482 99.8908 50.4337C99.8908 48.5192 98.3388 46.9672 96.4243 46.9672C94.5098 46.9672 92.9578 48.5192 92.9578 50.4337C92.9578 52.3482 94.5098 53.9002 96.4243 53.9002Z" fill="black"/>
<path d="M6.93301 50.4337C6.93301 52.3482 5.381 53.9002 3.4665 53.9002C1.55201 53.9002 0 52.3482 0 50.4337C0 48.5192 1.55201 46.9672 3.4665 46.9672C5.381 46.9672 6.93301 48.5192 6.93301 50.4337Z" fill="#FFBC00"/>
<path fill-rule="evenodd" clip-rule="evenodd" d="M3.4665 51.9284C4.29199 51.9284 4.96118 51.2592 4.96118 50.4337C4.96118 49.6082 4.29199 48.9391 3.4665 48.9391C2.64102 48.9391 1.97183 49.6082 1.97183 50.4337C1.97183 51.2592 2.64102 51.9284 3.4665 51.9284ZM3.4665 53.9002C5.381 53.9002 6.93301 52.3482 6.93301 50.4337C6.93301 48.5192 5.381 46.9672 3.4665 46.9672C1.55201 46.9672 0 48.5192 0 50.4337C0 52.3482 1.55201 53.9002 3.4665 53.9002Z" fill="black"/>
<path d="M19.6092 34.9409C19.6092 36.8554 18.0571 38.4074 16.1427 38.4074C14.2282 38.4074 12.6761 36.8554 12.6761 34.9409C12.6761 33.0264 14.2282 31.4744 16.1427 31.4744C18.0571 31.4744 19.6092 33.0264 19.6092 34.9409Z" fill="#FFBC00"/>
<path fill-rule="evenodd" clip-rule="evenodd" d="M16.1427 36.4356C16.9681 36.4356 17.6373 35.7664 17.6373 34.9409C17.6373 34.1154 16.9681 33.4462 16.1427 33.4462C15.3172 33.4462 14.648 34.1154 14.648 34.9409C14.648 35.7664 15.3172 36.4356 16.1427 36.4356ZM16.1427 38.4074C18.0571 38.4074 19.6092 36.8554 19.6092 34.9409C19.6092 33.0264 18.0571 31.4744 16.1427 31.4744C14.2282 31.4744 12.6761 33.0264 12.6761 34.9409C12.6761 36.8554 14.2282 38.4074 16.1427 38.4074Z" fill="black"/>
<path d="M19.6092 81.4199C19.6092 83.3344 18.0571 84.8864 16.1427 84.8864C14.2282 84.8864 12.6761 83.3344 12.6761 81.4199C12.6761 79.5054 14.2282 77.9534 16.1427 77.9534C18.0571 77.9534 19.6092 79.5054 19.6092 81.4199Z" fill="#FFBC00"/>
<path fill-rule="evenodd" clip-rule="evenodd" d="M16.1427 82.9145C16.9681 82.9145 17.6373 82.2453 17.6373 81.4199C17.6373 80.5944 16.9681 79.9252 16.1427 79.9252C15.3172 79.9252 14.648 80.5944 14.648 81.4199C14.648 82.2453 15.3172 82.9145 16.1427 82.9145ZM16.1427 84.8864C18.0571 84.8864 19.6092 83.3344 19.6092 81.4199C19.6092 79.5054 18.0571 77.9534 16.1427 77.9534C14.2282 77.9534 12.6761 79.5054 12.6761 81.4199C12.6761 83.3344 14.2282 84.8864 16.1427 84.8864Z" fill="black"/>
<path d="M54.2483 96.2747C54.2483 98.6146 52.3514 100.512 50.0115 100.512C47.6716 100.512 45.7747 98.6146 45.7747 96.2747C45.7747 93.9347 47.6716 92.0378 50.0115 92.0378C52.3514 92.0378 54.2483 93.9347 54.2483 96.2747Z" fill="#FFBC00"/>
<path fill-rule="evenodd" clip-rule="evenodd" d="M50.0115 98.5397C51.2624 98.5397 52.2765 97.5256 52.2765 96.2747C52.2765 95.0237 51.2624 94.0097 50.0115 94.0097C48.7606 94.0097 47.7465 95.0237 47.7465 96.2747C47.7465 97.5256 48.7606 98.5397 50.0115 98.5397ZM50.0115 100.512C52.3514 100.512 54.2483 98.6146 54.2483 96.2747C54.2483 93.9347 52.3514 92.0378 50.0115 92.0378C47.6716 92.0378 45.7747 93.9347 45.7747 96.2747C45.7747 98.6146 47.6716 100.512 50.0115 100.512Z" fill="black"/>
<path d="M54.2483 51.2041C54.2483 53.544 52.3514 55.4409 50.0115 55.4409C47.6716 55.4409 45.7747 53.544 45.7747 51.2041C45.7747 48.8641 47.6716 46.9672 50.0115 46.9672C52.3514 46.9672 54.2483 48.8641 54.2483 51.2041Z" fill="#FFBC00"/>
<path fill-rule="evenodd" clip-rule="evenodd" d="M50.0115 53.4691C51.2624 53.4691 52.2765 52.455 52.2765 51.2041C52.2765 49.9531 51.2624 48.9391 50.0115 48.9391C48.7606 48.9391 47.7465 49.9531 47.7465 51.2041C47.7465 52.455 48.7606 53.4691 50.0115 53.4691ZM50.0115 55.4409C52.3514 55.4409 54.2483 53.544 54.2483 51.2041C54.2483 48.8641 52.3514 46.9672 50.0115 46.9672C47.6716 46.9672 45.7747 48.8641 45.7747 51.2041C45.7747 53.544 47.6716 55.4409 50.0115 55.4409Z" fill="black"/>
<path d="M67.6287 66.6972C67.6287 69.0372 65.7318 70.934 63.3919 70.934C61.0519 70.934 59.155 69.0372 59.155 66.6972C59.155 64.3573 61.0519 62.4604 63.3919 62.4604C65.7318 62.4604 67.6287 64.3573 67.6287 66.6972Z" fill="#FFBC00"/>
<path fill-rule="evenodd" clip-rule="evenodd" d="M63.3919 68.9622C64.6428 68.9622 65.6569 67.9481 65.6569 66.6972C65.6569 65.4463 64.6428 64.4322 63.3919 64.4322C62.1409 64.4322 61.1269 65.4463 61.1269 66.6972C61.1269 67.9481 62.1409 68.9622 63.3919 68.9622ZM63.3919 70.934C65.7318 70.934 67.6287 69.0372 67.6287 66.6972C67.6287 64.3573 65.7318 62.4604 63.3919 62.4604C61.0519 62.4604 59.155 64.3573 59.155 66.6972C59.155 69.0372 61.0519 70.934 63.3919 70.934Z" fill="black"/>
<path d="M40.868 66.6972C40.868 69.0372 38.9711 70.934 36.6311 70.934C34.2912 70.934 32.3943 69.0372 32.3943 66.6972C32.3943 64.3573 34.2912 62.4604 36.6311 62.4604C38.9711 62.4604 40.868 64.3573 40.868 66.6972Z" fill="#FFBC00"/>
<path fill-rule="evenodd" clip-rule="evenodd" d="M36.6311 68.9622C37.8821 68.9622 38.8961 67.9481 38.8961 66.6972C38.8961 65.4463 37.8821 64.4322 36.6311 64.4322C35.3802 64.4322 34.3661 65.4463 34.3661 66.6972C34.3661 67.9481 35.3802 68.9622 36.6311 68.9622ZM36.6311 70.934C38.9711 70.934 40.868 69.0372 40.868 66.6972C40.868 64.3573 38.9711 62.4604 36.6311 62.4604C34.2912 62.4604 32.3943 64.3573 32.3943 66.6972C32.3943 69.0372 34.2912 70.934 36.6311 70.934Z" fill="black"/>
</svg>
