<svg width="388" height="317" viewBox="0 0 388 317" fill="none" xmlns="http://www.w3.org/2000/svg">
<path fill-rule="evenodd" clip-rule="evenodd" d="M219.444 198.046C219.444 202.377 222.968 205.888 227.314 205.888C231.66 205.888 235.185 202.377 235.185 198.046C235.185 193.716 231.66 190.205 227.314 190.205C222.968 190.205 219.444 193.716 219.444 198.046ZM254.959 198.046C254.959 202.376 258.483 205.888 262.83 205.888C267.177 205.888 270.701 202.376 270.701 198.046C270.701 193.716 267.177 190.205 262.83 190.205C258.483 190.205 254.959 193.716 254.959 198.046ZM211.508 198.046L211.508 182.297L262.813 182.297C262.817 182.297 262.82 182.298 262.822 182.298C262.824 182.298 262.827 182.297 262.83 182.297C270.678 182.297 277.17 187.999 278.408 195.467C278.412 195.492 278.415 195.518 278.419 195.542C278.5 196.044 278.557 196.552 278.589 197.069C278.59 197.112 278.592 197.155 278.595 197.199C278.609 197.481 278.638 197.76 278.638 198.046C278.638 198.277 278.613 198.5 278.603 198.729C278.603 198.752 278.604 198.774 278.603 198.798C278.603 198.824 278.597 198.849 278.596 198.877C278.569 199.373 278.521 199.863 278.449 200.348C278.447 200.358 278.446 200.37 278.446 200.381C277.31 207.969 270.762 213.795 262.83 213.795L262.314 213.795L262.312 213.795L227.332 213.795C227.328 213.795 227.325 213.794 227.322 213.794C227.319 213.794 227.317 213.795 227.315 213.795L227.314 213.795C220.019 213.795 213.895 208.864 212.073 202.17C212.072 202.169 212.072 202.168 212.072 202.167C211.936 201.662 211.824 201.149 211.738 200.626C211.733 200.6 211.729 200.574 211.724 200.549C211.644 200.047 211.589 199.54 211.556 199.025C211.554 198.98 211.552 198.936 211.55 198.892C211.535 198.609 211.508 198.332 211.508 198.046Z" fill="#FFBC00"/>
<path fill-rule="evenodd" clip-rule="evenodd" d="M376.543 91.5096C376.543 87.1788 373.058 83.6678 368.759 83.6678C364.461 83.6678 360.976 87.1788 360.976 91.5096C360.976 95.8404 364.461 99.3505 368.759 99.3505C373.058 99.3505 376.543 95.8404 376.543 91.5096ZM353.126 91.5096C353.126 82.8117 360.125 75.7607 368.759 75.7607L384.392 75.7607L384.392 91.5096C384.392 100.207 377.393 107.258 368.759 107.258C360.125 107.258 353.126 100.207 353.126 91.5096Z" fill="#FFBC00"/>
<path fill-rule="evenodd" clip-rule="evenodd" d="M332.895 154.075C328.596 154.075 325.11 157.586 325.11 161.916C325.11 166.247 328.596 169.758 332.895 169.758C337.193 169.758 340.678 166.247 340.678 161.916C340.678 157.586 337.193 154.075 332.895 154.075ZM332.895 177.665C324.261 177.665 317.261 170.615 317.261 161.916L317.262 146.167L332.895 146.167C341.529 146.167 348.528 153.219 348.528 161.916C348.528 170.615 341.529 177.665 332.895 177.665Z" fill="#FFBC00"/>
<path fill-rule="evenodd" clip-rule="evenodd" d="M333.068 205.887C337.415 205.887 340.939 202.376 340.939 198.045C340.939 193.715 337.415 190.204 333.068 190.204C328.722 190.204 325.198 193.715 325.198 198.045C325.198 202.376 328.722 205.887 333.068 205.887ZM368.584 205.887C372.932 205.887 376.455 202.376 376.455 198.045C376.455 193.715 372.932 190.204 368.584 190.204C364.238 190.204 360.714 193.715 360.714 198.045C360.714 202.376 364.238 205.887 368.584 205.887ZM317.304 197.2C317.306 197.156 317.308 197.111 317.31 197.067C317.343 196.552 317.399 196.044 317.479 195.543C317.483 195.517 317.487 195.492 317.491 195.465C317.578 194.942 317.69 194.429 317.826 193.925C317.826 193.924 317.827 193.922 317.827 193.921C319.648 187.228 325.773 182.297 333.068 182.297L333.069 182.297L333.076 182.297L333.085 182.297L368.066 182.297L368.068 182.297L368.584 182.297C376.517 182.297 383.063 188.123 384.199 195.71C384.2 195.722 384.202 195.733 384.204 195.744C384.276 196.229 384.323 196.719 384.35 197.215C384.351 197.242 384.357 197.267 384.357 197.295C384.357 197.318 384.357 197.339 384.357 197.363C384.367 197.591 384.392 197.815 384.392 198.045C384.392 198.332 384.363 198.61 384.349 198.893C384.346 198.936 384.345 198.98 384.343 199.023C384.311 199.54 384.254 200.047 384.173 200.55C384.169 200.575 384.166 200.599 384.162 200.624C382.924 208.092 376.431 213.795 368.584 213.795L368.576 213.795L368.568 213.795L317.261 213.795L317.261 198.045C317.261 197.759 317.289 197.482 317.304 197.2Z" fill="#FFBC00"/>
<path fill-rule="evenodd" clip-rule="evenodd" d="M333.068 134.555C337.415 134.555 340.939 131.044 340.939 126.713C340.939 122.382 337.415 118.872 333.068 118.872C328.722 118.872 325.198 122.382 325.198 126.713C325.198 131.044 328.722 134.555 333.068 134.555ZM368.584 134.555C372.932 134.555 376.455 131.044 376.455 126.713C376.455 122.383 372.932 118.872 368.584 118.872C364.238 118.872 360.714 122.383 360.714 126.713C360.714 131.044 364.238 134.555 368.584 134.555ZM317.304 125.867C317.306 125.823 317.308 125.778 317.31 125.735C317.343 125.22 317.399 124.712 317.479 124.211C317.483 124.186 317.487 124.158 317.491 124.132C317.578 123.61 317.69 123.097 317.826 122.593C317.826 122.592 317.827 122.59 317.827 122.589C319.648 115.895 325.773 110.964 333.068 110.964L333.069 110.964C333.071 110.964 333.073 110.965 333.076 110.965C333.079 110.965 333.083 110.964 333.085 110.964L368.066 110.964L368.068 110.964L368.584 110.964C376.517 110.964 383.063 116.791 384.199 124.377C384.2 124.389 384.202 124.401 384.204 124.412C384.276 124.895 384.323 125.386 384.35 125.883C384.351 125.91 384.357 125.935 384.357 125.962C384.357 125.985 384.357 126.007 384.357 126.03C384.367 126.258 384.392 126.482 384.392 126.713C384.392 127 384.363 127.278 384.349 127.561C384.346 127.604 384.345 127.647 384.343 127.69C384.311 128.207 384.254 128.715 384.173 129.218C384.169 129.242 384.166 129.267 384.162 129.291C382.924 136.76 376.431 142.462 368.584 142.462C368.581 142.462 368.578 142.462 368.576 142.462C368.574 142.462 368.571 142.462 368.568 142.462L317.261 142.462L317.261 126.713C317.261 126.428 317.289 126.149 317.304 125.867Z" fill="#FFBC00"/>
<path fill-rule="evenodd" clip-rule="evenodd" d="M325.111 55.5553C325.111 59.9343 328.596 63.4834 332.895 63.4834C337.193 63.4834 340.679 59.9343 340.679 55.5553C340.679 51.1772 337.193 47.6271 332.895 47.6271C328.596 47.6271 325.111 51.1772 325.111 55.5553ZM325.111 91.3343C325.111 95.7133 328.596 99.2634 332.895 99.2634C337.193 99.2634 340.679 95.7133 340.679 91.3343C340.679 86.9553 337.193 83.4051 332.895 83.4051C328.596 83.4051 325.111 86.9553 325.111 91.3343ZM333.735 39.6744C333.778 39.6773 333.823 39.6782 333.866 39.681C334.378 39.7131 334.881 39.7696 335.379 39.8515C335.405 39.8553 335.43 39.859 335.457 39.8628C335.975 39.9504 336.485 40.0625 336.985 40.201C336.986 40.201 336.988 40.201 336.989 40.2019C343.633 42.0368 348.528 48.2064 348.528 55.5553L348.528 55.5638L348.528 55.5722L348.528 90.8124L348.528 90.8134L348.528 91.3343C348.528 99.3246 342.745 105.921 335.213 107.064C335.201 107.066 335.19 107.067 335.179 107.07C334.698 107.142 334.212 107.19 333.719 107.216C333.692 107.218 333.667 107.223 333.64 107.224C333.617 107.225 333.596 107.223 333.573 107.224C333.346 107.234 333.124 107.258 332.895 107.258C332.61 107.258 332.335 107.23 332.054 107.215C332.011 107.213 331.968 107.211 331.925 107.209C331.412 107.176 330.908 107.12 330.408 107.039C330.384 107.034 330.36 107.031 330.335 107.027C322.922 105.781 317.261 99.2389 317.261 91.3343L317.261 91.3258L317.261 91.3173L317.262 39.6311L332.895 39.6311C333.179 39.6311 333.455 39.6594 333.735 39.6744Z" fill="#FFBC00"/>
<path fill-rule="evenodd" clip-rule="evenodd" d="M325.111 233.423C325.111 237.802 328.596 241.352 332.895 241.352C337.193 241.352 340.679 237.802 340.679 233.423C340.679 229.045 337.193 225.495 332.895 225.495C328.596 225.495 325.111 229.045 325.111 233.423ZM325.111 269.202C325.111 273.582 328.596 277.131 332.895 277.131C337.193 277.131 340.679 273.582 340.679 269.202C340.679 264.824 337.193 261.274 332.895 261.274C328.596 261.274 325.111 264.824 325.111 269.202ZM333.734 217.543C333.778 217.545 333.823 217.547 333.866 217.549C334.378 217.582 334.881 217.639 335.379 217.72C335.404 217.724 335.43 217.727 335.457 217.732C335.975 217.819 336.485 217.932 336.985 218.069C336.986 218.069 336.988 218.07 336.989 218.07C343.633 219.905 348.528 226.074 348.528 233.423L348.528 233.424L348.528 233.432L348.528 233.441L348.528 268.681L348.528 268.682L348.528 269.202C348.528 277.194 342.745 283.789 335.213 284.933C335.201 284.935 335.19 284.936 335.179 284.938C334.698 285.011 334.212 285.058 333.719 285.085C333.691 285.087 333.667 285.092 333.64 285.093C333.617 285.094 333.596 285.092 333.573 285.092C333.346 285.102 333.124 285.127 332.895 285.127C332.61 285.127 332.334 285.098 332.054 285.084C332.01 285.081 331.968 285.08 331.924 285.078C331.412 285.045 330.908 284.988 330.408 284.907C330.384 284.902 330.36 284.9 330.335 284.896C322.922 283.649 317.261 277.108 317.261 269.202L317.261 269.195L317.261 269.186L317.262 217.5L332.895 217.5C333.178 217.5 333.454 217.527 333.734 217.543Z" fill="#FFBC00"/>
<path fill-rule="evenodd" clip-rule="evenodd" d="M360.975 232.323C360.975 236.653 364.46 240.164 368.759 240.164C373.057 240.164 376.542 236.653 376.542 232.323C376.542 227.992 373.057 224.481 368.759 224.481C364.46 224.481 360.975 227.992 360.975 232.323ZM384.392 232.323C384.392 241.021 377.393 248.072 368.759 248.072L353.126 248.072L353.126 232.323C353.126 223.625 360.125 216.574 368.759 216.574C377.393 216.574 384.392 223.625 384.392 232.323Z" fill="#FFBC00"/>
<path fill-rule="evenodd" clip-rule="evenodd" d="M297.95 240.075C302.249 240.075 305.734 236.525 305.734 232.147C305.734 227.769 302.249 224.219 297.95 224.219C293.652 224.219 290.167 227.769 290.167 232.147C290.167 236.525 293.652 240.075 297.95 240.075ZM297.95 204.297C302.248 204.297 305.733 200.747 305.733 196.368C305.733 191.989 302.248 188.44 297.95 188.44C293.652 188.44 290.167 191.989 290.167 196.368C290.167 200.747 293.652 204.297 297.95 204.297ZM297.95 248.071L282.317 248.071L282.317 196.385C282.317 196.382 282.318 196.38 282.318 196.377C282.318 196.375 282.317 196.372 282.317 196.368C282.317 188.464 287.977 181.923 295.39 180.676C295.415 180.672 295.439 180.669 295.464 180.664C295.963 180.583 296.467 180.526 296.98 180.494C297.022 180.491 297.066 180.489 297.109 180.487C297.389 180.472 297.666 180.444 297.95 180.444C298.179 180.444 298.401 180.47 298.628 180.48C298.651 180.48 298.673 180.478 298.696 180.479C298.722 180.48 298.747 180.485 298.774 180.486C299.268 180.513 299.754 180.561 300.234 180.633C300.245 180.635 300.257 180.636 300.268 180.638C307.799 181.782 313.583 188.378 313.583 196.368L313.583 196.889L313.583 196.89L313.583 232.13C313.583 232.133 313.582 232.136 313.582 232.139C313.582 232.143 313.583 232.144 313.583 232.147C313.583 239.497 308.688 245.667 302.044 247.501C302.043 247.502 302.042 247.503 302.041 247.503C301.54 247.64 301.03 247.752 300.511 247.84C300.485 247.843 300.459 247.847 300.434 247.852C299.936 247.933 299.433 247.989 298.922 248.022C298.877 248.024 298.833 248.025 298.789 248.028C298.509 248.043 298.234 248.071 297.95 248.071Z" fill="#FFBC00"/>
<path fill-rule="evenodd" clip-rule="evenodd" d="M305.734 90.5833C305.734 86.2525 302.249 82.7424 297.95 82.7424C293.652 82.7424 290.166 86.2525 290.166 90.5833C290.166 94.9141 293.652 98.4242 297.95 98.4242C302.249 98.4242 305.734 94.9141 305.734 90.5833ZM313.583 90.5833C313.583 99.2812 306.584 106.332 297.95 106.332L282.317 106.332L282.317 90.5833C282.317 81.8854 289.316 74.8345 297.95 74.8345C306.584 74.8345 313.583 81.8854 313.583 90.5833Z" fill="#FFBC00"/>
<path fill-rule="evenodd" clip-rule="evenodd" d="M290.167 126.888C290.167 131.267 293.652 134.816 297.95 134.816C302.249 134.816 305.734 131.267 305.734 126.888C305.734 122.51 302.249 118.96 297.95 118.96C293.652 118.96 290.167 122.51 290.167 126.888ZM290.167 162.667C290.167 167.046 293.652 170.596 297.95 170.596C302.248 170.596 305.733 167.046 305.733 162.667C305.733 158.288 302.248 154.739 297.95 154.739C293.652 154.739 290.167 158.288 290.167 162.667ZM298.789 111.007C298.833 111.01 298.877 111.011 298.922 111.014C299.433 111.047 299.936 111.103 300.434 111.184C300.46 111.188 300.485 111.192 300.511 111.196C301.03 111.283 301.54 111.395 302.041 111.534C302.042 111.534 302.043 111.535 302.044 111.535C308.688 113.37 313.583 119.539 313.583 126.888C313.583 126.891 313.582 126.894 313.582 126.897C313.582 126.899 313.583 126.902 313.583 126.905L313.583 162.145L313.583 162.147L313.583 162.667C313.583 170.657 307.799 177.254 300.268 178.397C300.257 178.399 300.245 178.401 300.234 178.403C299.754 178.475 299.268 178.524 298.774 178.549C298.747 178.551 298.722 178.556 298.696 178.557C298.673 178.558 298.651 178.556 298.628 178.556C298.401 178.567 298.179 178.591 297.95 178.591C297.666 178.591 297.389 178.564 297.109 178.548C297.066 178.545 297.022 178.544 296.98 178.541C296.467 178.509 295.963 178.453 295.464 178.372C295.439 178.367 295.415 178.364 295.39 178.36C287.977 177.113 282.317 170.572 282.317 162.667C282.317 162.664 282.318 162.661 282.318 162.659C282.318 162.657 282.317 162.653 282.317 162.65L282.317 110.964L297.95 110.964C298.234 110.964 298.509 110.992 298.789 111.007Z" fill="#FFBC00"/>
<path fill-rule="evenodd" clip-rule="evenodd" d="M262.086 240.165C266.384 240.165 269.869 236.653 269.869 232.323C269.869 227.993 266.384 224.481 262.086 224.481C257.787 224.481 254.301 227.993 254.301 232.323C254.301 236.653 257.787 240.165 262.086 240.165ZM262.086 216.574C270.72 216.574 277.719 223.625 277.719 232.323L277.719 248.072L262.086 248.072C253.452 248.072 246.452 241.021 246.452 232.323C246.452 223.625 253.452 216.574 262.086 216.574Z" fill="#FFBC00"/>
<path fill-rule="evenodd" clip-rule="evenodd" d="M411.4 161.916C411.4 157.586 407.875 154.075 403.53 154.075C399.183 154.075 395.659 157.586 395.659 161.916C395.659 166.246 399.183 169.757 403.53 169.757C407.875 169.757 411.4 166.246 411.4 161.916ZM375.884 161.916C375.884 157.586 372.36 154.075 368.014 154.075C363.666 154.075 360.143 157.586 360.143 161.916C360.143 166.246 363.666 169.757 368.014 169.757C372.36 169.757 375.884 166.246 375.884 161.916ZM419.336 161.916L419.336 177.665L368.03 177.665C368.027 177.665 368.024 177.664 368.021 177.664C368.02 177.664 368.017 177.665 368.014 177.665C360.166 177.665 353.674 171.962 352.436 164.494C352.432 164.47 352.429 164.445 352.425 164.42C352.344 163.918 352.287 163.41 352.255 162.893C352.253 162.85 352.252 162.807 352.249 162.763C352.235 162.481 352.206 162.203 352.206 161.916C352.206 161.685 352.231 161.461 352.241 161.233C352.241 161.21 352.239 161.188 352.24 161.165C352.241 161.139 352.246 161.113 352.248 161.086C352.275 160.589 352.322 160.099 352.394 159.615C352.396 159.604 352.397 159.592 352.398 159.58C353.534 151.994 360.081 146.167 368.014 146.167L368.53 146.167L368.531 146.167L403.512 146.167C403.515 146.167 403.518 146.168 403.522 146.168C403.525 146.168 403.526 146.167 403.529 146.167L403.53 146.167C410.825 146.167 416.949 151.098 418.771 157.792C418.771 157.794 418.772 157.795 418.772 157.796C418.908 158.3 419.019 158.813 419.106 159.336C419.111 159.362 419.114 159.388 419.119 159.414C419.199 159.915 419.255 160.422 419.288 160.938C419.29 160.981 419.292 161.026 419.293 161.07C419.309 161.352 419.336 161.631 419.336 161.916Z" fill="#FFBC00"/>
<path fill-rule="evenodd" clip-rule="evenodd" d="M368.759 63.2208C373.058 63.2208 376.543 59.7098 376.543 55.3799C376.543 51.0491 373.058 47.5381 368.759 47.5381C364.461 47.5381 360.975 51.0491 360.975 55.3799C360.975 59.7098 364.461 63.2208 368.759 63.2208ZM368.759 39.6311C377.393 39.6311 384.392 46.682 384.392 55.3799L384.392 71.1288L368.759 71.1288C360.125 71.1288 353.126 64.0769 353.126 55.3799C353.126 46.682 360.125 39.6311 368.759 39.6311Z" fill="#FFBC00"/>
<path fill-rule="evenodd" clip-rule="evenodd" d="M368.759 311.409C373.057 311.409 376.542 307.859 376.542 303.481C376.542 299.102 373.057 295.552 368.759 295.552C364.46 295.552 360.975 299.102 360.975 303.481C360.975 307.859 364.46 311.409 368.759 311.409ZM368.759 275.63C373.057 275.63 376.542 272.08 376.542 267.702C376.542 263.322 373.057 259.773 368.759 259.773C364.46 259.773 360.975 263.322 360.975 267.702C360.975 272.08 364.46 275.63 368.759 275.63ZM368.759 319.404L353.126 319.404L353.126 267.718C353.126 267.715 353.127 267.713 353.127 267.71C353.127 267.708 353.126 267.705 353.126 267.702C353.126 259.797 358.786 253.256 366.199 252.009C366.224 252.005 366.248 252.002 366.273 251.998C366.772 251.916 367.276 251.859 367.789 251.827C367.831 251.824 367.875 251.823 367.917 251.82C368.199 251.806 368.474 251.777 368.759 251.777C368.987 251.777 369.21 251.803 369.437 251.813C369.46 251.813 369.481 251.811 369.504 251.812C369.531 251.813 369.556 251.818 369.583 251.819C370.077 251.847 370.562 251.894 371.043 251.966C371.054 251.968 371.065 251.97 371.077 251.971C378.608 253.116 384.391 259.711 384.391 267.702L384.391 268.222L384.392 268.223L384.392 303.463C384.392 303.466 384.391 303.469 384.391 303.473L384.391 303.48L384.391 303.481C384.391 310.83 379.498 317 372.853 318.835C372.852 318.835 372.851 318.836 372.849 318.836C372.349 318.973 371.839 319.085 371.32 319.173C371.294 319.177 371.269 319.18 371.243 319.185C370.745 319.266 370.242 319.322 369.731 319.355C369.686 319.357 369.642 319.359 369.599 319.361C369.318 319.377 369.043 319.404 368.759 319.404Z" fill="#FFBC00"/>
<path fill-rule="evenodd" clip-rule="evenodd" d="M341.511 303.655C341.511 299.325 337.987 295.814 333.641 295.814C329.294 295.814 325.77 299.325 325.77 303.655C325.77 307.986 329.294 311.497 333.641 311.497C337.987 311.497 341.511 307.986 341.511 303.655ZM305.996 303.655C305.996 299.325 302.472 295.814 298.125 295.814C293.778 295.814 290.254 299.325 290.254 303.655C290.254 307.986 293.778 311.497 298.125 311.497C302.472 311.497 305.996 307.986 305.996 303.655ZM349.447 303.655L349.447 319.405L298.142 319.405L298.133 319.405L298.125 319.405C290.277 319.405 283.785 313.702 282.547 306.234C282.543 306.209 282.54 306.184 282.535 306.159C282.455 305.657 282.398 305.149 282.366 304.632C282.364 304.59 282.362 304.546 282.36 304.503C282.346 304.22 282.317 303.942 282.317 303.655C282.317 303.425 282.342 303.201 282.352 302.972C282.352 302.949 282.351 302.928 282.352 302.904C282.352 302.877 282.358 302.852 282.359 302.825C282.386 302.329 282.433 301.839 282.505 301.354C282.507 301.343 282.508 301.332 282.509 301.32C283.645 293.733 290.193 287.907 298.125 287.907L298.641 287.907L298.643 287.907L333.623 287.907L333.633 287.907L333.64 287.907L333.641 287.907C340.936 287.907 347.06 292.838 348.882 299.531C348.883 299.532 348.883 299.534 348.883 299.535C349.019 300.039 349.13 300.552 349.217 301.075C349.222 301.102 349.226 301.127 349.23 301.153C349.311 301.654 349.366 302.161 349.399 302.677C349.401 302.721 349.402 302.766 349.405 302.81C349.42 303.092 349.447 303.369 349.447 303.655Z" fill="#FFBC00"/>
<path fill-rule="evenodd" clip-rule="evenodd" d="M164.948 161.916C164.948 157.585 161.424 154.075 157.078 154.075C152.731 154.075 149.207 157.585 149.207 161.916C149.207 166.247 152.731 169.757 157.078 169.757C161.424 169.757 164.948 166.247 164.948 161.916ZM129.433 161.916C129.433 157.585 125.908 154.075 121.562 154.075C117.214 154.075 113.691 157.585 113.691 161.916C113.691 166.247 117.214 169.757 121.562 169.757C125.908 169.757 129.433 166.247 129.433 161.916ZM172.884 161.916L172.884 177.665L121.579 177.665C121.575 177.665 121.572 177.664 121.57 177.664C121.567 177.664 121.565 177.665 121.562 177.665C113.714 177.665 107.222 171.963 105.984 164.495C105.98 164.47 105.977 164.444 105.972 164.42C105.892 163.918 105.835 163.41 105.803 162.893C105.801 162.85 105.799 162.807 105.797 162.764C105.783 162.481 105.754 162.202 105.754 161.916C105.754 161.685 105.779 161.461 105.789 161.233C105.789 161.21 105.788 161.188 105.789 161.165C105.789 161.138 105.795 161.113 105.796 161.086C105.823 160.589 105.87 160.099 105.942 159.615C105.944 159.604 105.945 159.592 105.946 159.581C107.082 151.993 113.63 146.167 121.562 146.167L122.078 146.167C122.079 146.167 122.079 146.167 122.08 146.167L157.06 146.167C157.063 146.167 157.067 146.167 157.07 146.167L157.077 146.167L157.078 146.167C164.373 146.167 170.497 151.098 172.319 157.792C172.32 157.793 172.32 157.795 172.32 157.796C172.456 158.3 172.567 158.813 172.654 159.336C172.659 159.362 172.663 159.388 172.666 159.414C172.748 159.915 172.803 160.422 172.836 160.937C172.838 160.982 172.839 161.026 172.842 161.07C172.857 161.353 172.884 161.63 172.884 161.916Z" fill="#FFBC00"/>
<path fill-rule="evenodd" clip-rule="evenodd" d="M164.116 198.045C164.116 193.715 160.63 190.204 156.332 190.204C152.034 190.204 148.547 193.715 148.547 198.045C148.547 202.376 152.034 205.887 156.332 205.887C160.63 205.887 164.116 202.376 164.116 198.045ZM140.699 198.045C140.699 189.348 147.698 182.297 156.332 182.297L171.965 182.297L171.965 198.045C171.965 206.744 164.966 213.795 156.332 213.795C147.698 213.795 140.699 206.744 140.699 198.045Z" fill="#FFBC00"/>
<path fill-rule="evenodd" clip-rule="evenodd" d="M199.98 91.3341C199.98 86.9551 196.495 83.406 192.195 83.406C187.897 83.406 184.412 86.9551 184.412 91.3341C184.412 95.7122 187.897 99.2623 192.195 99.2623C196.495 99.2623 199.98 95.7122 199.98 91.3341ZM199.98 55.5552C199.98 51.1761 196.495 47.626 192.195 47.626C187.897 47.626 184.412 51.1761 184.412 55.5551C184.412 59.9342 187.897 63.4843 192.195 63.4843C196.495 63.4843 199.98 59.9342 199.98 55.5552ZM191.357 107.215C191.312 107.212 191.268 107.211 191.224 107.208C190.713 107.176 190.21 107.12 189.712 107.039C189.687 107.034 189.661 107.031 189.634 107.027C189.116 106.939 188.606 106.827 188.105 106.688C188.104 106.688 188.103 106.688 188.102 106.688C181.457 104.853 176.563 98.683 176.563 91.3341L176.563 91.3257L176.563 91.3172L176.563 56.077L176.563 56.076L176.563 55.5551C176.563 47.5648 182.346 40.9685 189.877 39.825C189.889 39.8231 189.9 39.8222 189.911 39.8194C190.392 39.7478 190.879 39.6997 191.372 39.6734C191.399 39.6715 191.423 39.6668 191.45 39.6658C191.473 39.6649 191.495 39.6668 191.518 39.6658C191.744 39.6555 191.967 39.631 192.195 39.631C192.48 39.631 192.757 39.6592 193.037 39.6743C193.08 39.6771 193.123 39.6781 193.166 39.6809C193.679 39.7129 194.183 39.7694 194.682 39.8505C194.706 39.8552 194.731 39.858 194.756 39.8627C202.169 41.1089 207.829 47.6505 207.829 55.5552L207.829 55.5636L207.829 55.5721L207.829 107.258L192.195 107.258C191.913 107.258 191.637 107.23 191.357 107.215Z" fill="#FFBC00"/>
<path fill-rule="evenodd" clip-rule="evenodd" d="M113.69 91.5096C113.69 95.8404 117.214 99.3505 121.56 99.3505C125.906 99.3505 129.43 95.8404 129.43 91.5096C129.43 87.1788 125.906 83.6678 121.56 83.6678C117.214 83.6678 113.69 87.1788 113.69 91.5096ZM149.205 91.5096C149.205 95.8394 152.729 99.3505 157.076 99.3505C161.423 99.3505 164.946 95.8394 164.946 91.5096C164.946 87.1788 161.423 83.6678 157.076 83.6678C152.729 83.6678 149.205 87.1788 149.205 91.5096ZM105.754 91.5096L105.754 75.7607L157.059 75.7607C157.062 75.7607 157.066 75.7607 157.068 75.7607C157.07 75.7607 157.073 75.7607 157.076 75.7607C164.923 75.7607 171.416 81.4628 172.654 88.931C172.657 88.9562 172.661 88.9804 172.665 89.0056C172.745 89.5077 172.803 90.0154 172.835 90.5324C172.837 90.5752 172.839 90.6181 172.84 90.6619C172.855 90.9441 172.884 91.2227 172.884 91.5096C172.884 91.7406 172.859 91.9642 172.849 92.1924C172.848 92.2157 172.85 92.2381 172.849 92.2604C172.848 92.2874 172.843 92.3126 172.841 92.3396C172.815 92.8361 172.767 93.327 172.695 93.8105C172.694 93.8217 172.693 93.8338 172.691 93.845C171.556 101.432 165.008 107.258 157.076 107.258L156.56 107.258L156.558 107.258L121.577 107.258C121.574 107.258 121.571 107.257 121.568 107.257C121.565 107.257 121.563 107.258 121.56 107.258C114.265 107.258 108.141 102.328 106.319 95.6336C106.318 95.6326 106.318 95.6308 106.318 95.6298C106.182 95.1259 106.071 94.6126 105.984 94.09C105.979 94.0639 105.975 94.0369 105.971 94.0117C105.89 93.5105 105.835 93.0038 105.802 92.4877C105.799 92.4439 105.799 92.3992 105.796 92.3554C105.781 92.0732 105.754 91.7946 105.754 91.5096Z" fill="#FFBC00"/>
<path fill-rule="evenodd" clip-rule="evenodd" d="M156.332 47.538C152.033 47.538 148.547 51.049 148.547 55.3789C148.547 59.7097 152.033 63.2207 156.332 63.2207C160.63 63.2207 164.115 59.7097 164.115 55.3789C164.115 51.049 160.63 47.538 156.332 47.538ZM156.332 71.1286C147.698 71.1286 140.699 64.0768 140.699 55.3789L140.699 39.631L156.332 39.631C164.966 39.631 171.965 46.6819 171.965 55.3789C171.965 64.0768 164.966 71.1286 156.332 71.1286Z" fill="#FFBC00"/>
<path fill-rule="evenodd" clip-rule="evenodd" d="M227.314 98.4251C231.66 98.4251 235.185 94.9141 235.185 90.5842C235.185 86.2534 231.66 82.7424 227.314 82.7424C222.968 82.7424 219.444 86.2534 219.444 90.5842C219.444 94.9141 222.968 98.4251 227.314 98.4251ZM262.83 98.4251C267.177 98.4251 270.701 94.9141 270.701 90.5842C270.701 86.2534 267.177 82.7424 262.83 82.7424C258.483 82.7424 254.959 86.2534 254.959 90.5842C254.959 94.9141 258.483 98.4251 262.83 98.4251ZM211.55 89.7374C211.552 89.6937 211.554 89.649 211.556 89.6052C211.589 89.09 211.644 88.5823 211.724 88.0812C211.729 88.056 211.733 88.0299 211.738 88.0038C211.824 87.4803 211.936 86.967 212.072 86.463C212.072 86.4621 212.072 86.4612 212.073 86.4593C213.895 79.7652 220.019 74.8345 227.314 74.8345L227.315 74.8345C227.317 74.8345 227.319 74.8354 227.322 74.8354C227.325 74.8354 227.328 74.8345 227.332 74.8345L262.312 74.8345L262.314 74.8345L262.83 74.8345C270.762 74.8345 277.31 80.6613 278.446 88.2488C278.446 88.2591 278.447 88.2712 278.449 88.2824C278.521 88.7668 278.569 89.2568 278.596 89.7533C278.597 89.7803 278.603 89.8064 278.603 89.8325C278.604 89.8558 278.603 89.8772 278.603 89.9005C278.613 90.1287 278.638 90.3523 278.638 90.5842C278.638 90.8702 278.609 91.1488 278.595 91.431C278.592 91.4748 278.59 91.5177 278.589 91.5605C278.557 92.0775 278.5 92.5852 278.419 93.0882C278.415 93.1125 278.412 93.1376 278.408 93.1618C277.17 100.63 270.678 106.332 262.83 106.332C262.827 106.332 262.824 106.332 262.822 106.332C262.82 106.332 262.817 106.332 262.813 106.332L211.508 106.332L211.508 90.5842C211.508 90.2982 211.535 90.0197 211.55 89.7374Z" fill="#FFBC00"/>
<path fill-rule="evenodd" clip-rule="evenodd" d="M254.389 55.3799C254.389 59.7107 257.914 63.2208 262.26 63.2208C266.605 63.2208 270.13 59.7107 270.13 55.3799C270.13 51.0491 266.605 47.539 262.26 47.539C257.914 47.539 254.389 51.0491 254.389 55.3799ZM289.905 55.3799C289.905 59.7098 293.429 63.2208 297.775 63.2208C302.123 63.2208 305.646 59.7098 305.646 55.3799C305.646 51.0491 302.123 47.539 297.775 47.539C293.429 47.539 289.905 51.0491 289.905 55.3799ZM246.452 55.3799L246.452 39.6311L297.759 39.6311C297.762 39.6311 297.765 39.6311 297.767 39.6311C297.769 39.6311 297.772 39.6311 297.775 39.6311C305.622 39.6311 312.115 45.3331 313.353 52.8014C313.357 52.8266 313.36 52.8508 313.364 52.8759C313.445 53.378 313.502 53.8857 313.533 54.4027C313.536 54.4456 313.537 54.4894 313.54 54.5322C313.555 54.8154 313.583 55.0939 313.583 55.3799C313.583 55.611 313.558 55.8345 313.547 56.0628C313.547 56.0861 313.549 56.1084 313.548 56.1308C313.547 56.1578 313.543 56.1829 313.541 56.2099C313.515 56.7065 313.467 57.1974 313.395 57.6809C313.393 57.6921 313.391 57.7042 313.39 57.7153C312.255 65.3019 305.707 71.1288 297.775 71.1288L297.259 71.1288L297.258 71.1288L262.276 71.1288C262.274 71.1288 262.271 71.1278 262.268 71.1278C262.264 71.1278 262.262 71.1288 262.26 71.1288C254.964 71.1288 248.839 66.1981 247.018 59.5039C247.018 59.503 247.017 59.5011 247.017 59.5002C246.881 58.9962 246.769 58.4829 246.682 57.9603C246.678 57.9342 246.675 57.9072 246.67 57.8821C246.59 57.3809 246.534 56.8741 246.501 56.3581C246.499 56.3143 246.498 56.2696 246.495 56.2258C246.479 55.9435 246.452 55.665 246.452 55.3799Z" fill="#FFBC00"/>
<path fill-rule="evenodd" clip-rule="evenodd" d="M262.086 170.596C266.385 170.596 269.87 167.046 269.87 162.668C269.87 158.289 266.385 154.74 262.086 154.74C257.788 154.74 254.301 158.289 254.301 162.668C254.301 167.046 257.788 170.596 262.086 170.596ZM262.086 134.817C266.384 134.817 269.869 131.268 269.869 126.889C269.869 122.51 266.384 118.96 262.086 118.96C257.788 118.96 254.301 122.51 254.301 126.889C254.301 131.268 257.788 134.817 262.086 134.817ZM262.086 178.591L246.452 178.591L246.452 126.906C246.452 126.903 246.453 126.9 246.453 126.898C246.453 126.895 246.452 126.892 246.452 126.889C246.452 118.984 252.113 112.443 259.526 111.196C259.551 111.192 259.575 111.189 259.6 111.184C260.098 111.103 260.602 111.047 261.116 111.015C261.158 111.012 261.202 111.01 261.245 111.008C261.525 110.993 261.801 110.964 262.086 110.964C262.315 110.964 262.537 110.989 262.763 111C262.787 111.001 262.809 110.999 262.832 111C262.858 111.001 262.883 111.005 262.909 111.007C263.403 111.034 263.89 111.082 264.37 111.153C264.381 111.155 264.393 111.157 264.404 111.159C271.935 112.302 277.719 118.899 277.719 126.889L277.719 127.409L277.719 127.411L277.719 162.651C277.719 162.654 277.718 162.657 277.718 162.66C277.718 162.662 277.719 162.665 277.719 162.668C277.719 170.017 272.824 176.187 266.179 178.021C266.178 178.022 266.177 178.022 266.176 178.022C265.675 178.16 265.166 178.272 264.647 178.36C264.621 178.364 264.595 178.368 264.569 178.373C264.072 178.454 263.569 178.509 263.057 178.542C263.013 178.544 262.969 178.546 262.925 178.549C262.645 178.564 262.369 178.591 262.086 178.591Z" fill="#FFBC00"/>
<path fill-rule="evenodd" clip-rule="evenodd" d="M219.357 126.713C219.357 131.044 222.842 134.554 227.14 134.554C231.439 134.554 234.925 131.044 234.925 126.713C234.925 122.382 231.439 118.872 227.14 118.872C222.842 118.872 219.357 122.382 219.357 126.713ZM242.774 126.713C242.774 135.411 235.775 142.462 227.14 142.462L211.508 142.462L211.508 126.713C211.508 118.015 218.506 110.964 227.14 110.964C235.775 110.964 242.774 118.015 242.774 126.713Z" fill="#FFBC00"/>
<path fill-rule="evenodd" clip-rule="evenodd" d="M234.925 55.3799C234.925 51.0491 231.439 47.539 227.14 47.539C222.842 47.539 219.357 51.0491 219.357 55.3799C219.357 59.7107 222.842 63.2208 227.14 63.2208C231.439 63.2208 234.925 59.7107 234.925 55.3799ZM211.508 55.3799C211.508 46.682 218.506 39.6311 227.14 39.6311L242.774 39.6311L242.774 55.3799C242.774 64.0778 235.775 71.1288 227.14 71.1288C218.506 71.1288 211.508 64.0778 211.508 55.3799Z" fill="#FFBC00"/>
<path fill-rule="evenodd" clip-rule="evenodd" d="M227.141 154.074C222.842 154.074 219.357 157.585 219.357 161.915C219.357 166.246 222.842 169.757 227.141 169.757C231.439 169.757 234.925 166.246 234.925 161.915C234.925 157.585 231.439 154.074 227.141 154.074ZM227.141 177.665C218.507 177.665 211.508 170.613 211.508 161.915L211.508 146.167L227.141 146.167C235.775 146.167 242.774 153.218 242.774 161.915C242.774 170.613 235.775 177.665 227.141 177.665Z" fill="#FFBC00"/>
<path fill-rule="evenodd" clip-rule="evenodd" d="M192.196 188.439C187.898 188.439 184.413 191.989 184.413 196.367C184.413 200.745 187.898 204.296 192.196 204.296C196.495 204.296 199.98 200.745 199.98 196.367C199.98 191.989 196.495 188.439 192.196 188.439ZM192.196 224.217C187.898 224.217 184.413 227.767 184.413 232.146C184.413 236.525 187.898 240.074 192.196 240.074C196.495 240.074 199.98 236.525 199.98 232.146C199.98 227.767 196.495 224.217 192.196 224.217ZM192.196 180.444L207.829 180.444L207.829 232.129C207.829 232.132 207.828 232.136 207.828 232.138C207.828 232.14 207.829 232.143 207.829 232.146C207.829 240.051 202.169 246.593 194.756 247.839L194.682 247.85C194.183 247.932 193.679 247.989 193.166 248.021C193.123 248.023 193.08 248.025 193.037 248.027C192.756 248.042 192.481 248.071 192.196 248.071C191.967 248.071 191.745 248.046 191.518 248.036C191.495 248.035 191.474 248.037 191.451 248.036C191.424 248.035 191.399 248.03 191.372 248.029C190.878 248.002 190.393 247.954 189.912 247.881C189.901 247.879 189.89 247.878 189.878 247.877C182.347 246.733 176.563 240.137 176.563 232.146L176.563 231.626L176.563 231.624L176.563 196.384C176.563 196.381 176.564 196.379 176.564 196.376C176.564 196.373 176.563 196.37 176.563 196.367C176.563 189.018 181.457 182.849 188.102 181.014C188.103 181.013 188.104 181.013 188.106 181.013C188.606 180.875 189.116 180.763 189.634 180.676C189.661 180.671 189.686 180.667 189.712 180.663C190.21 180.582 190.713 180.526 191.224 180.493C191.268 180.491 191.313 180.489 191.356 180.486C191.637 180.471 191.912 180.444 192.196 180.444Z" fill="#FFBC00"/>
<path fill-rule="evenodd" clip-rule="evenodd" d="M184.412 161.916C184.412 166.247 187.898 169.757 192.196 169.757C196.495 169.757 199.98 166.247 199.98 161.916C199.98 157.585 196.495 154.075 192.196 154.075C187.898 154.075 184.412 157.585 184.412 161.916ZM176.563 161.916C176.563 153.218 183.562 146.167 192.196 146.167L207.829 146.167L207.829 161.916C207.829 170.614 200.83 177.665 192.196 177.665C183.562 177.665 176.563 170.614 176.563 161.916Z" fill="#FFBC00"/>
<path fill-rule="evenodd" clip-rule="evenodd" d="M332.149 27.0912C336.496 27.0912 340.019 23.5805 340.019 19.2498C340.019 14.9192 336.496 11.4094 332.149 11.4094C327.802 11.4094 324.279 14.9192 324.279 19.2498C324.279 23.5805 327.802 27.0912 332.149 27.0912ZM367.666 27.0912C372.012 27.0912 375.536 23.5805 375.536 19.2498C375.536 14.9201 372.012 11.4094 367.666 11.4094C363.319 11.4094 359.795 14.9201 359.795 19.2498C359.795 23.5805 363.319 27.0912 367.666 27.0912ZM316.385 18.404C316.387 18.3606 316.388 18.3153 316.391 18.2709C316.424 17.7561 316.479 17.2486 316.56 16.7485C316.564 16.7226 316.567 16.6958 316.572 16.6699C316.659 16.1477 316.771 15.6337 316.907 15.1299C316.907 15.129 316.907 15.1272 316.908 15.1263C318.729 8.43202 324.854 3.50146 332.149 3.50146C332.152 3.50146 332.155 3.50146 332.157 3.50146C332.16 3.50146 332.163 3.50146 332.166 3.50146L367.147 3.50146L367.149 3.50146L367.666 3.50146C375.597 3.50146 382.145 9.32773 383.28 16.9149C383.282 16.926 383.283 16.938 383.285 16.9491C383.357 17.4325 383.404 17.9234 383.43 18.4207C383.432 18.4466 383.436 18.4724 383.438 18.4992C383.439 18.5214 383.436 18.5436 383.437 18.5667C383.449 18.7951 383.473 19.0197 383.473 19.2498C383.473 19.5364 383.445 19.8146 383.43 20.0975C383.428 20.1409 383.426 20.1844 383.423 20.2269C383.391 20.7436 383.334 21.252 383.255 21.7539C383.25 21.7789 383.247 21.8038 383.243 21.8288C382.005 29.2967 375.512 34.9991 367.666 34.9991C367.662 34.9991 367.659 34.9982 367.657 34.9982C367.654 34.9982 367.652 34.9991 367.649 34.9991L316.342 34.9991L316.342 19.2498C316.342 18.9642 316.369 18.686 316.385 18.404Z" fill="#FFBC00"/>
<path fill-rule="evenodd" clip-rule="evenodd" d="M297.03 27.0919C301.329 27.0919 304.813 23.5811 304.813 19.2503C304.813 14.9195 301.329 11.4087 297.03 11.4087C292.731 11.4087 289.246 14.9195 289.246 19.2503C289.246 23.5811 292.731 27.0919 297.03 27.0919ZM297.03 3.50146C305.664 3.50146 312.664 10.5518 312.664 19.2503L312.664 34.9991L297.03 34.9991C288.396 34.9991 281.397 27.9479 281.397 19.2503C281.397 10.5518 288.396 3.50146 297.03 3.50146Z" fill="#FFBC00"/>
<path fill-rule="evenodd" clip-rule="evenodd" d="M261.912 11.4094C257.564 11.4094 254.041 14.9201 254.041 19.2508C254.041 23.5814 257.564 27.0921 261.912 27.0921C266.258 27.0921 269.781 23.5814 269.781 19.2508C269.781 14.9201 266.258 11.4094 261.912 11.4094ZM226.395 11.4094C222.047 11.4094 218.524 14.9201 218.524 19.2508C218.524 23.5805 222.047 27.0912 226.395 27.0912C230.741 27.0912 234.265 23.5805 234.265 19.2508C234.265 14.9201 230.741 11.4094 226.395 11.4094ZM277.676 20.0965C277.673 20.1409 277.671 20.1853 277.669 20.2297C277.637 20.7445 277.581 21.252 277.501 21.7521C277.496 21.7789 277.492 21.8048 277.489 21.8307C277.401 22.3529 277.29 22.8669 277.154 23.3706C277.154 23.3716 277.153 23.3734 277.153 23.3743C275.331 30.0686 269.206 34.9991 261.912 34.9991L261.911 34.9991C261.909 34.9991 261.906 34.9991 261.903 34.9991C261.901 34.9991 261.897 34.9991 261.894 34.9991L226.913 34.9991L226.911 34.9991L226.395 34.9991C218.463 34.9991 211.916 29.1729 210.78 21.5857C210.779 21.5746 210.777 21.5626 210.776 21.5515C210.704 21.0681 210.656 20.5772 210.63 20.0799C210.629 20.054 210.623 20.0281 210.622 20.0013C210.622 19.9792 210.623 19.957 210.622 19.9339C210.612 19.7055 210.588 19.4809 210.588 19.2508C210.588 18.9642 210.616 18.686 210.631 18.4031C210.633 18.3597 210.635 18.3162 210.636 18.2737C210.669 17.757 210.725 17.2486 210.806 16.7466C210.811 16.7217 210.814 16.6967 210.818 16.6727C212.055 9.20385 218.549 3.50146 226.395 3.50146C226.398 3.50146 226.401 3.50239 226.404 3.50239C226.405 3.50239 226.408 3.50146 226.412 3.50146L277.719 3.50146L277.719 19.2508C277.719 19.5364 277.691 19.8146 277.676 20.0965Z" fill="#FFBC00"/>
<path fill-rule="evenodd" clip-rule="evenodd" d="M155.412 27.092C159.711 27.092 163.195 23.5813 163.195 19.2506C163.195 14.92 159.711 11.4093 155.412 11.4093C151.112 11.4093 147.628 14.92 147.628 19.2506C147.628 23.5813 151.112 27.092 155.412 27.092ZM155.412 3.50134C164.046 3.50134 171.045 10.5524 171.045 19.2506L171.045 34.999L155.412 34.999C146.778 34.999 139.779 27.948 139.779 19.2506C139.779 10.5524 146.778 3.50134 155.412 3.50134Z" fill="#FFBC00"/>
<path fill-rule="evenodd" clip-rule="evenodd" d="M190.357 -23.7065C186.057 -23.7065 182.573 -20.1566 182.573 -15.7786C182.573 -11.3988 186.057 -7.8498 190.357 -7.8498C194.656 -7.8498 198.14 -11.3988 198.14 -15.7786C198.14 -20.1566 194.656 -23.7065 190.357 -23.7065ZM190.357 12.0728C186.057 12.0728 182.573 15.6226 182.573 20.0016C182.573 24.3805 186.057 27.9304 190.357 27.9304C194.656 27.9304 198.14 24.3805 198.14 20.0016C198.14 15.6226 194.656 12.0728 190.357 12.0728ZM190.357 -31.7017L205.99 -31.7017L205.99 19.9838C205.99 19.9876 205.989 19.9904 205.989 19.9922C205.989 19.995 205.99 19.9978 205.99 20.0016C205.99 27.9061 200.329 34.447 192.916 35.6938C192.891 35.6985 192.867 35.7013 192.843 35.705C192.345 35.7863 191.839 35.8434 191.327 35.8761C191.284 35.8789 191.241 35.8798 191.198 35.8817C190.917 35.8976 190.641 35.9256 190.357 35.9256C190.128 35.9256 189.905 35.9004 189.679 35.8901C189.655 35.8891 189.634 35.892 189.612 35.891C189.584 35.8892 189.56 35.8845 189.533 35.8826C189.038 35.8574 188.553 35.8088 188.073 35.7368C188.061 35.7349 188.049 35.7331 188.039 35.7312C180.508 34.5872 174.724 27.9921 174.724 20.0016L174.724 19.481C174.724 19.48 174.723 19.48 174.723 19.4791L174.723 -15.7618C174.723 -15.7637 174.724 -15.7665 174.724 -15.7702L174.724 -15.7777L174.724 -15.7786C174.724 -23.127 179.619 -29.2968 186.263 -31.1316C186.264 -31.1325 186.266 -31.1325 186.266 -31.1325C186.767 -31.2708 187.277 -31.383 187.796 -31.4709C187.821 -31.4746 187.847 -31.4783 187.873 -31.4821C188.37 -31.5634 188.874 -31.6204 189.385 -31.6522C189.428 -31.655 189.473 -31.6569 189.517 -31.6587C189.797 -31.6746 190.073 -31.7017 190.357 -31.7017Z" fill="#FFBC00"/>
<path fill-rule="evenodd" clip-rule="evenodd" d="M84.6031 27.092C88.902 27.092 92.386 23.5813 92.386 19.2506C92.386 14.92 88.902 11.4093 84.6031 11.4093C80.3034 11.4093 76.8193 14.92 76.8193 19.2506C76.8193 23.5813 80.3034 27.092 84.6031 27.092ZM84.6031 3.50134C93.2366 3.50134 100.236 10.5524 100.236 19.2506L100.236 34.999L84.6031 34.999C75.9687 34.999 68.9695 27.948 68.9695 19.2506C68.9695 10.5524 75.9688 3.50134 84.6031 3.50134Z" fill="#FFBC00"/>
<path fill-rule="evenodd" clip-rule="evenodd" d="M111.764 -15.7777C111.764 -11.3988 115.249 -7.84887 119.547 -7.84887C123.846 -7.84887 127.331 -11.3988 127.331 -15.7777C127.331 -20.1566 123.846 -23.7056 119.547 -23.7056C115.249 -23.7056 111.764 -20.1566 111.764 -15.7777ZM111.764 20.0016C111.764 24.3805 115.249 27.9304 119.547 27.9304C123.846 27.9304 127.331 24.3805 127.331 20.0016C127.331 15.6226 123.846 12.0728 119.547 12.0728C115.249 12.0728 111.764 15.6226 111.764 20.0016ZM120.387 -31.6587C120.43 -31.6559 120.475 -31.655 120.519 -31.6513C121.03 -31.6195 121.534 -31.5634 122.03 -31.4821C122.057 -31.4774 122.083 -31.4737 122.108 -31.4699C122.628 -31.3821 123.138 -31.2699 123.637 -31.1325C123.638 -31.1325 123.64 -31.1316 123.641 -31.1306C130.286 -29.2959 135.181 -23.127 135.181 -15.7777C135.181 -15.7749 135.18 -15.7721 135.18 -15.7693C135.18 -15.7665 135.181 -15.7637 135.181 -15.7609L135.181 19.48L135.181 19.481L135.181 20.0016C135.181 27.9921 129.397 34.5881 121.866 35.7321C121.854 35.7331 121.842 35.7349 121.832 35.7368C121.351 35.8088 120.865 35.8574 120.371 35.8836C120.345 35.8845 120.319 35.8901 120.293 35.891C120.27 35.8929 120.249 35.8901 120.227 35.891C120 35.9013 119.776 35.9256 119.547 35.9256C119.264 35.9256 118.987 35.8976 118.706 35.8826C118.664 35.8807 118.621 35.8789 118.578 35.8761C118.065 35.8443 117.56 35.7873 117.062 35.706C117.037 35.7013 117.013 35.6985 116.988 35.6938C109.575 34.4479 103.914 27.9061 103.914 20.0016C103.914 19.9988 103.915 19.996 103.915 19.9932C103.915 19.9904 103.914 19.9876 103.914 19.9848L103.914 -31.7017L119.547 -31.7017C119.831 -31.7017 120.107 -31.6737 120.387 -31.6587Z" fill="#FFBC00"/>
</svg>
