<svg width="378" height="317" viewBox="0 0 378 317" fill="none" xmlns="http://www.w3.org/2000/svg">
<path fill-rule="evenodd" clip-rule="evenodd" d="M157.902 96.1093C157.902 91.7785 154.378 88.2675 150.032 88.2675C145.686 88.2675 142.161 91.7785 142.161 96.1093C142.161 100.439 145.686 103.95 150.032 103.95C154.378 103.95 157.902 100.439 157.902 96.1093ZM122.387 96.1093C122.387 91.7795 118.863 88.2675 114.516 88.2675C110.169 88.2675 106.645 91.7795 106.645 96.1093C106.645 100.439 110.169 103.95 114.516 103.95C118.863 103.95 122.387 100.439 122.387 96.1093ZM165.839 96.1093V111.858H114.533C114.529 111.858 114.526 111.857 114.525 111.857C114.522 111.857 114.519 111.858 114.516 111.858C106.669 111.858 100.176 106.156 98.938 98.6879C98.9343 98.6627 98.9315 98.6376 98.9268 98.6133C98.8464 98.1112 98.7894 97.6035 98.7576 97.0865C98.7557 97.0427 98.7538 96.9999 98.751 96.9561C98.737 96.6739 98.708 96.3953 98.708 96.1093C98.708 95.8783 98.7333 95.6547 98.7435 95.4265C98.7435 95.4032 98.7426 95.3808 98.7435 95.3576C98.7435 95.3315 98.7492 95.3063 98.7501 95.2784C98.7772 94.7818 98.8249 94.2919 98.8969 93.8075C98.8987 93.7972 98.8997 93.7851 98.9006 93.7739C100.037 86.1864 106.585 80.3605 114.516 80.3605H115.032H115.034H150.015C150.018 80.3605 150.021 80.3614 150.024 80.3614C150.027 80.3614 150.03 80.3605 150.031 80.3605H150.032C157.327 80.3605 163.452 85.2912 165.273 91.9853C165.274 91.9863 165.274 91.9872 165.274 91.9881C165.41 92.493 165.522 93.0063 165.609 93.5289C165.613 93.555 165.617 93.5811 165.622 93.6062C165.702 94.1084 165.757 94.6151 165.79 95.1302C165.792 95.175 165.794 95.2188 165.797 95.2635C165.812 95.5457 165.839 95.8233 165.839 96.1093Z" fill="#FFBC00"/>
<path fill-rule="evenodd" clip-rule="evenodd" d="M0.80307 202.646C0.80307 206.976 4.28829 210.488 8.58727 210.488C12.8853 210.488 16.3706 206.976 16.3706 202.646C16.3706 198.315 12.8853 194.805 8.58727 194.805C4.28829 194.805 0.80307 198.315 0.80307 202.646ZM24.2204 202.646C24.2204 211.344 17.2213 218.395 8.58727 218.395H-7.0459L-7.0459 202.646C-7.0459 193.948 -0.0467601 186.897 8.58727 186.897C17.2213 186.897 24.2204 193.948 24.2204 202.646Z" fill="#FFBC00"/>
<path fill-rule="evenodd" clip-rule="evenodd" d="M44.4515 140.081C48.7505 140.081 52.2357 136.569 52.2357 132.239C52.2357 127.908 48.7505 124.397 44.4515 124.397C40.1535 124.397 36.6682 127.908 36.6682 132.239C36.6682 136.569 40.1535 140.081 44.4515 140.081ZM44.4515 116.49C53.0856 116.49 60.0847 123.54 60.0847 132.239V147.988H44.4515C35.8175 147.988 28.8184 140.937 28.8184 132.239C28.8184 123.54 35.8175 116.49 44.4515 116.49Z" fill="#FFBC00"/>
<path fill-rule="evenodd" clip-rule="evenodd" d="M44.2785 88.2678C39.9316 88.2678 36.4076 91.7789 36.4076 96.1098C36.4076 100.44 39.9316 103.951 44.2785 103.951C48.6244 103.951 52.1484 100.44 52.1484 96.1098C52.1484 91.7789 48.6244 88.2678 44.2785 88.2678ZM8.76227 88.2678C4.41449 88.2678 0.891359 91.7789 0.891359 96.1098C0.891359 100.44 4.41449 103.951 8.76227 103.951C13.1082 103.951 16.6322 100.44 16.6322 96.1098C16.6322 91.7789 13.1082 88.2678 8.76227 88.2678ZM60.0418 96.9547C60.0399 96.9994 60.038 97.0442 60.0361 97.0879C60.0034 97.6031 59.9473 98.1108 59.8669 98.612C59.8632 98.6381 59.8594 98.6632 59.8547 98.6903C59.7678 99.2129 59.6565 99.7262 59.52 100.23C59.52 100.231 59.5191 100.233 59.5191 100.234C57.6977 106.927 51.5734 111.858 44.2785 111.858H44.2775H44.2701H44.2607H9.28022H9.27837H8.76227C0.829679 111.858 -5.71724 106.032 -6.85327 98.4453C-6.8542 98.4331 -6.85611 98.422 -6.85798 98.4108C-6.92998 97.9264 -6.97669 97.4364 -7.0038 96.9398C-7.00474 96.9128 -7.01037 96.8877 -7.01037 96.8606C-7.0113 96.8373 -7.01037 96.8159 -7.01037 96.7926C-7.02066 96.5644 -7.0459 96.3399 -7.0459 96.1098C-7.0459 95.8228 -7.01693 95.5453 -7.0029 95.2621C-7.0001 95.2192 -6.99914 95.1754 -6.99634 95.1326C-6.96455 94.6155 -6.90752 94.1078 -6.82711 93.6048C-6.82244 93.5806 -6.81963 93.5563 -6.81589 93.5312C-5.57794 86.0627 0.914764 80.3605 8.76227 80.3605H8.76974H8.77816H60.0848V96.1098C60.0848 96.3958 60.0577 96.6734 60.0418 96.9547Z" fill="#FFBC00"/>
<path fill-rule="evenodd" clip-rule="evenodd" d="M44.2785 159.601C39.9316 159.601 36.4076 163.112 36.4076 167.442C36.4076 171.773 39.9316 175.283 44.2785 175.283C48.6244 175.283 52.1484 171.773 52.1484 167.442C52.1484 163.112 48.6244 159.601 44.2785 159.601ZM8.76227 159.601C4.41449 159.601 0.891359 163.112 0.891359 167.442C0.891359 171.772 4.41449 175.283 8.76227 175.283C13.1082 175.283 16.6322 171.772 16.6322 167.442C16.6322 163.112 13.1082 159.601 8.76227 159.601ZM60.0418 168.288C60.0399 168.332 60.038 168.377 60.0361 168.42C60.0034 168.936 59.9473 169.443 59.8669 169.944C59.8632 169.97 59.8594 169.997 59.8547 170.023C59.7678 170.545 59.6565 171.059 59.52 171.563C59.52 171.564 59.5191 171.565 59.5191 171.566C57.6977 178.26 51.5734 183.191 44.2785 183.191H44.2775C44.2757 183.191 44.2729 183.19 44.2701 183.19C44.2673 183.19 44.2635 183.191 44.2607 183.191H9.28022H9.27837H8.76227C0.829679 183.191 -5.71724 177.364 -6.85327 169.778C-6.8542 169.767 -6.85611 169.754 -6.85798 169.743C-6.92998 169.26 -6.97669 168.769 -7.0038 168.272C-7.00474 168.245 -7.01037 168.22 -7.01037 168.193C-7.0113 168.17 -7.01037 168.148 -7.01037 168.125C-7.02066 167.897 -7.0459 167.673 -7.0459 167.442C-7.0459 167.155 -7.01693 166.877 -7.0029 166.595C-7.0001 166.551 -6.99914 166.508 -6.99634 166.465C-6.96455 165.948 -6.90752 165.44 -6.82711 164.937C-6.82244 164.913 -6.81963 164.888 -6.81589 164.864C-5.57794 157.396 0.914764 151.693 8.76227 151.693C8.76508 151.693 8.76787 151.693 8.76974 151.693C8.77254 151.693 8.77535 151.693 8.77816 151.693H60.0848V167.442C60.0848 167.727 60.0577 168.006 60.0418 168.288Z" fill="#FFBC00"/>
<path fill-rule="evenodd" clip-rule="evenodd" d="M52.2355 238.6C52.2355 234.221 48.7502 230.672 44.4511 230.672C40.1529 230.672 36.6676 234.221 36.6676 238.6C36.6676 242.978 40.1529 246.528 44.4511 246.528C48.7502 246.528 52.2355 242.978 52.2355 238.6ZM52.2355 202.821C52.2355 198.442 48.7502 194.892 44.4511 194.892C40.1529 194.892 36.6676 198.442 36.6676 202.821C36.6676 207.2 40.1529 210.75 44.4511 210.75C48.7502 210.75 52.2355 207.2 52.2355 202.821ZM43.6114 254.481C43.5679 254.478 43.5235 254.477 43.4801 254.474C42.9687 254.442 42.4647 254.386 41.9672 254.304C41.9413 254.3 41.9163 254.296 41.8895 254.292C41.3707 254.205 40.8612 254.093 40.3609 253.954C40.36 253.954 40.3582 253.954 40.3572 253.953C33.713 252.118 28.8184 245.949 28.8184 238.6V238.592V238.583L28.8184 203.343V203.342V202.821C28.8184 194.831 34.6016 188.234 42.1327 187.091C42.1447 187.089 42.1559 187.088 42.167 187.085C42.6478 187.014 43.1342 186.966 43.6271 186.939C43.6539 186.937 43.6789 186.933 43.7057 186.932C43.7288 186.931 43.7501 186.933 43.7732 186.932C43.9998 186.921 44.2227 186.897 44.4511 186.897C44.7359 186.897 45.0115 186.925 45.2926 186.94C45.3351 186.942 45.3786 186.944 45.4211 186.947C45.9344 186.979 46.4383 187.035 46.9377 187.116C46.9618 187.121 46.9858 187.124 47.0107 187.129C54.4244 188.375 60.0847 194.916 60.0847 202.821V202.829V202.838V254.524H44.4511C44.1672 254.524 43.8916 254.496 43.6114 254.481Z" fill="#FFBC00"/>
<path fill-rule="evenodd" clip-rule="evenodd" d="M52.2355 60.7318C52.2355 56.3528 48.7502 52.8027 44.4511 52.8027C40.1529 52.8027 36.6676 56.3528 36.6676 60.7318C36.6676 65.1099 40.1529 68.66 44.4511 68.66C48.7502 68.66 52.2355 65.1099 52.2355 60.7318ZM52.2355 24.9528C52.2355 20.5729 48.7502 17.0237 44.4511 17.0237C40.1529 17.0237 36.6676 20.5729 36.6676 24.9528C36.6676 29.3309 40.1529 32.881 44.4511 32.881C48.7502 32.881 52.2355 29.3309 52.2355 24.9528ZM43.6123 76.6117C43.5679 76.6098 43.5235 76.6079 43.4801 76.6061C42.9687 76.5731 42.4656 76.5166 41.9672 76.4356C41.9422 76.4308 41.9163 76.428 41.8895 76.4233C41.3717 76.3357 40.8612 76.2236 40.3609 76.0861C40.36 76.0861 40.3582 76.0852 40.3572 76.0852C33.713 74.2503 28.8184 68.0807 28.8184 60.7318V60.7309V60.7233V60.7139L28.8184 25.4737V25.4727V24.9528C28.8184 16.9615 34.6016 10.3662 42.1327 9.22173C42.1447 9.21985 42.1559 9.21892 42.167 9.21703C42.6478 9.14451 43.1342 9.0974 43.6271 9.07008C43.6549 9.0682 43.6789 9.06351 43.7057 9.06256C43.7288 9.06162 43.7501 9.06349 43.7732 9.06349C43.9998 9.05313 44.2227 9.0277 44.4511 9.0277C44.7359 9.0277 45.0124 9.05692 45.2926 9.07104C45.3361 9.07387 45.3786 9.07481 45.422 9.07763C45.9343 9.10966 46.4383 9.1671 46.9377 9.24811C46.9618 9.25282 46.9858 9.25565 47.0117 9.25941C54.4244 10.5065 60.0847 17.0472 60.0847 24.9528V24.9604V24.9688V76.655H44.4511C44.1681 76.655 43.8925 76.6277 43.6123 76.6117Z" fill="#FFBC00"/>
<path fill-rule="evenodd" clip-rule="evenodd" d="M16.3715 61.8325C16.3715 57.5026 12.8862 53.9916 8.58727 53.9916C4.28921 53.9916 0.803968 57.5026 0.803968 61.8325C0.803968 66.1633 4.28921 69.6743 8.58727 69.6743C12.8862 69.6743 16.3715 66.1633 16.3715 61.8325ZM-7.0459 61.8325C-7.0459 53.1346 -0.0467601 46.0836 8.58727 46.0836H24.2204L24.2204 61.8325C24.2204 70.5304 17.2213 77.5813 8.58727 77.5813C-0.0467601 77.5813 -7.0459 70.5304 -7.0459 61.8325Z" fill="#FFBC00"/>
<path fill-rule="evenodd" clip-rule="evenodd" d="M79.3963 54.0797C75.0974 54.0797 71.6122 57.6298 71.6122 62.0079C71.6122 66.386 75.0974 69.9361 79.3963 69.9361C83.6944 69.9361 87.1796 66.386 87.1796 62.0079C87.1796 57.6298 83.6944 54.0797 79.3963 54.0797ZM79.3963 89.8578C75.0983 89.8578 71.6131 93.4079 71.6131 97.7869C71.6131 102.166 75.0983 105.715 79.3963 105.715C83.6944 105.715 87.1796 102.166 87.1796 97.7869C87.1796 93.4079 83.6944 89.8578 79.3963 89.8578ZM79.3963 46.0837H95.0295V97.7699C95.0295 97.7728 95.0286 97.7756 95.0286 97.7784C95.0286 97.7803 95.0295 97.7831 95.0295 97.7869C95.0295 105.692 89.3694 112.232 81.9559 113.479C81.931 113.483 81.9069 113.486 81.882 113.491C81.3836 113.572 80.8796 113.629 80.3664 113.661C80.3238 113.664 80.2804 113.666 80.2369 113.668C79.9567 113.683 79.6802 113.711 79.3963 113.711C79.167 113.711 78.9451 113.686 78.7185 113.675C78.6954 113.675 78.6732 113.677 78.6501 113.676C78.6242 113.675 78.5993 113.671 78.5724 113.669C78.0787 113.642 77.5923 113.594 77.1123 113.522C77.1012 113.52 77.0892 113.519 77.0781 113.517C69.5473 112.374 63.7632 105.777 63.7632 97.7869V97.266V97.2651V62.0249C63.7632 62.022 63.7641 62.0192 63.7641 62.0164C63.7641 62.0126 63.7632 62.0107 63.7632 62.0079C63.7632 54.6581 68.6577 48.4885 75.3027 46.6545C75.3036 46.6536 75.3045 46.6526 75.3054 46.6526C75.8066 46.5151 76.3161 46.403 76.8349 46.3154C76.8608 46.3117 76.8867 46.3079 76.9126 46.3032C77.4101 46.2222 77.9131 46.1657 78.4245 46.1327C78.4689 46.1308 78.5133 46.1299 78.5567 46.1271C78.8369 46.112 79.1125 46.0837 79.3963 46.0837Z" fill="#FFBC00"/>
<path fill-rule="evenodd" clip-rule="evenodd" d="M71.6122 203.572C71.6122 207.903 75.0974 211.413 79.3963 211.413C83.6944 211.413 87.1805 207.903 87.1805 203.572C87.1805 199.241 83.6944 195.731 79.3963 195.731C75.0974 195.731 71.6122 199.241 71.6122 203.572ZM63.7632 203.572C63.7632 194.874 70.7623 187.823 79.3963 187.823H95.0295V203.572C95.0295 212.27 88.0304 219.321 79.3963 219.321C70.7623 219.321 63.7632 212.27 63.7632 203.572Z" fill="#FFBC00"/>
<path fill-rule="evenodd" clip-rule="evenodd" d="M87.1796 167.267C87.1796 162.888 83.6944 159.339 79.3963 159.339C75.0974 159.339 71.6122 162.888 71.6122 167.267C71.6122 171.645 75.0974 175.195 79.3963 175.195C83.6944 175.195 87.1796 171.645 87.1796 167.267ZM87.1796 131.488C87.1796 127.109 83.6944 123.559 79.3963 123.559C75.0983 123.559 71.6131 127.109 71.6131 131.488C71.6131 135.867 75.0983 139.416 79.3963 139.416C83.6944 139.416 87.1796 135.867 87.1796 131.488ZM78.5567 183.148C78.5133 183.145 78.4689 183.144 78.4245 183.141C77.9131 183.108 77.4101 183.052 76.9126 182.971C76.8867 182.967 76.8608 182.963 76.8349 182.959C76.3161 182.872 75.8066 182.76 75.3054 182.621C75.3045 182.621 75.3036 182.62 75.3027 182.62C68.6577 180.785 63.7632 174.616 63.7632 167.267C63.7632 167.264 63.7641 167.261 63.7641 167.259C63.7641 167.256 63.7632 167.253 63.7632 167.25V132.01V132.008V131.488C63.7632 123.498 69.5473 116.901 77.0781 115.758C77.0892 115.756 77.1012 115.754 77.1123 115.752C77.5923 115.681 78.0787 115.632 78.5724 115.606C78.5993 115.604 78.6242 115.6 78.6501 115.598C78.6732 115.597 78.6954 115.6 78.7185 115.599C78.9451 115.588 79.167 115.564 79.3963 115.564C79.6802 115.564 79.9567 115.591 80.2369 115.607C80.2804 115.61 80.3238 115.611 80.3664 115.614C80.8796 115.646 81.3836 115.702 81.882 115.783C81.9069 115.788 81.931 115.791 81.9559 115.796C89.3694 117.042 95.0295 123.583 95.0295 131.488C95.0295 131.491 95.0286 131.494 95.0286 131.496C95.0286 131.498 95.0295 131.502 95.0295 131.505V183.191H79.3963C79.1125 183.191 78.8369 183.163 78.5567 183.148Z" fill="#FFBC00"/>
<path fill-rule="evenodd" clip-rule="evenodd" d="M115.261 53.9906C110.963 53.9906 107.477 57.5026 107.477 61.8325C107.477 66.1623 110.963 69.6743 115.261 69.6743C119.56 69.6743 123.045 66.1623 123.045 61.8325C123.045 57.5026 119.56 53.9906 115.261 53.9906ZM115.261 77.5813C106.627 77.5813 99.6274 70.5304 99.6274 61.8325V46.0836H115.261C123.895 46.0836 130.894 53.1346 130.894 61.8325C130.894 70.5304 123.895 77.5813 115.261 77.5813Z" fill="#FFBC00"/>
<path fill-rule="evenodd" clip-rule="evenodd" d="M-34.0539 132.239C-34.0539 136.569 -30.5289 140.08 -26.184 140.08C-21.8371 140.08 -18.3131 136.569 -18.3131 132.239C-18.3131 127.909 -21.8371 124.398 -26.184 124.398C-30.5289 124.398 -34.0539 127.909 -34.0539 132.239ZM1.46234 132.239C1.46234 136.569 4.98634 140.08 9.33224 140.08C13.68 140.08 17.2032 136.569 17.2032 132.239C17.2032 127.909 13.68 124.398 9.33224 124.398C4.98634 124.398 1.46234 127.909 1.46234 132.239ZM-41.9902 132.239V116.49H9.31636C9.31917 116.49 9.32198 116.491 9.32478 116.491C9.32665 116.491 9.32944 116.49 9.33224 116.49C17.1798 116.49 23.6725 122.193 24.9104 129.661C24.9141 129.685 24.917 129.71 24.9216 129.735C25.002 130.238 25.0591 130.745 25.0909 131.262C25.0937 131.305 25.0946 131.348 25.0974 131.392C25.1115 131.674 25.1404 131.953 25.1404 132.239C25.1404 132.47 25.1152 132.694 25.1049 132.922C25.1049 132.946 25.1068 132.967 25.1058 132.99C25.1049 133.016 25.1002 133.042 25.0983 133.069C25.0712 133.566 25.0245 134.056 24.9525 134.54C24.9506 134.551 24.9487 134.564 24.9478 134.575C23.8127 142.161 17.2648 147.988 9.33224 147.988H8.81615H8.8152H-26.1662C-26.169 147.988 -26.1718 147.987 -26.1756 147.987C-26.1784 147.987 -26.1802 147.988 -26.183 147.988H-26.184C-33.4789 147.988 -39.6032 143.057 -41.4246 136.363C-41.4246 136.361 -41.4255 136.36 -41.4255 136.36C-41.562 135.856 -41.6733 135.342 -41.7602 134.819C-41.7649 134.793 -41.7677 134.767 -41.7724 134.742C-41.8528 134.24 -41.9089 133.734 -41.9416 133.218C-41.9435 133.174 -41.9454 133.129 -41.9472 133.085C-41.9631 132.803 -41.9902 132.524 -41.9902 132.239Z" fill="#FFBC00"/>
<path fill-rule="evenodd" clip-rule="evenodd" d="M8.58727 230.934C4.28829 230.934 0.80307 234.445 0.80307 238.775C0.80307 243.106 4.28829 246.617 8.58727 246.617C12.8853 246.617 16.3715 243.106 16.3715 238.775C16.3715 234.445 12.8853 230.934 8.58727 230.934ZM8.58727 254.524C-0.0467601 254.524 -7.0459 247.473 -7.0459 238.775L-7.0459 223.027H8.58727C17.2213 223.027 24.2204 230.078 24.2204 238.775C24.2204 247.473 17.2213 254.524 8.58727 254.524Z" fill="#FFBC00"/>
<path fill-rule="evenodd" clip-rule="evenodd" d="M8.58727 -17.2542C4.28921 -17.2542 0.803968 -13.7041 0.803968 -9.32604C0.803968 -4.94703 4.28921 -1.39692 8.58727 -1.39692C12.8862 -1.39692 16.3715 -4.94703 16.3715 -9.32604C16.3715 -13.7041 12.8862 -17.2542 8.58727 -17.2542ZM8.58727 18.5248C4.28921 18.5248 0.803968 22.0749 0.803968 26.4529C0.803968 30.8329 4.28921 34.3821 8.58727 34.3821C12.8862 34.3821 16.3715 30.8329 16.3715 26.4529C16.3715 22.0749 12.8862 18.5248 8.58727 18.5248ZM8.58727 -25.2493H24.2204L24.2204 26.4369C24.2204 26.4397 24.2195 26.4426 24.2195 26.4454C24.2195 26.4473 24.2204 26.4501 24.2204 26.4529C24.2204 34.3585 18.5603 40.8992 11.1469 42.1463C11.1219 42.1501 11.0979 42.1529 11.0729 42.1576C10.5745 42.2387 10.0705 42.2961 9.55727 42.3281C9.51473 42.3309 9.47127 42.3319 9.42874 42.3347C9.14762 42.3488 8.87208 42.3781 8.58727 42.3781C8.35886 42.3781 8.13602 42.3526 7.90947 42.3423C7.88635 42.3423 7.86506 42.3441 7.84195 42.3432C7.81513 42.3423 7.79018 42.3376 7.76337 42.3357C7.26957 42.3084 6.78411 42.2612 6.30326 42.1887C6.29216 42.1868 6.28104 42.185 6.26902 42.184C-1.26183 41.0396 -7.045 34.4442 -7.045 26.4529V25.933L-7.0459 25.932L-7.0459 -9.30814C-7.0459 -9.31097 -7.045 -9.31379 -7.045 -9.31756V-9.3251V-9.32604C-7.045 -16.6749 -2.15139 -22.8445 4.49359 -24.6794C4.49451 -24.6794 4.49544 -24.6804 4.49729 -24.6804C4.99756 -24.8179 5.50706 -24.93 6.02582 -25.0176C6.05264 -25.0223 6.07761 -25.0251 6.1035 -25.0298C6.601 -25.1108 7.10405 -25.1673 7.61541 -25.2003C7.6598 -25.2022 7.70419 -25.204 7.74765 -25.2059C8.02784 -25.2219 8.30338 -25.2493 8.58727 -25.2493Z" fill="#FFBC00"/>
<path fill-rule="evenodd" clip-rule="evenodd" d="M35.8353 -9.50009C35.8353 -5.1701 39.3593 -1.65898 43.7052 -1.65898C48.052 -1.65898 51.5761 -5.1701 51.5761 -9.50009C51.5761 -13.831 48.052 -17.3421 43.7052 -17.3421C39.3593 -17.3421 35.8353 -13.831 35.8353 -9.50009ZM71.3505 -9.50009C71.3505 -5.1701 74.8746 -1.65898 79.2214 -1.65898C83.5683 -1.65898 87.0923 -5.1701 87.0923 -9.50009C87.0923 -13.831 83.5683 -17.3421 79.2214 -17.3421C74.8746 -17.3421 71.3505 -13.831 71.3505 -9.50009ZM27.8989 -9.50009L27.8989 -25.2494L79.2046 -25.2494H79.213H79.2214C87.0689 -25.2494 93.5616 -19.5472 94.7996 -12.0787C94.8033 -12.0535 94.8061 -12.0293 94.8108 -12.0042C94.8912 -11.502 94.9482 -10.9943 94.98 -10.4773C94.9819 -10.4344 94.9838 -10.3907 94.9866 -10.3478C95.0006 -10.0646 95.0296 -9.78702 95.0296 -9.50009C95.0296 -9.26999 95.0043 -9.04545 94.994 -8.81722C94.994 -8.79393 94.995 -8.77251 94.994 -8.74923C94.994 -8.72221 94.9884 -8.69705 94.9875 -8.67004C94.9604 -8.1735 94.9137 -7.68349 94.8417 -7.19907C94.8389 -7.18789 94.8379 -7.17672 94.8369 -7.16461C93.7009 0.422185 87.1531 6.24829 79.2214 6.24829H78.7053H78.7035L43.723 6.24829H43.7136H43.7061H43.7052C36.4103 6.24829 30.286 1.31743 28.4646 -5.37598C28.4636 -5.37691 28.4637 -5.37875 28.4637 -5.37968C28.3272 -5.88367 28.2159 -6.39699 28.1289 -6.9196C28.1243 -6.94662 28.1205 -6.97178 28.1159 -6.99786C28.0354 -7.49905 27.9803 -8.00583 27.9475 -8.52192C27.9457 -8.56571 27.9438 -8.61042 27.941 -8.65514C27.9261 -8.93647 27.8989 -9.21409 27.8989 -9.50009Z" fill="#FFBC00"/>
<path fill-rule="evenodd" clip-rule="evenodd" d="M212.398 132.239C212.398 136.57 215.922 140.08 220.268 140.08C224.615 140.08 228.139 136.57 228.139 132.239C228.139 127.908 224.615 124.398 220.268 124.398C215.922 124.398 212.398 127.908 212.398 132.239ZM247.913 132.239C247.913 136.57 251.438 140.08 255.784 140.08C260.132 140.08 263.655 136.57 263.655 132.239C263.655 127.908 260.132 124.398 255.784 124.398C251.438 124.398 247.913 127.908 247.913 132.239ZM204.462 132.239V116.49H255.768C255.771 116.49 255.774 116.491 255.776 116.491C255.779 116.491 255.782 116.49 255.784 116.49C263.632 116.49 270.125 122.192 271.363 129.66C271.366 129.686 271.369 129.711 271.374 129.735C271.454 130.237 271.511 130.745 271.543 131.262C271.545 131.306 271.547 131.348 271.55 131.391C271.564 131.674 271.593 131.953 271.593 132.239C271.593 132.47 271.567 132.695 271.557 132.922C271.557 132.945 271.558 132.967 271.557 132.99C271.557 133.017 271.551 133.042 271.55 133.069C271.523 133.566 271.477 134.056 271.405 134.54C271.402 134.551 271.401 134.563 271.4 134.574C270.264 142.162 263.716 147.988 255.784 147.988H255.268C255.267 147.988 255.267 147.988 255.266 147.988H220.286C220.283 147.988 220.279 147.988 220.277 147.988H220.269H220.268C212.973 147.988 206.849 143.057 205.028 136.363C205.027 136.362 205.027 136.36 205.027 136.359C204.89 135.855 204.779 135.342 204.692 134.819C204.687 134.793 204.684 134.767 204.68 134.741C204.598 134.24 204.543 133.733 204.511 133.218C204.509 133.173 204.507 133.13 204.504 133.085C204.489 132.803 204.462 132.525 204.462 132.239Z" fill="#FFBC00"/>
<path fill-rule="evenodd" clip-rule="evenodd" d="M213.23 96.1098C213.23 100.44 216.716 103.951 221.015 103.951C225.313 103.951 228.799 100.44 228.799 96.1098C228.799 91.7789 225.313 88.2678 221.015 88.2678C216.716 88.2678 213.23 91.7789 213.23 96.1098ZM236.648 96.1098C236.648 104.807 229.649 111.858 221.015 111.858H205.381V96.1098C205.381 87.4107 212.38 80.3605 221.015 80.3605C229.649 80.3605 236.648 87.4107 236.648 96.1098Z" fill="#FFBC00"/>
<path fill-rule="evenodd" clip-rule="evenodd" d="M177.366 202.821C177.366 207.2 180.852 210.749 185.151 210.749C189.449 210.749 192.934 207.2 192.934 202.821C192.934 198.443 189.449 194.893 185.151 194.893C180.852 194.893 177.366 198.443 177.366 202.821ZM177.366 238.6C177.366 242.979 180.852 246.529 185.151 246.529C189.449 246.529 192.934 242.979 192.934 238.6C192.934 234.221 189.449 230.671 185.151 230.671C180.852 230.671 177.366 234.221 177.366 238.6ZM185.989 186.94C186.034 186.943 186.078 186.944 186.122 186.947C186.633 186.979 187.136 187.035 187.635 187.116C187.66 187.121 187.685 187.124 187.712 187.129C188.23 187.216 188.741 187.328 189.241 187.467C189.242 187.467 189.244 187.467 189.245 187.468C195.889 189.303 200.783 195.472 200.783 202.821V202.829V202.838V238.078V238.079V238.6C200.783 246.59 195 253.187 187.469 254.33C187.457 254.332 187.446 254.333 187.435 254.336C186.954 254.407 186.468 254.455 185.975 254.482C185.947 254.484 185.923 254.488 185.896 254.489C185.873 254.49 185.852 254.488 185.829 254.489C185.602 254.5 185.379 254.524 185.151 254.524C184.866 254.524 184.589 254.496 184.309 254.481C184.266 254.478 184.223 254.477 184.18 254.474C183.667 254.442 183.163 254.386 182.664 254.305C182.64 254.3 182.615 254.297 182.59 254.292C175.177 253.046 169.517 246.505 169.517 238.6V238.592V238.583V186.897H185.151C185.434 186.897 185.709 186.925 185.989 186.94Z" fill="#FFBC00"/>
<path fill-rule="evenodd" clip-rule="evenodd" d="M263.656 202.646C263.656 198.315 260.132 194.805 255.786 194.805C251.44 194.805 247.916 198.315 247.916 202.646C247.916 206.976 251.44 210.488 255.786 210.488C260.132 210.488 263.656 206.976 263.656 202.646ZM228.141 202.646C228.141 198.316 224.617 194.805 220.27 194.805C215.923 194.805 212.4 198.316 212.4 202.646C212.4 206.976 215.923 210.488 220.27 210.488C224.617 210.488 228.141 206.976 228.141 202.646ZM271.593 202.646V218.395H220.287C220.284 218.395 220.28 218.395 220.279 218.395C220.276 218.395 220.273 218.395 220.27 218.395C212.424 218.395 205.93 212.692 204.692 205.224C204.689 205.199 204.685 205.175 204.682 205.15C204.601 204.648 204.543 204.14 204.511 203.623C204.51 203.58 204.508 203.537 204.506 203.493C204.491 203.211 204.462 202.933 204.462 202.646C204.462 202.415 204.487 202.191 204.497 201.963C204.498 201.94 204.497 201.917 204.497 201.895C204.498 201.868 204.503 201.843 204.505 201.816C204.531 201.319 204.579 200.828 204.651 200.345C204.653 200.334 204.654 200.321 204.655 200.31C205.791 192.724 212.338 186.897 220.27 186.897H220.786H220.788H255.769C255.772 186.897 255.775 186.898 255.778 186.898C255.781 186.898 255.783 186.897 255.786 186.897C263.081 186.897 269.206 191.828 271.027 198.522C271.028 198.523 271.028 198.525 271.028 198.525C271.164 199.029 271.276 199.543 271.363 200.065C271.367 200.091 271.371 200.118 271.376 200.144C271.456 200.645 271.511 201.151 271.544 201.668C271.547 201.711 271.548 201.756 271.55 201.8C271.565 202.082 271.593 202.361 271.593 202.646Z" fill="#FFBC00"/>
<path fill-rule="evenodd" clip-rule="evenodd" d="M221.015 246.617C225.313 246.617 228.799 243.106 228.799 238.776C228.799 234.445 225.313 230.934 221.015 230.934C216.716 230.934 213.231 234.445 213.231 238.776C213.231 243.106 216.716 246.617 221.015 246.617ZM221.015 223.027C229.649 223.027 236.648 230.078 236.648 238.776V254.524H221.015C212.38 254.524 205.381 247.473 205.381 238.776C205.381 230.078 212.38 223.027 221.015 223.027Z" fill="#FFBC00"/>
<path fill-rule="evenodd" clip-rule="evenodd" d="M150.032 195.73C145.686 195.73 142.161 199.241 142.161 203.571C142.161 207.902 145.686 211.413 150.032 211.413C154.378 211.413 157.902 207.902 157.902 203.571C157.902 199.241 154.378 195.73 150.032 195.73ZM114.516 195.73C110.169 195.73 106.645 199.241 106.645 203.571C106.645 207.902 110.169 211.413 114.516 211.413C118.863 211.413 122.387 207.902 122.387 203.571C122.387 199.241 118.863 195.73 114.516 195.73ZM165.797 204.418C165.794 204.462 165.792 204.506 165.79 204.55C165.757 205.065 165.702 205.573 165.622 206.074C165.617 206.099 165.613 206.125 165.609 206.151C165.522 206.675 165.41 207.188 165.274 207.692C165.274 207.693 165.274 207.694 165.273 207.696C163.452 214.39 157.327 219.321 150.032 219.321H150.031C150.03 219.321 150.027 219.32 150.024 219.32C150.021 219.32 150.018 219.321 150.015 219.321H115.034H115.032H114.516C106.585 219.321 100.037 213.494 98.9006 205.906C98.8997 205.896 98.8987 205.884 98.8969 205.873C98.8249 205.388 98.7772 204.898 98.7501 204.402C98.7492 204.375 98.7435 204.349 98.7435 204.323C98.7426 204.3 98.7435 204.278 98.7435 204.255C98.7333 204.027 98.708 203.803 98.708 203.571C98.708 203.285 98.737 203.007 98.751 202.724C98.7538 202.68 98.7557 202.638 98.7576 202.595C98.7894 202.078 98.8464 201.57 98.9268 201.067C98.9315 201.043 98.9343 201.018 98.938 200.993C100.176 193.525 106.669 187.823 114.516 187.823C114.519 187.823 114.522 187.823 114.525 187.823C114.526 187.823 114.529 187.823 114.533 187.823H165.839V203.571C165.839 203.857 165.812 204.136 165.797 204.418Z" fill="#FFBC00"/>
<path fill-rule="evenodd" clip-rule="evenodd" d="M122.957 238.775C122.957 234.445 119.433 230.934 115.087 230.934C110.741 230.934 107.217 234.445 107.217 238.775C107.217 243.106 110.741 246.616 115.087 246.616C119.433 246.616 122.957 243.106 122.957 238.775ZM87.4413 238.775C87.4413 234.445 83.9173 230.934 79.5714 230.934C75.2236 230.934 71.7004 234.445 71.7004 238.775C71.7004 243.106 75.2236 246.616 79.5714 246.616C83.9173 246.616 87.4413 243.106 87.4413 238.775ZM130.894 238.775V254.524H79.5872C79.5844 254.524 79.5816 254.524 79.5788 254.524C79.577 254.524 79.5742 254.524 79.5714 254.524C71.7238 254.524 65.2311 248.822 63.9932 241.354C63.9895 241.329 63.9866 241.304 63.982 241.279C63.9016 240.777 63.8445 240.27 63.8127 239.753C63.8099 239.71 63.809 239.666 63.8062 239.623C63.7912 239.34 63.7632 239.061 63.7632 238.775C63.7632 238.544 63.7884 238.321 63.7987 238.093C63.7987 238.069 63.7968 238.047 63.7978 238.025C63.7987 237.997 63.8034 237.972 63.8053 237.945C63.8315 237.449 63.8791 236.958 63.9511 236.474C63.953 236.463 63.9549 236.451 63.9558 236.44C65.0909 228.853 71.6388 223.027 79.5714 223.027H80.0875H80.0884H115.07C115.073 223.027 115.075 223.027 115.078 223.027C115.082 223.027 115.084 223.027 115.087 223.027C122.382 223.027 128.507 227.957 130.328 234.651C130.328 234.652 130.329 234.654 130.329 234.655C130.466 235.159 130.577 235.672 130.664 236.195C130.669 236.221 130.671 236.248 130.676 236.273C130.756 236.774 130.813 237.281 130.845 237.797C130.847 237.841 130.848 237.886 130.851 237.929C130.867 238.212 130.894 238.49 130.894 238.775Z" fill="#FFBC00"/>
<path fill-rule="evenodd" clip-rule="evenodd" d="M115.261 123.559C110.962 123.559 107.476 127.109 107.476 131.487C107.476 135.866 110.962 139.415 115.261 139.415C119.559 139.415 123.045 135.866 123.045 131.487C123.045 127.109 119.559 123.559 115.261 123.559ZM115.261 159.338C110.963 159.338 107.477 162.887 107.477 167.266C107.477 171.645 110.963 175.195 115.261 175.195C119.559 175.195 123.045 171.645 123.045 167.266C123.045 162.887 119.559 159.338 115.261 159.338ZM115.261 115.564H130.894V167.249C130.894 167.252 130.893 167.255 130.893 167.258C130.893 167.26 130.894 167.263 130.894 167.266C130.894 175.171 125.234 181.712 117.82 182.959C117.795 182.963 117.771 182.966 117.746 182.971C117.248 183.052 116.744 183.108 116.231 183.14C116.188 183.143 116.145 183.145 116.101 183.147C115.821 183.162 115.545 183.191 115.261 183.191C115.031 183.191 114.809 183.166 114.583 183.155C114.56 183.154 114.538 183.156 114.514 183.155C114.488 183.154 114.464 183.15 114.437 183.148C113.943 183.121 113.457 183.073 112.977 183.002C112.966 183 112.953 182.998 112.942 182.996C105.412 181.853 99.6274 175.256 99.6274 167.266V166.746V166.744V131.504C99.6274 131.501 99.6283 131.498 99.6283 131.496C99.6283 131.493 99.6274 131.49 99.6274 131.487C99.6274 124.138 104.522 117.969 111.167 116.134C111.168 116.133 111.169 116.133 111.171 116.133C111.671 115.995 112.18 115.883 112.699 115.796C112.725 115.791 112.751 115.787 112.777 115.782C113.274 115.701 113.777 115.646 114.289 115.613C114.333 115.611 114.378 115.609 114.421 115.606C114.701 115.591 114.977 115.564 115.261 115.564Z" fill="#FFBC00"/>
<path fill-rule="evenodd" clip-rule="evenodd" d="M157.989 167.442C157.989 163.112 154.504 159.601 150.206 159.601C145.907 159.601 142.421 163.112 142.421 167.442C142.421 171.773 145.907 175.283 150.206 175.283C154.504 175.283 157.989 171.773 157.989 167.442ZM134.572 167.442C134.572 158.744 141.572 151.693 150.206 151.693H165.839V167.442C165.839 176.14 158.84 183.191 150.206 183.191C141.572 183.191 134.572 176.14 134.572 167.442Z" fill="#FFBC00"/>
<path fill-rule="evenodd" clip-rule="evenodd" d="M142.421 238.775C142.421 243.106 145.907 246.616 150.206 246.616C154.504 246.616 157.989 243.106 157.989 238.775C157.989 234.445 154.504 230.934 150.206 230.934C145.907 230.934 142.421 234.445 142.421 238.775ZM165.839 238.775C165.839 247.473 158.84 254.524 150.206 254.524H134.572V238.775C134.572 230.077 141.572 223.027 150.206 223.027C158.84 223.027 165.839 230.077 165.839 238.775Z" fill="#FFBC00"/>
<path fill-rule="evenodd" clip-rule="evenodd" d="M150.205 140.081C154.504 140.081 157.989 136.57 157.989 132.24C157.989 127.909 154.504 124.398 150.205 124.398C145.907 124.398 142.421 127.909 142.421 132.24C142.421 136.57 145.907 140.081 150.205 140.081ZM150.205 116.49C158.839 116.49 165.839 123.542 165.839 132.24V147.988H150.205C141.571 147.988 134.572 140.937 134.572 132.24C134.572 123.542 141.571 116.49 150.205 116.49Z" fill="#FFBC00"/>
<path fill-rule="evenodd" clip-rule="evenodd" d="M185.15 105.716C189.448 105.716 192.934 102.166 192.934 97.7878C192.934 93.4098 189.448 89.8587 185.15 89.8587C180.851 89.8587 177.366 93.4098 177.366 97.7878C177.366 102.166 180.851 105.716 185.15 105.716ZM185.15 69.938C189.448 69.938 192.934 66.3878 192.934 62.0088C192.934 57.6298 189.448 54.0807 185.15 54.0807C180.851 54.0807 177.366 57.6298 177.366 62.0088C177.366 66.3878 180.851 69.938 185.15 69.938ZM185.15 113.711H169.517V62.0258C169.517 62.023 169.518 62.0192 169.518 62.0173C169.518 62.0154 169.517 62.0117 169.517 62.0088C169.517 54.1042 175.177 47.5625 182.591 46.3164L182.665 46.3051C183.163 46.2232 183.667 46.1657 184.18 46.1337C184.223 46.1318 184.266 46.1299 184.309 46.128C184.59 46.1129 184.865 46.0837 185.15 46.0837C185.38 46.0837 185.601 46.1092 185.828 46.1195C185.851 46.1205 185.872 46.1186 185.896 46.1195C185.922 46.1205 185.947 46.1252 185.974 46.1261C186.468 46.1534 186.953 46.2015 187.434 46.274C187.445 46.2759 187.456 46.2768 187.469 46.2778C194.999 47.4222 200.783 54.0185 200.783 62.0088V62.5288V62.5307V97.7709C200.783 97.7737 200.783 97.7765 200.783 97.7793C200.783 97.7822 200.783 97.785 200.783 97.7878C200.783 105.137 195.889 111.306 189.244 113.141C189.243 113.142 189.242 113.142 189.24 113.142C188.74 113.28 188.23 113.392 187.712 113.479C187.685 113.484 187.66 113.488 187.634 113.493C187.137 113.574 186.633 113.629 186.122 113.662C186.078 113.664 186.033 113.666 185.99 113.669C185.71 113.684 185.434 113.711 185.15 113.711Z" fill="#FFBC00"/>
<path fill-rule="evenodd" clip-rule="evenodd" d="M192.934 132.239C192.934 127.908 189.448 124.398 185.15 124.398C180.851 124.398 177.366 127.908 177.366 132.239C177.366 136.57 180.851 140.08 185.15 140.08C189.448 140.08 192.934 136.57 192.934 132.239ZM200.783 132.239C200.783 140.937 193.784 147.988 185.15 147.988H169.517V132.239C169.517 123.541 176.516 116.49 185.15 116.49C193.784 116.49 200.783 123.541 200.783 132.239Z" fill="#FFBC00"/>
<path fill-rule="evenodd" clip-rule="evenodd" d="M45.1971 267.064C40.8504 267.064 37.3275 270.575 37.3275 274.905C37.3275 279.236 40.8504 282.746 45.1971 282.746C49.5439 282.746 53.0668 279.236 53.0668 274.905C53.0668 270.575 49.5439 267.064 45.1971 267.064ZM9.68058 267.064C5.3338 267.064 1.81001 270.575 1.81001 274.905C1.81001 279.235 5.3338 282.746 9.68058 282.746C14.0274 282.746 17.5512 279.235 17.5512 274.905C17.5512 270.575 14.0274 267.064 9.68058 267.064ZM60.9615 275.751C60.9587 275.795 60.9578 275.84 60.955 275.884C60.9225 276.399 60.8669 276.907 60.7861 277.407C60.7824 277.433 60.7787 277.459 60.7741 277.485C60.6869 278.008 60.5755 278.522 60.4391 279.025C60.4391 279.026 60.4392 279.028 60.4382 279.029C58.617 285.723 52.4925 290.654 45.1971 290.654C45.1944 290.654 45.1916 290.654 45.1888 290.654C45.186 290.654 45.1832 290.654 45.1804 290.654H10.1993H10.1974H9.68058C1.74968 290.654 -4.79879 284.828 -5.9335 277.24C-5.93535 277.229 -5.9372 277.217 -5.93905 277.206C-6.0105 276.723 -6.05783 276.232 -6.08381 275.735C-6.08566 275.709 -6.09026 275.683 -6.09211 275.656C-6.09304 275.634 -6.09029 275.612 -6.09122 275.589C-6.10235 275.36 -6.12646 275.136 -6.12646 274.905C-6.12646 274.619 -6.09865 274.341 -6.08381 274.058C-6.08195 274.014 -6.08008 273.971 -6.0773 273.928C-6.04482 273.412 -5.9882 272.903 -5.90841 272.401C-5.90377 272.376 -5.90098 272.351 -5.89634 272.326C-4.65864 264.859 1.83411 259.156 9.68058 259.156C9.6843 259.156 9.68709 259.157 9.68895 259.157C9.69173 259.157 9.69453 259.156 9.69731 259.156H61.0042V274.905C61.0042 275.191 60.9773 275.469 60.9615 275.751Z" fill="#FFBC00"/>
<path fill-rule="evenodd" clip-rule="evenodd" d="M116.181 318.876C120.48 318.876 123.964 315.366 123.964 311.035C123.964 306.704 120.48 303.194 116.181 303.194C111.881 303.194 108.397 306.704 108.397 311.035C108.397 315.366 111.881 318.876 116.181 318.876ZM116.181 295.286C124.814 295.286 131.814 302.337 131.814 311.035V326.783H116.181C107.547 326.783 100.547 319.732 100.547 311.035C100.547 302.337 107.547 295.286 116.181 295.286Z" fill="#FFBC00"/>
<path fill-rule="evenodd" clip-rule="evenodd" d="M151.125 318.876C155.425 318.876 158.909 315.366 158.909 311.035C158.909 306.704 155.425 303.194 151.125 303.194C146.826 303.194 143.342 306.704 143.342 311.035C143.342 315.366 146.826 318.876 151.125 318.876ZM151.125 295.286C159.759 295.286 166.759 302.337 166.759 311.035V326.783H151.125C142.492 326.783 135.492 319.732 135.492 311.035C135.492 302.337 142.492 295.286 151.125 295.286Z" fill="#FFBC00"/>
<path fill-rule="evenodd" clip-rule="evenodd" d="M80.3158 267.063C76.0168 267.063 72.5327 270.574 72.5327 274.905C72.5327 279.236 76.0168 282.747 80.3158 282.747C84.6157 282.747 88.0998 279.236 88.0998 274.905C88.0998 270.574 84.6157 267.063 80.3158 267.063ZM80.3158 290.654C71.6821 290.654 64.6826 283.603 64.6826 274.905V259.156H80.3158C88.9504 259.156 95.9489 266.207 95.9489 274.905C95.9489 283.603 88.9504 290.654 80.3158 290.654Z" fill="#FFBC00"/>
<path fill-rule="evenodd" clip-rule="evenodd" d="M9.50625 353.992C13.806 353.992 17.29 350.442 17.29 346.064C17.29 341.685 13.806 338.135 9.50625 338.135C5.20742 338.135 1.7234 341.685 1.7234 346.064C1.7234 350.442 5.20742 353.992 9.50625 353.992ZM9.50625 318.212C13.806 318.212 17.29 314.662 17.29 310.283C17.29 305.904 13.806 302.355 9.50625 302.355C5.20742 302.355 1.7234 305.904 1.7234 310.283C1.7234 314.662 5.20742 318.212 9.50625 318.212ZM9.50625 361.987H-6.12646L-6.12646 310.3C-6.12646 310.297 -6.12557 310.296 -6.12557 310.293C-6.12557 310.29 -6.12646 310.286 -6.12646 310.283C-6.12646 302.379 -0.465976 295.837 6.9471 294.591C6.97188 294.586 6.99666 294.584 7.02052 294.58C7.51876 294.499 8.02436 294.442 8.53636 294.409C8.57949 294.406 8.62261 294.405 8.66574 294.403C8.94652 294.387 9.2218 294.359 9.50625 294.359C9.73565 294.359 9.95769 294.385 10.1843 294.394C10.2082 294.396 10.2293 294.393 10.2513 294.394C10.2788 294.396 10.3036 294.4 10.3302 294.401C10.8239 294.428 11.3102 294.476 11.7901 294.548C11.802 294.55 11.814 294.552 11.824 294.554C19.3555 295.698 25.139 302.293 25.139 310.283V310.804C25.139 310.805 25.1399 310.805 25.1399 310.806L25.1399 346.046C25.1399 346.049 25.139 346.051 25.139 346.055V346.063V346.064C25.139 353.412 20.2446 359.582 13.6004 361.417C13.5995 361.417 13.5977 361.417 13.5968 361.417C13.0958 361.556 12.5865 361.668 12.0672 361.755C12.0424 361.76 12.0158 361.762 11.9901 361.767C11.4928 361.848 10.989 361.905 10.4779 361.937C10.4348 361.94 10.3899 361.942 10.3458 361.944C10.066 361.959 9.7907 361.987 9.50625 361.987Z" fill="#FFBC00"/>
<path fill-rule="evenodd" clip-rule="evenodd" d="M44.6254 318.876C48.9722 318.876 52.4951 315.365 52.4951 311.034C52.4951 306.704 48.9722 303.194 44.6254 303.194C40.2786 303.194 36.7558 306.704 36.7558 311.034C36.7558 315.365 40.2786 318.876 44.6254 318.876ZM80.141 318.876C84.4887 318.876 88.0125 315.365 88.0125 311.034C88.0125 306.704 84.4887 303.194 80.141 303.194C75.7952 303.194 72.2713 306.704 72.2713 311.034C72.2713 315.365 75.7952 318.876 80.141 318.876ZM28.861 310.188C28.8638 310.144 28.8647 310.1 28.8675 310.055C28.9 309.54 28.9557 309.033 29.0355 308.533C29.0401 308.507 29.0438 308.48 29.0485 308.454C29.1348 307.932 29.2461 307.418 29.3834 306.914C29.3834 306.913 29.3834 306.911 29.3843 306.911C31.2056 300.216 37.3301 295.286 44.6254 295.286C44.6282 295.286 44.6301 295.286 44.6338 295.286C44.6366 295.286 44.6394 295.286 44.6421 295.286H79.6233H79.6251H80.141C88.0728 295.286 94.6213 301.112 95.756 308.699C95.7579 308.71 95.7598 308.722 95.7616 308.733C95.8321 309.217 95.8804 309.708 95.9064 310.205C95.9082 310.231 95.9128 310.257 95.9147 310.284C95.9156 310.306 95.9128 310.328 95.9138 310.351C95.924 310.579 95.949 310.804 95.949 311.034C95.949 311.321 95.9212 311.599 95.9064 311.882C95.9036 311.925 95.9026 311.969 95.8998 312.011C95.8674 312.528 95.8107 313.036 95.731 313.538C95.7263 313.563 95.7235 313.588 95.7189 313.613C94.4812 321.081 87.9884 326.783 80.141 326.783C80.1382 326.783 80.1355 326.783 80.1336 326.783C80.1308 326.783 80.128 326.783 80.1252 326.783H28.8184V311.034C28.8184 310.749 28.8452 310.47 28.861 310.188Z" fill="#FFBC00"/>
<path fill-rule="evenodd" clip-rule="evenodd" d="M115.434 282.746C119.782 282.746 123.305 279.235 123.305 274.905C123.305 270.574 119.782 267.063 115.434 267.063C111.088 267.063 107.565 270.574 107.565 274.905C107.565 279.235 111.088 282.746 115.434 282.746ZM150.951 282.746C155.299 282.746 158.823 279.235 158.823 274.905C158.823 270.575 155.299 267.064 150.951 267.064C146.605 267.064 143.081 270.575 143.081 274.905C143.081 279.235 146.605 282.746 150.951 282.746ZM99.6701 274.059C99.6729 274.014 99.6748 273.97 99.6776 273.926C99.7091 273.411 99.7648 272.903 99.8455 272.403C99.8501 272.376 99.8539 272.351 99.8576 272.325C99.9448 271.802 100.056 271.288 100.192 270.785C100.192 270.784 100.193 270.782 100.193 270.781C102.016 264.087 108.14 259.156 115.434 259.156H115.435C115.437 259.156 115.44 259.156 115.443 259.156C115.446 259.156 115.449 259.156 115.452 259.156H150.433H150.435H150.951C158.883 259.156 165.43 264.982 166.566 272.57C166.567 272.581 166.569 272.593 166.571 272.604C166.642 273.087 166.69 273.578 166.716 274.075C166.717 274.101 166.723 274.127 166.724 274.154C166.725 274.176 166.723 274.198 166.724 274.221C166.734 274.45 166.758 274.674 166.758 274.905C166.758 275.191 166.73 275.469 166.715 275.752C166.714 275.796 166.712 275.839 166.71 275.882C166.677 276.398 166.621 276.907 166.54 277.409C166.535 277.434 166.533 277.459 166.528 277.483C165.291 284.951 158.798 290.654 150.951 290.654C150.948 290.654 150.945 290.653 150.943 290.653C150.941 290.653 150.938 290.654 150.934 290.654H99.6274V274.905C99.6274 274.619 99.6553 274.341 99.6701 274.059Z" fill="#FFBC00"/>
<path fill-rule="evenodd" clip-rule="evenodd" d="M221.934 318.876C226.234 318.876 229.718 315.366 229.718 311.035C229.718 306.704 226.234 303.194 221.934 303.194C217.635 303.194 214.151 306.704 214.151 311.035C214.151 315.366 217.635 318.876 221.934 318.876ZM221.934 295.286C230.567 295.286 237.568 302.337 237.568 311.035V326.783H221.934C213.301 326.783 206.301 319.732 206.301 311.035C206.301 302.337 213.301 295.286 221.934 295.286Z" fill="#FFBC00"/>
<path fill-rule="evenodd" clip-rule="evenodd" d="M221.934 267.063C217.635 267.063 214.151 270.574 214.151 274.905C214.151 279.235 217.635 282.746 221.934 282.746C226.234 282.746 229.718 279.235 229.718 274.905C229.718 270.574 226.234 267.063 221.934 267.063ZM221.934 290.654C213.301 290.654 206.301 283.603 206.301 274.905V259.156H221.934C230.568 259.156 237.568 266.207 237.568 274.905C237.568 283.603 230.568 290.654 221.934 290.654Z" fill="#FFBC00"/>
<path fill-rule="evenodd" clip-rule="evenodd" d="M186.989 317.862C191.289 317.862 194.773 314.312 194.773 309.934C194.773 305.554 191.289 302.005 186.989 302.005C182.69 302.005 179.206 305.554 179.206 309.934C179.206 314.312 182.69 317.862 186.989 317.862ZM186.989 282.082C191.289 282.082 194.773 278.533 194.773 274.154C194.773 269.775 191.289 266.225 186.989 266.225C182.69 266.225 179.206 269.775 179.206 274.154C179.206 278.533 182.69 282.082 186.989 282.082ZM186.989 325.857H171.356V274.171C171.356 274.168 171.357 274.165 171.357 274.163C171.357 274.16 171.356 274.157 171.356 274.154C171.356 266.249 177.017 259.708 184.43 258.461C184.455 258.457 184.48 258.454 184.503 258.45C185.002 258.369 185.507 258.312 186.019 258.279C186.062 258.276 186.106 258.275 186.149 258.274C186.429 258.258 186.705 258.23 186.989 258.23C187.219 258.23 187.442 258.255 187.667 258.265C187.691 258.266 187.712 258.263 187.734 258.264C187.762 258.266 187.787 258.271 187.813 258.273C188.308 258.298 188.793 258.346 189.273 258.418C189.285 258.42 189.297 258.422 189.307 258.424C196.838 259.568 202.622 266.163 202.622 274.154V274.674C202.622 274.675 202.623 274.675 202.623 274.676V309.917C202.623 309.919 202.622 309.922 202.622 309.925V309.933V309.934C202.622 317.282 197.727 323.452 191.083 325.287C191.082 325.288 191.081 325.288 191.08 325.288C190.58 325.426 190.069 325.538 189.55 325.626C189.525 325.63 189.499 325.634 189.473 325.637C188.976 325.719 188.472 325.776 187.961 325.807C187.918 325.81 187.873 325.812 187.829 325.814C187.549 325.83 187.274 325.857 186.989 325.857Z" fill="#FFBC00"/>
<path fill-rule="evenodd" clip-rule="evenodd" d="M369.409 311.035C369.409 306.704 365.885 303.193 361.54 303.193C357.193 303.193 353.669 306.704 353.669 311.035C353.669 315.365 357.193 318.876 361.54 318.876C365.885 318.876 369.409 315.365 369.409 311.035ZM333.894 311.035C333.894 306.704 330.37 303.193 326.023 303.193C321.677 303.193 318.153 306.704 318.153 311.035C318.153 315.365 321.677 318.876 326.023 318.876C330.37 318.876 333.894 315.365 333.894 311.035ZM377.346 311.035V326.783H326.04C326.037 326.783 326.035 326.783 326.032 326.783C326.029 326.783 326.026 326.783 326.023 326.783C318.176 326.783 311.684 321.082 310.446 313.613C310.441 313.589 310.439 313.563 310.435 313.539C310.355 313.037 310.297 312.528 310.266 312.012C310.263 311.968 310.261 311.925 310.259 311.882C310.244 311.599 310.216 311.321 310.216 311.035C310.216 310.804 310.241 310.58 310.251 310.351C310.252 310.328 310.249 310.306 310.25 310.283C310.252 310.257 310.257 310.231 310.258 310.205C310.284 309.707 310.333 309.217 310.403 308.734C310.405 308.722 310.407 308.711 310.409 308.7C311.544 301.112 318.092 295.286 326.023 295.286H326.54H326.542H361.523C361.526 295.286 361.528 295.286 361.531 295.286C361.534 295.286 361.537 295.286 361.54 295.286C368.835 295.286 374.958 300.216 376.78 306.911C376.781 306.912 376.78 306.913 376.78 306.914C376.918 307.418 377.029 307.931 377.116 308.455C377.121 308.481 377.124 308.506 377.128 308.532C377.208 309.033 377.265 309.541 377.297 310.056C377.3 310.1 377.301 310.144 377.304 310.189C377.319 310.471 377.346 310.749 377.346 311.035Z" fill="#FFBC00"/>
<path fill-rule="evenodd" clip-rule="evenodd" d="M292.743 267.063C288.444 267.063 284.96 270.574 284.96 274.905C284.96 279.235 288.444 282.746 292.743 282.746C297.043 282.746 300.527 279.235 300.527 274.905C300.527 270.574 297.043 267.063 292.743 267.063ZM292.743 290.654C284.11 290.654 277.11 283.603 277.11 274.905V259.156H292.743C301.377 259.156 308.377 266.207 308.377 274.905C308.377 283.603 301.377 290.654 292.743 290.654Z" fill="#FFBC00"/>
<path fill-rule="evenodd" clip-rule="evenodd" d="M284.96 310.108C284.96 314.439 288.445 317.949 292.743 317.949C297.043 317.949 300.528 314.439 300.528 310.108C300.528 305.778 297.043 302.267 292.743 302.267C288.445 302.267 284.96 305.778 284.96 310.108ZM308.377 310.108C308.377 318.805 301.378 325.857 292.743 325.857H277.11V310.108C277.11 301.41 284.11 294.359 292.743 294.359C301.378 294.359 308.377 301.41 308.377 310.108Z" fill="#FFBC00"/>
<path fill-rule="evenodd" clip-rule="evenodd" d="M265.582 309.933C265.582 305.554 262.097 302.004 257.799 302.004C253.5 302.004 250.015 305.554 250.015 309.933C250.015 314.312 253.5 317.861 257.799 317.861C262.097 317.861 265.582 314.312 265.582 309.933ZM265.582 274.154C265.582 269.775 262.097 266.225 257.799 266.225C253.5 266.225 250.015 269.775 250.015 274.154C250.015 278.533 253.5 282.082 257.799 282.082C262.097 282.082 265.582 278.533 265.582 274.154ZM256.959 325.814C256.916 325.811 256.871 325.81 256.827 325.806C256.316 325.775 255.812 325.719 255.316 325.637C255.289 325.633 255.263 325.629 255.238 325.625C254.718 325.537 254.208 325.425 253.709 325.288C253.708 325.288 253.706 325.287 253.706 325.286C247.06 323.451 242.166 317.282 242.166 309.933C242.166 309.93 242.166 309.927 242.166 309.925C242.166 309.922 242.166 309.919 242.166 309.916V274.675V274.674V274.154C242.166 266.163 247.949 259.567 255.48 258.423C255.492 258.422 255.504 258.42 255.514 258.418C255.995 258.346 256.481 258.298 256.975 258.272C257.001 258.271 257.027 258.265 257.053 258.264C257.076 258.262 257.098 258.265 257.12 258.264C257.346 258.254 257.57 258.23 257.799 258.23C258.082 258.23 258.359 258.258 258.64 258.273C258.682 258.274 258.725 258.276 258.769 258.279C259.281 258.311 259.786 258.368 260.284 258.449C260.309 258.454 260.333 258.457 260.359 258.461C267.772 259.707 273.432 266.249 273.432 274.154C273.432 274.156 273.431 274.159 273.431 274.162C273.431 274.165 273.432 274.168 273.432 274.17V325.857H257.799C257.515 325.857 257.239 325.829 256.959 325.814Z" fill="#FFBC00"/>
</svg>
