<svg width="16" height="16" viewBox="0 0 16 16" fill="none" xmlns="http://www.w3.org/2000/svg">
<path d="M10.7374 1.31375L10.7372 1.31369C8.85364 0.538461 6.73026 0.594417 4.88977 1.46674C3.04877 2.33966 1.66216 3.94801 1.07 5.89724L1.06998 5.89727C0.477856 7.846 0.735652 9.95445 1.77903 11.7031C2.82275 13.4521 4.55611 14.6791 6.55219 15.0835C7.02863 15.1788 7.51393 15.2271 8.00082 15.2284C9.17594 15.2276 10.3331 14.9364 11.3689 14.3813L10.7374 1.31375ZM10.7374 1.31375C12.6209 2.08845 14.0901 3.62266 14.7835 5.53776C15.4763 7.45126 15.3301 9.56876 14.3814 11.3692C14.1325 11.8283 14.0934 12.3719 14.2737 12.862L15.0643 15.0827L12.8416 14.2736L12.8416 14.2736M10.7374 1.31375L12.8416 14.2736M12.8416 14.2736L12.8386 14.2725M12.8416 14.2736L12.8386 14.2725M12.8386 14.2725C12.3553 14.0989 11.8213 14.1387 11.3691 14.3812L12.8386 14.2725Z" stroke="#999999" stroke-width="1.5"/>
<path d="M5 6.75H11" stroke="#999999" stroke-width="1.5" stroke-linecap="round"/>
<path d="M5 9.75H11" stroke="#999999" stroke-width="1.5" stroke-linecap="round"/>
</svg>
