<svg width="16" height="16" viewBox="0 0 16 16" fill="none" xmlns="http://www.w3.org/2000/svg">
<path d="M1.77903 11.7031L1.13497 12.0874L1.77903 11.7031ZM1.77903 11.7031C0.735652 9.95445 0.477856 7.846 1.06998 5.89727L1.07 5.89724C1.66216 3.94801 3.04877 2.33966 4.88977 1.46674C6.73026 0.594417 8.85364 0.538461 10.7372 1.31369L10.7374 1.31375C12.6209 2.08845 14.0901 3.62266 14.7835 5.53776C15.4763 7.45126 15.3301 9.56876 14.3814 11.3692C14.1325 11.8283 14.0934 12.3719 14.2737 12.8621L15.0643 15.0827L12.8416 14.2736L12.8416 14.2736L12.8386 14.2725C12.3553 14.0989 11.8213 14.1387 11.3691 14.3812C10.3332 14.9364 9.17601 15.2276 8.00082 15.2284C7.51382 15.2271 7.02842 15.1787 6.55188 15.0835C4.55591 14.679 2.82268 13.452 1.77903 11.7031Z" stroke="#999999" stroke-width="1.5"/>
<path d="M5 6.75H11" stroke="#999999" stroke-width="1.5" stroke-linecap="round"/>
<path d="M5 9.75H11" stroke="#999999" stroke-width="1.5" stroke-linecap="round"/>
</svg>
