<svg width="10" height="8" viewBox="0 0 10 8" fill="none" xmlns="http://www.w3.org/2000/svg">
<path fill-rule="evenodd" clip-rule="evenodd" d="M9.72067 0.293591C9.34822 -0.0978628 8.74436 -0.0978641 8.3719 0.29359L3.94104 4.95049C3.78338 5.1162 3.51912 5.1162 3.36146 4.95049L1.62811 3.12872C1.25566 2.73726 0.651793 2.73727 0.27934 3.12872C-0.0931135 3.52017 -0.0931132 4.15485 0.27934 4.5463L2.30245 6.67261C2.30246 6.67263 2.30246 6.67265 2.30245 6.67267C2.30243 6.67269 2.30243 6.67271 2.30245 6.67273L3.02019 7.42708C3.02295 7.42999 3.02573 7.43287 3.02852 7.43573L3.27267 7.69233C3.48177 7.91209 3.82078 7.91209 4.02988 7.69233L5.00003 6.67268C5.00004 6.67267 5.00004 6.67266 5.00003 6.67266C5.00003 6.67265 5.00003 6.67264 5.00003 6.67263L9.72067 1.71117C10.0931 1.31972 10.0931 0.685045 9.72067 0.293591Z" fill="white"/>
</svg>
