<svg width="16" height="14" viewBox="0 0 16 14" fill="none" xmlns="http://www.w3.org/2000/svg">
<path fill-rule="evenodd" clip-rule="evenodd" d="M4.61008 11.2704C4.28359 10.9439 4.28359 10.415 4.61008 10.0885C4.93658 9.76202 5.46548 9.76202 5.79198 10.0885C7.70429 11.9999 10.8031 11.9999 12.7154 10.0885C14.6268 8.17621 14.6268 5.07742 12.7154 3.16506C10.8031 1.25368 7.70434 1.25368 5.79198 3.16506C5.46548 3.49155 4.93658 3.49155 4.61008 3.16506C4.28359 2.83856 4.28359 2.30966 4.61008 1.98316C7.17438 -0.581138 11.3329 -0.581138 13.8975 1.98316C16.4618 4.54746 16.4618 8.70603 13.8975 11.2706C11.3332 13.8349 7.17462 13.8349 4.61008 11.2706V11.2704ZM11.4879 7.11472L9.04399 9.50923C8.36863 10.1827 7.35463 9.17246 8.03 8.49896L8.85555 7.67899C9.04305 7.49243 8.98148 7.3413 8.71749 7.3413H0.894686C0.500107 7.3413 0.179199 7.02135 0.179199 6.62674C0.179199 6.23309 0.499151 5.91219 0.894686 5.91219H8.71749C8.98149 5.91219 9.04306 5.76107 8.85555 5.57449L8.03 4.75453C7.35463 4.08102 8.36863 3.07075 9.04399 3.74426L11.4844 6.11367C11.7698 6.39073 11.7707 6.83849 11.4881 7.1146L11.4879 7.11472Z" fill="#FFBC00"/>
</svg>
