<svg width="375" height="424" viewBox="0 0 375 424" fill="none" xmlns="http://www.w3.org/2000/svg">
<path d="M140 105C140 102.791 141.791 101 144 101H216L236 118.496V180C236 182.209 234.209 184 232 184H144C141.791 184 140 182.209 140 180V105Z" fill="url(#paint0_linear)"/>
<g filter="url(#filter0_d)">
<path d="M216 101V114.5C216 116.709 217.791 118.5 220 118.5H236L216 101Z" fill="url(#paint1_linear)"/>
</g>
<circle cx="187" cy="212" r="176" fill="#F7F7FB"/>
<path d="M136 113C136 108.582 139.582 105 144 105H182.5C185.261 105 187.5 107.239 187.5 110C187.5 112.761 189.739 115 192.5 115H231C235.418 115 239 118.582 239 123V189C239 193.418 235.418 197 231 197H144C139.582 197 136 193.418 136 189V113Z" fill="url(#paint2_linear)"/>
<path d="M139 114C139 111.791 140.791 110 143 110H215L235 127.496V189C235 191.209 233.209 193 231 193H143C140.791 193 139 191.209 139 189V114Z" fill="url(#paint3_linear)"/>
<g filter="url(#filter1_d)">
<path d="M215 110V123.5C215 125.709 216.791 127.5 219 127.5H235L215 110Z" fill="url(#paint4_linear)"/>
</g>
<path d="M133.179 132.171C133.081 129.897 134.899 128 137.175 128H237.825C240.101 128 241.919 129.897 241.821 132.171L239.164 194.171C239.072 196.312 237.31 198 235.168 198H139.832C137.69 198 135.928 196.312 135.836 194.171L133.179 132.171Z" fill="#E5E5F3"/>
<path d="M138.73 232.18C136.99 232.18 135.634 231.694 134.662 230.722C133.69 229.738 133.204 228.334 133.204 226.51V219.4H135.544V226.42C135.544 228.892 136.612 230.128 138.748 230.128C140.872 230.128 141.934 228.892 141.934 226.42V219.4H144.238V226.51C144.238 228.334 143.752 229.738 142.78 230.722C141.82 231.694 140.47 232.18 138.73 232.18ZM152.357 222.28C153.293 222.28 154.127 222.484 154.859 222.892C155.603 223.3 156.185 223.876 156.605 224.62C157.025 225.364 157.235 226.222 157.235 227.194C157.235 228.166 157.025 229.03 156.605 229.786C156.185 230.53 155.603 231.106 154.859 231.514C154.127 231.922 153.293 232.126 152.357 232.126C151.061 232.126 150.035 231.694 149.279 230.83V235.492H147.029V222.388H149.171V223.648C149.543 223.192 149.999 222.85 150.539 222.622C151.091 222.394 151.697 222.28 152.357 222.28ZM152.105 230.2C152.933 230.2 153.611 229.924 154.139 229.372C154.679 228.82 154.949 228.094 154.949 227.194C154.949 226.294 154.679 225.568 154.139 225.016C153.611 224.464 152.933 224.188 152.105 224.188C151.565 224.188 151.079 224.314 150.647 224.566C150.215 224.806 149.873 225.154 149.621 225.61C149.369 226.066 149.243 226.594 149.243 227.194C149.243 227.794 149.369 228.322 149.621 228.778C149.873 229.234 150.215 229.588 150.647 229.84C151.079 230.08 151.565 230.2 152.105 230.2ZM159.099 218.644H161.349V232H159.099V218.644ZM168.352 232.126C167.38 232.126 166.504 231.916 165.724 231.496C164.944 231.076 164.332 230.494 163.888 229.75C163.456 228.994 163.24 228.142 163.24 227.194C163.24 226.246 163.456 225.4 163.888 224.656C164.332 223.912 164.944 223.33 165.724 222.91C166.504 222.49 167.38 222.28 168.352 222.28C169.336 222.28 170.218 222.49 170.998 222.91C171.778 223.33 172.384 223.912 172.816 224.656C173.26 225.4 173.482 226.246 173.482 227.194C173.482 228.142 173.26 228.994 172.816 229.75C172.384 230.494 171.778 231.076 170.998 231.496C170.218 231.916 169.336 232.126 168.352 232.126ZM168.352 230.2C169.18 230.2 169.864 229.924 170.404 229.372C170.944 228.82 171.214 228.094 171.214 227.194C171.214 226.294 170.944 225.568 170.404 225.016C169.864 224.464 169.18 224.188 168.352 224.188C167.524 224.188 166.84 224.464 166.3 225.016C165.772 225.568 165.508 226.294 165.508 227.194C165.508 228.094 165.772 228.82 166.3 229.372C166.84 229.924 167.524 230.2 168.352 230.2ZM178.912 222.28C180.328 222.28 181.408 222.622 182.152 223.306C182.908 223.978 183.286 224.998 183.286 226.366V232H181.162V230.83C180.886 231.25 180.49 231.574 179.974 231.802C179.47 232.018 178.858 232.126 178.138 232.126C177.418 232.126 176.788 232.006 176.248 231.766C175.708 231.514 175.288 231.172 174.988 230.74C174.7 230.296 174.556 229.798 174.556 229.246C174.556 228.382 174.874 227.692 175.51 227.176C176.158 226.648 177.172 226.384 178.552 226.384H181.036V226.24C181.036 225.568 180.832 225.052 180.424 224.692C180.028 224.332 179.434 224.152 178.642 224.152C178.102 224.152 177.568 224.236 177.04 224.404C176.524 224.572 176.086 224.806 175.726 225.106L174.844 223.468C175.348 223.084 175.954 222.79 176.662 222.586C177.37 222.382 178.12 222.28 178.912 222.28ZM178.606 230.488C179.17 230.488 179.668 230.362 180.1 230.11C180.544 229.846 180.856 229.474 181.036 228.994V227.878H178.714C177.418 227.878 176.77 228.304 176.77 229.156C176.77 229.564 176.932 229.888 177.256 230.128C177.58 230.368 178.03 230.488 178.606 230.488ZM195.406 218.644V232H193.246V230.758C192.874 231.214 192.412 231.556 191.86 231.784C191.32 232.012 190.72 232.126 190.06 232.126C189.136 232.126 188.302 231.922 187.558 231.514C186.826 231.106 186.25 230.53 185.83 229.786C185.41 229.03 185.2 228.166 185.2 227.194C185.2 226.222 185.41 225.364 185.83 224.62C186.25 223.876 186.826 223.3 187.558 222.892C188.302 222.484 189.136 222.28 190.06 222.28C190.696 222.28 191.278 222.388 191.806 222.604C192.334 222.82 192.784 223.144 193.156 223.576V218.644H195.406ZM190.33 230.2C190.87 230.2 191.356 230.08 191.788 229.84C192.22 229.588 192.562 229.234 192.814 228.778C193.066 228.322 193.192 227.794 193.192 227.194C193.192 226.594 193.066 226.066 192.814 225.61C192.562 225.154 192.22 224.806 191.788 224.566C191.356 224.314 190.87 224.188 190.33 224.188C189.79 224.188 189.304 224.314 188.872 224.566C188.44 224.806 188.098 225.154 187.846 225.61C187.594 226.066 187.468 226.594 187.468 227.194C187.468 227.794 187.594 228.322 187.846 228.778C188.098 229.234 188.44 229.588 188.872 229.84C189.304 230.08 189.79 230.2 190.33 230.2ZM205.34 221.362V225.196H211.424V227.176H205.34V232H203V219.4H212.198V221.362H205.34ZM213.799 222.388H216.049V232H213.799V222.388ZM214.933 220.804C214.525 220.804 214.183 220.678 213.907 220.426C213.631 220.162 213.493 219.838 213.493 219.454C213.493 219.07 213.631 218.752 213.907 218.5C214.183 218.236 214.525 218.104 214.933 218.104C215.341 218.104 215.683 218.23 215.959 218.482C216.235 218.722 216.373 219.028 216.373 219.4C216.373 219.796 216.235 220.132 215.959 220.408C215.695 220.672 215.353 220.804 214.933 220.804ZM218.732 218.644H220.982V232H218.732V218.644ZM232.701 227.248C232.701 227.404 232.689 227.626 232.665 227.914H225.123C225.255 228.622 225.597 229.186 226.149 229.606C226.713 230.014 227.409 230.218 228.237 230.218C229.293 230.218 230.163 229.87 230.847 229.174L232.053 230.56C231.621 231.076 231.075 231.466 230.415 231.73C229.755 231.994 229.011 232.126 228.183 232.126C227.127 232.126 226.197 231.916 225.393 231.496C224.589 231.076 223.965 230.494 223.521 229.75C223.089 228.994 222.873 228.142 222.873 227.194C222.873 226.258 223.083 225.418 223.503 224.674C223.935 223.918 224.529 223.33 225.285 222.91C226.041 222.49 226.893 222.28 227.841 222.28C228.777 222.28 229.611 222.49 230.343 222.91C231.087 223.318 231.663 223.9 232.071 224.656C232.491 225.4 232.701 226.264 232.701 227.248ZM227.841 224.08C227.121 224.08 226.509 224.296 226.005 224.728C225.513 225.148 225.213 225.712 225.105 226.42H230.559C230.463 225.724 230.169 225.16 229.677 224.728C229.185 224.296 228.573 224.08 227.841 224.08ZM237.563 232.126C236.783 232.126 236.021 232.024 235.277 231.82C234.533 231.616 233.939 231.358 233.495 231.046L234.359 229.336C234.791 229.624 235.307 229.858 235.907 230.038C236.519 230.206 237.119 230.29 237.707 230.29C239.051 230.29 239.723 229.936 239.723 229.228C239.723 228.892 239.549 228.658 239.201 228.526C238.865 228.394 238.319 228.268 237.563 228.148C236.771 228.028 236.123 227.89 235.619 227.734C235.127 227.578 234.695 227.308 234.323 226.924C233.963 226.528 233.783 225.982 233.783 225.286C233.783 224.374 234.161 223.648 234.917 223.108C235.685 222.556 236.717 222.28 238.013 222.28C238.673 222.28 239.333 222.358 239.993 222.514C240.653 222.658 241.193 222.856 241.613 223.108L240.749 224.818C239.933 224.338 239.015 224.098 237.995 224.098C237.335 224.098 236.831 224.2 236.483 224.404C236.147 224.596 235.979 224.854 235.979 225.178C235.979 225.538 236.159 225.796 236.519 225.952C236.891 226.096 237.461 226.234 238.229 226.366C238.997 226.486 239.627 226.624 240.119 226.78C240.611 226.936 241.031 227.2 241.379 227.572C241.739 227.944 241.919 228.472 241.919 229.156C241.919 230.056 241.529 230.776 240.749 231.316C239.969 231.856 238.907 232.126 237.563 232.126Z" fill="#5A5A75"/>
<path d="M112.221 264.128C111.091 264.128 110.072 263.883 109.165 263.392C108.259 262.891 107.544 262.203 107.021 261.328C106.509 260.453 106.253 259.477 106.253 258.4C106.253 257.323 106.509 256.347 107.021 255.472C107.544 254.597 108.259 253.915 109.165 253.424C110.072 252.923 111.091 252.672 112.221 252.672C113.341 252.672 114.355 252.923 115.261 253.424C116.168 253.915 116.877 254.597 117.389 255.472C117.901 256.336 118.157 257.312 118.157 258.4C118.157 259.488 117.901 260.469 117.389 261.344C116.877 262.208 116.168 262.891 115.261 263.392C114.355 263.883 113.341 264.128 112.221 264.128ZM112.221 262.704C113.043 262.704 113.779 262.517 114.429 262.144C115.091 261.771 115.608 261.259 115.981 260.608C116.365 259.947 116.557 259.211 116.557 258.4C116.557 257.589 116.365 256.859 115.981 256.208C115.608 255.547 115.091 255.029 114.429 254.656C113.779 254.283 113.043 254.096 112.221 254.096C111.4 254.096 110.653 254.283 109.981 254.656C109.32 255.029 108.797 255.547 108.413 256.208C108.04 256.859 107.853 257.589 107.853 258.4C107.853 259.211 108.04 259.947 108.413 260.608C108.797 261.259 109.32 261.771 109.981 262.144C110.653 262.517 111.4 262.704 112.221 262.704ZM121.531 256.944C121.797 256.453 122.192 256.08 122.715 255.824C123.237 255.568 123.872 255.44 124.619 255.44V256.928C124.533 256.917 124.416 256.912 124.267 256.912C123.435 256.912 122.779 257.163 122.299 257.664C121.829 258.155 121.595 258.859 121.595 259.776V264H120.059V255.52H121.531V256.944ZM134.774 255.44C135.596 255.44 136.332 255.621 136.982 255.984C137.633 256.347 138.14 256.853 138.502 257.504C138.876 258.155 139.062 258.907 139.062 259.76C139.062 260.613 138.876 261.371 138.502 262.032C138.14 262.683 137.633 263.189 136.982 263.552C136.332 263.915 135.596 264.096 134.774 264.096C134.145 264.096 133.569 263.973 133.046 263.728C132.524 263.483 132.092 263.125 131.75 262.656V264H130.278V252.128H131.814V256.8C132.156 256.352 132.582 256.016 133.094 255.792C133.606 255.557 134.166 255.44 134.774 255.44ZM134.646 262.752C135.19 262.752 135.676 262.629 136.102 262.384C136.54 262.128 136.881 261.776 137.126 261.328C137.382 260.869 137.51 260.347 137.51 259.76C137.51 259.173 137.382 258.656 137.126 258.208C136.881 257.749 136.54 257.397 136.102 257.152C135.676 256.907 135.19 256.784 134.646 256.784C134.113 256.784 133.628 256.907 133.19 257.152C132.753 257.397 132.412 257.749 132.166 258.208C131.921 258.656 131.798 259.173 131.798 259.76C131.798 260.347 131.921 260.869 132.166 261.328C132.412 261.776 132.753 262.128 133.19 262.384C133.628 262.629 134.113 262.752 134.646 262.752ZM142.336 256.944C142.603 256.453 142.998 256.08 143.52 255.824C144.043 255.568 144.678 255.44 145.424 255.44V256.928C145.339 256.917 145.222 256.912 145.072 256.912C144.24 256.912 143.584 257.163 143.104 257.664C142.635 258.155 142.4 258.859 142.4 259.776V264H140.864V255.52H142.336V256.944ZM150.551 264.096C149.709 264.096 148.951 263.909 148.279 263.536C147.607 263.163 147.079 262.651 146.695 262C146.322 261.339 146.135 260.592 146.135 259.76C146.135 258.928 146.322 258.187 146.695 257.536C147.079 256.875 147.607 256.363 148.279 256C148.951 255.627 149.709 255.44 150.551 255.44C151.394 255.44 152.146 255.627 152.807 256C153.479 256.363 154.002 256.875 154.375 257.536C154.759 258.187 154.951 258.928 154.951 259.76C154.951 260.592 154.759 261.339 154.375 262C154.002 262.651 153.479 263.163 152.807 263.536C152.146 263.909 151.394 264.096 150.551 264.096ZM150.551 262.752C151.095 262.752 151.581 262.629 152.007 262.384C152.445 262.128 152.786 261.776 153.031 261.328C153.277 260.869 153.399 260.347 153.399 259.76C153.399 259.173 153.277 258.656 153.031 258.208C152.786 257.749 152.445 257.397 152.007 257.152C151.581 256.907 151.095 256.784 150.551 256.784C150.007 256.784 149.517 256.907 149.079 257.152C148.653 257.397 148.311 257.749 148.055 258.208C147.81 258.656 147.687 259.173 147.687 259.76C147.687 260.347 147.81 260.869 148.055 261.328C148.311 261.776 148.653 262.128 149.079 262.384C149.517 262.629 150.007 262.752 150.551 262.752ZM169.353 255.52L166.185 264H164.713L162.265 257.568L159.785 264H158.313L155.161 255.52H156.617L159.081 262.272L161.641 255.52H162.937L165.449 262.304L167.977 255.52H169.353ZM172.915 264.096C172.221 264.096 171.555 264.005 170.915 263.824C170.275 263.632 169.773 263.392 169.411 263.104L170.051 261.888C170.424 262.155 170.877 262.368 171.411 262.528C171.944 262.688 172.483 262.768 173.027 262.768C174.371 262.768 175.043 262.384 175.043 261.616C175.043 261.36 174.952 261.157 174.771 261.008C174.589 260.859 174.36 260.752 174.083 260.688C173.816 260.613 173.432 260.533 172.931 260.448C172.248 260.341 171.688 260.219 171.251 260.08C170.824 259.941 170.456 259.707 170.147 259.376C169.837 259.045 169.683 258.581 169.683 257.984C169.683 257.216 170.003 256.603 170.643 256.144C171.283 255.675 172.141 255.44 173.219 255.44C173.784 255.44 174.349 255.509 174.915 255.648C175.48 255.787 175.944 255.973 176.307 256.208L175.651 257.424C174.957 256.976 174.141 256.752 173.203 256.752C172.552 256.752 172.056 256.859 171.715 257.072C171.373 257.285 171.203 257.568 171.203 257.92C171.203 258.197 171.299 258.416 171.491 258.576C171.683 258.736 171.917 258.853 172.195 258.928C172.483 259.003 172.883 259.088 173.395 259.184C174.077 259.301 174.627 259.429 175.043 259.568C175.469 259.696 175.832 259.92 176.131 260.24C176.429 260.56 176.579 261.008 176.579 261.584C176.579 262.352 176.248 262.965 175.587 263.424C174.936 263.872 174.045 264.096 172.915 264.096ZM185.842 259.808C185.842 259.925 185.832 260.08 185.81 260.272H178.93C179.026 261.019 179.352 261.621 179.906 262.08C180.472 262.528 181.17 262.752 182.002 262.752C183.016 262.752 183.832 262.411 184.45 261.728L185.298 262.72C184.914 263.168 184.434 263.509 183.858 263.744C183.293 263.979 182.658 264.096 181.954 264.096C181.058 264.096 180.264 263.915 179.57 263.552C178.877 263.179 178.338 262.661 177.954 262C177.581 261.339 177.394 260.592 177.394 259.76C177.394 258.939 177.576 258.197 177.938 257.536C178.312 256.875 178.818 256.363 179.458 256C180.109 255.627 180.84 255.44 181.65 255.44C182.461 255.44 183.181 255.627 183.81 256C184.45 256.363 184.946 256.875 185.298 257.536C185.661 258.197 185.842 258.955 185.842 259.808ZM181.65 256.736C180.914 256.736 180.296 256.96 179.794 257.408C179.304 257.856 179.016 258.443 178.93 259.168H184.37C184.285 258.453 183.992 257.872 183.49 257.424C183 256.965 182.386 256.736 181.65 256.736ZM196.4 263.504C196.176 263.696 195.899 263.845 195.568 263.952C195.237 264.048 194.896 264.096 194.544 264.096C193.691 264.096 193.029 263.867 192.56 263.408C192.091 262.949 191.856 262.293 191.856 261.44V256.784H190.416V255.52H191.856V253.664H193.392V255.52H195.824V256.784H193.392V261.376C193.392 261.835 193.504 262.187 193.728 262.432C193.963 262.677 194.293 262.8 194.72 262.8C195.189 262.8 195.589 262.667 195.92 262.4L196.4 263.504ZM201.288 264.096C200.445 264.096 199.688 263.909 199.016 263.536C198.344 263.163 197.816 262.651 197.432 262C197.058 261.339 196.872 260.592 196.872 259.76C196.872 258.928 197.058 258.187 197.432 257.536C197.816 256.875 198.344 256.363 199.016 256C199.688 255.627 200.445 255.44 201.288 255.44C202.13 255.44 202.882 255.627 203.544 256C204.216 256.363 204.738 256.875 205.112 257.536C205.496 258.187 205.688 258.928 205.688 259.76C205.688 260.592 205.496 261.339 205.112 262C204.738 262.651 204.216 263.163 203.544 263.536C202.882 263.909 202.13 264.096 201.288 264.096ZM201.288 262.752C201.832 262.752 202.317 262.629 202.744 262.384C203.181 262.128 203.522 261.776 203.768 261.328C204.013 260.869 204.136 260.347 204.136 259.76C204.136 259.173 204.013 258.656 203.768 258.208C203.522 257.749 203.181 257.397 202.744 257.152C202.317 256.907 201.832 256.784 201.288 256.784C200.744 256.784 200.253 256.907 199.816 257.152C199.389 257.397 199.048 257.749 198.792 258.208C198.546 258.656 198.424 259.173 198.424 259.76C198.424 260.347 198.546 260.869 198.792 261.328C199.048 261.776 199.389 262.128 199.816 262.384C200.253 262.629 200.744 262.752 201.288 262.752ZM219.373 255.52V264H217.917V262.72C217.607 263.157 217.197 263.499 216.685 263.744C216.183 263.979 215.634 264.096 215.037 264.096C213.906 264.096 213.015 263.787 212.365 263.168C211.714 262.539 211.389 261.616 211.389 260.4V255.52H212.925V260.224C212.925 261.045 213.122 261.669 213.517 262.096C213.911 262.512 214.477 262.72 215.213 262.72C216.023 262.72 216.663 262.475 217.133 261.984C217.602 261.493 217.837 260.8 217.837 259.904V255.52H219.373ZM226.473 255.44C227.294 255.44 228.03 255.621 228.681 255.984C229.332 256.347 229.838 256.853 230.201 257.504C230.574 258.155 230.761 258.907 230.761 259.76C230.761 260.613 230.574 261.371 230.201 262.032C229.838 262.683 229.332 263.189 228.681 263.552C228.03 263.915 227.294 264.096 226.473 264.096C225.865 264.096 225.305 263.979 224.793 263.744C224.292 263.509 223.865 263.168 223.513 262.72V267.104H221.977V255.52H223.449V256.864C223.79 256.395 224.222 256.043 224.745 255.808C225.268 255.563 225.844 255.44 226.473 255.44ZM226.345 262.752C226.889 262.752 227.374 262.629 227.801 262.384C228.238 262.128 228.58 261.776 228.825 261.328C229.081 260.869 229.209 260.347 229.209 259.76C229.209 259.173 229.081 258.656 228.825 258.208C228.58 257.749 228.238 257.397 227.801 257.152C227.374 256.907 226.889 256.784 226.345 256.784C225.812 256.784 225.326 256.912 224.889 257.168C224.462 257.413 224.121 257.76 223.865 258.208C223.62 258.656 223.497 259.173 223.497 259.76C223.497 260.347 223.62 260.869 223.865 261.328C224.11 261.776 224.452 262.128 224.889 262.384C225.326 262.629 225.812 262.752 226.345 262.752ZM232.563 252.128H234.099V264H232.563V252.128ZM240.344 264.096C239.501 264.096 238.744 263.909 238.072 263.536C237.4 263.163 236.872 262.651 236.488 262C236.115 261.339 235.928 260.592 235.928 259.76C235.928 258.928 236.115 258.187 236.488 257.536C236.872 256.875 237.4 256.363 238.072 256C238.744 255.627 239.501 255.44 240.344 255.44C241.187 255.44 241.939 255.627 242.6 256C243.272 256.363 243.795 256.875 244.168 257.536C244.552 258.187 244.744 258.928 244.744 259.76C244.744 260.592 244.552 261.339 244.168 262C243.795 262.651 243.272 263.163 242.6 263.536C241.939 263.909 241.187 264.096 240.344 264.096ZM240.344 262.752C240.888 262.752 241.373 262.629 241.8 262.384C242.237 262.128 242.579 261.776 242.824 261.328C243.069 260.869 243.192 260.347 243.192 259.76C243.192 259.173 243.069 258.656 242.824 258.208C242.579 257.749 242.237 257.397 241.8 257.152C241.373 256.907 240.888 256.784 240.344 256.784C239.8 256.784 239.309 256.907 238.872 257.152C238.445 257.397 238.104 257.749 237.848 258.208C237.603 258.656 237.48 259.173 237.48 259.76C237.48 260.347 237.603 260.869 237.848 261.328C238.104 261.776 238.445 262.128 238.872 262.384C239.309 262.629 239.8 262.752 240.344 262.752ZM249.558 255.44C250.731 255.44 251.627 255.728 252.246 256.304C252.875 256.88 253.19 257.739 253.19 258.88V264H251.734V262.88C251.478 263.275 251.11 263.579 250.63 263.792C250.161 263.995 249.601 264.096 248.95 264.096C248.001 264.096 247.238 263.867 246.662 263.408C246.097 262.949 245.814 262.347 245.814 261.6C245.814 260.853 246.086 260.256 246.63 259.808C247.174 259.349 248.038 259.12 249.222 259.12H251.654V258.816C251.654 258.155 251.462 257.648 251.078 257.296C250.694 256.944 250.129 256.768 249.382 256.768C248.881 256.768 248.39 256.853 247.91 257.024C247.43 257.184 247.025 257.403 246.694 257.68L246.054 256.528C246.491 256.176 247.014 255.909 247.622 255.728C248.23 255.536 248.875 255.44 249.558 255.44ZM249.206 262.912C249.793 262.912 250.299 262.784 250.726 262.528C251.153 262.261 251.462 261.888 251.654 261.408V260.224H249.286C247.985 260.224 247.334 260.661 247.334 261.536C247.334 261.963 247.499 262.299 247.83 262.544C248.161 262.789 248.619 262.912 249.206 262.912ZM263.759 252.128V264H262.287V262.656C261.946 263.125 261.514 263.483 260.991 263.728C260.469 263.973 259.893 264.096 259.263 264.096C258.442 264.096 257.706 263.915 257.055 263.552C256.405 263.189 255.893 262.683 255.519 262.032C255.157 261.371 254.975 260.613 254.975 259.76C254.975 258.907 255.157 258.155 255.519 257.504C255.893 256.853 256.405 256.347 257.055 255.984C257.706 255.621 258.442 255.44 259.263 255.44C259.871 255.44 260.431 255.557 260.943 255.792C261.455 256.016 261.882 256.352 262.223 256.8V252.128H263.759ZM259.391 262.752C259.925 262.752 260.41 262.629 260.847 262.384C261.285 262.128 261.626 261.776 261.871 261.328C262.117 260.869 262.239 260.347 262.239 259.76C262.239 259.173 262.117 258.656 261.871 258.208C261.626 257.749 261.285 257.397 260.847 257.152C260.41 256.907 259.925 256.784 259.391 256.784C258.847 256.784 258.357 256.907 257.919 257.152C257.493 257.397 257.151 257.749 256.895 258.208C256.65 258.656 256.527 259.173 256.527 259.76C256.527 260.347 256.65 260.869 256.895 261.328C257.151 261.776 257.493 262.128 257.919 262.384C258.357 262.629 258.847 262.752 259.391 262.752ZM266.714 264.096C266.415 264.096 266.159 263.995 265.946 263.792C265.732 263.579 265.626 263.312 265.626 262.992C265.626 262.683 265.732 262.427 265.946 262.224C266.159 262.011 266.415 261.904 266.714 261.904C267.012 261.904 267.263 262.005 267.466 262.208C267.668 262.411 267.77 262.672 267.77 262.992C267.77 263.312 267.663 263.579 267.45 263.792C267.247 263.995 267.002 264.096 266.714 264.096Z" fill="#999999"/>
<path d="M145 302C145 293.163 152.163 286 161 286H213C221.837 286 229 293.163 229 302C229 310.837 221.837 318 213 318H161C152.163 318 145 310.837 145 302Z" fill="#FFBC00"/>
<path d="M169.064 301.918C169.633 302.077 170.081 302.366 170.408 302.786C170.735 303.197 170.898 303.719 170.898 304.354C170.898 305.203 170.576 305.857 169.932 306.314C169.297 306.771 168.369 307 167.146 307H162.47V297.2H166.866C167.986 297.2 168.849 297.424 169.456 297.872C170.072 298.32 170.38 298.941 170.38 299.734C170.38 300.247 170.259 300.691 170.016 301.064C169.783 301.437 169.465 301.722 169.064 301.918ZM163.87 298.334V301.47H166.74C167.459 301.47 168.009 301.339 168.392 301.078C168.784 300.807 168.98 300.415 168.98 299.902C168.98 299.389 168.784 299.001 168.392 298.74C168.009 298.469 167.459 298.334 166.74 298.334H163.87ZM167.09 305.866C167.883 305.866 168.481 305.735 168.882 305.474C169.283 305.213 169.484 304.802 169.484 304.242C169.484 303.15 168.686 302.604 167.09 302.604H163.87V305.866H167.09ZM173.878 300.826C174.111 300.397 174.456 300.07 174.914 299.846C175.371 299.622 175.926 299.51 176.58 299.51V300.812C176.505 300.803 176.402 300.798 176.272 300.798C175.544 300.798 174.97 301.017 174.55 301.456C174.139 301.885 173.934 302.501 173.934 303.304V307H172.59V299.58H173.878V300.826ZM181.066 307.084C180.328 307.084 179.666 306.921 179.078 306.594C178.49 306.267 178.028 305.819 177.692 305.25C177.365 304.671 177.202 304.018 177.202 303.29C177.202 302.562 177.365 301.913 177.692 301.344C178.028 300.765 178.49 300.317 179.078 300C179.666 299.673 180.328 299.51 181.066 299.51C181.803 299.51 182.461 299.673 183.04 300C183.628 300.317 184.085 300.765 184.412 301.344C184.748 301.913 184.916 302.562 184.916 303.29C184.916 304.018 184.748 304.671 184.412 305.25C184.085 305.819 183.628 306.267 183.04 306.594C182.461 306.921 181.803 307.084 181.066 307.084ZM181.066 305.908C181.542 305.908 181.966 305.801 182.34 305.586C182.722 305.362 183.021 305.054 183.236 304.662C183.45 304.261 183.558 303.803 183.558 303.29C183.558 302.777 183.45 302.324 183.236 301.932C183.021 301.531 182.722 301.223 182.34 301.008C181.966 300.793 181.542 300.686 181.066 300.686C180.59 300.686 180.16 300.793 179.778 301.008C179.404 301.223 179.106 301.531 178.882 301.932C178.667 302.324 178.56 302.777 178.56 303.29C178.56 303.803 178.667 304.261 178.882 304.662C179.106 305.054 179.404 305.362 179.778 305.586C180.16 305.801 180.59 305.908 181.066 305.908ZM197.517 299.58L194.745 307H193.457L191.315 301.372L189.145 307H187.857L185.099 299.58H186.373L188.529 305.488L190.769 299.58H191.903L194.101 305.516L196.313 299.58H197.517ZM200.634 307.084C200.027 307.084 199.444 307.005 198.884 306.846C198.324 306.678 197.885 306.468 197.568 306.216L198.128 305.152C198.454 305.385 198.851 305.572 199.318 305.712C199.784 305.852 200.256 305.922 200.732 305.922C201.908 305.922 202.496 305.586 202.496 304.914C202.496 304.69 202.416 304.513 202.258 304.382C202.099 304.251 201.898 304.158 201.656 304.102C201.422 304.037 201.086 303.967 200.648 303.892C200.05 303.799 199.56 303.691 199.178 303.57C198.804 303.449 198.482 303.243 198.212 302.954C197.941 302.665 197.806 302.259 197.806 301.736C197.806 301.064 198.086 300.527 198.646 300.126C199.206 299.715 199.957 299.51 200.9 299.51C201.394 299.51 201.889 299.571 202.384 299.692C202.878 299.813 203.284 299.977 203.602 300.182L203.028 301.246C202.421 300.854 201.707 300.658 200.886 300.658C200.316 300.658 199.882 300.751 199.584 300.938C199.285 301.125 199.136 301.372 199.136 301.68C199.136 301.923 199.22 302.114 199.388 302.254C199.556 302.394 199.761 302.497 200.004 302.562C200.256 302.627 200.606 302.702 201.054 302.786C201.651 302.889 202.132 303.001 202.496 303.122C202.869 303.234 203.186 303.43 203.448 303.71C203.709 303.99 203.84 304.382 203.84 304.886C203.84 305.558 203.55 306.095 202.972 306.496C202.402 306.888 201.623 307.084 200.634 307.084ZM211.945 303.332C211.945 303.435 211.936 303.57 211.917 303.738H205.897C205.981 304.391 206.266 304.919 206.751 305.32C207.246 305.712 207.857 305.908 208.585 305.908C209.472 305.908 210.186 305.609 210.727 305.012L211.469 305.88C211.133 306.272 210.713 306.571 210.209 306.776C209.715 306.981 209.159 307.084 208.543 307.084C207.759 307.084 207.064 306.925 206.457 306.608C205.851 306.281 205.379 305.829 205.043 305.25C204.717 304.671 204.553 304.018 204.553 303.29C204.553 302.571 204.712 301.923 205.029 301.344C205.356 300.765 205.799 300.317 206.359 300C206.929 299.673 207.568 299.51 208.277 299.51C208.987 299.51 209.617 299.673 210.167 300C210.727 300.317 211.161 300.765 211.469 301.344C211.787 301.923 211.945 302.585 211.945 303.332ZM208.277 300.644C207.633 300.644 207.092 300.84 206.653 301.232C206.224 301.624 205.972 302.137 205.897 302.772H210.657C210.583 302.147 210.326 301.638 209.887 301.246C209.458 300.845 208.921 300.644 208.277 300.644Z" fill="black"/>
<circle cx="187" cy="212" r="189.5" stroke="#E4E4FB" stroke-dasharray="2 2"/>
<circle cx="187" cy="212" r="200.5" stroke="#E4E4FB" stroke-dasharray="2 2"/>
<circle cx="187" cy="212" r="211.5" stroke="#E4E4FB" stroke-dasharray="2 2"/>
<defs>
<filter id="filter0_d" x="202" y="91" width="44" height="41.5" filterUnits="userSpaceOnUse" color-interpolation-filters="sRGB">
<feFlood flood-opacity="0" result="BackgroundImageFix"/>
<feColorMatrix in="SourceAlpha" type="matrix" values="0 0 0 0 0 0 0 0 0 0 0 0 0 0 0 0 0 0 127 0"/>
<feOffset dx="-2" dy="2"/>
<feGaussianBlur stdDeviation="6"/>
<feColorMatrix type="matrix" values="0 0 0 0 0 0 0 0 0 0 0 0 0 0 0 0 0 0 0.15 0"/>
<feBlend mode="normal" in2="BackgroundImageFix" result="effect1_dropShadow"/>
<feBlend mode="normal" in="SourceGraphic" in2="effect1_dropShadow" result="shape"/>
</filter>
<filter id="filter1_d" x="201" y="100" width="44" height="41.5" filterUnits="userSpaceOnUse" color-interpolation-filters="sRGB">
<feFlood flood-opacity="0" result="BackgroundImageFix"/>
<feColorMatrix in="SourceAlpha" type="matrix" values="0 0 0 0 0 0 0 0 0 0 0 0 0 0 0 0 0 0 127 0"/>
<feOffset dx="-2" dy="2"/>
<feGaussianBlur stdDeviation="6"/>
<feColorMatrix type="matrix" values="0 0 0 0 0 0 0 0 0 0 0 0 0 0 0 0 0 0 0.15 0"/>
<feBlend mode="normal" in2="BackgroundImageFix" result="effect1_dropShadow"/>
<feBlend mode="normal" in="SourceGraphic" in2="effect1_dropShadow" result="shape"/>
</filter>
<linearGradient id="paint0_linear" x1="188" y1="101" x2="188" y2="184" gradientUnits="userSpaceOnUse">
<stop stop-color="#AAD0FD"/>
<stop offset="1" stop-color="#7CAFDF"/>
</linearGradient>
<linearGradient id="paint1_linear" x1="226" y1="105" x2="226" y2="121" gradientUnits="userSpaceOnUse">
<stop offset="0.270833" stop-color="#A7DDFC"/>
<stop offset="1" stop-color="#72A6D6"/>
</linearGradient>
<linearGradient id="paint2_linear" x1="187.5" y1="111" x2="187.5" y2="197" gradientUnits="userSpaceOnUse">
<stop offset="0.0885417" stop-color="#D6D6F3"/>
<stop offset="0.369792" stop-color="#A8A8BC"/>
</linearGradient>
<linearGradient id="paint3_linear" x1="187" y1="110" x2="187" y2="193" gradientUnits="userSpaceOnUse">
<stop stop-color="#FDE7AA"/>
<stop offset="1" stop-color="#ECD38A"/>
</linearGradient>
<linearGradient id="paint4_linear" x1="225" y1="114" x2="225" y2="130" gradientUnits="userSpaceOnUse">
<stop offset="0.270833" stop-color="#FCE5A7"/>
<stop offset="1" stop-color="#E4CB84"/>
</linearGradient>
</defs>
</svg>
