<svg width="427" height="426" viewBox="0 0 427 426" fill="none" xmlns="http://www.w3.org/2000/svg">
<circle cx="213.5" cy="213" r="213" fill="#F7F7FB"/>
<path d="M137.922 232.4H143.43C144.774 232.4 145.968 232.664 147.012 233.192C148.056 233.708 148.866 234.446 149.442 235.406C150.018 236.354 150.306 237.452 150.306 238.7C150.306 239.948 150.018 241.052 149.442 242.012C148.866 242.96 148.056 243.698 147.012 244.226C145.968 244.742 144.774 245 143.43 245H137.922V232.4ZM143.322 243.02C144.246 243.02 145.056 242.846 145.752 242.498C146.46 242.138 147 241.634 147.372 240.986C147.756 240.326 147.948 239.564 147.948 238.7C147.948 237.836 147.756 237.08 147.372 236.432C147 235.772 146.46 235.268 145.752 234.92C145.056 234.56 144.246 234.38 143.322 234.38H140.262V243.02H143.322ZM154.449 236.792C155.097 235.784 156.237 235.28 157.869 235.28V237.422C157.677 237.386 157.503 237.368 157.347 237.368C156.471 237.368 155.787 237.626 155.295 238.142C154.803 238.646 154.557 239.378 154.557 240.338V245H152.307V235.388H154.449V236.792ZM163.127 235.28C164.543 235.28 165.623 235.622 166.367 236.306C167.123 236.978 167.501 237.998 167.501 239.366V245H165.377V243.83C165.101 244.25 164.705 244.574 164.189 244.802C163.685 245.018 163.073 245.126 162.353 245.126C161.633 245.126 161.003 245.006 160.463 244.766C159.923 244.514 159.503 244.172 159.203 243.74C158.915 243.296 158.771 242.798 158.771 242.246C158.771 241.382 159.089 240.692 159.725 240.176C160.373 239.648 161.387 239.384 162.767 239.384H165.251V239.24C165.251 238.568 165.047 238.052 164.639 237.692C164.243 237.332 163.649 237.152 162.857 237.152C162.317 237.152 161.783 237.236 161.255 237.404C160.739 237.572 160.301 237.806 159.941 238.106L159.059 236.468C159.563 236.084 160.169 235.79 160.877 235.586C161.585 235.382 162.335 235.28 163.127 235.28ZM162.821 243.488C163.385 243.488 163.883 243.362 164.315 243.11C164.759 242.846 165.071 242.474 165.251 241.994V240.878H162.929C161.633 240.878 160.985 241.304 160.985 242.156C160.985 242.564 161.147 242.888 161.471 243.128C161.795 243.368 162.245 243.488 162.821 243.488ZM179.747 235.388V243.542C179.747 246.926 178.019 248.618 174.563 248.618C173.639 248.618 172.763 248.498 171.935 248.258C171.107 248.03 170.423 247.694 169.883 247.25L170.891 245.558C171.311 245.906 171.839 246.182 172.475 246.386C173.123 246.602 173.777 246.71 174.437 246.71C175.493 246.71 176.267 246.47 176.759 245.99C177.251 245.51 177.497 244.778 177.497 243.794V243.29C177.113 243.71 176.645 244.028 176.093 244.244C175.541 244.46 174.935 244.568 174.275 244.568C173.363 244.568 172.535 244.376 171.791 243.992C171.059 243.596 170.477 243.044 170.045 242.336C169.625 241.628 169.415 240.818 169.415 239.906C169.415 238.994 169.625 238.19 170.045 237.494C170.477 236.786 171.059 236.24 171.791 235.856C172.535 235.472 173.363 235.28 174.275 235.28C174.971 235.28 175.601 235.394 176.165 235.622C176.741 235.85 177.221 236.198 177.605 236.666V235.388H179.747ZM174.617 242.66C175.469 242.66 176.165 242.408 176.705 241.904C177.257 241.388 177.533 240.722 177.533 239.906C177.533 239.102 177.257 238.448 176.705 237.944C176.165 237.44 175.469 237.188 174.617 237.188C173.753 237.188 173.045 237.44 172.493 237.944C171.953 238.448 171.683 239.102 171.683 239.906C171.683 240.722 171.953 241.388 172.493 241.904C173.045 242.408 173.753 242.66 174.617 242.66ZM196.805 245.198L195.221 243.668C194.045 244.676 192.635 245.18 190.991 245.18C190.115 245.18 189.329 245.036 188.633 244.748C187.937 244.46 187.391 244.064 186.995 243.56C186.599 243.044 186.401 242.462 186.401 241.814C186.401 241.034 186.629 240.35 187.085 239.762C187.541 239.162 188.285 238.574 189.317 237.998C188.813 237.494 188.453 237.026 188.237 236.594C188.021 236.15 187.913 235.694 187.913 235.226C187.913 234.338 188.243 233.624 188.903 233.084C189.575 232.532 190.463 232.256 191.567 232.256C192.587 232.256 193.403 232.508 194.015 233.012C194.627 233.504 194.933 234.176 194.933 235.028C194.933 235.676 194.729 236.252 194.321 236.756C193.925 237.26 193.271 237.77 192.359 238.286L195.077 240.878C195.377 240.29 195.611 239.582 195.779 238.754L197.597 239.348C197.357 240.464 196.979 241.424 196.463 242.228L198.047 243.74L196.805 245.198ZM191.567 233.858C191.075 233.858 190.685 233.984 190.397 234.236C190.109 234.476 189.965 234.794 189.965 235.19C189.965 235.478 190.043 235.754 190.199 236.018C190.355 236.27 190.655 236.618 191.099 237.062C191.819 236.666 192.317 236.324 192.593 236.036C192.881 235.736 193.025 235.412 193.025 235.064C193.025 234.692 192.893 234.398 192.629 234.182C192.377 233.966 192.023 233.858 191.567 233.858ZM191.153 243.344C192.197 243.344 193.109 243.026 193.889 242.39L190.559 239.204C189.839 239.6 189.329 239.984 189.029 240.356C188.741 240.716 188.597 241.124 188.597 241.58C188.597 242.108 188.831 242.534 189.299 242.858C189.767 243.182 190.385 243.344 191.153 243.344ZM204.499 232.4H210.007C211.351 232.4 212.545 232.664 213.589 233.192C214.633 233.708 215.443 234.446 216.019 235.406C216.595 236.354 216.883 237.452 216.883 238.7C216.883 239.948 216.595 241.052 216.019 242.012C215.443 242.96 214.633 243.698 213.589 244.226C212.545 244.742 211.351 245 210.007 245H204.499V232.4ZM209.899 243.02C210.823 243.02 211.633 242.846 212.329 242.498C213.037 242.138 213.577 241.634 213.949 240.986C214.333 240.326 214.525 239.564 214.525 238.7C214.525 237.836 214.333 237.08 213.949 236.432C213.577 235.772 213.037 235.268 212.329 234.92C211.633 234.56 210.823 234.38 209.899 234.38H206.839V243.02H209.899ZM221.026 236.792C221.674 235.784 222.814 235.28 224.446 235.28V237.422C224.254 237.386 224.08 237.368 223.924 237.368C223.048 237.368 222.364 237.626 221.872 238.142C221.38 238.646 221.134 239.378 221.134 240.338V245H218.884V235.388H221.026V236.792ZM230.317 245.126C229.345 245.126 228.469 244.916 227.689 244.496C226.909 244.076 226.297 243.494 225.853 242.75C225.421 241.994 225.205 241.142 225.205 240.194C225.205 239.246 225.421 238.4 225.853 237.656C226.297 236.912 226.909 236.33 227.689 235.91C228.469 235.49 229.345 235.28 230.317 235.28C231.301 235.28 232.183 235.49 232.963 235.91C233.743 236.33 234.349 236.912 234.781 237.656C235.225 238.4 235.447 239.246 235.447 240.194C235.447 241.142 235.225 241.994 234.781 242.75C234.349 243.494 233.743 244.076 232.963 244.496C232.183 244.916 231.301 245.126 230.317 245.126ZM230.317 243.2C231.145 243.2 231.829 242.924 232.369 242.372C232.909 241.82 233.179 241.094 233.179 240.194C233.179 239.294 232.909 238.568 232.369 238.016C231.829 237.464 231.145 237.188 230.317 237.188C229.489 237.188 228.805 237.464 228.265 238.016C227.737 238.568 227.473 239.294 227.473 240.194C227.473 241.094 227.737 241.82 228.265 242.372C228.805 242.924 229.489 243.2 230.317 243.2ZM242.656 235.28C243.592 235.28 244.426 235.484 245.158 235.892C245.902 236.3 246.484 236.876 246.904 237.62C247.324 238.364 247.534 239.222 247.534 240.194C247.534 241.166 247.324 242.03 246.904 242.786C246.484 243.53 245.902 244.106 245.158 244.514C244.426 244.922 243.592 245.126 242.656 245.126C241.36 245.126 240.334 244.694 239.578 243.83V248.492H237.328V235.388H239.47V236.648C239.842 236.192 240.298 235.85 240.838 235.622C241.39 235.394 241.996 235.28 242.656 235.28ZM242.404 243.2C243.232 243.2 243.91 242.924 244.438 242.372C244.978 241.82 245.248 241.094 245.248 240.194C245.248 239.294 244.978 238.568 244.438 238.016C243.91 237.464 243.232 237.188 242.404 237.188C241.864 237.188 241.378 237.314 240.946 237.566C240.514 237.806 240.172 238.154 239.92 238.61C239.668 239.066 239.542 239.594 239.542 240.194C239.542 240.794 239.668 241.322 239.92 241.778C240.172 242.234 240.514 242.588 240.946 242.84C241.378 243.08 241.864 243.2 242.404 243.2ZM258.009 233.336C257.061 233.336 256.587 233.852 256.587 234.884V235.46H259.233V237.26H256.659V245H254.409V237.26H252.825V235.46H254.409V234.848C254.409 233.816 254.709 233.006 255.309 232.418C255.909 231.818 256.755 231.518 257.847 231.518C258.711 231.518 259.389 231.692 259.881 232.04L259.251 233.732C258.867 233.468 258.453 233.336 258.009 233.336ZM262.185 235.388H264.435V245H262.185V235.388ZM263.319 233.804C262.911 233.804 262.569 233.678 262.293 233.426C262.017 233.162 261.879 232.838 261.879 232.454C261.879 232.07 262.017 231.752 262.293 231.5C262.569 231.236 262.911 231.104 263.319 231.104C263.727 231.104 264.069 231.23 264.345 231.482C264.621 231.722 264.759 232.028 264.759 232.4C264.759 232.796 264.621 233.132 264.345 233.408C264.081 233.672 263.739 233.804 263.319 233.804ZM267.122 231.644H269.372V245H267.122V231.644ZM281.091 240.248C281.091 240.404 281.079 240.626 281.055 240.914H273.513C273.645 241.622 273.987 242.186 274.539 242.606C275.103 243.014 275.799 243.218 276.627 243.218C277.683 243.218 278.553 242.87 279.237 242.174L280.443 243.56C280.011 244.076 279.465 244.466 278.805 244.73C278.145 244.994 277.401 245.126 276.573 245.126C275.517 245.126 274.587 244.916 273.783 244.496C272.979 244.076 272.355 243.494 271.911 242.75C271.479 241.994 271.263 241.142 271.263 240.194C271.263 239.258 271.473 238.418 271.893 237.674C272.325 236.918 272.919 236.33 273.675 235.91C274.431 235.49 275.283 235.28 276.231 235.28C277.167 235.28 278.001 235.49 278.733 235.91C279.477 236.318 280.053 236.9 280.461 237.656C280.881 238.4 281.091 239.264 281.091 240.248ZM276.231 237.08C275.511 237.08 274.899 237.296 274.395 237.728C273.903 238.148 273.603 238.712 273.495 239.42H278.949C278.853 238.724 278.559 238.16 278.067 237.728C277.575 237.296 276.963 237.08 276.231 237.08ZM285.952 245.126C285.172 245.126 284.41 245.024 283.666 244.82C282.922 244.616 282.328 244.358 281.884 244.046L282.748 242.336C283.18 242.624 283.696 242.858 284.296 243.038C284.908 243.206 285.508 243.29 286.096 243.29C287.44 243.29 288.112 242.936 288.112 242.228C288.112 241.892 287.938 241.658 287.59 241.526C287.254 241.394 286.708 241.268 285.952 241.148C285.16 241.028 284.512 240.89 284.008 240.734C283.516 240.578 283.084 240.308 282.712 239.924C282.352 239.528 282.172 238.982 282.172 238.286C282.172 237.374 282.55 236.648 283.306 236.108C284.074 235.556 285.106 235.28 286.402 235.28C287.062 235.28 287.722 235.358 288.382 235.514C289.042 235.658 289.582 235.856 290.002 236.108L289.138 237.818C288.322 237.338 287.404 237.098 286.384 237.098C285.724 237.098 285.22 237.2 284.872 237.404C284.536 237.596 284.368 237.854 284.368 238.178C284.368 238.538 284.548 238.796 284.908 238.952C285.28 239.096 285.85 239.234 286.618 239.366C287.386 239.486 288.016 239.624 288.508 239.78C289 239.936 289.42 240.2 289.768 240.572C290.128 240.944 290.308 241.472 290.308 242.156C290.308 243.056 289.918 243.776 289.138 244.316C288.358 244.856 287.296 245.126 285.952 245.126Z" fill="#5A5A75"/>
<path d="M138.721 277.128C137.591 277.128 136.572 276.883 135.665 276.392C134.759 275.891 134.044 275.203 133.521 274.328C133.009 273.453 132.753 272.477 132.753 271.4C132.753 270.323 133.009 269.347 133.521 268.472C134.044 267.597 134.759 266.915 135.665 266.424C136.572 265.923 137.591 265.672 138.721 265.672C139.841 265.672 140.855 265.923 141.761 266.424C142.668 266.915 143.377 267.597 143.889 268.472C144.401 269.336 144.657 270.312 144.657 271.4C144.657 272.488 144.401 273.469 143.889 274.344C143.377 275.208 142.668 275.891 141.761 276.392C140.855 276.883 139.841 277.128 138.721 277.128ZM138.721 275.704C139.543 275.704 140.279 275.517 140.929 275.144C141.591 274.771 142.108 274.259 142.481 273.608C142.865 272.947 143.057 272.211 143.057 271.4C143.057 270.589 142.865 269.859 142.481 269.208C142.108 268.547 141.591 268.029 140.929 267.656C140.279 267.283 139.543 267.096 138.721 267.096C137.9 267.096 137.153 267.283 136.481 267.656C135.82 268.029 135.297 268.547 134.913 269.208C134.54 269.859 134.353 270.589 134.353 271.4C134.353 272.211 134.54 272.947 134.913 273.608C135.297 274.259 135.82 274.771 136.481 275.144C137.153 275.517 137.9 275.704 138.721 275.704ZM148.031 269.944C148.297 269.453 148.692 269.08 149.215 268.824C149.737 268.568 150.372 268.44 151.119 268.44V269.928C151.033 269.917 150.916 269.912 150.767 269.912C149.935 269.912 149.279 270.163 148.799 270.664C148.329 271.155 148.095 271.859 148.095 272.776V277H146.559V268.52H148.031V269.944ZM161.274 268.44C162.096 268.44 162.832 268.621 163.482 268.984C164.133 269.347 164.64 269.853 165.002 270.504C165.376 271.155 165.562 271.907 165.562 272.76C165.562 273.613 165.376 274.371 165.002 275.032C164.64 275.683 164.133 276.189 163.482 276.552C162.832 276.915 162.096 277.096 161.274 277.096C160.645 277.096 160.069 276.973 159.546 276.728C159.024 276.483 158.592 276.125 158.25 275.656V277H156.778V265.128H158.314V269.8C158.656 269.352 159.082 269.016 159.594 268.792C160.106 268.557 160.666 268.44 161.274 268.44ZM161.146 275.752C161.69 275.752 162.176 275.629 162.602 275.384C163.04 275.128 163.381 274.776 163.626 274.328C163.882 273.869 164.01 273.347 164.01 272.76C164.01 272.173 163.882 271.656 163.626 271.208C163.381 270.749 163.04 270.397 162.602 270.152C162.176 269.907 161.69 269.784 161.146 269.784C160.613 269.784 160.128 269.907 159.69 270.152C159.253 270.397 158.912 270.749 158.666 271.208C158.421 271.656 158.298 272.173 158.298 272.76C158.298 273.347 158.421 273.869 158.666 274.328C158.912 274.776 159.253 275.128 159.69 275.384C160.128 275.629 160.613 275.752 161.146 275.752ZM168.836 269.944C169.103 269.453 169.498 269.08 170.02 268.824C170.543 268.568 171.178 268.44 171.924 268.44V269.928C171.839 269.917 171.722 269.912 171.572 269.912C170.74 269.912 170.084 270.163 169.604 270.664C169.135 271.155 168.9 271.859 168.9 272.776V277H167.364V268.52H168.836V269.944ZM177.051 277.096C176.209 277.096 175.451 276.909 174.779 276.536C174.107 276.163 173.579 275.651 173.195 275C172.822 274.339 172.635 273.592 172.635 272.76C172.635 271.928 172.822 271.187 173.195 270.536C173.579 269.875 174.107 269.363 174.779 269C175.451 268.627 176.209 268.44 177.051 268.44C177.894 268.44 178.646 268.627 179.307 269C179.979 269.363 180.502 269.875 180.875 270.536C181.259 271.187 181.451 271.928 181.451 272.76C181.451 273.592 181.259 274.339 180.875 275C180.502 275.651 179.979 276.163 179.307 276.536C178.646 276.909 177.894 277.096 177.051 277.096ZM177.051 275.752C177.595 275.752 178.081 275.629 178.507 275.384C178.945 275.128 179.286 274.776 179.531 274.328C179.777 273.869 179.899 273.347 179.899 272.76C179.899 272.173 179.777 271.656 179.531 271.208C179.286 270.749 178.945 270.397 178.507 270.152C178.081 269.907 177.595 269.784 177.051 269.784C176.507 269.784 176.017 269.907 175.579 270.152C175.153 270.397 174.811 270.749 174.555 271.208C174.31 271.656 174.187 272.173 174.187 272.76C174.187 273.347 174.31 273.869 174.555 274.328C174.811 274.776 175.153 275.128 175.579 275.384C176.017 275.629 176.507 275.752 177.051 275.752ZM195.853 268.52L192.685 277H191.213L188.765 270.568L186.285 277H184.813L181.661 268.52H183.117L185.581 275.272L188.141 268.52H189.437L191.949 275.304L194.477 268.52H195.853ZM199.415 277.096C198.721 277.096 198.055 277.005 197.415 276.824C196.775 276.632 196.273 276.392 195.911 276.104L196.551 274.888C196.924 275.155 197.377 275.368 197.911 275.528C198.444 275.688 198.983 275.768 199.527 275.768C200.871 275.768 201.543 275.384 201.543 274.616C201.543 274.36 201.452 274.157 201.271 274.008C201.089 273.859 200.86 273.752 200.583 273.688C200.316 273.613 199.932 273.533 199.431 273.448C198.748 273.341 198.188 273.219 197.751 273.08C197.324 272.941 196.956 272.707 196.647 272.376C196.337 272.045 196.183 271.581 196.183 270.984C196.183 270.216 196.503 269.603 197.143 269.144C197.783 268.675 198.641 268.44 199.719 268.44C200.284 268.44 200.849 268.509 201.415 268.648C201.98 268.787 202.444 268.973 202.807 269.208L202.151 270.424C201.457 269.976 200.641 269.752 199.703 269.752C199.052 269.752 198.556 269.859 198.215 270.072C197.873 270.285 197.703 270.568 197.703 270.92C197.703 271.197 197.799 271.416 197.991 271.576C198.183 271.736 198.417 271.853 198.695 271.928C198.983 272.003 199.383 272.088 199.895 272.184C200.577 272.301 201.127 272.429 201.543 272.568C201.969 272.696 202.332 272.92 202.631 273.24C202.929 273.56 203.079 274.008 203.079 274.584C203.079 275.352 202.748 275.965 202.087 276.424C201.436 276.872 200.545 277.096 199.415 277.096ZM212.342 272.808C212.342 272.925 212.332 273.08 212.31 273.272H205.43C205.526 274.019 205.852 274.621 206.406 275.08C206.972 275.528 207.67 275.752 208.502 275.752C209.516 275.752 210.332 275.411 210.95 274.728L211.798 275.72C211.414 276.168 210.934 276.509 210.358 276.744C209.793 276.979 209.158 277.096 208.454 277.096C207.558 277.096 206.764 276.915 206.07 276.552C205.377 276.179 204.838 275.661 204.454 275C204.081 274.339 203.894 273.592 203.894 272.76C203.894 271.939 204.076 271.197 204.438 270.536C204.812 269.875 205.318 269.363 205.958 269C206.609 268.627 207.34 268.44 208.15 268.44C208.961 268.44 209.681 268.627 210.31 269C210.95 269.363 211.446 269.875 211.798 270.536C212.161 271.197 212.342 271.955 212.342 272.808ZM208.15 269.736C207.414 269.736 206.796 269.96 206.294 270.408C205.804 270.856 205.516 271.443 205.43 272.168H210.87C210.785 271.453 210.492 270.872 209.99 270.424C209.5 269.965 208.886 269.736 208.15 269.736ZM222.9 276.504C222.676 276.696 222.399 276.845 222.068 276.952C221.737 277.048 221.396 277.096 221.044 277.096C220.191 277.096 219.529 276.867 219.06 276.408C218.591 275.949 218.356 275.293 218.356 274.44V269.784H216.916V268.52H218.356V266.664H219.892V268.52H222.324V269.784H219.892V274.376C219.892 274.835 220.004 275.187 220.228 275.432C220.463 275.677 220.793 275.8 221.22 275.8C221.689 275.8 222.089 275.667 222.42 275.4L222.9 276.504ZM227.788 277.096C226.945 277.096 226.188 276.909 225.516 276.536C224.844 276.163 224.316 275.651 223.932 275C223.558 274.339 223.372 273.592 223.372 272.76C223.372 271.928 223.558 271.187 223.932 270.536C224.316 269.875 224.844 269.363 225.516 269C226.188 268.627 226.945 268.44 227.788 268.44C228.63 268.44 229.382 268.627 230.044 269C230.716 269.363 231.238 269.875 231.612 270.536C231.996 271.187 232.188 271.928 232.188 272.76C232.188 273.592 231.996 274.339 231.612 275C231.238 275.651 230.716 276.163 230.044 276.536C229.382 276.909 228.63 277.096 227.788 277.096ZM227.788 275.752C228.332 275.752 228.817 275.629 229.244 275.384C229.681 275.128 230.022 274.776 230.268 274.328C230.513 273.869 230.636 273.347 230.636 272.76C230.636 272.173 230.513 271.656 230.268 271.208C230.022 270.749 229.681 270.397 229.244 270.152C228.817 269.907 228.332 269.784 227.788 269.784C227.244 269.784 226.753 269.907 226.316 270.152C225.889 270.397 225.548 270.749 225.292 271.208C225.046 271.656 224.924 272.173 224.924 272.76C224.924 273.347 225.046 273.869 225.292 274.328C225.548 274.776 225.889 275.128 226.316 275.384C226.753 275.629 227.244 275.752 227.788 275.752ZM245.873 268.52V277H244.417V275.72C244.107 276.157 243.697 276.499 243.185 276.744C242.683 276.979 242.134 277.096 241.537 277.096C240.406 277.096 239.515 276.787 238.865 276.168C238.214 275.539 237.889 274.616 237.889 273.4V268.52H239.425V273.224C239.425 274.045 239.622 274.669 240.017 275.096C240.411 275.512 240.977 275.72 241.713 275.72C242.523 275.72 243.163 275.475 243.633 274.984C244.102 274.493 244.337 273.8 244.337 272.904V268.52H245.873ZM252.973 268.44C253.794 268.44 254.53 268.621 255.181 268.984C255.832 269.347 256.338 269.853 256.701 270.504C257.074 271.155 257.261 271.907 257.261 272.76C257.261 273.613 257.074 274.371 256.701 275.032C256.338 275.683 255.832 276.189 255.181 276.552C254.53 276.915 253.794 277.096 252.973 277.096C252.365 277.096 251.805 276.979 251.293 276.744C250.792 276.509 250.365 276.168 250.013 275.72V280.104H248.477V268.52H249.949V269.864C250.29 269.395 250.722 269.043 251.245 268.808C251.768 268.563 252.344 268.44 252.973 268.44ZM252.845 275.752C253.389 275.752 253.874 275.629 254.301 275.384C254.738 275.128 255.08 274.776 255.325 274.328C255.581 273.869 255.709 273.347 255.709 272.76C255.709 272.173 255.581 271.656 255.325 271.208C255.08 270.749 254.738 270.397 254.301 270.152C253.874 269.907 253.389 269.784 252.845 269.784C252.312 269.784 251.826 269.912 251.389 270.168C250.962 270.413 250.621 270.76 250.365 271.208C250.12 271.656 249.997 272.173 249.997 272.76C249.997 273.347 250.12 273.869 250.365 274.328C250.61 274.776 250.952 275.128 251.389 275.384C251.826 275.629 252.312 275.752 252.845 275.752ZM259.063 265.128H260.599V277H259.063V265.128ZM266.844 277.096C266.001 277.096 265.244 276.909 264.572 276.536C263.9 276.163 263.372 275.651 262.988 275C262.615 274.339 262.428 273.592 262.428 272.76C262.428 271.928 262.615 271.187 262.988 270.536C263.372 269.875 263.9 269.363 264.572 269C265.244 268.627 266.001 268.44 266.844 268.44C267.687 268.44 268.439 268.627 269.1 269C269.772 269.363 270.295 269.875 270.668 270.536C271.052 271.187 271.244 271.928 271.244 272.76C271.244 273.592 271.052 274.339 270.668 275C270.295 275.651 269.772 276.163 269.1 276.536C268.439 276.909 267.687 277.096 266.844 277.096ZM266.844 275.752C267.388 275.752 267.873 275.629 268.3 275.384C268.737 275.128 269.079 274.776 269.324 274.328C269.569 273.869 269.692 273.347 269.692 272.76C269.692 272.173 269.569 271.656 269.324 271.208C269.079 270.749 268.737 270.397 268.3 270.152C267.873 269.907 267.388 269.784 266.844 269.784C266.3 269.784 265.809 269.907 265.372 270.152C264.945 270.397 264.604 270.749 264.348 271.208C264.103 271.656 263.98 272.173 263.98 272.76C263.98 273.347 264.103 273.869 264.348 274.328C264.604 274.776 264.945 275.128 265.372 275.384C265.809 275.629 266.3 275.752 266.844 275.752ZM276.058 268.44C277.231 268.44 278.127 268.728 278.746 269.304C279.375 269.88 279.69 270.739 279.69 271.88V277H278.234V275.88C277.978 276.275 277.61 276.579 277.13 276.792C276.661 276.995 276.101 277.096 275.45 277.096C274.501 277.096 273.738 276.867 273.162 276.408C272.597 275.949 272.314 275.347 272.314 274.6C272.314 273.853 272.586 273.256 273.13 272.808C273.674 272.349 274.538 272.12 275.722 272.12H278.154V271.816C278.154 271.155 277.962 270.648 277.578 270.296C277.194 269.944 276.629 269.768 275.882 269.768C275.381 269.768 274.89 269.853 274.41 270.024C273.93 270.184 273.525 270.403 273.194 270.68L272.554 269.528C272.991 269.176 273.514 268.909 274.122 268.728C274.73 268.536 275.375 268.44 276.058 268.44ZM275.706 275.912C276.293 275.912 276.799 275.784 277.226 275.528C277.653 275.261 277.962 274.888 278.154 274.408V273.224H275.786C274.485 273.224 273.834 273.661 273.834 274.536C273.834 274.963 273.999 275.299 274.33 275.544C274.661 275.789 275.119 275.912 275.706 275.912ZM290.259 265.128V277H288.787V275.656C288.446 276.125 288.014 276.483 287.491 276.728C286.969 276.973 286.393 277.096 285.763 277.096C284.942 277.096 284.206 276.915 283.555 276.552C282.905 276.189 282.393 275.683 282.019 275.032C281.657 274.371 281.475 273.613 281.475 272.76C281.475 271.907 281.657 271.155 282.019 270.504C282.393 269.853 282.905 269.347 283.555 268.984C284.206 268.621 284.942 268.44 285.763 268.44C286.371 268.44 286.931 268.557 287.443 268.792C287.955 269.016 288.382 269.352 288.723 269.8V265.128H290.259ZM285.891 275.752C286.425 275.752 286.91 275.629 287.347 275.384C287.785 275.128 288.126 274.776 288.371 274.328C288.617 273.869 288.739 273.347 288.739 272.76C288.739 272.173 288.617 271.656 288.371 271.208C288.126 270.749 287.785 270.397 287.347 270.152C286.91 269.907 286.425 269.784 285.891 269.784C285.347 269.784 284.857 269.907 284.419 270.152C283.993 270.397 283.651 270.749 283.395 271.208C283.15 271.656 283.027 272.173 283.027 272.76C283.027 273.347 283.15 273.869 283.395 274.328C283.651 274.776 283.993 275.128 284.419 275.384C284.857 275.629 285.347 275.752 285.891 275.752ZM293.214 277.096C292.915 277.096 292.659 276.995 292.446 276.792C292.232 276.579 292.126 276.312 292.126 275.992C292.126 275.683 292.232 275.427 292.446 275.224C292.659 275.011 292.915 274.904 293.214 274.904C293.512 274.904 293.763 275.005 293.966 275.208C294.168 275.411 294.27 275.672 294.27 275.992C294.27 276.312 294.163 276.579 293.95 276.792C293.747 276.995 293.502 277.096 293.214 277.096Z" fill="#999999"/>
<g clip-path="url(#clip0)">
<path d="M171.5 315C171.5 306.163 178.663 299 187.5 299H239.5C248.337 299 255.5 306.163 255.5 315C255.5 323.837 248.337 331 239.5 331H187.5C178.663 331 171.5 323.837 171.5 315Z" fill="#FFBC00"/>
<path d="M195.564 314.918C196.133 315.077 196.581 315.366 196.908 315.786C197.235 316.197 197.398 316.719 197.398 317.354C197.398 318.203 197.076 318.857 196.432 319.314C195.797 319.771 194.869 320 193.646 320H188.97V310.2H193.366C194.486 310.2 195.349 310.424 195.956 310.872C196.572 311.32 196.88 311.941 196.88 312.734C196.88 313.247 196.759 313.691 196.516 314.064C196.283 314.437 195.965 314.722 195.564 314.918ZM190.37 311.334V314.47H193.24C193.959 314.47 194.509 314.339 194.892 314.078C195.284 313.807 195.48 313.415 195.48 312.902C195.48 312.389 195.284 312.001 194.892 311.74C194.509 311.469 193.959 311.334 193.24 311.334H190.37ZM193.59 318.866C194.383 318.866 194.981 318.735 195.382 318.474C195.783 318.213 195.984 317.802 195.984 317.242C195.984 316.15 195.186 315.604 193.59 315.604H190.37V318.866H193.59ZM200.378 313.826C200.611 313.397 200.956 313.07 201.414 312.846C201.871 312.622 202.426 312.51 203.08 312.51V313.812C203.005 313.803 202.902 313.798 202.772 313.798C202.044 313.798 201.47 314.017 201.05 314.456C200.639 314.885 200.434 315.501 200.434 316.304V320H199.09V312.58H200.378V313.826ZM207.566 320.084C206.828 320.084 206.166 319.921 205.578 319.594C204.99 319.267 204.528 318.819 204.192 318.25C203.865 317.671 203.702 317.018 203.702 316.29C203.702 315.562 203.865 314.913 204.192 314.344C204.528 313.765 204.99 313.317 205.578 313C206.166 312.673 206.828 312.51 207.566 312.51C208.303 312.51 208.961 312.673 209.54 313C210.128 313.317 210.585 313.765 210.912 314.344C211.248 314.913 211.416 315.562 211.416 316.29C211.416 317.018 211.248 317.671 210.912 318.25C210.585 318.819 210.128 319.267 209.54 319.594C208.961 319.921 208.303 320.084 207.566 320.084ZM207.566 318.908C208.042 318.908 208.466 318.801 208.84 318.586C209.222 318.362 209.521 318.054 209.736 317.662C209.95 317.261 210.058 316.803 210.058 316.29C210.058 315.777 209.95 315.324 209.736 314.932C209.521 314.531 209.222 314.223 208.84 314.008C208.466 313.793 208.042 313.686 207.566 313.686C207.09 313.686 206.66 313.793 206.278 314.008C205.904 314.223 205.606 314.531 205.382 314.932C205.167 315.324 205.06 315.777 205.06 316.29C205.06 316.803 205.167 317.261 205.382 317.662C205.606 318.054 205.904 318.362 206.278 318.586C206.66 318.801 207.09 318.908 207.566 318.908ZM224.017 312.58L221.245 320H219.957L217.815 314.372L215.645 320H214.357L211.599 312.58H212.873L215.029 318.488L217.269 312.58H218.403L220.601 318.516L222.813 312.58H224.017ZM227.134 320.084C226.527 320.084 225.944 320.005 225.384 319.846C224.824 319.678 224.385 319.468 224.068 319.216L224.628 318.152C224.954 318.385 225.351 318.572 225.818 318.712C226.284 318.852 226.756 318.922 227.232 318.922C228.408 318.922 228.996 318.586 228.996 317.914C228.996 317.69 228.916 317.513 228.758 317.382C228.599 317.251 228.398 317.158 228.156 317.102C227.922 317.037 227.586 316.967 227.148 316.892C226.55 316.799 226.06 316.691 225.678 316.57C225.304 316.449 224.982 316.243 224.712 315.954C224.441 315.665 224.306 315.259 224.306 314.736C224.306 314.064 224.586 313.527 225.146 313.126C225.706 312.715 226.457 312.51 227.4 312.51C227.894 312.51 228.389 312.571 228.884 312.692C229.378 312.813 229.784 312.977 230.102 313.182L229.528 314.246C228.921 313.854 228.207 313.658 227.386 313.658C226.816 313.658 226.382 313.751 226.084 313.938C225.785 314.125 225.636 314.372 225.636 314.68C225.636 314.923 225.72 315.114 225.888 315.254C226.056 315.394 226.261 315.497 226.504 315.562C226.756 315.627 227.106 315.702 227.554 315.786C228.151 315.889 228.632 316.001 228.996 316.122C229.369 316.234 229.686 316.43 229.948 316.71C230.209 316.99 230.34 317.382 230.34 317.886C230.34 318.558 230.05 319.095 229.472 319.496C228.902 319.888 228.123 320.084 227.134 320.084ZM238.445 316.332C238.445 316.435 238.436 316.57 238.417 316.738H232.397C232.481 317.391 232.766 317.919 233.251 318.32C233.746 318.712 234.357 318.908 235.085 318.908C235.972 318.908 236.686 318.609 237.227 318.012L237.969 318.88C237.633 319.272 237.213 319.571 236.709 319.776C236.215 319.981 235.659 320.084 235.043 320.084C234.259 320.084 233.564 319.925 232.957 319.608C232.351 319.281 231.879 318.829 231.543 318.25C231.217 317.671 231.053 317.018 231.053 316.29C231.053 315.571 231.212 314.923 231.529 314.344C231.856 313.765 232.299 313.317 232.859 313C233.429 312.673 234.068 312.51 234.777 312.51C235.487 312.51 236.117 312.673 236.667 313C237.227 313.317 237.661 313.765 237.969 314.344C238.287 314.923 238.445 315.585 238.445 316.332ZM234.777 313.644C234.133 313.644 233.592 313.84 233.153 314.232C232.724 314.624 232.472 315.137 232.397 315.772H237.157C237.083 315.147 236.826 314.638 236.387 314.246C235.958 313.845 235.421 313.644 234.777 313.644Z" fill="black"/>
</g>
<path d="M157.5 129C157.5 124.582 161.082 121 165.5 121H210C212.761 121 215 123.239 215 126C215 128.761 217.239 131 220 131H264.5C268.918 131 272.5 134.582 272.5 139V205C272.5 209.418 268.918 213 264.5 213H165.5C161.082 213 157.5 209.418 157.5 205V129Z" fill="url(#paint0_linear)"/>
<path d="M152.315 106.486C151.865 104.323 153.253 102.205 155.416 101.754L225.904 87.0771L249.051 100.129L261.588 160.341C262.039 162.504 260.651 164.622 258.488 165.073L172.336 183.012C170.173 183.462 168.055 182.074 167.604 179.911L152.315 106.486Z" fill="url(#paint1_linear)"/>
<g filter="url(#filter0_d)">
<path d="M225.904 87.077L228.656 100.293C229.106 102.456 231.225 103.844 233.388 103.394L249.052 100.132L225.904 87.077Z" fill="url(#paint2_linear)"/>
</g>
<path d="M180.749 88.9428C181.147 86.7699 183.232 85.3314 185.404 85.7299L256.224 98.7159L272.74 119.532L261.647 180.028C261.249 182.201 259.164 183.639 256.991 183.241L170.434 167.369C168.261 166.97 166.823 164.886 167.221 162.713L180.749 88.9428Z" fill="url(#paint3_linear)"/>
<g filter="url(#filter1_d)">
<path d="M256.23 98.7084L253.795 111.987C253.397 114.16 254.835 116.244 257.008 116.643L272.746 119.529L256.23 98.7084Z" fill="url(#paint4_linear)"/>
</g>
<path d="M155.119 148.116C155.054 145.862 156.863 144 159.118 144H270.882C273.137 144 274.946 145.862 274.881 148.116L273.113 209.116C273.05 211.279 271.278 213 269.114 213H160.886C158.722 213 156.95 211.279 156.887 209.116L155.119 148.116Z" fill="#E5E5F3"/>
<circle cx="215" cy="213" r="141.5" stroke="#F7F7FB"/>
<circle cx="215" cy="213" r="150.5" stroke="#F7F7FB"/>
<circle cx="213.5" cy="213" r="158.5" stroke="#F7F7FB"/>
<defs>
<filter id="filter0_d" x="211.904" y="77.077" width="47.1474" height="40.4019" filterUnits="userSpaceOnUse" color-interpolation-filters="sRGB">
<feFlood flood-opacity="0" result="BackgroundImageFix"/>
<feColorMatrix in="SourceAlpha" type="matrix" values="0 0 0 0 0 0 0 0 0 0 0 0 0 0 0 0 0 0 127 0"/>
<feOffset dx="-2" dy="2"/>
<feGaussianBlur stdDeviation="6"/>
<feColorMatrix type="matrix" values="0 0 0 0 0 0 0 0 0 0 0 0 0 0 0 0 0 0 0.15 0"/>
<feBlend mode="normal" in2="BackgroundImageFix" result="effect1_dropShadow"/>
<feBlend mode="normal" in="SourceGraphic" in2="effect1_dropShadow" result="shape"/>
</filter>
<filter id="filter1_d" x="239.729" y="88.7084" width="43.0172" height="44.8202" filterUnits="userSpaceOnUse" color-interpolation-filters="sRGB">
<feFlood flood-opacity="0" result="BackgroundImageFix"/>
<feColorMatrix in="SourceAlpha" type="matrix" values="0 0 0 0 0 0 0 0 0 0 0 0 0 0 0 0 0 0 127 0"/>
<feOffset dx="-2" dy="2"/>
<feGaussianBlur stdDeviation="6"/>
<feColorMatrix type="matrix" values="0 0 0 0 0 0 0 0 0 0 0 0 0 0 0 0 0 0 0.15 0"/>
<feBlend mode="normal" in2="BackgroundImageFix" result="effect1_dropShadow"/>
<feBlend mode="normal" in="SourceGraphic" in2="effect1_dropShadow" result="shape"/>
</filter>
<linearGradient id="paint0_linear" x1="215" y1="127" x2="215" y2="213" gradientUnits="userSpaceOnUse">
<stop offset="0.0885417" stop-color="#D6D6F3"/>
<stop offset="0.369792" stop-color="#A8A8BC"/>
</linearGradient>
<linearGradient id="paint1_linear" x1="198.492" y1="92.7849" x2="215.412" y2="174.042" gradientUnits="userSpaceOnUse">
<stop stop-color="#AAD0FD"/>
<stop offset="1" stop-color="#7CAFDF"/>
</linearGradient>
<linearGradient id="paint2_linear" x1="236.51" y1="88.9545" x2="239.771" y2="104.618" gradientUnits="userSpaceOnUse">
<stop offset="0.270833" stop-color="#A7DDFC"/>
<stop offset="1" stop-color="#72A6D6"/>
</linearGradient>
<linearGradient id="paint3_linear" x1="228.683" y1="93.6658" x2="213.713" y2="175.305" gradientUnits="userSpaceOnUse">
<stop stop-color="#FDE7AA"/>
<stop offset="1" stop-color="#ECD38A"/>
</linearGradient>
<linearGradient id="paint4_linear" x1="265.345" y1="104.446" x2="262.459" y2="120.184" gradientUnits="userSpaceOnUse">
<stop offset="0.270833" stop-color="#FCE5A7"/>
<stop offset="1" stop-color="#E4CB84"/>
</linearGradient>
<clipPath id="clip0">
<path d="M171.5 315C171.5 306.163 178.663 299 187.5 299H239.5C248.337 299 255.5 306.163 255.5 315C255.5 323.837 248.337 331 239.5 331H187.5C178.663 331 171.5 323.837 171.5 315Z" fill="white"/>
</clipPath>
</defs>
</svg>
