<svg width="16" height="14" viewBox="0 0 16 14" fill="none" xmlns="http://www.w3.org/2000/svg">
<path d="M15.4469 1.88843H8.26591V0.558641C8.26591 0.417685 8.21006 0.282046 8.11033 0.182318C8.0106 0.0825836 7.87496 0.0267334 7.73401 0.0267334H1.35103C1.05714 0.0267334 0.819113 0.264759 0.819113 0.558648V1.88844H0.553155C0.259266 1.88844 0.0212402 2.12646 0.0212402 2.42035V13.0586C0.0212402 13.1996 0.0770904 13.3352 0.176825 13.435C0.276559 13.5347 0.412195 13.5906 0.553148 13.5906H15.4468C15.5877 13.5906 15.7234 13.5347 15.8231 13.435C15.9228 13.3352 15.9787 13.1996 15.9787 13.0586V2.42035C15.9787 2.27939 15.9228 2.14375 15.8231 2.04403C15.7234 1.94429 15.5877 1.88844 15.4468 1.88844L15.4469 1.88843ZM14.9149 12.5267H1.08515V2.95226H14.9149V12.5267Z" fill="#FFBC00"/>
<path d="M7.46808 5.57977V6.99201H6.05584C5.76195 6.99201 5.52393 7.23003 5.52393 7.52392C5.52393 7.81781 5.76195 8.05584 6.05584 8.05584H7.46808V9.46807C7.46808 9.76196 7.7061 9.99999 7.99999 9.99999C8.29388 9.99999 8.53191 9.76196 8.53191 9.46807V8.05584H9.94415C10.238 8.05584 10.4761 7.81781 10.4761 7.52392C10.4761 7.23003 10.238 6.99201 9.94415 6.99201H8.53191V5.57977C8.53191 5.28588 8.29388 5.04785 7.99999 5.04785C7.7061 5.04785 7.46808 5.28588 7.46808 5.57977Z" fill="#FFBC00"/>
</svg>
