<svg width="16" height="16" viewBox="0 0 16 16" fill="none" xmlns="http://www.w3.org/2000/svg">
<path d="M10.3537 11.7398C9.64784 11.3608 10.0246 10.6506 10.3537 10.3195C10.7773 9.89339 11.2952 8.42599 11.2952 8.42599C12.1423 8.04693 12.2367 7.43174 12.3302 7.00564C12.707 5.77436 11.7655 5.58528 11.7655 5.58528C11.7655 5.58528 12.5182 3.54975 11.9067 1.98736C11.1064 -0.0481797 7.85927 -0.806308 7.29456 1.0881C3.43596 0.235005 4.23537 5.58437 4.23537 5.58437C4.23537 5.58437 3.29388 5.77346 3.67066 7.00473C3.76507 7.43083 3.8586 8.04602 4.70567 8.42508C4.70567 8.42508 5.22363 9.89248 5.64716 10.3186C5.97628 10.6497 6.35306 11.3599 5.64716 11.7389C4.23537 12.4962 0 12.6861 0 16H16C16.0009 12.6861 11.7655 12.4971 10.3537 11.7398Z" fill="#FFBC00"/>
</svg>
