<?xml version="1.0" encoding="UTF-8"?>
<svg width="167px" height="167px" viewBox="0 0 167 167" version="1.1" xmlns="http://www.w3.org/2000/svg" xmlns:xlink="http://www.w3.org/1999/xlink">
    <defs>
        <polygon id="path-1" points="0 137.6964 138 137.6964 138 0 0 0"></polygon>
    </defs>
    <g id="Symbols" stroke="none" stroke-width="1" fill="none" fill-rule="evenodd">
        <g id="icon/Upload-icon-Copy">
            <g id="Group-6" transform="translate(15.000000, 15.000000)">
                <path d="M18.06489,123.89364 L119.93649,123.89364 L69.00069,22.02204 L18.06489,123.89364 Z M131.10069,137.69364 L6.90069,137.69364 C4.50639,137.69364 2.28459,136.45164 1.02879,134.42304 C-0.22011,132.38754 -0.33741,129.84834 0.72519,127.70934 L62.82519,3.50934 C65.16429,-1.16886 72.83019,-1.16886 75.16929,3.50934 L137.26929,127.70934 C138.33879,129.84834 138.22149,132.38754 136.96569,134.42304 C135.71679,136.45164 133.49499,137.69364 131.10069,137.69364 L131.10069,137.69364 Z" id="Fill-1" fill="currentColor"></path>
                <mask id="mask-2" fill="white">
                    <use xlink:href="#path-1"></use>
                </mask>
                <g id="Clip-4"></g>
                <g id="Group" fill="currentColor">
                    <g transform="translate(60.000000, 55.000000)">
                        <polygon id="Fill-3" points="1.59087047 38.165625 14.3127455 38.165625 14.3127455 3.60267371e-14 1.59087047 3.60267371e-14"></polygon>
                        <path d="M15.9023438,50.8875 C15.9023438,55.2765469 12.3402187,58.8386719 7.95117188,58.8386719 C3.562125,58.8386719 0,55.2765469 0,50.8875 C0,46.4984531 3.562125,42.9363281 7.95117188,42.9363281 C12.3402187,42.9363281 15.9023438,46.4984531 15.9023438,50.8875" id="Fill-5"></path>
                    </g>
                </g>
            </g>
        </g>
    </g>
</svg>
