<svg width="20" height="20" viewBox="0 0 20 20" fill="none" xmlns="http://www.w3.org/2000/svg">
<path fill-rule="evenodd" clip-rule="evenodd" d="M3 5.625C3 4.17525 4.17525 3 5.625 3H8.09722C8.47308 3 8.77777 3.3047 8.77777 3.68056C8.77777 4.05642 8.47308 4.36111 8.09722 4.36111H5.625C4.92697 4.36111 4.36111 4.92697 4.36111 5.625V14.375C4.36111 15.073 4.92697 15.6389 5.625 15.6389H14.375C15.073 15.6389 15.6389 15.073 15.6389 14.375V11.9028C15.6389 11.5269 15.9436 11.2222 16.3194 11.2222C16.6953 11.2222 17 11.5269 17 11.9028V14.375C17 15.8247 15.8247 17 14.375 17H5.625C4.17525 17 3 15.8247 3 14.375V5.625Z" fill="#999999"/>
<path fill-rule="evenodd" clip-rule="evenodd" d="M11.1019 3.68056C11.1019 3.3047 11.4066 3 11.7824 3H17V8.21759C17 8.59345 16.6953 8.89815 16.3195 8.89815C15.9436 8.89815 15.6389 8.59345 15.6389 8.21759V5.32356L9.67106 11.2914C9.40528 11.5572 8.97438 11.5572 8.70861 11.2914C8.44283 11.0256 8.44283 10.5947 8.70861 10.329L14.6765 4.36111H11.7824C11.4066 4.36111 11.1019 4.05642 11.1019 3.68056Z" fill="#999999"/>
</svg>
