<svg width="16" height="16" viewBox="0 0 16 16" fill="none" xmlns="http://www.w3.org/2000/svg">
<path fill-rule="evenodd" clip-rule="evenodd" d="M1 3.625C1 2.17525 2.17525 1 3.625 1H6.09722C6.47308 1 6.77777 1.3047 6.77777 1.68056C6.77777 2.05642 6.47308 2.36111 6.09722 2.36111H3.625C2.92697 2.36111 2.36111 2.92697 2.36111 3.625V12.375C2.36111 13.073 2.92697 13.6389 3.625 13.6389H12.375C13.073 13.6389 13.6389 13.073 13.6389 12.375V9.90277C13.6389 9.52691 13.9436 9.22222 14.3194 9.22222C14.6953 9.22222 15 9.52691 15 9.90277V12.375C15 13.8247 13.8247 15 12.375 15H3.625C2.17525 15 1 13.8247 1 12.375V3.625Z" fill="black"/>
<path fill-rule="evenodd" clip-rule="evenodd" d="M9.10187 1.68056C9.10187 1.3047 9.40656 1 9.78242 1H15V6.21759C15 6.59345 14.6953 6.89815 14.3195 6.89815C13.9436 6.89815 13.6389 6.59345 13.6389 6.21759V3.32356L7.67106 9.29141C7.40528 9.55718 6.97438 9.55718 6.70861 9.29141C6.44283 9.02563 6.44283 8.59473 6.70861 8.32896L12.6765 2.36111H9.78242C9.40656 2.36111 9.10187 2.05642 9.10187 1.68056Z" fill="black"/>
</svg>
