<svg width="16" height="16" viewBox="0 0 16 16" fill="none" xmlns="http://www.w3.org/2000/svg">
<path fill-rule="evenodd" clip-rule="evenodd" d="M15.3322 0H0.658436C0.483808 0 0.316332 0.0693707 0.192851 0.192851C0.0693707 0.316332 0 0.483808 0 0.658436V15.3322C0 15.6896 0.300999 15.9906 0.658436 15.9906H8.49383V9.98942H6.49971V7.49677H8.49383V5.49324C8.49383 3.42387 9.8107 2.4174 11.6449 2.4174C12.5291 2.4174 13.291 2.48325 13.5073 2.51146V4.6749H12.2281C11.231 4.6749 10.9959 5.14521 10.9959 5.84127V7.49677H13.4885L12.99 9.98942H11.0053L11.0429 15.9906H15.3322C15.4194 15.9918 15.506 15.9757 15.587 15.9432C15.668 15.9107 15.7417 15.8624 15.8038 15.8011C15.866 15.7398 15.9153 15.6668 15.949 15.5863C15.9827 15.5058 16 15.4194 16 15.3322V0.658436C16 0.483808 15.9306 0.316332 15.8071 0.192851C15.6837 0.0693707 15.5162 0 15.3416 0" fill="#FFFFFF"/>
</svg>
