<svg width="96" height="123" viewBox="0 0 96 133" fill="none">
<path d="M0.5 18C0.5 13.5817 4.08172 10 8.5 10H65.5L96.5 41V125C96.5 129.418 92.9183 133 88.5 133H8.5C4.08172 133 0.5 129.418 0.5 125V18Z" fill="url(#paint0_linear)"/>
<g filter="url(#filter0_d)">
<path d="M65.5 10V37C65.5 39.2091 67.2909 41 69.5 41H96.5L65.5 10Z" fill="url(#paint1_linear)"/>
</g>
<path fill-rule="evenodd" clip-rule="evenodd" d="M48.0298 60.0913C48.3314 59.9696 48.6686 59.9696 48.9702 60.0913L60.5 64.7462V77.2203C60.5 77.8774 60.1245 78.4766 59.5331 78.7631L48.5 84.1083L37.4669 78.7631C36.8756 78.4766 36.5 77.8774 36.5 77.2203V64.7462L48.0298 60.0913ZM48.5 62.2544L40.2802 65.573L48.5 69.5552L56.7198 65.573L48.5 62.2544ZM58.3182 67.223L49.5909 71.4511V81.1554L58.3182 76.9273V67.223ZM47.4091 81.1554V71.4511L38.6818 67.223V76.9273L47.4091 81.1554Z" fill="#AE881E"/>
<defs>
<filter id="filter0_d" x="51.5" y="0" width="55" height="55" filterUnits="userSpaceOnUse" color-interpolation-filters="sRGB">
<feFlood flood-opacity="0" result="BackgroundImageFix"/>
<feColorMatrix in="SourceAlpha" type="matrix" values="0 0 0 0 0 0 0 0 0 0 0 0 0 0 0 0 0 0 127 0"/>
<feOffset dx="-2" dy="2"/>
<feGaussianBlur stdDeviation="6"/>
<feColorMatrix type="matrix" values="0 0 0 0 0 0 0 0 0 0 0 0 0 0 0 0 0 0 0.15 0"/>
<feBlend mode="normal" in2="BackgroundImageFix" result="effect1_dropShadow"/>
<feBlend mode="normal" in="SourceGraphic" in2="effect1_dropShadow" result="shape"/>
</filter>
<linearGradient id="paint0_linear" x1="48.5" y1="10" x2="48.5" y2="133" gradientUnits="userSpaceOnUse">
<stop stop-color="#FDE7AA"/>
<stop offset="1" stop-color="#ECD38A"/>
</linearGradient>
<linearGradient id="paint1_linear" x1="81" y1="16.2" x2="81" y2="41" gradientUnits="userSpaceOnUse">
<stop offset="0.270833" stop-color="#FCE5A7"/>
<stop offset="1" stop-color="#E4CB84"/>
</linearGradient>
</defs>
</svg>
