<svg width="109" height="93" viewBox="0 0 109 93" fill="none" xmlns="http://www.w3.org/2000/svg">
<path d="M3 8C3 3.58172 6.58172 0 11 0H49.5C52.2614 0 54.5 2.23858 54.5 5C54.5 7.76142 56.7386 10 59.5 10H98C102.418 10 106 13.5817 106 18V84C106 88.4183 102.418 92 98 92H11C6.58172 92 3 88.4183 3 84V8Z" fill="url(#paint0_linear)"/>
<path d="M0.178769 27.1713C0.0813008 24.897 1.89875 23 4.1751 23H104.825C107.101 23 108.919 24.897 108.821 27.1713L106.164 89.1713C106.072 91.3118 104.31 93 102.168 93H6.83224C4.68972 93 2.92765 91.3118 2.83591 89.1713L0.178769 27.1713Z" fill="#E5E5F3"/>
<defs>
<linearGradient id="paint0_linear" x1="54.5" y1="6" x2="54.5" y2="92" gradientUnits="userSpaceOnUse">
<stop offset="0.0885417" stop-color="#D6D6F3"/>
<stop offset="0.369792" stop-color="#A8A8BC"/>
</linearGradient>
</defs>
</svg>
