<?xml version="1.0" encoding="UTF-8"?>
<svg width="40px" height="40px" viewBox="0 0 40 40" version="1.1" xmlns="http://www.w3.org/2000/svg" xmlns:xlink="http://www.w3.org/1999/xlink">
    <title>c5d6e181-120c-4f42-a754-d154deac5311@1.00x</title>
    <defs>
        <filter id="filter-1">
            <feColorMatrix in="SourceGraphic" type="matrix" values="0 0 0 0 0.858824 0 0 0 0 0.858824 0 0 0 0 0.874510 0 0 0 1.000000 0"></feColorMatrix>
        </filter>
    </defs>
    <g id="Symbols" stroke="none" stroke-width="1" fill="none" fill-rule="evenodd">
        <g id="icon/Gray-Circle-Users">
            <g id="Group-4">
                <circle id="Oval-Copy-12" fill="#7B7B82" cx="20" cy="20" r="20"></circle>
                <g filter="url(#filter-1)" id="Group-9">
                    <g transform="translate(10.000000, 13.000000)">
                        <path d="M13.5,1.5 C12.67275,1.5 12,2.172 12,3 C12,3.82725 12.67275,4.5 13.5,4.5 C14.32725,4.5 15,3.82725 15,3 C15,2.172 14.32725,1.5 13.5,1.5 M13.5,6 C11.8455,6 10.5,4.6545 10.5,3 C10.5,1.3455 11.8455,0 13.5,0 C15.1545,0 16.5,1.3455 16.5,3 C16.5,4.6545 15.1545,6 13.5,6" id="Fill-1" fill="#757575"></path>
                        <path d="M9.119025,10.5 L17.881275,10.5 C17.432025,9.144 15.755775,8.25 13.499775,8.25 C11.243775,8.25 9.567525,9.144 9.119025,10.5 L9.119025,10.5 Z M19.499775,12 L7.499775,12 L7.499775,11.25 C7.499775,8.60025 9.967275,6.75 13.499775,6.75 C17.033025,6.75 19.499775,8.60025 19.499775,11.25 L19.499775,12 Z" id="Fill-3" fill="#757575"></path>
                        <path d="M6,1.5 C5.17275,1.5 4.5,2.172 4.5,3 C4.5,3.82725 5.17275,4.5 6,4.5 C6.82725,4.5 7.5,3.82725 7.5,3 C7.5,2.172 6.82725,1.5 6,1.5 M6,6 C4.3455,6 3,4.6545 3,3 C3,1.3455 4.3455,0 6,0 C7.6545,0 9,1.3455 9,3 C9,4.6545 7.6545,6 6,6" id="Fill-5" fill="#757575"></path>
                        <path d="M5.625,11.25 C5.625,10.99425 5.6445,10.74525 5.67525,10.5 L1.61925,10.5 C2.06775,9.144 3.744,8.25 6,8.25 C6.15675,8.25 6.303,8.26425 6.45375,8.2725 C6.762,7.76475 7.152,7.3035 7.6095,6.89325 C7.10325,6.8025 6.567,6.75 6,6.75 C2.4675,6.75 0,8.60025 0,11.25 L0,12 L5.625,12 L5.625,11.25 Z" id="Fill-7" fill="#757575"></path>
                    </g>
                </g>
            </g>
        </g>
    </g>
</svg>