<svg width="218" height="24" viewBox="0 0 218 24" fill="none" xmlns="http://www.w3.org/2000/svg">
<path fill-rule="evenodd" clip-rule="evenodd" d="M103.533 17.275C102.01 17.275 100.549 16.67 99.4724 15.5931C98.3955 14.5162 97.7905 13.0555 97.7905 11.5325C97.7905 10.0095 98.3955 8.54889 99.4724 7.47196C100.549 6.39504 102.01 5.79002 103.533 5.79002C105.056 5.79002 106.517 6.39504 107.594 7.47196C108.67 8.54889 109.276 10.0095 109.276 11.5325C109.276 13.0555 108.67 14.5162 107.594 15.5931C106.517 16.67 105.056 17.275 103.533 17.275ZM103.533 2.34246e-05C97.163 -0.000976575 92 5.16302 92 11.532V23.065H103.533C109.902 23.065 115.065 17.902 115.065 11.533C115.066 5.16202 109.902 -0.000976562 103.533 -0.000976562" fill="#FFBC00"/>
<path fill-rule="evenodd" clip-rule="evenodd" d="M78.794 17.275C75.604 17.275 73.019 14.705 73.019 11.532C73.019 8.36203 75.605 5.79103 78.794 5.79103C81.983 5.79103 84.568 8.36103 84.568 11.532C84.568 14.704 81.983 17.275 78.794 17.275ZM55.599 17.275C52.409 17.275 49.824 14.705 49.824 11.532C49.824 8.36203 52.409 5.79103 55.599 5.79103C58.788 5.79103 61.373 8.36103 61.373 11.532C61.373 14.704 58.788 17.275 55.599 17.275ZM90.359 10.913C90.358 10.881 90.357 10.848 90.354 10.816C90.331 10.438 90.29 10.067 90.231 9.70003C90.227 9.68203 90.226 9.66203 90.222 9.64303C90.159 9.26103 90.077 8.88403 89.976 8.51503V8.51303C89.3032 6.06412 87.8442 3.9042 85.8236 2.3658C83.8029 0.827398 81.3326 -0.00419805 78.793 -0.000967184H55.598C49.781 -0.000967184 44.976 4.26703 44.143 9.82303L44.14 9.84703C44.087 10.202 44.052 10.561 44.033 10.925C44.032 10.945 44.028 10.963 44.027 10.983V11.033C44.02 11.199 44.002 11.363 44.002 11.533C44.002 11.742 44.022 11.946 44.034 12.153L44.038 12.249C44.062 12.626 44.103 12.999 44.162 13.366L44.171 13.421C45.079 18.89 49.843 23.065 55.6 23.065H90.391V11.533C90.391 11.323 90.371 11.119 90.36 10.913" fill="#7B7B82"/>
<path fill-rule="evenodd" clip-rule="evenodd" d="M127.362 18.6779V6.32448H123.064V4.16857H134.16V6.32448H129.73V18.6779H127.362ZM140.711 4.16857V10.3666H148.092V4.16857H150.376V18.6779H148.092V12.5225H140.711V18.6779H138.427V4.16857H140.711ZM159.794 10.0141L158.611 12.916H163.388L162.16 9.93133C161.954 9.4145 161.761 8.89288 161.58 8.36688L160.999 6.67697C160.791 7.25735 160.587 7.83772 160.387 8.41809C160.185 8.99846 159.988 9.53104 159.794 10.0141ZM165.732 18.6779L164.259 15.0719H157.72L156.246 18.6779H153.791L159.84 4.16857H162.295L168.3 18.6779H165.732ZM183.053 4.16857H185.369V18.6779H183.246L174.518 7.60984C174.603 8.45308 174.686 9.29206 174.765 10.1276C174.843 10.964 174.883 11.8039 174.883 12.6471V18.6779H172.567V4.16857H174.647L183.375 15.4653C183.241 14.3815 183.156 13.2922 183.119 12.2008C183.076 11.0332 183.054 9.94498 183.054 8.93701L183.053 4.16857ZM196.564 4.16857C197.425 4.16857 198.22 4.29062 198.951 4.53386C199.637 4.75518 200.288 5.07302 200.885 5.47782C201.444 5.8636 201.881 6.27839 202.196 6.72221L200.691 8.28836C200.129 7.7527 199.492 7.30135 198.8 6.94838C198.107 6.59647 197.34 6.41588 196.564 6.42178C195.546 6.42178 194.626 6.6582 193.802 7.13018C192.994 7.5859 192.323 8.2488 191.857 9.05053C191.384 9.85878 191.147 10.778 191.147 11.8073C191.147 12.8229 191.397 13.7456 191.9 14.5752C192.39 15.3943 193.082 16.0742 193.91 16.5501C194.741 17.0342 195.688 17.2859 196.65 17.279C197.367 17.279 198.041 17.1399 198.671 16.8608C199.301 16.5817 199.814 16.1985 200.207 15.7129C200.601 15.2264 200.799 14.6682 200.799 14.04V13.9103H196.521V11.6153H203.185C203.214 11.8295 203.239 12.0446 203.261 12.2588C203.281 12.4739 203.292 12.6881 203.292 12.9032C203.292 13.6892 203.175 14.4616 202.938 15.2204C202.717 15.9508 202.339 16.6242 201.831 17.1937C201.258 17.9097 200.516 18.4782 199.605 18.8998C198.696 19.3214 197.689 19.5322 196.586 19.5322C195.539 19.5405 194.502 19.34 193.534 18.9425C192.605 18.5607 191.758 18.0035 191.04 17.3012C190.325 16.6027 189.758 15.7669 189.374 14.844C188.979 13.9077 188.783 12.8955 188.783 11.8081C188.783 10.7217 188.979 9.7171 189.374 8.79363C189.759 7.88379 190.322 7.05981 191.029 6.36972C191.743 5.67264 192.587 5.12203 193.512 4.74894C194.482 4.35812 195.519 4.16038 196.564 4.16857ZM207.732 14.2986C208.333 15.1479 208.961 15.8059 209.613 16.2727C210.266 16.7405 211.113 16.9735 212.155 16.9735C212.653 16.9735 213.131 16.8958 213.585 16.737C214.04 16.5783 214.413 16.3487 214.707 16.0457C215.001 15.7444 215.147 15.3843 215.147 14.9678C215.147 14.2483 214.836 13.6875 214.212 13.2847C213.589 12.8818 212.712 12.5729 211.583 12.3569C210.145 12.0693 209.001 11.5692 208.15 10.8574C207.3 10.1456 206.874 9.11368 206.874 7.76176C206.874 6.89803 207.119 6.15122 207.611 5.51708C208.103 4.8855 208.751 4.39645 209.559 4.05079C210.387 3.70121 211.278 3.5249 212.177 3.53272C213.394 3.53272 214.443 3.76316 215.323 4.22405C216.186 4.6678 216.904 5.3489 217.392 6.18707L215.719 7.80529C215.341 7.17718 214.831 6.63941 214.223 6.22974C213.621 5.8269 212.917 5.62547 212.111 5.62547C211.304 5.62547 210.626 5.80897 210.075 6.17598C209.525 6.54298 209.25 7.04909 209.25 7.69689C209.25 8.43004 209.54 8.96603 210.12 9.30401C210.699 9.64199 211.465 9.9117 212.419 10.1131C213.284 10.2864 214.106 10.5518 214.884 10.9111C215.66 11.2713 216.295 11.7356 216.787 12.3023C217.278 12.8716 217.523 13.5587 217.523 14.3635C217.523 15.8016 217.024 16.9453 216.027 17.7937C215.03 18.6429 213.658 19.0671 211.913 19.0671C210.725 19.0671 209.642 18.8366 208.668 18.3757C207.691 17.9157 206.838 17.1681 206.104 16.1328L207.732 14.2986Z"/>
<path fill-rule="evenodd" clip-rule="evenodd" d="M127.362 18.6779V6.32448H123.064V4.16857H134.16V6.32448H129.73V18.6779H127.362ZM140.711 4.16857V10.3666H148.092V4.16857H150.376V18.6779H148.092V12.5225H140.711V18.6779H138.427V4.16857H140.711ZM159.794 10.0141L158.611 12.916H163.388L162.16 9.93133C161.954 9.4145 161.761 8.89288 161.58 8.36688L160.999 6.67697C160.791 7.25735 160.587 7.83772 160.387 8.41809C160.185 8.99846 159.988 9.53104 159.794 10.0141ZM165.732 18.6779L164.259 15.0719H157.72L156.246 18.6779H153.791L159.84 4.16857H162.295L168.3 18.6779H165.732ZM183.053 4.16857H185.369V18.6779H183.246L174.518 7.60984C174.603 8.45308 174.686 9.29206 174.765 10.1276C174.843 10.964 174.883 11.8039 174.883 12.6471V18.6779H172.567V4.16857H174.647L183.375 15.4653C183.241 14.3815 183.156 13.2922 183.119 12.2008C183.076 11.0332 183.054 9.94498 183.054 8.93701L183.053 4.16857ZM196.564 4.16857C197.425 4.16857 198.22 4.29062 198.951 4.53386C199.637 4.75518 200.288 5.07302 200.885 5.47782C201.444 5.8636 201.881 6.27839 202.196 6.72221L200.691 8.28836C200.129 7.7527 199.492 7.30135 198.8 6.94838C198.107 6.59647 197.34 6.41588 196.564 6.42178C195.546 6.42178 194.626 6.6582 193.802 7.13018C192.994 7.5859 192.323 8.2488 191.857 9.05053C191.384 9.85878 191.147 10.778 191.147 11.8073C191.147 12.8229 191.397 13.7456 191.9 14.5752C192.39 15.3943 193.082 16.0742 193.91 16.5501C194.741 17.0342 195.688 17.2859 196.65 17.279C197.367 17.279 198.041 17.1399 198.671 16.8608C199.301 16.5817 199.814 16.1985 200.207 15.7129C200.601 15.2264 200.799 14.6682 200.799 14.04V13.9103H196.521V11.6153H203.185C203.214 11.8295 203.239 12.0446 203.261 12.2588C203.281 12.4739 203.292 12.6881 203.292 12.9032C203.292 13.6892 203.175 14.4616 202.938 15.2204C202.717 15.9508 202.339 16.6242 201.831 17.1937C201.258 17.9097 200.516 18.4782 199.605 18.8998C198.696 19.3214 197.689 19.5322 196.586 19.5322C195.539 19.5405 194.502 19.34 193.534 18.9425C192.605 18.5607 191.758 18.0035 191.04 17.3012C190.325 16.6027 189.758 15.7669 189.374 14.844C188.979 13.9077 188.783 12.8955 188.783 11.8081C188.783 10.7217 188.979 9.7171 189.374 8.79363C189.759 7.88379 190.322 7.05981 191.029 6.36972C191.743 5.67264 192.587 5.12203 193.512 4.74894C194.482 4.35812 195.519 4.16038 196.564 4.16857ZM207.732 14.2986C208.333 15.1479 208.961 15.8059 209.613 16.2727C210.266 16.7405 211.113 16.9735 212.155 16.9735C212.653 16.9735 213.131 16.8958 213.585 16.737C214.04 16.5783 214.413 16.3487 214.707 16.0457C215.001 15.7444 215.147 15.3843 215.147 14.9678C215.147 14.2483 214.836 13.6875 214.212 13.2847C213.589 12.8818 212.712 12.5729 211.583 12.3569C210.145 12.0693 209.001 11.5692 208.15 10.8574C207.3 10.1456 206.874 9.11368 206.874 7.76176C206.874 6.89803 207.119 6.15122 207.611 5.51708C208.103 4.8855 208.751 4.39645 209.559 4.05079C210.387 3.70121 211.278 3.5249 212.177 3.53272C213.394 3.53272 214.443 3.76316 215.323 4.22405C216.186 4.6678 216.904 5.3489 217.392 6.18707L215.719 7.80529C215.341 7.17718 214.831 6.63941 214.223 6.22974C213.621 5.8269 212.917 5.62547 212.111 5.62547C211.304 5.62547 210.626 5.80897 210.075 6.17598C209.525 6.54298 209.25 7.04909 209.25 7.69689C209.25 8.43004 209.54 8.96603 210.12 9.30401C210.699 9.64199 211.465 9.9117 212.419 10.1131C213.284 10.2864 214.106 10.5518 214.884 10.9111C215.66 11.2713 216.295 11.7356 216.787 12.3023C217.278 12.8716 217.523 13.5587 217.523 14.3635C217.523 15.8016 217.024 16.9453 216.027 17.7937C215.03 18.6429 213.658 19.0671 211.913 19.0671C210.725 19.0671 209.642 18.8366 208.668 18.3757C207.691 17.9157 206.838 17.1681 206.104 16.1328L207.732 14.2986Z" fill="#7B7B82"/>
<path fill-rule="evenodd" clip-rule="evenodd" d="M127.362 18.6779V6.32448H123.064V4.16857H134.16V6.32448H129.73V18.6779H127.362ZM140.711 4.16857V10.3666H148.092V4.16857H150.376V18.6779H148.092V12.5225H140.711V18.6779H138.427V4.16857H140.711ZM159.794 10.0141L158.611 12.916H163.388L162.16 9.93133C161.954 9.4145 161.761 8.89288 161.58 8.36688L160.999 6.67697C160.791 7.25735 160.587 7.83772 160.387 8.41809C160.185 8.99846 159.988 9.53104 159.794 10.0141ZM165.732 18.6779L164.259 15.0719H157.72L156.246 18.6779H153.791L159.84 4.16857H162.295L168.3 18.6779H165.732ZM183.053 4.16857H185.369V18.6779H183.246L174.518 7.60984C174.603 8.45308 174.686 9.29206 174.765 10.1276C174.843 10.964 174.883 11.8039 174.883 12.6471V18.6779H172.567V4.16857H174.647L183.375 15.4653C183.241 14.3815 183.156 13.2922 183.119 12.2008C183.076 11.0332 183.054 9.94498 183.054 8.93701L183.053 4.16857ZM196.564 4.16857C197.425 4.16857 198.22 4.29062 198.951 4.53386C199.637 4.75518 200.288 5.07302 200.885 5.47782C201.444 5.8636 201.881 6.27839 202.196 6.72221L200.691 8.28836C200.129 7.7527 199.492 7.30135 198.8 6.94838C198.107 6.59647 197.34 6.41588 196.564 6.42178C195.546 6.42178 194.626 6.6582 193.802 7.13018C192.994 7.5859 192.323 8.2488 191.857 9.05053C191.384 9.85878 191.147 10.778 191.147 11.8073C191.147 12.8229 191.397 13.7456 191.9 14.5752C192.39 15.3943 193.082 16.0742 193.91 16.5501C194.741 17.0342 195.688 17.2859 196.65 17.279C197.367 17.279 198.041 17.1399 198.671 16.8608C199.301 16.5817 199.814 16.1985 200.207 15.7129C200.601 15.2264 200.799 14.6682 200.799 14.04V13.9103H196.521V11.6153H203.185C203.214 11.8295 203.239 12.0446 203.261 12.2588C203.281 12.4739 203.292 12.6881 203.292 12.9032C203.292 13.6892 203.175 14.4616 202.938 15.2204C202.717 15.9508 202.339 16.6242 201.831 17.1937C201.258 17.9097 200.516 18.4782 199.605 18.8998C198.696 19.3214 197.689 19.5322 196.586 19.5322C195.539 19.5405 194.502 19.34 193.534 18.9425C192.605 18.5607 191.758 18.0035 191.04 17.3012C190.325 16.6027 189.758 15.7669 189.374 14.844C188.979 13.9077 188.783 12.8955 188.783 11.8081C188.783 10.7217 188.979 9.7171 189.374 8.79363C189.759 7.88379 190.322 7.05981 191.029 6.36972C191.743 5.67264 192.587 5.12203 193.512 4.74894C194.482 4.35812 195.519 4.16038 196.564 4.16857ZM207.732 14.2986C208.333 15.1479 208.961 15.8059 209.613 16.2727C210.266 16.7405 211.113 16.9735 212.155 16.9735C212.653 16.9735 213.131 16.8958 213.585 16.737C214.04 16.5783 214.413 16.3487 214.707 16.0457C215.001 15.7444 215.147 15.3843 215.147 14.9678C215.147 14.2483 214.836 13.6875 214.212 13.2847C213.589 12.8818 212.712 12.5729 211.583 12.3569C210.145 12.0693 209.001 11.5692 208.15 10.8574C207.3 10.1456 206.874 9.11368 206.874 7.76176C206.874 6.89803 207.119 6.15122 207.611 5.51708C208.103 4.8855 208.751 4.39645 209.559 4.05079C210.387 3.70121 211.278 3.5249 212.177 3.53272C213.394 3.53272 214.443 3.76316 215.323 4.22405C216.186 4.6678 216.904 5.3489 217.392 6.18707L215.719 7.80529C215.341 7.17718 214.831 6.63941 214.223 6.22974C213.621 5.8269 212.917 5.62547 212.111 5.62547C211.304 5.62547 210.626 5.80897 210.075 6.17598C209.525 6.54298 209.25 7.04909 209.25 7.69689C209.25 8.43004 209.54 8.96603 210.12 9.30401C210.699 9.64199 211.465 9.9117 212.419 10.1131C213.284 10.2864 214.106 10.5518 214.884 10.9111C215.66 11.2713 216.295 11.7356 216.787 12.3023C217.278 12.8716 217.523 13.5587 217.523 14.3635C217.523 15.8016 217.024 16.9453 216.027 17.7937C215.03 18.6429 213.658 19.0671 211.913 19.0671C210.725 19.0671 209.642 18.8366 208.668 18.3757C207.691 17.9157 206.838 17.1681 206.104 16.1328L207.732 14.2986Z" stroke="#7B7B82" stroke-width="0.4" mask="url(#path-5-outside-1)"/>
<path d="M4.56 11.296C3.64267 11.296 3.184 11.792 3.184 12.784V13.52H5.648V14.784H3.216V22H1.68V14.784H0.24V13.52H1.68V12.768C1.68 11.9253 1.92533 11.2587 2.416 10.768C2.90667 10.2773 3.59467 10.032 4.48 10.032C4.82133 10.032 5.14133 10.0747 5.44 10.16C5.73867 10.2453 5.99467 10.368 6.208 10.528L5.744 11.696C5.392 11.4293 4.99733 11.296 4.56 11.296ZM9.52988 14.944C9.79654 14.4533 10.1912 14.08 10.7139 13.824C11.2365 13.568 11.8712 13.44 12.6179 13.44V14.928C12.5325 14.9173 12.4152 14.912 12.2659 14.912C11.4339 14.912 10.7779 15.1627 10.2979 15.664C9.82854 16.1547 9.59387 16.8587 9.59387 17.776V22H8.05787V13.52H9.52988V14.944ZM17.7449 22.096C16.9022 22.096 16.1449 21.9093 15.4729 21.536C14.8009 21.1627 14.2729 20.6507 13.8889 20C13.5155 19.3387 13.3289 18.592 13.3289 17.76C13.3289 16.928 13.5155 16.1867 13.8889 15.536C14.2729 14.8747 14.8009 14.3627 15.4729 14C16.1449 13.6267 16.9022 13.44 17.7449 13.44C18.5875 13.44 19.3395 13.6267 20.0009 14C20.6729 14.3627 21.1955 14.8747 21.5689 15.536C21.9529 16.1867 22.1449 16.928 22.1449 17.76C22.1449 18.592 21.9529 19.3387 21.5689 20C21.1955 20.6507 20.6729 21.1627 20.0009 21.536C19.3395 21.9093 18.5875 22.096 17.7449 22.096ZM17.7449 20.752C18.2889 20.752 18.7742 20.6293 19.2009 20.384C19.6382 20.128 19.9795 19.776 20.2249 19.328C20.4702 18.8693 20.5929 18.3467 20.5929 17.76C20.5929 17.1733 20.4702 16.656 20.2249 16.208C19.9795 15.7493 19.6382 15.3973 19.2009 15.152C18.7742 14.9067 18.2889 14.784 17.7449 14.784C17.2009 14.784 16.7102 14.9067 16.2729 15.152C15.8462 15.3973 15.5049 15.7493 15.2489 16.208C15.0035 16.656 14.8809 17.1733 14.8809 17.76C14.8809 18.3467 15.0035 18.8693 15.2489 19.328C15.5049 19.776 15.8462 20.128 16.2729 20.384C16.7102 20.6293 17.2009 20.752 17.7449 20.752ZM34.5571 13.44C35.6238 13.44 36.4665 13.7493 37.0851 14.368C37.7145 14.9867 38.0291 15.904 38.0291 17.12V22H36.4931V17.296C36.4931 16.4747 36.3011 15.856 35.9171 15.44C35.5438 15.024 35.0051 14.816 34.3011 14.816C33.5225 14.816 32.9038 15.0613 32.4451 15.552C31.9865 16.032 31.7571 16.7253 31.7571 17.632V22H30.2211V17.296C30.2211 16.4747 30.0291 15.856 29.6451 15.44C29.2718 15.024 28.7331 14.816 28.0291 14.816C27.2505 14.816 26.6318 15.0613 26.1731 15.552C25.7145 16.032 25.4851 16.7253 25.4851 17.632V22H23.9491V13.52H25.4211V14.784C25.7305 14.3467 26.1358 14.016 26.6371 13.792C27.1385 13.5573 27.7091 13.44 28.3491 13.44C29.0105 13.44 29.5971 13.5733 30.1091 13.84C30.6211 14.1067 31.0158 14.496 31.2931 15.008C31.6131 14.5173 32.0558 14.1333 32.6211 13.856C33.1971 13.5787 33.8425 13.44 34.5571 13.44Z" fill="#999999"/>
</svg>
