<svg width="611" height="96" viewBox="0 0 611 96" fill="none" xmlns="http://www.w3.org/2000/svg">
<path fill-rule="evenodd" clip-rule="evenodd" d="M485.464 97.8109C485.464 93.0841 481.674 89.2522 477 89.2522C472.325 89.2522 468.535 93.0841 468.535 97.8109C468.535 102.538 472.325 106.369 477 106.369C481.674 106.369 485.464 102.538 485.464 97.8109ZM485.464 59.1891C485.464 54.4623 481.674 50.6304 477 50.6304C472.326 50.6304 468.536 54.4623 468.536 59.1891C468.536 63.9159 472.326 67.7478 477 67.7478C481.674 67.7478 485.464 63.9159 485.464 59.1891ZM476.088 114.954C476.04 114.951 475.992 114.95 475.944 114.947C475.387 114.911 474.84 114.851 474.299 114.763C474.271 114.758 474.244 114.754 474.216 114.75C473.651 114.655 473.096 114.534 472.552 114.386C472.551 114.386 472.55 114.385 472.549 114.385C465.322 112.403 460 105.744 460 97.8109V97.8018V97.7927V59.7531V59.7511V59.1891C460 50.5638 466.289 43.4438 474.479 42.2099C474.491 42.2078 474.504 42.2058 474.516 42.2038C475.039 42.1261 475.568 42.0737 476.104 42.0454C476.132 42.0444 476.16 42.0383 476.189 42.0373C476.213 42.0363 476.238 42.0383 476.262 42.0373C476.509 42.0262 476.751 42 477 42C477.309 42 477.61 42.0303 477.915 42.0464C477.961 42.0484 478.008 42.0504 478.054 42.0535C478.612 42.0888 479.162 42.1503 479.704 42.2371C479.729 42.2421 479.756 42.2452 479.783 42.2502C487.845 43.5951 494 50.6566 494 59.1891V59.1982V59.2073V115H477C476.692 115 476.391 114.97 476.088 114.954Z" fill="#31313C"/>
<path fill-rule="evenodd" clip-rule="evenodd" d="M477 11.5362C472.324 11.5362 468.535 15.3258 468.535 20.0005C468.535 24.6742 472.324 28.4648 477 28.4648C481.675 28.4648 485.464 24.6742 485.464 20.0005C485.464 15.3258 481.675 11.5362 477 11.5362ZM477 37C467.611 37 460 29.3888 460 20.0005V3H477C486.389 3 494 10.6112 494 20.0005C494 29.3888 486.389 37 477 37Z" fill="#31313C"/>
<path fill-rule="evenodd" clip-rule="evenodd" d="M447.464 96.9995C447.464 92.3248 443.674 88.5352 439 88.5352C434.325 88.5352 430.535 92.3248 430.535 96.9995C430.535 101.674 434.325 105.464 439 105.464C443.674 105.464 447.464 101.674 447.464 96.9995ZM422 96.9995C422 87.6112 429.611 80 439 80H456V96.9995C456 106.389 448.389 114 439 114C429.611 114 422 106.389 422 96.9995Z" fill="#31313C"/>
<path fill-rule="evenodd" clip-rule="evenodd" d="M284 88.5352C279.325 88.5352 275.536 92.3248 275.536 96.9995C275.536 101.674 279.325 105.464 284 105.464C288.675 105.464 292.464 101.674 292.464 96.9995C292.464 92.3248 288.675 88.5352 284 88.5352ZM284 114C274.611 114 267 106.389 267 96.9995V80H284C293.389 80 301 87.6112 301 96.9995C301 106.389 293.389 114 284 114Z" fill="#31313C"/>
<path fill-rule="evenodd" clip-rule="evenodd" d="M246 88.5352C241.324 88.5352 237.535 92.3248 237.535 96.9995C237.535 101.674 241.324 105.464 246 105.464C250.675 105.464 254.464 101.674 254.464 96.9995C254.464 92.3248 250.675 88.5352 246 88.5352ZM246 114C236.611 114 229 106.389 229 96.9995V80H246C255.389 80 263 87.6112 263 96.9995C263 106.389 255.389 114 246 114Z" fill="#31313C"/>
<path fill-rule="evenodd" clip-rule="evenodd" d="M400 50.6304C395.325 50.6304 391.536 54.4623 391.536 59.1881C391.536 63.9149 395.325 67.7468 400 67.7468C404.675 67.7468 408.464 63.9149 408.464 59.1881C408.464 54.4623 404.675 50.6304 400 50.6304ZM400 89.2522C395.325 89.2522 391.536 93.0841 391.536 97.8109C391.536 102.538 395.325 106.37 400 106.37C404.675 106.37 408.464 102.538 408.464 97.8109C408.464 93.0841 404.675 89.2522 400 89.2522ZM400 42H417V97.7927C417 97.7957 416.999 97.7978 416.999 97.8008C416.999 97.8038 417 97.8079 417 97.8109C417 106.343 410.845 113.405 402.783 114.75C402.756 114.755 402.729 114.758 402.704 114.762C402.162 114.85 401.612 114.911 401.055 114.947C401.008 114.95 400.961 114.951 400.914 114.953C400.609 114.97 400.31 115 400 115C399.751 115 399.51 114.973 399.263 114.963C399.237 114.961 399.214 114.964 399.19 114.963C399.16 114.961 399.133 114.956 399.104 114.955C398.568 114.926 398.039 114.874 397.517 114.796C397.504 114.794 397.491 114.792 397.48 114.79C389.29 113.555 383.001 106.436 383.001 97.8109V97.2489C383.001 97.2479 383 97.2479 383 97.2469V59.2073C383 59.2042 383.001 59.2012 383.001 59.1972V59.1891V59.1881C383.001 51.2559 388.323 44.596 395.548 42.6154C395.549 42.6154 395.551 42.6144 395.552 42.6144C396.097 42.4651 396.651 42.344 397.216 42.2502C397.243 42.2452 397.271 42.2421 397.299 42.2371C397.84 42.1493 398.388 42.0878 398.944 42.0535C398.991 42.0504 399.04 42.0484 399.088 42.0464C399.392 42.0303 399.691 42 400 42Z" fill="#31313C"/>
<path fill-rule="evenodd" clip-rule="evenodd" d="M353.536 20.1891C353.536 24.9159 357.326 28.7479 362 28.7479C366.674 28.7479 370.464 24.9159 370.464 20.1891C370.464 15.4623 366.674 11.6314 362 11.6314C357.326 11.6314 353.536 15.4623 353.536 20.1891ZM353.536 58.8109C353.536 63.5377 357.326 67.3696 362 67.3696C366.674 67.3696 370.464 63.5377 370.464 58.8109C370.464 54.0841 366.674 50.2521 362 50.2521C357.326 50.2521 353.536 54.0841 353.536 58.8109ZM362.912 3.04641C362.96 3.04944 363.008 3.05045 363.056 3.05448C363.613 3.08879 364.16 3.14932 364.701 3.2371C364.728 3.24214 364.756 3.24618 364.784 3.25021C365.349 3.34505 365.904 3.46612 366.448 3.61444C366.449 3.61444 366.45 3.61545 366.451 3.61646C373.678 5.59698 379 12.2559 379 20.1891V20.1982V20.2073V58.2479V58.2489V58.8109C379 67.4362 372.711 74.5562 364.521 75.7912C364.508 75.7922 364.496 75.7942 364.484 75.7962C363.961 75.8739 363.432 75.9263 362.896 75.9546C362.868 75.9556 362.84 75.9617 362.811 75.9627C362.787 75.9647 362.762 75.9617 362.738 75.9627C362.491 75.9738 362.249 76 362 76C361.691 76 361.39 75.9697 361.085 75.9536C361.039 75.9516 360.992 75.9496 360.946 75.9465C360.387 75.9122 359.838 75.8507 359.296 75.7629C359.271 75.7579 359.244 75.7548 359.217 75.7498C351.154 74.4049 345 67.3434 345 58.8109V58.8018V58.7927V3H362C362.308 3 362.609 3.03027 362.912 3.04641Z" fill="#31313C"/>
<path fill-rule="evenodd" clip-rule="evenodd" d="M284.189 67.4638C288.916 67.4638 292.747 63.6742 292.747 58.9995C292.747 54.3248 288.916 50.5352 284.189 50.5352C279.462 50.5352 275.631 54.3248 275.631 58.9995C275.631 63.6742 279.462 67.4638 284.189 67.4638ZM322.811 67.4638C327.538 67.4638 331.37 63.6742 331.37 58.9995C331.37 54.3258 327.538 50.5362 322.811 50.5362C318.084 50.5362 314.252 54.3258 314.252 58.9995C314.252 63.6742 318.084 67.4638 322.811 67.4638ZM267.046 58.0865C267.049 58.0386 267.05 57.9907 267.055 57.9428C267.089 57.3871 267.149 56.8393 267.237 56.2995C267.242 56.2705 267.245 56.2426 267.25 56.2146C267.345 55.6499 267.466 55.0961 267.614 54.5523C267.614 54.5503 267.615 54.5493 267.615 54.5483C269.596 47.3223 276.257 42 284.189 42C284.192 42 284.195 42 284.198 42C284.201 42 284.204 42 284.208 42H322.248H322.249H322.811C331.436 42 338.556 48.2891 339.79 56.4791C339.792 56.491 339.794 56.503 339.796 56.516C339.874 57.0378 339.926 57.5677 339.955 58.1035C339.956 58.1324 339.961 58.1604 339.963 58.1893C339.964 58.2132 339.961 58.2372 339.963 58.2621C339.974 58.5086 340 58.751 340 58.9995C340 59.3088 339.97 59.6092 339.954 59.9145L339.948 60.0542C339.911 60.6119 339.851 61.1607 339.763 61.7025C339.758 61.7295 339.755 61.7564 339.75 61.7824C338.405 69.8446 331.343 76 322.811 76C322.808 76 322.804 75.999 322.802 75.999C322.799 75.999 322.796 76 322.793 76H267V58.9995C267 58.6912 267.03 58.3908 267.046 58.0865Z" fill="#31313C"/>
<path fill-rule="evenodd" clip-rule="evenodd" d="M168.189 67.4638C172.916 67.4638 176.747 63.6742 176.747 58.9995C176.747 54.3248 172.916 50.5352 168.189 50.5352C163.462 50.5352 159.631 54.3248 159.631 58.9995C159.631 63.6742 163.462 67.4638 168.189 67.4638ZM206.811 67.4638C211.538 67.4638 215.37 63.6742 215.37 58.9995C215.37 54.3258 211.538 50.5362 206.811 50.5362C202.084 50.5362 198.252 54.3258 198.252 58.9995C198.252 63.6742 202.084 67.4638 206.811 67.4638ZM151.046 58.0865C151.049 58.0386 151.05 57.9907 151.053 57.9428C151.089 57.3871 151.149 56.8393 151.236 56.2995C151.241 56.2705 151.245 56.2426 151.25 56.2146C151.345 55.6499 151.466 55.0961 151.614 54.5523C151.614 54.5503 151.614 54.5493 151.615 54.5483C153.596 47.3223 160.256 42 168.189 42C168.192 42 168.195 42 168.198 42C168.201 42 168.204 42 168.207 42H206.247H206.249H206.811C215.435 42 222.556 48.2891 223.79 56.4791C223.792 56.491 223.794 56.503 223.796 56.516C223.873 57.0378 223.925 57.5677 223.954 58.1035C223.956 58.1324 223.961 58.1604 223.963 58.1893C223.964 58.2132 223.961 58.2372 223.962 58.2621C223.974 58.5086 224 58.751 224 58.9995C224 59.3088 223.97 59.6092 223.954 59.9145C223.952 59.9604 223.95 60.0073 223.947 60.0542C223.911 60.6119 223.85 61.1607 223.763 61.7025C223.758 61.7295 223.755 61.7564 223.75 61.7824C222.404 69.8446 215.343 76 206.811 76C206.807 76 206.804 75.999 206.802 75.999C206.799 75.999 206.796 76 206.793 76H151V58.9995C151 58.6912 151.029 58.3908 151.046 58.0865Z" fill="#31313C"/>
<path fill-rule="evenodd" clip-rule="evenodd" d="M361.811 88.5362C357.084 88.5362 353.253 92.3258 353.253 97.0005C353.253 101.675 357.084 105.464 361.811 105.464C366.538 105.464 370.369 101.675 370.369 97.0005C370.369 92.3258 366.538 88.5362 361.811 88.5362ZM323.19 88.5362C318.462 88.5362 314.63 92.3258 314.63 97.0005C314.63 101.675 318.462 105.464 323.19 105.464C327.916 105.464 331.748 101.675 331.748 97.0005C331.748 92.3258 327.916 88.5362 323.19 88.5362ZM378.954 97.9135C378.951 97.9614 378.95 98.0093 378.947 98.0572C378.911 98.6129 378.851 99.1607 378.764 99.7005C378.759 99.7285 378.755 99.7574 378.75 99.7854C378.656 100.349 378.535 100.904 378.386 101.448C378.386 101.449 378.386 101.451 378.385 101.452C376.404 108.678 369.744 114 361.811 114C361.808 114 361.806 114 361.802 114C361.799 114 361.796 114 361.793 114H323.753H323.751H323.19C314.565 114 307.444 107.711 306.21 99.5209C306.208 99.509 306.206 99.496 306.204 99.484C306.127 98.9622 306.075 98.4323 306.046 97.8955C306.044 97.8676 306.039 97.8397 306.037 97.8107C306.036 97.7868 306.039 97.7628 306.038 97.7379C306.027 97.4914 306 97.2489 306 97.0005C306 96.6912 306.03 96.3908 306.046 96.0855C306.049 96.0386 306.05 95.9917 306.053 95.9458C306.089 95.3881 306.15 94.8393 306.237 94.2975C306.242 94.2705 306.245 94.2436 306.25 94.2166C307.596 86.1554 314.657 80 323.19 80C323.193 80 323.196 80.001 323.198 80.001C323.201 80.001 323.204 80 323.207 80H379V97.0005C379 97.3088 378.971 97.6092 378.954 97.9135Z" fill="#31313C"/>
<path fill-rule="evenodd" clip-rule="evenodd" d="M246 67.3687C250.675 67.3687 254.464 63.5369 254.464 58.8111C254.464 54.0844 250.675 50.2525 246 50.2525C241.324 50.2525 237.535 54.0844 237.535 58.8111C237.535 63.5369 241.324 67.3687 246 67.3687ZM246 28.7475C250.675 28.7475 254.464 24.9156 254.464 20.1889C254.464 15.4621 250.675 11.6303 246 11.6303C241.324 11.6303 237.535 15.4621 237.535 20.1889C237.535 24.9156 241.324 28.7475 246 28.7475ZM246 76H229V20.208V20.199V20.1889C229 11.6565 235.155 4.5961 243.217 3.25021C243.243 3.24517 243.271 3.24214 243.297 3.2381C243.839 3.15033 244.387 3.08878 244.944 3.05347C244.991 3.05045 245.038 3.04944 245.085 3.04742C245.39 3.03027 245.691 3 246 3C246.248 3 246.491 3.02724 246.737 3.03834C246.762 3.03935 246.786 3.03632 246.81 3.03733C246.84 3.03935 246.867 3.04439 246.895 3.04641C247.433 3.07466 247.962 3.12611 248.484 3.2038C248.497 3.20582 248.509 3.20784 248.521 3.20985C256.711 4.44477 263 11.5647 263 20.1889V20.7508V20.7529V58.793V58.802V58.8101V58.8111C263 66.7432 257.678 73.4031 250.451 75.3836C250.45 75.3846 250.449 75.3846 250.448 75.3846C249.903 75.5339 249.349 75.6549 248.785 75.7498C248.757 75.7538 248.728 75.7579 248.701 75.7619C248.16 75.8497 247.612 75.9112 247.057 75.9455C247.009 75.9485 246.961 75.9506 246.913 75.9526C246.609 75.9697 246.308 76 246 76Z" fill="#31313C"/>
<mask id="mask0" mask-type="alpha" maskUnits="userSpaceOnUse" x="267" y="0" width="35" height="38">
<g style="mix-blend-mode:lighten" opacity="0.147461">
<g style="mix-blend-mode:lighten" opacity="0.147461">
<path d="M301.684 0.799072H267.61V37.6412H301.684V0.799072Z" fill="white"/>
</g>
</g>
</mask>
<g mask="url(#mask0)">
<g style="mix-blend-mode:lighten" opacity="0.147461">
<path fill-rule="evenodd" clip-rule="evenodd" d="M284.647 -27.8831C279.962 -27.8831 276.165 -23.9825 276.165 -19.1719C276.165 -14.3603 279.962 -10.4596 284.647 -10.4596C289.333 -10.4596 293.13 -14.3603 293.13 -19.1719C293.13 -23.9825 289.333 -27.8831 284.647 -27.8831ZM284.647 11.4314C279.962 11.4314 276.165 15.3321 276.165 20.1437C276.165 24.9553 279.962 28.856 284.647 28.856C289.333 28.856 293.13 24.9553 293.13 20.1437C293.13 15.3321 289.333 11.4314 284.647 11.4314ZM284.647 -36.6683H301.684V20.1252V20.1334V20.1437C301.684 28.8293 295.516 36.0174 287.436 37.3865C287.41 37.3916 287.382 37.3947 287.356 37.3988C286.813 37.4882 286.263 37.5508 285.705 37.5867C285.658 37.5898 285.611 37.5909 285.564 37.5939C285.258 37.6104 284.957 37.6412 284.647 37.6412C284.398 37.6412 284.155 37.6134 283.908 37.6032C283.883 37.6021 283.859 37.6042 283.835 37.6032C283.806 37.6021 283.778 37.596 283.75 37.595C283.211 37.5662 282.681 37.5128 282.158 37.4337C282.145 37.4317 282.133 37.4296 282.121 37.4276C273.913 36.1715 267.61 28.9238 267.61 20.1437V19.5717V19.5696V-19.1524C267.61 -19.1555 267.611 -19.1586 267.611 -19.1616C267.611 -19.1657 267.61 -19.1678 267.61 -19.1709V-19.1719C267.61 -27.2464 272.944 -34.0248 280.186 -36.0418C280.187 -36.0418 280.188 -36.0429 280.19 -36.0429C280.735 -36.1949 281.291 -36.3181 281.856 -36.4136C281.884 -36.4188 281.913 -36.4218 281.94 -36.427C282.482 -36.5163 283.031 -36.578 283.588 -36.6139C283.636 -36.617 283.684 -36.619 283.732 -36.6211C284.037 -36.6375 284.338 -36.6683 284.647 -36.6683Z" fill="#31313C"/>
</g>
</g>
<path fill-rule="evenodd" clip-rule="evenodd" d="M439 50.5354C434.325 50.5354 430.536 54.3252 430.536 59C430.536 63.6748 434.325 67.4646 439 67.4646C443.675 67.4646 447.464 63.6748 447.464 59C447.464 54.3252 443.675 50.5354 439 50.5354ZM439 76C429.612 76 422 68.3896 422 59V42H439C448.389 42 456 49.6114 456 59C456 68.3896 448.389 76 439 76Z" fill="#31313C"/>
<path fill-rule="evenodd" clip-rule="evenodd" d="M331.464 19.9995C331.464 15.3248 327.674 11.5352 323 11.5352C318.326 11.5352 314.536 15.3248 314.536 19.9995C314.536 24.6742 318.326 28.4638 323 28.4638C327.674 28.4638 331.464 24.6742 331.464 19.9995ZM306 19.9995C306 10.6112 313.611 3 323 3H340V19.9995C340 29.3888 332.389 37 323 37C313.611 37 306 29.3888 306 19.9995Z" fill="#31313C"/>
<mask id="mask1" mask-type="alpha" maskUnits="userSpaceOnUse" x="190" y="0" width="35" height="38">
<g style="mix-blend-mode:lighten" opacity="0.147461">
<g style="mix-blend-mode:lighten" opacity="0.147461">
<path d="M224.197 0.799072H190.122V37.6041H224.197V0.799072Z" fill="white"/>
</g>
</g>
</mask>
<g mask="url(#mask1)">
<g style="mix-blend-mode:lighten" opacity="0.147461">
<path fill-rule="evenodd" clip-rule="evenodd" d="M207.16 28.8189C211.845 28.8189 215.642 24.9182 215.642 20.1076C215.642 15.296 211.845 11.3954 207.16 11.3954C202.474 11.3954 198.677 15.296 198.677 20.1076C198.677 24.9182 202.474 28.8189 207.16 28.8189ZM207.16 -10.4957C211.845 -10.4957 215.642 -14.3964 215.642 -19.208C215.642 -24.0196 211.845 -27.9203 207.16 -27.9203C202.474 -27.9203 198.677 -24.0196 198.677 -19.208C198.677 -14.3964 202.474 -10.4957 207.16 -10.4957ZM207.16 37.6041H190.122V-19.1895C190.122 -19.1926 190.123 -19.1946 190.123 -19.1977C190.123 -19.2008 190.122 -19.2049 190.122 -19.208C190.122 -27.8936 196.291 -35.0817 204.371 -36.4507C204.397 -36.4559 204.424 -36.459 204.451 -36.4631C204.994 -36.5524 205.544 -36.6151 206.102 -36.651C206.149 -36.6541 206.196 -36.6551 206.243 -36.6572C206.549 -36.6746 206.85 -36.7054 207.16 -36.7054C207.409 -36.7054 207.652 -36.6777 207.899 -36.6674C207.924 -36.6654 207.947 -36.6685 207.972 -36.6674C208.001 -36.6654 208.028 -36.6603 208.057 -36.6582C208.596 -36.6305 209.126 -36.5771 209.649 -36.498C209.661 -36.4959 209.674 -36.4939 209.686 -36.4918C217.894 -35.2347 224.197 -27.988 224.197 -19.208V-18.6359V-18.6339V20.0881C224.197 20.0912 224.196 20.0943 224.196 20.0984C224.196 20.1015 224.197 20.1035 224.197 20.1066V20.1076C224.197 28.1821 218.863 34.9615 211.621 36.9776C211.62 36.9776 211.618 36.9786 211.617 36.9786C211.072 37.1306 210.516 37.2539 209.951 37.3494C209.923 37.3545 209.894 37.3576 209.866 37.3627C209.325 37.4521 208.775 37.5147 208.219 37.5496C208.171 37.5527 208.123 37.5548 208.075 37.5568C207.769 37.5733 207.469 37.6041 207.16 37.6041Z" fill="#31313C"/>
</g>
</g>
<path fill-rule="evenodd" clip-rule="evenodd" d="M167 28.4638C171.675 28.4638 175.465 24.6742 175.465 19.9995C175.465 15.3258 171.675 11.5362 167 11.5362C162.325 11.5362 158.535 15.3258 158.535 19.9995C158.535 24.6742 162.325 28.4638 167 28.4638ZM167 3C176.389 3 184 10.6112 184 19.9995V37H167C157.61 37 150 29.3888 150 19.9995C150 10.6112 157.61 3 167 3Z" fill="#31313C"/>
<mask id="mask2" mask-type="alpha" maskUnits="userSpaceOnUse" x="576" y="0" width="35" height="38">
<g style="mix-blend-mode:lighten" opacity="0.147461">
<g style="mix-blend-mode:lighten" opacity="0.147461">
<path d="M610.426 0.799072H576.351V37.7053H610.426V0.799072Z" fill="white"/>
</g>
</g>
</mask>
<g mask="url(#mask2)">
<g style="mix-blend-mode:lighten" opacity="0.147461">
<path fill-rule="evenodd" clip-rule="evenodd" d="M584.906 -19.1078C584.906 -14.2961 588.704 -10.3955 593.388 -10.3955C598.074 -10.3955 601.872 -14.2961 601.872 -19.1078C601.872 -23.9184 598.074 -27.819 593.388 -27.819C588.704 -27.819 584.906 -23.9184 584.906 -19.1078ZM584.906 20.2068C584.906 25.0185 588.704 28.9191 593.388 28.9191C598.074 28.9191 601.872 25.0185 601.872 20.2068C601.872 15.3952 598.074 11.4946 593.388 11.4946C588.704 11.4946 584.906 15.3952 584.906 20.2068ZM594.303 -36.558C594.351 -36.5549 594.399 -36.5528 594.447 -36.5498C595.005 -36.5148 595.553 -36.4522 596.095 -36.3639C596.124 -36.3587 596.152 -36.3546 596.179 -36.3505C596.746 -36.254 597.301 -36.1307 597.846 -35.9787C597.847 -35.9787 597.848 -35.9787 597.85 -35.9777C605.092 -33.9617 610.426 -27.1823 610.426 -19.1078V-19.1067V-19.0985V-19.0883V19.6338V19.6348V20.2068C610.426 28.9869 604.123 36.2346 595.915 37.4917C595.903 37.4927 595.89 37.4958 595.878 37.4979C595.354 37.5759 594.824 37.6293 594.287 37.6581C594.258 37.6601 594.23 37.6653 594.201 37.6673C594.177 37.6683 594.153 37.6653 594.128 37.6663C593.881 37.6776 593.638 37.7053 593.388 37.7053C593.079 37.7053 592.777 37.6745 592.472 37.657C592.426 37.655 592.379 37.6529 592.332 37.6509C591.773 37.6149 591.222 37.5523 590.679 37.464C590.653 37.4588 590.627 37.4547 590.599 37.4506C582.52 36.0806 576.351 28.8934 576.351 20.2068C576.351 20.2037 576.352 20.2007 576.352 20.1976C576.352 20.1955 576.351 20.1914 576.351 20.1883V-36.6052H593.388C593.698 -36.6052 593.999 -36.5744 594.303 -36.558Z" fill="#31313C"/>
</g>
</g>
<path fill-rule="evenodd" clip-rule="evenodd" d="M438.811 11.5362C434.083 11.5362 430.252 15.3258 430.252 20.0005C430.252 24.6752 434.083 28.4648 438.811 28.4648C443.538 28.4648 447.369 24.6752 447.369 20.0005C447.369 15.3258 443.538 11.5362 438.811 11.5362ZM400.189 11.5362C395.462 11.5362 391.629 15.3258 391.629 20.0005C391.629 24.6742 395.462 28.4648 400.189 28.4648C404.915 28.4648 408.748 24.6742 408.748 20.0005C408.748 15.3258 404.915 11.5362 400.189 11.5362ZM455.954 20.9135C455.951 20.9614 455.949 21.0093 455.945 21.0572C455.911 21.6129 455.851 22.1607 455.763 22.7005C455.758 22.7295 455.754 22.7574 455.75 22.7854C455.655 23.3501 455.534 23.9039 455.386 24.4477C455.386 24.4497 455.385 24.4507 455.385 24.4517C453.403 31.6777 446.743 37 438.811 37H438.81C438.808 37 438.805 37 438.802 37C438.799 37 438.795 37 438.792 37H400.752H400.75H400.189C391.564 37 384.444 30.7109 383.21 22.5209C383.208 22.509 383.206 22.497 383.204 22.484C383.126 21.9622 383.074 21.4323 383.045 20.8965C383.044 20.8676 383.038 20.8396 383.037 20.8107C383.036 20.7868 383.038 20.7628 383.037 20.7379C383.026 20.4914 383 20.249 383 20.0005C383 19.6912 383.03 19.3908 383.046 19.0855C383.048 19.0396 383.05 18.9927 383.052 18.9458C383.089 18.3881 383.149 17.8393 383.237 17.2975C383.242 17.2705 383.245 17.2436 383.25 17.2176C384.595 9.15542 391.657 3 400.189 3C400.192 3 400.195 3.001 400.198 3.001C400.2 3.001 400.204 3 400.207 3H456V20.0005C456 20.3088 455.97 20.6092 455.954 20.9135Z" fill="#31313C"/>
<path fill-rule="evenodd" clip-rule="evenodd" d="M584.535 98.1891C584.535 102.916 588.325 106.748 593 106.748C597.674 106.748 601.464 102.916 601.464 98.1891C601.464 93.4623 597.674 89.6314 593 89.6314C588.325 89.6314 584.535 93.4623 584.535 98.1891ZM584.535 136.811C584.535 141.538 588.325 145.37 593 145.37C597.674 145.37 601.464 141.538 601.464 136.811C601.464 132.084 597.674 128.252 593 128.252C588.325 128.252 584.535 132.084 584.535 136.811ZM593.912 81.0464C593.96 81.0494 594.008 81.0504 594.056 81.0545C594.613 81.0888 595.16 81.1493 595.701 81.2371C595.728 81.2421 595.756 81.2462 595.784 81.2502C596.349 81.3451 596.904 81.4661 597.447 81.6144C597.449 81.6144 597.45 81.6154 597.451 81.6165C604.678 83.597 610 90.2559 610 98.1891C610 98.1921 609.999 98.1952 609.999 98.1982C609.999 98.2012 610 98.2042 610 98.2073V136.248V136.249V136.811C610 145.436 603.711 152.556 595.521 153.791C595.508 153.792 595.496 153.794 595.484 153.796C594.961 153.874 594.432 153.926 593.896 153.955C593.868 153.956 593.839 153.962 593.811 153.963C593.786 153.965 593.762 153.962 593.738 153.963C593.491 153.974 593.248 154 593 154C592.691 154 592.39 153.97 592.085 153.954C592.039 153.952 591.992 153.95 591.945 153.947C591.387 153.912 590.838 153.851 590.296 153.763C590.271 153.758 590.244 153.755 590.217 153.75C582.154 152.405 576 145.343 576 136.811V136.802V136.793V81H593C593.308 81 593.609 81.0303 593.912 81.0464Z" fill="#31313C"/>
<path fill-rule="evenodd" clip-rule="evenodd" d="M169 88.5352C164.325 88.5352 160.536 92.3248 160.536 96.9995C160.536 101.674 164.325 105.464 169 105.464C173.675 105.464 177.464 101.674 177.464 96.9995C177.464 92.3248 173.675 88.5352 169 88.5352ZM169 114C159.612 114 152 106.389 152 96.9995V80H169C178.389 80 186 87.6112 186 96.9995C186 106.389 178.389 114 169 114Z" fill="#31313C"/>
<path fill-rule="evenodd" clip-rule="evenodd" d="M207 89.6304C202.325 89.6304 198.536 93.4623 198.536 98.1881C198.536 102.916 202.325 106.747 207 106.747C211.675 106.747 215.464 102.916 215.464 98.1881C215.464 93.4623 211.675 89.6304 207 89.6304ZM207 128.252C202.325 128.252 198.536 132.084 198.536 136.811C198.536 141.538 202.325 145.37 207 145.37C211.675 145.37 215.464 141.538 215.464 136.811C215.464 132.084 211.675 128.252 207 128.252ZM207 81H224V136.792C224 136.796 223.999 136.799 223.999 136.801C223.999 136.804 224 136.807 224 136.811C224 145.343 217.845 152.404 209.783 153.75C209.756 153.755 209.729 153.758 209.704 153.762C209.162 153.85 208.612 153.911 208.055 153.947C208.008 153.95 207.961 153.951 207.914 153.953C207.609 153.97 207.31 154 207 154C206.751 154 206.509 153.973 206.263 153.962C206.237 153.961 206.214 153.964 206.19 153.963C206.16 153.961 206.133 153.956 206.104 153.954C205.567 153.926 205.039 153.874 204.517 153.796C204.504 153.794 204.491 153.792 204.48 153.79C196.29 152.555 190.001 145.436 190.001 136.811V136.249C190.001 136.248 190 136.248 190 136.247V98.2063C190 98.2042 190.001 98.2012 190.001 98.1972V98.1891V98.1881C190.001 90.2559 195.323 83.596 202.548 81.6154C202.549 81.6144 202.551 81.6144 202.552 81.6144C203.096 81.4651 203.651 81.344 204.216 81.2492C204.243 81.2452 204.271 81.2411 204.299 81.2371C204.84 81.1493 205.388 81.0878 205.944 81.0535C205.991 81.0504 206.04 81.0484 206.088 81.0464C206.392 81.0293 206.691 81 207 81Z" fill="#31313C"/>
<path fill-rule="evenodd" clip-rule="evenodd" d="M563.464 58.8109C563.464 54.0841 559.674 50.2521 555 50.2521C550.325 50.2521 546.536 54.0841 546.536 58.8109C546.536 63.5377 550.325 67.3686 555 67.3686C559.674 67.3686 563.464 63.5377 563.464 58.8109ZM563.464 20.1891C563.464 15.4623 559.674 11.6304 555 11.6304C550.326 11.6304 546.536 15.4623 546.536 20.1891C546.536 24.9159 550.326 28.7479 555 28.7479C559.674 28.7479 563.464 24.9159 563.464 20.1891ZM554.088 75.9536C554.04 75.9506 553.992 75.9496 553.944 75.9465C553.387 75.9112 552.84 75.8507 552.299 75.7629C552.271 75.7579 552.244 75.7538 552.216 75.7498C551.651 75.6549 551.096 75.5339 550.552 75.3856C550.551 75.3856 550.55 75.3846 550.549 75.3846C543.322 73.403 538 66.7441 538 58.8109V58.8018V58.7927V20.7521V20.7511V20.1891C538 11.5638 544.289 4.44378 552.479 3.20885C552.492 3.20784 552.504 3.20582 552.516 3.2038C553.039 3.12612 553.568 3.07365 554.104 3.0454C554.132 3.04439 554.16 3.03834 554.189 3.03733C554.213 3.03632 554.238 3.03834 554.262 3.03733C554.509 3.02623 554.751 3 555 3C555.309 3 555.61 3.03027 555.915 3.04641C555.961 3.04843 556.008 3.05045 556.054 3.05347C556.612 3.08778 557.162 3.15033 557.704 3.2371C557.729 3.24214 557.756 3.24517 557.783 3.25021C565.845 4.59512 572 11.6566 572 20.1891V20.1982V20.2073V76H555C554.692 76 554.391 75.9697 554.088 75.9536Z" fill="#31313C"/>
<path fill-rule="evenodd" clip-rule="evenodd" d="M507.631 97C507.631 101.675 511.463 105.465 516.189 105.465C520.916 105.465 524.747 101.675 524.747 97C524.747 92.3252 520.916 88.5354 516.189 88.5354C511.463 88.5354 507.631 92.3252 507.631 97ZM546.252 97C546.252 101.675 550.083 105.465 554.811 105.465C559.537 105.465 563.369 101.675 563.369 97C563.369 92.3252 559.537 88.5354 554.811 88.5354C550.083 88.5354 546.252 92.3252 546.252 97ZM499 97V80H554.792C554.795 80 554.798 80 554.801 80C554.804 80 554.807 80 554.811 80C563.343 80 570.404 86.1546 571.75 94.2171C571.755 94.243 571.758 94.2709 571.762 94.2969C571.849 94.8387 571.911 95.3875 571.945 95.9453C571.949 95.9922 571.951 96.0391 571.953 96.085C571.97 96.3903 572 96.6907 572 97C572 97.2495 571.973 97.4909 571.962 97.7374C571.961 97.7623 571.964 97.7863 571.963 97.8112C571.961 97.8392 571.956 97.8671 571.954 97.896C571.925 98.4329 571.873 98.9617 571.796 99.4836C571.794 99.4966 571.792 99.5085 571.79 99.5205C570.555 107.711 563.435 114 554.811 114H554.248H554.246H516.207C516.204 114 516.201 114 516.198 114C516.195 114 516.192 114 516.189 114C508.256 114 501.597 108.678 499.616 101.451C499.615 101.45 499.615 101.449 499.615 101.448C499.466 100.904 499.345 100.35 499.25 99.7849C499.245 99.757 499.242 99.7291 499.237 99.7011C499.15 99.1603 499.089 98.6125 499.053 98.0567C499.05 98.0088 499.049 97.9609 499.046 97.913C499.03 97.6087 499 97.3083 499 97Z" fill="#31313C"/>
<path fill-rule="evenodd" clip-rule="evenodd" d="M8.63123 97C8.63123 101.675 12.4631 105.465 17.1888 105.465C21.9156 105.465 25.7474 101.675 25.7474 97C25.7474 92.3252 21.9156 88.5354 17.1888 88.5354C12.4631 88.5354 8.63123 92.3252 8.63123 97ZM47.2515 97C47.2515 101.675 51.0834 105.465 55.8112 105.465C60.5369 105.465 64.3688 101.675 64.3688 97C64.3688 92.3252 60.5369 88.5354 55.8112 88.5354C51.0834 88.5354 47.2515 92.3252 47.2515 97ZM0 97V80H55.792C55.795 80 55.798 80 55.801 80C55.804 80 55.8071 80 55.8112 80C64.3435 80 71.4039 86.1546 72.7498 94.2171C72.7548 94.243 72.7578 94.2709 72.7618 94.2969C72.8486 94.8387 72.9113 95.3875 72.9456 95.9453C72.9486 95.9922 72.9506 96.0391 72.9526 96.085C72.9698 96.3903 73 96.6907 73 97C73 97.2495 72.9728 97.4909 72.9617 97.7374C72.9607 97.7623 72.9637 97.7863 72.9626 97.8112C72.9606 97.8392 72.9556 97.8671 72.9536 97.896C72.9254 98.4329 72.8728 98.9617 72.7961 99.4836C72.7941 99.4966 72.7922 99.5085 72.7902 99.5205C71.5552 107.711 64.4354 114 55.8112 114H55.2482H55.2461H17.207C17.204 114 17.201 114 17.198 114C17.195 114 17.1919 114 17.1888 114C9.25575 114 2.59695 108.678 0.616455 101.451C0.615448 101.45 0.615479 101.449 0.615479 101.448C0.466156 100.904 0.345085 100.35 0.250244 99.7849C0.245201 99.757 0.242111 99.7291 0.237061 99.7011C0.150299 99.1603 0.0887756 98.6125 0.0534668 98.0567C0.0504456 98.0088 0.0494156 97.9609 0.0463867 97.913C0.0302429 97.6087 0 97.3083 0 97Z" fill="#31313C"/>
<path fill-rule="evenodd" clip-rule="evenodd" d="M516 67.3696C520.675 67.3696 524.464 63.5377 524.464 58.8119C524.464 54.0851 520.675 50.2532 516 50.2532C511.325 50.2532 507.535 54.0851 507.535 58.8119C507.535 63.5377 511.325 67.3696 516 67.3696ZM516 28.7479C520.675 28.7479 524.464 24.9159 524.464 20.1891C524.464 15.4623 520.675 11.6304 516 11.6304C511.325 11.6304 507.535 15.4623 507.535 20.1891C507.535 24.9159 511.325 28.7479 516 28.7479ZM516 76H499V20.2073V20.1992V20.1891C499 11.6566 505.155 4.59512 513.217 3.25021C513.243 3.24517 513.271 3.24214 513.297 3.23811C513.839 3.15033 514.387 3.08879 514.944 3.05347C514.991 3.05045 515.038 3.04944 515.085 3.04742C515.39 3.03027 515.691 3 516 3C516.249 3 516.491 3.02724 516.737 3.03733C516.762 3.03935 516.786 3.03632 516.81 3.03733C516.84 3.03935 516.867 3.04439 516.895 3.04641C517.433 3.07365 517.962 3.12612 518.484 3.2038C518.497 3.20582 518.509 3.20784 518.521 3.20986C526.711 4.44479 533 11.5638 533 20.1891V20.7511V20.7531V58.7927V58.8028V58.8109V58.8119C533 66.7441 527.678 73.404 520.451 75.3846C520.45 75.3846 520.449 75.3856 520.448 75.3856C519.903 75.5349 519.349 75.656 518.785 75.7498C518.757 75.7548 518.728 75.7579 518.701 75.7629C518.16 75.8507 517.612 75.9122 517.057 75.9465C517.009 75.9496 516.961 75.9516 516.913 75.9536C516.609 75.9697 516.308 76 516 76Z" fill="#31313C"/>
<path fill-rule="evenodd" clip-rule="evenodd" d="M584.535 58.9995C584.535 63.6742 588.325 67.4638 593 67.4638C597.674 67.4638 601.464 63.6742 601.464 58.9995C601.464 54.3248 597.674 50.5352 593 50.5352C588.325 50.5352 584.535 54.3248 584.535 58.9995ZM610 58.9995C610 68.3878 602.389 76 593 76H576V58.9995C576 49.6102 583.611 42 593 42C602.389 42 610 49.6102 610 58.9995Z" fill="#31313C"/>
<path fill-rule="evenodd" clip-rule="evenodd" d="M100.464 98C100.464 93.3254 96.6742 89.5359 92.0005 89.5359C87.3248 89.5359 83.5352 93.3254 83.5352 98C83.5352 102.675 87.3248 106.464 92.0005 106.464C96.6742 106.464 100.464 102.675 100.464 98ZM75 98C75 88.612 82.6102 81 92.0005 81H109V98C109 107.389 101.389 115 92.0005 115C82.6102 115 75 107.389 75 98Z" fill="#31313C"/>
<path fill-rule="evenodd" clip-rule="evenodd" d="M121.536 98.1891C121.536 102.916 125.325 106.748 130 106.748C134.675 106.748 138.464 102.916 138.464 98.1891C138.464 93.4623 134.675 89.6314 130 89.6314C125.325 89.6314 121.536 93.4623 121.536 98.1891ZM121.536 136.811C121.536 141.538 125.325 145.37 130 145.37C134.675 145.37 138.464 141.538 138.464 136.811C138.464 132.084 134.675 128.252 130 128.252C125.325 128.252 121.536 132.084 121.536 136.811ZM130.913 81.0464C130.96 81.0494 131.009 81.0504 131.057 81.0545C131.612 81.0888 132.16 81.1493 132.7 81.2371C132.729 81.2421 132.757 81.2462 132.785 81.2502C133.35 81.3451 133.904 81.4661 134.447 81.6144C134.448 81.6144 134.45 81.6154 134.451 81.6165C141.678 83.597 147 90.2559 147 98.1891C147 98.1921 146.999 98.1952 146.999 98.1982C146.999 98.2012 147 98.2042 147 98.2073V136.248V136.249V136.811C147 145.436 140.711 152.556 132.521 153.791C132.508 153.792 132.495 153.794 132.484 153.796C131.962 153.874 131.433 153.926 130.896 153.955C130.867 153.956 130.839 153.962 130.811 153.963C130.786 153.965 130.762 153.962 130.738 153.963C130.492 153.974 130.248 154 130 154C129.692 154 129.39 153.97 129.085 153.954C129.039 153.952 128.992 153.95 128.945 153.947C128.388 153.912 127.839 153.851 127.297 153.763C127.27 153.758 127.244 153.755 127.216 153.75C119.155 152.405 113 145.343 113 136.811C113 136.808 113.001 136.805 113.001 136.802C113.001 136.799 113 136.796 113 136.793V81H130C130.308 81 130.609 81.0303 130.913 81.0464Z" fill="#31313C"/>
<path fill-rule="evenodd" clip-rule="evenodd" d="M121.535 58.9995C121.535 63.6742 125.325 67.4638 130 67.4638C134.674 67.4638 138.464 63.6742 138.464 58.9995C138.464 54.3248 134.674 50.5352 130 50.5352C125.325 50.5352 121.535 54.3248 121.535 58.9995ZM147 58.9995C147 68.3878 139.389 76 130 76H113V58.9995C113 49.6102 120.61 42 130 42C139.389 42 147 49.6102 147 58.9995Z" fill="#31313C"/>
</svg>
