<svg width="16" height="16" viewBox="0 0 16 16" fill="none" xmlns="http://www.w3.org/2000/svg">
<path fill-rule="evenodd" clip-rule="evenodd" d="M8 13.0802C8 13.0803 8.00001 13.0803 8.00001 13.0803C10.0951 11.6811 14.2222 8.31763 14.2222 5.375C14.2222 4.74041 13.9922 4.15764 13.6099 3.70325C13.9922 4.15764 14.2222 4.74041 14.2222 5.375C14.2222 8.31763 10.0951 11.6811 8 13.0802ZM5.78435 3.14875C6.585 3.65443 7.11111 4.55896 7.11111 5.375C7.11111 5.60706 7.20476 5.82962 7.37146 5.99372C7.41314 6.03474 7.45852 6.07127 7.50684 6.10299C7.45853 6.07127 7.41314 6.03474 7.37147 5.99372C7.20477 5.82963 7.11112 5.60707 7.11112 5.375C7.11112 4.55896 6.58501 3.65443 5.78435 3.14875ZM7.52889 14.867C7.67016 14.9539 7.8334 15 8 15C8.1666 15 8.32984 14.9539 8.47111 14.867C8.77867 14.678 16 10.1796 16 5.375C16 2.96263 14.0062 1 11.5556 1C10.1387 1 8.82667 1.73237 8 2.82C7.17333 1.73237 5.86133 1 4.44444 1C1.99378 1 0 2.96263 0 5.375C0 10.1796 7.22133 14.678 7.52889 14.867ZM7.88894 13.2466L8.00001 13.3207L8.11108 13.2466C9.16714 12.5413 10.7357 11.3411 12.0429 9.94303C13.3407 8.55503 14.4222 6.92876 14.4222 5.375C14.4222 3.81434 13.1333 2.55 11.5556 2.55C10.7402 2.55 10.0236 2.93289 9.5142 3.46935C9.00671 4.00379 8.6889 4.70741 8.6889 5.375C8.6889 5.553 8.6171 5.72435 8.48825 5.85119C8.35929 5.97813 8.18372 6.05 8.00001 6.05C7.8163 6.05 7.64073 5.97813 7.51178 5.85119C7.38292 5.72435 7.31112 5.553 7.31112 5.375C7.31112 4.70741 6.99332 4.00379 6.48582 3.46935C5.97641 2.93289 5.2598 2.55 4.44446 2.55C2.86676 2.55 1.57779 3.81434 1.57779 5.375C1.57779 6.92876 2.65935 8.55503 3.95714 9.94303C5.26431 11.3411 6.83288 12.5413 7.88894 13.2466Z" fill="black"/>
</svg>

