<svg width="16" height="16" viewBox="0 0 16 16" fill="none" xmlns="http://www.w3.org/2000/svg">
<path d="M8.72138 15.1666C8.32788 15.5768 7.67199 15.577 7.27832 15.1669L6.42063 14.2735C4.43935 12.448 2.95184 11.0476 1.87376 9.6803C0.595007 8.0605 0 6.5918 0 5.0598C0 2.26813 2.09872 0.0812988 4.77871 0.0812988C5.94435 0.0812988 7.09679 0.525315 7.99999 1.29875C8.90311 0.525315 10.0557 0.0812988 11.2213 0.0812988C13.9013 0.0812988 16 2.26813 16 5.0598C16 6.59235 15.405 8.06047 14.1249 9.6803C13.0462 11.0475 11.5593 12.4473 9.57807 14.2735L8.72138 15.1666Z" fill="#DDDDDD"/>
</svg>
