<svg width="16" height="14" viewBox="0 0 16 14" fill="none" xmlns="http://www.w3.org/2000/svg">
<path fill-rule="evenodd" clip-rule="evenodd" d="M4.44444 1.75C2.97422 1.75 1.77778 2.92775 1.77778 4.375C1.77778 7.31763 5.90489 10.6811 8 12.0802C10.0951 10.6811 14.2222 7.31763 14.2222 4.375C14.2222 2.92775 13.0258 1.75 11.5556 1.75C10.0542 1.75 8.88889 3.1605 8.88889 4.375C8.88889 4.60706 8.79524 4.82962 8.62854 4.99372C8.46184 5.15781 8.23575 5.25 8 5.25C7.76425 5.25 7.53816 5.15781 7.37146 4.99372C7.20476 4.82962 7.11111 4.60706 7.11111 4.375C7.11111 3.1605 5.94578 1.75 4.44444 1.75ZM8 14C7.8334 14 7.67016 13.9539 7.52889 13.867C7.22133 13.678 0 9.17962 0 4.375C0 1.96263 1.99378 0 4.44444 0C5.86133 0 7.17333 0.732375 8 1.82C8.82667 0.732375 10.1387 0 11.5556 0C14.0062 0 16 1.96263 16 4.375C16 9.17962 8.77867 13.678 8.47111 13.867C8.32984 13.9539 8.1666 14 8 14Z" fill="#999999"/>
</svg>
