<svg width="16" height="16" viewBox="0 0 16 16" fill="none" xmlns="http://www.w3.org/2000/svg">
<path fill-rule="evenodd" clip-rule="evenodd" d="M10.6979 9.65972L10.8082 9.51486C11.5399 8.55412 11.9549 7.3144 11.9549 5.97699C11.9549 2.66616 9.28873 0 5.9779 0C2.66708 0 0 2.66708 0 5.9779C0 9.28873 2.66616 11.9549 5.97699 11.9549C7.31183 11.9549 8.50572 11.5414 9.51863 10.8054L9.66264 10.7008L14.7374 15.7755C14.8896 15.9278 15.0753 16 15.2565 16C15.4372 16 15.6222 15.928 15.7756 15.7755C16.0743 15.4759 16.0742 15.0369 15.7747 14.7374L10.6979 9.65972ZM5.9779 10.4687C3.48338 10.4687 1.48708 8.47243 1.48708 5.9779C1.48708 3.48338 3.48338 1.48708 5.9779 1.48708C8.47243 1.48708 10.4687 3.48338 10.4687 5.9779C10.4687 8.47151 8.47154 10.4687 5.9779 10.4687Z" fill="#000"/>
</svg>
