<svg width="16" height="16" viewBox="0 0 16 16" fill="none" xmlns="http://www.w3.org/2000/svg">
<path d="M7.5 4H2.1C2.04477 4 2 4.04477 2 4.1V13.9C2 13.9552 2.04477 14 2.1 14H11.9C11.9552 14 12 13.9552 12 13.9V8.5" stroke="black" stroke-width="1.2" stroke-linecap="round"/>
<path d="M8 9.5L5.71664 10.4133C5.63501 10.446 5.55401 10.365 5.58666 10.2834L6.5 8M8 9.5L12.5957 4.90428M8 9.5L6.5 8M6.5 8L11.0957 3.40428M11.0957 3.40428L12.4293 2.07071C12.4683 2.03166 12.5317 2.03166 12.5707 2.07071L13.9293 3.42929C13.9683 3.46834 13.9683 3.53166 13.9293 3.57071L12.5957 4.90428M11.0957 3.40428L12.5957 4.90428" stroke="black"/>
</svg>
