<svg width="17" height="16" viewBox="0 0 17 16" fill="none" xmlns="http://www.w3.org/2000/svg">
<g clip-path="url(#clip0)">
<path fill-rule="evenodd" clip-rule="evenodd" d="M5.12442 0.208764C4.84607 -0.0695881 4.39477 -0.0695881 4.11642 0.208764C3.83806 0.487117 3.83806 0.938415 4.11642 1.21677L6.17242 3.27277L1.82307 7.62212C0.926161 8.51903 0.926164 9.97322 1.82308 10.8701L5.98309 15.0301C6.88 15.9271 8.33419 15.9271 9.2311 15.0301L12.9644 11.2968C13.8614 10.3999 13.8614 8.9457 12.9644 8.04879L5.12442 0.208764ZM2.83108 8.63012L7.18043 4.28078L11.9564 9.05679C11.9716 9.07192 11.986 9.08746 11.9998 9.10338H2.58763C2.61626 8.93009 2.69741 8.76379 2.83108 8.63012ZM15.5787 13.5666L14.2455 11.4793L12.9123 13.5666C12.5127 14.1923 12.6019 15.0117 13.1269 15.5367C13.7447 16.1545 14.7463 16.1545 15.3641 15.5367C15.889 15.0117 15.9783 14.1923 15.5787 13.5666Z" fill="black"/>
</g>
<defs>
<clipPath id="clip0">
<rect width="16" height="16" fill="white" transform="translate(0.5)"/>
</clipPath>
</defs>
</svg>
