<svg width="15" height="15" viewBox="0 0 15 15" fill="none" xmlns="http://www.w3.org/2000/svg">
<path fill-rule="evenodd" clip-rule="evenodd" d="M5.6999 12.8734C6.41787 12.8734 6.9999 12.2913 6.9999 11.5734L6.9999 10.5734C6.9999 10.1868 7.3133 9.87338 7.6999 9.87338C8.0865 9.87338 8.3999 10.1868 8.3999 10.5734L8.3999 11.5734C8.3999 13.0645 7.19107 14.2734 5.6999 14.2734L2.6999 14.2734C1.20873 14.2734 -9.73805e-05 13.0645 -9.75108e-05 11.5734L-9.82102e-05 3.57338C-9.83406e-05 2.08221 1.20873 0.873377 2.6999 0.873377L5.6999 0.873377C7.19107 0.873377 8.3999 2.08221 8.3999 3.57338L8.3999 4.57338C8.3999 4.95998 8.0865 5.27338 7.6999 5.27338C7.3133 5.27338 6.9999 4.95998 6.9999 4.57338L6.9999 3.57338C6.9999 2.85541 6.41787 2.27338 5.6999 2.27338L2.6999 2.27338C1.98193 2.27338 1.3999 2.85541 1.3999 3.57338L1.3999 11.5734C1.3999 12.2913 1.98193 12.8734 2.6999 12.8734L5.6999 12.8734Z" fill="black"/>
<path fill-rule="evenodd" clip-rule="evenodd" d="M9.35592 3.88783C9.62169 3.62206 10.0526 3.62206 10.3184 3.88783L14.0078 7.57722L10.3184 11.2666C10.0526 11.5324 9.62169 11.5324 9.35592 11.2666C9.09015 11.0008 9.09015 10.5699 9.35592 10.3042L11.4023 8.25778L3.9625 8.25778C3.58664 8.25778 3.28194 7.95308 3.28194 7.57722C3.28194 7.20136 3.58664 6.89667 3.9625 6.89667L11.4023 6.89667L9.35592 4.85028C9.09015 4.58451 9.09015 4.1536 9.35592 3.88783Z" fill="black"/>
</svg>
