<svg width="16" height="16" viewBox="0 0 16 16" fill="none" xmlns="http://www.w3.org/2000/svg">
<g>
<path fill-rule="evenodd" clip-rule="evenodd" d="M6.99996 6.76667C8.48192 6.76667 9.68329 5.5653 9.68329 4.08333C9.68329 2.60137 8.48192 1.4 6.99996 1.4C5.518 1.4 4.31663 2.60137 4.31663 4.08333C4.31663 5.5653 5.518 6.76667 6.99996 6.76667ZM8.09429 8.01837C9.81805 7.54003 11.0833 5.95944 11.0833 4.08333C11.0833 1.82817 9.25512 0 6.99996 0C4.7448 0 2.91663 1.82817 2.91663 4.08333C2.91663 5.95945 4.18189 7.54004 5.90566 8.01838C2.55948 8.54372 0 11.4396 0 14.9333V23.1C0 26.966 3.13401 30.1 7 30.1C10.866 30.1 14 26.966 14 23.1V14.9333C14 11.4396 11.4405 8.54369 8.09429 8.01837ZM13.7055 5C13.3711 5 13.1 5.27112 13.1 5.60557V6.7H12C11.6687 6.7 11.4 6.96863 11.4 7.3C11.4 7.63137 11.6687 7.9 12 7.9H13.1V8.99443C13.1 9.32888 13.3711 9.6 13.7055 9.6C14.04 9.6 14.3111 9.32888 14.3111 8.99443V7.9H15.4C15.7314 7.9 16 7.63137 16 7.3C16 6.96863 15.7314 6.7 15.4 6.7H14.3111V5.60557C14.3111 5.27112 14.04 5 13.7055 5ZM12.6 14.9333V23.1C12.6 26.1928 10.0928 28.7 7 28.7C3.90721 28.7 1.4 26.1928 1.4 23.1V14.9333C1.4 11.8405 3.9072 9.33333 7 9.33333C10.0928 9.33333 12.6 11.8405 12.6 14.9333Z" fill="black"/>
</g>
</svg>
