<?xml version="1.0" encoding="UTF-8"?>
<svg width="49px" height="49px" viewBox="0 0 49 49" version="1.1" xmlns="http://www.w3.org/2000/svg" xmlns:xlink="http://www.w3.org/1999/xlink">
    <g id="Symbols" stroke="none" stroke-width="1" fill="none" fill-rule="evenodd">
        <g id="icon/blue-merge">
            <circle id="Oval-Copy-15" fill="#1B8CF8" cx="24.5" cy="24.5" r="24.5"></circle>
            <g id="Group-5-Copy" transform="translate(18.000000, 12.000000)">
                <path d="M9.98777143,12.8329143 C10.1569143,12.9597714 10.3329143,13.0832 10.5112,13.2066286 C12.0117714,14.2523429 13.7146286,15.4386286 13.7146286,19.9014857 L13.7146286,19.9014857 L13.7146286,22.9952 L11.4289143,22.9952 L11.4289143,19.9014857 C11.4289143,16.6317714 10.4952,15.9826286 9.20377143,15.0832 C9.12262857,15.0249143 9.03691429,14.9620571 8.95348571,14.9026286 L8.95348571,14.9026286 Z M6.85668571,-1.95399252e-14 L12.2372571,5.37942857 L10.6201143,6.99542857 L8,4.375 L8,7.33051429 C8,8.56460952 8.10563492,9.49908571 8.28785516,10.2316552 L8.33942857,10.4265143 L8.33485714,10.4242286 L6.85714286,12.7636571 C6.176,13.9225143 5.296,14.5362286 4.50971429,15.0825143 C3.21828571,15.9819429 2.28571429,16.6322286 2.28571429,19.9019429 L2.28571429,19.9019429 L2.28571429,22.9956571 L6.21724894e-15,22.9956571 L6.21724894e-15,19.9019429 C6.21724894e-15,15.4390857 1.70171429,14.2528 3.20342857,13.2070857 C4.55085714,12.2676571 5.71428571,11.4573714 5.71428571,7.33051429 L5.71428571,7.33051429 L5.714,4.374 L3.0944,6.99542857 L1.47725714,5.37942857 L6.85668571,-1.95399252e-14 Z" id="Combined-Shape" fill="#E6E6E9"></path>
                <g id="Group-4" transform="translate(8.334857, 12.709943)"></g>
            </g>
        </g>
    </g>
</svg>