<svg width="16" height="16" viewBox="0 0 16 16" fill="none" xmlns="http://www.w3.org/2000/svg">
    <g clip-path="url(#clip0)">
        <path
            d="M10 9.13509V15.25M10 9.13509L4.5 6.725M10 9.13509L15.5 6.725M10 15.25L15.2641 12.8811C15.4077 12.8165 15.5 12.6738 15.5 12.5164V6.725M10 15.25L4.73585 12.8811C4.59231 12.8165 4.5 12.6738 4.5 12.5164V6.725M4.5 6.725L9.83585 4.32387C9.94024 4.27689 10.0598 4.27689 10.1641 4.32387L15.5 6.725"
            stroke="black" stroke-width="1.4" />
        <path
            d="M0.5 3.225L5.83585 0.823866C5.94024 0.77689 6.05976 0.77689 6.16415 0.823866L7.375 1.36875L8.75 1.9875L9.09375 2.14219M0.5 3.225V9.01637C0.5 9.17377 0.592314 9.31654 0.735854 9.38113L1.875 9.89375L2.04688 9.9711M0.5 3.225L1.875 3.82752L3.25 4.43005L3.42188 4.50536"
            stroke="black" stroke-width="1.4" stroke-linecap="round" />
    </g>
    <defs>
        <clipPath id="clip0">
            <rect width="16" height="16" fill="white" />
        </clipPath>
    </defs>
</svg>