<svg width="16" height="16" viewBox="0 0 16 16" fill="none" xmlns="http://www.w3.org/2000/svg">
<path fill-rule="evenodd" clip-rule="evenodd" d="M7.11395 0.434969C7.21542 0.401147 7.32553 0.453137 7.36389 0.552974L7.9818 2.1612L8.64415 0.55073C8.68414 0.453485 8.79261 0.403815 8.89236 0.437066L15.4427 2.62052C15.5475 2.65545 15.6041 2.76872 15.5692 2.8735L14.5271 6L15.5566 9.08872C15.5881 9.18314 15.5454 9.28634 15.4563 9.33085L14.5 9.80901V12.1854C14.5 12.2612 14.4572 12.3304 14.3895 12.3643L8.08945 15.5143C8.03315 15.5424 7.96687 15.5424 7.91057 15.5143L1.61057 12.3643C1.54281 12.3304 1.50001 12.2612 1.50001 12.1854V9.80901L0.543683 9.33085C0.45466 9.28634 0.411915 9.18314 0.443389 9.08872L1.47296 6L0.430799 2.8735C0.39587 2.76872 0.452502 2.65545 0.55729 2.62052L7.11395 0.434969ZM2.29204 6.70503L1.61148 8.74672L6.70797 11.295L7.38854 9.25328L2.29204 6.70503ZM7.50001 12.0811L7.36497 12.4863C7.32648 12.6017 7.19465 12.6563 7.08579 12.6019L2.50001 10.309V11.691L7.50001 14.191V12.0811ZM8.50001 14.191L13.5 11.691V10.309L8.91423 12.6019C8.80537 12.6563 8.67354 12.6017 8.63505 12.4863L8.50001 12.0811V14.191ZM8.00001 8.44098L12.7993 6.04135L8.00001 4.04166L3.20076 6.04135L8.00001 8.44098ZM2.30424 5.33156L1.63246 3.31622L6.7047 1.62548L7.32488 3.23963L2.30424 5.33156ZM8.62768 3.21986L9.28484 1.62198L14.3676 3.31622L13.6958 5.33156L8.62768 3.21986ZM13.708 6.70503L8.61148 9.25328L9.29204 11.295L14.3885 8.74672L13.708 6.70503Z" fill="#FFBC00"/>
</svg>
