<svg width="16" height="16" viewBox="0 0 16 16" fill="none" xmlns="http://www.w3.org/2000/svg">
<path d="M7.6 3H3C1.89543 3 1 3.89543 1 5V13C1 14.1046 1.89543 15 3 15H11C12.1046 15 13 14.1046 13 13V8.4" stroke="black" stroke-width="1.4" stroke-linecap="round"/>
<path d="M7.89474 9.8421L5.21664 10.9133C5.13501 10.946 5.05401 10.865 5.08666 10.7834L6.15789 8.10526M7.89474 9.8421L13.374 4.36285M7.89474 9.8421L6.15789 8.10526M6.15789 8.10526L11.6371 2.62601M11.6371 2.62601L13.1924 1.07071C13.2315 1.03166 13.2948 1.03166 13.3339 1.07071L14.9293 2.66613C14.9683 2.70518 14.9683 2.7685 14.9293 2.80755L13.374 4.36285M11.6371 2.62601L13.374 4.36285" stroke="black" stroke-width="1.2"/>
</svg>
