<svg width="12" height="12" viewBox="0 0 12 12" fill="none" xmlns="http://www.w3.org/2000/svg">
<path d="M9.73311 2.86616C9.97586 2.60148 9.95081 2.19438 9.6795 1.95984C9.41161 1.72827 9.00248 1.75064 8.76287 2.0119L5.79447 5.24848C5.4021 5.6763 5.4021 6.3237 5.79447 6.75152L8.76287 9.98811C9.00248 10.2494 9.41161 10.2717 9.6795 10.0402C9.95081 9.80562 9.97586 9.39852 9.73311 9.13384L6.85895 6L9.73311 2.86616Z" fill="black" stroke="black" stroke-width="0.4" stroke-linecap="round"/>
<path d="M2.26689 9.13384C2.02414 9.39852 2.04919 9.80562 2.3205 10.0402C2.58839 10.2717 2.99752 10.2494 3.23713 9.9881L6.20553 6.75152C6.5979 6.3237 6.5979 5.6763 6.20553 5.24848L3.23713 2.01189C2.99752 1.75064 2.58839 1.72827 2.3205 1.95984C2.04919 2.19438 2.02414 2.60148 2.26689 2.86616L5.14105 6L2.26689 9.13384Z" fill="black" stroke="black" stroke-width="0.4" stroke-linecap="round"/>
</svg>
