<svg width="24" height="24" xmlns="http://www.w3.org/2000/svg">
 <g>
  <path stroke="null" id="svg_1" d="m12.00915,0c-6.63205,0 -12.00915,5.3771 -12.00915,12.00915s5.3771,12.00915 12.00915,12.00915s12.00915,-5.3771 12.00915,-12.00915s-5.3771,-12.00915 -12.00915,-12.00915zm0,22.51715c-1.47712,0 -2.88219,-0.30473 -4.15667,-0.85565l5.46866,-6.15168c0.12159,-0.13811 0.18914,-0.31524 0.18914,-0.49838l0,-2.25171c0,-0.41432 -0.33626,-0.75057 -0.75057,-0.75057c-2.64952,0 -5.44615,-2.7546 -5.47317,-2.78312c-0.14111,-0.14111 -0.33175,-0.21917 -0.5314,-0.21917l-3.00229,0c-0.41432,0 -0.75057,0.33626 -0.75057,0.75057l0,4.50343c0,0.28372 0.16062,0.54491 0.41432,0.67101l2.58797,1.29399l0,4.40736c-2.72157,-1.89895 -4.50343,-5.05285 -4.50343,-8.62407c0,-1.61223 0.36328,-3.13889 1.01177,-4.50343l2.74109,0c0.19965,0 0.3903,-0.07956 0.5314,-0.21917l3.00229,-3.00229c0.14111,-0.14111 0.21917,-0.33175 0.21917,-0.5314l0,-1.81638c0.95172,-0.28372 1.95899,-0.43533 3.00229,-0.43533c1.65126,0 3.21395,0.38129 4.60401,1.05981c-0.09757,0.08256 -0.19215,0.16813 -0.28221,0.2582c-0.85115,0.85115 -1.3195,1.98151 -1.3195,3.18392s0.46836,2.33428 1.3195,3.18392c0.85415,0.85415 1.99952,1.3195 3.18092,1.3195c0.07356,0 0.14861,-0.0015 0.22367,-0.006c0.32425,1.21442 0.90819,4.37883 -0.19665,8.73365c-0.01051,0.04053 -0.01651,0.08256 -0.01951,0.12309c-1.90795,1.94848 -4.56648,3.15841 -7.50872,3.15841l-0.0015,0.0015z"/>
 </g>
</svg>