<svg width="12" height="12" viewBox="0 0 12 12" fill="none" xmlns="http://www.w3.org/2000/svg">
<g clip-path="url(#clip0)">
<path fill-rule="evenodd" clip-rule="evenodd" d="M2.46199 3.68767C2.23594 3.92949 2.24325 4.31025 2.48042 4.54211L2.48129 4.54296C2.72139 4.77536 3.10345 4.76764 3.33292 4.52336L5.32486 2.40233V8.27395C5.32486 8.60511 5.58944 8.88057 5.92513 8.88069C6.26082 8.88057 6.5256 8.6051 6.5256 8.27395V2.40233L8.51753 4.52334C8.63492 4.64752 8.79335 4.71224 8.95301 4.71224C9.10334 4.71224 9.25297 4.6553 9.36907 4.54306L9.37005 4.54211C9.60665 4.31079 9.61625 3.93014 9.38844 3.68763L5.92523 0L2.46199 3.68767ZM-0.018519 8.01281V9.41597C-0.018519 10.8503 1.05345 12 2.44371 12H9.40593C10.7969 12 11.8689 10.8503 11.8689 9.41597V7.85067C11.8689 7.51943 11.6042 7.24393 11.2684 7.24393C10.9326 7.24393 10.6679 7.51944 10.6679 7.85067V9.41597C10.6679 10.2184 10.1138 10.7866 9.40663 10.7866H2.4437C1.73651 10.7866 1.1824 10.2184 1.1824 9.41597V7.76855C1.1824 7.43731 0.91771 7.16181 0.581922 7.16181C0.246132 7.16181 -0.0185547 7.43732 -0.0185547 7.76855L-0.018519 8.01281Z" fill="black"/>
</g>
<defs>
<clipPath id="clip0">
<rect width="12" height="12" fill="white"/>
</clipPath>
</defs>
</svg>
