<?xml version="1.0" encoding="UTF-8"?>
<svg width="33px" height="33px" viewBox="0 0 33 33" version="1.1" xmlns="http://www.w3.org/2000/svg" xmlns:xlink="http://www.w3.org/1999/xlink">
    <g id="Model-Detail" stroke="none" stroke-width="1" fill="none" fill-rule="evenodd" opacity="0.4">
        <g id="Model-Detail-Copy-2" transform="translate(-231.000000, -825.000000)" fill="#000000">
            <g id="Group-15" transform="translate(231.000000, 824.000000)">
                <path d="M30.2529836,24.4915934 L28.9935738,25.7510033 L28.9935738,6.41782295 L30.2529836,5.15841311 L30.2529836,24.4915934 Z M24.202623,11.2093639 L25.6473443,9.76405246 L25.6473443,29.0972328 L24.202623,30.5419541 L24.202623,11.2093639 Z M2.01718033,28.7212984 L5.26485246,31.9683803 L2.01718033,31.9683803 L2.01718033,28.7212984 Z M9.49396721,3.73198689 L28.8271475,3.73198689 L26.4723934,6.08733115 L7.13921311,6.08733115 L9.49396721,3.73198689 Z M27.9849836,7.42641311 L27.9849836,26.7595934 L26.6559344,28.0886426 L26.6559344,8.7554623 L27.9849836,7.42641311 Z M22.9013115,9.65782295 L3.56813115,9.65782295 L6.13062295,7.09533115 L25.4638033,7.09533115 L22.9013115,9.65782295 Z M9.96078689,11.6750033 L22.1854426,23.8990689 L22.1854426,26.5618885 L7.29796721,11.6750033 L9.96078689,11.6750033 Z M14.1125902,11.6750033 L22.1854426,19.7472656 L22.1854426,22.4720525 L11.3878033,11.6750033 L14.1125902,11.6750033 Z M18.1416393,11.6750033 L22.1854426,15.7188066 L22.1854426,18.3208393 L15.5390164,11.6750033 L18.1416393,11.6750033 Z M22.1854426,14.2923803 L19.5680656,11.6750033 L22.1854426,11.6750033 L22.1854426,14.2923803 Z M3.05114754,11.6750033 L5.87095082,11.6750033 L22.1854426,27.9883148 L22.1854426,30.8092984 L3.05114754,11.6750033 Z M10.8265574,31.9176262 L2.01718033,23.1088393 L2.01718033,20.3173639 L13.6681967,31.9683803 L10.8607869,31.9683803 C10.8478033,31.9524459 10.8413115,31.9323803 10.8265574,31.9176262 L10.8265574,31.9176262 Z M6.69127869,31.9683803 L2.01718033,27.2948721 L2.01718033,24.5352656 L9.45088525,31.9683803 L6.69127869,31.9683803 Z M15.0952131,31.9683803 L2.01718033,18.8903475 L2.01718033,16.1313311 L17.8542295,31.9683803 L15.0952131,31.9683803 Z M19.2812459,31.9683803 L2.01718033,14.7049049 L2.01718033,12.0674623 L21.9180984,31.9683803 L19.2812459,31.9683803 Z M31.2615738,1.71539672 L9.07613115,1.71539672 L8.36321311,2.01106885 L0.295672131,10.0786098 L-2.27373675e-13,10.7915279 L-2.27373675e-13,32.9769705 L1.00859016,33.9849705 L23.6112787,33.9849705 L31.9744918,25.6223475 L32.2701639,24.9094295 L32.2701639,2.72398689 L31.2615738,1.71539672 Z" id="Fill-7"></path>
            </g>
        </g>
    </g>
</svg>