<svg width="16" height="17" viewBox="0 0 16 17" fill="none" xmlns="http://www.w3.org/2000/svg">
<path d="M1 8.10797L1 9.03872C1 9.52756 1.35341 9.94475 1.8356 10.0251L3.62501 10.3234L3.66895 10.4295L2.55299 11.9919C2.30437 12.3399 2.34383 12.8167 2.64629 13.1192L3.45418 13.9271C3.75663 14.2295 4.23342 14.269 4.58148 14.0204L6.14384 12.9044L6.24999 12.9484L6.56564 14.8422C6.63596 15.2641 7.001 15.5734 7.42873 15.5734L8.57127 15.5734C8.999 15.5734 9.36405 15.2641 9.43437 14.8422L9.75001 12.9484L9.85616 12.9044L11.4185 14.0204C11.7666 14.269 12.2434 14.2295 12.5458 13.9271L13.3537 13.1192C13.6562 12.8167 13.6956 12.3399 13.447 11.9919L12.331 10.4295L12.375 10.3234L14.2688 10.0077C14.6908 9.93739 15 9.57235 15 9.14461L15 8.00208C15 7.57434 14.6908 7.2093 14.2688 7.13898L12.375 6.82334L12.331 6.71718L13.447 5.15483C13.6956 4.80677 13.6562 4.32998 13.3537 4.02752L12.5458 3.21963C12.2434 2.91717 11.7666 2.87771 11.4185 3.12633L9.85616 4.2423L9.75001 4.19836L9.43436 2.3045C9.36404 1.88258 8.999 1.57334 8.57126 1.57334L7.42873 1.57334C7.001 1.57334 6.63595 1.88258 6.56563 2.3045L6.24999 4.19836L6.14384 4.2423L4.58148 3.12633C4.23342 2.87771 3.75663 2.91717 3.45418 3.21963L2.64629 4.02752C2.34383 4.32998 2.30437 4.80676 2.55299 5.15483L3.66895 6.71718L3.62501 6.82334L1.8356 7.12157C1.35341 7.20194 1 7.61913 1 8.10797Z" stroke="black" stroke-width="1.4"/>
<circle cx="8.00001" cy="8.57338" r="1.92501" stroke="black" stroke-width="1.4"/>
</svg>
