<svg width="12" height="9" viewBox="0 0 12 9" fill="none" xmlns="http://www.w3.org/2000/svg">
<path d="M0 0.700016C0 0.313417 0.313401 1.52588e-05 0.7 1.52588e-05C1.0866 1.52588e-05 1.4 0.313416 1.4 0.700015V2.94445C1.4 4.24539 2.45462 5.3 3.75555 5.3H7.83902C7.92793 5.3 8 5.22793 8 5.13903V3.63225C8 3.29685 8.38797 3.11038 8.64988 3.31991L11.6155 5.69243C11.8138 5.85102 11.816 6.15177 11.6202 6.31333L8.65455 8.76C8.39367 8.97523 8 8.78966 8 8.45145V6.83115C8 6.75872 7.94128 6.7 7.86885 6.7H3.65454C1.63619 6.7 0 5.06381 0 3.04547V0.700016Z" fill="black"/>
</svg>
