<svg width="17" height="17" viewBox="0 0 17 17" fill="none" xmlns="http://www.w3.org/2000/svg">
<g>
<path fill-rule="evenodd" clip-rule="evenodd" d="M2.44922 8.21071V6.07991V5.63945L2.85765 5.47455L5.17237 4.54004L6.73041 5.31906L4.7114 6.13419L8.52139 7.98002L12.3314 6.13419L10.4297 5.36642L12.0053 4.66616H12.1828L14.1851 5.47455L14.5936 5.63945V6.07991V8.21071L13.2879 8.86354V7.12158L9.17421 9.11455V13.689L10.0698 13.2551V13.9565V14.7059L8.80602 15.3182L8.52139 15.4561L8.23676 15.3182L6.973 14.7059V13.2551L7.86856 13.689V9.11455L3.75487 7.12158V8.86354L3.10204 8.53712L2.44922 8.21071Z" fill="black"/>
<path fill-rule="evenodd" clip-rule="evenodd" d="M0.900391 8.37578C0.900391 7.61876 1.69226 7.12249 2.37354 7.45255L7.04679 9.71661C7.40065 9.88805 7.62538 10.2466 7.62538 10.6398V15.836C7.62538 16.5931 6.83352 17.0893 6.15224 16.7593L1.47898 14.4952C1.12513 14.3238 0.900391 13.9652 0.900391 13.572V8.37578ZM2.20604 8.82221V13.3966L6.31973 15.3896V10.8152L2.20604 8.82221Z" fill="black"/>
<path fill-rule="evenodd" clip-rule="evenodd" d="M14.8354 8.82221L10.7217 10.8152V15.3896L14.8354 13.3966V8.82221ZM14.6679 7.45255C15.3491 7.12249 16.141 7.61876 16.141 8.37578V13.572C16.141 13.9652 15.9163 14.3238 15.5624 14.4952L10.8892 16.7593C10.2079 17.0893 9.41602 16.5931 9.41602 15.836V10.6398C9.41602 10.2466 9.64075 9.88805 9.99461 9.71661L14.6679 7.45255Z" fill="black"/>
<path fill-rule="evenodd" clip-rule="evenodd" d="M8.40869 0.91672C8.58518 0.845469 8.78243 0.845468 8.95892 0.916721L13.5676 2.77736C14.3926 3.11043 14.4315 4.26395 13.6308 4.65185L9.13108 6.83184C8.8486 6.96869 8.51901 6.96869 8.23653 6.83184L3.73681 4.65185C2.93614 4.26395 2.97505 3.11043 3.80004 2.77736L8.40869 0.916721L8.65309 1.52207L8.40869 0.91672ZM4.87381 3.75189L8.6838 5.59772L12.4938 3.75189L8.6838 2.21369L4.87381 3.75189Z" fill="black"/>
</g>
</svg>
