<svg width="20" height="24" viewBox="0 0 20 24" fill="none" xmlns="http://www.w3.org/2000/svg">
<path d="M1.64819 15.3646L4.44121 16.9772L4.19495 17.4037C3.16662 19.1848 3.77957 21.4722 5.56065 22.5006C7.34324 23.5297 9.63067 22.9168 10.659 21.1357L10.9052 20.7092L13.6982 22.3217C14.5263 22.7998 15.5482 22.7858 16.3621 22.283C17.1774 21.7811 17.6481 20.8742 17.5921 19.9183L17.341 15.6454L18.7549 13.1965C20.2349 10.633 19.838 7.49936 18.0015 5.37828L18.6146 4.31639C19.2243 3.26037 18.8613 1.90556 17.8052 1.29587C16.7492 0.686173 15.3944 1.04919 14.7847 2.10521L14.1716 3.16711C11.4163 2.63727 8.50337 3.86169 7.02415 6.42378L5.61031 8.87261L1.78433 10.7917C0.928464 11.2212 0.37986 12.083 0.351377 13.0393C0.321438 13.9946 0.818687 14.8857 1.64819 15.3646ZM9.90447 20.7001C9.11561 22.0664 7.36177 22.5364 5.99395 21.7467C4.6276 20.9578 4.15766 19.204 4.94652 17.8376L5.19277 17.4111L10.1508 20.2736L9.90447 20.7001ZM15.537 2.53768C15.9064 1.8979 16.7285 1.67638 17.3697 2.0466C18.0095 2.41598 18.231 3.23807 17.8608 3.87932L17.3691 4.73089C17.0374 4.43935 16.6729 4.174 16.2743 3.94388C15.8772 3.71461 15.4651 3.53163 15.0453 3.38925L15.537 2.53768ZM2.17227 11.5666L6.23195 9.53143L7.77657 6.85608C9.40355 4.03807 13.0211 3.06753 15.8406 4.69534C18.66 6.32317 19.6291 9.93988 18.0013 12.7593L16.4567 15.4347L16.724 19.968C16.7604 20.6048 16.448 21.2069 15.906 21.5411C15.364 21.8753 14.6854 21.8855 14.1324 21.5663L2.08302 14.6115C1.53149 14.2931 1.19961 13.6994 1.21802 13.0629C1.2373 12.425 1.60267 11.8535 2.17227 11.5666Z" fill="#616168" stroke="#616168" stroke-width="0.6"/>
</svg>
