<svg width="12" height="12" viewBox="0 0 12 12" fill="none" xmlns="http://www.w3.org/2000/svg">
<path d="M1 5.90962L1 6.09037C1 6.57921 1.35341 6.9964 1.8356 7.07676L2.875 7.25L2.90639 7.32584L2.10927 8.4418C1.93169 8.69042 1.95988 9.03098 2.17592 9.24702L2.75298 9.82408C2.96902 10.0401 3.30958 10.0683 3.5582 9.89073L4.67416 9.09361L4.74999 9.12499L4.97545 10.4777C5.02568 10.7791 5.28642 11 5.59195 11L6.40804 11C6.71357 11 6.97431 10.7791 7.02454 10.4777L7.25 9.12499L7.32582 9.09359L8.44178 9.89071C8.6904 10.0683 9.03096 10.0401 9.247 9.82407L9.82407 9.24701C10.0401 9.03097 10.0683 8.6904 9.89071 8.44179L9.09359 7.32582L9.12498 7.25L10.4777 7.02454C10.7791 6.97431 11 6.71356 11 6.40804L11 5.59195C11 5.28642 10.7791 5.02568 10.4777 4.97545L9.12498 4.74999L9.09359 4.67416L9.89071 3.5582C10.0683 3.30958 10.0401 2.96902 9.82407 2.75298L9.247 2.17592C9.03097 1.95988 8.6904 1.93169 8.44179 2.10928L7.32582 2.90639L7.24999 2.87501L7.02454 1.52225C6.97431 1.22088 6.71356 1 6.40804 1L5.59195 1C5.28642 1 5.02568 1.22088 4.97545 1.52225L4.74999 2.87501L4.67416 2.90639L3.5582 2.10927C3.30958 1.93169 2.96902 1.95988 2.75298 2.17592L2.17592 2.75298C1.95988 2.96902 1.93169 3.30958 2.10927 3.5582L2.90639 4.67416L2.875 4.74999L1.8356 4.92322C1.35341 5.00359 1 5.42078 1 5.90962Z" stroke="black"/>
<circle cx="6.00001" cy="6.00001" r="1.37501" stroke="black"/>
</svg>

