<svg width="16" height="16" viewBox="0 0 16 16" fill="none" xmlns="http://www.w3.org/2000/svg">
<path fill-rule="evenodd" clip-rule="evenodd" d="M4.44444 3.25C2.97422 3.25 1.77778 4.42775 1.77778 5.875C1.77778 8.81763 5.90489 12.1811 8 13.5802C10.0951 12.1811 14.2222 8.81763 14.2222 5.875C14.2222 4.42775 13.0258 3.25 11.5556 3.25C10.0542 3.25 8.88889 4.6605 8.88889 5.875C8.88889 6.10706 8.79524 6.32962 8.62854 6.49372C8.46184 6.65781 8.23575 6.75 8 6.75C7.76425 6.75 7.53816 6.65781 7.37146 6.49372C7.20476 6.32962 7.11111 6.10706 7.11111 5.875C7.11111 4.6605 5.94578 3.25 4.44444 3.25ZM8 15.5C7.8334 15.5 7.67016 15.4539 7.52889 15.367C7.22133 15.178 0 10.6796 0 5.875C0 3.46263 1.99378 1.5 4.44444 1.5C5.86133 1.5 7.17333 2.23237 8 3.32C8.82667 2.23237 10.1387 1.5 11.5556 1.5C14.0062 1.5 16 3.46263 16 5.875C16 10.6796 8.77867 15.178 8.47111 15.367C8.32984 15.4539 8.1666 15.5 8 15.5Z" fill="#FFBC00"/>
</svg>
