<svg width="12" height="12" viewBox="0 0 12 12" fill="none" xmlns="http://www.w3.org/2000/svg">
<g>
<path d="M0 0.700001C0 0.313402 0.313401 0 0.7 0C1.0866 0 1.4 0.313401 1.4 0.7V2.94444C1.4 4.24537 2.45462 5.29999 3.75555 5.29999H7.83902C7.92793 5.29999 8 5.22792 8 5.13901V3.63224C8 3.29684 8.38797 3.11037 8.64988 3.31989L11.6155 5.69242C11.8138 5.85101 11.816 6.15176 11.6202 6.31331L8.65455 8.75998C8.39367 8.97521 8 8.78964 8 8.45143V6.83114C8 6.7587 7.94128 6.69999 7.86885 6.69999H3.65454C1.63619 6.69999 0 5.0638 0 3.04545V0.700001Z" fill="black"/>
</g>
<defs>
</defs>
</svg>
