<svg width="16" height="16" viewBox="0 0 16 16" fill="none" xmlns="http://www.w3.org/2000/svg">
<path d="M7.54687 1.78532V1.79202V9.48304L4.80009 6.73041C4.72078 6.65092 4.61184 6.60256 4.49145 6.60256C4.25016 6.60256 4.05475 6.79888 4.05475 7.04019C4.05475 7.16132 4.10349 7.27049 4.1828 7.34949C4.81801 7.98596 7.98359 10.9769 7.98359 10.9769C7.98359 10.9769 10.8548 8.28295 11.7839 7.3519C11.8656 7.27241 11.9162 7.16133 11.9162 7.03828C11.9162 6.79648 11.7208 6.60065 11.4795 6.60065C11.4748 6.60065 11.4709 6.60066 11.4662 6.60113C11.3486 6.60449 11.2435 6.65428 11.1671 6.7328L8.42078 9.48544V1.79394V1.78819C8.42078 1.21443 7.54687 1.23986 7.54687 1.78532ZM2.30988 13.7578H2.30367C2.06238 13.7578 1.86697 13.9536 1.86697 14.1954C1.86697 14.4372 2.06287 14.633 2.30367 14.633H2.31036H13.6573H13.6635C13.9048 14.633 14.1002 14.4372 14.1002 14.1954C14.1002 13.9536 13.9048 13.7578 13.6635 13.7578H13.6568H2.30988Z" fill="black"/>
<path fill-rule="evenodd" clip-rule="evenodd" d="M7.98361 10.9769L7.73153 11.2436L7.22676 10.7661C6.91996 10.4757 6.50425 10.0818 6.06865 9.66794C5.19983 8.84252 4.24503 7.93134 3.92306 7.60873C3.77734 7.46319 3.68778 7.26167 3.68778 7.04018C3.68778 6.59719 4.04649 6.23556 4.49147 6.23556C4.71252 6.23556 4.91402 6.32498 5.0599 6.47117L7.17989 8.59569V1.78531C7.17989 1.54121 7.2818 1.33566 7.4448 1.19614C7.60031 1.06304 7.79563 1.00244 7.97911 1.00007C8.16265 0.997703 8.36235 1.05343 8.52221 1.18958C8.69013 1.33259 8.7878 1.54273 8.7878 1.78819V8.59797L10.9059 6.47493C11.0437 6.33434 11.2338 6.2431 11.4464 6.2346C11.4637 6.23351 11.4767 6.23365 11.4796 6.23365C11.9243 6.23365 12.2832 6.59451 12.2832 7.03827C12.2832 7.26309 12.1907 7.46703 12.0421 7.61276C11.5725 8.08316 10.6197 8.99203 9.78773 9.78C9.37042 10.1753 8.98221 10.5414 8.69834 10.8086L8.23526 11.244L7.98361 10.9769ZM7.98361 10.9769L8.23526 11.244L7.98273 11.481L7.73153 11.2436L7.98361 10.9769ZM11.7839 7.35189C10.8548 8.28294 7.98361 10.9769 7.98361 10.9769C7.98361 10.9769 4.81803 7.98596 4.18283 7.34948C4.10351 7.27048 4.05478 7.16132 4.05478 7.04018C4.05478 6.79887 4.25018 6.60255 4.49147 6.60255C4.61186 6.60255 4.7208 6.65092 4.80011 6.7304L7.54689 9.48303V1.78531C7.54689 1.23985 8.4208 1.21442 8.4208 1.78819V9.48543L11.1671 6.73279C11.2435 6.65427 11.3486 6.60448 11.4662 6.60112C11.471 6.60065 11.4748 6.60065 11.4796 6.60065C11.7208 6.60065 11.9163 6.79647 11.9163 7.03827C11.9163 7.16132 11.8656 7.27241 11.7839 7.35189ZM2.30369 13.3908H13.6635C14.1082 13.3908 14.4672 13.7516 14.4672 14.1954C14.4672 14.6391 14.1083 15 13.6635 15H2.30369C1.85973 15 1.5 14.6394 1.5 14.1954C1.5 13.7516 1.85897 13.3908 2.30369 13.3908ZM2.30369 13.7578H13.6635C13.9048 13.7578 14.1002 13.9536 14.1002 14.1954C14.1002 14.4372 13.9048 14.633 13.6635 14.633H2.30369C2.06289 14.633 1.867 14.4372 1.867 14.1954C1.867 13.9536 2.0624 13.7578 2.30369 13.7578Z" fill="black"/>
</svg>
