<svg width="16" height="16" viewBox="0 0 16 16" fill="none" xmlns="http://www.w3.org/2000/svg">
<g clip-path="url(#clip0)">
<path d="M0.965805 8.9658C0.432406 8.96581 -2.08726e-08 8.5334 -4.66204e-08 8C-7.23681e-08 7.4666 0.432405 7.0342 0.965805 7.0342L15.0342 7.0342C15.5676 7.0342 16 7.4666 16 8C16 8.5334 15.5676 8.9658 15.0342 8.9658L0.965805 8.9658Z" fill="black"/>
<path d="M7 1C7 0.447715 7.44772 9.78513e-09 8 2.18557e-08C8.55228 3.39263e-08 9 0.447715 9 1L9 15C9 15.5523 8.55228 16 8 16C7.44771 16 7 15.5523 7 15L7 1Z" fill="black"/>
</g>
<defs>
<clipPath id="clip0">
<rect width="16" height="16" fill="white"/>
</clipPath>
</defs>
</svg>
