<svg width="16" height="16" viewBox="0 0 16 16" fill="none" xmlns="http://www.w3.org/2000/svg">
<g>
<path fill-rule="evenodd" clip-rule="evenodd" d="M6.99996 6.76667C8.48192 6.76667 9.68329 5.5653 9.68329 4.08333C9.68329 2.60137 8.48192 1.4 6.99996 1.4C5.518 1.4 4.31663 2.60137 4.31663 4.08333C4.31663 5.5653 5.518 6.76667 6.99996 6.76667ZM8.09429 8.01837C9.81805 7.54003 11.0833 5.95944 11.0833 4.08333C11.0833 1.82817 9.25512 0 6.99996 0C4.7448 0 2.91663 1.82817 2.91663 4.08333C2.91663 5.95945 4.18189 7.54004 5.90566 8.01838C2.55948 8.54372 0 11.4396 0 14.9333V23.1C0 26.966 3.13401 30.1 7 30.1C10.866 30.1 14 26.966 14 23.1V14.9333C14 11.4396 11.4405 8.54369 8.09429 8.01837ZM12.0737 5.67365C11.8394 5.90796 11.8394 6.28786 12.0737 6.52218L12.8515 7.29996L12.0776 8.07384C11.8411 8.31033 11.8411 8.69376 12.0776 8.93025C12.3141 9.16674 12.6975 9.16674 12.934 8.93025L13.7079 8.15637L14.4778 8.92634C14.7122 9.16066 15.0921 9.16066 15.3264 8.92634C15.5607 8.69203 15.5607 8.31213 15.3264 8.07781L14.5564 7.30784L15.3303 6.53397C15.5668 6.29748 15.5668 5.91405 15.3303 5.67756C15.0938 5.44107 14.7104 5.44107 14.4739 5.67756L13.7 6.45143L12.9222 5.67365C12.6879 5.43934 12.308 5.43934 12.0737 5.67365ZM12.6 14.9333V23.1C12.6 26.1928 10.0928 28.7 7 28.7C3.90721 28.7 1.4 26.1928 1.4 23.1V14.9333C1.4 11.8405 3.9072 9.33333 7 9.33333C10.0928 9.33333 12.6 11.8405 12.6 14.9333Z" fill="black"/>
</g>
</svg>
