<svg width="33" height="30" viewBox="0 0 33 30" fill="none" xmlns="http://www.w3.org/2000/svg">
<mask id="mask0" mask-type="alpha" maskUnits="userSpaceOnUse" x="0" y="6" width="24" height="24">
<path fill-rule="evenodd" clip-rule="evenodd" d="M0 6.679H23.065V29.744H0V6.679Z" fill="white"/>
</mask>
<g mask="url(#mask0)">
<path fill-rule="evenodd" clip-rule="evenodd" d="M11.533 23.954C10.01 23.954 8.54937 23.349 7.47244 22.2721C6.39551 21.1951 5.7905 19.7345 5.7905 18.2115C5.7905 16.6885 6.39551 15.2279 7.47244 14.1509C8.54937 13.074 10.01 12.469 11.533 12.469C13.056 12.469 14.5166 13.074 15.5936 14.1509C16.6705 15.2279 17.2755 16.6885 17.2755 18.2115C17.2755 19.7345 16.6705 21.1951 15.5936 22.2721C14.5166 23.349 13.056 23.954 11.533 23.954ZM11.533 6.679C5.163 6.678 0 11.842 0 18.211V29.744H11.533C17.902 29.744 23.065 24.581 23.065 18.212C23.066 11.841 17.902 6.678 11.533 6.678" fill="black"/>
</g>
<path d="M22.333 0H21.276C15.6344 0 11.061 4.57341 11.061 10.215C11.061 15.8566 15.6344 20.43 21.276 20.43H22.333C27.9746 20.43 32.548 15.8566 32.548 10.215C32.548 4.57341 27.9746 0 22.333 0Z" fill="#ffbc00"/>
<path d="M14.8193 11.5642C14.386 11.5642 14.0347 11.2129 14.0347 10.7795C14.0347 10.3462 14.386 9.9949 14.8193 9.9949H26.2488C26.6822 9.9949 27.0335 10.3462 27.0335 10.7795C27.0335 11.2129 26.6822 11.5642 26.2488 11.5642H14.8193Z" fill="black"/>
<path d="M19.7216 5.09256C19.7216 4.64387 20.0854 4.28014 20.534 4.28014C20.9827 4.28014 21.3465 4.64387 21.3465 5.09256V16.4665C21.3465 16.9152 20.9827 17.2789 20.534 17.2789C20.0853 17.2789 19.7216 16.9152 19.7216 16.4665V5.09256Z" fill="black"/>
</svg>
