<svg width="16" height="16" viewBox="0 0 16 16" fill="none" xmlns="http://www.w3.org/2000/svg">
  <path d="M15.25 11.5V13.5C15.25 14.1904 14.6904 14.75 14 14.75H2C1.30964 14.75 0.75 14.1904 0.75 13.5V2.5C0.75 1.80964 1.30964 1.25 2 1.25H6C6.69036 1.25 7.25 1.80964 7.25 2.5V3" stroke="black" stroke-width="1.5" stroke-linecap="round"/>
  <rect x="3" y="7" width="4" height="1.5" rx="0.75" fill="black"/>
  <rect x="3" y="10" width="6" height="1.5" rx="0.75" fill="black"/>
  <path d="M14.25 2.5L14.25 3.75L10.75 3.75L10.75 2.5C10.75 1.5335 11.5335 0.75 12.5 0.75C13.4665 0.75 14.25 1.5335 14.25 2.5Z" stroke="black" stroke-width="1.5"/>
  <path fill-rule="evenodd" clip-rule="evenodd" d="M9.34356 3C9.15382 3 9 3.15382 9 3.34356V6.5C9 8.433 10.567 10 12.5 10C14.433 10 16 8.433 16 6.5V3.34356C16 3.15382 15.8462 3 15.6564 3H9.34356ZM13.5 5.5C13.5 5.86634 13.303 6.18668 13.0092 6.36085L13.4123 7.57009C13.4554 7.69959 13.359 7.83333 13.2225 7.83333H11.7775C11.641 7.83333 11.5446 7.69959 11.5877 7.57009L11.9908 6.36085C11.697 6.18668 11.5 5.86634 11.5 5.5C11.5 4.94772 11.9477 4.5 12.5 4.5C13.0523 4.5 13.5 4.94772 13.5 5.5Z" fill="black"/>
</svg>
