<svg width="16" height="16" viewBox="0 0 16 16" fill="none" xmlns="http://www.w3.org/2000/svg">
<mask id="pad" fill="white">
<path d="M3 6.44172C3 6.19776 3.19776 6 3.44172 6H12.5583C12.8022 6 13 6.19776 13 6.44172V10C13 12.7614 10.7614 15 8 15C5.23858 15 3 12.7614 3 10V6.44172Z"/>
</mask>
<path d="M3.44172 7.4H12.5583V4.6H3.44172V7.4ZM11.6 6.44172V10H14.4V6.44172H11.6ZM4.4 10V6.44172H1.6V10H4.4ZM8 13.6C6.01178 13.6 4.4 11.9882 4.4 10H1.6C1.6 13.5346 4.46538 16.4 8 16.4V13.6ZM11.6 10C11.6 11.9882 9.98822 13.6 8 13.6V16.4C11.5346 16.4 14.4 13.5346 14.4 10H11.6ZM12.5583 7.4C12.029 7.4 11.6 6.97096 11.6 6.44172H14.4C14.4 5.42456 13.5754 4.6 12.5583 4.6V7.4ZM3.44172 4.6C2.42456 4.6 1.6 5.42457 1.6 6.44172H4.4C4.4 6.97096 3.97096 7.4 3.44172 7.4V4.6Z" fill="black" mask="url(#pad)"/>
<path d="M11.3 5L11.3 6.7L4.7 6.7L4.7 5C4.7 3.17746 6.17746 1.7 8 1.7C9.82254 1.7 11.3 3.17746 11.3 5Z" stroke="black" stroke-width="1.4"/>
<path fill-rule="evenodd" clip-rule="evenodd" d="M8.50917 10.3608C8.80301 10.1867 9 9.86634 9 9.5C9 8.94772 8.55228 8.5 8 8.5C7.44772 8.5 7 8.94772 7 9.5C7 9.86634 7.19699 10.1867 7.49083 10.3608L7.08775 11.5701C7.04458 11.6996 7.14097 11.8333 7.27749 11.8333H8.72251C8.85903 11.8333 8.95542 11.6996 8.91225 11.5701L8.50917 10.3608Z" fill="black"/>
</svg>