<svg width="15" height="14" viewBox="0 0 15 14" fill="none" xmlns="http://www.w3.org/2000/svg">
<path fill-rule="evenodd" clip-rule="evenodd" d="M5.6999 12.3C6.41787 12.3 6.9999 11.7179 6.9999 11L6.9999 9.99995C6.9999 9.61335 7.3133 9.29995 7.6999 9.29995C8.0865 9.29995 8.3999 9.61335 8.3999 9.99995L8.3999 11C8.3999 12.4911 7.19107 13.7 5.6999 13.7L2.6999 13.7C1.20873 13.7 -9.73805e-05 12.4911 -9.75108e-05 11L-9.82102e-05 2.99995C-9.83406e-05 1.50878 1.20873 0.299952 2.6999 0.299952L5.6999 0.299952C7.19107 0.299952 8.3999 1.50878 8.3999 2.99995L8.3999 3.99995C8.3999 4.38655 8.0865 4.69995 7.6999 4.69995C7.3133 4.69995 6.9999 4.38655 6.9999 3.99995L6.9999 2.99995C6.9999 2.28198 6.41787 1.69995 5.6999 1.69995L2.6999 1.69995C1.98193 1.69995 1.3999 2.28198 1.3999 2.99995L1.3999 11C1.3999 11.7179 1.98193 12.3 2.6999 12.3L5.6999 12.3Z" fill="black"/>
<path fill-rule="evenodd" clip-rule="evenodd" d="M9.35592 3.31446C9.62169 3.04869 10.0526 3.04869 10.3184 3.31446L14.0078 7.00386L10.3184 10.6933C10.0526 10.959 9.62169 10.959 9.35592 10.6933C9.09015 10.4275 9.09015 9.99658 9.35592 9.7308L11.4023 7.68441L3.9625 7.68441C3.58664 7.68441 3.28194 7.37972 3.28194 7.00386C3.28194 6.628 3.58664 6.3233 3.9625 6.3233L11.4023 6.3233L9.35592 4.27692C9.09015 4.01114 9.09015 3.58024 9.35592 3.31446Z" fill="black"/>
</svg>
