<svg width="16" height="16" viewBox="0 0 16 16" fill="none" xmlns="http://www.w3.org/2000/svg">
<path fill-rule="evenodd" clip-rule="evenodd" d="M1.0474 13.698C0.897998 14.531 0.666667 15.3333 0.666667 15.3333C0.666667 15.3333 1.47654 15.1181 2.30992 14.9732C3.01556 14.8505 3.73806 14.7782 4 14.9297C5.17669 15.6104 6.54285 16 8 16C12.4183 16 16 12.4183 16 8C16 3.58172 12.4183 0 8 0C3.58172 0 0 3.58172 0 8C0 9.45715 0.389577 10.8233 1.07026 12C1.23914 12.2919 1.17157 13.0056 1.0474 13.698ZM2.61012 13.4099C2.78868 13.3866 2.96739 13.368 3.13957 13.3566C3.35116 13.3427 3.5898 13.3372 3.82535 13.3581C4.0247 13.3758 4.3935 13.4245 4.75109 13.6313C5.70562 14.1835 6.81358 14.5 8 14.5C11.5899 14.5 14.5 11.5899 14.5 8C14.5 4.41015 11.5899 1.5 8 1.5C4.41015 1.5 1.5 4.41015 1.5 8C1.5 9.18643 1.8165 10.2944 2.36867 11.2489C2.56798 11.5935 2.62765 11.9471 2.6513 12.1689C2.67753 12.4151 2.67456 12.6622 2.66152 12.8813C2.6512 13.0546 2.63311 13.2327 2.61012 13.4099ZM4 6.5C4 6.08579 4.33579 5.75 4.75 5.75H11.25C11.6642 5.75 12 6.08579 12 6.5C12 6.91421 11.6642 7.25 11.25 7.25H4.75C4.33579 7.25 4 6.91421 4 6.5ZM4.75 9.08337C4.33579 9.08337 4 9.41916 4 9.83337C4 10.2476 4.33579 10.5834 4.75 10.5834H8.58333C8.99755 10.5834 9.33333 10.2476 9.33333 9.83337C9.33333 9.41916 8.99755 9.08337 8.58333 9.08337H4.75Z" fill="black"/>
</svg>

