<svg width="12" height="12" viewBox="0 0 12 12" fill="none" xmlns="http://www.w3.org/2000/svg">
<g clip-path="url(#clip0)">
<path d="M3.59961 6L2.19961 6L0.448165 6C0.109954 6 -0.0756168 6.39367 0.139615 6.65455L2.58628 9.62021C2.74784 9.81604 3.04859 9.81377 3.20718 9.61554L5.57971 6.64988C5.78923 6.38797 5.60276 6 5.26736 6L3.59961 6Z" fill="#242424"/>
<path d="M2.83592 7.11576C2.46835 7.21425 2.08544 6.99599 2.03838 6.61837C1.93856 5.81741 2.03375 5.00055 2.32047 4.23875C2.68847 3.26099 3.3535 2.42306 4.22215 1.84265C5.0908 1.26224 6.11944 0.968495 7.1636 1.00268C8.20775 1.03686 9.21498 1.39725 10.0438 2.03323C10.8726 2.66922 11.4814 3.54885 11.7847 4.54858C12.088 5.54831 12.0705 6.61793 11.7346 7.6072C11.3988 8.59647 10.7616 9.45571 9.91239 10.0642C9.25075 10.5384 8.48636 10.8417 7.68686 10.9526C7.30993 11.0049 7 10.6915 7 10.311C7 9.93044 7.31122 9.62857 7.68489 9.55661C8.19585 9.45821 8.68236 9.25032 9.1097 8.94409C9.72485 8.50328 10.1865 7.88086 10.4297 7.16424C10.673 6.44762 10.6857 5.6728 10.466 4.94861C10.2463 4.22441 9.8053 3.58722 9.2049 3.12652C8.60451 2.66581 7.87488 2.40475 7.11851 2.37999C6.36213 2.35523 5.61699 2.56801 4.98775 2.98846C4.35851 3.4089 3.87677 4.01589 3.6102 4.72417C3.42501 5.2162 3.35012 5.73995 3.38732 6.25896C3.41452 6.63853 3.20349 7.01727 2.83592 7.11576Z" fill="#242424"/>
</g>
<defs>
<clipPath id="clip0">
<rect width="12" height="12" fill="white"/>
</clipPath>
</defs>
</svg>
