<svg width="16" height="16" viewBox="0 0 16 16" fill="none" xmlns="http://www.w3.org/2000/svg">
<g clip-path="url(#clip0)">
<circle cx="8" cy="8" r="1" fill="#FFBC00"/>
<path d="M11.4 8C11.4 10.1362 10.9658 12.0405 10.2918 13.3885C9.5998 14.7725 8.75487 15.4 8 15.4C7.24513 15.4 6.4002 14.7725 5.70823 13.3885C5.03421 12.0405 4.6 10.1362 4.6 8C4.6 5.86381 5.03421 3.95952 5.70823 2.61147C6.4002 1.22754 7.24513 0.6 8 0.6C8.75487 0.6 9.5998 1.22754 10.2918 2.61147C10.9658 3.95952 11.4 5.86381 11.4 8Z" stroke="#FFBC00" stroke-width="1.2"/>
<path d="M9.70002 10.9445C7.85003 12.0126 5.98376 12.5887 4.4793 12.679C2.9348 12.7717 1.96887 12.3537 1.59143 11.7C1.214 11.0463 1.335 10.0007 2.18753 8.70952C3.01796 7.45178 4.45003 6.1236 6.30002 5.0555C8.15001 3.98741 10.0163 3.4113 11.5207 3.321C13.0652 3.22829 14.0312 3.64625 14.4086 4.29999C14.786 4.95373 14.665 5.99923 13.8125 7.29046C12.9821 8.5482 11.55 9.87638 9.70002 10.9445Z" stroke="#FFBC00" stroke-width="1.2"/>
<path d="M6.30002 10.9445C4.45002 9.87638 3.01796 8.5482 2.18753 7.29046C1.335 5.99923 1.214 4.95373 1.59143 4.29999C1.96887 3.64625 2.9348 3.22829 4.4793 3.32099C5.98376 3.4113 7.85003 3.98741 9.70002 5.0555C11.55 6.1236 12.9821 7.45178 13.8125 8.70952C14.665 10.0007 14.786 11.0463 14.4086 11.7C14.0312 12.3537 13.0652 12.7717 11.5207 12.679C10.0163 12.5887 8.15001 12.0126 6.30002 10.9445Z" stroke="#FFBC00" stroke-width="1.2"/>
</g>
<defs>
<clipPath id="clip0">
<rect width="16" height="16" fill="white"/>
</clipPath>
</defs>
</svg>
