<svg width="16" height="16" viewBox="0 0 16 16" fill="none" xmlns="http://www.w3.org/2000/svg">
<g clip-path="url(#clip0)">
<path fill-rule="evenodd" clip-rule="evenodd" d="M6.99996 6.76667C8.48192 6.76667 9.68329 5.5653 9.68329 4.08333C9.68329 2.60137 8.48192 1.4 6.99996 1.4C5.518 1.4 4.31663 2.60137 4.31663 4.08333C4.31663 5.5653 5.518 6.76667 6.99996 6.76667ZM8.0943 8.01837C9.81805 7.54003 11.0833 5.95944 11.0833 4.08333C11.0833 1.82817 9.25512 0 6.99996 0C4.7448 0 2.91663 1.82817 2.91663 4.08333C2.91663 5.95945 4.18189 7.54004 5.90566 8.01838C2.55948 8.54372 0 11.4396 0 14.9333V23.1H1.4V14.9333C1.4 11.8405 3.9072 9.33333 7 9.33333C8.38454 9.33333 9.65173 9.83579 10.6292 10.6683C10.7653 10.7843 10.9861 10.6914 10.9861 10.5126V9.28299C10.9861 9.21744 10.9541 9.15589 10.8997 9.11933C10.0726 8.56349 9.12045 8.17946 8.0943 8.01837ZM12.5 9C12.1134 9 11.8 9.3134 11.8 9.7V11.8H9.7C9.3134 11.8 9 12.1134 9 12.5C9 12.8866 9.3134 13.2 9.7 13.2H11.8V15.3C11.8 15.6866 12.1134 16 12.5 16C12.8866 16 13.2 15.6866 13.2 15.3V13.2H15.3C15.6866 13.2 16 12.8866 16 12.5C16 12.1134 15.6866 11.8 15.3 11.8H13.2V9.7C13.2 9.3134 12.8866 9 12.5 9Z" fill="black"/>
</g>
<defs>
<clipPath id="clip0">
<rect width="16" height="16" fill="white"/>
</clipPath>
</defs>
</svg>
