<svg width="16" height="16" viewBox="0 0 16 16" fill="none" xmlns="http://www.w3.org/2000/svg">
  <path d="M8 7.21739V15M8 7.21739L1 3.82609M8 7.21739L8.875 6.79348M8 15L14.7744 11.718C14.9124 11.6512 15 11.5113 15 11.358V7M8 15L1.2256 11.718C1.08763 11.6512 1 11.5113 1 11.358V3.82609M1 3.82609L4.48016 2.42105L6.22024 1.71854L7.09028 1.36728" stroke="black" stroke-width="1.5" stroke-linecap="round"/>
  <path fill-rule="evenodd" clip-rule="evenodd" d="M14.5199 4.07616C14.8381 4.34133 15.311 4.29834 15.5762 3.98013C15.8414 3.66192 15.7984 3.189 15.4802 2.92383L12.4802 0.423827L12 0.0237122L11.5199 0.423827L8.51988 2.92383C8.20167 3.189 8.15868 3.66192 8.42385 3.98013C8.68903 4.29834 9.16195 4.34133 9.48016 4.07616L11.25 2.60127V7.24999C11.25 7.66421 11.5858 7.99999 12 7.99999C12.4142 7.99999 12.75 7.66421 12.75 7.24999V2.60127L14.5199 4.07616Z" fill="black"/>
</svg>
