<?xml version="1.0" encoding="UTF-8"?>
<svg width="49px" height="49px" viewBox="0 0 49 49" version="1.1" xmlns="http://www.w3.org/2000/svg" xmlns:xlink="http://www.w3.org/1999/xlink">
    <title>93d28681-59ce-4043-9224-01fd21b35240@1.00x</title>
    <g id="Symbols" stroke="none" stroke-width="1" fill="none" fill-rule="evenodd">
        <g id="element/Avatar-New-User">
            <circle id="Oval" fill="#616168" cx="24.5" cy="24.5" r="24.5"></circle>
            <g id="Group-8" transform="translate(16.500000, 14.000000)" fill="#DBDBDF">
                <path d="M8.1,2.7 C6.9832125,2.7 6.075,3.6072 6.075,4.725 C6.075,5.8417875 6.9832125,6.75 8.1,6.75 C9.2167875,6.75 10.125,5.8417875 10.125,4.725 C10.125,3.6072 9.2167875,2.7 8.1,2.7 M8.1,8.775 C5.866425,8.775 4.05,6.958575 4.05,4.725 C4.05,2.491425 5.866425,0.675 8.1,0.675 C10.333575,0.675 12.15,2.491425 12.15,4.725 C12.15,6.958575 10.333575,8.775 8.1,8.775" id="Fill-1"></path>
                <g id="Group-5" transform="translate(0.000000, 9.787500)">
                    <path d="M2.18568375,5.0625 L14.0147213,5.0625 C13.4082338,3.2319 11.1452963,2.025 8.09969625,2.025 C5.05409625,2.025 2.79115875,3.2319 2.18568375,5.0625 L2.18568375,5.0625 Z M16.1996962,7.0875 L-0.00030375,7.0875 L-0.00030375,6.075 C-0.00030375,2.4978375 3.33082125,0 8.09969625,0 C12.8695837,0 16.1996962,2.4978375 16.1996962,6.075 L16.1996962,7.0875 Z" id="Fill-3"></path>
                </g>
            </g>
        </g>
    </g>
</svg>