<?xml version="1.0" encoding="UTF-8"?>
<svg width="20px" height="18px" viewBox="0 0 20 18" version="1.1" xmlns="http://www.w3.org/2000/svg" xmlns:xlink="http://www.w3.org/1999/xlink">
    <title>1D28C7F9-DC44-4EEE-9009-D20D63917858@1.00x</title>
    <defs>
        <polygon id="path-1" points="0 0 14.39973 0 14.39973 6.3 0 6.3"></polygon>
    </defs>
    <g id="Beta-UI" stroke="none" stroke-width="1" fill="none" fill-rule="evenodd">
        <g id="User-Dropdown" transform="translate(-34.000000, -35.000000)">
            <g id="icon/user-plus" transform="translate(34.000000, 35.000000)">
                <g id="Group-8">
                    <path d="M7.2,5.4 C6.2073,5.4 5.4,6.2064 5.4,7.2 C5.4,8.1927 6.2073,9 7.2,9 C8.1927,9 9,8.1927 9,7.2 C9,6.2064 8.1927,5.4 7.2,5.4 M7.2,10.8 C5.2146,10.8 3.6,9.1854 3.6,7.2 C3.6,5.2146 5.2146,3.6 7.2,3.6 C9.1854,3.6 10.8,5.2146 10.8,7.2 C10.8,9.1854 9.1854,10.8 7.2,10.8" id="Fill-1" fill="#7B7B82"></path>
                    <g id="Group-5" transform="translate(0.000000, 11.700000)">
                        <mask id="mask-2" fill="white">
                            <use xlink:href="#path-1"></use>
                        </mask>
                        <g id="Clip-4"></g>
                        <path d="M1.94283,4.5 L12.45753,4.5 C11.91843,2.8728 9.90693,1.8 7.19973,1.8 C4.49253,1.8 2.48103,2.8728 1.94283,4.5 L1.94283,4.5 Z M14.39973,6.3 L-0.00027,6.3 L-0.00027,5.4 C-0.00027,2.2203 2.96073,0 7.19973,0 C11.43963,0 14.39973,2.2203 14.39973,5.4 L14.39973,6.3 Z" id="Fill-3" fill="#7B7B82" mask="url(#mask-2)"></path>
                    </g>
                    <polygon id="Fill-6" fill="#7B7B82" points="19.8 2.7 17.1 2.7 17.1 0 15.3 0 15.3 2.7 12.6 2.7 12.6 4.5 15.3 4.5 15.3 7.2 17.1 7.2 17.1 4.5 19.8 4.5"></polygon>
                </g>
            </g>
        </g>
    </g>
</svg>