<svg width="16" height="16" viewBox="0 0 16 16" fill="none" xmlns="http://www.w3.org/2000/svg">
    <path d="M13.0001 5.75H10.6001C9.6336 5.75 8.8501 4.9665 8.8501 4V1.5L9.6001 0L14.5001 5L13.0001 5.75Z"
        fill="black" />
    <path
        d="M2.25 5.5V3.5V1.45C2.25 1.0634 2.5634 0.75 2.95 0.75H9.25L13.75 5.25V5.5M2.25 14V14.55C2.25 14.9366 2.5634 15.25 2.95 15.25H13.05C13.4366 15.25 13.75 14.9366 13.75 14.55V14"
        stroke="black" stroke-width="1.5" stroke-linecap="round" />
    <path
        d="M5.19714 11.6659C5.33901 12.0202 5.07809 12.4057 4.69644 12.4057C4.47324 12.4057 4.27309 12.2682 4.19301 12.0599L3.86187 11.1984H1.73728L1.4245 12.0592C1.34891 12.2672 1.15123 12.4057 0.929891 12.4057C0.559626 12.4057 0.305139 12.0335 0.439521 11.6885L2.03185 7.60029C2.15154 7.293 2.44753 7.09064 2.7773 7.09064H2.82374C3.15077 7.09064 3.44486 7.28968 3.56642 7.59326L5.19714 11.6659ZM3.51744 10.3029L2.87976 8.58558C2.84737 8.49836 2.72386 8.49876 2.69204 8.58619L2.06721 10.3029H3.51744Z"
        fill="black" />
    <path
        d="M5.76109 11.2143C5.66669 10.9269 5.89317 10.6523 6.19423 10.623C6.47424 10.5958 6.71253 10.7973 6.84077 11.0477C6.90277 11.1687 6.9794 11.2685 7.07065 11.3471C7.26401 11.5114 7.52385 11.5936 7.85015 11.5936C8.19579 11.5936 8.45562 11.5211 8.62965 11.3761C8.80609 11.2286 8.89431 11.057 8.89431 10.8612C8.89431 10.7356 8.85685 10.6292 8.78192 10.5422C8.70941 10.4528 8.58131 10.3754 8.39761 10.3102C8.27192 10.2666 7.9855 10.1893 7.53835 10.0781C6.96309 9.93551 6.55944 9.76027 6.32741 9.55241C6.0011 9.25994 5.83795 8.90343 5.83795 8.48286C5.83795 8.21215 5.91409 7.95957 6.06636 7.72512C6.22106 7.48824 6.44222 7.30817 6.72985 7.1849C7.01989 7.06163 7.36916 7 7.77764 7C8.44474 7 8.94628 7.14623 9.28225 7.43869C9.48065 7.61017 9.6238 7.81529 9.71169 8.05407C9.82027 8.34905 9.56217 8.62087 9.24814 8.63466C8.95913 8.64735 8.73531 8.41983 8.56129 8.18874C8.5267 8.14281 8.48785 8.10308 8.44474 8.06955C8.29489 7.94869 8.06889 7.88827 7.76676 7.88827C7.45496 7.88827 7.21084 7.95232 7.03439 8.08042C6.92079 8.1626 6.86399 8.27258 6.86399 8.41035C6.86399 8.53604 6.91717 8.64359 7.02352 8.73303C7.15887 8.84663 7.48759 8.96506 8.00967 9.08833C8.53176 9.2116 8.91728 9.33971 9.16623 9.47264C9.41761 9.60316 9.61339 9.78323 9.75358 10.0129C9.89618 10.2401 9.96748 10.5216 9.96748 10.8576C9.96748 11.1622 9.88289 11.4474 9.71369 11.7132C9.5445 11.9791 9.30521 12.1773 8.99583 12.3078C8.68645 12.4359 8.30093 12.5 7.83927 12.5C7.16733 12.5 6.65129 12.3453 6.29115 12.0359C6.04878 11.8261 5.87209 11.5522 5.76109 11.2143Z"
        fill="black" />
    <path
        d="M11.2058 12.4057C10.9304 12.4057 10.7072 12.1825 10.7072 11.9072V7.89064C10.7072 7.44881 11.0654 7.09064 11.5072 7.09064H11.6984C12.061 7.09064 12.3783 7.33455 12.4715 7.68499L13.2778 10.7162L14.0744 7.68716C14.1669 7.33565 14.4847 7.09064 14.8481 7.09064H15.0411C15.4829 7.09064 15.8411 7.44881 15.8411 7.89064V11.9072C15.8411 12.1825 15.6179 12.4057 15.3425 12.4057C15.0672 12.4057 14.844 12.1825 14.844 11.9072V8.22182L13.9153 11.905C13.841 12.1994 13.5762 12.4057 13.2726 12.4057C12.9687 12.4057 12.7038 12.1991 12.6297 11.9045L11.7043 8.22182V11.9072C11.7043 12.1825 11.4811 12.4057 11.2058 12.4057Z"
        fill="black" />
</svg>