<svg width="16" height="16" viewBox="0 0 16 16" fill="none" xmlns="http://www.w3.org/2000/svg">
<path d="M15.25 7V13.5C15.25 14.1904 14.6904 14.75 14 14.75H2C1.30964 14.75 0.75 14.1904 0.75 13.5V2.5C0.75 1.80964 1.30964 1.25 2 1.25H6C6.69036 1.25 7.25 1.80964 7.25 2.5V4" stroke="black" stroke-width="1.5" stroke-linecap="round"/>
<rect x="3" y="7" width="7" height="1.5" rx="0.75" fill="black"/>
<rect x="3" y="10" width="6" height="1.5" rx="0.75" fill="black"/>
<path fill-rule="evenodd" clip-rule="evenodd" d="M11.75 6.25C11.75 6.66421 12.0858 7 12.5 7C12.9142 7 13.25 6.66421 13.25 6.25V4.25H15.25C15.6642 4.25 16 3.91421 16 3.5C16 3.08579 15.6642 2.75 15.25 2.75H13.25V0.75C13.25 0.335786 12.9142 0 12.5 0C12.0858 0 11.75 0.335787 11.75 0.75V2.75H9.75C9.33579 2.75 9 3.08579 9 3.5C9 3.91421 9.33579 4.25 9.75 4.25H11.75V6.25Z" fill="black"/>
</svg>
