<?xml version="1.0" encoding="UTF-8"?>
<svg width="16px" height="16px" viewBox="0 0 16 16" version="1.1" xmlns="http://www.w3.org/2000/svg" xmlns:xlink="http://www.w3.org/1999/xlink">
    <title>54393CFB-45D4-4D0E-A4A5-962A335B8F19@1.00x</title>
    <g id="Beta-UI" stroke="none" stroke-width="1" fill="none" fill-rule="evenodd">
        <g id="User-Dropdown" transform="translate(-34.000000, -70.000000)" fill="#7B7B82">
            <g id="icon/pencil" transform="translate(34.000000, 70.000000)">
                <g id="Group-3">
                    <path d="M13.9264516,2.0747786 C14.5376158,2.68674279 14.5376158,3.75388036 13.9264516,4.36584456 L13.3512852,4.94181086 L11.0586193,2.64994495 L11.6353856,2.0747786 C12.2473498,1.46361435 13.3144874,1.4628144 13.9264516,2.0747786 L13.9264516,2.0747786 Z M1.90075513,14.0996751 L2.37672728,12.2005862 L3.79984402,13.6253028 L1.90075513,14.0996751 Z M9.92828547,3.78187872 L12.2185515,6.07214473 L5.36455248,12.9261437 L3.07428647,10.6358777 L9.92828547,3.78187872 Z M15.0559855,0.942844821 C14.448021,0.334080437 13.6392684,-0.0003 12.7785187,-0.0003 C11.919369,-0.0003 11.1098163,0.334080437 10.5018519,0.942844821 L1.37598583,10.0687109 C1.37598583,10.0687109 1.37438592,10.0711108 1.37358597,10.0719107 C1.30878976,10.1375069 1.19759627,10.3102968 1.16479819,10.4406891 L0.0240649241,15.0044221 C-0.0447310509,15.2764062 0.0360642221,15.5651893 0.234452615,15.7635777 L0.235252569,15.7643777 L0.236852475,15.7651776 C0.435240868,15.963566 0.72322402,16.0443613 0.99600806,15.9763653 L5.5589411,14.8348321 C5.68933348,14.802034 5.86292332,14.6908405 5.92771953,14.6260443 C5.92851948,14.6252443 5.93091934,14.6244444 5.93091934,14.6244444 L15.0575854,5.49777833 C15.6655498,4.8898139 16.0007302,4.08106122 15.9999317,3.22111153 C15.9999317,2.36036189 15.6655498,1.55240916 15.0575854,0.943644774 L15.0559855,0.942844821 Z" id="Fill-1"></path>
                </g>
            </g>
        </g>
    </g>
</svg>