<svg width="12" height="12" viewBox="0 0 12 12" fill="none" xmlns="http://www.w3.org/2000/svg">
<path d="M2.5 2.3C1.56112 2.3 0.8 3.06112 0.8 4V9C0.8 9.93888 1.56112 10.7 2.5 10.7H9.5C10.4389 10.7 11.2 9.93888 11.2 9V4C11.2 3.06112 10.4389 2.3 9.5 2.3H8.05902C7.98155 2.3 7.91074 2.25623 7.8761 2.18695C7.60431 1.64337 7.04873 1.3 6.44098 1.3H6H5.55902C4.95127 1.3 4.39569 1.64337 4.1239 2.18695C4.08926 2.25623 4.01845 2.3 3.94098 2.3H2.5Z" stroke="#242424" stroke-width="1.4"/>
<path d="M0.599609 6H4.19961" stroke="#242424"/>
<path d="M7.7998 6L11.3998 6" stroke="#242424"/>
<path d="M7.89961 6.4C7.89961 7.44934 7.04895 8.3 5.99961 8.3C4.95027 8.3 4.09961 7.44934 4.09961 6.4C4.09961 5.35066 4.95027 4.5 5.99961 4.5C7.04895 4.5 7.89961 5.35066 7.89961 6.4Z" stroke="#242424"/>
</svg>
