<svg width="16" height="16" viewBox="0 0 16 16" fill="none" xmlns="http://www.w3.org/2000/svg">
<path d="M2.28006 10.3305L4.2146 11.4474L4.04403 11.7428C3.33178 12.9765 3.75633 14.5608 4.98997 15.2731C6.22465 15.9859 7.809 15.5614 8.52125 14.3277L8.69181 14.0323L10.6263 15.1492C11.1999 15.4803 11.9077 15.4707 12.4714 15.1224C13.0362 14.7748 13.3621 14.1466 13.3233 13.4845L13.1495 10.5249L14.1287 8.82875C15.1539 7.05314 14.879 4.8827 13.6069 3.41357L14.0316 2.67806C14.4539 1.94663 14.2024 1.00824 13.471 0.585943C12.7396 0.163648 11.8012 0.415087 11.3789 1.14652L10.9542 1.88203C9.04582 1.51504 7.0282 2.36312 6.00363 4.13772L5.02436 5.83387L2.37435 7.16308C1.78155 7.46056 1.40157 8.05752 1.38184 8.71983C1.3611 9.38157 1.70551 9.99876 2.28006 10.3305ZM7.99865 14.026C7.45226 14.9724 6.23748 15.2979 5.29008 14.7509C4.3437 14.2045 4.0182 12.9897 4.5646 12.0433L4.73516 11.7479L8.16924 13.7306L7.99865 14.026ZM11.8999 1.44607C12.1558 1.00293 12.7252 0.849499 13.1693 1.10593C13.6125 1.36177 13.7659 1.93118 13.5095 2.37534L13.1689 2.96516C12.9392 2.76323 12.6867 2.57944 12.4106 2.42005C12.1356 2.26125 11.8502 2.13451 11.5594 2.03589L11.8999 1.44607ZM2.64305 7.6998L5.45493 6.29018L6.52479 4.43714C7.65169 2.48529 10.1573 1.81306 12.1102 2.94054C14.0631 4.06803 14.7343 6.57309 13.6068 8.52594L12.5369 10.379L12.7221 13.5189C12.7473 13.96 12.5309 14.377 12.1555 14.6085C11.7801 14.84 11.3101 14.8471 10.9271 14.6259L2.58123 9.80881C2.19923 9.58826 1.96935 9.17709 1.98211 8.73624C1.99546 8.29435 2.24853 7.8985 2.64305 7.6998Z" fill="black"/>
<path fill-rule="evenodd" clip-rule="evenodd" d="M13.3233 13.4845C13.3621 14.1466 13.0362 14.7747 12.4714 15.1224C11.9077 15.4707 11.1999 15.4803 10.6264 15.1492L8.69181 14.0323L8.52125 14.3277C7.809 15.5614 6.22465 15.9859 4.98997 15.2731C3.75648 14.5609 3.33188 12.9769 4.04377 11.7433C4.04386 11.7431 4.04368 11.7434 4.04377 11.7433L4.2146 11.4474L2.28006 10.3305C1.70551 9.99875 1.3611 9.38156 1.38184 8.71983C1.40156 8.05751 1.78155 7.46055 2.37435 7.16307L5.02436 5.83386L6.00363 4.13771C7.0282 2.36312 9.04582 1.51504 10.9542 1.88203L11.3789 1.14652C11.8012 0.415085 12.7396 0.163645 13.471 0.585941C14.2024 1.00824 14.4539 1.94662 14.0316 2.67806L13.6069 3.41357C14.879 4.8827 15.1539 7.05314 14.1287 8.82875L13.1495 10.5249L13.3233 13.4845ZM13.5365 10.6165L13.7036 13.4621C13.7506 14.2637 13.3557 15.0254 12.6711 15.4468C11.988 15.8686 11.1303 15.88 10.4359 15.4791L8.83102 14.5525C8.00414 15.942 6.20476 16.4143 4.79949 15.603C3.39516 14.7922 2.90465 12.9977 3.69444 11.5869L2.08958 10.6604C1.394 10.2588 0.976029 9.51063 1.00106 8.7082C1.02506 7.90626 1.48544 7.18292 2.20349 6.82259L4.75153 5.54453L5.67372 3.94724C6.73408 2.11065 8.7761 1.19315 10.756 1.46354L11.049 0.956047C11.5765 0.0424042 12.7478 -0.271463 13.6615 0.256029C14.5751 0.78352 14.889 1.95489 14.3615 2.86853L14.0685 3.37601C15.2926 4.95523 15.5196 7.18162 14.4587 9.01922L13.5365 10.6165ZM5.45493 6.29018L2.64305 7.6998C2.24853 7.8985 1.99546 8.29435 1.98211 8.73624C1.96935 9.17709 2.19923 9.58826 2.58123 9.80881L10.9271 14.6259C11.3101 14.8471 11.7801 14.84 12.1555 14.6085C12.5309 14.377 12.7473 13.96 12.7221 13.5189L12.5369 10.379L13.6068 8.52594C14.7343 6.57309 14.0631 4.06803 12.1102 2.94054C10.1573 1.81306 7.65169 2.48528 6.52478 4.43714L5.45493 6.29018ZM12.3418 13.5406C12.3418 13.5405 12.3418 13.5408 12.3418 13.5406L12.1499 10.2874L13.2769 8.33546C14.2992 6.56482 13.6904 4.29274 11.9197 3.27045C10.1491 2.2482 7.87644 2.8579 6.8547 4.62761L5.72774 6.57956L2.81441 8.04003C2.81427 8.0401 2.81455 8.03996 2.81441 8.04003C2.5446 8.1761 2.37209 8.44602 2.36289 8.74751C2.35428 9.04804 2.51084 9.32827 2.77167 9.47887C2.77168 9.47888 2.77165 9.47887 2.77167 9.47887L11.1175 14.296C11.3793 14.4471 11.6994 14.4422 11.9556 14.2842C12.2111 14.1267 12.3589 13.8427 12.3418 13.5406ZM8.16924 13.7306L7.99865 14.026C7.992 14.0375 7.98525 14.0489 7.9784 14.0603C7.42272 14.9802 6.22594 15.2912 5.29008 14.7509C4.35522 14.2112 4.02622 13.0192 4.54503 12.078C4.55142 12.0664 4.55794 12.0549 4.5646 12.0433L4.73516 11.7479L8.16924 13.7306ZM7.6484 13.8698L4.87502 12.2686C4.46136 13.0275 4.72791 13.9864 5.48056 14.421C6.23433 14.8562 7.19804 14.6074 7.6484 13.8698ZM12.9789 1.43584C12.7172 1.28476 12.3806 1.37534 12.2298 1.63654L12.1112 1.84198C12.2769 1.91495 12.4405 1.99744 12.6011 2.09014C12.7619 2.18298 12.9151 2.28337 13.061 2.39022L13.1796 2.18486C13.3306 1.92318 13.2401 1.58664 12.9789 1.43584ZM13.5095 2.37533C13.7659 1.93118 13.6125 1.36177 13.1693 1.10593C12.7252 0.849496 12.1558 1.00293 11.8999 1.44606L11.5594 2.03589C11.6805 2.07696 11.8007 2.12291 11.9195 2.17402C12.0861 2.24563 12.2501 2.32738 12.4106 2.42005C12.5715 2.51291 12.7243 2.61406 12.8693 2.72225C12.9732 2.79975 13.073 2.88088 13.1689 2.96516L13.5095 2.37533Z" fill="black"/>
</svg>
