<svg width="14" height="11" viewBox="0 0 14 11" fill="none" xmlns="http://www.w3.org/2000/svg">
<path d="M4.62377 8.50319L4.61757 8.50938C4.37688 8.75007 4.37731 9.14034 4.6185 9.38153C4.85969 9.62272 5.25045 9.62266 5.49065 9.38246L5.49732 9.37579L12.826 2.04707L12.8322 2.04087C13.0729 1.80019 13.0725 1.40992 12.8313 1.16873C12.5901 0.927538 12.1998 0.927123 11.9592 1.1678L11.9525 1.17447L4.62377 8.50319Z" fill="black"/>
<path fill-rule="evenodd" clip-rule="evenodd" d="M4.58389 7.81087L11.5931 0.8017C12.0367 0.358105 12.7547 0.359994 13.1974 0.80263C13.64 1.24526 13.6419 1.96334 13.1983 2.40695L6.18914 9.41612C5.74628 9.85898 5.02772 9.85809 4.58482 9.41519C4.14219 8.97256 4.14028 8.25448 4.58389 7.81087ZM4.94998 8.17696L11.9591 1.16779C12.1998 0.927111 12.5901 0.927526 12.8313 1.16872C13.0725 1.4099 13.0729 1.80018 12.8322 2.04086L5.82306 9.05003C5.58286 9.29023 5.1921 9.29029 4.95091 9.0491C4.70972 8.80791 4.70929 8.41764 4.94998 8.17696Z" fill="black"/>
<path d="M1.94574 4.29779L1.93955 4.2916C1.69886 4.05091 1.30859 4.05134 1.0674 4.29252C0.826211 4.53371 0.82627 4.92447 1.06647 5.16467L1.07314 5.17135L5.02692 9.12512L5.03312 9.13132C5.27381 9.37201 5.66408 9.37158 5.90527 9.13039C6.14645 8.8892 6.14687 8.49892 5.90619 8.25825L5.89952 8.25157L1.94574 4.29779Z" fill="black"/>
<path fill-rule="evenodd" clip-rule="evenodd" d="M2.40695 4.02684L6.17425 7.79414C6.61785 8.23774 6.61596 8.95582 6.17332 9.39846C5.73069 9.84109 5.01262 9.84301 4.569 9.39939L0.8017 5.63209C0.358841 5.18923 0.359734 4.47066 0.80263 4.02777C1.24526 3.58514 1.96334 3.58323 2.40695 4.02684ZM2.04086 4.39293L5.80817 8.16023C6.04884 8.4009 6.04843 8.79119 5.80724 9.03238C5.56605 9.27356 5.17578 9.27399 4.93509 9.0333L1.16779 5.266C0.927587 5.0258 0.927528 4.63504 1.16872 4.39385C1.40991 4.15267 1.80018 4.15224 2.04086 4.39293Z" fill="black"/>
</svg>
