<svg width="13" height="12" viewBox="0 0 13 12" fill="none" xmlns="http://www.w3.org/2000/svg">
<path d="M3 2.3C2.06112 2.3 1.3 3.06112 1.3 4V9C1.3 9.93888 2.06112 10.7 3 10.7H10C10.9389 10.7 11.7 9.93888 11.7 9V4C11.7 3.06112 10.9389 2.3 10 2.3H8.55902C8.48155 2.3 8.41074 2.25623 8.3761 2.18695C8.10431 1.64337 7.54873 1.3 6.94098 1.3H6.5H6.05902C5.45127 1.3 4.89569 1.64337 4.6239 2.18695C4.58926 2.25623 4.51845 2.3 4.44098 2.3H3Z" stroke="#242424" stroke-width="1.4"/>
<path d="M1.09961 6H4.69961" stroke="#242424"/>
<path d="M8.2998 6L11.8998 6" stroke="#242424"/>
<path d="M8.39961 6.4C8.39961 7.44934 7.54895 8.3 6.49961 8.3C5.45027 8.3 4.59961 7.44934 4.59961 6.4C4.59961 5.35066 5.45027 4.5 6.49961 4.5C7.54895 4.5 8.39961 5.35066 8.39961 6.4Z" stroke="#242424"/>
</svg>
