<svg width="34" height="16" viewBox="0 0 34 16" fill="none" xmlns="http://www.w3.org/2000/svg">
<path d="M0 4C0 1.79086 1.79086 0 4 0H30C32.2091 0 34 1.79086 34 4V12C34 14.2091 32.2091 16 30 16H4C1.79086 16 0 14.2091 0 12V4Z" fill="black"/>
<path d="M14.576 10.056H10.376L9.548 12H7.94L11.72 3.6H13.256L17.048 12H15.416L14.576 10.056ZM14.06 8.832L12.476 5.16L10.904 8.832H14.06ZM23.3723 12L21.6563 9.54C21.5843 9.548 21.4763 9.552 21.3323 9.552H19.4363V12H17.8763V3.6H21.3323C22.0603 3.6 22.6923 3.72 23.2283 3.96C23.7723 4.2 24.1883 4.544 24.4763 4.992C24.7643 5.44 24.9083 5.972 24.9083 6.588C24.9083 7.22 24.7523 7.764 24.4403 8.22C24.1363 8.676 23.6963 9.016 23.1203 9.24L25.0523 12H23.3723ZM23.3363 6.588C23.3363 6.052 23.1603 5.64 22.8083 5.352C22.4563 5.064 21.9403 4.92 21.2603 4.92H19.4363V8.268H21.2603C21.9403 8.268 22.4563 8.124 22.8083 7.836C23.1603 7.54 23.3363 7.124 23.3363 6.588Z" fill="#E8E8E8"/>
<path d="M4 1.4H30V-1.4H4V1.4ZM32.6 4V12H35.4V4H32.6ZM30 14.6H4V17.4H30V14.6ZM1.4 12V4H-1.4V12H1.4ZM4 14.6C2.56406 14.6 1.4 13.4359 1.4 12H-1.4C-1.4 14.9823 1.01766 17.4 4 17.4V14.6ZM32.6 12C32.6 13.4359 31.4359 14.6 30 14.6V17.4C32.9823 17.4 35.4 14.9823 35.4 12H32.6ZM30 1.4C31.4359 1.4 32.6 2.56406 32.6 4H35.4C35.4 1.01766 32.9823 -1.4 30 -1.4V1.4ZM4 -1.4C1.01766 -1.4 -1.4 1.01766 -1.4 4H1.4C1.4 2.56406 2.56406 1.4 4 1.4V-1.4Z" fill="black"/>
</svg>
