<?xml version="1.0" encoding="UTF-8"?>
<svg width="20px" height="19px" viewBox="0 0 20 19" version="1.1" xmlns="http://www.w3.org/2000/svg" xmlns:xlink="http://www.w3.org/1999/xlink">
    <title>5b6cfeaa-36ee-42bb-8b3f-c4e310276d47@1.00x</title>
    <defs>
        <polygon id="path-1" points="0 0 14.39973 0 14.39973 6.3 0 6.3"></polygon>
    </defs>
    <g id="Symbols" stroke="none" stroke-width="1" fill="none" fill-rule="evenodd">
        <g id="Group-8" transform="translate(3.000000, 3.000000)">
            <path d="M7.2,2.4 C6.2073,2.4 5.4,3.2064 5.4,4.2 C5.4,5.1927 6.2073,6 7.2,6 C8.1927,6 9,5.1927 9,4.2 C9,3.2064 8.1927,2.4 7.2,2.4 M7.2,7.8 C5.2146,7.8 3.6,6.1854 3.6,4.2 C3.6,2.2146 5.2146,0.6 7.2,0.6 C9.1854,0.6 10.8,2.2146 10.8,4.2 C10.8,6.1854 9.1854,7.8 7.2,7.8" id="Fill-1" fill="#7B7B82"></path>
            <g id="Group-5" transform="translate(0.000000, 8.700000)">
                <mask id="mask-2" fill="white">
                    <use xlink:href="#path-1"></use>
                </mask>
                <g id="Clip-4"></g>
                <path d="M1.94283,4.5 L12.45753,4.5 C11.91843,2.8728 9.90693,1.8 7.19973,1.8 C4.49253,1.8 2.48103,2.8728 1.94283,4.5 L1.94283,4.5 Z M14.39973,6.3 L-0.00027,6.3 L-0.00027,5.4 C-0.00027,2.2203 2.96073,0 7.19973,0 C11.43963,0 14.39973,2.2203 14.39973,5.4 L14.39973,6.3 Z" id="Fill-3" fill="#7B7B82" mask="url(#mask-2)"></path>
            </g>
        </g>
    </g>
</svg>