<svg width="24" height="24" xmlns="http://www.w3.org/2000/svg">
  <path stroke="null" id="svg_1" d="m12,-0.00581c-6.63041,0 -12.00581,5.3754 -12.00581,12.00581s5.3754,12.00581 12.00581,12.00581c6.63041,0 12.00581,-5.3754 12.00581,-12.00581s-5.3754,-12.00581 -12.00581,-12.00581zm6.79369,16.00775c0.2145,-1.01169 0.35057,-2.08581 0.39379,-3.20155l3.18714,0c-0.08324,1.10614 -0.34097,2.17866 -0.76677,3.20155l-2.81416,0zm-13.58738,-8.00388c-0.2145,1.01169 -0.35057,2.08581 -0.39379,3.20155l-3.18714,0c0.08324,-1.10614 0.34097,-2.17866 0.76677,-3.20155l2.81416,0zm11.94659,0c0.24012,1.0245 0.38579,2.09702 0.43221,3.20155l-4.78472,0l0,-3.20155l4.35251,0zm-4.35251,-1.60078l0,-4.68547c0.36498,0.10565 0.72675,0.28494 1.08052,0.53466c0.66432,0.46903 1.30143,1.19098 1.83929,2.08741c0.37298,0.6211 0.69474,1.31103 0.96207,2.0634l-3.88348,0l0.0016,0zm-4.52059,-2.0634c0.53786,-0.89803 1.17497,-1.61998 1.83929,-2.08741c0.35537,-0.24972 0.71555,-0.42901 1.08052,-0.53466l0,4.68547l-3.88348,0c0.26893,-0.75236 0.59069,-1.4423 0.96207,-2.0634l0.0016,0zm2.91981,3.66417l0,3.20155l-4.78472,0c0.04642,-1.10453 0.19209,-2.17705 0.43221,-3.20155l4.35251,0zm-8.80747,8.00388c-0.42581,-1.0229 -0.68353,-2.09541 -0.76677,-3.20155l3.18714,0c0.04482,1.11574 0.17929,2.18986 0.39379,3.20155l-2.81416,0zm4.02275,-3.20155l4.78472,0l0,3.20155l-4.35251,0c-0.24012,-1.0245 -0.38579,-2.09702 -0.43221,-3.20155zm4.78472,4.80233l0,4.68547c-0.36498,-0.10565 -0.72675,-0.28494 -1.08052,-0.53466c-0.66432,-0.46903 -1.30143,-1.19098 -1.83929,-2.08741c-0.37298,-0.6211 -0.69474,-1.31103 -0.96367,-2.0634l3.88348,0zm4.52219,2.0634c-0.53786,0.89803 -1.17497,1.61998 -1.83929,2.08741c-0.35537,0.24972 -0.71555,0.42901 -1.08052,0.53466l0,-4.68547l3.88348,0c-0.26893,0.75236 -0.59069,1.4423 -0.96367,2.0634zm-2.92141,-3.66417l0,-3.20155l4.78472,0c-0.04642,1.10453 -0.19209,2.17705 -0.43221,3.20155l-4.35251,0zm6.38709,-4.80233c-0.04482,-1.11574 -0.17929,-2.18986 -0.39379,-3.20155l2.81416,0c0.42741,1.0229 0.68353,2.09541 0.76677,3.20155l-3.18714,0zm1.58317,-4.80233l-2.39796,0c-0.46583,-1.46951 -1.10934,-2.75814 -1.88411,-3.78743c1.06452,0.50905 2.02818,1.19098 2.86859,2.03298c0.53786,0.53786 1.01009,1.12374 1.41348,1.75445zm-16.12781,-1.75445c0.84201,-0.84201 1.80567,-1.52394 2.86859,-2.03298c-0.77317,1.0293 -1.41829,2.31792 -1.88411,3.78743l-2.39796,0c0.4034,-0.63071 0.87562,-1.21819 1.41348,-1.75445zm-1.41348,12.95988l2.39796,0c0.46583,1.46951 1.10934,2.75814 1.88411,3.78743c-1.06452,-0.50905 -2.02818,-1.19098 -2.86859,-2.03298c-0.53786,-0.53786 -1.01009,-1.12374 -1.41348,-1.75445zm16.12781,1.75445c-0.84201,0.84201 -1.80567,1.52394 -2.86859,2.03298c0.77317,-1.0293 1.41829,-2.31792 1.88411,-3.78743l2.39796,0c-0.4034,0.63071 -0.87562,1.21819 -1.41348,1.75445z"/>
</svg>