<svg width="12" height="13" viewBox="0 0 12 13" fill="none" xmlns="http://www.w3.org/2000/svg">
<g clip-path="url(#clip0)">
<path d="M10.9499 8.5C11.3365 8.5 11.6499 8.1866 11.6499 7.8C11.6499 7.4134 11.3365 7.1 10.9499 7.1H6.8865C5.48558 7.1 4.34991 5.96433 4.34991 4.56341C4.34991 4.52839 4.37831 4.5 4.41333 4.5H6.01766C6.35307 4.5 6.53954 4.11203 6.33001 3.85012L3.95749 0.884464C3.7989 0.686228 3.49815 0.683963 3.33659 0.879789L0.88992 3.84545C0.674688 4.10633 0.860259 4.5 1.19847 4.5H2.88434C2.92056 4.5 2.94991 4.52936 2.94991 4.56557C2.94991 6.7385 4.71142 8.5 6.88434 8.5H10.9499Z" fill="#999999"/>
</g>
<defs>
<clipPath id="clip0">
<rect width="12" height="12" fill="white" transform="translate(0 0.5)"/>
</clipPath>
</defs>
</svg>
