<?xml version="1.0" encoding="UTF-8"?>
<svg width="16" height="16" viewBox="0 0 16 16" fill="none" xmlns="http://www.w3.org/2000/svg">
<path d="M7.4128 3.13346L4.70699 6.01459L4.70698 6.01461C4.48275 6.25331 4.10971 6.2611 3.87468 6.0336L3.87414 6.03308C3.64134 5.80548 3.63362 5.43149 3.85575 5.19387L3.85599 5.19361L3.85599 5.19361L7.89082 0.897313L8.00016 0.780887L8.1095 0.897313L12.1443 5.19359C12.368 5.43164 12.3586 5.80581 12.1262 6.03308L12.1256 6.03367C12.0116 6.14389 11.8654 6.19929 11.7188 6.19929C11.5631 6.19929 11.4089 6.13686 11.2937 6.01495L11.2933 6.0146L8.58753 3.13346V10.7237C8.58753 11.0501 8.3273 11.3188 8.00029 11.3189L7.4128 3.13346ZM7.4128 3.13346V10.7237C7.4128 11.0501 7.67304 11.3188 8.00003 11.3189L7.4128 3.13346Z" fill="#FFBC00" stroke="#FFBC00" stroke-width="0.3"/>
<path d="M0.850044 10.253V12.1264C0.850044 13.8128 2.10691 15.1501 3.72413 15.1501H12.275C13.8931 15.1501 15.15 13.8128 15.15 12.1264V10.2039C15.15 9.87744 14.8896 9.60869 14.5625 9.60869C14.2354 9.60869 13.975 9.87744 13.975 10.2039V12.1264C13.975 13.1848 13.237 13.9597 12.2759 13.9597H3.72411C2.76304 13.9597 2.025 13.1848 2.025 12.1264V10.103C2.025 9.77658 1.76461 9.50784 1.4375 9.50784C1.11038 9.50784 0.85 9.77659 0.85 10.103V10.253H0.850044Z" fill="#FFBC00" stroke="#FFBC00" stroke-width="0.3"/>
</svg>
