<svg width="17" height="17" viewBox="0 0 17 17" fill="none" xmlns="http://www.w3.org/2000/svg">
<g>
<path fill-rule="evenodd" clip-rule="evenodd" d="M16.9415 13.7148V5.34438C16.9415 4.01889 15.867 2.94438 14.5415 2.94438H11.9623L11.8849 2.78958C11.4783 1.9765 10.6473 1.46289 9.73826 1.46289H8.01135C7.10229 1.46289 6.27126 1.9765 5.86472 2.78958L5.78732 2.94438H3.20811C1.88262 2.94438 0.808105 4.01889 0.808105 5.34438V13.7148C0.808105 15.0403 1.88262 16.1148 3.2081 16.1148H14.5415C15.867 16.1148 16.9415 15.0403 16.9415 13.7148ZM2.20811 5.34438C2.20811 4.79209 2.65582 4.34438 3.20811 4.34438H6.03454C6.41331 4.34438 6.75957 4.13038 6.92896 3.79159L7.11692 3.41568C7.28631 3.07689 7.63258 2.86289 8.01135 2.86289H9.73826C10.117 2.86289 10.4633 3.07689 10.6327 3.41568L10.8206 3.79159C10.99 4.13038 11.3363 4.34438 11.7151 4.34438H14.5415C15.0938 4.34438 15.5415 4.79209 15.5415 5.34438V8.28877L12.2594 8.28877C11.7984 6.85968 10.4574 5.82587 8.87491 5.82587C7.29243 5.82587 5.95141 6.85968 5.49039 8.28877H2.20811V5.34438ZM5.32052 9.28877C5.31973 9.31957 5.31934 9.35046 5.31934 9.38144C5.31934 11.3451 6.91122 12.937 8.87491 12.937C10.8386 12.937 12.4305 11.3451 12.4305 9.38144C12.4305 9.35046 12.4301 9.31957 12.4293 9.28877L15.5415 9.28877V13.7148C15.5415 14.2671 15.0938 14.7148 14.5415 14.7148H3.2081C2.65582 14.7148 2.20811 14.2671 2.20811 13.7148V9.28877H5.32052ZM11.0305 9.38144C11.0305 10.5719 10.0654 11.537 8.87491 11.537C7.68442 11.537 6.71934 10.5719 6.71934 9.38144C6.71934 8.19095 7.68442 7.22587 8.87491 7.22587C10.0654 7.22587 11.0305 8.19095 11.0305 9.38144Z" fill="black"/>
</g>
</svg>
