<svg width="16" height="16" viewBox="0 0 16 16" fill="none" xmlns="http://www.w3.org/2000/svg">
<g clip-path="url(#clip0)">
<path fill-rule="evenodd" clip-rule="evenodd" d="M9.68329 4.08333C9.68329 5.5653 8.48192 6.76667 6.99996 6.76667C5.518 6.76667 4.31663 5.5653 4.31663 4.08333C4.31663 2.60137 5.518 1.4 6.99996 1.4C8.48192 1.4 9.68329 2.60137 9.68329 4.08333ZM8.0943 8.01837C9.81805 7.54003 11.0833 5.95944 11.0833 4.08333C11.0833 1.82817 9.25512 0 6.99996 0C4.7448 0 2.91663 1.82817 2.91663 4.08333C2.91663 5.95945 4.18189 7.54004 5.90566 8.01838C2.55948 8.54372 0 11.4396 0 14.9333V23.1H1.4V14.9333C1.4 11.8405 3.9072 9.33333 7 9.33333C8.76075 9.33333 10.3317 10.1459 11.3583 11.4166C11.435 11.5115 11.5775 11.5223 11.6639 11.4362L12.3739 10.7284C12.4458 10.6568 12.4528 10.5424 12.388 10.4643C11.3246 9.18365 9.81324 8.28822 8.0943 8.01837Z" fill="black"/>
<path d="M9 12.7333L11.1808 14.9141C11.2631 14.9965 11.3981 14.9914 11.4739 14.9031L15 10.8" stroke="black" stroke-width="1.4" stroke-linecap="round"/>
</g>
<defs>
<clipPath id="clip0">
<rect width="16" height="16" fill="white"/>
</clipPath>
</defs>
</svg>
