<svg width="16" height="16" viewBox="0 0 16 16" fill="none" xmlns="http://www.w3.org/2000/svg">
<path fill-rule="evenodd" clip-rule="evenodd" d="M7 1.80002H9C9.33137 1.80002 9.6 2.06865 9.6 2.40002V3.00002H6.4V2.40002C6.4 2.06865 6.66863 1.80002 7 1.80002ZM5 2.40002C5 1.29545 5.89543 0.400024 7 0.400024H9C10.1046 0.400024 11 1.29545 11 2.40002V3.00003H13H13.3C13.6866 3.00003 14 3.31343 14 3.70003C14 4.08663 13.6866 4.40003 13.3 4.40003H13V13C13 14.1046 12.1046 15 11 15H5C3.89543 15 3 14.1046 3 13V4.40003H2.7C2.3134 4.40003 2 4.08663 2 3.70003C2 3.31343 2.3134 3.00003 2.7 3.00003H3H5V2.40002ZM4.4 4.40003H11.6V13C11.6 13.3314 11.3314 13.6 11 13.6H5C4.66863 13.6 4.4 13.3314 4.4 13V4.40003ZM7.2 6.70003C7.2 6.31343 6.8866 6.00003 6.5 6.00003C6.1134 6.00003 5.8 6.31343 5.8 6.70003L5.8 11.3C5.8 11.6866 6.1134 12 6.5 12C6.8866 12 7.2 11.6866 7.2 11.3L7.2 6.70003ZM9.5 6.00003C9.8866 6.00003 10.2 6.31343 10.2 6.70003V11.3C10.2 11.6866 9.8866 12 9.5 12C9.1134 12 8.8 11.6866 8.8 11.3V6.70003C8.8 6.31343 9.1134 6.00003 9.5 6.00003Z" fill="black"/>
</svg>
