<?xml version="1.0" encoding="UTF-8"?>
<svg width="33px" height="33px" viewBox="0 0 33 33" version="1.1" xmlns="http://www.w3.org/2000/svg" xmlns:xlink="http://www.w3.org/1999/xlink">
    <defs>
        <polygon id="path-1" points="0.00116985146 0.383016393 32.2713443 0.383016393 32.2713443 32.6531213 0.00116985146 32.6531213"></polygon>
    </defs>
    <g id="Model-Detail" stroke="none" stroke-width="1" fill="none" fill-rule="evenodd" opacity="0.4">
        <g id="Model-Detail-Copy-2" transform="translate(-323.000000, -825.000000)">
            <g id="Group-15" transform="translate(231.000000, 824.000000)">
                <g id="Group-6" transform="translate(92.065574, 1.207325)">
                    <mask id="mask-2" fill="white">
                        <use xlink:href="#path-1"></use>
                    </mask>
                    <g id="Clip-5"></g>
                    <path d="M24.2038033,23.5793508 L24.2038033,23.5769902 L24.2038033,23.5746295 L24.2038033,9.87633443 L25.6479344,8.43161311 L25.6479344,27.7653836 L24.2038033,29.2101049 L24.2038033,23.5793508 Z M26.3478689,4.88000656 L10.0853115,4.88000656 L10.0853115,2.39954754 L28.8283279,2.39954754 L26.3478689,4.88000656 Z M26.6565246,24.4061705 C26.8194098,24.5183016 27.0165246,24.5855803 27.2289836,24.5855803 L27.9855738,24.5855803 L27.9855738,25.4277443 L26.6565246,26.7567934 L26.6565246,24.4061705 Z M27.9855738,6.09456393 L27.9855738,22.5684 L27.2289836,22.5684 C27.0165246,22.5684 26.8194098,22.6350885 26.6565246,22.7478098 L26.6565246,7.49325246 C26.6565246,7.47259672 26.6476721,7.4548918 26.6453115,7.43541639 L27.9855738,6.09456393 Z M22.777377,8.45049836 L10.0853115,8.45049836 L10.0853115,5.88800656 L25.3398689,5.88800656 L22.777377,8.45049836 Z M17.1696393,24.5855803 L19.9900328,24.5855803 L22.186623,26.7815803 L22.186623,29.6019738 L17.1696393,24.5855803 Z M4.2922623,29.7878754 L5.1397377,30.6365311 L3.44360656,30.6365311 L4.2922623,29.7878754 Z M2.01836066,27.5139738 L2.86583607,28.3620393 L2.01836066,29.2095148 L2.01836066,27.5139738 Z M2.01836066,23.327941 L4.95914754,26.2687279 L3.57934426,27.6485311 L2.01836066,26.0875475 L2.01836066,23.327941 Z M7.06780328,24.1600721 L5.67265574,25.5552197 L2.01836066,21.9015148 L2.01836066,19.1106295 L7.06780328,24.1600721 Z M8.06813115,20.9743672 L8.06813115,23.1597443 L7.78131148,23.4465639 L2.01836066,17.6836131 L2.01836066,14.9240066 L8.06813115,20.9743672 Z M14.1131803,10.4676787 L22.186623,18.539941 L22.186623,21.265318 L11.3883934,10.4676787 L14.1131803,10.4676787 Z M18.1422295,10.4676787 L22.186623,14.511482 L22.186623,17.1135148 L15.5396066,10.4676787 L18.1422295,10.4676787 Z M22.186623,13.0850557 L19.5686557,10.4676787 L22.186623,10.4676787 L22.186623,13.0850557 Z M10.0398689,13.2084 C9.94308197,12.8814492 9.68813115,12.6264984 9.36118033,12.5297115 L7.29855738,10.4676787 L9.96255738,10.4676787 L22.0632787,22.5684 L19.3992787,22.5684 L10.0398689,13.2084 Z M10.0853115,17.5012525 L10.0853115,14.6802689 L17.9728525,22.5684 L15.1530492,22.5684 L10.0853115,17.5012525 Z M10.0853115,21.5645311 L10.0853115,18.9276787 L13.7260328,22.5684 L11.0885902,22.5684 L10.0853115,21.5645311 Z M2.01836066,10.8607279 L8.06813115,16.9104984 L8.06813115,19.5473508 L2.01836066,13.4975803 L2.01836066,10.8607279 Z M5.87213115,10.4676787 L8.28236066,12.8779082 C8.15016393,13.0484656 8.06813115,13.2597443 8.06813115,13.492859 L8.06813115,15.4840721 L3.05114754,10.4676787 L5.87213115,10.4676787 Z M22.186623,25.3551541 L21.416459,24.5855803 L22.186623,24.5855803 L22.186623,25.3551541 Z M8.06813115,4.88000656 L7.01527869,4.88000656 L8.06813115,3.82656393 L8.06813115,4.88000656 Z M6.00668852,5.88800656 L8.06813115,5.88800656 L8.06813115,8.45049836 L3.44419672,8.45049836 L6.00668852,5.88800656 Z M6.5667541,30.6365311 L5.00518033,29.0743672 L6.38498361,27.6945639 L9.32636066,30.6365311 L6.5667541,30.6365311 Z M10.7527869,30.6365311 L7.0984918,26.9816459 L8.49422951,25.5859082 L13.5442623,30.6365311 L10.7527869,30.6365311 Z M14.9706885,30.6365311 L9.20714754,24.8724 L9.49455738,24.5855803 L11.6787541,24.5855803 L17.7297049,30.6365311 L14.9706885,30.6365311 Z M19.1567213,30.6365311 L13.1057705,24.5855803 L15.7432131,24.5855803 L21.7935738,30.6365311 L19.1567213,30.6365311 Z M30.2541639,22.5684 L28.9941639,22.5684 L28.9941639,5.08597377 L30.2541639,3.82597377 L30.2541639,22.5684 Z M32.2713443,23.5769902 L32.2713443,23.5740393 L32.2713443,1.39154754 L31.2627541,0.382957377 L9.07731148,0.382957377 L9.07731148,0.382957377 C9.07672131,0.382957377 9.07672131,0.382957377 9.07672131,0.382957377 C8.79757377,0.382957377 8.54439344,0.496859016 8.36144262,0.680990164 L0.296262295,8.74617049 L0.00116985146,9.45908852 L0.00116985146,31.6415803 C4.46908135e-16,31.9006623 0.098557377,32.1597443 0.296262295,32.3574492 C0.492786885,32.5545639 0.751278689,32.6531213 1.00918033,32.6531213 L1.00977049,32.6531213 L23.612459,32.6531213 L31.9744918,24.2910885 C32.1580328,24.1081377 32.2713443,23.8561377 32.2713443,23.5769902 L32.2713443,23.5769902 Z" id="Fill-4" fill="#000000" mask="url(#mask-2)"></path>
                </g>
            </g>
        </g>
    </g>
</svg>