<?xml version="1.0" encoding="UTF-8"?>
<svg width="80px" height="80px" viewBox="0 0 80 80" version="1.1" xmlns="http://www.w3.org/2000/svg" xmlns:xlink="http://www.w3.org/1999/xlink">
    <!-- Generator: sketchtool 64 (101010) - https://sketch.com -->
    <title>24C2E6B5-7E15-449E-A47B-B90F2759194E@1.00x</title>
    <desc>Created with sketchtool.</desc>
    <g id="Symbols" stroke="none" stroke-width="1" fill="none" fill-rule="evenodd">
        <g id="Still-Processing-Image" transform="translate(-109.000000, -58.000000)" fill="currentColor">
            <g id="Group" transform="translate(109.000000, 58.000000)">
                <g id="Group-5">
                    <path d="M40,0 C36.5433333,0 33.2033333,0.486666667 30,1.31666667 L30,8.20333333 C33.16,7.21 36.5166667,6.66666667 40,6.66666667 C58.3833333,6.66666667 73.3333333,21.62 73.3333333,40 C73.3333333,58.38 58.3833333,73.3333333 40,73.3333333 C21.62,73.3333333 6.66666667,58.38 6.66666667,40 C6.66666667,30.7066667 10.5066667,22.3133333 16.6666667,16.27 L16.6666667,26.6666667 L23.3333333,26.6666667 L23.3333333,6.66666667 L3.33333333,6.66666667 L3.33333333,13.3333333 L10.2633333,13.3333333 C3.9,20.4166667 0,29.75 0,40 C0,62.0566667 17.9466667,80 40,80 C62.0566667,80 80,62.0566667 80,40 C80,17.9433333 62.0566667,0 40,0" id="Fill-1"></path>
                    <path d="M36.6666667,16.6666667 L36.6666667,40 C36.6666667,40.8833333 37.0166667,41.7333333 37.6433333,42.36 L50.9766667,55.6933333 L55.69,50.9766667 L43.3333333,38.62 L43.3333333,16.6666667 L36.6666667,16.6666667 Z" id="Fill-3"></path>
                </g>
            </g>
        </g>
    </g>
</svg>