<?xml version="1.0" encoding="UTF-8"?>
<svg width="80px" height="80px" viewBox="0 0 80 80" version="1.1" xmlns="http://www.w3.org/2000/svg" xmlns:xlink="http://www.w3.org/1999/xlink">
    <g id="Symbols" stroke="none" stroke-width="1" fill="none" fill-rule="evenodd">
        <g id="Broken-Link-Image" transform="translate(-109.000000, -58.000000)" fill="#DBDBDF">
            <g id="Group" transform="translate(109.000000, 58.000000)">
                <path d="M56.0002727,72.0002727 L56.0002727,79.3184545 L71.6593636,79.3184545 C75.883,79.3184545 79.3184545,75.883 79.3184545,71.6593636 L79.3184545,56.0002727 L72.0002727,56.0002727 L72.0002727,72.0002727 L56.0002727,72.0002727 Z" id="Fill-1"></path>
                <path d="M79.3183636,23.3181818 L79.3183636,7.65909091 C79.3183636,3.43545455 75.8829091,0 71.6592727,0 L56.0001818,0 L56.0001818,7.31818182 L72.0001818,7.31818182 L72.0001818,23.3181818 L79.3183636,23.3181818 Z" id="Fill-4"></path>
                <path d="M23.3182727,9.09090909e-05 L7.65918182,9.09090909e-05 C3.43554545,9.09090909e-05 9.09090909e-05,3.43554545 9.09090909e-05,7.65918182 L9.09090909e-05,23.3182727 L7.31827273,23.3182727 L7.31827273,7.31827273 L23.3182727,7.31827273 L23.3182727,9.09090909e-05 Z" id="Fill-7"></path>
                <path d="M7.65909091,79.3182727 L23.3181818,79.3182727 L23.3181818,72.0000909 L7.31818182,72.0000909 L7.31818182,56.0000909 L0,56.0000909 L0,71.6591818 C0,75.8828182 3.43545455,79.3182727 7.65909091,79.3182727" id="Fill-10"></path>
                <path d="M39.6592727,56.0001818 C36.7847273,56.0001818 34.0092727,55.2210909 31.4092727,53.6847273 L31.0310909,53.4610909 L53.4610909,31.0301818 L53.6847273,31.4083636 C55.2210909,34.0083636 56.0001818,36.7847273 56.0001818,39.6592727 C56.0001818,48.6701818 48.6701818,56.0001818 39.6592727,56.0001818 L39.6592727,56.0001818 Z M25.6338182,47.9083636 C24.0974545,45.3101818 23.3183636,42.5347273 23.3183636,39.6592727 C23.3183636,30.6483636 30.6483636,23.3183636 39.6592727,23.3183636 C42.5338182,23.3183636 45.3092727,24.0974545 47.9092727,25.6338182 L48.2874545,25.8574545 L25.8574545,48.2865455 L25.6338182,47.9083636 Z M39.6592727,16.0001818 C26.6138182,16.0001818 16.0001818,26.6138182 16.0001818,39.6592727 C16.0001818,52.7047273 26.6138182,63.3183636 39.6592727,63.3183636 C52.7056364,63.3183636 63.3183636,52.7047273 63.3183636,39.6592727 C63.3183636,26.6138182 52.7056364,16.0001818 39.6592727,16.0001818 L39.6592727,16.0001818 Z" id="Fill-13"></path>
            </g>
        </g>
    </g>
</svg>