<svg width="1072" height="577" xmlns="http://www.w3.org/2000/svg"><path d="M211 894v.005l48-.005h7v7h-7l-47-.004V951l-7-.008V894h6zm-.325 51.312l-4.358.009v4.355h4.358v-4.364zm.01-45.088l-4.367.004v43.531l4.366.004v-43.539zM302 934l-.008 6H296v-5.996l6-.004zm183.136-286.35v55.513l24.113-.003v55.798l.007 27.324 24.575.001v141.368l-114.92.008v-.007l-4.06.005v.002h-1.228l-21.196-.008v-58.96h5.287l-.005-5.277 15.914-.004v-24.205h-15.906l.007-6.514h22.416l.007 31.938h-.008v4.06l.001.001v52.437l.007.001h107.16l.007-128.326-19.278-.004v-5.282l-5.297-.002-.015-28.557h-17.59l.001 13.865h-125.21v-64.37h5.291l.007-5.292 63.994.002-.006-50.224 5.301-.008-.012-5.28h50.636zM418.91 922.363h-4.06v4.06h4.06v-4.06zm-269.656-37.831l-28.342 37.613H92.534l28.326-37.613h28.395zm264.367-14.609h-14.679l.001 51.206h14.678v-51.206zm5.29.001h-4.062l-.008 51.203h4.07v-51.203zm-154.23 25.393l-3.682-.001v4.374l3.682-.003v-4.37zm-5.682.006h-46.777v4.367l46.777-.01v-4.357zM347.813 889l.187.193-4.813 4.809 4.813 4.815-.193.183-4.809-4.809-4.811 4.809-.187-.183 4.811-4.813-4.811-4.81.186-.194 4.813 4.815 4.814-4.815zm305.492-179.836v51.552h-.614v4.06h.614l.008 67.24 87.987.009-.002.612 4.67-.003v4.685l.62.001v51.09h-6.516l-.007-5.297v.001l-.002-44.568-93.283.001.007-72.545-19.959.001v-6.515l19.96-.008v-50.316h6.517zm92.05 173.95h-4.062l.007 4.068h4.054v-4.068zm0-44.571l-4.062.004.007 43.34h4.054v-43.344zm86.486 33.302l5.29.004v5.288h-5.29v-5.292zm-412.929-7.216h-4.063l.001 4.061h4.063v-4.06zm-5.29 0h-14.678v4.061h14.679v-4.06zm-65.889-31.941l45.93.003v6.515h-44.696v.004h-6.524v-6.52h5.29v-.002zm1.234 1.23v4.053h43.468l-.007-4.053h-43.46zm303.111-67.915h-4.062l.007 71.317h92.041l.008-4.068-87.987-.008-.007-67.241zM118 770v57h-6v.995L91 828v-7h20v-45h.007l-.007-6h7zm-25.791 52.318v4.36l18.567.008v-4.36l-18.567-.008zm758.986-8.141l.213.207-5.289 5.284 5.296 5.292-.212.201-5.29-5.287-5.289 5.287-.205-.198 5.288-5.294-5.288-5.284.205-.209 5.29 5.286 5.28-5.285zM116.683 777.22h-4.358v43.552h4.366l-.008-43.552zM255 787l23 .007V810h-23v-23zm-161.019 2.982c3.865 0 7.002 3.136 6.994 7.002a6.998 6.998 0 01-6.994 7.005 7 7 0 01-7.009-7.005c0-3.859 3.137-7.002 7.01-7.002zm414.048-31.024h-4.07l.008 27.325h4.07l-.008-27.325zm395.75-421.956v58.96l-5.298-.003v5.28l-15.899.006-.007 24.202 15.907-.004v6.523h-22.424v-30.728h-82.599v71.847h-.615v4.053h.615l.012 28.55h.003v.002l18.816-.007v.621h4.061v-.62h50.636v34.263l15.036.001v15.023l48.96.007v.612l4.676.001.008 5.288h-4.684v.606h-48.96v15.038h-36.594v-15.037l-27.843.002-.007 48.996h44.127v.606l4.66.008v4.681h.622v61.135l-17.142-.007v99.361h-6.509l-.007-5.296h-.001l.008-95.293h5.281v-4.06h-5.281l-.008-29.556-59.29.003v10.085h-26.727v-10.088h-32.661l-4.062-.004v.004l-19.58-.004-.009-6.522h56.312v-10.083h10.11v-61.4l-65.195-.002.001 48.072h-6.509v-49.298h.605v-4.674l4.675-.005v-.616h72.947l-.008 67.922h10.102v10.083h65.807v34.862h10.615v-53.393l-49.4.001v-55.522l-24.113.001v-54.567l-.015-29.78h.614l.006-4.053h-.62v-78.36l89.123-.002.001-51.202-.007-6.515h6.524v.003l21.204-.007zM116.692 771.32h-4.366v4.36h4.366v-4.36zm731.927-.347h-4.062v4.06h4.062v-4.06zm0-94.066l-4.062.007v92.833l3.511.006h.55v-92.846zm-414.12 27.484h-4.062v5.295l-63.988-.009.001 56.629H478.62v-8.572h5.288v-4.064h-5.29v-43.985l-44.117.001v-5.295zm212.29 56.325H628.04v4.064l18.748-.004v-4.06zm5.296-45.037l-4.063.005.001 43.797 4.063.007v-43.809zm-149.36 37.986l-17.59.005v4.064l17.59-.003v-4.066zm1.234.004v.508l.007 3.554 4.062.001v-4.062h-4.069zm-1.235-43.982h-17.59v42.756l17.59.003v-.003h.007l-.007-42.756zm-18.816 0h-4.063v42.756h4.063v-42.757zm24.121-5.296h-22.894v4.06h18.824v43.991h4.07v-48.05zm120.944 24a7.006 7.006 0 017.002 7.007c0 3.875-3.138 7.008-7.002 7a7.006 7.006 0 01-7.01-7 7.01 7.01 0 017.01-7.007zM238 620l-.007 67H249v10.009l66-.009-.009 35.506 10.26-.006V678H326v-5h6l-.008 5H332l-.008 61H313v-6h-4.596l-.008-29.489L249 703.51V714h-26.993l-.003-10.001-31.004-.003V704h-7v-.004L165 704v-7h20l5.873.003 31.13-.002L222 687h9.463v-60.497L168 626.502V674h-7v-50h.005l-.005-4h77zm88.529 59.229v54.492h-12.26l.009 4.055h16.452l-.008-58.544-4.193-.003zM313.75 698.23H249v4.052l60.638.004.007 29.492 4.106.007V698.23zm-60.785 17.471a4.22 4.22 0 014.228 4.231 4.23 4.23 0 01-4.228 4.24 4.235 4.235 0 01-4.228-4.24 4.23 4.23 0 014.228-4.23zM191 717l-.008 7h-6.983l-.009-7h7zm-51-20l22 .009-.007 6.991-20.476-.004.008 13.386H161V717h7v7h-33v-20h-1v-7l6 .003V697zm.29 7.248l-4.063.004v18.5l24.538.005-.008-4.135H140.29v-14.374zM402 710l-.008 6H396l.008-6H402zm250.086.39h-4.063l-.007 4.065h4.062l.008-4.064zM237.006 699H234v5l-6.91-.001v4.91l16.826.003v-5.402l-6.916.001.006-4.511zm192.211 5.39l-62.767.001v4.06h62.769l-.001-4.06zm54.69 0h-4.062v4.06h4.062v-4.06zM452.87 593.03v29.552l59.29.003V612.5h26.727v10.091l31.426-.003h5.296l.001-.005 19.589.004v5.291h4.06v-5.29h20.475l-.005-12.898-20.469-.004h-5.297v-6.51h32.29v25.931l-25.766-.002v1.595l2.797-.003v5.288h-2.797v11.264h25.766v6.516h-5.29l-20.475.002v48.057h-5.29v5.295H522.26v-67.916l-10.101.001v-10.099l-65.807.001.008-36.075h6.509zm74.68 46.172h-4.062v66.689h70.475v-4.068H527.55v-62.62zm-93.034 14.963l-4.077.004v48.995l4.062-.004.015-48.995zm49.394-5.296h-48.166l-.015 4.06 44.118.009v50.222l4.063.003V648.87zm-5.29 5.296h-42.892v48.994h42.891v-48.994zm-247.156 44.158h-4.373v4.363l5.683.002-.001-3.688h-1.308l-.001-.677zm-40.227-.003l.007 4.364 30.761.002-.001-4.364-30.767-.002zm-30.487 0h-19.505v4.36l19.497.003.008-4.362zm-21.068.004l-4.362.005v4.355h4.37l-.008-4.36zm26.573 0v4.356l17.485.004v-4.355l-17.485-.005zm23.414 0l-4.344.005v4.355l4.344-.004v-4.356zm54.248-.093h-5.667v4.052h5.667v-4.052zm351.282-44.467v46.839h4.061v-46.835l-4.061-.004zm-1.229-24.66h-17.126l.001.001h-37.959l.001 10.098h-10.102v61.4h65.177l.001-48.059.008-5.295v-18.145zM68 693l-.008 6H62v-6h6zm168.764-.908h-4.072l-.001 4.908H234v.773l2.765.007-.001-5.688zm7.152 0h-5.923l-.001 4.919 5.924-.001v-4.918zm-12.453 0h-4.372L227.09 697h4.373v-4.908zm5.302-70.869h-69.767l-.004 2.777H168v1.271h64.7L232.691 687h4.072v-65.777zM168 675v7h-7v-7h7zm-46.008-2l.008 6.995-7 .005.009-7h6.983zm-1.317 1.318h-4.357v4.36h4.364l-.007-4.36zm745.092-57.312h-4.061v54.613h-11.86v4.06h15.921v-58.673zm-703.448 8.99v46.763l4.363-.004-.001-46.253H165v-.504l-2.681-.002zm686.3 10.776h-64.58v4.063l60.518-.003v29.567h4.061v-33.627zm-60.662 17.34a4.24 4.24 0 014.236 4.234 4.233 4.233 0 11-8.465 0 4.234 4.234 0 014.23-4.234zm-91.018-18.575v6.526l-20.468-.005v12.91h25.765l-.008 6.515h-6.51l-25.772-.007v-20.638l.007-5.301h26.986zm28.94 19.432l.008 6.507-6.533.007.008-6.514h6.517zm-50.644-12.91h-4.061v18.197h24.537l.003-2.198-.002-1.87h-20.469l-.008-14.129zm260.825 6.837v5.292h-5.282l-.008-5.292h5.29zm-311.036-.42h-4.062v4.068h4.062v-4.068zm-25.765 0h-4.061v4.066h1.671l2.39-.002v-4.064zm0-19.37h-4.061v18.143h4.061v-11.266h-1.266v-5.28l1.265-.002.001-1.596zm173.45 7.664h-4.06v5.293h-6.306v5.064h16.665v-5.06h-6.298v-5.297zm-76.998.002h-19.24v4.067l19.248-.003-.008-4.064zm-20.476 0h-4.061v4.06l4.061.007v-4.067zm82.077 0h-31.426v4.064h31.426v-4.065zm-32.66 0h-4.062v4.064h4.061v-4.064zm54.355 0h-5.069l.007 4.064h5.062v-4.065zm-11.586 0h-5.078v4.064h5.07l.008-4.064zm-48.066 0h-17.12v4.06h17.124l-.004-4.06zm53.355-6.289h-4.062l.001 5.054h4.062v-5.054zm6.298 0h-5.07v5.053h5.07v-5.052zm-11.587 0h-5.077v5.053h5.077v-5.053zm-233.575-1.378h-5.062v5.06h5.063v-5.06zm-6.297 0h-4.061v5.06h4.06l.001-5.06zm-5.29 0h-5.062l.001 5.06h5.061v-5.06zm102.758-5.287h-4.055v4.06h4.062l-.007-4.06zm-5.283 0h-19.247v4.06h19.24l.007-4.06zm-25.772 0h-17.118v4.06h17.126l-.008-4.06zm-22.416 0v4.06h4.063v-4.06h-4.063zm-37.7 0h-5.061v4.06h5.061v-4.06zm0-6.296l-16.648.007v5.057h6.297l-.007 5.291h4.06l.001-5.284 6.297-.002v-5.069zm5.04 6.295v4.06h31.426v-4.059h-31.427zM19.057 612.902c3.865 0 7.01 3.137 7.002 6.996a7.012 7.012 0 01-7.002 7.011c-3.864-.004-7.002-3.136-7.002-7a7.006 7.006 0 017.002-7.007zm753.653-54.144h-70.483v4.068h66.421v62.627h4.061v-66.695zM368 399v59h-5v6h-23v-1.432h-81.5V535h-.508l.008 5h-.008l.008 28h19v.005h.001l.006-14.005H402v65h-1v3.996l-5 .003V623h-1l-64-.009v-3.994l-5 .003v3.991l-43.01.009H277l-24-.008V575h-2v-7h.015L251 539h1v-83h88l.008-50H340v-6.996l6-.004h22zm232.487 205.393v4.069l20.475-.008v14.133h4.062v-18.19l-24.537-.004zM258.224 575h-4.014v46.76h22.58l-.006-2.76H275v-1.343h-16.776V575zm74 42.317v4.357l62.553.008-.008-4.36-62.546-.005zm370.004-3.12v6.521h-6.51v-6.522h6.51zm-371.464-44.95L283 569.246v4.099h43.666l.007 44.42 4.09-.008v-48.51zm325.587 41.642v6.52h-6.517v-6.516l6.517-.004zm-375.67-35.66h-4.355v41.193H278v.579l2.681.004v-41.776zM275 575h-15.573v41.423l15.573-.001V575zm380.132 37.113l-4.062.007-.016 4.061h4.078v-4.068zM395.479 560.58H283.505V568h48.488l.007 48 63.478.008v-55.427zm-70.05 14.008H282V616h43.429v-41.41zm486.86-13.104v54.294h48.174l.007-4.068-44.118.008v-50.23l-4.063-.004zM701 564.053h-4.068v46.836l4.069-.003v-46.833zm-124.155 39.121v6.51h-6.525l-.008-6.51h6.533zM160.755 568l.004 11.231H172v.534l-11.241.001.004 12.234h-.526v-12.234l-12.237.003v-.538h12.237v-11.227l.518-.004zm95.934 5.246h-2.478l-.001.431 2.48.002-.001-.433zm0-3.921h-4.37l-.008 4.35.689.001v-1.672l3.689-.003v-2.676zm19.079 0h-17.55l-.001 2.676 1.21-.001v1.675h16.34v-4.35zm590-13.124h-4.063v5.284l-9.377.001.004 8.143h22.802v-8.145l-9.367.001v-5.284zM256.676 540.24h-4.353l.008 27.516h4.361l-.016-27.516zm297.372 11.072c3.873.008 7.01 3.136 7.01 7.007a6.996 6.996 0 01-7.01 7 6.998 6.998 0 01-7.001-7c0-3.87 3.136-7 7.001-7.007zm238.19-39.098l-4.062.004v48.047h22.885v-4.061l-18.823.001v-43.991zm137.517 43.988h-47.734v4.06h47.734v-4.06zm-54.623 0h-8.145v4.06h8.145v-4.06zm-225.723-7.236v6.527l-6.517-.008v-6.519h6.517zm161.651-36.753h-17.596l.009 42.765 17.587-.008v-42.757zm64.073 34.62h-8.147v8.136l8.146.001.001-8.136zm-9.369 0h-4.06v8.138h4.062l-.002-8.138zm-49.413-34.62h-4.062v42.757h4.062v-42.757zm44.11 34.62h-8.138l.002 8.136h8.136v-8.136zm.001-34.62h-42.877v42.756h27.842v-15.02l15.034-.002.001-27.733zm-212.28 37.985h-4.063v4.052h4.063v-4.052zm-594.236-71.52l51.962 68.945H51.924L0 478.678h53.947zm-1.932 3.878H7.775l46.08 61.189h44.271l-46.111-61.189zm813.745 24.362l-48.173.005v4.064h44.119v28.96h4.058l-.004-33.029zm-612.536-49.677l.008 76.515h4.045l-.006-72.422 82.729-.001v-4.089l-86.776-.003zM197.992 526l.008 6-5.992-.004-.008-5.987 5.992-.009zm497.045-8.047l.48.001.005 12.138-.485.004v-12.143zM500 424l-.008 31h1l.008 6.996h-.009L501 514h-.001l-.008 6H494v-1l-21-.004.007-58.996H478v-5h15.59l.009-24.466H478V424h22zm-.318 90.317h-4.373l.008 4.366h4.358l.007-4.366zm207.972 3.154v.485l-12.136-.002-.001-.483h12.137zm-12.617 0v.482h-12.148l.008-.482h12.14zm.477-12.136l.003 12.136h-.48v-12.136h.477zm-195.838-43.12h-4.353l-.008 50.57 4.361.003v-50.573zM494 462h-14.603l.007 50.47 14.603-.001L494 462zm317.055 44.918h-17.581l-.007 4.069h17.596l-.008-4.069zm-18.817 0h-4.054l-.008 4.067h4.062v-4.068zM454 503v6h-6v-6h6zm338.23-24.626h-4.068l.014 27.31 4.062.002-.007-27.312zM419 487v7h-52v-7h52zm-7.23 1.326h-43.54v4.348h43.54v-4.348zM315 473v6h-6v-6h6zm298.278-61.744l42.285 31.84v31.89l-42.285-31.83v-31.9zm262.773-15.298l-87.882.001-.007 75.892h4.062l.007-71.84 83.825.008-.005-4.06zm-143.276 68.764v5.288l-5.297-.004v-5.284h5.297zm-385.558-6.4v4.363h14.566v-4.359l-14.566-.004zm-1.533 0l-3.684.003v4.243h-.683v.117h4.367v-4.363zm148.09-2.004h-14.557V460h.18v.678h14.378v-4.36zm5.9 0h-4.358v4.36h4.358v-4.36zm-138.07-50.791L347 405.526V457h14.603v-51.473zm-15.92.692h-4.359L341.317 456H342v.781h3.683V406.22zm643.331 35.209v5.295l-5.297.004v-5.291l5.297-.008zm-41.785-15.985l6.525.004v6.519h-51.212v-6.523l44.686.003.001-.003zM474 424v7h-45.993v-.004L422 431v-7h52zm473.23 2.673H903.77v4.058h43.458v-4.058zm-517.993-1.355v4.357h43.533l.008-4.354-43.541-.003zm-231.93-14.904c2.25 0 4.083 1.83 4.091 4.073a4.088 4.088 0 01-4.084 4.083 4.081 4.081 0 01-4.077-4.08 4.074 4.074 0 014.07-4.076zm651.94.318v5.295h-5.296v-5.295h5.297zm-507.93-10.412l.008 4.36h4.358v-4.355l-4.365-.005zm555.944-4.36h-14.685l.007 4.06h14.678v-4.06zm-15.906 0h-4.069v4.06h4.07v-4.06zm-4.069-52.439v51.203h4.07l-.002-51.2-4.068-.003zm5.29 0v51.202h14.685v-51.202h-14.686zm-546.594 12.948l-27.697 36.764h-27.742l27.689-36.764h27.75zM528 180v4h4.582v29.496l59.418-.001V204h27v11h57v4h3v-4h20.481v-13.372L682 201.627V202h-7v-7h31v20h1v7l-6.009-.003V222H682v17h25v7h-25v49h-6v4h-73v-68h-11v-11h-66v-33.5l-10.259.004.007 52.496H566v57h-6v6h-44.437v42.422H560v5.347h5V344h24.991l.009 7h-.007l.007 28-6.991-.008L583 351H566v13.996L441 365l.007-65H446v-5h65v5h4v-5h44.434v-49.447H515V241h-6v-61h19zm60.676 171h-4.361l.009 26.751 4.352.005V351zm-141.163-49.005v56.427h111.981l-.007-7.422H509v-49l-61.487-.005zm66.822-.748l-3.335-.001V302h-.764v47.761h48.52l.007-4.103-44.428-.003v-44.408zM583 345.311l-16.774.004v4.367L583 349.68v-4.37zm5.682 0l-3.682.003V349h3.682v-3.688zm292.673-7.078h-4.069v4.06h4.07v-4.06zM866 319l-.008 7H859l.008-7H866zm-1.317 1.318h-4.374v4.36l4.374-.003v-4.357zm-354.906-24.001h-62.554V300h.29v.674H509V300h.776v-3.683zM608.299 231h-4.064v66.785h70.53v-4.057h-66.471l.005-62.728zm-43.536 9.234l-48.527.002v4.08h44.435v50.451h4.092v-54.533zm115.92 6.003h-4.358v47.518h4.358v-47.518zM675 222h-56v9h-9.471l-.007 61.502 65.478.003.008-46.505H675v-24zm190 8l-.008 31h1l.008 7h-7l-16-.004V261h15.598l.008-24.466H843V230h22zm-6.211 32.31h-14.57v4.36l14.57.009v-4.37zm1.514 0v4.364l4.379.004v-4.363l-4.38-.004zM679 240.325l-2.675.006v4.36H679v-4.366zm26.681-.013h-4.362l-.01 4.377 4.372-.004v-4.373zm-178.95-59.091H510.27v58.552h4.209l-.007-54.5H526V184h.73v-2.78zM679 220.247h-2.675v18.502h4.358V222H679v-1.753zM839 230v7h-45.993v-.003L787 237v-7h52zm-44.764 1.318v4.357h43.528l.007-4.35-43.535-.007zM613.91 222h-4.379l-.001 3.917 4.38.001V222zm-5.909-.782h-3.764l-.001 4.698 4.065.001V222h-.3v-.782zM603 220h-5.918v5.914l5.918.001V220zm10.909-3.683h-4.68l-.001 3.683h.302v.686h4.379v-4.369zm66.774 3.93h-.439v.44l.439-.001v-.439zm-5.944-3.93h-17.484v4.362l17.484.007v-4.368zm-24.739 0h-31v4.369h31v-4.369zm49.756 0h-19.512V219H682v1.685l17.756-.006v-4.361zm5.925 0h-4.371l.009 4.358 4.362.008v-4.366zm-50.007 0H652v4.361h3.683l-.009-4.36zm-58.591-7.232l-.001 4.41H604V220h4v-5h5.909v-5.91l-16.826-.005zm5.668 5.635l-5.669-.001v4.059l5.669.001v-4.06zm-71.402-29.491l-3.349-.001v1.272h-.759v32.272l64.759.006v-4.059h-60.644l-.007-29.49zM682 196.24v4.138h18.71v14.373h4.062v-18.504L682 196.241zM650 195l7 .004V202h-7v-7zM931 45v55l22.993.004L954 150v7h-.007l.007 29-6.984-.008-.015-28.992H929v-1.232L928.992 171H804l.007-65h6.506v58.42h111.974l.006-7.42H874v-51h6v-5h-6V50h6v-5h51zm21.668 112.24h-4.353l.008 27.516h4.354l-.009-27.516zM929 102h-4v5h-44.429v43.418H925v5.35h4V150h18.564v-43.41H929V102zm-49.665 5.247h-4.099l.008 48.51 48.52.003-.008-4.103-44.42-.003v-44.407zm50.89 44.067v4.367H947v-4.364l-16.776-.003zm22.571-50.072H931V102h-.79v3.343h18.566v44.417h4.006l.014-48.518zM730 141v7h-7v-7h7zm-1.326 1.318l-4.371.004.008 4.359h4.363v-4.363zm201.09-96.084h-48.535v4.078h44.442v50.452l3.329-.001V100h.763V46.234zm-5.329 5.319l-43.444-.001.009 48.451 43.434-.003.001-48.447zM1072 44v6.996l-6.008.003V51H1045v49h-7l.008-49H1038v-7h34zm-192.317 7.225h-4.358l-.008 48.559h4.366V51.225zm164 .013h-4.358v47.52h4.357v-47.52zm0-5.92l-4.358.009v4.362h4.357v-4.37zm26.999 0h-4.364l-.007 4.371h4.37v-4.37zM1022 0v6.991L1015 7V0h7zm66.009-54l6.991.005v6.99l-7 .005.009-7zm5.673 1.321h-4.373l.008 4.358h4.365v-4.358z" fill="#B9B9BE" fill-rule="evenodd" opacity=".2"/></svg>