<svg width="1072" height="577" xmlns="http://www.w3.org/2000/svg" xmlns:xlink="http://www.w3.org/1999/xlink"><defs><path id="a" d="M0 .884h105.909V69.83H0z"/><path id="c" d="M0 1041h1094.306V.563H0z"/></defs><g fill="none" fill-rule="evenodd" opacity=".15"><path d="M341.318 400.32l.007 4.36h4.358v-4.355l-4.365-.005zM340 406v-6.996l7-.004v7h-7z" fill="#B9B9BE"/><path fill="#B9B9BE" d="M361.603 458v-52.473H346V399h22v59z"/><path d="M341.325 406.219l-.007 50.562h4.365V406.22h-4.358zM340 458l.009-53H347v52.996l-7 .004z" fill="#B9B9BE"/><path d="M253.224 457.24l.008 76.516h4.045l-.006-72.422h83.506v-4.09l-87.553-.003zm5.276 5.328V535H252v-79h90v6.568h-83.5z" fill="#B9B9BE"/><path d="M341.326 458.326l-.008 4.359h4.366v-4.363l-4.358.004zM340 464h7v-7h-7v7z" fill="#B9B9BE"/><path d="M347.217 458.322v4.363h14.566v-4.359l-14.566-.004zM346 464h17v-7h-17v7zM368.23 492.674h43.54v-4.348h-43.54v4.348zM367 494v-7h46l-.008 7H367z" fill="#B9B9BE"/><path fill="#B9B9BE" d="M412 494h7v-7h-7zM252.324 540.24l.008 27.516h4.361l-.016-27.516h-4.353zM251.016 569L251 539h6.992l.008 30h-6.984zM395.479 619v-58.419H283.505v8.659H277l.007-15.24H402v65z"/><path d="M252.318 569.325l-.007 4.35 4.378.004v-4.354h-4.37zM251 575h7v-7h-7v7z" fill="#B9B9BE"/><path d="M258.217 573.675h17.55v-4.35h-17.55v4.35zM257 575h20v-7h-20v7zM282.243 569.247v4.099h44.423l.007 44.419 4.09-.008v-48.51h-48.52zM325.43 619v-44.41h-44.423L281 568h50.993l.007 50.996-6.57.004z" fill="#B9B9BE"/><path d="M258.224 617.658v-44.411h-4.013v48.513h22.578l-.007-4.102h-18.558zM253 622.992v-50.988l6.428-.004v44.423H278V623l-25-.008z" fill="#B9B9BE"/><path d="M276.326 617.783h4.355v-42.554h-4.355v42.554zM275 619v-45l7 .004V619h-7zM257.992 534l-5.992.004V540h6zM283 568l-6 .005v5.99l6 .005zM197.992 526l-5.992.01.008 5.986L198 532zM309 479h6v-6h-6zM448 509h6v-6h-6zM499.675 518.683l.007-4.366h-4.373l.008 4.366h4.358zM501 513l-.009 7H494v-7h7z" fill="#B9B9BE"/><path fill="#B9B9BE" d="M479.397 460l.007 52.47h15.589L495 519l-22-.004.007-58.996z"/><path d="M499.676 512.788v-50.573h-4.353l-.008 50.57 4.361.003zM500.991 461l.009 53h-6.992L494 461h6.991z" fill="#B9B9BE"/><path d="M495.316 460.678h4.358v-4.36h-4.358v4.36zM500.99 455l.009 6.996-7 .004v-7h6.991z" fill="#B9B9BE"/><path d="M479.217 460.678h14.558v-4.36h-14.558v4.36zM478 462h17v-7h-17v7z" fill="#B9B9BE"/><path fill="#B9B9BE" d="M500 424l-.008 32h-6.401l.008-25.466H478V424zM472.77 429.675l.008-4.354-43.541-.003v4.357h43.533zM474 424v7h-45.993l-.007-7h46z"/><path fill="#B9B9BE" d="M429 424v6.995l-7 .005v-7zM588.676 377.756v-27.52h-4.36l.008 27.515 4.352.005zM589.992 349l.008 30-6.991-.008L583 349h6.992zM447.513 300v58.422h111.981l-.007-8.653H566v15.227L441 365l.007-65z"/><path d="M588.682 349.682v-4.37l-4.365.003v4.367h4.365zm1.31-5.682l.008 7h-7v-7h6.991z" fill="#B9B9BE"/><path d="M583.776 349.682v-4.37l-17.55.003v4.367h17.55zM565 351h20v-7h-20v7zM558.756 349.761l.007-4.103-44.428-.003v-44.408h-4.099v48.514h48.52zM515.563 300v44.422H560V351h-51v-51h6.563z" fill="#B9B9BE"/><path fill="#B9B9BE" d="M515 302h45v-7h-45zM447.223 300.675h62.554v-4.358h-62.554v4.358zM511 295v7l-65-.005V295h65zM674.764 297.785v-4.057h-66.47l.007-72.51h-4.065v76.567h70.528zM609.53 220l-.008 72.502 66.478.003V299h-73v-79h6.53z"/><path d="M560.671 244.316v50.451h4.092v-54.533l-48.527.002v4.08h44.435zM566 239v57h-6.566v-50.447H515V239h51zM676.325 293.755h4.358v-47.518h-4.358v47.518zM682 245v50h-7l.009-50H682zM705.681 244.684v-4.373h-4.362l-.01 4.377 4.372-.004zM700 246h7v-7h-7v7z" fill="#B9B9BE"/><path fill="#B9B9BE" d="M679 246h22v-7h-22z"/><path d="M680.683 244.69v-4.369l-4.358.01v4.36h4.358zM682 239v7h-7v-6.996l7-.004zM514.479 239.772l-.007-54.5h12.258v-4.052h-16.46v58.552h4.209zM528 180v6.5l-12.259.004.008 54.496H509v-61h19z" fill="#B9B9BE"/><path d="M676.325 238.749h4.358v-18.502h-4.358v18.502zM682 219v20.988l-7 .012v-21h7zM705.681 220.683v-4.366h-4.371l.009 4.358 4.362.008zM707 215v7l-7-.004V215h7z" fill="#B9B9BE"/><path d="M699.756 220.679v-4.361h-19.512v4.368l19.512-.007zM701 215l-.008 7H679v-7h22zM674.739 220.686v-4.368h-17.484v4.36l17.484.008zM656 222h20v-7h-20v7z" fill="#B9B9BE"/><path d="M655.683 220.679l-.009-4.361h-4.366v4.36h4.375zM650 222h7v-7h-7v7z" fill="#B9B9BE"/><path d="M609.229 220.686h41.55v-4.368h-41.55v4.368zM608 222h44v-7h-44v7z" fill="#B9B9BE"/><path d="M613.91 225.918V209.09l-16.827-.004v16.83l16.826.003zM592 231h27v-27h-27v27z" fill="#B9B9BE"/><path d="M602.75 218.78v-4.06h-71.394l-.007-29.491h-4.108v33.543l75.51.007zM532.583 184v29.496H604V220h-78v-36h6.582zM700.71 200.38v14.372h4.062v-18.504l-24.544-.007v4.138h20.482zM706 195v21h-6.518v-14.372H679V195h27z" fill="#B9B9BE"/><path fill="#B9B9BE" d="M675 202h7v-7h-7zM657 195.004V202h-7v-7zM728.674 146.68v-4.362l-4.371.004.008 4.359h4.363zM723 148h7v-7h-7v7zM864.683 324.675v-4.357h-4.374v4.36l4.374-.003zM866 319l-.008 7H859l.008-7H866zM864.682 266.678v-4.363l-4.379-.004v4.363l4.379.004zm1.31-5.678l.008 7h-7v-7h6.992z"/><path d="M858.789 266.679v-4.37h-14.57v4.36l14.57.01zM860 261v7l-17-.004V261h17z" fill="#B9B9BE"/><path fill="#B9B9BE" d="M865 230l-.007 32-6.394-.004.007-25.462H843V230zM837.764 235.675l.007-4.35-43.535-.007v4.357h43.528zM839 230v7h-45.993l-.007-7h46z"/><path fill="#B9B9BE" d="M794 230v6.996l-7 .004v-7zM952.677 184.756l-.009-27.516h-4.353l.008 27.516h4.354zM953.993 156l.007 30-6.984-.008-.016-29.99 6.993-.002zM810.513 106v58.42h111.974l.008-8.651H929L928.992 171H804l.007-65z"/><path fill="#B9B9BE" d="M954 150v7l-7-.004v-6.992z"/><path d="M947.775 155.681v-4.363l-17.55-.004v4.367h17.55zM929 157h20v-7h-20v7zM923.764 155.76l-.008-4.103-44.42-.003v-44.407h-4.1l.008 48.51 48.52.003zM880.57 106v44.418H925V157h-51v-51h6.571z" fill="#B9B9BE"/><path d="M948.776 105.343v44.417h4.005l.015-48.518h-22.585v4.1h18.565zm5.217-5.34L954 151h-6.436v-44.41H929V100l24.993.004zM925 100v7h-45v-6.996z" fill="#B9B9BE"/><path d="M925.671 50.312v50.452h4.093v-54.53h-48.535v4.078h44.442zM931 45v57h-6.565V51.553H880V45h51z" fill="#B9B9BE"/><path d="M879.683 99.784V51.225h-4.358l-.008 48.559h4.366zM880.991 50l.009 51h-7V50h6.991zM1039.325 98.759h4.357V51.238h-4.357v47.52zM1045 50v50h-7l.009-50H1045zM1070.682 49.69v-4.372h-4.364l-.007 4.371h4.37zM1072 44v6.996l-7 .004v-7h7z" fill="#B9B9BE"/><path fill="#B9B9BE" d="M1066 44l-.007 7H1044v-7z"/><path d="M1043.682 49.69v-4.372l-4.357.009v4.362h4.357zM1038 51h7v-7h-7v7zM1022 0v6.991L1015 7V0zM160.5 592v-24 24zM160.237 568.004V592h.526l-.008-24z" fill="#B9B9BE"/><g transform="translate(0 -91)"><path d="M197.306 501.414c2.251 0 4.084 1.83 4.092 4.073a4.088 4.088 0 01-4.084 4.083 4.081 4.081 0 01-4.077-4.08 4.074 4.074 0 014.07-4.076M613.278 502.256v31.9l42.285 31.83v-31.89zM335.982 447.47h-27.75l-27.69 36.763h27.743z" fill="#B9B9BE"/><g transform="translate(0 568.794)"><mask id="b" fill="#fff"><use xlink:href="#a"/></mask><path d="M53.856 65.95h44.27L52.015 4.764H7.775l46.08 61.188zm52.053 3.88H51.924L0 .884h53.947L105.91 69.83z" fill="#B9B9BE" mask="url(#b)"/></g><mask id="d" fill="#fff"><use xlink:href="#c"/></mask><path d="M877.286 433.294h4.07v-4.061h-4.07v4.06zm-1.228 1.227l-.007-6.515h6.524v6.518l-6.517-.003z" fill="#B9B9BE" mask="url(#d)"/><path fill="#B9B9BE" mask="url(#d)" d="M897.261 486.96V434.52h-15.906v-6.511l22.424-.008v58.96z"/><path d="M877.286 485.724h4.07v-51.203h-4.07v51.203zm-1.228 1.235h6.517v-53.665h-6.517v53.665z" fill="#B9B9BE" mask="url(#d)"/><path d="M788.17 486.96l-.008 75.891h4.062l.007-71.84 83.827.009v-4.06H788.17zm5.29 5.279v71.846h-6.526v-78.36h90.352v6.514h-83.827z" fill="#B9B9BE" mask="url(#d)"/><path d="M877.286 491.02h4.07v-4.06h-4.07v4.06zm-1.228 1.22l-.007-6.516h6.524v6.515h-6.517z" fill="#B9B9BE" mask="url(#d)"/><path d="M882.576 486.96l.007 4.06h14.678v-4.06h-14.685zm-1.22 5.287v-6.523h17.126v6.515l-17.127.008z" fill="#B9B9BE" mask="url(#d)"/><path fill="#B9B9BE" mask="url(#d)" d="M876.058 522.966v-31.947h6.525l-.008 25.428 15.906-.004v6.523zM903.771 521.73h43.46v-4.056h-43.46v4.057zm-1.228 1.236v-6.523l45.915.004v6.519h-45.915z"/><path fill="#B9B9BE" mask="url(#d)" d="M947.23 522.966v-6.523l6.525.004v6.519zM788.162 569.374l.015 27.314 4.062.003-.008-27.317h-4.069zm-1.212 28.544l-.016-29.78h6.525l.014 29.78h-6.523z"/><path d="M788.184 597.918l-.007 4.069h4.062l.008-4.069h-4.063zm-1.234 5.296v-6.53l6.524.004-.008 6.526h-6.516z" fill="#B9B9BE" mask="url(#d)"/><path d="M793.474 597.918l-.007 4.069h17.596l-.008-4.069h-17.581zm-1.235 5.296v-6.523l20.051-.008v6.53h-20.05zM817.587 597.923v4.064h44.119v43.984h4.061l-.007-48.053-48.173.005zm42.876 49.279v-43.988h-44.111v-6.53h50.635v50.518h-6.524z" fill="#B9B9BE" mask="url(#d)"/><path d="M792.239 647.205v-43.991l-4.062.004v48.047h22.885v-4.06H792.24zm-5.29 5.28v-50.499h6.517l.007 43.992 18.817-.008v6.515h-25.34z" fill="#B9B9BE" mask="url(#d)"/><path d="M812.29 645.97h4.062v-42.757h-4.062v42.757zm-1.228 1.236h6.525v-45.22h-6.525v45.22z" fill="#B9B9BE" mask="url(#d)"/><path fill="#B9B9BE" mask="url(#d)" d="M816.352 652.49v-6.52h45.354v6.515z"/><path d="M852.324 637.834l.008 22.795h22.802v-22.795h-22.81zm-6.895 29.689h36.594v-36.575h-36.594v36.575z" fill="#B9B9BE" mask="url(#d)"/><path d="M866.988 651.262h62.768v-4.06h-62.768v4.06zm-1.22 1.223v-6.515l65.215.008v6.507h-65.216zM702.228 649.758v4.068h66.421v72.711h4.062v-76.78h-70.483zm65.194 78.013v-72.718H701v-6.522h72.946l-.008 79.24h-6.516zM816.352 702.72v-50.23l-4.063-.005v54.294h48.174l.007-4.068-44.118.008zm-5.29 5.286v-56.74h6.525l-.008 50.218h44.127v6.522h-50.644z" fill="#B9B9BE" mask="url(#d)"/><path d="M696.931 655.053v46.836l4.069-.003v-46.833h-4.069zm-1.212 48.071h6.51v-49.298h-6.51v49.298zM792.845 563.473h-5.29l-.007 5.28h5.297zM816.973 597.305h-5.29l-.007 5.291 5.297.005zM816.973 646.588l-5.297.003v5.288h5.297zM935.659 646.591h-5.29v5.288h5.298z" fill="#B9B9BE" mask="url(#d)"/><path fill="#B9B9BE" mask="url(#d)" d="M701.622 649.148l-5.297.004v5.288l5.297-.003zM732.775 555.722h-5.297v5.284l5.297.004zM843.95 507.027h5.298v-5.295h-5.297zM989.015 532.428l-5.297.008v5.29l5.297-.003zM644.12 645.25h4.063v-4.052h-4.063v4.052zm5.29-5.284v6.527l-6.517-.008v-6.519h6.517zM682.889 608.714h24.766M707.654 608.471v.485l-24.765-.004.008-.48zM695.279 596.335l-.007 24.758"/><path fill="#B9B9BE" mask="url(#d)" d="M695.522 621.092l-.485.004v-24.761h.477zM554.05 642.312c3.872.008 7.01 3.136 7.01 7.007a6.996 6.996 0 01-7.01 7 6.998 6.998 0 01-7.002-7c0-3.87 3.136-7 7.001-7.007"/></g></g></svg>