<svg width="611" height="506" viewBox="0 0 611 506" fill="none" xmlns="http://www.w3.org/2000/svg">
<path fill-rule="evenodd" clip-rule="evenodd" d="M238.63 329C238.63 333.675 242.462 337.465 247.188 337.465C251.914 337.465 255.747 333.675 255.747 329C255.747 324.326 251.914 320.536 247.188 320.536C242.462 320.536 238.63 324.326 238.63 329ZM277.251 329C277.251 333.674 281.083 337.465 285.81 337.465C290.537 337.465 294.369 333.674 294.369 329C294.369 324.326 290.537 320.536 285.81 320.536C281.083 320.536 277.251 324.326 277.251 329ZM230 329V312H285.791C285.795 312 285.799 312.001 285.801 312.001C285.804 312.001 285.807 312 285.81 312C294.343 312 301.404 318.155 302.75 326.217C302.754 326.244 302.757 326.271 302.762 326.297C302.85 326.839 302.912 327.387 302.946 327.945C302.948 327.992 302.95 328.039 302.953 328.086C302.968 328.391 303 328.691 303 329C303 329.249 302.973 329.491 302.961 329.737C302.961 329.762 302.962 329.786 302.961 329.811C302.961 329.84 302.955 329.867 302.954 329.897C302.925 330.433 302.873 330.962 302.795 331.485C302.793 331.496 302.792 331.509 302.791 331.521C301.555 339.711 294.435 346 285.81 346H285.248H285.246H247.208C247.204 346 247.2 345.999 247.197 345.999C247.194 345.999 247.191 346 247.189 346H247.188C239.256 346 232.596 340.678 230.615 333.452C230.614 333.451 230.614 333.45 230.614 333.449C230.466 332.904 230.345 332.35 230.25 331.785C230.245 331.757 230.241 331.729 230.236 331.702C230.148 331.16 230.088 330.613 230.053 330.057C230.051 330.009 230.049 329.961 230.046 329.913C230.03 329.608 230 329.309 230 329Z" fill="#31313C"/>
<path fill-rule="evenodd" clip-rule="evenodd" d="M584.536 290.189C584.536 294.916 588.326 298.747 593 298.747C597.675 298.747 601.465 294.916 601.465 290.189C601.465 285.463 597.675 281.631 593 281.631C588.326 281.631 584.536 285.463 584.536 290.189ZM584.536 328.811C584.536 333.538 588.326 337.37 593 337.37C597.674 337.37 601.464 333.538 601.464 328.811C601.464 324.084 597.674 320.253 593 320.253C588.326 320.253 584.536 324.084 584.536 328.811ZM593.913 273.047C593.96 273.05 594.009 273.051 594.057 273.054C594.613 273.088 595.16 273.149 595.701 273.237C595.729 273.242 595.757 273.245 595.785 273.25C596.35 273.345 596.904 273.466 597.449 273.615C597.45 273.615 597.451 273.615 597.452 273.616C604.678 275.597 610 282.257 610 290.189C610 290.192 609.999 290.194 609.999 290.198C609.999 290.201 610 290.205 610 290.208V328.247V328.248V328.811C610 337.436 603.71 344.555 595.521 345.791C595.509 345.792 595.496 345.795 595.484 345.797C594.962 345.874 594.433 345.926 593.896 345.954C593.867 345.955 593.84 345.961 593.811 345.962C593.786 345.963 593.762 345.961 593.737 345.962C593.491 345.974 593.249 346 593 346C592.691 346 592.391 345.969 592.086 345.953C592.039 345.95 591.991 345.949 591.945 345.946C591.387 345.912 590.839 345.851 590.297 345.763C590.27 345.758 590.244 345.755 590.217 345.75C582.155 344.405 576 337.343 576 328.811C576 328.808 576.001 328.805 576.001 328.802C576.001 328.799 576 328.795 576 328.792V273H593C593.309 273 593.608 273.031 593.913 273.047Z" fill="#31313C"/>
<path fill-rule="evenodd" clip-rule="evenodd" d="M601.465 405.812C601.465 401.085 597.674 397.253 593 397.253C588.326 397.253 584.536 401.085 584.536 405.812C584.536 410.538 588.326 414.37 593 414.37C597.674 414.37 601.465 410.538 601.465 405.812ZM601.465 367.19C601.465 362.462 597.674 358.631 593 358.631C588.326 358.631 584.536 362.462 584.536 367.19C584.536 371.916 588.326 375.748 593 375.748C597.674 375.748 601.465 371.916 601.465 367.19ZM592.087 422.953C592.04 422.951 591.991 422.949 591.943 422.947C591.388 422.912 590.84 422.851 590.299 422.763C590.271 422.759 590.244 422.755 590.215 422.75C589.65 422.655 589.096 422.534 588.552 422.386C588.55 422.386 588.549 422.385 588.548 422.385C581.322 420.404 576 413.744 576 405.812V405.811C576 405.809 576.001 405.806 576.001 405.803C576.001 405.8 576 405.795 576 405.792V367.753V367.752V367.19C576 358.564 582.29 351.445 590.479 350.209C590.491 350.208 590.504 350.206 590.516 350.204C591.039 350.126 591.567 350.075 592.104 350.046C592.133 350.045 592.16 350.039 592.189 350.039C592.215 350.038 592.238 350.039 592.263 350.039C592.509 350.027 592.751 350 593 350C593.31 350 593.609 350.032 593.914 350.047C593.961 350.05 594.009 350.051 594.055 350.054C594.613 350.088 595.161 350.15 595.704 350.238C595.73 350.243 595.756 350.246 595.783 350.251C603.845 351.596 610 358.657 610 367.19C610 367.193 609.999 367.196 609.999 367.198C609.999 367.201 610 367.205 610 367.208V423H593C592.691 423 592.392 422.971 592.087 422.953Z" fill="#31313C"/>
<path fill-rule="evenodd" clip-rule="evenodd" d="M554.812 281.536C550.086 281.536 546.253 285.326 546.253 290C546.253 294.675 550.086 298.465 554.812 298.465C559.538 298.465 563.37 294.675 563.37 290C563.37 285.326 559.538 281.536 554.812 281.536ZM516.19 281.536C511.463 281.536 507.631 285.326 507.631 290C507.631 294.675 511.463 298.465 516.19 298.465C520.917 298.465 524.749 294.675 524.749 290C524.749 285.326 520.917 281.536 516.19 281.536ZM571.954 290.914C571.951 290.961 571.949 291.009 571.947 291.057C571.912 291.613 571.852 292.161 571.764 292.702C571.759 292.729 571.755 292.757 571.75 292.785C571.655 293.351 571.534 293.905 571.386 294.449C571.386 294.45 571.386 294.451 571.385 294.453C569.404 301.679 562.744 307 554.812 307H554.811H554.803H554.792H516.754H516.752H516.19C507.565 307 500.445 300.711 499.209 292.521C499.208 292.509 499.207 292.497 499.205 292.485C499.127 291.962 499.075 291.433 499.046 290.897C499.045 290.868 499.039 290.84 499.039 290.811C499.038 290.786 499.039 290.763 499.039 290.738C499.027 290.492 499 290.249 499 290C499 289.691 499.032 289.391 499.047 289.086C499.05 289.039 499.052 288.992 499.054 288.946C499.088 288.388 499.15 287.839 499.238 287.297C499.243 287.271 499.246 287.244 499.25 287.218C500.596 279.155 507.657 273 516.19 273C516.193 273 516.196 273.001 516.199 273.001C516.201 273.001 516.205 273 516.209 273H572V290C572 290.309 571.97 290.609 571.954 290.914Z" fill="#31313C"/>
<path fill-rule="evenodd" clip-rule="evenodd" d="M584.536 252C584.536 256.675 588.326 260.465 593 260.465C597.675 260.465 601.465 256.675 601.465 252C601.465 247.326 597.675 243.536 593 243.536C588.326 243.536 584.536 247.326 584.536 252ZM610 252C610 261.389 602.389 269 593 269H576V252C576 242.611 583.611 235 593 235C602.389 235 610 242.611 610 252Z" fill="#31313C"/>
<path fill-rule="evenodd" clip-rule="evenodd" d="M468.535 290C468.535 294.675 472.326 298.464 477 298.464C481.674 298.464 485.464 294.675 485.464 290C485.464 285.325 481.674 281.536 477 281.536C472.326 281.536 468.535 285.325 468.535 290ZM494 290C494 299.388 486.389 307 477 307H460V290C460 280.611 467.611 273 477 273C486.389 273 494 280.611 494 290Z" fill="#31313C"/>
<path fill-rule="evenodd" clip-rule="evenodd" d="M447.465 329C447.465 324.325 443.674 320.535 439 320.535C434.326 320.535 430.536 324.325 430.536 329C430.536 333.674 434.326 337.465 439 337.465C443.674 337.465 447.465 333.674 447.465 329ZM422 329C422 319.611 429.611 312 439 312H456V329C456 338.389 448.389 346 439 346C429.611 346 422 338.389 422 329Z" fill="#31313C"/>
<path fill-rule="evenodd" clip-rule="evenodd" d="M409.465 214C409.465 209.325 405.675 205.535 401 205.535C396.326 205.535 392.536 209.325 392.536 214C392.536 218.675 396.326 222.464 401 222.464C405.675 222.464 409.465 218.675 409.465 214ZM384 214C384 204.611 391.611 197 401 197H418V214C418 223.389 410.389 231 401 231C391.611 231 384 223.389 384 214Z" fill="#31313C"/>
<path fill-rule="evenodd" clip-rule="evenodd" d="M554 320.535C549.326 320.535 545.535 324.325 545.535 329C545.535 333.674 549.326 337.464 554 337.464C558.674 337.464 562.465 333.674 562.465 329C562.465 324.325 558.674 320.535 554 320.535ZM554 346C544.611 346 537 338.389 537 329V312H554C563.39 312 571 319.611 571 329C571 338.389 563.39 346 554 346Z" fill="#31313C"/>
<path fill-rule="evenodd" clip-rule="evenodd" d="M362 281.535C357.325 281.535 353.535 285.326 353.535 290C353.535 294.674 357.325 298.465 362 298.465C366.674 298.465 370.464 294.674 370.464 290C370.464 285.326 366.674 281.535 362 281.535ZM362 307C352.611 307 345 299.39 345 290V273H362C371.389 273 379 280.611 379 290C379 299.39 371.389 307 362 307Z" fill="#31313C"/>
<path fill-rule="evenodd" clip-rule="evenodd" d="M545.535 481C545.535 485.674 549.326 489.465 554 489.465C558.674 489.465 562.465 485.674 562.465 481C562.465 476.326 558.674 472.535 554 472.535C549.326 472.535 545.535 476.326 545.535 481ZM571 481C571 490.389 563.39 498 554 498H537V481C537 471.61 544.611 464 554 464C563.39 464 571 471.61 571 481Z" fill="#31313C"/>
<path fill-rule="evenodd" clip-rule="evenodd" d="M545.535 520C545.535 524.674 549.326 528.465 554 528.465C558.674 528.465 562.465 524.674 562.465 520C562.465 515.325 558.674 511.535 554 511.535C549.326 511.535 545.535 515.325 545.535 520ZM571 520C571 529.389 563.39 537 554 537H537V520C537 510.611 544.611 503 554 503C563.39 503 571 510.611 571 520Z" fill="#31313C"/>
<path fill-rule="evenodd" clip-rule="evenodd" d="M601.465 443C601.465 438.326 597.674 434.535 593 434.535C588.326 434.535 584.535 438.326 584.535 443C584.535 447.675 588.326 451.465 593 451.465C597.674 451.465 601.465 447.675 601.465 443ZM576 443C576 433.611 583.61 426 593 426H610V443C610 452.389 602.39 460 593 460C583.61 460 576 452.389 576 443Z" fill="#31313C"/>
<path fill-rule="evenodd" clip-rule="evenodd" d="M362.188 337.465C366.915 337.465 370.747 333.674 370.747 329C370.747 324.326 366.915 320.535 362.188 320.535C357.462 320.535 353.63 324.326 353.63 329C353.63 333.674 357.462 337.465 362.188 337.465ZM400.81 337.465C405.538 337.465 409.369 333.674 409.369 329C409.369 324.326 405.538 320.535 400.81 320.535C396.084 320.535 392.252 324.326 392.252 329C392.252 333.674 396.084 337.465 400.81 337.465ZM345.047 328.087C345.049 328.039 345.051 327.991 345.053 327.944C345.088 327.388 345.149 326.839 345.237 326.298C345.241 326.27 345.245 326.243 345.25 326.214C345.345 325.65 345.466 325.096 345.614 324.552C345.614 324.551 345.615 324.549 345.615 324.548C347.596 317.323 354.256 312 362.188 312H362.189H362.197H362.208H400.246H400.248H400.81C409.436 312 416.555 318.289 417.791 326.478C417.792 326.492 417.794 326.504 417.796 326.516C417.874 327.039 417.925 327.568 417.954 328.104C417.955 328.133 417.961 328.16 417.961 328.189C417.962 328.214 417.961 328.237 417.961 328.262C417.973 328.509 418 328.751 418 329C418 329.309 417.968 329.609 417.953 329.915C417.95 329.961 417.949 330.008 417.946 330.054C417.912 330.612 417.85 331.161 417.762 331.704C417.757 331.73 417.754 331.756 417.75 331.783C416.404 339.845 409.343 346 400.81 346H400.802H400.792H345V329C345 328.691 345.029 328.391 345.047 328.087Z" fill="#31313C"/>
<path fill-rule="evenodd" clip-rule="evenodd" d="M362.188 260.465C366.915 260.465 370.747 256.675 370.747 252C370.747 247.325 366.915 243.536 362.188 243.536C357.462 243.536 353.63 247.325 353.63 252C353.63 256.675 357.462 260.465 362.188 260.465ZM400.81 260.465C405.538 260.465 409.369 256.675 409.369 252C409.369 247.326 405.538 243.536 400.81 243.536C396.084 243.536 392.252 247.326 392.252 252C392.252 256.675 396.084 260.465 400.81 260.465ZM345.047 251.087C345.049 251.04 345.051 250.991 345.053 250.944C345.088 250.388 345.149 249.84 345.237 249.299C345.241 249.272 345.245 249.243 345.25 249.215C345.345 248.65 345.466 248.096 345.614 247.552C345.614 247.551 345.615 247.549 345.615 247.548C347.596 240.322 354.256 235 362.188 235H362.189C362.191 235 362.194 235.001 362.197 235.001C362.2 235.001 362.205 235 362.208 235H400.246H400.248H400.81C409.436 235 416.555 241.29 417.791 249.479C417.792 249.491 417.794 249.504 417.796 249.516C417.874 250.038 417.925 250.568 417.954 251.104C417.955 251.133 417.961 251.16 417.961 251.19C417.962 251.215 417.961 251.238 417.961 251.263C417.973 251.509 418 251.751 418 252C418 252.31 417.968 252.61 417.953 252.915C417.95 252.962 417.949 253.009 417.946 253.055C417.912 253.613 417.85 254.161 417.762 254.704C417.757 254.73 417.754 254.757 417.75 254.783C416.404 262.845 409.343 269 400.81 269C400.807 269 400.804 269 400.802 269C400.799 269 400.795 269 400.792 269H345V252C345 251.692 345.029 251.392 345.047 251.087Z" fill="#31313C"/>
<path fill-rule="evenodd" clip-rule="evenodd" d="M353.535 175.189C353.535 179.916 357.326 183.747 362 183.747C366.674 183.747 370.465 179.916 370.465 175.189C370.465 170.463 366.674 166.631 362 166.631C357.326 166.631 353.535 170.463 353.535 175.189ZM353.535 213.811C353.535 218.538 357.326 222.37 362 222.37C366.674 222.37 370.465 218.538 370.465 213.811C370.465 209.084 366.674 205.252 362 205.252C357.326 205.252 353.535 209.084 353.535 213.811ZM362.914 158.047C362.961 158.05 363.009 158.051 363.056 158.054C363.612 158.088 364.161 158.149 364.702 158.238C364.73 158.242 364.757 158.246 364.786 158.25C365.35 158.345 365.904 158.466 366.448 158.615C366.449 158.615 366.451 158.615 366.452 158.616C373.677 160.597 379 167.257 379 175.189V175.198V175.208V213.247V213.248V213.811C379 222.436 372.711 229.556 364.522 230.791C364.508 230.793 364.496 230.794 364.484 230.797C363.961 230.874 363.432 230.926 362.896 230.954C362.867 230.956 362.84 230.961 362.811 230.962C362.786 230.963 362.763 230.961 362.738 230.962C362.491 230.974 362.249 231 362 231C361.691 231 361.391 230.969 361.085 230.953C361.039 230.951 360.992 230.949 360.946 230.946C360.388 230.912 359.839 230.851 359.296 230.763C359.27 230.758 359.244 230.755 359.217 230.75C351.155 229.405 345 222.343 345 213.811V213.802V213.792V158H362C362.309 158 362.609 158.031 362.914 158.047Z" fill="#31313C"/>
<path fill-rule="evenodd" clip-rule="evenodd" d="M353.535 367.188C353.535 371.915 357.326 375.747 362 375.747C366.674 375.747 370.465 371.915 370.465 367.188C370.465 362.462 366.674 358.63 362 358.63C357.326 358.63 353.535 362.462 353.535 367.188ZM353.535 405.81C353.535 410.538 357.326 414.369 362 414.369C366.674 414.369 370.465 410.538 370.465 405.81C370.465 401.084 366.674 397.252 362 397.252C357.326 397.252 353.535 401.084 353.535 405.81ZM362.913 350.047C362.961 350.049 363.009 350.051 363.056 350.053C363.612 350.088 364.16 350.149 364.702 350.237C364.729 350.242 364.757 350.245 364.786 350.25C365.349 350.345 365.904 350.466 366.448 350.614C366.449 350.614 366.451 350.615 366.452 350.615C373.677 352.596 379 359.256 379 367.188V367.189V367.197V367.208V405.247V405.248V405.81C379 414.436 372.711 421.555 364.522 422.791C364.508 422.793 364.496 422.794 364.484 422.796C363.961 422.874 363.432 422.925 362.896 422.954C362.866 422.956 362.84 422.961 362.811 422.962C362.786 422.963 362.763 422.961 362.738 422.961C362.491 422.973 362.249 423 362 423C361.691 423 361.39 422.968 361.085 422.953C361.038 422.95 360.992 422.949 360.945 422.946C360.388 422.912 359.839 422.85 359.296 422.762C359.27 422.757 359.244 422.754 359.216 422.75C351.155 421.404 345 414.343 345 405.81V405.802V405.792V350H362C362.308 350 362.608 350.029 362.913 350.047Z" fill="#31313C"/>
<path fill-rule="evenodd" clip-rule="evenodd" d="M447.465 405.812C447.465 401.085 443.674 397.253 439 397.253C434.326 397.253 430.536 401.085 430.536 405.812C430.536 410.538 434.326 414.37 439 414.37C443.674 414.37 447.465 410.538 447.465 405.812ZM447.465 367.19C447.465 362.462 443.674 358.631 439 358.631C434.326 358.631 430.536 362.462 430.536 367.19C430.536 371.916 434.326 375.749 439 375.749C443.674 375.749 447.465 371.916 447.465 367.19ZM438.087 422.954C438.04 422.951 437.991 422.949 437.943 422.947C437.388 422.912 436.84 422.852 436.299 422.763C436.271 422.759 436.244 422.755 436.215 422.75C435.65 422.655 435.096 422.534 434.552 422.386C434.55 422.386 434.549 422.386 434.548 422.385C427.322 420.404 422 413.744 422 405.812V405.811C422 405.809 422.001 405.806 422.001 405.803C422.001 405.8 422 405.795 422 405.792V367.754V367.752V367.19C422 358.565 428.29 351.445 436.479 350.209C436.491 350.208 436.504 350.207 436.516 350.204C437.039 350.126 437.567 350.075 438.104 350.046C438.133 350.045 438.16 350.039 438.19 350.039C438.215 350.038 438.238 350.039 438.263 350.039C438.509 350.027 438.751 350 439 350C439.31 350 439.609 350.032 439.914 350.047C439.961 350.05 440.009 350.052 440.055 350.054C440.613 350.088 441.161 350.15 441.704 350.238C441.73 350.243 441.756 350.246 441.783 350.251C449.845 351.596 456 358.657 456 367.19C456 367.193 455.999 367.196 455.999 367.198C455.999 367.201 456 367.205 456 367.209V423H439C438.691 423 438.392 422.971 438.087 422.954Z" fill="#31313C"/>
<path fill-rule="evenodd" clip-rule="evenodd" d="M392.535 366C392.535 370.674 396.325 374.464 401 374.464C405.674 374.464 409.464 370.674 409.464 366C409.464 361.325 405.674 357.535 401 357.535C396.325 357.535 392.535 361.325 392.535 366ZM418 366C418 375.389 410.389 383 401 383H384V366C384 356.611 391.611 349 401 349C410.389 349 418 356.611 418 366Z" fill="#31313C"/>
<path fill-rule="evenodd" clip-rule="evenodd" d="M392.535 481C392.535 485.674 396.325 489.465 401 489.465C405.674 489.465 409.464 485.674 409.464 481C409.464 476.326 405.674 472.535 401 472.535C396.325 472.535 392.535 476.326 392.535 481ZM418 481C418 490.389 410.389 498 401 498H384V481C384 471.61 391.611 464 401 464C410.389 464 418 471.61 418 481Z" fill="#31313C"/>
<path fill-rule="evenodd" clip-rule="evenodd" d="M505.63 366C505.63 370.674 509.462 374.464 514.188 374.464C518.915 374.464 522.747 370.674 522.747 366C522.747 361.325 518.915 357.535 514.188 357.535C509.462 357.535 505.63 361.325 505.63 366ZM544.252 366C544.252 370.674 548.084 374.464 552.81 374.464C557.538 374.464 561.369 370.674 561.369 366C561.369 361.325 557.538 357.535 552.81 357.535C548.084 357.535 544.252 361.325 544.252 366ZM497 366V349H552.792H552.802H552.81C561.343 349 568.404 355.155 569.75 363.217C569.754 363.244 569.757 363.27 569.762 363.297C569.85 363.839 569.912 364.387 569.946 364.945C569.949 364.991 569.95 365.039 569.953 365.085C569.968 365.391 570 365.69 570 366C570 366.248 569.973 366.491 569.961 366.737C569.961 366.762 569.962 366.785 569.961 366.81C569.961 366.84 569.955 366.867 569.954 366.896C569.925 367.433 569.874 367.961 569.796 368.484C569.794 368.496 569.792 368.508 569.791 368.521C568.555 376.71 561.436 382.999 552.81 382.999H552.248C552.248 382.999 552.247 383 552.246 383H514.208C514.205 383 514.2 382.999 514.197 382.999H514.189H514.188C506.256 382.999 499.596 377.677 497.615 370.452C497.615 370.451 497.614 370.449 497.614 370.448C497.466 369.904 497.345 369.35 497.25 368.785C497.245 368.756 497.241 368.729 497.237 368.701C497.149 368.16 497.088 367.613 497.053 367.056C497.051 367.009 497.049 366.96 497.047 366.913C497.029 366.608 497 366.309 497 366Z" fill="#31313C"/>
<path fill-rule="evenodd" clip-rule="evenodd" d="M477.188 412.465C481.914 412.465 485.746 408.674 485.746 404C485.746 399.326 481.914 395.535 477.188 395.535C472.462 395.535 468.63 399.326 468.63 404C468.63 408.674 472.462 412.465 477.188 412.465ZM515.81 412.465C520.537 412.465 524.368 408.674 524.368 404C524.368 399.326 520.537 395.535 515.81 395.535C511.083 395.535 507.251 399.326 507.251 404C507.251 408.674 511.083 412.465 515.81 412.465ZM460.046 403.087C460.049 403.039 460.05 402.991 460.053 402.944C460.088 402.388 460.148 401.839 460.236 401.298C460.241 401.271 460.245 401.243 460.25 401.214C460.345 400.651 460.466 400.096 460.614 399.552C460.614 399.551 460.614 399.549 460.615 399.548C462.596 392.323 469.256 387 477.188 387H477.197H477.207H515.246H515.248H515.81C524.435 387 531.555 393.289 532.791 401.478C532.792 401.492 532.793 401.504 532.795 401.516C532.873 402.039 532.925 402.568 532.954 403.104C532.955 403.133 532.96 403.16 532.961 403.189C532.962 403.214 532.96 403.237 532.961 403.262C532.973 403.509 533 403.751 533 404C533 404.309 532.968 404.609 532.952 404.915C532.95 404.961 532.948 405.008 532.946 405.055C532.912 405.612 532.848 406.161 532.761 406.704L532.75 406.783C531.404 414.845 524.342 421 515.81 421H515.801H515.791H460V404C460 403.692 460.03 403.391 460.046 403.087Z" fill="#31313C"/>
<path fill-rule="evenodd" clip-rule="evenodd" d="M524.464 481.812C524.464 477.086 520.674 473.253 516 473.253C511.325 473.253 507.535 477.086 507.535 481.812C507.535 486.538 511.325 490.37 516 490.37C520.674 490.37 524.464 486.538 524.464 481.812ZM524.464 443.19C524.464 438.463 520.674 434.631 516 434.631C511.325 434.631 507.535 438.463 507.535 443.19C507.535 447.917 511.325 451.749 516 451.749C520.674 451.749 524.464 447.917 524.464 443.19ZM515.087 498.954C515.039 498.951 514.991 498.949 514.943 498.947C514.387 498.912 513.84 498.852 513.298 498.764C513.271 498.759 513.243 498.755 513.215 498.75C512.65 498.655 512.095 498.534 511.551 498.386C511.55 498.386 511.549 498.386 511.547 498.385C504.322 496.404 499 489.744 499 481.812V481.811V481.803V481.792V443.754V443.752V443.19C499 434.565 505.289 427.445 513.479 426.209C513.491 426.208 513.504 426.207 513.515 426.205C514.038 426.127 514.567 426.075 515.103 426.046C515.133 426.045 515.16 426.039 515.189 426.039C515.214 426.038 515.237 426.039 515.263 426.039C515.508 426.027 515.751 426 516 426C516.309 426 516.609 426.032 516.914 426.047C516.961 426.05 517.008 426.052 517.055 426.054C517.613 426.088 518.161 426.15 518.703 426.238C518.729 426.243 518.756 426.246 518.783 426.25C526.845 427.596 533 434.657 533 443.19C533 443.193 532.999 443.196 532.999 443.199C532.999 443.201 533 443.205 533 443.209V499H516C515.691 499 515.392 498.971 515.087 498.954Z" fill="#31313C"/>
<path fill-rule="evenodd" clip-rule="evenodd" d="M545.535 404.188C545.535 408.914 549.326 412.747 554 412.747C558.674 412.747 562.465 408.914 562.465 404.188C562.465 399.462 558.674 395.63 554 395.63C549.326 395.63 545.535 399.462 545.535 404.188ZM545.535 442.81C545.535 447.537 549.326 451.368 554 451.368C558.674 451.368 562.465 447.537 562.465 442.81C562.465 438.083 558.674 434.251 554 434.251C549.326 434.251 545.535 438.083 545.535 442.81ZM554.914 387.046C554.961 387.049 555.009 387.051 555.056 387.053C555.612 387.088 556.161 387.148 556.702 387.236C556.73 387.241 556.757 387.245 556.786 387.25C557.35 387.345 557.904 387.466 558.448 387.614C558.449 387.614 558.451 387.614 558.452 387.615C565.677 389.596 571 396.256 571 404.188V404.197V404.208V442.246V442.248V442.81C571 451.435 564.711 458.555 556.522 459.791C556.508 459.792 556.496 459.793 556.484 459.795C555.961 459.873 555.432 459.925 554.896 459.954C554.867 459.955 554.84 459.96 554.811 459.961C554.786 459.962 554.763 459.96 554.738 459.961C554.491 459.973 554.249 460 554 460C553.691 460 553.391 459.968 553.085 459.953C553.039 459.95 552.992 459.948 552.946 459.946C552.388 459.912 551.839 459.85 551.296 459.761L551.217 459.75C543.155 458.404 537 451.342 537 442.81V442.801V442.791V387H554C554.309 387 554.609 387.029 554.914 387.046Z" fill="#31313C"/>
<path fill-rule="evenodd" clip-rule="evenodd" d="M584.535 481.188C584.535 485.915 588.326 489.747 593 489.747C597.674 489.747 601.465 485.915 601.465 481.188C601.465 476.462 597.674 472.63 593 472.63C588.326 472.63 584.535 476.462 584.535 481.188ZM584.535 519.81C584.535 524.537 588.326 528.369 593 528.369C597.674 528.369 601.465 524.537 601.465 519.81C601.465 515.083 597.674 511.251 593 511.251C588.326 511.251 584.535 515.083 584.535 519.81ZM593.913 464.046C593.961 464.049 594.009 464.051 594.056 464.053C594.612 464.088 595.16 464.148 595.702 464.236C595.729 464.241 595.757 464.245 595.785 464.25C596.349 464.345 596.904 464.466 597.448 464.614C597.449 464.614 597.45 464.614 597.452 464.615C604.677 466.596 610 473.256 610 481.188V481.189V481.197V481.208V519.246V519.248V519.81C610 528.435 603.711 535.555 595.521 536.791C595.508 536.792 595.496 536.793 595.484 536.796C594.961 536.874 594.432 536.925 593.896 536.954C593.866 536.955 593.839 536.961 593.811 536.961C593.786 536.962 593.763 536.961 593.738 536.961C593.491 536.973 593.249 537 593 537C592.691 537 592.39 536.968 592.085 536.953C592.038 536.95 591.992 536.948 591.945 536.946C591.388 536.912 590.839 536.85 590.296 536.762C590.27 536.757 590.243 536.754 590.216 536.75C582.155 535.404 576 528.343 576 519.81V519.801V519.791V464H593C593.308 464 593.608 464.029 593.913 464.046Z" fill="#31313C"/>
<path fill-rule="evenodd" clip-rule="evenodd" d="M507.535 329C507.535 333.675 511.326 337.465 516 337.465C520.674 337.465 524.465 333.675 524.465 329C524.465 324.326 520.674 320.535 516 320.535C511.326 320.535 507.535 324.326 507.535 329ZM533 329C533 338.389 525.39 346 516 346H499V329C499 319.611 506.611 312 516 312C525.39 312 533 319.611 533 329Z" fill="#31313C"/>
<path fill-rule="evenodd" clip-rule="evenodd" d="M477 434.535C472.325 434.535 468.535 438.325 468.535 443C468.535 447.674 472.325 451.464 477 451.464C481.674 451.464 485.465 447.674 485.465 443C485.465 438.325 481.674 434.535 477 434.535ZM477 460C467.611 460 460 452.389 460 443V426H477C486.389 426 494 433.611 494 443C494 452.389 486.389 460 477 460Z" fill="#31313C"/>
<path fill-rule="evenodd" clip-rule="evenodd" d="M324 374.369C328.675 374.369 332.465 370.537 332.465 365.811C332.465 361.085 328.675 357.253 324 357.253C319.326 357.253 315.536 361.085 315.536 365.811C315.536 370.537 319.326 374.369 324 374.369ZM324 335.748C328.674 335.748 332.464 331.916 332.464 327.189C332.464 322.462 328.674 318.631 324 318.631C319.326 318.631 315.536 322.462 315.536 327.189C315.536 331.916 319.326 335.748 324 335.748ZM324 383H307V327.208C307 327.205 307.001 327.201 307.001 327.198C307.001 327.196 307 327.193 307 327.189C307 318.657 313.155 311.596 321.217 310.25C321.244 310.246 321.27 310.243 321.297 310.238C321.839 310.15 322.387 310.088 322.945 310.054C322.991 310.051 323.039 310.049 323.086 310.047C323.391 310.031 323.691 310 324 310C324.249 310 324.491 310.027 324.737 310.039C324.762 310.039 324.786 310.037 324.811 310.038C324.84 310.039 324.867 310.044 324.896 310.046C325.433 310.074 325.962 310.126 326.484 310.204C326.496 310.206 326.509 310.207 326.521 310.209C334.71 311.444 341 318.564 341 327.189V327.752V327.753V365.792C341 365.795 340.999 365.799 340.999 365.802C340.999 365.806 341 365.808 341 365.811C341 373.744 335.678 380.404 328.452 382.384C328.451 382.385 328.45 382.386 328.449 382.386C327.904 382.534 327.35 382.655 326.785 382.75C326.757 382.754 326.729 382.758 326.701 382.763C326.16 382.851 325.613 382.912 325.057 382.947C325.009 382.949 324.96 382.95 324.913 382.953C324.608 382.969 324.309 383 324 383Z" fill="#31313C"/>
<path fill-rule="evenodd" clip-rule="evenodd" d="M332.465 213C332.465 208.325 328.675 204.536 324 204.536C319.326 204.536 315.535 208.325 315.535 213C315.535 217.675 319.326 221.464 324 221.464C328.675 221.464 332.465 217.675 332.465 213ZM341 213C341 222.389 333.389 230 324 230H307V213C307 203.611 314.611 196 324 196C333.389 196 341 203.611 341 213Z" fill="#31313C"/>
<path fill-rule="evenodd" clip-rule="evenodd" d="M315.536 252.189C315.536 256.916 319.326 260.747 324 260.747C328.675 260.747 332.465 256.916 332.465 252.189C332.465 247.463 328.675 243.631 324 243.631C319.326 243.631 315.536 247.463 315.536 252.189ZM315.536 290.811C315.536 295.538 319.326 299.37 324 299.37C328.674 299.37 332.464 295.538 332.464 290.811C332.464 286.084 328.674 282.253 324 282.253C319.326 282.253 315.536 286.084 315.536 290.811ZM324.913 235.047C324.96 235.05 325.009 235.051 325.057 235.054C325.613 235.089 326.16 235.15 326.701 235.238C326.729 235.242 326.757 235.246 326.785 235.25C327.35 235.345 327.904 235.466 328.449 235.615C328.45 235.615 328.451 235.616 328.452 235.616C335.678 237.597 341 244.257 341 252.189C341 252.192 340.999 252.195 340.999 252.198C340.999 252.201 341 252.205 341 252.208V290.247V290.249V290.811C341 299.436 334.71 306.556 326.521 307.791C326.509 307.793 326.496 307.795 326.484 307.797C325.962 307.874 325.433 307.927 324.896 307.954C324.867 307.956 324.84 307.961 324.811 307.963C324.786 307.964 324.762 307.961 324.737 307.962C324.491 307.974 324.249 308 324 308C323.691 308 323.391 307.971 323.086 307.953C323.039 307.95 322.991 307.949 322.945 307.946C322.387 307.912 321.839 307.851 321.297 307.763C321.27 307.758 321.244 307.755 321.217 307.75C313.155 306.405 307 299.343 307 290.811C307 290.808 307.001 290.805 307.001 290.802C307.001 290.8 307 290.795 307 290.792V235H324C324.309 235 324.608 235.031 324.913 235.047Z" fill="#31313C"/>
<path fill-rule="evenodd" clip-rule="evenodd" d="M285 374.465C289.674 374.465 293.464 370.674 293.464 366C293.464 361.326 289.674 357.535 285 357.535C280.325 357.535 276.535 361.326 276.535 366C276.535 370.674 280.325 374.465 285 374.465ZM285 349C294.389 349 302 356.611 302 366V383H285C275.611 383 268 375.389 268 366C268 356.611 275.611 349 285 349Z" fill="#31313C"/>
<path fill-rule="evenodd" clip-rule="evenodd" d="M362 489.465C366.674 489.465 370.465 485.674 370.465 481C370.465 476.326 366.674 472.535 362 472.535C357.326 472.535 353.535 476.326 353.535 481C353.535 485.674 357.326 489.465 362 489.465ZM362 464C371.389 464 379 471.61 379 481V498H362C352.61 498 345 490.39 345 481C345 471.61 352.61 464 362 464Z" fill="#31313C"/>
<path fill-rule="evenodd" clip-rule="evenodd" d="M439.188 183.464C443.915 183.464 447.747 179.674 447.747 175C447.747 170.325 443.915 166.535 439.188 166.535C434.462 166.535 430.63 170.325 430.63 175C430.63 179.674 434.462 183.464 439.188 183.464ZM477.81 183.464C482.538 183.464 486.369 179.674 486.369 175C486.369 170.325 482.538 166.536 477.81 166.536C473.084 166.536 469.251 170.325 469.251 175C469.251 179.674 473.084 183.464 477.81 183.464ZM422.046 174.087C422.049 174.039 422.051 173.991 422.053 173.943C422.088 173.387 422.148 172.84 422.237 172.299C422.241 172.271 422.245 172.243 422.25 172.215C422.345 171.65 422.466 171.096 422.614 170.551C422.614 170.55 422.614 170.549 422.615 170.548C424.596 163.322 431.256 158 439.188 158H439.189C439.191 158 439.194 158 439.197 158C439.2 158 439.204 158 439.208 158H477.246H477.248H477.81C486.435 158 493.555 164.289 494.791 172.479C494.792 172.491 494.793 172.503 494.796 172.516C494.874 173.038 494.925 173.567 494.954 174.104C494.955 174.132 494.961 174.16 494.961 174.189C494.962 174.214 494.961 174.238 494.961 174.262C494.973 174.508 495 174.751 495 175C495 175.309 494.968 175.609 494.953 175.914C494.95 175.961 494.948 176.008 494.946 176.055C494.912 176.612 494.85 177.161 494.762 177.703C494.757 177.729 494.754 177.756 494.75 177.783C493.404 185.845 486.343 192 477.81 192C477.807 192 477.804 191.999 477.801 191.999C477.799 191.999 477.795 192 477.791 192H422V175C422 174.691 422.03 174.391 422.046 174.087Z" fill="#31313C"/>
<path fill-rule="evenodd" clip-rule="evenodd" d="M447.37 290C447.37 285.326 443.537 281.536 438.812 281.536C434.085 281.536 430.253 285.326 430.253 290C430.253 294.674 434.085 298.464 438.812 298.464C443.537 298.464 447.37 294.674 447.37 290ZM408.748 290C408.748 285.326 404.916 281.536 400.19 281.536C395.462 281.536 391.631 285.326 391.631 290C391.631 294.674 395.462 298.464 400.19 298.464C404.916 298.464 408.748 294.674 408.748 290ZM456 290V307H400.208C400.205 307 400.201 306.999 400.198 306.999C400.196 306.999 400.193 307 400.19 307C391.657 307 384.596 300.844 383.25 292.783C383.246 292.757 383.243 292.73 383.238 292.702C383.15 292.16 383.088 291.612 383.054 291.054C383.051 291.008 383.05 290.962 383.047 290.915C383.032 290.61 383 290.309 383 290C383 289.75 383.027 289.509 383.039 289.262C383.039 289.237 383.037 289.214 383.038 289.189C383.039 289.161 383.044 289.133 383.046 289.104C383.075 288.568 383.126 288.039 383.204 287.516C383.206 287.504 383.208 287.491 383.209 287.479C384.444 279.29 391.564 273 400.19 273H400.752H400.753H438.792C438.795 273 438.799 273.001 438.803 273.001C438.806 273.001 438.808 273 438.811 273H438.812C446.744 273 453.404 278.322 455.385 285.548C455.385 285.55 455.386 285.551 455.386 285.552C455.534 286.096 455.655 286.65 455.75 287.215C455.755 287.243 455.758 287.271 455.763 287.299C455.851 287.84 455.912 288.387 455.947 288.944C455.949 288.991 455.951 289.039 455.953 289.086C455.971 289.391 456 289.692 456 290Z" fill="#31313C"/>
<path fill-rule="evenodd" clip-rule="evenodd" d="M430.535 213.189C430.535 217.916 434.326 221.747 439 221.747C443.674 221.747 447.465 217.916 447.465 213.189C447.465 208.463 443.674 204.631 439 204.631C434.326 204.631 430.535 208.463 430.535 213.189ZM430.535 251.811C430.535 256.538 434.326 260.37 439 260.37C443.674 260.37 447.465 256.538 447.465 251.811C447.465 247.084 443.674 243.252 439 243.252C434.326 243.252 430.535 247.084 430.535 251.811ZM439.913 196.047C439.961 196.05 440.009 196.051 440.056 196.054C440.612 196.088 441.16 196.149 441.702 196.237C441.729 196.242 441.757 196.245 441.785 196.25C442.349 196.345 442.904 196.466 443.448 196.615C443.449 196.615 443.45 196.615 443.452 196.616C450.677 198.597 456 205.257 456 213.189V213.198V213.208V251.247V251.248V251.811C456 260.436 449.711 267.556 441.521 268.791C441.508 268.793 441.495 268.794 441.484 268.796C440.961 268.874 440.432 268.926 439.896 268.954C439.866 268.956 439.839 268.961 439.811 268.962C439.786 268.963 439.763 268.961 439.738 268.962C439.491 268.974 439.249 269 439 269C438.691 269 438.39 268.969 438.085 268.953C438.038 268.95 437.992 268.949 437.945 268.946C437.388 268.912 436.839 268.851 436.296 268.763C436.27 268.758 436.243 268.755 436.216 268.75C428.155 267.405 422 260.343 422 251.811V251.802V251.792V196H439C439.308 196 439.608 196.031 439.913 196.047Z" fill="#31313C"/>
<path fill-rule="evenodd" clip-rule="evenodd" d="M468.536 327.188C468.536 331.915 472.326 335.747 477 335.747C481.675 335.747 485.465 331.915 485.465 327.188C485.465 322.462 481.675 318.63 477 318.63C472.326 318.63 468.536 322.462 468.536 327.188ZM468.536 365.81C468.536 370.538 472.326 374.369 477 374.369C481.674 374.369 485.464 370.538 485.464 365.81C485.464 361.084 481.674 357.252 477 357.252C472.326 357.252 468.536 361.084 468.536 365.81ZM477.913 310.047C477.96 310.049 478.009 310.051 478.057 310.053C478.613 310.088 479.16 310.149 479.701 310.237C479.729 310.241 479.757 310.245 479.785 310.25C480.35 310.345 480.904 310.466 481.449 310.614C481.45 310.614 481.451 310.615 481.452 310.615C488.678 312.596 494 319.256 494 327.188V327.189C494 327.191 493.999 327.194 493.999 327.197C493.999 327.2 494 327.205 494 327.208V365.247V365.248V365.81C494 374.436 487.71 381.555 479.521 382.791C479.509 382.792 479.496 382.794 479.484 382.796C478.962 382.874 478.433 382.925 477.896 382.954C477.867 382.956 477.84 382.961 477.811 382.961C477.786 382.962 477.762 382.961 477.737 382.961C477.491 382.973 477.249 383 477 383C476.691 383 476.391 382.968 476.086 382.953C476.039 382.95 475.991 382.949 475.945 382.946C475.387 382.912 474.839 382.85 474.297 382.762C474.27 382.757 474.244 382.754 474.217 382.749C466.155 381.404 460 374.343 460 365.81C460 365.807 460.001 365.804 460.001 365.802C460.001 365.799 460 365.795 460 365.792V310H477C477.309 310 477.608 310.029 477.913 310.047Z" fill="#31313C"/>
<path fill-rule="evenodd" clip-rule="evenodd" d="M401 183.464C405.675 183.464 409.465 179.674 409.465 175C409.465 170.325 405.675 166.535 401 166.535C396.326 166.535 392.535 170.325 392.535 175C392.535 179.674 396.326 183.464 401 183.464ZM401 158C410.389 158 418 165.611 418 175V192H401C391.611 192 384 184.388 384 175C384 165.611 391.611 158 401 158Z" fill="#31313C"/>
<path fill-rule="evenodd" clip-rule="evenodd" d="M401 451.37C405.674 451.37 409.464 447.538 409.464 442.812C409.464 438.085 405.674 434.253 401 434.253C396.325 434.253 392.535 438.085 392.535 442.812C392.535 447.538 396.325 451.37 401 451.37ZM401 412.748C405.674 412.748 409.464 408.916 409.464 404.19C409.464 399.462 405.674 395.631 401 395.631C396.325 395.631 392.535 399.462 392.535 404.19C392.535 408.916 396.325 412.748 401 412.748ZM401 460H384V404.208C384 404.205 384.001 404.201 384.001 404.198C384.001 404.196 384 404.193 384 404.19C384 395.657 390.155 388.596 398.217 387.25C398.244 387.246 398.27 387.243 398.297 387.238C398.839 387.15 399.387 387.088 399.945 387.054C399.991 387.051 400.039 387.05 400.085 387.047C400.391 387.032 400.69 387 401 387C401.248 387 401.491 387.027 401.737 387.039C401.762 387.039 401.785 387.037 401.81 387.038C401.84 387.039 401.867 387.044 401.896 387.046C402.433 387.075 402.961 387.126 403.484 387.204C403.496 387.206 403.508 387.208 403.521 387.209C411.71 388.445 417.999 395.564 417.999 404.19V404.752L418 404.753V442.792C418 442.795 417.999 442.799 417.999 442.803V442.811V442.812C417.999 450.744 412.678 457.404 405.452 459.385C405.451 459.385 405.45 459.386 405.448 459.386C404.904 459.534 404.35 459.655 403.785 459.75C403.756 459.755 403.729 459.758 403.701 459.763C403.16 459.851 402.613 459.912 402.057 459.947C402.009 459.949 401.96 459.951 401.913 459.953C401.608 459.971 401.309 460 401 460Z" fill="#31313C"/>
<path fill-rule="evenodd" clip-rule="evenodd" d="M371.37 443C371.37 438.326 367.538 434.535 362.812 434.535C358.085 434.535 354.253 438.326 354.253 443C354.253 447.674 358.085 451.465 362.812 451.465C367.538 451.465 371.37 447.674 371.37 443ZM332.749 443C332.749 438.326 328.917 434.535 324.19 434.535C319.463 434.535 315.631 438.326 315.631 443C315.631 447.674 319.463 451.465 324.19 451.465C328.917 451.465 332.749 447.674 332.749 443ZM380 443V460H324.209H324.199H324.19C315.657 460 308.596 453.845 307.25 445.783C307.246 445.756 307.243 445.73 307.238 445.703C307.15 445.161 307.088 444.612 307.054 444.054C307.052 444.008 307.05 443.961 307.047 443.915C307.032 443.609 307 443.309 307 443C307 442.751 307.027 442.509 307.039 442.262C307.039 442.237 307.038 442.214 307.039 442.189C307.039 442.16 307.045 442.133 307.046 442.104C307.075 441.568 307.126 441.039 307.204 440.516C307.207 440.504 307.208 440.492 307.209 440.478C308.445 432.289 315.565 426 324.19 426H324.752H324.754H362.792H362.803H362.811H362.812C370.744 426 377.404 431.323 379.385 438.548C379.386 438.549 379.386 438.551 379.386 438.552C379.534 439.096 379.655 439.65 379.75 440.214C379.755 440.243 379.759 440.27 379.764 440.298C379.852 440.839 379.912 441.387 379.947 441.944C379.949 441.991 379.951 442.039 379.954 442.087C379.97 442.391 380 442.691 380 443Z" fill="#31313C"/>
<path fill-rule="evenodd" clip-rule="evenodd" d="M522.369 519C522.369 514.325 518.537 510.535 513.811 510.535C509.085 510.535 505.253 514.325 505.253 519C505.253 523.674 509.085 527.464 513.811 527.464C518.537 527.464 522.369 523.674 522.369 519ZM483.749 519C483.749 514.326 479.917 510.536 475.19 510.536C470.463 510.536 466.632 514.326 466.632 519C466.632 523.674 470.463 527.464 475.19 527.464C479.917 527.464 483.749 523.674 483.749 519ZM531 519V536H475.208C475.205 536 475.202 535.999 475.199 535.999C475.196 535.999 475.194 536 475.19 536C466.658 536 459.596 529.845 458.25 521.783C458.247 521.756 458.244 521.73 458.239 521.703C458.152 521.161 458.09 520.613 458.055 520.055C458.052 520.009 458.05 519.961 458.048 519.914C458.032 519.609 458 519.31 458 519C458 518.751 458.028 518.509 458.039 518.263C458.04 518.238 458.038 518.214 458.039 518.189C458.04 518.16 458.045 518.133 458.047 518.104C458.075 517.567 458.127 517.038 458.205 516.516C458.207 516.504 458.208 516.491 458.21 516.479C459.445 508.29 466.565 502 475.19 502H475.751H475.753H513.793C513.796 502 513.799 502.001 513.802 502.001C513.805 502.001 513.808 502 513.811 502C521.745 502 528.404 507.322 530.384 514.548C530.385 514.549 530.385 514.55 530.385 514.551C530.534 515.096 530.655 515.65 530.75 516.215C530.754 516.243 530.758 516.271 530.763 516.299C530.851 516.84 530.911 517.387 530.946 517.943C530.949 517.991 530.95 518.04 530.953 518.087C530.97 518.392 531 518.691 531 519Z" fill="#31313C"/>
<path fill-rule="evenodd" clip-rule="evenodd" d="M601.465 214C601.465 209.325 597.675 205.536 593 205.536C588.326 205.536 584.536 209.325 584.536 214C584.536 218.675 588.326 222.464 593 222.464C597.675 222.464 601.465 218.675 601.465 214ZM576 214C576 204.612 583.611 197 593 197H610V214C610 223.389 602.389 231 593 231C583.611 231 576 223.389 576 214Z" fill="#31313C"/>
<path fill-rule="evenodd" clip-rule="evenodd" d="M554.188 183.465C558.915 183.465 562.747 179.675 562.747 175C562.747 170.325 558.915 166.536 554.188 166.536C549.462 166.536 545.63 170.325 545.63 175C545.63 179.675 549.462 183.465 554.188 183.465ZM592.81 183.465C597.537 183.465 601.369 179.675 601.369 175C601.369 170.326 597.537 166.536 592.81 166.536C588.083 166.536 584.251 170.326 584.251 175C584.251 179.675 588.083 183.465 592.81 183.465ZM537.046 174.087C537.049 174.04 537.051 173.991 537.053 173.944C537.088 173.388 537.148 172.84 537.236 172.299C537.241 172.272 537.245 172.243 537.25 172.215C537.345 171.65 537.466 171.096 537.614 170.552C537.614 170.551 537.614 170.549 537.615 170.548C539.596 163.322 546.256 158 554.188 158H554.189C554.191 158 554.194 158.001 554.197 158.001C554.2 158.001 554.204 158 554.208 158H592.246H592.248H592.81C601.435 158 608.555 164.29 609.791 172.479C609.792 172.491 609.793 172.504 609.795 172.516C609.873 173.038 609.925 173.568 609.954 174.104C609.955 174.133 609.961 174.16 609.961 174.19C609.962 174.214 609.961 174.238 609.961 174.263C609.973 174.509 610 174.751 610 175C610 175.31 609.968 175.61 609.953 175.915C609.95 175.962 609.948 176.009 609.946 176.055C609.912 176.613 609.85 177.161 609.762 177.704C609.757 177.73 609.754 177.756 609.75 177.783C608.404 185.845 601.343 192 592.81 192C592.807 192 592.804 192 592.801 192C592.799 192 592.795 192 592.791 192H537V175C537 174.692 537.03 174.392 537.046 174.087Z" fill="#31313C"/>
<path fill-rule="evenodd" clip-rule="evenodd" d="M515.811 204.536C511.085 204.536 507.253 208.326 507.253 212.999C507.253 217.674 511.085 221.464 515.811 221.464C520.537 221.464 524.369 217.674 524.369 212.999C524.369 208.326 520.537 204.536 515.811 204.536ZM477.189 204.536C472.462 204.536 468.631 208.326 468.631 212.999C468.631 217.674 472.462 221.464 477.189 221.464C481.916 221.464 485.748 217.674 485.748 212.999C485.748 208.326 481.916 204.536 477.189 204.536ZM532.953 213.914C532.95 213.961 532.949 214.008 532.947 214.056C532.912 214.612 532.851 215.16 532.763 215.701C532.758 215.729 532.755 215.757 532.75 215.785C532.655 216.35 532.534 216.903 532.386 217.448C532.386 217.449 532.385 217.45 532.385 217.451C530.404 224.677 523.744 229.999 515.811 229.999H515.802C515.799 229.999 515.795 230 515.792 230H477.753L477.752 229.999H477.189C468.564 229.999 461.444 223.71 460.209 215.52L460.204 215.484C460.126 214.961 460.074 214.432 460.046 213.896C460.044 213.867 460.039 213.839 460.038 213.811C460.037 213.786 460.039 213.762 460.038 213.738C460.027 213.491 460 213.249 460 212.999C460 212.691 460.03 212.39 460.047 212.085C460.05 212.038 460.051 211.992 460.054 211.946C460.088 211.388 460.15 210.839 460.238 210.297C460.243 210.27 460.246 210.243 460.25 210.217C461.596 202.155 468.657 196 477.189 196C477.193 196 477.195 196.001 477.198 196.001C477.201 196.001 477.205 196 477.208 196H533V212.999C533 213.308 532.971 213.609 532.953 213.914Z" fill="#31313C"/>
<path fill-rule="evenodd" clip-rule="evenodd" d="M554 260.37C558.675 260.37 562.465 256.538 562.465 251.812C562.465 247.085 558.675 243.253 554 243.253C549.326 243.253 545.536 247.085 545.536 251.812C545.536 256.538 549.326 260.37 554 260.37ZM554 221.748C558.674 221.748 562.465 217.917 562.465 213.19C562.465 208.463 558.674 204.631 554 204.631C549.326 204.631 545.536 208.463 545.536 213.19C545.536 217.917 549.326 221.748 554 221.748ZM554 269H537V213.209C537 213.205 537.001 213.201 537.001 213.199C537.001 213.196 537 213.193 537 213.19C537 204.657 543.155 197.596 551.217 196.25C551.244 196.246 551.27 196.243 551.297 196.238C551.839 196.15 552.387 196.088 552.945 196.054C552.991 196.052 553.039 196.05 553.086 196.047C553.391 196.031 553.691 196 554 196C554.249 196 554.491 196.027 554.737 196.039C554.762 196.039 554.786 196.037 554.811 196.038C554.84 196.039 554.867 196.045 554.896 196.046C555.433 196.074 555.962 196.126 556.485 196.204C556.496 196.206 556.509 196.208 556.521 196.209C564.71 197.445 571 204.565 571 213.19V213.752V213.754V251.792C571 251.797 570.999 251.8 570.999 251.803C570.999 251.806 571 251.809 571 251.811V251.812C571 259.744 565.678 266.404 558.452 268.385C558.451 268.385 558.45 268.386 558.449 268.386C557.904 268.534 557.35 268.655 556.785 268.75C556.757 268.755 556.729 268.758 556.701 268.763C556.16 268.851 555.613 268.912 555.057 268.947C555.009 268.949 554.96 268.951 554.913 268.954C554.608 268.971 554.309 269 554 269Z" fill="#31313C"/>
<path fill-rule="evenodd" clip-rule="evenodd" d="M524.37 252C524.37 247.325 520.538 243.536 515.812 243.536C511.086 243.536 507.253 247.325 507.253 252C507.253 256.675 511.086 260.464 515.812 260.464C520.538 260.464 524.37 256.675 524.37 252ZM485.749 252C485.749 247.325 481.917 243.536 477.19 243.536C472.463 243.536 468.632 247.325 468.632 252C468.632 256.675 472.463 260.464 477.19 260.464C481.917 260.464 485.749 256.675 485.749 252ZM533 252V269H477.209C477.206 269 477.201 268.999 477.199 268.999C477.196 268.999 477.193 269 477.19 269C468.658 269 461.596 262.845 460.25 254.783C460.246 254.756 460.243 254.729 460.239 254.703C460.15 254.161 460.088 253.612 460.054 253.055C460.052 253.008 460.05 252.961 460.047 252.915C460.032 252.609 460 252.309 460 252C460 251.751 460.027 251.508 460.039 251.263C460.04 251.238 460.038 251.214 460.039 251.19C460.04 251.16 460.045 251.133 460.046 251.104C460.075 250.567 460.127 250.038 460.205 249.516C460.207 249.504 460.208 249.491 460.209 249.479C461.445 241.289 468.565 235 477.19 235H477.752C477.753 235 477.753 235 477.754 235H515.792C515.796 235 515.8 235 515.803 235H515.812C523.744 235 530.404 240.322 532.385 247.548C532.386 247.549 532.386 247.55 532.386 247.552C532.534 248.096 532.655 248.65 532.75 249.215C532.755 249.243 532.759 249.271 532.764 249.299C532.852 249.84 532.912 250.387 532.947 250.943C532.949 250.991 532.951 251.039 532.954 251.087C532.97 251.392 533 251.691 533 252Z" fill="#31313C"/>
<path fill-rule="evenodd" clip-rule="evenodd" d="M516 183.464C520.674 183.464 524.464 179.674 524.464 175C524.464 170.325 520.674 166.535 516 166.535C511.325 166.535 507.535 170.325 507.535 175C507.535 179.674 511.325 183.464 516 183.464ZM516 158C525.389 158 533 165.611 533 175V192H516C506.611 192 499 184.388 499 175C499 165.611 506.611 158 516 158Z" fill="#31313C"/>
<path fill-rule="evenodd" clip-rule="evenodd" d="M179.37 290C179.37 285.325 175.538 281.536 170.812 281.536C166.085 281.536 162.253 285.325 162.253 290C162.253 294.675 166.085 298.464 170.812 298.464C175.538 298.464 179.37 294.675 179.37 290ZM140.749 290C140.749 285.325 136.916 281.536 132.19 281.536C127.462 281.536 123.631 285.325 123.631 290C123.631 294.675 127.462 298.464 132.19 298.464C136.916 298.464 140.749 294.675 140.749 290ZM188 290V307H132.209C132.205 307 132.201 306.999 132.199 306.999C132.196 306.999 132.193 307 132.19 307C123.657 307 116.596 300.845 115.25 292.783C115.246 292.756 115.243 292.729 115.238 292.703C115.15 292.161 115.088 291.613 115.054 291.055C115.052 291.008 115.05 290.961 115.047 290.915C115.032 290.609 115 290.309 115 290C115 289.751 115.028 289.508 115.039 289.263C115.039 289.238 115.038 289.214 115.039 289.19C115.039 289.16 115.045 289.133 115.046 289.104C115.075 288.567 115.126 288.038 115.204 287.516C115.207 287.504 115.208 287.491 115.209 287.479C116.445 279.289 123.565 273 132.19 273H132.752C132.753 273 132.753 273 132.754 273H170.792C170.796 273 170.8 273 170.803 273H170.811H170.812C178.744 273 185.404 278.322 187.385 285.548C187.386 285.549 187.386 285.551 187.386 285.552C187.534 286.096 187.655 286.65 187.75 287.215C187.755 287.243 187.759 287.271 187.763 287.299C187.852 287.84 187.912 288.387 187.947 288.943C187.949 288.991 187.951 289.039 187.954 289.087C187.97 289.392 188 289.691 188 290Z" fill="#31313C"/>
<path fill-rule="evenodd" clip-rule="evenodd" d="M178.465 329C178.465 324.326 174.674 320.535 170 320.535C165.326 320.535 161.535 324.326 161.535 329C161.535 333.674 165.326 337.465 170 337.465C174.674 337.465 178.465 333.674 178.465 329ZM153 329C153 319.611 160.611 312 170 312H187V329C187 338.39 179.389 346 170 346C160.611 346 153 338.39 153 329Z" fill="#31313C"/>
<path fill-rule="evenodd" clip-rule="evenodd" d="M217.465 213.811C217.465 209.084 213.674 205.253 209 205.253C204.326 205.253 200.535 209.084 200.535 213.811C200.535 218.537 204.326 222.369 209 222.369C213.674 222.369 217.465 218.537 217.465 213.811ZM217.465 175.189C217.465 170.462 213.674 166.63 209 166.63C204.326 166.63 200.535 170.462 200.535 175.189C200.535 179.916 204.326 183.748 209 183.748C213.674 183.748 217.465 179.916 217.465 175.189ZM208.087 230.953C208.039 230.95 207.991 230.949 207.944 230.946C207.388 230.912 206.84 230.851 206.298 230.763C206.271 230.758 206.243 230.755 206.214 230.75C205.651 230.655 205.096 230.534 204.552 230.385C204.551 230.385 204.549 230.385 204.548 230.384C197.323 228.403 192 221.743 192 213.811V213.802V213.792V175.753V175.752V175.189C192 166.564 198.289 159.444 206.478 158.209C206.492 158.207 206.504 158.206 206.516 158.203C207.039 158.126 207.568 158.074 208.104 158.046C208.134 158.044 208.16 158.039 208.189 158.038C208.214 158.037 208.237 158.039 208.262 158.038C208.509 158.026 208.751 158 209 158C209.309 158 209.61 158.031 209.915 158.047C209.962 158.05 210.008 158.051 210.055 158.054C210.612 158.088 211.161 158.149 211.704 158.237C211.73 158.242 211.757 158.245 211.784 158.25C219.845 159.595 226 166.657 226 175.189V175.198V175.208V231H209C208.692 231 208.392 230.969 208.087 230.953Z" fill="#31313C"/>
<path fill-rule="evenodd" clip-rule="evenodd" d="M123.63 214C123.63 218.675 127.462 222.464 132.188 222.464C136.914 222.464 140.746 218.675 140.746 214C140.746 209.325 136.914 205.535 132.188 205.535C127.462 205.535 123.63 209.325 123.63 214ZM162.251 214C162.251 218.674 166.083 222.464 170.81 222.464C175.537 222.464 179.368 218.674 179.368 214C179.368 209.325 175.537 205.535 170.81 205.535C166.083 205.535 162.251 209.325 162.251 214ZM115 214V197H170.791C170.794 197 170.799 197 170.801 197C170.804 197 170.807 197 170.81 197C179.342 197 186.404 203.155 187.75 211.217C187.753 211.244 187.757 211.27 187.761 211.297C187.849 211.839 187.912 212.387 187.946 212.945C187.948 212.991 187.95 213.038 187.952 213.085C187.969 213.39 188 213.69 188 214C188 214.249 187.972 214.491 187.961 214.737C187.96 214.762 187.962 214.786 187.961 214.81C187.96 214.84 187.955 214.867 187.953 214.896C187.925 215.432 187.873 215.962 187.795 216.484C187.793 216.496 187.792 216.509 187.79 216.521C186.555 224.71 179.435 231 170.81 231H170.248H170.246H132.207C132.203 231 132.2 230.999 132.197 230.999C132.194 230.999 132.191 231 132.188 231C124.256 231 117.596 225.678 115.615 218.452C115.614 218.451 115.614 218.449 115.614 218.448C115.466 217.904 115.345 217.35 115.25 216.785C115.245 216.757 115.241 216.728 115.236 216.701C115.148 216.16 115.088 215.613 115.053 215.056C115.05 215.009 115.049 214.96 115.046 214.913C115.03 214.608 115 214.308 115 214Z" fill="#31313C"/>
<path fill-rule="evenodd" clip-rule="evenodd" d="M170 166.535C165.325 166.535 161.535 170.325 161.535 174.999C161.535 179.674 165.325 183.464 170 183.464C174.674 183.464 178.464 179.674 178.464 174.999C178.464 170.325 174.674 166.535 170 166.535ZM170 192C160.611 192 153 184.388 153 174.999V158H170C179.389 158 187 165.611 187 174.999C187 184.388 179.389 192 170 192Z" fill="#31313C"/>
<path fill-rule="evenodd" clip-rule="evenodd" d="M247.188 221.465C251.914 221.465 255.747 217.675 255.747 213.001C255.747 208.326 251.914 204.536 247.188 204.536C242.462 204.536 238.63 208.326 238.63 213.001C238.63 217.675 242.462 221.465 247.188 221.465ZM285.81 221.465C290.537 221.465 294.369 217.675 294.369 213.001C294.369 208.326 290.537 204.536 285.81 204.536C281.083 204.536 277.251 208.326 277.251 213.001C277.251 217.675 281.083 221.465 285.81 221.465ZM230.046 212.087C230.049 212.04 230.051 211.991 230.053 211.944C230.088 211.388 230.148 210.84 230.236 210.299C230.241 210.272 230.245 210.244 230.25 210.216C230.345 209.65 230.466 209.096 230.614 208.552C230.614 208.551 230.614 208.55 230.615 208.548C232.596 201.322 239.256 196 247.188 196H247.189C247.191 196 247.194 196.001 247.197 196.001C247.2 196.001 247.204 196 247.208 196H285.246H285.248H285.81C294.435 196 301.555 202.29 302.791 210.48C302.792 210.491 302.793 210.504 302.795 210.516C302.873 211.039 302.925 211.568 302.954 212.104C302.955 212.133 302.961 212.161 302.961 212.19C302.962 212.215 302.961 212.238 302.961 212.263C302.973 212.509 303 212.751 303 213.001C303 213.31 302.968 213.61 302.953 213.915C302.95 213.962 302.948 214.009 302.946 214.055C302.912 214.613 302.85 215.161 302.762 215.704C302.757 215.73 302.754 215.757 302.75 215.783C301.404 223.845 294.343 230 285.81 230C285.807 230 285.804 230 285.801 230C285.799 230 285.795 230 285.791 230H230V213.001C230 212.692 230.03 212.392 230.046 212.087Z" fill="#31313C"/>
<path fill-rule="evenodd" clip-rule="evenodd" d="M276.63 175C276.63 179.675 280.463 183.464 285.189 183.464C289.915 183.464 293.747 179.675 293.747 175C293.747 170.325 289.915 166.536 285.189 166.536C280.463 166.536 276.63 170.325 276.63 175ZM315.252 175C315.252 179.674 319.084 183.464 323.81 183.464C328.538 183.464 332.369 179.674 332.369 175C332.369 170.325 328.538 166.536 323.81 166.536C319.084 166.536 315.252 170.325 315.252 175ZM268 175V158H323.792C323.795 158 323.799 158 323.802 158C323.804 158 323.807 158 323.81 158C332.343 158 339.404 164.155 340.75 172.217C340.754 172.244 340.757 172.27 340.762 172.297C340.85 172.839 340.912 173.387 340.946 173.945C340.949 173.991 340.95 174.039 340.953 174.085C340.97 174.391 341 174.691 341 175C341 175.249 340.973 175.491 340.961 175.737C340.961 175.762 340.963 175.786 340.962 175.81C340.961 175.84 340.956 175.867 340.954 175.896C340.926 176.432 340.874 176.962 340.796 177.484C340.794 177.496 340.792 177.509 340.791 177.521C339.556 185.71 332.436 192 323.81 192H323.248H323.247H285.208C285.205 192 285.201 191.999 285.198 191.999C285.194 191.999 285.192 192 285.189 192C277.256 192 270.596 186.678 268.615 179.452C268.615 179.451 268.614 179.449 268.614 179.448C268.466 178.904 268.345 178.35 268.25 177.785C268.245 177.757 268.242 177.728 268.237 177.701C268.149 177.16 268.088 176.613 268.053 176.056C268.051 176.009 268.05 175.96 268.047 175.913C268.029 175.608 268 175.308 268 175Z" fill="#31313C"/>
<path fill-rule="evenodd" clip-rule="evenodd" d="M285 299.37C289.675 299.37 293.465 295.538 293.465 290.812C293.465 286.085 289.675 282.254 285 282.254C280.326 282.254 276.535 286.085 276.535 290.812C276.535 295.538 280.326 299.37 285 299.37ZM285 260.748C289.674 260.748 293.464 256.917 293.464 252.19C293.464 247.463 289.674 243.631 285 243.631C280.326 243.631 276.535 247.463 276.535 252.19C276.535 256.917 280.326 260.748 285 260.748ZM285 308H268V252.209C268 252.206 268.001 252.202 268.001 252.199C268.001 252.196 268 252.193 268 252.19C268 243.658 274.155 236.596 282.217 235.25C282.244 235.246 282.27 235.243 282.297 235.238C282.839 235.15 283.387 235.089 283.945 235.055C283.991 235.052 284.039 235.05 284.086 235.048C284.391 235.032 284.69 235 285 235C285.249 235 285.491 235.027 285.737 235.039C285.762 235.04 285.786 235.038 285.811 235.039C285.84 235.04 285.867 235.045 285.896 235.047C286.433 235.075 286.962 235.127 287.484 235.204C287.496 235.206 287.509 235.208 287.521 235.21C295.71 236.445 302 243.565 302 252.19V252.752V252.754V290.793C302 290.797 301.999 290.8 301.999 290.803C301.999 290.806 302 290.809 302 290.812C302 298.744 296.678 305.404 289.452 307.385C289.451 307.386 289.45 307.386 289.448 307.386C288.904 307.534 288.35 307.655 287.785 307.75C287.757 307.755 287.729 307.759 287.701 307.764C287.16 307.852 286.613 307.912 286.057 307.947C286.009 307.949 285.96 307.951 285.913 307.954C285.608 307.971 285.309 308 285 308Z" fill="#31313C"/>
<path fill-rule="evenodd" clip-rule="evenodd" d="M238.535 252C238.535 256.675 242.326 260.464 247 260.464C251.674 260.464 255.465 256.675 255.465 252C255.465 247.325 251.674 243.536 247 243.536C242.326 243.536 238.535 247.325 238.535 252ZM264 252C264 261.389 256.389 269 247 269H230V252C230 242.611 237.61 235 247 235C256.389 235 264 242.611 264 252Z" fill="#31313C"/>
<path fill-rule="evenodd" clip-rule="evenodd" d="M255.465 175C255.465 170.325 251.674 166.536 247 166.536C242.326 166.536 238.535 170.325 238.535 175C238.535 179.675 242.326 183.464 247 183.464C251.674 183.464 255.465 179.675 255.465 175ZM230 175C230 165.611 237.61 158 247 158H264V175C264 184.389 256.389 192 247 192C237.61 192 230 184.389 230 175Z" fill="#31313C"/>
<path fill-rule="evenodd" clip-rule="evenodd" d="M247 281.535C242.326 281.535 238.535 285.325 238.535 289.999C238.535 294.674 242.326 298.464 247 298.464C251.674 298.464 255.465 294.674 255.465 289.999C255.465 285.325 251.674 281.535 247 281.535ZM247 307C237.611 307 230 299.388 230 289.999V273H247C256.39 273 264 280.611 264 289.999C264 299.388 256.39 307 247 307Z" fill="#31313C"/>
<path fill-rule="evenodd" clip-rule="evenodd" d="M209 318.63C204.326 318.63 200.536 322.462 200.536 327.188C200.536 331.914 204.326 335.747 209 335.747C213.675 335.747 217.465 331.914 217.465 327.188C217.465 322.462 213.675 318.63 209 318.63ZM209 357.251C204.326 357.251 200.536 361.083 200.536 365.81C200.536 370.537 204.326 374.368 209 374.368C213.675 374.368 217.465 370.537 217.465 365.81C217.465 361.083 213.675 357.251 209 357.251ZM209 310H226V365.791C226 365.794 225.999 365.799 225.999 365.801C225.999 365.803 226 365.807 226 365.81C226 374.342 219.845 381.404 211.783 382.749L211.703 382.761C211.161 382.85 210.613 382.912 210.055 382.946C210.009 382.948 209.961 382.95 209.915 382.952C209.609 382.968 209.31 383 209 383C208.751 383 208.509 382.973 208.263 382.961C208.238 382.96 208.215 382.962 208.19 382.961C208.16 382.96 208.133 382.955 208.104 382.954C207.567 382.925 207.039 382.873 206.516 382.795C206.504 382.793 206.492 382.792 206.479 382.791C198.29 381.555 192 374.435 192 365.81V365.248V365.246V327.207C192 327.203 192.001 327.2 192.001 327.197C192.001 327.194 192 327.191 192 327.188C192 319.256 197.322 312.596 204.548 310.615C204.549 310.614 204.55 310.614 204.552 310.614C205.096 310.466 205.65 310.345 206.215 310.25C206.244 310.245 206.271 310.241 206.299 310.236C206.84 310.148 207.387 310.088 207.943 310.053C207.991 310.051 208.04 310.049 208.087 310.046C208.392 310.029 208.691 310 209 310Z" fill="#31313C"/>
<path fill-rule="evenodd" clip-rule="evenodd" d="M200.535 290C200.535 294.675 204.326 298.464 209 298.464C213.675 298.464 217.465 294.675 217.465 290C217.465 285.325 213.675 281.536 209 281.536C204.326 281.536 200.535 285.325 200.535 290ZM192 290C192 280.611 199.611 273 209 273H226V290C226 299.389 218.389 307 209 307C199.611 307 192 299.389 192 290Z" fill="#31313C"/>
<path fill-rule="evenodd" clip-rule="evenodd" d="M477.811 127.536C473.084 127.536 469.253 131.326 469.253 136.001C469.253 140.674 473.084 144.464 477.811 144.464C482.538 144.464 486.369 140.674 486.369 136.001C486.369 131.326 482.538 127.536 477.811 127.536ZM439.189 127.536C434.462 127.536 430.63 131.326 430.63 136.001C430.63 140.674 434.462 144.464 439.189 144.464C443.916 144.464 447.748 140.674 447.748 136.001C447.748 131.326 443.916 127.536 439.189 127.536ZM494.954 136.913C494.951 136.96 494.95 137.009 494.945 137.057C494.911 137.613 494.851 138.16 494.763 138.701C494.759 138.728 494.755 138.757 494.75 138.785C494.655 139.349 494.534 139.904 494.386 140.448C494.386 140.449 494.385 140.451 494.385 140.452C492.404 147.678 485.744 153 477.811 153C477.808 153 477.805 153 477.802 153C477.799 153 477.796 153 477.792 153H439.752H439.751H439.189C430.564 153 423.444 146.711 422.21 138.521L422.204 138.484C422.126 137.962 422.074 137.432 422.046 136.896C422.044 136.868 422.039 136.84 422.037 136.811C422.036 136.787 422.039 136.763 422.038 136.738C422.026 136.491 422 136.249 422 136.001C422 135.691 422.03 135.391 422.046 135.086C422.048 135.039 422.05 134.992 422.053 134.946C422.089 134.388 422.149 133.839 422.237 133.297C422.242 133.271 422.245 133.244 422.25 133.217C423.595 125.155 430.657 119 439.189 119C439.192 119 439.196 119.001 439.198 119.001C439.201 119.001 439.204 119 439.207 119H495V136.001C495 136.309 494.97 136.609 494.954 136.913Z" fill="#31313C"/>
<path fill-rule="evenodd" clip-rule="evenodd" d="M361.189 144.464C365.916 144.464 369.747 140.674 369.747 135.999C369.747 131.325 365.916 127.536 361.189 127.536C356.462 127.536 352.631 131.325 352.631 135.999C352.631 140.674 356.462 144.464 361.189 144.464ZM399.811 144.464C404.538 144.464 408.37 140.674 408.37 135.999C408.37 131.326 404.538 127.536 399.811 127.536C395.084 127.536 391.252 131.326 391.252 135.999C391.252 140.674 395.084 144.464 399.811 144.464ZM344.046 135.087C344.049 135.04 344.05 134.991 344.053 134.943C344.089 134.387 344.149 133.839 344.237 133.299C344.241 133.272 344.245 133.243 344.25 133.215C344.345 132.651 344.466 132.096 344.614 131.552C344.614 131.551 344.614 131.549 344.615 131.548C346.596 124.322 353.256 119 361.189 119C361.192 119 361.195 119 361.198 119C361.201 119 361.204 119 361.207 119H399.247H399.249H399.811C408.435 119 415.556 125.289 416.79 133.479C416.792 133.491 416.794 133.504 416.796 133.516C416.874 134.038 416.925 134.568 416.954 135.104C416.956 135.132 416.961 135.16 416.963 135.189C416.964 135.213 416.961 135.237 416.962 135.262C416.974 135.509 417 135.751 417 135.999C417 136.309 416.97 136.609 416.954 136.914C416.952 136.961 416.95 137.008 416.947 137.054C416.911 137.612 416.85 138.161 416.763 138.703C416.758 138.729 416.755 138.756 416.75 138.783C415.404 146.845 408.343 153 399.811 153C399.807 153 399.804 152.999 399.802 152.999C399.799 152.999 399.796 153 399.793 153H344V135.999C344 135.691 344.029 135.391 344.046 135.087Z" fill="#31313C"/>
<path fill-rule="evenodd" clip-rule="evenodd" d="M485.464 97.8109C485.464 93.0841 481.674 89.2522 477 89.2522C472.325 89.2522 468.535 93.0841 468.535 97.8109C468.535 102.538 472.325 106.369 477 106.369C481.674 106.369 485.464 102.538 485.464 97.8109ZM485.464 59.1891C485.464 54.4623 481.674 50.6304 477 50.6304C472.326 50.6304 468.536 54.4623 468.536 59.1891C468.536 63.9159 472.326 67.7478 477 67.7478C481.674 67.7478 485.464 63.9159 485.464 59.1891ZM476.088 114.954C476.04 114.951 475.992 114.95 475.944 114.947C475.387 114.911 474.84 114.851 474.299 114.763C474.271 114.758 474.244 114.754 474.216 114.75C473.651 114.655 473.096 114.534 472.552 114.386C472.551 114.386 472.55 114.385 472.549 114.385C465.322 112.403 460 105.744 460 97.8109V97.8018V97.7927V59.7531V59.7511V59.1891C460 50.5638 466.289 43.4438 474.479 42.2099C474.491 42.2078 474.504 42.2058 474.516 42.2038C475.039 42.1261 475.568 42.0737 476.104 42.0454C476.132 42.0444 476.16 42.0383 476.189 42.0373C476.213 42.0363 476.238 42.0383 476.262 42.0373C476.509 42.0262 476.751 42 477 42C477.309 42 477.61 42.0303 477.915 42.0464C477.961 42.0484 478.008 42.0504 478.054 42.0535C478.612 42.0888 479.162 42.1503 479.704 42.2371C479.729 42.2421 479.756 42.2452 479.783 42.2502C487.845 43.5951 494 50.6566 494 59.1891V59.1982V59.2073V115H477C476.692 115 476.391 114.97 476.088 114.954Z" fill="#31313C"/>
<path fill-rule="evenodd" clip-rule="evenodd" d="M516 127.536C511.325 127.536 507.536 131.326 507.536 136.001C507.536 140.674 511.325 144.464 516 144.464C520.675 144.464 524.464 140.674 524.464 136.001C524.464 131.326 520.675 127.536 516 127.536ZM516 153C506.611 153 499 145.389 499 136.001V119H516C525.389 119 533 126.611 533 136.001C533 145.389 525.389 153 516 153Z" fill="#31313C"/>
<path fill-rule="evenodd" clip-rule="evenodd" d="M477 11.5362C472.324 11.5362 468.535 15.3258 468.535 20.0005C468.535 24.6742 472.324 28.4648 477 28.4648C481.675 28.4648 485.464 24.6742 485.464 20.0005C485.464 15.3258 481.675 11.5362 477 11.5362ZM477 37C467.611 37 460 29.3888 460 20.0005V3H477C486.389 3 494 10.6112 494 20.0005C494 29.3888 486.389 37 477 37Z" fill="#31313C"/>
<path fill-rule="evenodd" clip-rule="evenodd" d="M447.464 96.9995C447.464 92.3248 443.674 88.5352 439 88.5352C434.325 88.5352 430.535 92.3248 430.535 96.9995C430.535 101.674 434.325 105.464 439 105.464C443.674 105.464 447.464 101.674 447.464 96.9995ZM422 96.9995C422 87.6112 429.611 80 439 80H456V96.9995C456 106.389 448.389 114 439 114C429.611 114 422 106.389 422 96.9995Z" fill="#31313C"/>
<path fill-rule="evenodd" clip-rule="evenodd" d="M284 88.5352C279.325 88.5352 275.536 92.3248 275.536 96.9995C275.536 101.674 279.325 105.464 284 105.464C288.675 105.464 292.464 101.674 292.464 96.9995C292.464 92.3248 288.675 88.5352 284 88.5352ZM284 114C274.611 114 267 106.389 267 96.9995V80H284C293.389 80 301 87.6112 301 96.9995C301 106.389 293.389 114 284 114Z" fill="#31313C"/>
<path fill-rule="evenodd" clip-rule="evenodd" d="M246 88.5352C241.324 88.5352 237.535 92.3248 237.535 96.9995C237.535 101.674 241.324 105.464 246 105.464C250.675 105.464 254.464 101.674 254.464 96.9995C254.464 92.3248 250.675 88.5352 246 88.5352ZM246 114C236.611 114 229 106.389 229 96.9995V80H246C255.389 80 263 87.6112 263 96.9995C263 106.389 255.389 114 246 114Z" fill="#31313C"/>
<path fill-rule="evenodd" clip-rule="evenodd" d="M323 144.465C327.675 144.465 331.464 140.675 331.464 136C331.464 131.325 327.675 127.535 323 127.535C318.324 127.535 314.535 131.325 314.535 136C314.535 140.675 318.324 144.465 323 144.465ZM323 119C332.389 119 340 126.61 340 136V153H323C313.61 153 306 145.389 306 136C306 126.61 313.61 119 323 119Z" fill="#31313C"/>
<path fill-rule="evenodd" clip-rule="evenodd" d="M400 50.6304C395.325 50.6304 391.536 54.4623 391.536 59.1881C391.536 63.9149 395.325 67.7468 400 67.7468C404.675 67.7468 408.464 63.9149 408.464 59.1881C408.464 54.4623 404.675 50.6304 400 50.6304ZM400 89.2522C395.325 89.2522 391.536 93.0841 391.536 97.8109C391.536 102.538 395.325 106.37 400 106.37C404.675 106.37 408.464 102.538 408.464 97.8109C408.464 93.0841 404.675 89.2522 400 89.2522ZM400 42H417V97.7927C417 97.7957 416.999 97.7978 416.999 97.8008C416.999 97.8038 417 97.8079 417 97.8109C417 106.343 410.845 113.405 402.783 114.75C402.756 114.755 402.729 114.758 402.704 114.762C402.162 114.85 401.612 114.911 401.055 114.947C401.008 114.95 400.961 114.951 400.914 114.953C400.609 114.97 400.31 115 400 115C399.751 115 399.51 114.973 399.263 114.963C399.237 114.961 399.214 114.964 399.19 114.963C399.16 114.961 399.133 114.956 399.104 114.955C398.568 114.926 398.039 114.874 397.517 114.796C397.504 114.794 397.491 114.792 397.48 114.79C389.29 113.555 383.001 106.436 383.001 97.8109V97.2489C383.001 97.2479 383 97.2479 383 97.2469V59.2073C383 59.2042 383.001 59.2012 383.001 59.1972V59.1891V59.1881C383.001 51.2559 388.323 44.596 395.548 42.6154C395.549 42.6154 395.551 42.6144 395.552 42.6144C396.097 42.4651 396.651 42.344 397.216 42.2502C397.243 42.2452 397.271 42.2421 397.299 42.2371C397.84 42.1493 398.388 42.0878 398.944 42.0535C398.991 42.0504 399.04 42.0484 399.088 42.0464C399.392 42.0303 399.691 42 400 42Z" fill="#31313C"/>
<path fill-rule="evenodd" clip-rule="evenodd" d="M353.536 20.1891C353.536 24.9159 357.326 28.7479 362 28.7479C366.674 28.7479 370.464 24.9159 370.464 20.1891C370.464 15.4623 366.674 11.6314 362 11.6314C357.326 11.6314 353.536 15.4623 353.536 20.1891ZM353.536 58.8109C353.536 63.5377 357.326 67.3696 362 67.3696C366.674 67.3696 370.464 63.5377 370.464 58.8109C370.464 54.0841 366.674 50.2521 362 50.2521C357.326 50.2521 353.536 54.0841 353.536 58.8109ZM362.912 3.04641C362.96 3.04944 363.008 3.05045 363.056 3.05448C363.613 3.08879 364.16 3.14932 364.701 3.2371C364.728 3.24214 364.756 3.24618 364.784 3.25021C365.349 3.34505 365.904 3.46612 366.448 3.61444C366.449 3.61444 366.45 3.61545 366.451 3.61646C373.678 5.59698 379 12.2559 379 20.1891V20.1982V20.2073V58.2479V58.2489V58.8109C379 67.4362 372.711 74.5562 364.521 75.7912C364.508 75.7922 364.496 75.7942 364.484 75.7962C363.961 75.8739 363.432 75.9263 362.896 75.9546C362.868 75.9556 362.84 75.9617 362.811 75.9627C362.787 75.9647 362.762 75.9617 362.738 75.9627C362.491 75.9738 362.249 76 362 76C361.691 76 361.39 75.9697 361.085 75.9536C361.039 75.9516 360.992 75.9496 360.946 75.9465C360.387 75.9122 359.838 75.8507 359.296 75.7629C359.271 75.7579 359.244 75.7548 359.217 75.7498C351.154 74.4049 345 67.3434 345 58.8109V58.8018V58.7927V3H362C362.308 3 362.609 3.03027 362.912 3.04641Z" fill="#31313C"/>
<path fill-rule="evenodd" clip-rule="evenodd" d="M284.189 67.4638C288.916 67.4638 292.747 63.6742 292.747 58.9995C292.747 54.3248 288.916 50.5352 284.189 50.5352C279.462 50.5352 275.631 54.3248 275.631 58.9995C275.631 63.6742 279.462 67.4638 284.189 67.4638ZM322.811 67.4638C327.538 67.4638 331.37 63.6742 331.37 58.9995C331.37 54.3258 327.538 50.5362 322.811 50.5362C318.084 50.5362 314.252 54.3258 314.252 58.9995C314.252 63.6742 318.084 67.4638 322.811 67.4638ZM267.046 58.0865C267.049 58.0386 267.05 57.9907 267.055 57.9428C267.089 57.3871 267.149 56.8393 267.237 56.2995C267.242 56.2705 267.245 56.2426 267.25 56.2146C267.345 55.6499 267.466 55.0961 267.614 54.5523C267.614 54.5503 267.615 54.5493 267.615 54.5483C269.596 47.3223 276.257 42 284.189 42C284.192 42 284.195 42 284.198 42C284.201 42 284.204 42 284.208 42H322.248H322.249H322.811C331.436 42 338.556 48.2891 339.79 56.4791C339.792 56.491 339.794 56.503 339.796 56.516C339.874 57.0378 339.926 57.5677 339.955 58.1035C339.956 58.1324 339.961 58.1604 339.963 58.1893C339.964 58.2132 339.961 58.2372 339.963 58.2621C339.974 58.5086 340 58.751 340 58.9995C340 59.3088 339.97 59.6092 339.954 59.9145L339.948 60.0542C339.911 60.6119 339.851 61.1607 339.763 61.7025C339.758 61.7295 339.755 61.7564 339.75 61.7824C338.405 69.8446 331.343 76 322.811 76C322.808 76 322.804 75.999 322.802 75.999C322.799 75.999 322.796 76 322.793 76H267V58.9995C267 58.6912 267.03 58.3908 267.046 58.0865Z" fill="#31313C"/>
<path fill-rule="evenodd" clip-rule="evenodd" d="M168.189 67.4638C172.916 67.4638 176.747 63.6742 176.747 58.9995C176.747 54.3248 172.916 50.5352 168.189 50.5352C163.462 50.5352 159.631 54.3248 159.631 58.9995C159.631 63.6742 163.462 67.4638 168.189 67.4638ZM206.811 67.4638C211.538 67.4638 215.37 63.6742 215.37 58.9995C215.37 54.3258 211.538 50.5362 206.811 50.5362C202.084 50.5362 198.252 54.3258 198.252 58.9995C198.252 63.6742 202.084 67.4638 206.811 67.4638ZM151.046 58.0865C151.049 58.0386 151.05 57.9907 151.053 57.9428C151.089 57.3871 151.149 56.8393 151.236 56.2995C151.241 56.2705 151.245 56.2426 151.25 56.2146C151.345 55.6499 151.466 55.0961 151.614 54.5523C151.614 54.5503 151.614 54.5493 151.615 54.5483C153.596 47.3223 160.256 42 168.189 42C168.192 42 168.195 42 168.198 42C168.201 42 168.204 42 168.207 42H206.247H206.249H206.811C215.435 42 222.556 48.2891 223.79 56.4791C223.792 56.491 223.794 56.503 223.796 56.516C223.873 57.0378 223.925 57.5677 223.954 58.1035C223.956 58.1324 223.961 58.1604 223.963 58.1893C223.964 58.2132 223.961 58.2372 223.962 58.2621C223.974 58.5086 224 58.751 224 58.9995C224 59.3088 223.97 59.6092 223.954 59.9145C223.952 59.9604 223.95 60.0073 223.947 60.0542C223.911 60.6119 223.85 61.1607 223.763 61.7025C223.758 61.7295 223.755 61.7564 223.75 61.7824C222.404 69.8446 215.343 76 206.811 76C206.807 76 206.804 75.999 206.802 75.999C206.799 75.999 206.796 76 206.793 76H151V58.9995C151 58.6912 151.029 58.3908 151.046 58.0865Z" fill="#31313C"/>
<path fill-rule="evenodd" clip-rule="evenodd" d="M361.811 88.5362C357.084 88.5362 353.253 92.3258 353.253 97.0005C353.253 101.675 357.084 105.464 361.811 105.464C366.538 105.464 370.369 101.675 370.369 97.0005C370.369 92.3258 366.538 88.5362 361.811 88.5362ZM323.19 88.5362C318.462 88.5362 314.63 92.3258 314.63 97.0005C314.63 101.675 318.462 105.464 323.19 105.464C327.916 105.464 331.748 101.675 331.748 97.0005C331.748 92.3258 327.916 88.5362 323.19 88.5362ZM378.954 97.9135C378.951 97.9614 378.95 98.0093 378.947 98.0572C378.911 98.6129 378.851 99.1607 378.764 99.7005C378.759 99.7285 378.755 99.7574 378.75 99.7854C378.656 100.349 378.535 100.904 378.386 101.448C378.386 101.449 378.386 101.451 378.385 101.452C376.404 108.678 369.744 114 361.811 114C361.808 114 361.806 114 361.802 114C361.799 114 361.796 114 361.793 114H323.753H323.751H323.19C314.565 114 307.444 107.711 306.21 99.5209C306.208 99.509 306.206 99.496 306.204 99.484C306.127 98.9622 306.075 98.4323 306.046 97.8955C306.044 97.8676 306.039 97.8397 306.037 97.8107C306.036 97.7868 306.039 97.7628 306.038 97.7379C306.027 97.4914 306 97.2489 306 97.0005C306 96.6912 306.03 96.3908 306.046 96.0855C306.049 96.0386 306.05 95.9917 306.053 95.9458C306.089 95.3881 306.15 94.8393 306.237 94.2975C306.242 94.2705 306.245 94.2436 306.25 94.2166C307.596 86.1554 314.657 80 323.19 80C323.193 80 323.196 80.001 323.198 80.001C323.201 80.001 323.204 80 323.207 80H379V97.0005C379 97.3088 378.971 97.6092 378.954 97.9135Z" fill="#31313C"/>
<path fill-rule="evenodd" clip-rule="evenodd" d="M284.811 127.536C280.083 127.536 276.252 131.326 276.252 136.001C276.252 140.675 280.083 144.465 284.811 144.465C289.538 144.465 293.369 140.675 293.369 136.001C293.369 131.326 289.538 127.536 284.811 127.536ZM246.189 127.536C241.461 127.536 237.629 131.326 237.629 136.001C237.629 140.674 241.461 144.464 246.189 144.464C250.915 144.464 254.747 140.674 254.747 136.001C254.747 131.326 250.915 127.536 246.189 127.536ZM301.954 136.913C301.951 136.961 301.949 137.009 301.945 137.057C301.911 137.613 301.851 138.161 301.763 138.701C301.758 138.729 301.754 138.757 301.75 138.785C301.655 139.349 301.534 139.904 301.386 140.448C301.386 140.449 301.385 140.451 301.385 140.452C299.403 147.678 292.743 153 284.811 153H284.81C284.808 153 284.805 153 284.802 153C284.799 153 284.795 153 284.792 153H246.752H246.75H246.189C237.564 153 230.444 146.711 229.209 138.521C229.208 138.509 229.206 138.496 229.204 138.484C229.126 137.962 229.074 137.432 229.045 136.896C229.044 136.868 229.038 136.84 229.037 136.811C229.036 136.787 229.038 136.763 229.037 136.738C229.026 136.491 229 136.249 229 136.001C229 135.691 229.03 135.391 229.046 135.086C229.048 135.039 229.05 134.992 229.052 134.946C229.088 134.388 229.149 133.839 229.237 133.297C229.242 133.271 229.245 133.244 229.25 133.218C230.595 125.155 237.657 119 246.189 119C246.192 119 246.195 119.001 246.198 119.001C246.2 119.001 246.203 119 246.207 119H302V136.001C302 136.309 301.97 136.609 301.954 136.913Z" fill="#31313C"/>
<path fill-rule="evenodd" clip-rule="evenodd" d="M246 67.3687C250.675 67.3687 254.464 63.5369 254.464 58.8111C254.464 54.0844 250.675 50.2525 246 50.2525C241.324 50.2525 237.535 54.0844 237.535 58.8111C237.535 63.5369 241.324 67.3687 246 67.3687ZM246 28.7475C250.675 28.7475 254.464 24.9156 254.464 20.1889C254.464 15.4621 250.675 11.6303 246 11.6303C241.324 11.6303 237.535 15.4621 237.535 20.1889C237.535 24.9156 241.324 28.7475 246 28.7475ZM246 76H229V20.208V20.199V20.1889C229 11.6565 235.155 4.5961 243.217 3.25021C243.243 3.24517 243.271 3.24214 243.297 3.2381C243.839 3.15033 244.387 3.08878 244.944 3.05347C244.991 3.05045 245.038 3.04944 245.085 3.04742C245.39 3.03027 245.691 3 246 3C246.248 3 246.491 3.02724 246.737 3.03834C246.762 3.03935 246.786 3.03632 246.81 3.03733C246.84 3.03935 246.867 3.04439 246.895 3.04641C247.433 3.07466 247.962 3.12611 248.484 3.2038C248.497 3.20582 248.509 3.20784 248.521 3.20985C256.711 4.44477 263 11.5647 263 20.1889V20.7508V20.7529V58.793V58.802V58.8101V58.8111C263 66.7432 257.678 73.4031 250.451 75.3836C250.45 75.3846 250.449 75.3846 250.448 75.3846C249.903 75.5339 249.349 75.6549 248.785 75.7498C248.757 75.7538 248.728 75.7579 248.701 75.7619C248.16 75.8497 247.612 75.9112 247.057 75.9455C247.009 75.9485 246.961 75.9506 246.913 75.9526C246.609 75.9697 246.308 76 246 76Z" fill="#31313C"/>
<mask id="mask0" mask-type="alpha" maskUnits="userSpaceOnUse" x="267" y="0" width="35" height="38">
<g style="mix-blend-mode:lighten" opacity="0.147461">
<g style="mix-blend-mode:lighten" opacity="0.147461">
<path d="M301.684 0.799072H267.61V37.6412H301.684V0.799072Z" fill="white"/>
</g>
</g>
</mask>
<g mask="url(#mask0)">
<g style="mix-blend-mode:lighten" opacity="0.147461">
<path fill-rule="evenodd" clip-rule="evenodd" d="M284.647 -27.8831C279.962 -27.8831 276.165 -23.9825 276.165 -19.1719C276.165 -14.3603 279.962 -10.4596 284.647 -10.4596C289.333 -10.4596 293.13 -14.3603 293.13 -19.1719C293.13 -23.9825 289.333 -27.8831 284.647 -27.8831ZM284.647 11.4314C279.962 11.4314 276.165 15.3321 276.165 20.1437C276.165 24.9553 279.962 28.856 284.647 28.856C289.333 28.856 293.13 24.9553 293.13 20.1437C293.13 15.3321 289.333 11.4314 284.647 11.4314ZM284.647 -36.6683H301.684V20.1252V20.1334V20.1437C301.684 28.8293 295.516 36.0174 287.436 37.3865C287.41 37.3916 287.382 37.3947 287.356 37.3988C286.813 37.4882 286.263 37.5508 285.705 37.5867C285.658 37.5898 285.611 37.5909 285.564 37.5939C285.258 37.6104 284.957 37.6412 284.647 37.6412C284.398 37.6412 284.155 37.6134 283.908 37.6032C283.883 37.6021 283.859 37.6042 283.835 37.6032C283.806 37.6021 283.778 37.596 283.75 37.595C283.211 37.5662 282.681 37.5128 282.158 37.4337C282.145 37.4317 282.133 37.4296 282.121 37.4276C273.913 36.1715 267.61 28.9238 267.61 20.1437V19.5717V19.5696V-19.1524C267.61 -19.1555 267.611 -19.1586 267.611 -19.1616C267.611 -19.1657 267.61 -19.1678 267.61 -19.1709V-19.1719C267.61 -27.2464 272.944 -34.0248 280.186 -36.0418C280.187 -36.0418 280.188 -36.0429 280.19 -36.0429C280.735 -36.1949 281.291 -36.3181 281.856 -36.4136C281.884 -36.4188 281.913 -36.4218 281.94 -36.427C282.482 -36.5163 283.031 -36.578 283.588 -36.6139C283.636 -36.617 283.684 -36.619 283.732 -36.6211C284.037 -36.6375 284.338 -36.6683 284.647 -36.6683Z" fill="#31313C"/>
</g>
</g>
<path fill-rule="evenodd" clip-rule="evenodd" d="M439 50.5354C434.325 50.5354 430.536 54.3252 430.536 59C430.536 63.6748 434.325 67.4646 439 67.4646C443.675 67.4646 447.464 63.6748 447.464 59C447.464 54.3252 443.675 50.5354 439 50.5354ZM439 76C429.612 76 422 68.3896 422 59V42H439C448.389 42 456 49.6114 456 59C456 68.3896 448.389 76 439 76Z" fill="#31313C"/>
<path fill-rule="evenodd" clip-rule="evenodd" d="M331.464 19.9995C331.464 15.3248 327.674 11.5352 323 11.5352C318.326 11.5352 314.536 15.3248 314.536 19.9995C314.536 24.6742 318.326 28.4638 323 28.4638C327.674 28.4638 331.464 24.6742 331.464 19.9995ZM306 19.9995C306 10.6112 313.611 3 323 3H340V19.9995C340 29.3888 332.389 37 323 37C313.611 37 306 29.3888 306 19.9995Z" fill="#31313C"/>
<mask id="mask1" mask-type="alpha" maskUnits="userSpaceOnUse" x="190" y="0" width="35" height="38">
<g style="mix-blend-mode:lighten" opacity="0.147461">
<g style="mix-blend-mode:lighten" opacity="0.147461">
<path d="M224.197 0.799072H190.122V37.6041H224.197V0.799072Z" fill="white"/>
</g>
</g>
</mask>
<g mask="url(#mask1)">
<g style="mix-blend-mode:lighten" opacity="0.147461">
<path fill-rule="evenodd" clip-rule="evenodd" d="M207.16 28.8189C211.845 28.8189 215.642 24.9182 215.642 20.1076C215.642 15.296 211.845 11.3954 207.16 11.3954C202.474 11.3954 198.677 15.296 198.677 20.1076C198.677 24.9182 202.474 28.8189 207.16 28.8189ZM207.16 -10.4957C211.845 -10.4957 215.642 -14.3964 215.642 -19.208C215.642 -24.0196 211.845 -27.9203 207.16 -27.9203C202.474 -27.9203 198.677 -24.0196 198.677 -19.208C198.677 -14.3964 202.474 -10.4957 207.16 -10.4957ZM207.16 37.6041H190.122V-19.1895C190.122 -19.1926 190.123 -19.1946 190.123 -19.1977C190.123 -19.2008 190.122 -19.2049 190.122 -19.208C190.122 -27.8936 196.291 -35.0817 204.371 -36.4507C204.397 -36.4559 204.424 -36.459 204.451 -36.4631C204.994 -36.5524 205.544 -36.6151 206.102 -36.651C206.149 -36.6541 206.196 -36.6551 206.243 -36.6572C206.549 -36.6746 206.85 -36.7054 207.16 -36.7054C207.409 -36.7054 207.652 -36.6777 207.899 -36.6674C207.924 -36.6654 207.947 -36.6685 207.972 -36.6674C208.001 -36.6654 208.028 -36.6603 208.057 -36.6582C208.596 -36.6305 209.126 -36.5771 209.649 -36.498C209.661 -36.4959 209.674 -36.4939 209.686 -36.4918C217.894 -35.2347 224.197 -27.988 224.197 -19.208V-18.6359V-18.6339V20.0881C224.197 20.0912 224.196 20.0943 224.196 20.0984C224.196 20.1015 224.197 20.1035 224.197 20.1066V20.1076C224.197 28.1821 218.863 34.9615 211.621 36.9776C211.62 36.9776 211.618 36.9786 211.617 36.9786C211.072 37.1306 210.516 37.2539 209.951 37.3494C209.923 37.3545 209.894 37.3576 209.866 37.3627C209.325 37.4521 208.775 37.5147 208.219 37.5496C208.171 37.5527 208.123 37.5548 208.075 37.5568C207.769 37.5733 207.469 37.6041 207.16 37.6041Z" fill="#31313C"/>
</g>
</g>
<path fill-rule="evenodd" clip-rule="evenodd" d="M167 28.4638C171.675 28.4638 175.465 24.6742 175.465 19.9995C175.465 15.3258 171.675 11.5362 167 11.5362C162.325 11.5362 158.535 15.3258 158.535 19.9995C158.535 24.6742 162.325 28.4638 167 28.4638ZM167 3C176.389 3 184 10.6112 184 19.9995V37H167C157.61 37 150 29.3888 150 19.9995C150 10.6112 157.61 3 167 3Z" fill="#31313C"/>
<mask id="mask2" mask-type="alpha" maskUnits="userSpaceOnUse" x="576" y="0" width="35" height="38">
<g style="mix-blend-mode:lighten" opacity="0.147461">
<g style="mix-blend-mode:lighten" opacity="0.147461">
<path d="M610.426 0.799072H576.351V37.7053H610.426V0.799072Z" fill="white"/>
</g>
</g>
</mask>
<g mask="url(#mask2)">
<g style="mix-blend-mode:lighten" opacity="0.147461">
<path fill-rule="evenodd" clip-rule="evenodd" d="M584.906 -19.1078C584.906 -14.2961 588.704 -10.3955 593.388 -10.3955C598.074 -10.3955 601.872 -14.2961 601.872 -19.1078C601.872 -23.9184 598.074 -27.819 593.388 -27.819C588.704 -27.819 584.906 -23.9184 584.906 -19.1078ZM584.906 20.2068C584.906 25.0185 588.704 28.9191 593.388 28.9191C598.074 28.9191 601.872 25.0185 601.872 20.2068C601.872 15.3952 598.074 11.4946 593.388 11.4946C588.704 11.4946 584.906 15.3952 584.906 20.2068ZM594.303 -36.558C594.351 -36.5549 594.399 -36.5528 594.447 -36.5498C595.005 -36.5148 595.553 -36.4522 596.095 -36.3639C596.124 -36.3587 596.152 -36.3546 596.179 -36.3505C596.746 -36.254 597.301 -36.1307 597.846 -35.9787C597.847 -35.9787 597.848 -35.9787 597.85 -35.9777C605.092 -33.9617 610.426 -27.1823 610.426 -19.1078V-19.1067V-19.0985V-19.0883V19.6338V19.6348V20.2068C610.426 28.9869 604.123 36.2346 595.915 37.4917C595.903 37.4927 595.89 37.4958 595.878 37.4979C595.354 37.5759 594.824 37.6293 594.287 37.6581C594.258 37.6601 594.23 37.6653 594.201 37.6673C594.177 37.6683 594.153 37.6653 594.128 37.6663C593.881 37.6776 593.638 37.7053 593.388 37.7053C593.079 37.7053 592.777 37.6745 592.472 37.657C592.426 37.655 592.379 37.6529 592.332 37.6509C591.773 37.6149 591.222 37.5523 590.679 37.464C590.653 37.4588 590.627 37.4547 590.599 37.4506C582.52 36.0806 576.351 28.8934 576.351 20.2068C576.351 20.2037 576.352 20.2007 576.352 20.1976C576.352 20.1955 576.351 20.1914 576.351 20.1883V-36.6052H593.388C593.698 -36.6052 593.999 -36.5744 594.303 -36.558Z" fill="#31313C"/>
</g>
</g>
<path fill-rule="evenodd" clip-rule="evenodd" d="M438.811 11.5362C434.083 11.5362 430.252 15.3258 430.252 20.0005C430.252 24.6752 434.083 28.4648 438.811 28.4648C443.538 28.4648 447.369 24.6752 447.369 20.0005C447.369 15.3258 443.538 11.5362 438.811 11.5362ZM400.189 11.5362C395.462 11.5362 391.629 15.3258 391.629 20.0005C391.629 24.6742 395.462 28.4648 400.189 28.4648C404.915 28.4648 408.748 24.6742 408.748 20.0005C408.748 15.3258 404.915 11.5362 400.189 11.5362ZM455.954 20.9135C455.951 20.9614 455.949 21.0093 455.945 21.0572C455.911 21.6129 455.851 22.1607 455.763 22.7005C455.758 22.7295 455.754 22.7574 455.75 22.7854C455.655 23.3501 455.534 23.9039 455.386 24.4477C455.386 24.4497 455.385 24.4507 455.385 24.4517C453.403 31.6777 446.743 37 438.811 37H438.81C438.808 37 438.805 37 438.802 37C438.799 37 438.795 37 438.792 37H400.752H400.75H400.189C391.564 37 384.444 30.7109 383.21 22.5209C383.208 22.509 383.206 22.497 383.204 22.484C383.126 21.9622 383.074 21.4323 383.045 20.8965C383.044 20.8676 383.038 20.8396 383.037 20.8107C383.036 20.7868 383.038 20.7628 383.037 20.7379C383.026 20.4914 383 20.249 383 20.0005C383 19.6912 383.03 19.3908 383.046 19.0855C383.048 19.0396 383.05 18.9927 383.052 18.9458C383.089 18.3881 383.149 17.8393 383.237 17.2975C383.242 17.2705 383.245 17.2436 383.25 17.2176C384.595 9.15542 391.657 3 400.189 3C400.192 3 400.195 3.001 400.198 3.001C400.2 3.001 400.204 3 400.207 3H456V20.0005C456 20.3088 455.97 20.6092 455.954 20.9135Z" fill="#31313C"/>
<path fill-rule="evenodd" clip-rule="evenodd" d="M555 144.465C559.675 144.465 563.464 140.675 563.464 136.001C563.464 131.326 559.675 127.536 555 127.536C550.324 127.536 546.535 131.326 546.535 136.001C546.535 140.675 550.324 144.465 555 144.465ZM555 119C564.389 119 572 126.611 572 136.001V153H555C545.61 153 538 145.389 538 136.001C538 126.611 545.61 119 555 119Z" fill="#31313C"/>
<path fill-rule="evenodd" clip-rule="evenodd" d="M584.535 98.1891C584.535 102.916 588.325 106.748 593 106.748C597.674 106.748 601.464 102.916 601.464 98.1891C601.464 93.4623 597.674 89.6314 593 89.6314C588.325 89.6314 584.535 93.4623 584.535 98.1891ZM584.535 136.811C584.535 141.538 588.325 145.37 593 145.37C597.674 145.37 601.464 141.538 601.464 136.811C601.464 132.084 597.674 128.252 593 128.252C588.325 128.252 584.535 132.084 584.535 136.811ZM593.912 81.0464C593.96 81.0494 594.008 81.0504 594.056 81.0545C594.613 81.0888 595.16 81.1493 595.701 81.2371C595.728 81.2421 595.756 81.2462 595.784 81.2502C596.349 81.3451 596.904 81.4661 597.447 81.6144C597.449 81.6144 597.45 81.6154 597.451 81.6165C604.678 83.597 610 90.2559 610 98.1891C610 98.1921 609.999 98.1952 609.999 98.1982C609.999 98.2012 610 98.2042 610 98.2073V136.248V136.249V136.811C610 145.436 603.711 152.556 595.521 153.791C595.508 153.792 595.496 153.794 595.484 153.796C594.961 153.874 594.432 153.926 593.896 153.955C593.868 153.956 593.839 153.962 593.811 153.963C593.786 153.965 593.762 153.962 593.738 153.963C593.491 153.974 593.248 154 593 154C592.691 154 592.39 153.97 592.085 153.954C592.039 153.952 591.992 153.95 591.945 153.947C591.387 153.912 590.838 153.851 590.296 153.763C590.271 153.758 590.244 153.755 590.217 153.75C582.154 152.405 576 145.343 576 136.811V136.802V136.793V81H593C593.308 81 593.609 81.0303 593.912 81.0464Z" fill="#31313C"/>
<path fill-rule="evenodd" clip-rule="evenodd" d="M169 88.5352C164.325 88.5352 160.536 92.3248 160.536 96.9995C160.536 101.674 164.325 105.464 169 105.464C173.675 105.464 177.464 101.674 177.464 96.9995C177.464 92.3248 173.675 88.5352 169 88.5352ZM169 114C159.612 114 152 106.389 152 96.9995V80H169C178.389 80 186 87.6112 186 96.9995C186 106.389 178.389 114 169 114Z" fill="#31313C"/>
<path fill-rule="evenodd" clip-rule="evenodd" d="M169 144.465C173.675 144.465 177.464 140.675 177.464 136.001C177.464 131.326 173.675 127.536 169 127.536C164.325 127.536 160.536 131.326 160.536 136.001C160.536 140.675 164.325 144.465 169 144.465ZM169 119C178.389 119 186 126.611 186 136.001V153H169C159.611 153 152 145.389 152 136.001C152 126.611 159.611 119 169 119Z" fill="#31313C"/>
<path fill-rule="evenodd" clip-rule="evenodd" d="M207 89.6304C202.325 89.6304 198.536 93.4623 198.536 98.1881C198.536 102.916 202.325 106.747 207 106.747C211.675 106.747 215.464 102.916 215.464 98.1881C215.464 93.4623 211.675 89.6304 207 89.6304ZM207 128.252C202.325 128.252 198.536 132.084 198.536 136.811C198.536 141.538 202.325 145.37 207 145.37C211.675 145.37 215.464 141.538 215.464 136.811C215.464 132.084 211.675 128.252 207 128.252ZM207 81H224V136.792C224 136.796 223.999 136.799 223.999 136.801C223.999 136.804 224 136.807 224 136.811C224 145.343 217.845 152.404 209.783 153.75C209.756 153.755 209.729 153.758 209.704 153.762C209.162 153.85 208.612 153.911 208.055 153.947C208.008 153.95 207.961 153.951 207.914 153.953C207.609 153.97 207.31 154 207 154C206.751 154 206.509 153.973 206.263 153.962C206.237 153.961 206.214 153.964 206.19 153.963C206.16 153.961 206.133 153.956 206.104 153.954C205.567 153.926 205.039 153.874 204.517 153.796C204.504 153.794 204.491 153.792 204.48 153.79C196.29 152.555 190.001 145.436 190.001 136.811V136.249C190.001 136.248 190 136.248 190 136.247V98.2063C190 98.2042 190.001 98.2012 190.001 98.1972V98.1891V98.1881C190.001 90.2559 195.323 83.596 202.548 81.6154C202.549 81.6144 202.551 81.6144 202.552 81.6144C203.096 81.4651 203.651 81.344 204.216 81.2492C204.243 81.2452 204.271 81.2411 204.299 81.2371C204.84 81.1493 205.388 81.0878 205.944 81.0535C205.991 81.0504 206.04 81.0484 206.088 81.0464C206.392 81.0293 206.691 81 207 81Z" fill="#31313C"/>
<path fill-rule="evenodd" clip-rule="evenodd" d="M563.464 58.8109C563.464 54.0841 559.674 50.2521 555 50.2521C550.325 50.2521 546.536 54.0841 546.536 58.8109C546.536 63.5377 550.325 67.3686 555 67.3686C559.674 67.3686 563.464 63.5377 563.464 58.8109ZM563.464 20.1891C563.464 15.4623 559.674 11.6304 555 11.6304C550.326 11.6304 546.536 15.4623 546.536 20.1891C546.536 24.9159 550.326 28.7479 555 28.7479C559.674 28.7479 563.464 24.9159 563.464 20.1891ZM554.088 75.9536C554.04 75.9506 553.992 75.9496 553.944 75.9465C553.387 75.9112 552.84 75.8507 552.299 75.7629C552.271 75.7579 552.244 75.7538 552.216 75.7498C551.651 75.6549 551.096 75.5339 550.552 75.3856C550.551 75.3856 550.55 75.3846 550.549 75.3846C543.322 73.403 538 66.7441 538 58.8109V58.8018V58.7927V20.7521V20.7511V20.1891C538 11.5638 544.289 4.44378 552.479 3.20885C552.492 3.20784 552.504 3.20582 552.516 3.2038C553.039 3.12612 553.568 3.07365 554.104 3.0454C554.132 3.04439 554.16 3.03834 554.189 3.03733C554.213 3.03632 554.238 3.03834 554.262 3.03733C554.509 3.02623 554.751 3 555 3C555.309 3 555.61 3.03027 555.915 3.04641C555.961 3.04843 556.008 3.05045 556.054 3.05347C556.612 3.08778 557.162 3.15033 557.704 3.2371C557.729 3.24214 557.756 3.24517 557.783 3.25021C565.845 4.59512 572 11.6566 572 20.1891V20.1982V20.2073V76H555C554.692 76 554.391 75.9697 554.088 75.9536Z" fill="#31313C"/>
<path fill-rule="evenodd" clip-rule="evenodd" d="M507.631 97C507.631 101.675 511.463 105.465 516.189 105.465C520.916 105.465 524.747 101.675 524.747 97C524.747 92.3252 520.916 88.5354 516.189 88.5354C511.463 88.5354 507.631 92.3252 507.631 97ZM546.252 97C546.252 101.675 550.083 105.465 554.811 105.465C559.537 105.465 563.369 101.675 563.369 97C563.369 92.3252 559.537 88.5354 554.811 88.5354C550.083 88.5354 546.252 92.3252 546.252 97ZM499 97V80H554.792C554.795 80 554.798 80 554.801 80C554.804 80 554.807 80 554.811 80C563.343 80 570.404 86.1546 571.75 94.2171C571.755 94.243 571.758 94.2709 571.762 94.2969C571.849 94.8387 571.911 95.3875 571.945 95.9453C571.949 95.9922 571.951 96.0391 571.953 96.085C571.97 96.3903 572 96.6907 572 97C572 97.2495 571.973 97.4909 571.962 97.7374C571.961 97.7623 571.964 97.7863 571.963 97.8112C571.961 97.8392 571.956 97.8671 571.954 97.896C571.925 98.4329 571.873 98.9617 571.796 99.4836C571.794 99.4966 571.792 99.5085 571.79 99.5205C570.555 107.711 563.435 114 554.811 114H554.248H554.246H516.207C516.204 114 516.201 114 516.198 114C516.195 114 516.192 114 516.189 114C508.256 114 501.597 108.678 499.616 101.451C499.615 101.45 499.615 101.449 499.615 101.448C499.466 100.904 499.345 100.35 499.25 99.7849C499.245 99.757 499.242 99.7291 499.237 99.7011C499.15 99.1603 499.089 98.6125 499.053 98.0567C499.05 98.0088 499.049 97.9609 499.046 97.913C499.03 97.6087 499 97.3083 499 97Z" fill="#31313C"/>
<path fill-rule="evenodd" clip-rule="evenodd" d="M8.63123 97C8.63123 101.675 12.4631 105.465 17.1888 105.465C21.9156 105.465 25.7474 101.675 25.7474 97C25.7474 92.3252 21.9156 88.5354 17.1888 88.5354C12.4631 88.5354 8.63123 92.3252 8.63123 97ZM47.2515 97C47.2515 101.675 51.0834 105.465 55.8112 105.465C60.5369 105.465 64.3688 101.675 64.3688 97C64.3688 92.3252 60.5369 88.5354 55.8112 88.5354C51.0834 88.5354 47.2515 92.3252 47.2515 97ZM0 97V80H55.792C55.795 80 55.798 80 55.801 80C55.804 80 55.8071 80 55.8112 80C64.3435 80 71.4039 86.1546 72.7498 94.2171C72.7548 94.243 72.7578 94.2709 72.7618 94.2969C72.8486 94.8387 72.9113 95.3875 72.9456 95.9453C72.9486 95.9922 72.9506 96.0391 72.9526 96.085C72.9698 96.3903 73 96.6907 73 97C73 97.2495 72.9728 97.4909 72.9617 97.7374C72.9607 97.7623 72.9637 97.7863 72.9626 97.8112C72.9606 97.8392 72.9556 97.8671 72.9536 97.896C72.9254 98.4329 72.8728 98.9617 72.7961 99.4836C72.7941 99.4966 72.7922 99.5085 72.7902 99.5205C71.5552 107.711 64.4354 114 55.8112 114H55.2482H55.2461H17.207C17.204 114 17.201 114 17.198 114C17.195 114 17.1919 114 17.1888 114C9.25575 114 2.59695 108.678 0.616455 101.451C0.615448 101.45 0.615479 101.449 0.615479 101.448C0.466156 100.904 0.345085 100.35 0.250244 99.7849C0.245201 99.757 0.242111 99.7291 0.237061 99.7011C0.150299 99.1603 0.0887756 98.6125 0.0534668 98.0567C0.0504456 98.0088 0.0494156 97.9609 0.0463867 97.913C0.0302429 97.6087 0 97.3083 0 97Z" fill="#31313C"/>
<path fill-rule="evenodd" clip-rule="evenodd" d="M516 67.3696C520.675 67.3696 524.464 63.5377 524.464 58.8119C524.464 54.0851 520.675 50.2532 516 50.2532C511.325 50.2532 507.535 54.0851 507.535 58.8119C507.535 63.5377 511.325 67.3696 516 67.3696ZM516 28.7479C520.675 28.7479 524.464 24.9159 524.464 20.1891C524.464 15.4623 520.675 11.6304 516 11.6304C511.325 11.6304 507.535 15.4623 507.535 20.1891C507.535 24.9159 511.325 28.7479 516 28.7479ZM516 76H499V20.2073V20.1992V20.1891C499 11.6566 505.155 4.59512 513.217 3.25021C513.243 3.24517 513.271 3.24214 513.297 3.23811C513.839 3.15033 514.387 3.08879 514.944 3.05347C514.991 3.05045 515.038 3.04944 515.085 3.04742C515.39 3.03027 515.691 3 516 3C516.249 3 516.491 3.02724 516.737 3.03733C516.762 3.03935 516.786 3.03632 516.81 3.03733C516.84 3.03935 516.867 3.04439 516.895 3.04641C517.433 3.07365 517.962 3.12612 518.484 3.2038C518.497 3.20582 518.509 3.20784 518.521 3.20986C526.711 4.44479 533 11.5638 533 20.1891V20.7511V20.7531V58.7927V58.8028V58.8109V58.8119C533 66.7441 527.678 73.404 520.451 75.3846C520.45 75.3846 520.449 75.3856 520.448 75.3856C519.903 75.5349 519.349 75.656 518.785 75.7498C518.757 75.7548 518.728 75.7579 518.701 75.7629C518.16 75.8507 517.612 75.9122 517.057 75.9465C517.009 75.9496 516.961 75.9516 516.913 75.9536C516.609 75.9697 516.308 76 516 76Z" fill="#31313C"/>
<path fill-rule="evenodd" clip-rule="evenodd" d="M584.535 58.9995C584.535 63.6742 588.325 67.4638 593 67.4638C597.674 67.4638 601.464 63.6742 601.464 58.9995C601.464 54.3248 597.674 50.5352 593 50.5352C588.325 50.5352 584.535 54.3248 584.535 58.9995ZM610 58.9995C610 68.3878 602.389 76 593 76H576V58.9995C576 49.6102 583.611 42 593 42C602.389 42 610 49.6102 610 58.9995Z" fill="#31313C"/>
<path fill-rule="evenodd" clip-rule="evenodd" d="M92.0005 144.465C96.6752 144.465 100.464 140.675 100.464 136.001C100.464 131.326 96.6752 127.536 92.0005 127.536C87.3248 127.536 83.5361 131.326 83.5361 136.001C83.5361 140.675 87.3248 144.465 92.0005 144.465ZM92.0005 119C101.389 119 109 126.611 109 136.001V153H92.0005C82.6112 153 75 145.389 75 136.001C75 126.611 82.6112 119 92.0005 119Z" fill="#31313C"/>
<path fill-rule="evenodd" clip-rule="evenodd" d="M100.464 98C100.464 93.3254 96.6742 89.5359 92.0005 89.5359C87.3248 89.5359 83.5352 93.3254 83.5352 98C83.5352 102.675 87.3248 106.464 92.0005 106.464C96.6742 106.464 100.464 102.675 100.464 98ZM75 98C75 88.612 82.6102 81 92.0005 81H109V98C109 107.389 101.389 115 92.0005 115C82.6102 115 75 107.389 75 98Z" fill="#31313C"/>
<path fill-rule="evenodd" clip-rule="evenodd" d="M121.536 98.1891C121.536 102.916 125.325 106.748 130 106.748C134.675 106.748 138.464 102.916 138.464 98.1891C138.464 93.4623 134.675 89.6314 130 89.6314C125.325 89.6314 121.536 93.4623 121.536 98.1891ZM121.536 136.811C121.536 141.538 125.325 145.37 130 145.37C134.675 145.37 138.464 141.538 138.464 136.811C138.464 132.084 134.675 128.252 130 128.252C125.325 128.252 121.536 132.084 121.536 136.811ZM130.913 81.0464C130.96 81.0494 131.009 81.0504 131.057 81.0545C131.612 81.0888 132.16 81.1493 132.7 81.2371C132.729 81.2421 132.757 81.2462 132.785 81.2502C133.35 81.3451 133.904 81.4661 134.447 81.6144C134.448 81.6144 134.45 81.6154 134.451 81.6165C141.678 83.597 147 90.2559 147 98.1891C147 98.1921 146.999 98.1952 146.999 98.1982C146.999 98.2012 147 98.2042 147 98.2073V136.248V136.249V136.811C147 145.436 140.711 152.556 132.521 153.791C132.508 153.792 132.495 153.794 132.484 153.796C131.962 153.874 131.433 153.926 130.896 153.955C130.867 153.956 130.839 153.962 130.811 153.963C130.786 153.965 130.762 153.962 130.738 153.963C130.492 153.974 130.248 154 130 154C129.692 154 129.39 153.97 129.085 153.954C129.039 153.952 128.992 153.95 128.945 153.947C128.388 153.912 127.839 153.851 127.297 153.763C127.27 153.758 127.244 153.755 127.216 153.75C119.155 152.405 113 145.343 113 136.811C113 136.808 113.001 136.805 113.001 136.802C113.001 136.799 113 136.796 113 136.793V81H130C130.308 81 130.609 81.0303 130.913 81.0464Z" fill="#31313C"/>
<path fill-rule="evenodd" clip-rule="evenodd" d="M121.535 58.9995C121.535 63.6742 125.325 67.4638 130 67.4638C134.674 67.4638 138.464 63.6742 138.464 58.9995C138.464 54.3248 134.674 50.5352 130 50.5352C125.325 50.5352 121.535 54.3248 121.535 58.9995ZM147 58.9995C147 68.3878 139.389 76 130 76H113V58.9995C113 49.6102 120.61 42 130 42C139.389 42 147 49.6102 147 58.9995Z" fill="#31313C"/>
</svg>
