<svg width="139" height="138" xmlns="http://www.w3.org/2000/svg" xmlns:xlink="http://www.w3.org/1999/xlink"><defs><path id="a" d="M0 .856h138.134V138H0z"/></defs><g fill="none" fill-rule="evenodd"><path fill="#B9B9BE" d="M63 29H49v21H28v14h21v21h14V64h21V50H63z"/><g><mask id="b" fill="#fff"><use xlink:href="#a"/></mask><path d="M56.075 98.286c-11.236 0-21.792-4.343-29.734-12.228-7.948-7.885-12.322-18.373-12.322-29.53 0-11.148 4.374-21.636 12.322-29.521 7.942-7.892 18.498-12.235 29.734-12.235s21.792 4.343 29.734 12.235c7.949 7.885 12.323 18.373 12.323 29.522 0 11.156-4.374 21.644-12.323 29.529-7.942 7.885-18.498 12.228-29.734 12.228zm82.06 29.877L100.332 90.63c7.633-9.715 11.817-21.581 11.817-34.101 0-14.873-5.838-28.854-16.43-39.363C85.136 6.643 71.054.853 56.075.853c-14.979 0-29.06 5.79-39.645 16.313C5.839 27.675 0 41.656 0 56.529 0 71.4 5.839 85.383 16.43 95.892c10.584 10.522 24.666 16.313 39.645 16.313 12.61 0 24.561-4.148 34.346-11.734l37.802 37.532 9.911-9.84z" fill="#B9B9BE" mask="url(#b)"/></g></g></svg>