<?xml version="1.0" encoding="UTF-8"?>
<svg width="139px" height="138px" viewBox="0 0 139 138" version="1.1" xmlns="http://www.w3.org/2000/svg" xmlns:xlink="http://www.w3.org/1999/xlink">
    <!-- Generator: sketchtool 64 (101010) - https://sketch.com -->
    <title>519A0DFE-9469-43FC-923C-DE3B8F5797DA@1.00x</title>
    <desc>Created with sketchtool.</desc>
    <defs>
        <polygon id="path-1" points="0 0.856432759 138.134279 0.856432759 138.134279 138 0 138"></polygon>
    </defs>
    <g id="Search-by-Model" stroke="none" stroke-width="1" fill="none" fill-rule="evenodd">
        <g id="Uploading-4" transform="translate(-651.000000, -439.000000)">
            <g id="icon/magnify-glass-plus-icon-big" transform="translate(637.000000, 425.000000)">
                <g id="Group-5" transform="translate(14.000000, 14.000000)">
                    <polygon id="Fill-1" fill="#B9B9BE" points="63 29 49 29 49 50 28 50 28 64 49 64 49 85 63 85 63 64 84 64 84 50 63 50"></polygon>
                    <g id="Group-4">
                        <mask id="mask-2" fill="white">
                            <use xlink:href="#path-1"></use>
                        </mask>
                        <g id="Clip-3"></g>
                        <path d="M56.0752137,98.2857116 C44.8391427,98.2857116 34.2829838,93.9429944 26.3413316,86.0579004 C18.3926701,78.1728065 14.0188034,67.6848659 14.0188034,56.5288151 C14.0188034,45.3797237 18.3926701,34.8917832 26.3413316,27.0066892 C34.2829838,19.1146358 44.8391427,14.7719185 56.0752137,14.7719185 C67.3112846,14.7719185 77.8674436,19.1146358 85.8090957,27.0066892 C93.7577573,34.8917832 98.1316239,45.3797237 98.1316239,56.5288151 C98.1316239,67.6848659 93.7577573,78.1728065 85.8090957,86.0579004 C77.8674436,93.9429944 67.3112846,98.2857116 56.0752137,98.2857116 L56.0752137,98.2857116 Z M138.134279,128.162771 L100.332576,90.6302806 C107.965815,80.9148427 112.150427,69.0489246 112.150427,56.5288151 C112.150427,41.6564004 106.311596,27.6747996 95.7203897,17.1659806 C85.1361932,6.64324267 71.0543051,0.852953017 56.0752137,0.852953017 C41.0961222,0.852953017 27.0142342,6.64324267 16.4300376,17.1659806 C5.83883162,27.6747996 0,41.6564004 0,56.5288151 C0,71.4012297 5.83883162,85.3828306 16.4300376,95.8916496 C27.0142342,106.414388 41.0961222,112.204677 56.0752137,112.204677 C68.6851274,112.204677 80.6361573,108.056825 90.4212821,100.470989 L128.222985,138.00348 L138.134279,128.162771 Z" id="Fill-2" fill="#B9B9BE" mask="url(#mask-2)"></path>
                    </g>
                </g>
            </g>
        </g>
    </g>
</svg>