<svg width="102" height="24" viewBox="0 0 102 24" fill="none" xmlns="http://www.w3.org/2000/svg">
<path d="M0 12C0 5.37258 5.37258 0 12 0H90C96.6274 0 102 5.37258 102 12V24H12C5.37258 24 0 18.6274 0 12Z" fill="#31313C"/>
<path d="M17.082 17V9.412H19.798V7.662H12.35V9.412H15.08V17H17.082ZM33.9524 17V7.662H31.9504V11.33H27.5404V7.662H25.5524V17H27.5404V13.066H31.9504V17H33.9524ZM48.9807 17L45.3827 7.662H42.8907L39.2927 17H41.5467L42.1347 15.418H46.1387L46.7267 17H48.9807ZM45.5927 13.668H42.6807L44.1367 9.65L45.5927 13.668ZM62.681 17V7.662H60.693V13.528L56.367 7.662H54.323V17H56.311V10.91L60.763 17H62.681ZM73.5382 17.168C75.2182 17.168 76.5482 16.482 77.5002 15.418V11.834H73.0482V13.57H75.5122V14.69C75.1342 15.04 74.3642 15.404 73.5382 15.404C71.8302 15.404 70.5982 14.102 70.5982 12.338C70.5982 10.574 71.8302 9.272 73.5382 9.272C74.5182 9.272 75.3162 9.832 75.7502 10.49L77.3882 9.594C76.6882 8.488 75.4702 7.508 73.5382 7.508C70.7942 7.508 68.5542 9.384 68.5542 12.338C68.5542 15.278 70.7942 17.168 73.5382 17.168ZM86.8904 17.168C89.3964 17.168 90.6284 15.88 90.6284 14.172C90.6284 10.686 85.2664 11.68 85.2664 10.21C85.2664 9.65 85.7424 9.286 86.5824 9.286C87.5344 9.286 88.5424 9.608 89.2984 10.308L90.4044 8.824C89.4804 7.97 88.2484 7.522 86.7644 7.522C84.5664 7.522 83.2224 8.81 83.2224 10.364C83.2224 13.878 88.5984 12.744 88.5984 14.368C88.5984 14.914 88.0804 15.404 86.9744 15.404C85.6864 15.404 84.6644 14.816 84.0064 14.13L82.9144 15.684C83.7964 16.566 85.0844 17.168 86.8904 17.168Z" fill="white"/>
</svg>