<svg width="112" height="19" xmlns="http://www.w3.org/2000/svg"><g fill="#7B7B82" fill-rule="evenodd"><path d="M5.741 17.745V3.271H.706V.745h13v2.526h-5.19v14.474zM21.382.745v7.262h8.648V.745h2.676v17H30.03v-7.212h-8.648v7.212h-2.676v-17zM43.741 7.594l-1.386 3.4h5.597l-1.439-3.497a41.242 41.242 0 01-.68-1.833l-.68-1.98c-.244.68-.483 1.36-.718 2.04-.236.68-.467 1.304-.694 1.87zm6.957 10.151l-1.726-4.225H41.31l-1.726 4.225h-2.877l7.088-17h2.876l7.036 17h-3.008zM70.992.745h2.714v17h-2.488L60.992 4.777c.1.988.197 1.971.29 2.95.091.98.138 1.964.138 2.952v7.066h-2.714v-17h2.437L71.37 13.981a42.71 42.71 0 01-.3-3.825c-.051-1.368-.077-2.643-.077-3.824V.745zM86.823.745c1.008 0 1.94.143 2.796.428a8.904 8.904 0 012.266 1.106c.655.452 1.167.938 1.536 1.458l-1.763 1.835a9.421 9.421 0 00-2.216-1.57 5.688 5.688 0 00-2.62-.617c-1.192 0-2.27.277-3.236.83a6.108 6.108 0 00-2.279 2.25c-.554.947-.831 2.024-.831 3.23 0 1.19.293 2.271.882 3.243a6.552 6.552 0 002.355 2.314 6.29 6.29 0 003.21.854c.84 0 1.63-.163 2.368-.49.738-.327 1.339-.776 1.8-1.345.462-.57.694-1.224.694-1.96v-.152h-5.013V9.47h7.808c.034.251.063.503.089.754.024.252.037.503.037.755 0 .921-.138 1.826-.415 2.715a6.152 6.152 0 01-1.297 2.312c-.672.839-1.541 1.505-2.608 1.999-1.066.494-2.245.741-3.538.741a9.222 9.222 0 01-3.576-.691 9.157 9.157 0 01-2.922-1.923 8.698 8.698 0 01-1.952-2.879c-.462-1.097-.692-2.283-.692-3.557 0-1.273.23-2.45.692-3.532a8.724 8.724 0 011.94-2.84 8.959 8.959 0 012.909-1.899 9.37 9.37 0 013.576-.679M99.908 12.614c.704.995 1.44 1.766 2.204 2.313.765.548 1.757.821 2.978.821.584 0 1.143-.091 1.675-.277.533-.186.971-.455 1.315-.81.344-.353.516-.775.516-1.263 0-.843-.365-1.5-1.096-1.972-.73-.472-1.757-.834-3.08-1.087-1.685-.337-3.026-.923-4.022-1.757-.997-.834-1.496-2.043-1.496-3.627 0-1.012.288-1.887.864-2.63.576-.74 1.336-1.313 2.282-1.718A7.718 7.718 0 01105.116 0c1.426 0 2.655.27 3.686.81a5.962 5.962 0 012.424 2.3l-1.96 1.896a5.882 5.882 0 00-1.753-1.846c-.705-.472-1.53-.708-2.475-.708-.945 0-1.74.215-2.385.645-.644.43-.967 1.023-.967 1.782 0 .859.34 1.487 1.02 1.883.678.396 1.576.712 2.693.948 1.014.203 1.977.514 2.888.935.91.422 1.654.966 2.23 1.63.575.667.863 1.472.863 2.415 0 1.685-.585 3.025-1.753 4.019-1.169.995-2.776 1.492-4.821 1.492-1.392 0-2.66-.27-3.802-.81-1.144-.539-2.144-1.415-3.004-2.628l1.908-2.149z"/></g></svg>