<svg width="16" height="16" viewBox="0 0 16 16" fill="none" xmlns="http://www.w3.org/2000/svg">
<path fill-rule="evenodd" clip-rule="evenodd" d="M10.5937 9.59741L10.6996 9.45839C11.4018 8.53642 11.8 7.34673 11.8 6.0633C11.8 2.88608 9.24139 0.327515 6.06417 0.327515C2.88696 0.327515 0.327515 2.88696 0.327515 6.06417C0.327515 9.24139 2.88608 11.8 6.0633 11.8C7.34426 11.8 8.48997 11.4031 9.46201 10.6969L9.6002 10.5965L14.4701 15.4664C14.6162 15.6125 14.7944 15.6818 14.9683 15.6818C15.1418 15.6818 15.3192 15.6128 15.4665 15.4664C15.7531 15.1789 15.753 14.7576 15.4656 14.4702L10.5937 9.59741ZM6.06417 10.3738C3.67032 10.3738 1.75458 8.45803 1.75458 6.06417C1.75458 3.67032 3.67032 1.75458 6.06417 1.75458C8.45803 1.75458 10.3738 3.67032 10.3738 6.06417C10.3738 8.45715 8.45717 10.3738 6.06417 10.3738Z" fill="white"/>
</svg>
