<svg width="10" height="16" viewBox="0 0 10 16" fill="none" xmlns="http://www.w3.org/2000/svg">
<path fill-rule="evenodd" clip-rule="evenodd" d="M4.85502 3.47834C5.03952 3.47834 5.21646 3.55163 5.34692 3.68209C5.47738 3.81255 5.55068 3.98949 5.55068 4.17399C5.55068 4.35849 5.47738 4.53543 5.34692 4.66589C5.21646 4.79635 5.03952 4.86964 4.85502 4.86964C4.67052 4.86964 4.49358 4.79635 4.36312 4.66589C4.23266 4.53543 4.15937 4.35849 4.15937 4.17399C4.15937 3.98949 4.23266 3.81255 4.36312 3.68209C4.49358 3.55163 4.67052 3.47834 4.85502 3.47834ZM4.85502 6.26095C5.40852 6.26095 5.93934 6.04107 6.33072 5.64969C6.7221 5.25831 6.94198 4.72749 6.94198 4.17399C6.94198 3.6205 6.7221 3.08967 6.33072 2.69829C5.93934 2.30691 5.40852 2.08704 4.85502 2.08704C4.30153 2.08704 3.7707 2.30691 3.37932 2.69829C2.98794 3.08967 2.76807 3.6205 2.76807 4.17399C2.76807 4.72749 2.98794 5.25831 3.37932 5.64969C3.7707 6.04107 4.30153 6.26095 4.85502 6.26095Z" fill="white"/>
<path fill-rule="evenodd" clip-rule="evenodd" d="M4.15796 1.3913H5.54926V0H4.15796V1.3913ZM9.72248 7.65217H8.33117C8.33029 7.97632 8.25365 8.29577 8.10739 8.58505C7.96112 8.87432 7.74927 9.1254 7.48874 9.31826L6.66509 7.13043C6.25859 7.37881 5.80497 7.54013 5.33291 7.60417L6.09535 9.73913H3.61048L4.37431 7.60417C3.90219 7.53997 3.44855 7.37842 3.04213 7.12974L0.331177 14.3311L1.37605 16L3.11518 11.1304H6.24561C6.36039 11.1304 6.46822 11.1075 6.58022 11.0963L8.33117 16L9.37465 14.3311L7.98752 10.6449C9.01987 10.041 9.72317 8.93217 9.72317 7.65217" fill="white"/>
</svg>
