<svg width="24" height="24" xmlns="http://www.w3.org/2000/svg" xmlns:xlink="http://www.w3.org/1999/xlink">
    <defs>
        <path id="a" d="M0 23h13.498V0H0z" />
    </defs>
    <g transform="translate(5 1)" fill="currentColor" fill-rule="evenodd">
      <path d="M6.5 5a1 1 0 110 2 1 1 0 010-2m0 4a3 3 0 100-6 3 3 0 000 6"
            fill="currentColor" />
        <mask id="b" fill="currentColor">
            <use xlink:href="#a" />
        </mask>
        <path fill="currentColor" mask="url(#b)" d="M5.499 2h2V0h-2zM13.498 11h-2a2.99 2.99 0 01-1.211 2.395L9.103 10.25a4.949 4.949 0 01-1.915.681L8.284 14H4.712l1.098-3.069a4.946 4.946 0 01-1.915-.682L-.002 20.601 1.5 23l2.5-7h4.5c.165 0 .32-.033.481-.049L11.498 23l1.5-2.399-1.994-5.299c1.484-.868 2.495-2.462 2.495-4.302" />
    </g>
</svg>
