<svg width="22" height="21" xmlns="http://www.w3.org/2000/svg"><path d="M17 18.234v-3.668l3-1.8v3.668l-3 1.8zm-5-4.757l3 1.2v3.846l-3-1.2v-3.846zm-10-.711l3 1.8v3.668l-3-1.8v-3.668zm9-10.647L13.764 3.5 11 4.88l-2.764-1.38L11 2.119zM7 14.677l3-1.2v3.846l-3 1.2v-3.846zm-1.09-4.564l2.846 1.707-2.666 1.067-2.846-1.707 2.666-1.067zm4.09.12l-3-1.8V5.12l3 1.5v3.615zm5-1.8l-3 1.8V6.62l3-1.5v3.315zm.91 4.454l-2.666-1.067 2.846-1.707 2.666 1.067-2.846 1.707zm5.583-2.757c-.097-.054-4.39-1.766-4.493-1.807V3.5a1 1 0 00-.474-.851c-.053-.034-5.021-2.516-5.079-2.544a.991.991 0 00-.894 0c-.058.028-5.026 2.51-5.079 2.544A1 1 0 005 3.5v4.823c-.103.04-4.396 1.753-4.493 1.807A.997.997 0 000 11v6c0 .35.185.676.485.858l5 3a1.01 1.01 0 00.887.07L11 19.079l4.628 1.85a1 1 0 00.887-.07l5-3c.3-.182.485-.507.485-.857v-6a.997.997 0 00-.507-.871z" fill-rule="evenodd"/></svg>
