<?xml version="1.0" encoding="UTF-8"?>
<svg width="16px" height="16px" viewBox="0 0 16 16" version="1.1" xmlns="http://www.w3.org/2000/svg" xmlns:xlink="http://www.w3.org/1999/xlink">
    <g id="Symbols" stroke="none" stroke-width="1" fill="none" fill-rule="evenodd">
        <g id="icon/square-with-circle-corners" fill="currentColor">
            <path d="M13.6,14.4 C13.1584,14.4 12.8,14.0416 12.8,13.6 C12.8,13.1584 13.1584,12.8 13.6,12.8 C14.0416,12.8 14.4,13.1584 14.4,13.6 C14.4,14.0416 14.0416,14.4 13.6,14.4 M11.3472,12.8 L4.652,12.8 C4.4112,12.1224 3.8776,11.5888 3.2,11.3472 L3.2,4.6528 C3.8776,4.4112 4.4112,3.8776 4.652,3.2 L11.348,3.2 C11.5888,3.8776 12.1224,4.4112 12.8,4.652 L12.8,11.3472 C12.1224,11.5888 11.5888,12.1224 11.3472,12.8 M2.4,14.4 C1.9584,14.4 1.6,14.0416 1.6,13.6 C1.6,13.1584 1.9584,12.8 2.4,12.8 C2.8416,12.8 3.2,13.1584 3.2,13.6 C3.2,14.0416 2.8416,14.4 2.4,14.4 M2.4,1.6 C2.8416,1.6 3.2,1.9584 3.2,2.4 C3.2,2.8416 2.8416,3.2 2.4,3.2 C1.9584,3.2 1.6,2.8416 1.6,2.4 C1.6,1.9584 1.9584,1.6 2.4,1.6 M13.6,1.6 C14.0416,1.6 14.4,1.9584 14.4,2.4 C14.4,2.8416 14.0416,3.2 13.6,3.2 C13.1584,3.2 12.8,2.8416 12.8,2.4 C12.8,1.9584 13.1584,1.6 13.6,1.6 M14.4,11.3472 L14.4,4.6528 C15.3296,4.3216 16,3.4416 16,2.4 C16,1.0768 14.9232,0 13.6,0 C12.5584,0 11.6792,0.6704 11.3472,1.6 L4.652,1.6 C4.3208,0.6704 3.4416,0 2.4,0 C1.0768,0 0,1.0768 0,2.4 C0,3.4416 0.6704,4.3216 1.6,4.652 L1.6,11.3472 C0.6704,11.6792 0,12.5592 0,13.6 C0,14.9232 1.0768,16 2.4,16 C3.4416,16 4.3208,15.3296 4.652,14.4 L11.348,14.4 C11.6792,15.3296 12.5584,16 13.6,16 C14.9232,16 16,14.9232 16,13.6 C16,12.5592 15.3296,11.6792 14.4,11.3472" id="Fill-1"></path>
        </g>
    </g>
</svg>
