<?xml version="1.0" encoding="UTF-8"?>
<svg width="30px" height="16px" viewBox="0 0 30 16" version="1.1" xmlns="http://www.w3.org/2000/svg" xmlns:xlink="http://www.w3.org/1999/xlink">
    <title>icon/multi users</title>
    <defs>
        <filter id="filter-1">
            <feColorMatrix in="SourceGraphic" type="matrix" values="0 0 0 0 0.105882 0 0 0 0 0.549020 0 0 0 0 0.972549 0 0 0 1.000000 0"></feColorMatrix>
        </filter>
    </defs>
    <g id="Teams/Groups" stroke="none" stroke-width="1" fill="none" fill-rule="evenodd">
        <g id="New-Collection-Copy" transform="translate(-383.000000, -329.000000)" fill="#1B8CF8">
            <g filter="url(#filter-1)" id="icon/multi-users">
                <g transform="translate(383.000000, 328.000000)">
                    <g id="Group-3" fill="none" transform="translate(-0.375000, 1.500000)">
                        <g id="Group" transform="translate(9.193103, 0.000000)" fill="#7B7B82">
                            <path d="M6.62758621,1.92413793 C5.56642414,1.92413793 4.70344828,2.78615172 4.70344828,3.84827586 C4.70344828,4.90943793 5.56642414,5.77241379 6.62758621,5.77241379 C7.68874828,5.77241379 8.55172414,4.90943793 8.55172414,3.84827586 C8.55172414,2.78615172 7.68874828,1.92413793 6.62758621,1.92413793 M6.62758621,7.69655172 C4.50526207,7.69655172 2.77931034,5.9706 2.77931034,3.84827586 C2.77931034,1.72595172 4.50526207,1.89886421e-15 6.62758621,1.89886421e-15 C8.74991034,1.89886421e-15 10.4758621,1.72595172 10.4758621,3.84827586 C10.4758621,5.9706 8.74991034,7.69655172 6.62758621,7.69655172" id="Fill-1"></path>
                            <g id="Group-5" transform="translate(0.000000, 8.658621)">
                                <path d="M1.73092241,4.81034483 L11.0974655,4.81034483 C10.6172328,3.07092414 8.82537931,1.92413793 6.4137931,1.92413793 C4.0022069,1.92413793 2.21035345,3.07092414 1.73092241,4.81034483 L1.73092241,4.81034483 Z M12.8275862,6.73448276 L0,6.73448276 L0,5.77241379 C0,2.37342414 2.63767241,7.59545683e-15 6.4137931,7.59545683e-15 C10.1907155,7.59545683e-15 12.8275862,2.37342414 12.8275862,5.77241379 L12.8275862,6.73448276 Z" id="Fill-3"></path>
                            </g>
                        </g>
                        <g id="Group-8-Copy" transform="translate(0.000000, 1.068966)" fill="#7B7B82">
                            <path d="M6.73448276,2.24482759 C5.80596595,2.24482759 5.05086207,2.99908966 5.05086207,3.92844828 C5.05086207,4.85696509 5.80596595,5.61206897 6.73448276,5.61206897 C7.66299957,5.61206897 8.41810345,4.85696509 8.41810345,3.92844828 C8.41810345,2.99908966 7.66299957,2.24482759 6.73448276,2.24482759 M6.73448276,7.29568966 C4.87744914,7.29568966 3.36724138,5.7854819 3.36724138,3.92844828 C3.36724138,2.07141466 4.87744914,0.561206897 6.73448276,0.561206897 C8.59151638,0.561206897 10.1017241,2.07141466 10.1017241,3.92844828 C10.1017241,5.7854819 8.59151638,7.29568966 6.73448276,7.29568966" id="Fill-1"></path>
                            <g id="Group-5" transform="translate(0.000000, 8.137500)">
                                <path d="M6.54741379,1.25340351e-14 C7.57672351,1.25340351e-14 8.50926506,0.201457444 9.30546742,0.568739341 C8.82183985,0.956664817 8.39216084,1.39055448 8.02116917,1.86614523 C7.57224186,1.74680029 7.07689922,1.68362069 6.54741379,1.68362069 C4.43727586,1.68362069 2.86940409,2.68705862 2.44990194,4.20905172 L6.78679577,4.20963048 C6.61729723,4.74340276 6.50342876,5.30556955 6.44960021,5.89235506 L0.935344828,5.89267241 L0.935344828,5.05086207 C0.935344828,2.07674612 3.24330819,1.25340351e-14 6.54741379,1.25340351e-14 Z" id="Combined-Shape"></path>
                            </g>
                        </g>
                        <g id="Group-2" transform="translate(20.951724, 1.630172)" fill="#7B7B82">
                            <path d="M3.36724138,1.68362069 C2.43872457,1.68362069 1.68362069,2.43788276 1.68362069,3.36724138 C1.68362069,4.29575819 2.43872457,5.05086207 3.36724138,5.05086207 C4.29575819,5.05086207 5.05086207,4.29575819 5.05086207,3.36724138 C5.05086207,2.43788276 4.29575819,1.68362069 3.36724138,1.68362069 M3.36724138,6.73448276 C1.51020776,6.73448276 -9.49432104e-15,5.224275 -9.49432104e-15,3.36724138 C-9.49432104e-15,1.51020776 1.51020776,-1.42414816e-15 3.36724138,-1.42414816e-15 C5.224275,-1.42414816e-15 6.73448276,1.51020776 6.73448276,3.36724138 C6.73448276,5.224275 5.224275,6.73448276 3.36724138,6.73448276" id="Fill-1"></path>
                            <g id="Group-5" transform="translate(0.908621, 7.576293)">
                                <path d="M2.27155172,0 C5.57635884,0 7.88362069,2.07674612 7.88362069,5.05086207 L7.88362069,5.89267241 L3.17109984,5.89235506 C3.11728653,5.30556955 3.00344903,4.74340276 2.8339901,4.20963048 L6.36976509,4.20905172 C5.94956142,2.68705862 4.38168966,1.68362069 2.27155172,1.68362069 C2.00246405,1.68362069 1.74219454,1.6999383 1.49200009,1.731568 C1.07560795,1.22133018 0.589025824,0.760879032 0.0407222961,0.357285146 C0.71069948,0.124928525 1.46116369,0 2.27155172,0 Z" id="Combined-Shape"></path>
                            </g>
                        </g>
                    </g>
                </g>
            </g>
        </g>
    </g>
</svg>