<?xml version="1.0" encoding="UTF-8"?>
<svg width="81px" height="88px" viewBox="0 0 81 88" version="1.1" xmlns="http://www.w3.org/2000/svg" xmlns:xlink="http://www.w3.org/1999/xlink">
    <!-- Generator: sketchtool 64 (101010) - https://sketch.com -->
    <title>477E142E-5086-46BC-988F-1C7D51FBC035@1.00x</title>
    <desc>Created with sketchtool.</desc>
    <g id="0-States" stroke="none" stroke-width="1" fill="none" fill-rule="evenodd">
        <g id="Model-Detail-0-State" transform="translate(-451.000000, -1129.000000)" fill="#88888B">
            <g id="0-State-Message" transform="translate(105.001913, 991.000765)">
                <g id="Group-10" transform="translate(346.000000, 138.000000)">
                    <polygon id="Fill-1" points="40.0629565 0 7.10542736e-14 62.3269565 9.52695652 66.5624348 15.3234783 60.762087 11.2563478 58.9561739 36.2368696 20.106087 36.2368696 39.8525217 43.8890435 32.2003478 43.8890435 20.106087 48.621913 27.4674783 54.162087 21.9273043"></polygon>
                    <path d="M4.75353043,82.0477565 L10.1636174,87.4578435 L24.4349217,73.1865391 L40.064487,80.134713 L80.1274435,62.3281043 L62.5848348,35.0328 L79.0331826,18.5882783 L73.6230957,13.1781913 L4.75353043,82.0477565 Z M43.8905739,53.730887 L57.048487,40.5729739 L68.8672696,58.9573217 L43.8905739,70.0606261 L43.8905739,53.730887 Z M30.2314435,67.3938435 L36.2384,61.3830609 L36.2384,70.0606261 L30.2314435,67.3938435 Z" id="Fill-2"></path>
                </g>
            </g>
        </g>
    </g>
</svg>