<svg width="12" height="12" viewBox="0 0 12 12" fill="none" xmlns="http://www.w3.org/2000/svg">
<path d="M11.2582 9.46433C11.1772 9.24635 11.1947 9.00435 11.3062 8.80037C12.0952 7.30543 12.2172 5.54657 11.6417 3.95717C11.0662 2.36777 9.84674 1.09438 8.28322 0.451346C6.71969 -0.192107 4.95725 -0.14562 3.42969 0.578338C1.90162 1.3028 0.750639 2.63773 0.259116 4.25554C-0.23238 5.87297 -0.018389 7.62287 0.847625 9.07417C1.71412 10.5261 3.15317 11.5445 4.81014 11.88C5.20514 11.959 5.60715 11.999 6.01014 12C6.98715 11.9995 7.9491 11.7575 8.81016 11.296C9.00966 11.1891 9.24515 11.1716 9.45816 11.248L11.4582 11.976C11.6042 12.0285 11.7672 11.992 11.8767 11.8825C11.9862 11.773 12.0227 11.61 11.9702 11.464L11.2582 9.46433Z" fill="#333333"/>
<path d="M4 4.5H8" stroke="white" stroke-width="1.5" stroke-linecap="round"/>
<path d="M4 7.5H8" stroke="white" stroke-width="1.5" stroke-linecap="round"/>
</svg>
