<svg width="12" height="12" xmlns="http://www.w3.org/2000/svg">
 <g>
  <rect fill="none" id="canvas_background" height="602" width="802" y="-1" x="-1"/>
 </g>
 <g>
  <path transform="rotate(-180 5.734960079193115,4.609435558319092) " id="svg_1" stroke-width="0.4" stroke="#333333" fill="#333333" d="m6.26311,6.55563l1.87807,-1.99977l0.00002,-0.00001c0.20177,-0.2148 0.53766,-0.22163 0.74885,-0.01721l0.00072,0.00069c0.20871,0.20405 0.21552,0.53888 0.01654,0.75173l-0.00031,0.00034l-3.02613,3.22222l-0.14578,0.15524l-0.14579,-0.15524l-3.0261,-3.22219c-0.00001,-0.00001 -0.00002,-0.00002 -0.00003,-0.00003c-0.20048,-0.21342 -0.19202,-0.54846 0.01623,-0.75207l0.0008,-0.00078c0.10218,-0.09878 0.23374,-0.14881 0.36588,-0.14881c0.14033,0 0.27915,0.05636 0.38246,0.16565l0.00045,0.00047l1.87807,1.99977l0,-5.47172c0,-0.29165 0.23292,-0.53379 0.52793,-0.5339l0.52812,6.00562zm0,0l0,-5.47172c0,-0.29166 -0.23293,-0.53379 -0.52793,-0.5339l0.52793,6.00562z"/>
  <path id="svg_2" stroke-width="0.4" stroke="#333333" fill="#333333" d="m0.28441,7.77718l0,1.3175c0,1.30872 0.97748,2.35532 2.24306,2.35532l6.41318,0c1.26625,0 2.24375,-1.0466 2.24375,-2.35532l0,-1.44186c0,-0.29172 -0.2331,-0.53389 -0.5281,-0.53389c-0.2951,0 -0.5282,0.24218 -0.5282,0.53389l0,1.44186c0,0.75132 -0.51997,1.28752 -1.18681,1.28752l-6.41383,0c-0.66684,0 -1.18684,-0.53618 -1.18684,-1.28752l0,-1.5175c0,-0.29172 -0.23303,-0.53389 -0.52812,-0.53389c-0.29509,0 -0.52812,0.24218 -0.52812,0.53389l0,0.2l0.00003,0z"/>
 </g>
</svg>