<svg width="12" height="12" viewBox="0 0 12 12" fill="none" xmlns="http://www.w3.org/2000/svg">
<path d="M6.72491 11.2365C6.33073 11.6517 5.66915 11.6518 5.2748 11.2368L4.81548 10.7534C3.32952 9.37025 2.21388 8.30922 1.40532 7.27319C0.446256 6.04586 0 4.93302 0 3.77222C0 1.65697 1.57404 0 3.58404 0C4.45826 0 5.3226 0.336433 6 0.922465C6.67734 0.336433 7.54176 0 8.41596 0C10.426 0 12 1.65697 12 3.77222C12 4.93344 11.5537 6.04584 10.5937 7.27319C9.78466 8.30911 8.66952 9.36975 7.18356 10.7534L6.72491 11.2365Z" fill="#FFBC00"/>
</svg>
