<svg width="12" height="12" viewBox="0 0 12 12" fill="none" xmlns="http://www.w3.org/2000/svg">
<path d="M10.6667 3.09812H6.16667V2C6.16667 1.91686 6.13167 1.83686 6.06917 1.77804C6.00667 1.71922 5.92167 1.68628 5.83334 1.68628H1.83333C1.64916 1.68628 1.5 1.82667 1.5 2V3.09812H1.33333C1.14916 3.09812 1 3.23851 1 3.41185V9.68636C1 9.7695 1.035 9.8495 1.0975 9.90832C1.16 9.96714 1.245 10.0001 1.33333 10.0001H10.6667C10.755 10.0001 10.84 9.96714 10.9025 9.90832C10.965 9.84949 11 9.7695 11 9.68636V3.41185C11 3.32871 10.965 3.24871 10.9025 3.18989C10.84 3.13107 10.7551 3.09812 10.6667 3.09812ZM10.3334 9.37263H1.66672V3.72557H10.3334V9.37263Z" fill="#333333" stroke="#333333" stroke-width="0.8"/>
</svg>
