<svg width="12" height="12" viewBox="0 0 12 12" fill="none" xmlns="http://www.w3.org/2000/svg">
<path d="M6.26311 6.55563L8.14118 4.55586L8.1412 4.55585C8.34297 4.34105 8.67886 4.33422 8.89005 4.53864L8.89077 4.53933C9.09948 4.74338 9.10629 5.07821 8.90731 5.29106L8.907 5.2914L5.88087 8.51362L5.73509 8.66886L5.5893 8.51362L2.5632 5.29143C2.56319 5.29142 2.56318 5.29141 2.56317 5.2914C2.36269 5.07798 2.37115 4.74294 2.5794 4.53933L2.5802 4.53855C2.68238 4.43977 2.81394 4.38974 2.94608 4.38974C3.08641 4.38974 3.22523 4.4461 3.32854 4.55539L3.32899 4.55586L5.20706 6.55563L5.20706 1.08391C5.20706 0.792262 5.43998 0.550122 5.73499 0.550014L6.26311 6.55563ZM6.26311 6.55563L6.26311 1.08391C6.26311 0.792253 6.03018 0.550122 5.73518 0.550014L6.26311 6.55563Z" fill="#333333" stroke="#333333" stroke-width="0.4"/>
<path d="M0.284408 7.77718V9.09468C0.284408 10.4034 1.26189 11.45 2.52747 11.45H8.94065C10.2069 11.45 11.1844 10.4034 11.1844 9.09468V7.65282C11.1844 7.3611 10.9513 7.11893 10.6563 7.11893C10.3612 7.11893 10.1281 7.36111 10.1281 7.65282V9.09468C10.1281 9.846 9.60813 10.3822 8.94129 10.3822H2.52746C1.86062 10.3822 1.34062 9.84602 1.34062 9.09468V7.57718C1.34062 7.28546 1.10759 7.04329 0.812499 7.04329C0.517405 7.04329 0.284375 7.28547 0.284375 7.57718V7.77718H0.284408Z" fill="#333333" stroke="#333333" stroke-width="0.4"/>
</svg>
