<svg width="398" height="472" viewBox="0 0 398 472" fill="none" xmlns="http://www.w3.org/2000/svg">
<path fill-rule="evenodd" clip-rule="evenodd" d="M231.796 274.321C231.796 269.69 227.963 265.935 223.238 265.935C218.512 265.935 214.678 269.69 214.678 274.321C214.678 278.951 218.512 282.706 223.238 282.706C227.963 282.706 231.796 278.951 231.796 274.321ZM193.175 274.321C193.175 269.691 189.343 265.935 184.616 265.935C179.889 265.935 176.057 269.691 176.057 274.321C176.057 278.951 179.889 282.706 184.616 282.706C189.343 282.706 193.175 278.951 193.175 274.321ZM240.426 274.321V291.162H184.634C184.63 291.162 184.627 291.161 184.625 291.161C184.622 291.161 184.619 291.162 184.616 291.162C176.082 291.162 169.022 285.065 167.676 277.078C167.672 277.051 167.669 277.025 167.664 276.999C167.576 276.462 167.514 275.919 167.48 275.366C167.478 275.319 167.476 275.273 167.473 275.226C167.457 274.925 167.426 274.627 167.426 274.321C167.426 274.074 167.453 273.835 167.464 273.591C167.464 273.566 167.463 273.542 167.464 273.517C167.464 273.489 167.471 273.462 167.472 273.432C167.501 272.901 167.553 272.377 167.631 271.859C167.633 271.848 167.634 271.836 167.635 271.824C168.871 263.71 175.991 257.48 184.616 257.48H185.177H185.179H223.218C223.222 257.48 223.225 257.481 223.228 257.481C223.231 257.481 223.234 257.48 223.237 257.48H223.238C231.17 257.48 237.83 262.752 239.811 269.911C239.812 269.912 239.812 269.913 239.812 269.914C239.96 270.454 240.081 271.003 240.176 271.562C240.181 271.589 240.185 271.617 240.19 271.644C240.277 272.181 240.337 272.723 240.373 273.274C240.375 273.322 240.377 273.369 240.38 273.416C240.396 273.718 240.426 274.015 240.426 274.321Z" fill="#31313C"/>
<path fill-rule="evenodd" clip-rule="evenodd" d="M1.89056 312.956C1.89056 308.325 -1.90038 304.572 -6.57422 304.572C-11.2481 304.572 -15.038 308.325 -15.038 312.956C-15.038 317.588 -11.2481 321.341 -6.57422 321.341C-1.90038 321.341 1.89056 317.588 1.89056 312.956ZM-23.5742 312.956C-23.5742 303.656 -15.9631 296.115 -6.57422 296.115H10.4258V312.956C10.4258 322.258 2.8147 329.798 -6.57422 329.798C-15.9631 329.798 -23.5742 322.258 -23.5742 312.956Z" fill="#31313C"/>
<path fill-rule="evenodd" clip-rule="evenodd" d="M22.961 274.321C22.961 278.952 26.7519 282.707 31.4258 282.707C36.0996 282.707 39.8896 278.952 39.8896 274.321C39.8896 269.691 36.0996 265.935 31.4258 265.935C26.7519 265.935 22.961 269.691 22.961 274.321ZM48.4258 274.321C48.4258 283.622 40.8147 291.162 31.4258 291.162H14.4258L14.4258 274.321C14.4258 265.02 22.0369 257.48 31.4258 257.48C40.8147 257.48 48.4258 265.02 48.4258 274.321Z" fill="#31313C"/>
<path fill-rule="evenodd" clip-rule="evenodd" d="M60.961 388.246C60.961 392.877 64.7509 396.632 69.4258 396.632C74.0996 396.632 77.8896 392.877 77.8896 388.246C77.8896 383.615 74.0996 379.861 69.4258 379.861C64.7509 379.861 60.961 383.615 60.961 388.246ZM86.4258 388.246C86.4258 397.547 78.8147 405.087 69.4258 405.087H52.4258V388.246C52.4258 378.945 60.0369 371.405 69.4258 371.405C78.8147 371.405 86.4258 378.945 86.4258 388.246Z" fill="#31313C"/>
<path fill-rule="evenodd" clip-rule="evenodd" d="M108.426 321.342C113.101 321.342 116.891 317.587 116.891 312.957C116.891 308.326 113.101 304.571 108.426 304.571C103.752 304.571 99.962 308.326 99.962 312.957C99.962 317.587 103.752 321.342 108.426 321.342ZM108.426 296.115C117.815 296.115 125.426 303.654 125.426 312.957V329.798H108.426C99.0369 329.798 91.4258 322.257 91.4258 312.957C91.4258 303.654 99.0369 296.115 108.426 296.115Z" fill="#31313C"/>
<path fill-rule="evenodd" clip-rule="evenodd" d="M108.238 265.935C103.511 265.935 99.6785 269.69 99.6785 274.321C99.6785 278.952 103.511 282.706 108.238 282.706C112.963 282.706 116.796 278.952 116.796 274.321C116.796 269.69 112.963 265.935 108.238 265.935ZM69.6161 265.935C64.8882 265.935 61.057 269.69 61.057 274.321C61.057 278.952 64.8882 282.706 69.6161 282.706C74.342 282.706 78.1741 278.952 78.1741 274.321C78.1741 269.69 74.342 265.935 69.6161 265.935ZM125.379 275.225C125.377 275.273 125.375 275.321 125.373 275.367C125.337 275.918 125.276 276.461 125.189 276.997C125.185 277.025 125.181 277.052 125.176 277.081C125.081 277.64 124.96 278.189 124.812 278.728C124.812 278.729 124.811 278.731 124.811 278.732C122.83 285.889 116.17 291.162 108.238 291.162H108.237H108.228H108.218H70.1793H70.1773H69.6161C60.9899 291.162 53.8706 284.932 52.6353 276.819C52.6342 276.806 52.6322 276.794 52.6301 276.782C52.5518 276.264 52.501 275.74 52.4716 275.209C52.4705 275.18 52.4644 275.153 52.4644 275.124C52.4634 275.099 52.4644 275.077 52.4644 275.052C52.4532 274.808 52.4258 274.567 52.4258 274.321C52.4258 274.015 52.4573 273.718 52.4725 273.415C52.4756 273.369 52.4766 273.322 52.4797 273.276C52.5142 272.724 52.5763 272.181 52.6637 271.643C52.6688 271.617 52.6718 271.591 52.6759 271.564C54.0221 263.578 61.0825 257.48 69.6161 257.48H69.6242H69.6334H125.426V274.321C125.426 274.627 125.396 274.924 125.379 275.225Z" fill="#31313C"/>
<path fill-rule="evenodd" clip-rule="evenodd" d="M108.238 342.216C103.511 342.216 99.6785 345.97 99.6785 350.601C99.6785 355.232 103.511 358.986 108.238 358.986C112.963 358.986 116.796 355.232 116.796 350.601C116.796 345.97 112.963 342.216 108.238 342.216ZM69.6161 342.216C64.8882 342.216 61.057 345.97 61.057 350.601C61.057 355.231 64.8882 358.986 69.6161 358.986C74.342 358.986 78.1741 355.231 78.1741 350.601C78.1741 345.97 74.342 342.216 69.6161 342.216ZM125.379 351.506C125.377 351.553 125.375 351.6 125.373 351.647C125.337 352.198 125.276 352.741 125.189 353.277C125.185 353.304 125.181 353.333 125.176 353.361C125.081 353.919 124.96 354.468 124.812 355.007C124.812 355.008 124.811 355.01 124.811 355.011C122.83 362.17 116.17 367.442 108.238 367.442H108.237C108.234 367.442 108.231 367.441 108.228 367.441C108.225 367.441 108.221 367.442 108.218 367.442H70.1793H70.1773H69.6161C60.9899 367.442 53.8706 361.211 52.6353 353.099C52.6342 353.087 52.6322 353.074 52.6301 353.062C52.5518 352.545 52.501 352.02 52.4716 351.489C52.4705 351.46 52.4644 351.433 52.4644 351.404C52.4634 351.379 52.4644 351.356 52.4644 351.331C52.4532 351.087 52.4258 350.848 52.4258 350.601C52.4258 350.294 52.4573 349.997 52.4725 349.695C52.4756 349.648 52.4766 349.602 52.4797 349.556C52.5142 349.003 52.5763 348.461 52.6637 347.923C52.6688 347.897 52.6718 347.87 52.6759 347.844C54.0221 339.858 61.0825 333.76 69.6161 333.76C69.6191 333.76 69.6222 333.76 69.6242 333.76C69.6273 333.76 69.6303 333.76 69.6334 333.76H125.426V350.601C125.426 350.906 125.396 351.204 125.379 351.506Z" fill="#31313C"/>
<path fill-rule="evenodd" clip-rule="evenodd" d="M116.89 426.694C116.89 422.011 113.1 418.216 108.425 418.216C103.751 418.216 99.9612 422.011 99.9612 426.694C99.9612 431.376 103.751 435.172 108.425 435.172C113.1 435.172 116.89 431.376 116.89 426.694ZM116.89 388.434C116.89 383.751 113.1 379.955 108.425 379.955C103.751 379.955 99.9612 383.751 99.9612 388.434C99.9612 393.116 103.751 396.913 108.425 396.913C113.1 396.913 116.89 393.116 116.89 388.434ZM107.512 443.676C107.465 443.673 107.417 443.672 107.369 443.669C106.813 443.635 106.265 443.575 105.724 443.487C105.696 443.483 105.669 443.479 105.64 443.475C105.076 443.381 104.522 443.261 103.978 443.113C103.977 443.113 103.975 443.113 103.974 443.112C96.7483 441.15 91.4258 434.553 91.4258 426.694V426.685V426.676V388.992V388.991V388.434C91.4258 379.889 97.7147 372.835 105.904 371.613C105.917 371.611 105.929 371.609 105.941 371.606C106.464 371.53 106.993 371.479 107.529 371.45C107.558 371.448 107.586 371.443 107.615 371.442C107.64 371.441 107.663 371.443 107.688 371.442C107.935 371.431 108.177 371.405 108.425 371.405C108.735 371.405 109.035 371.435 109.34 371.451C109.387 371.453 109.434 371.455 109.48 371.458C110.038 371.493 110.586 371.553 111.129 371.64C111.155 371.645 111.182 371.648 111.209 371.653C119.271 372.985 125.426 379.981 125.426 388.434V388.443V388.452V443.723H108.425C108.117 443.723 107.817 443.693 107.512 443.676Z" fill="#31313C"/>
<path fill-rule="evenodd" clip-rule="evenodd" d="M116.89 236.49C116.89 231.807 113.1 228.01 108.425 228.01C103.751 228.01 99.9612 231.807 99.9612 236.49C99.9612 241.171 103.751 244.968 108.425 244.968C113.1 244.968 116.89 241.171 116.89 236.49ZM116.89 198.229C116.89 193.545 113.1 189.75 108.425 189.75C103.751 189.75 99.9612 193.545 99.9612 198.229C99.9612 202.911 103.751 206.707 108.425 206.707C113.1 206.707 116.89 202.911 116.89 198.229ZM107.513 253.471C107.465 253.469 107.417 253.467 107.369 253.465C106.813 253.43 106.266 253.369 105.724 253.282C105.697 253.277 105.669 253.274 105.64 253.269C105.077 253.176 104.522 253.056 103.978 252.909C103.977 252.909 103.975 252.908 103.974 252.908C96.7483 250.946 91.4258 244.348 91.4258 236.49V236.489V236.48V236.47V198.786V198.785V198.229C91.4258 189.684 97.7147 182.631 105.904 181.407C105.917 181.405 105.929 181.404 105.941 181.402C106.464 181.324 106.993 181.274 107.529 181.245C107.559 181.243 107.586 181.238 107.615 181.237C107.64 181.236 107.663 181.238 107.688 181.238C107.935 181.227 108.177 181.199 108.425 181.199C108.735 181.199 109.036 181.231 109.34 181.246C109.388 181.249 109.434 181.25 109.481 181.253C110.038 181.287 110.586 181.348 111.129 181.435C111.155 181.44 111.182 181.443 111.21 181.447C119.271 182.781 125.426 189.775 125.426 198.229V198.237V198.246V253.517H108.425C108.118 253.517 107.818 253.488 107.513 253.471Z" fill="#31313C"/>
<path fill-rule="evenodd" clip-rule="evenodd" d="M22.961 198.227C22.961 202.91 26.7519 206.706 31.4258 206.706C36.0996 206.706 39.8896 202.91 39.8896 198.227C39.8896 193.545 36.0996 189.749 31.4258 189.749C26.7519 189.749 22.961 193.545 22.961 198.227ZM22.961 236.488C22.961 241.171 26.7519 244.967 31.4258 244.967C36.0996 244.967 39.8896 241.171 39.8896 236.488C39.8896 231.806 36.0996 228.008 31.4258 228.008C26.7519 228.008 22.961 231.806 22.961 236.488ZM32.3388 181.245C32.3861 181.248 32.4343 181.25 32.4826 181.252C33.0377 181.287 33.5857 181.346 34.1267 181.434C34.1549 181.438 34.182 181.442 34.2112 181.447C34.7753 181.541 35.3293 181.661 35.8734 181.808C35.8754 181.808 35.8764 181.808 35.8774 181.809C43.1033 183.771 48.4258 190.368 48.4258 198.227V198.228C48.4258 198.23 48.4248 198.233 48.4248 198.236C48.4248 198.239 48.4258 198.243 48.4258 198.246V235.93V235.932V236.488C48.4258 245.032 42.136 252.086 33.9467 253.31C33.9347 253.311 33.9216 253.312 33.9095 253.315C33.3866 253.392 32.8587 253.443 32.3217 253.472C32.2926 253.473 32.2654 253.479 32.2363 253.479C32.2111 253.48 32.188 253.479 32.1628 253.479C31.9165 253.49 31.6752 253.517 31.4258 253.517C31.1161 253.517 30.8164 253.486 30.5117 253.471C30.4645 253.468 30.4172 253.466 30.371 253.464C29.8129 253.43 29.2648 253.368 28.7218 253.281C28.6957 253.276 28.6695 253.273 28.6424 253.268C20.5808 251.936 14.4258 244.941 14.4258 236.488C14.4258 236.485 14.4268 236.482 14.4268 236.479C14.4268 236.476 14.4258 236.473 14.4258 236.469L14.4258 181.199H31.4258C31.7345 181.199 32.0341 181.229 32.3388 181.245Z" fill="#31313C"/>
<path fill-rule="evenodd" clip-rule="evenodd" d="M77.8906 237.667C77.8906 233.037 74.1006 229.282 69.4258 229.282C64.7519 229.282 60.962 233.037 60.962 237.667C60.962 242.298 64.7519 246.052 69.4258 246.052C74.1006 246.052 77.8906 242.298 77.8906 237.667ZM52.4258 237.667C52.4258 228.366 60.0369 220.826 69.4258 220.826H86.4258V237.667C86.4258 246.968 78.8147 254.508 69.4258 254.508C60.0369 254.508 52.4258 246.968 52.4258 237.667Z" fill="#31313C"/>
<path fill-rule="evenodd" clip-rule="evenodd" d="M77.8906 123.741C77.8906 119.111 74.1006 115.356 69.4258 115.356C64.7519 115.356 60.962 119.111 60.962 123.741C60.962 128.372 64.7519 132.127 69.4258 132.127C74.1006 132.127 77.8906 128.372 77.8906 123.741ZM52.4258 123.741C52.4258 114.441 60.0369 106.9 69.4258 106.9H86.4258V123.741C86.4258 133.043 78.8147 140.583 69.4258 140.583C60.0369 140.583 52.4258 133.043 52.4258 123.741Z" fill="#31313C"/>
<path fill-rule="evenodd" clip-rule="evenodd" d="M-6.76245 191.636C-11.4883 191.636 -15.3205 195.391 -15.3205 200.022C-15.3205 204.653 -11.4883 208.407 -6.76245 208.407C-2.03657 208.407 1.79553 204.653 1.79553 200.022C1.79553 195.391 -2.03657 191.636 -6.76245 191.636ZM-45.3839 191.636C-50.1108 191.636 -53.942 195.391 -53.942 200.022C-53.942 204.653 -50.1108 208.407 -45.3839 208.407C-40.657 208.407 -36.8249 204.653 -36.8249 200.022C-36.8249 195.391 -40.657 191.636 -45.3839 191.636ZM10.38 200.926C10.377 200.974 10.376 201.022 10.3729 201.068C10.3373 201.619 10.2773 202.162 10.1899 202.698C10.1848 202.725 10.1807 202.753 10.1757 202.782C10.0811 203.34 9.96009 203.89 9.81165 204.429C9.81165 204.43 9.81168 204.431 9.81067 204.432C7.83003 211.59 1.17028 216.863 -6.76245 216.863H-6.77161H-6.78076H-44.8207H-44.8227H-45.3839C-54.009 216.863 -61.1294 210.633 -62.3647 202.52C-62.3658 202.507 -62.3668 202.495 -62.3688 202.483C-62.4471 201.965 -62.499 201.441 -62.5284 200.91C-62.5295 200.881 -62.5346 200.854 -62.5356 200.825C-62.5366 200.8 -62.5346 200.777 -62.5356 200.753C-62.5468 200.509 -62.5742 200.268 -62.5742 200.022C-62.5742 199.716 -62.5427 199.419 -62.5264 199.116C-62.5244 199.07 -62.5224 199.023 -62.5203 198.976C-62.4858 198.424 -62.4227 197.882 -62.3353 197.344L-62.3241 197.265C-60.9779 189.278 -53.9165 183.181 -45.3839 183.181H-45.3748H-45.3656H10.4258V200.022C10.4258 200.327 10.3963 200.625 10.38 200.926Z" fill="#31313C"/>
<path fill-rule="evenodd" clip-rule="evenodd" d="M-6.57422 169.772C-1.89937 169.772 1.89056 166.018 1.89056 161.386C1.89056 156.756 -1.89937 153.002 -6.57422 153.002C-11.2481 153.002 -15.039 156.756 -15.039 161.386C-15.039 166.018 -11.2481 169.772 -6.57422 169.772ZM-6.57422 144.545C2.8147 144.545 10.4258 152.085 10.4258 161.386V178.227H-6.57422C-15.9631 178.227 -23.5742 170.688 -23.5742 161.386C-23.5742 152.085 -15.9631 144.545 -6.57422 144.545Z" fill="#31313C"/>
<path fill-rule="evenodd" clip-rule="evenodd" d="M146.426 229.376C141.751 229.376 137.961 233.172 137.961 237.854C137.961 242.536 141.751 246.332 146.426 246.332C151.1 246.332 154.89 242.536 154.89 237.854C154.89 233.172 151.1 229.376 146.426 229.376ZM146.426 267.636C141.752 267.636 137.962 271.432 137.962 276.115C137.962 280.797 141.752 284.593 146.426 284.593C151.1 284.593 154.89 280.797 154.89 276.115C154.89 271.432 151.1 267.636 146.426 267.636ZM146.426 220.826H163.426V276.097C163.426 276.1 163.425 276.103 163.425 276.106C163.425 276.108 163.426 276.111 163.426 276.115C163.426 284.568 157.271 291.562 149.209 292.896C149.182 292.9 149.156 292.903 149.129 292.908C148.587 292.994 148.039 293.056 147.481 293.09C147.434 293.093 147.387 293.095 147.34 293.097C147.035 293.113 146.734 293.143 146.426 293.143C146.176 293.143 145.935 293.116 145.689 293.105C145.664 293.105 145.639 293.107 145.614 293.106C145.586 293.105 145.559 293.1 145.53 293.098C144.993 293.07 144.464 293.018 143.942 292.941C143.93 292.939 143.917 292.938 143.905 292.936C135.716 291.713 129.426 284.659 129.426 276.115V275.558V275.557V237.872C129.426 237.869 129.427 237.866 129.427 237.863C129.427 237.859 129.426 237.857 129.426 237.854C129.426 229.995 134.748 223.397 141.974 221.436C141.975 221.435 141.976 221.434 141.977 221.434C142.522 221.287 143.076 221.167 143.64 221.073C143.669 221.069 143.697 221.065 143.725 221.06C144.266 220.974 144.813 220.913 145.369 220.878C145.417 220.876 145.465 220.875 145.513 220.872C145.817 220.856 146.117 220.826 146.426 220.826Z" fill="#31313C"/>
<path fill-rule="evenodd" clip-rule="evenodd" d="M137.961 389.237C137.961 393.868 141.751 397.621 146.426 397.621C151.1 397.621 154.891 393.868 154.891 389.237C154.891 384.606 151.1 380.852 146.426 380.852C141.751 380.852 137.961 384.606 137.961 389.237ZM129.426 389.237C129.426 379.936 137.037 372.396 146.426 372.396H163.426V389.237C163.426 398.538 155.815 406.078 146.426 406.078C137.037 406.078 129.426 398.538 129.426 389.237Z" fill="#31313C"/>
<path fill-rule="evenodd" clip-rule="evenodd" d="M154.89 350.414C154.89 345.731 151.1 341.936 146.426 341.936C141.751 341.936 137.961 345.731 137.961 350.414C137.961 355.095 141.751 358.892 146.426 358.892C151.1 358.892 154.89 355.095 154.89 350.414ZM154.89 312.153C154.89 307.471 151.1 303.674 146.426 303.674C141.752 303.674 137.962 307.471 137.962 312.153C137.962 316.836 141.752 320.631 146.426 320.631C151.1 320.631 154.89 316.836 154.89 312.153ZM145.513 367.396C145.465 367.393 145.417 367.392 145.369 367.389C144.813 367.354 144.266 367.293 143.725 367.207C143.697 367.203 143.669 367.199 143.64 367.195C143.076 367.101 142.522 366.981 141.977 366.833C141.976 366.833 141.975 366.832 141.974 366.832C134.748 364.87 129.426 358.272 129.426 350.414C129.426 350.411 129.427 350.408 129.427 350.405C129.427 350.402 129.426 350.399 129.426 350.396V312.711V312.709V312.153C129.426 303.609 135.716 296.555 143.905 295.332C143.917 295.33 143.93 295.328 143.942 295.326C144.464 295.25 144.993 295.197 145.53 295.17C145.559 295.168 145.586 295.163 145.614 295.161C145.639 295.16 145.664 295.163 145.689 295.162C145.935 295.151 146.176 295.125 146.426 295.125C146.734 295.125 147.035 295.154 147.34 295.171C147.387 295.174 147.434 295.175 147.481 295.178C148.039 295.212 148.587 295.273 149.129 295.359C149.156 295.364 149.182 295.367 149.209 295.372C157.271 296.705 163.426 303.7 163.426 312.153C163.426 312.156 163.425 312.159 163.425 312.162C163.425 312.164 163.426 312.168 163.426 312.171V367.442H146.426C146.117 367.442 145.817 367.412 145.513 367.396Z" fill="#31313C"/>
<path fill-rule="evenodd" clip-rule="evenodd" d="M185.426 229.281C180.752 229.281 176.962 233.037 176.962 237.667C176.962 242.297 180.752 246.052 185.426 246.052C190.101 246.052 193.891 242.297 193.891 237.667C193.891 233.037 190.101 229.281 185.426 229.281ZM185.426 254.508C176.037 254.508 168.426 246.968 168.426 237.667V220.826H185.426C194.815 220.826 202.426 228.366 202.426 237.667C202.426 246.968 194.815 254.508 185.426 254.508Z" fill="#31313C"/>
<path fill-rule="evenodd" clip-rule="evenodd" d="M108.426 115.356C103.751 115.356 99.9612 119.111 99.9612 123.742C99.9612 128.372 103.751 132.127 108.426 132.127C113.1 132.127 116.89 128.372 116.89 123.742C116.89 119.111 113.1 115.356 108.426 115.356ZM108.426 140.583C99.0371 140.583 91.4258 133.043 91.4258 123.742V106.9H108.426C117.815 106.9 125.426 114.44 125.426 123.742C125.426 133.043 117.815 140.583 108.426 140.583Z" fill="#31313C"/>
<path fill-rule="evenodd" clip-rule="evenodd" d="M31.2375 418.497C26.5107 418.497 22.6785 422.251 22.6785 426.882C22.6785 431.513 26.5107 435.267 31.2375 435.267C35.9634 435.267 39.7955 431.513 39.7955 426.882C39.7955 422.251 35.9634 418.497 31.2375 418.497ZM-7.38391 418.497C-12.1118 418.497 -15.943 422.251 -15.943 426.882C-15.943 431.513 -12.1118 435.266 -7.38391 435.266C-2.65803 435.266 1.17511 431.513 1.17511 426.882C1.17511 422.251 -2.65803 418.497 -7.38391 418.497ZM48.38 427.786C48.377 427.834 48.375 427.881 48.3729 427.929C48.3373 428.479 48.2774 429.021 48.1889 429.557C48.1848 429.585 48.1807 429.613 48.1757 429.641C48.0811 430.2 47.9601 430.749 47.8116 431.289C47.8116 431.29 47.8117 431.291 47.8107 431.292C45.83 438.45 39.1703 443.723 31.2375 443.723H31.2365C31.2345 443.723 31.2314 443.723 31.2284 443.723C31.2253 443.723 31.2223 443.723 31.2182 443.723H-6.82068H-6.82269H-7.38391C-16.009 443.723 -23.1294 437.493 -24.3647 429.379C-24.3658 429.367 -24.3668 429.355 -24.3699 429.342C-24.4482 428.825 -24.499 428.301 -24.5284 427.769C-24.5295 427.741 -24.5356 427.713 -24.5356 427.686C-24.5366 427.661 -24.5356 427.637 -24.5356 427.613C-24.5468 427.369 -24.5742 427.129 -24.5742 426.882C-24.5742 426.576 -24.5427 426.278 -24.5275 425.976C-24.5244 425.929 -24.5224 425.883 -24.5203 425.837C-24.4858 425.285 -24.4237 424.741 -24.3363 424.204C-24.3312 424.178 -24.3282 424.151 -24.3241 424.124C-22.9779 416.138 -15.9175 410.041 -7.38391 410.041C-7.38086 410.041 -7.37781 410.042 -7.37476 410.042C-7.37272 410.042 -7.36967 410.041 -7.3656 410.041H48.4258V426.882C48.4258 427.187 48.3963 427.485 48.38 427.786Z" fill="#31313C"/>
<path fill-rule="evenodd" clip-rule="evenodd" d="M23.056 312.957C23.056 317.587 26.8892 321.341 31.614 321.341C36.3409 321.341 40.1731 317.587 40.1731 312.957C40.1731 308.326 36.3409 304.571 31.614 304.571C26.8892 304.571 23.056 308.326 23.056 312.957ZM61.6775 312.957C61.6775 317.587 65.5096 321.341 70.2355 321.341C74.9634 321.341 78.7946 317.587 78.7946 312.957C78.7946 308.326 74.9634 304.571 70.2355 304.571C65.5096 304.571 61.6775 308.326 61.6775 312.957ZM14.4258 312.957V296.115H70.2182C70.2213 296.115 70.2243 296.116 70.2274 296.116C70.2294 296.116 70.2324 296.115 70.2355 296.115C78.7691 296.115 85.8295 302.214 87.1757 310.2C87.1797 310.226 87.1828 310.252 87.1879 310.279C87.2753 310.816 87.3373 311.359 87.3719 311.912C87.3749 311.958 87.376 312.004 87.379 312.05C87.3943 312.352 87.4258 312.65 87.4258 312.957C87.4258 313.204 87.3983 313.443 87.3871 313.687C87.3871 313.712 87.3892 313.735 87.3882 313.76C87.3872 313.788 87.382 313.816 87.38 313.844C87.3505 314.375 87.2997 314.899 87.2214 315.417C87.2194 315.429 87.2173 315.442 87.2163 315.454C85.982 323.567 78.8616 329.798 70.2355 329.798H69.6743H69.6732H31.6334C31.6303 329.798 31.6272 329.797 31.6232 329.797C31.6201 329.797 31.6181 329.798 31.6151 329.798H31.614C23.6813 329.798 17.0215 324.525 15.0409 317.367C15.0409 317.365 15.0399 317.364 15.0399 317.363C14.8915 316.824 14.7705 316.275 14.6759 315.715C14.6708 315.687 14.6677 315.659 14.6627 315.633C14.5752 315.097 14.5142 314.555 14.4786 314.003C14.4766 313.956 14.4746 313.908 14.4725 313.861C14.4552 313.56 14.4258 313.262 14.4258 312.957Z" fill="#31313C"/>
<path fill-rule="evenodd" clip-rule="evenodd" d="M39.8903 389.049C39.8903 384.367 36.1003 380.571 31.4263 380.571C26.7513 380.571 22.9612 384.367 22.9612 389.049C22.9612 393.731 26.7513 397.527 31.4263 397.527C36.1003 397.527 39.8903 393.731 39.8903 389.049ZM39.8903 350.789C39.8903 346.106 36.1003 342.31 31.4263 342.31C26.7513 342.31 22.9612 346.106 22.9612 350.789C22.9612 355.471 26.7513 359.268 31.4263 359.268C36.1003 359.268 39.8903 355.471 39.8903 350.789ZM30.5132 406.032C30.4649 406.029 30.4166 406.028 30.3694 406.025C29.8133 405.99 29.2663 405.93 28.7242 405.843C28.6971 405.838 28.669 405.835 28.6408 405.83C28.0767 405.736 27.5216 405.617 26.9775 405.469C26.9765 405.469 26.9755 405.469 26.9735 405.468C19.7483 403.505 14.4258 396.908 14.4258 389.049V389.04V389.031L14.4258 351.347V351.346V350.789C14.4258 342.244 20.7147 335.19 28.9053 333.968C28.9173 333.966 28.9304 333.965 28.9415 333.963C29.4644 333.885 29.9933 333.834 30.5293 333.805C30.5595 333.803 30.5866 333.798 30.6147 333.797C30.6399 333.796 30.663 333.798 30.6882 333.797C30.9345 333.786 31.1769 333.76 31.4263 333.76C31.735 333.76 32.0357 333.79 32.3404 333.806C32.3877 333.81 32.4339 333.811 32.4811 333.814C33.0382 333.848 33.5863 333.908 34.1293 333.995C34.1555 334 34.1826 334.003 34.2098 334.008C42.2706 335.341 48.4258 342.336 48.4258 350.789V350.798V350.807V406.078H31.4263C31.1176 406.078 30.8179 406.048 30.5132 406.032Z" fill="#31313C"/>
<path fill-rule="evenodd" clip-rule="evenodd" d="M1.88959 276.116C1.88959 271.433 -1.90038 267.637 -6.57422 267.637C-11.2491 267.637 -15.039 271.433 -15.039 276.116C-15.039 280.797 -11.2491 284.594 -6.57422 284.594C-1.90038 284.594 1.88959 280.797 1.88959 276.116ZM1.88959 237.855C1.88959 233.171 -1.90038 229.376 -6.57422 229.376C-11.2481 229.376 -15.038 233.171 -15.038 237.855C-15.038 242.537 -11.2481 246.333 -6.57422 246.333C-1.90038 246.333 1.88959 242.537 1.88959 237.855ZM-7.48724 293.097C-7.5345 293.095 -7.58278 293.093 -7.63104 293.091C-8.18712 293.056 -8.73415 292.995 -9.27515 292.909C-9.3033 292.905 -9.33146 292.901 -9.35962 292.896C-9.92374 292.802 -10.4778 292.682 -11.0228 292.535C-11.0238 292.535 -11.0248 292.534 -11.0258 292.534C-18.2518 290.572 -23.5742 283.974 -23.5742 276.116V276.115C-23.5742 276.113 -23.5732 276.11 -23.5732 276.107C-23.5732 276.104 -23.5742 276.1 -23.5742 276.097L-23.5742 238.412V238.411V237.855C-23.5742 229.31 -17.2844 222.257 -9.09515 221.033C-9.08309 221.032 -9.06999 221.03 -9.05792 221.028C-8.53604 220.95 -8.00712 220.9 -7.47015 220.871C-7.44099 220.869 -7.41384 220.864 -7.38568 220.864C-7.36054 220.863 -7.33642 220.864 -7.31128 220.864C-7.06492 220.853 -6.8236 220.826 -6.57422 220.826C-6.26551 220.826 -5.96484 220.857 -5.66016 220.872C-5.61289 220.875 -5.56566 220.876 -5.51941 220.879C-4.96132 220.913 -4.41327 220.975 -3.87128 221.061C-3.84413 221.066 -3.81798 221.069 -3.79083 221.074C4.27074 222.407 10.4258 229.401 10.4258 237.855C10.4258 237.858 10.4248 237.861 10.4248 237.863C10.4248 237.866 10.4258 237.869 10.4258 237.872V293.143H-6.57422C-6.88293 293.143 -7.18256 293.114 -7.48724 293.097Z" fill="#31313C"/>
<path fill-rule="evenodd" clip-rule="evenodd" d="M69.4258 418.497C64.7509 418.497 60.961 422.251 60.961 426.882C60.961 431.513 64.7509 435.267 69.4258 435.267C74.0996 435.267 77.8906 431.513 77.8906 426.882C77.8906 422.251 74.0996 418.497 69.4258 418.497ZM69.4258 443.723C60.0369 443.723 52.4258 436.183 52.4258 426.882V410.041H69.4258C78.8147 410.041 86.4258 417.581 86.4258 426.882C86.4258 436.183 78.8147 443.723 69.4258 443.723Z" fill="#31313C"/>
<path fill-rule="evenodd" clip-rule="evenodd" d="M69.4258 153.095C64.7519 153.095 60.962 156.891 60.962 161.573C60.962 166.256 64.7519 170.052 69.4258 170.052C74.1006 170.052 77.8906 166.256 77.8906 161.573C77.8906 156.891 74.1006 153.095 69.4258 153.095ZM69.4258 191.355C64.7519 191.355 60.962 195.152 60.962 199.833C60.962 204.517 64.7519 208.312 69.4258 208.312C74.1006 208.312 77.8906 204.517 77.8906 199.833C77.8906 195.152 74.1006 191.355 69.4258 191.355ZM69.4258 144.545H86.4258V199.816C86.4258 199.819 86.4248 199.822 86.4248 199.825C86.4248 199.827 86.4258 199.83 86.4258 199.833C86.4258 208.287 80.2707 215.282 72.2092 216.615C72.182 216.619 72.1559 216.622 72.1287 216.627C71.5867 216.714 71.0387 216.775 70.4806 216.81C70.4343 216.813 70.3871 216.814 70.3408 216.817C70.0351 216.832 69.7355 216.863 69.4258 216.863C69.1774 216.863 68.9351 216.836 68.6887 216.825C68.6636 216.825 68.6404 216.827 68.6153 216.826C68.5861 216.825 68.559 216.82 68.5298 216.818C67.9929 216.788 67.465 216.738 66.9421 216.661C66.93 216.658 66.9179 216.656 66.9048 216.655C58.7156 215.432 52.4268 208.379 52.4268 199.833V199.277L52.4258 199.276V161.592C52.4258 161.589 52.4268 161.586 52.4268 161.582V161.574V161.573C52.4268 153.714 57.7482 147.117 64.9742 145.155C64.9752 145.155 64.9762 145.154 64.9782 145.154C65.5222 145.007 66.0763 144.887 66.6404 144.793C66.6695 144.788 66.6967 144.785 66.7249 144.78C67.2658 144.693 67.8129 144.633 68.369 144.598C68.4172 144.596 68.4655 144.594 68.5128 144.592C68.8174 144.574 69.1171 144.545 69.4258 144.545Z" fill="#31313C"/>
<path fill-rule="evenodd" clip-rule="evenodd" d="M99.056 161.387C99.056 166.017 102.888 169.772 107.614 169.772C112.341 169.772 116.173 166.017 116.173 161.387C116.173 156.756 112.341 153.001 107.614 153.001C102.888 153.001 99.056 156.756 99.056 161.387ZM137.676 161.387C137.676 166.017 141.509 169.772 146.235 169.772C150.962 169.772 154.795 166.017 154.795 161.387C154.795 156.756 150.962 153.001 146.235 153.001C141.509 153.001 137.676 156.756 137.676 161.387ZM90.4258 161.387V144.545H146.217H146.226H146.235C154.769 144.545 161.829 150.643 163.176 158.629C163.18 158.656 163.183 158.682 163.188 158.709C163.275 159.246 163.337 159.789 163.372 160.342C163.374 160.388 163.376 160.434 163.379 160.48C163.394 160.783 163.426 161.08 163.426 161.387C163.426 161.633 163.398 161.873 163.387 162.117C163.387 162.142 163.388 162.165 163.387 162.19C163.387 162.219 163.381 162.246 163.38 162.274C163.351 162.805 163.3 163.329 163.221 163.847C163.218 163.859 163.217 163.871 163.216 163.884C161.981 171.997 154.861 178.227 146.235 178.227H145.674H145.672H107.633H107.623H107.615H107.614C99.6813 178.227 93.0215 172.955 91.0409 165.797C91.0399 165.796 91.0399 165.794 91.0399 165.793C90.8915 165.254 90.7705 164.705 90.6759 164.146C90.6708 164.117 90.6668 164.091 90.6617 164.063C90.5742 163.527 90.5142 162.985 90.4786 162.433C90.4766 162.386 90.4746 162.338 90.4716 162.29C90.4553 161.99 90.4258 161.693 90.4258 161.387Z" fill="#31313C"/>
<path fill-rule="evenodd" clip-rule="evenodd" d="M-51.9431 86.0966C-51.9431 90.7278 -48.111 94.4823 -43.3852 94.4823C-38.6594 94.4823 -34.8273 90.7278 -34.8273 86.0966C-34.8273 81.4665 -38.6594 77.7119 -43.3852 77.7119C-48.111 77.7119 -51.9431 81.4665 -51.9431 86.0966ZM-13.3232 86.0966C-13.3232 90.7268 -9.49111 94.4813 -4.76428 94.4813C-0.0374527 94.4813 3.79364 90.7268 3.79364 86.0966C3.79364 81.4665 -0.0374527 77.7119 -4.76428 77.7119C-9.49111 77.7119 -13.3232 81.4665 -13.3232 86.0966ZM-60.5742 86.0966V69.2555H-4.78259C-4.77954 69.2555 -4.77649 69.2565 -4.77344 69.2565C-4.77039 69.2565 -4.76835 69.2555 -4.76428 69.2555C3.76821 69.2555 10.8295 75.353 12.1757 83.3392C12.1787 83.3661 12.1817 83.392 12.1868 83.4189C12.2743 83.9559 12.3363 84.4988 12.3708 85.0517C12.3739 85.0975 12.376 85.1443 12.378 85.1911C12.3943 85.4929 12.4258 85.7898 12.4258 86.0966C12.4258 86.3437 12.3973 86.5827 12.3871 86.8268C12.3861 86.8517 12.3882 86.8756 12.3871 86.9005C12.3861 86.9284 12.3811 86.9553 12.379 86.9842C12.3506 87.5161 12.2987 88.0401 12.2204 88.5571C12.2184 88.5691 12.2174 88.582 12.2153 88.594C10.981 96.7067 3.86073 102.938 -4.76428 102.938H-5.3255H-5.32751H-43.3669C-43.3699 102.938 -43.373 102.937 -43.376 102.937C-43.3791 102.937 -43.3821 102.938 -43.3852 102.938C-51.3188 102.938 -57.9785 97.665 -59.9581 90.5066C-59.9591 90.5056 -59.9591 90.5047 -59.9591 90.5037C-60.1086 89.9637 -60.2295 89.4148 -60.3241 88.856C-60.3282 88.8281 -60.3323 88.8002 -60.3373 88.7723C-60.4248 88.2364 -60.4847 87.6944 -60.5203 87.1436C-60.5234 87.0958 -60.5244 87.0479 -60.5275 87.0011C-60.5437 86.6993 -60.5742 86.4024 -60.5742 86.0966Z" fill="#31313C"/>
<path fill-rule="evenodd" clip-rule="evenodd" d="M-45.3849 397.622C-40.6591 397.622 -36.8269 393.867 -36.8269 389.237C-36.8269 384.606 -40.6591 380.852 -45.3849 380.852C-50.1108 380.852 -53.943 384.606 -53.943 389.237C-53.943 393.867 -50.1108 397.622 -45.3849 397.622ZM-6.76349 397.622C-2.03659 397.622 1.79456 393.867 1.79456 389.237C1.79456 384.606 -2.03659 380.852 -6.76349 380.852C-11.4904 380.852 -15.3225 384.606 -15.3225 389.237C-15.3225 393.867 -11.4904 397.622 -6.76349 397.622ZM-62.5275 388.332C-62.5244 388.285 -62.5234 388.238 -62.5214 388.19C-62.4858 387.639 -62.4248 387.097 -62.3373 386.561C-62.3323 386.534 -62.3292 386.506 -62.3241 386.478C-62.2295 385.918 -62.1085 385.37 -61.9601 384.83C-61.9601 384.829 -61.9591 384.828 -61.9591 384.827C-59.9785 377.669 -53.3187 372.397 -45.3849 372.397H-45.3758C-45.3727 372.397 -45.3697 372.396 -45.3666 372.396H-7.32678L-7.32574 372.397H-6.76349C1.86165 372.397 8.98196 378.626 10.2163 386.74L10.2214 386.776C10.2997 387.294 10.3515 387.818 10.38 388.349C10.382 388.378 10.3872 388.406 10.3882 388.433C10.3892 388.458 10.3872 388.482 10.3882 388.506C10.3984 388.75 10.4258 388.99 10.4258 389.237C10.4258 389.543 10.3953 389.841 10.379 390.143C10.376 390.19 10.3749 390.235 10.3719 390.281C10.3373 390.834 10.2753 391.378 10.1879 391.915C10.1828 391.941 10.1797 391.968 10.1757 391.994C8.82948 399.981 1.76913 406.078 -6.76349 406.078C-6.76756 406.078 -6.76959 406.077 -6.77264 406.077C-6.7757 406.077 -6.77875 406.078 -6.7818 406.078H-62.5742V389.237C-62.5742 388.931 -62.5448 388.634 -62.5275 388.332Z" fill="#31313C"/>
<path fill-rule="evenodd" clip-rule="evenodd" d="M-53.944 350.601C-53.944 355.232 -50.1119 358.986 -45.386 358.986C-40.6601 358.986 -36.8269 355.232 -36.8269 350.601C-36.8269 345.97 -40.6601 342.217 -45.386 342.217C-50.1119 342.217 -53.944 345.97 -53.944 350.601ZM-15.3235 350.601C-15.3235 355.232 -11.4914 358.986 -6.76453 358.986C-2.03763 358.986 1.79352 355.232 1.79352 350.601C1.79352 345.97 -2.03763 342.217 -6.76453 342.217C-11.4914 342.217 -15.3235 345.97 -15.3235 350.601ZM-62.5742 350.601V333.76H-6.78284C-6.77979 333.76 -6.77571 333.761 -6.77368 333.761C-6.77063 333.761 -6.76758 333.76 -6.76453 333.76C1.76809 333.76 8.82948 339.858 10.1757 347.844C10.1797 347.871 10.1828 347.898 10.1868 347.924C10.2753 348.461 10.3373 349.004 10.3719 349.556C10.3739 349.603 10.376 349.649 10.379 349.695C10.3943 349.998 10.4258 350.295 10.4258 350.601C10.4258 350.848 10.3983 351.088 10.3871 351.331C10.3861 351.356 10.3882 351.38 10.3871 351.404C10.3861 351.433 10.381 351.46 10.38 351.489C10.3505 352.021 10.2987 352.545 10.2204 353.062C10.2184 353.074 10.2173 353.087 10.2163 353.099C8.98095 361.212 1.86061 367.442 -6.76453 367.442H-7.32574C-7.32676 367.442 -7.32674 367.442 -7.32776 367.442H-45.3666C-45.3707 367.442 -45.3738 367.442 -45.3768 367.442H-45.386C-53.3187 367.442 -59.9785 362.17 -61.9591 355.011C-61.9601 355.01 -61.9601 355.009 -61.9601 355.007C-62.1085 354.468 -62.2295 353.919 -62.3241 353.361C-62.3292 353.333 -62.3332 353.305 -62.3383 353.277C-62.4258 352.741 -62.4858 352.199 -62.5214 351.648C-62.5234 351.6 -62.5254 351.554 -62.5284 351.506C-62.5447 351.204 -62.5742 350.907 -62.5742 350.601Z" fill="#31313C"/>
<path fill-rule="evenodd" clip-rule="evenodd" d="M291.056 312.956C291.056 317.588 294.888 321.341 299.614 321.341C304.341 321.341 308.173 317.588 308.173 312.956C308.173 308.325 304.341 304.572 299.614 304.572C294.888 304.572 291.056 308.325 291.056 312.956ZM329.676 312.956C329.676 317.588 333.51 321.341 338.235 321.341C342.963 321.341 346.795 317.588 346.795 312.956C346.795 308.325 342.963 304.572 338.235 304.572C333.51 304.572 329.676 308.325 329.676 312.956ZM282.426 312.956V296.115H338.217C338.221 296.115 338.224 296.116 338.226 296.116C338.229 296.116 338.232 296.115 338.235 296.115C346.769 296.115 353.829 302.213 355.176 310.199C355.18 310.226 355.183 310.253 355.188 310.279C355.275 310.816 355.337 311.359 355.372 311.911C355.374 311.958 355.376 312.004 355.379 312.05C355.394 312.353 355.426 312.651 355.426 312.956C355.426 313.203 355.398 313.444 355.387 313.687C355.387 313.712 355.388 313.735 355.387 313.759C355.387 313.788 355.381 313.815 355.38 313.844C355.351 314.376 355.3 314.9 355.221 315.417C355.218 315.429 355.217 315.442 355.216 315.454C353.981 323.568 346.861 329.798 338.235 329.798H337.674C337.673 329.798 337.673 329.798 337.672 329.798H299.633C299.63 329.798 299.626 329.798 299.623 329.798H299.615H299.614C291.681 329.798 285.022 324.525 283.041 317.366C283.04 317.365 283.04 317.363 283.04 317.362C282.891 316.824 282.77 316.275 282.676 315.716C282.671 315.688 282.667 315.66 282.663 315.632C282.574 315.096 282.514 314.554 282.479 314.003C282.477 313.956 282.475 313.909 282.472 313.861C282.455 313.559 282.426 313.262 282.426 312.956Z" fill="#31313C"/>
<path fill-rule="evenodd" clip-rule="evenodd" d="M291.961 274.321C291.961 278.952 295.752 282.706 300.426 282.706C305.1 282.706 308.891 278.952 308.891 274.321C308.891 269.69 305.1 265.935 300.426 265.935C295.752 265.935 291.961 269.69 291.961 274.321ZM317.426 274.321C317.426 283.622 309.815 291.162 300.426 291.162H283.426V274.321C283.426 265.019 291.037 257.48 300.426 257.48C309.815 257.48 317.426 265.019 317.426 274.321Z" fill="#31313C"/>
<path fill-rule="evenodd" clip-rule="evenodd" d="M252.961 388.434C252.961 393.116 256.751 396.912 261.426 396.912C266.1 396.912 269.89 393.116 269.89 388.434C269.89 383.752 266.1 379.956 261.426 379.956C256.751 379.956 252.961 383.752 252.961 388.434ZM252.961 426.694C252.961 431.377 256.751 435.173 261.426 435.173C266.1 435.173 269.89 431.377 269.89 426.694C269.89 422.011 266.1 418.215 261.426 418.215C256.751 418.215 252.961 422.011 252.961 426.694ZM262.338 371.451C262.387 371.454 262.435 371.455 262.482 371.458C263.038 371.493 263.585 371.553 264.127 371.64C264.154 371.645 264.183 371.648 264.212 371.653C264.775 371.746 265.33 371.866 265.874 372.014C265.875 372.014 265.877 372.014 265.878 372.015C273.103 373.978 278.426 380.575 278.426 388.434V388.443V388.452V426.136V426.137V426.694C278.426 435.239 272.137 442.292 263.947 443.515C263.934 443.517 263.922 443.518 263.91 443.521C263.387 443.598 262.858 443.649 262.322 443.677C262.292 443.679 262.266 443.685 262.237 443.686C262.212 443.687 262.189 443.685 262.163 443.686C261.917 443.697 261.675 443.723 261.426 443.723C261.117 443.723 260.816 443.693 260.511 443.676C260.464 443.673 260.418 443.672 260.37 443.669C259.813 443.635 259.265 443.575 258.722 443.488C258.696 443.483 258.669 443.48 258.642 443.475C250.581 442.142 244.426 435.147 244.426 426.694V426.685V426.676V371.405H261.426C261.734 371.405 262.034 371.435 262.338 371.451Z" fill="#31313C"/>
<path fill-rule="evenodd" clip-rule="evenodd" d="M346.796 388.246C346.796 383.615 342.963 379.861 338.238 379.861C333.512 379.861 329.679 383.615 329.679 388.246C329.679 392.877 333.512 396.632 338.238 396.632C342.963 396.632 346.796 392.877 346.796 388.246ZM308.175 388.246C308.175 383.616 304.343 379.861 299.616 379.861C294.889 379.861 291.058 383.616 291.058 388.246C291.058 392.877 294.889 396.632 299.616 396.632C304.343 396.632 308.175 392.877 308.175 388.246ZM355.426 388.246V405.087H299.634C299.631 405.087 299.627 405.087 299.625 405.087C299.622 405.087 299.619 405.087 299.616 405.087C291.083 405.087 284.022 398.99 282.676 391.004C282.673 390.977 282.669 390.951 282.665 390.924C282.577 390.387 282.514 389.844 282.48 389.291C282.478 389.245 282.476 389.199 282.474 389.153C282.457 388.851 282.426 388.553 282.426 388.246C282.426 387.999 282.453 387.76 282.464 387.516C282.465 387.491 282.463 387.467 282.464 387.443C282.465 387.414 282.471 387.387 282.473 387.359C282.501 386.828 282.553 386.303 282.631 385.786C282.633 385.774 282.634 385.761 282.636 385.749C283.871 377.636 290.991 371.405 299.616 371.405H300.177H300.179H338.219C338.222 371.405 338.225 371.406 338.228 371.406C338.231 371.406 338.234 371.405 338.238 371.405C346.17 371.405 352.83 376.678 354.811 383.836C354.812 383.837 354.812 383.839 354.812 383.84C354.96 384.379 355.081 384.928 355.176 385.487C355.181 385.515 355.185 385.544 355.19 385.57C355.277 386.106 355.337 386.648 355.373 387.2C355.376 387.247 355.377 387.295 355.38 387.342C355.396 387.643 355.426 387.941 355.426 388.246Z" fill="#31313C"/>
<path fill-rule="evenodd" clip-rule="evenodd" d="M300.426 435.267C305.101 435.267 308.891 431.513 308.891 426.883C308.891 422.251 305.101 418.497 300.426 418.497C295.752 418.497 291.962 422.251 291.962 426.883C291.962 431.513 295.752 435.267 300.426 435.267ZM300.426 410.041C309.815 410.041 317.426 417.581 317.426 426.883V443.723H300.426C291.037 443.723 283.426 436.183 283.426 426.883C283.426 417.581 291.037 410.041 300.426 410.041Z" fill="#31313C"/>
<path fill-rule="evenodd" clip-rule="evenodd" d="M223.238 380.851C218.512 380.851 214.678 384.606 214.678 389.236C214.678 393.867 218.512 397.621 223.238 397.621C227.963 397.621 231.796 393.867 231.796 389.236C231.796 384.606 227.963 380.851 223.238 380.851ZM184.616 380.851C179.889 380.851 176.057 384.606 176.057 389.236C176.057 393.867 179.889 397.621 184.616 397.621C189.343 397.621 193.175 393.867 193.175 389.236C193.175 384.606 189.343 380.851 184.616 380.851ZM240.38 390.141C240.377 390.188 240.375 390.236 240.373 390.283C240.337 390.834 240.277 391.377 240.19 391.912C240.185 391.939 240.181 391.967 240.176 391.995C240.081 392.555 239.96 393.104 239.812 393.643C239.812 393.644 239.812 393.645 239.811 393.647C237.83 400.805 231.17 406.078 223.238 406.078H223.237C223.234 406.078 223.231 406.077 223.228 406.077C223.225 406.077 223.222 406.078 223.218 406.078H185.179H185.177H184.616C175.991 406.078 168.871 399.847 167.635 391.733C167.634 391.722 167.633 391.709 167.631 391.697C167.553 391.179 167.501 390.655 167.472 390.124C167.471 390.095 167.464 390.068 167.464 390.04C167.463 390.015 167.464 389.992 167.464 389.967C167.453 389.723 167.426 389.484 167.426 389.236C167.426 388.93 167.457 388.632 167.473 388.33C167.476 388.283 167.478 388.238 167.48 388.192C167.514 387.639 167.576 387.096 167.664 386.558C167.669 386.532 167.672 386.505 167.676 386.479C169.022 378.493 176.082 372.396 184.616 372.396C184.619 372.396 184.622 372.396 184.625 372.396C184.627 372.396 184.63 372.396 184.634 372.396H240.426V389.236C240.426 389.542 240.396 389.839 240.38 390.141Z" fill="#31313C"/>
<path fill-rule="evenodd" clip-rule="evenodd" d="M193.796 426.882C193.796 422.25 189.962 418.497 185.237 418.497C180.511 418.497 176.678 422.25 176.678 426.882C176.678 431.513 180.511 435.266 185.237 435.266C189.962 435.266 193.796 431.513 193.796 426.882ZM155.174 426.882C155.174 422.251 151.342 418.497 146.616 418.497C141.888 418.497 138.057 422.251 138.057 426.882C138.057 431.513 141.888 435.266 146.616 435.266C151.342 435.266 155.174 431.513 155.174 426.882ZM202.426 426.882V443.723H146.633C146.63 443.723 146.627 443.723 146.624 443.723C146.622 443.723 146.619 443.723 146.616 443.723C138.082 443.723 131.022 437.625 129.676 429.639C129.672 429.612 129.669 429.586 129.664 429.559C129.576 429.022 129.514 428.48 129.48 427.927C129.477 427.881 129.476 427.834 129.473 427.788C129.456 427.485 129.426 427.187 129.426 426.882C129.426 426.635 129.453 426.396 129.464 426.151C129.464 426.127 129.462 426.103 129.463 426.079C129.464 426.05 129.47 426.023 129.472 425.994C129.5 425.463 129.552 424.938 129.63 424.421C129.632 424.409 129.634 424.396 129.635 424.384C130.87 416.272 137.99 410.041 146.616 410.041H147.177H147.178H185.218C185.221 410.041 185.224 410.042 185.227 410.042C185.231 410.042 185.233 410.041 185.237 410.041C193.17 410.041 199.83 415.313 201.811 422.472C201.811 422.473 201.812 422.475 201.812 422.476C201.96 423.015 202.081 423.563 202.176 424.122C202.181 424.15 202.184 424.179 202.189 424.206C202.276 424.742 202.337 425.284 202.373 425.836C202.375 425.883 202.376 425.93 202.379 425.977C202.396 426.279 202.426 426.577 202.426 426.882Z" fill="#31313C"/>
<path fill-rule="evenodd" clip-rule="evenodd" d="M185.426 303.674C180.751 303.674 176.961 307.471 176.961 312.152C176.961 316.835 180.751 320.63 185.426 320.63C190.1 320.63 193.891 316.835 193.891 312.152C193.891 307.471 190.1 303.674 185.426 303.674ZM185.426 341.935C180.752 341.935 176.962 345.73 176.962 350.413C176.962 355.095 180.752 358.892 185.426 358.892C190.1 358.892 193.891 355.095 193.891 350.413C193.891 345.73 190.1 341.935 185.426 341.935ZM185.426 295.125H202.426V350.395C202.426 350.398 202.425 350.401 202.425 350.404C202.425 350.407 202.426 350.41 202.426 350.413C202.426 358.866 196.271 365.861 188.209 367.195C188.182 367.199 188.156 367.202 188.129 367.207C187.587 367.293 187.039 367.354 186.481 367.388C186.434 367.391 186.387 367.393 186.34 367.395C186.035 367.411 185.735 367.442 185.426 367.442C185.176 367.442 184.935 367.415 184.689 367.404C184.664 367.403 184.639 367.405 184.614 367.404C184.586 367.403 184.559 367.398 184.53 367.396C183.993 367.368 183.464 367.316 182.942 367.24C182.93 367.238 182.917 367.236 182.905 367.234C174.716 366.011 168.426 358.957 168.426 350.413V349.857V349.855V312.17C168.426 312.167 168.427 312.164 168.427 312.161C168.427 312.158 168.426 312.155 168.426 312.152C168.426 304.294 173.748 297.696 180.974 295.734C180.975 295.733 180.976 295.733 180.978 295.733C181.522 295.586 182.076 295.466 182.64 295.372C182.669 295.367 182.697 295.363 182.725 295.358C183.266 295.272 183.813 295.212 184.369 295.177C184.417 295.175 184.465 295.173 184.513 295.17C184.817 295.154 185.117 295.125 185.426 295.125Z" fill="#31313C"/>
<path fill-rule="evenodd" clip-rule="evenodd" d="M231.89 350.601C231.89 345.97 228.1 342.217 223.426 342.217C218.751 342.217 214.961 345.97 214.961 350.601C214.961 355.232 218.751 358.986 223.426 358.986C228.1 358.986 231.89 355.232 231.89 350.601ZM206.426 350.601C206.426 341.3 214.037 333.76 223.426 333.76H240.426V350.601C240.426 359.902 232.815 367.442 223.426 367.442C214.037 367.442 206.426 359.902 206.426 350.601Z" fill="#31313C"/>
<path fill-rule="evenodd" clip-rule="evenodd" d="M214.961 426.882C214.961 431.513 218.751 435.266 223.426 435.266C228.1 435.266 231.89 431.513 231.89 426.882C231.89 422.25 228.1 418.497 223.426 418.497C218.751 418.497 214.961 422.25 214.961 426.882ZM240.426 426.882C240.426 436.183 232.815 443.723 223.426 443.723H206.426V426.882C206.426 417.58 214.037 410.041 223.426 410.041C232.815 410.041 240.426 417.58 240.426 426.882Z" fill="#31313C"/>
<path fill-rule="evenodd" clip-rule="evenodd" d="M223.425 321.342C228.1 321.342 231.89 317.588 231.89 312.957C231.89 308.326 228.1 304.572 223.425 304.572C218.751 304.572 214.961 308.326 214.961 312.957C214.961 317.588 218.751 321.342 223.425 321.342ZM223.425 296.115C232.814 296.115 240.426 303.656 240.426 312.957V329.798H223.425C214.036 329.798 206.426 322.258 206.426 312.957C206.426 303.656 214.036 296.115 223.425 296.115Z" fill="#31313C"/>
<path fill-rule="evenodd" clip-rule="evenodd" d="M261.426 284.594C266.1 284.594 269.89 280.797 269.89 276.116C269.89 271.434 266.1 267.637 261.426 267.637C256.751 267.637 252.961 271.434 252.961 276.116C252.961 280.797 256.751 284.594 261.426 284.594ZM261.426 246.334C266.1 246.334 269.89 242.538 269.89 237.855C269.89 233.172 266.1 229.377 261.426 229.377C256.751 229.377 252.961 233.172 252.961 237.855C252.961 242.538 256.751 246.334 261.426 246.334ZM261.426 293.143H244.426V237.873C244.426 237.87 244.427 237.866 244.427 237.864C244.427 237.862 244.426 237.858 244.426 237.855C244.426 229.402 250.581 222.407 258.642 221.074L258.723 221.062C259.265 220.975 259.813 220.913 260.371 220.879C260.417 220.877 260.464 220.875 260.511 220.873C260.816 220.857 261.116 220.826 261.426 220.826C261.675 220.826 261.916 220.853 262.163 220.864C262.188 220.865 262.211 220.863 262.236 220.864C262.265 220.865 262.293 220.87 262.322 220.871C262.859 220.9 263.387 220.951 263.909 221.029C263.922 221.031 263.934 221.032 263.947 221.033C272.136 222.257 278.426 229.311 278.426 237.855V238.411V238.413V276.098C278.426 276.101 278.425 276.104 278.425 276.107C278.425 276.11 278.426 276.113 278.426 276.116C278.426 283.974 273.103 290.572 265.877 292.534C265.876 292.535 265.875 292.535 265.873 292.535C265.329 292.682 264.775 292.802 264.211 292.896C264.182 292.901 264.155 292.905 264.127 292.91C263.586 292.996 263.039 293.056 262.483 293.091C262.434 293.093 262.386 293.095 262.339 293.098C262.034 293.114 261.734 293.143 261.426 293.143Z" fill="#31313C"/>
<path fill-rule="evenodd" clip-rule="evenodd" d="M269.891 312.956C269.891 308.325 266.1 304.572 261.426 304.572C256.751 304.572 252.961 308.325 252.961 312.956C252.961 317.588 256.751 321.341 261.426 321.341C266.1 321.341 269.891 317.588 269.891 312.956ZM278.426 312.956C278.426 322.258 270.815 329.798 261.426 329.798H244.426V312.956C244.426 303.655 252.037 296.115 261.426 296.115C270.815 296.115 278.426 303.655 278.426 312.956Z" fill="#31313C"/>
<path fill-rule="evenodd" clip-rule="evenodd" d="M-7.38513 473.902C-2.6583 473.902 1.17261 470.148 1.17261 465.517C1.17261 460.887 -2.6583 457.132 -7.38513 457.132C-12.112 457.132 -15.9428 460.887 -15.9428 465.517C-15.9428 470.148 -12.112 473.902 -7.38513 473.902ZM31.2367 473.902C35.9635 473.902 39.7954 470.148 39.7954 465.517C39.7954 460.887 35.9635 457.132 31.2367 457.132C26.5099 457.132 22.6779 460.887 22.6779 465.517C22.6779 470.148 26.5099 473.902 31.2367 473.902ZM-24.5278 464.612C-24.5248 464.566 -24.5238 464.517 -24.5197 464.47C-24.4854 463.919 -24.4249 463.378 -24.3371 462.842C-24.3331 462.814 -24.329 462.786 -24.324 462.758C-24.2291 462.199 -24.1081 461.65 -23.9598 461.111C-23.9598 461.11 -23.9588 461.108 -23.9588 461.107C-21.9783 453.949 -15.3183 448.676 -7.38513 448.676C-7.3821 448.676 -7.37906 448.676 -7.37604 448.676C-7.37301 448.676 -7.37 448.676 -7.36597 448.676H30.6737H30.6747H31.2367C39.862 448.676 46.982 454.906 48.2159 463.02L48.222 463.056C48.2997 463.573 48.3521 464.098 48.3794 464.63C48.3814 464.658 48.3864 464.685 48.3884 464.714C48.3894 464.738 48.3864 464.761 48.3875 464.786C48.3996 465.03 48.4258 465.271 48.4258 465.517C48.4258 465.823 48.3955 466.121 48.3794 466.423C48.3774 466.47 48.3753 466.516 48.3723 466.561C48.337 467.114 48.2764 467.658 48.1887 468.194C48.1836 468.221 48.1806 468.248 48.1755 468.274C46.8306 476.26 39.7692 482.358 31.2367 482.358C31.2337 482.358 31.2296 482.357 31.2276 482.357C31.2246 482.357 31.2215 482.358 31.2185 482.358H-24.5742V465.517C-24.5742 465.211 -24.544 464.914 -24.5278 464.612Z" fill="#31313C"/>
<path fill-rule="evenodd" clip-rule="evenodd" d="M109.237 457.132C104.51 457.132 100.679 460.887 100.679 465.518C100.679 470.149 104.51 473.902 109.237 473.902C113.964 473.902 117.794 470.149 117.794 465.518C117.794 460.887 113.964 457.132 109.237 457.132ZM70.6149 457.132C65.888 457.132 62.0562 460.887 62.0562 465.518C62.0562 470.148 65.888 473.902 70.6149 473.902C75.3417 473.902 79.1736 470.148 79.1736 465.518C79.1736 460.887 75.3417 457.132 70.6149 457.132ZM126.379 466.422C126.376 466.469 126.375 466.517 126.372 466.564C126.337 467.115 126.276 467.658 126.189 468.192C126.185 468.22 126.181 468.249 126.176 468.276C126.081 468.835 125.96 469.385 125.811 469.923C125.811 469.924 125.811 469.926 125.81 469.927C123.83 477.086 117.17 482.358 109.237 482.358C109.234 482.358 109.231 482.358 109.228 482.358C109.225 482.358 109.222 482.358 109.219 482.358H71.1789H71.1769H70.6149C61.9905 482.358 54.8695 476.128 53.6356 468.015C53.6336 468.003 53.6316 467.99 53.6296 467.978C53.5519 467.461 53.5004 466.936 53.4722 466.404C53.4701 466.377 53.4652 466.349 53.4631 466.32C53.4621 466.297 53.4651 466.273 53.4641 466.248C53.452 466.004 53.4258 465.764 53.4258 465.518C53.4258 465.211 53.456 464.914 53.4722 464.611C53.4742 464.565 53.4762 464.518 53.4792 464.473C53.5146 463.92 53.5761 463.377 53.6629 462.84C53.6679 462.813 53.671 462.786 53.676 462.76C55.0219 454.774 62.0824 448.676 70.6149 448.676C70.6189 448.676 70.6219 448.677 70.624 448.677C70.627 448.677 70.63 448.676 70.6331 448.676H126.426V465.518C126.426 465.823 126.397 466.121 126.379 466.422Z" fill="#31313C"/>
<path fill-rule="evenodd" clip-rule="evenodd" d="M147.426 457.132C142.751 457.132 138.962 460.886 138.962 465.517C138.962 470.148 142.751 473.903 147.426 473.903C152.102 473.903 155.89 470.148 155.89 465.517C155.89 460.886 152.102 457.132 147.426 457.132ZM147.426 482.358C138.037 482.358 130.426 474.819 130.426 465.517V448.676H147.426C156.815 448.676 164.426 456.216 164.426 465.517C164.426 474.819 156.815 482.358 147.426 482.358Z" fill="#31313C"/>
<path fill-rule="evenodd" clip-rule="evenodd" d="M185.615 473.902C190.343 473.902 194.174 470.148 194.174 465.517C194.174 460.886 190.343 457.131 185.615 457.131C180.888 457.131 177.057 460.886 177.057 465.517C177.057 470.148 180.888 473.902 185.615 473.902ZM224.237 473.902C228.965 473.902 232.796 470.148 232.796 465.517C232.796 460.887 228.965 457.132 224.237 457.132C219.511 457.132 215.679 460.887 215.679 465.517C215.679 470.148 219.511 473.902 224.237 473.902ZM168.472 464.612C168.475 464.565 168.477 464.517 168.48 464.47C168.515 463.919 168.575 463.377 168.663 462.842C168.668 462.813 168.672 462.786 168.676 462.758C168.771 462.199 168.892 461.65 169.04 461.111C169.04 461.11 169.041 461.108 169.041 461.107C171.023 453.949 177.683 448.676 185.615 448.676H185.616C185.618 448.676 185.621 448.676 185.624 448.676C185.627 448.676 185.631 448.676 185.634 448.676H223.674H223.676H224.237C232.862 448.676 239.982 454.906 241.217 463.02C241.218 463.032 241.22 463.044 241.222 463.056C241.3 463.573 241.352 464.098 241.38 464.63C241.381 464.658 241.387 464.685 241.388 464.714C241.389 464.738 241.387 464.761 241.388 464.786C241.4 465.03 241.426 465.271 241.426 465.517C241.426 465.823 241.396 466.121 241.379 466.423C241.377 466.47 241.375 466.516 241.373 466.561C241.338 467.114 241.276 467.658 241.189 468.194C241.184 468.221 241.181 468.248 241.176 468.274C239.831 476.26 232.769 482.358 224.237 482.358C224.234 482.358 224.231 482.357 224.228 482.357C224.226 482.357 224.223 482.358 224.219 482.358H168.426V465.517C168.426 465.211 168.456 464.914 168.472 464.612Z" fill="#31313C"/>
<path fill-rule="evenodd" clip-rule="evenodd" d="M301.425 457.131C296.751 457.131 292.962 460.886 292.962 465.517C292.962 470.148 296.751 473.902 301.425 473.902C306.101 473.902 309.89 470.148 309.89 465.517C309.89 460.886 306.101 457.131 301.425 457.131ZM301.425 482.358C292.037 482.358 284.426 474.818 284.426 465.517V448.676H301.425C310.815 448.676 318.426 456.216 318.426 465.517C318.426 474.818 310.815 482.358 301.425 482.358Z" fill="#31313C"/>
<path fill-rule="evenodd" clip-rule="evenodd" d="M263.425 511.453C268.101 511.453 271.89 507.657 271.89 502.976C271.89 498.292 268.101 494.497 263.425 494.497C258.751 494.497 254.962 498.292 254.962 502.976C254.962 507.657 258.751 511.453 263.425 511.453ZM263.425 473.193C268.101 473.193 271.89 469.397 271.89 464.714C271.89 460.031 268.101 456.235 263.425 456.235C258.751 456.235 254.962 460.031 254.962 464.714C254.962 469.397 258.751 473.193 263.425 473.193ZM263.425 520.003H246.426V464.733C246.426 464.729 246.427 464.726 246.427 464.724C246.427 464.721 246.426 464.718 246.426 464.714C246.426 456.261 252.581 449.267 260.642 447.933C260.669 447.928 260.696 447.925 260.722 447.921C261.264 447.834 261.814 447.773 262.371 447.738C262.417 447.735 262.464 447.734 262.511 447.732C262.817 447.715 263.116 447.685 263.425 447.685C263.675 447.685 263.917 447.712 264.163 447.723C264.189 447.724 264.212 447.721 264.235 447.722C264.265 447.724 264.292 447.729 264.321 447.731C264.859 447.758 265.387 447.81 265.909 447.887C265.922 447.889 265.935 447.891 265.946 447.893C274.136 449.117 280.425 456.169 280.425 464.714V465.271C280.425 465.272 280.426 465.272 280.426 465.273V502.958C280.426 502.96 280.425 502.963 280.425 502.967V502.975V502.976C280.425 510.834 275.103 517.431 267.877 519.393C267.876 519.394 267.874 519.394 267.873 519.394C267.33 519.542 266.775 519.662 266.21 519.756C266.183 519.76 266.154 519.764 266.126 519.768C265.586 519.855 265.038 519.916 264.482 519.95C264.435 519.953 264.386 519.955 264.338 519.957C264.034 519.974 263.735 520.003 263.425 520.003Z" fill="#31313C"/>
<path fill-rule="evenodd" clip-rule="evenodd" d="M378.425 457.131C373.751 457.131 369.962 460.886 369.962 465.517C369.962 470.148 373.751 473.902 378.425 473.902C383.101 473.902 386.89 470.148 386.89 465.517C386.89 460.886 383.101 457.131 378.425 457.131ZM378.425 482.358C369.037 482.358 361.426 474.818 361.426 465.517V448.676H378.425C387.815 448.676 395.426 456.216 395.426 465.517C395.426 474.818 387.815 482.358 378.425 482.358Z" fill="#31313C"/>
<path fill-rule="evenodd" clip-rule="evenodd" d="M348.89 502.975C348.89 498.292 345.1 494.496 340.426 494.496C335.751 494.496 331.962 498.292 331.962 502.975C331.962 507.657 335.751 511.452 340.426 511.452C345.1 511.452 348.89 507.657 348.89 502.975ZM348.89 464.714C348.89 460.031 345.1 456.235 340.426 456.235C335.751 456.235 331.962 460.031 331.962 464.714C331.962 469.397 335.751 473.193 340.426 473.193C345.1 473.193 348.89 469.397 348.89 464.714ZM339.513 519.957C339.466 519.954 339.417 519.953 339.369 519.949C338.813 519.915 338.266 519.855 337.726 519.768C337.697 519.763 337.669 519.759 337.641 519.755C337.076 519.661 336.522 519.541 335.979 519.394C335.978 519.394 335.976 519.393 335.975 519.392C328.748 517.43 323.426 510.834 323.426 502.975C323.426 502.972 323.427 502.969 323.427 502.966C323.427 502.963 323.426 502.96 323.426 502.957V465.272V465.271V464.714C323.426 456.169 329.715 449.116 337.904 447.892C337.917 447.891 337.93 447.889 337.941 447.887C338.464 447.81 338.993 447.758 339.53 447.73C339.559 447.729 339.587 447.723 339.615 447.722C339.64 447.72 339.663 447.723 339.687 447.722C339.934 447.711 340.177 447.685 340.426 447.685C340.734 447.685 341.035 447.715 341.341 447.731C341.387 447.733 341.434 447.735 341.48 447.738C342.038 447.772 342.587 447.833 343.129 447.92C343.156 447.925 343.182 447.928 343.21 447.933C351.271 449.266 357.426 456.261 357.426 464.714C357.426 464.717 357.425 464.72 357.425 464.723C357.425 464.726 357.426 464.729 357.426 464.732V520.003H340.426C340.117 520.003 339.817 519.973 339.513 519.957Z" fill="#31313C"/>
</svg>
