<svg width="24" height="24" xmlns="http://www.w3.org/2000/svg"><path d="M18.668 5.335c.688.688.688 1.889 0 2.577l-.647.648-2.58-2.578.65-.647c.688-.688 1.889-.689 2.577 0zM5.138 18.863l.536-2.136 1.601 1.603-2.136.533zM14.17 7.255l2.577 2.577-7.711 7.711-2.577-2.577 7.711-7.71zm5.77-3.194A3.596 3.596 0 0017.376 3c-.967 0-1.878.376-2.562 1.061L4.548 14.328l-.003.004a1.134 1.134 0 00-.234.415L3.027 19.88a.898.898 0 00.237.854v.001l.003.001a.9.9 0 00.854.238l5.133-1.285c.147-.036.342-.162.415-.234l.004-.002L19.94 9.186A3.595 3.595 0 0021 6.624a3.6 3.6 0 00-1.06-2.562h-.002z" fill="#FFF" fill-rule="evenodd"/></svg>