<?xml version="1.0" encoding="utf-8"?>
<!-- Generator: Adobe Illustrator 24.0.0, SVG Export Plug-In . SVG Version: 6.00 Build 0)  -->
<svg version="1.1" id="Layer_1" xmlns="http://www.w3.org/2000/svg" xmlns:xlink="http://www.w3.org/1999/xlink" x="0px" y="0px"
	 viewBox="0 0 143.24 155.25" style="enable-background:new 0 0 143.24 155.25;" xml:space="preserve">
<style type="text/css">
	.st0{fill:#0D0D0D;}
	.st1{font-family:'Gotham-Black';}
	.st2{font-size:38.7656px;}
	.st3{fill:#FFFFFF;}
	.st4{fill:#F7BB3B;}
</style>
<g>
	<text transform="matrix(1 0 0 1 3.6429 144.1149)" class="st0 st1 st2">thangs</text>
	<g>
		<path class="st3" d="M110.04,12.37c-3.1-5.59-11.33-8.64-18.29-6.76L17.48,25.62c-4.73,1.27-7.69,4.51-8.13,8.21
			c0,0.04-0.01,0.08-0.02,0.12c0,0.01,0,0.03-0.01,0.04c-0.03,0.3-0.04,0.61-0.04,0.91c0,0.08,0.01,0.15,0.01,0.23
			c0.01,0.25,0.03,0.5,0.06,0.75c0.01,0.08,0.02,0.15,0.03,0.23c0.05,0.31,0.11,0.62,0.2,0.93c0.02,0.06,0.04,0.11,0.05,0.17
			c0.08,0.26,0.17,0.52,0.27,0.79c0.03,0.09,0.07,0.17,0.11,0.26c0.13,0.31,0.28,0.63,0.45,0.94c0.2,0.37,0.43,0.72,0.68,1.07
			c0.08,0.11,0.18,0.22,0.26,0.33c0.17,0.23,0.35,0.45,0.54,0.67c0.11,0.13,0.24,0.25,0.35,0.37c0.18,0.19,0.36,0.38,0.56,0.56
			c0.13,0.12,0.28,0.24,0.42,0.36c0.2,0.17,0.39,0.33,0.6,0.49c0.15,0.12,0.31,0.23,0.46,0.34c0.21,0.15,0.42,0.29,0.64,0.43
			c0.16,0.1,0.33,0.21,0.5,0.3c0.22,0.13,0.45,0.26,0.68,0.38c0.17,0.09,0.35,0.18,0.53,0.27c0.24,0.11,0.48,0.22,0.73,0.33
			c0.18,0.08,0.36,0.15,0.54,0.22c0.26,0.1,0.52,0.19,0.79,0.28c0.17,0.06,0.35,0.12,0.52,0.17c0.5,0.15,1.01,0.28,1.52,0.39
			c0.08,0.02,0.16,0.03,0.24,0.04c0.44,0.09,0.88,0.15,1.32,0.21c0.18,0.02,0.35,0.04,0.53,0.05c0.33,0.03,0.66,0.05,1,0.06
			c0.18,0.01,0.37,0.01,0.55,0.01c0.35,0,0.7-0.01,1.05-0.03c0.16-0.01,0.32-0.01,0.48-0.03c0.32-0.03,0.63-0.07,0.94-0.12
			c0.16-0.02,0.31-0.04,0.47-0.06c0.47-0.08,0.93-0.18,1.39-0.3l14.61-3.94l9.85-2.65l7.67,13.79l21.6,38.88
			c0.2,0.37,0.43,0.72,0.68,1.07c0.08,0.11,0.18,0.22,0.26,0.33c0.17,0.23,0.35,0.45,0.54,0.67c0.11,0.13,0.24,0.25,0.35,0.37
			c0.18,0.19,0.36,0.38,0.56,0.56c0.13,0.12,0.28,0.24,0.42,0.36c0.2,0.17,0.39,0.33,0.6,0.49c0.15,0.12,0.31,0.23,0.46,0.34
			c0.21,0.15,0.42,0.29,0.64,0.43c0.16,0.1,0.33,0.21,0.5,0.3c0.22,0.13,0.45,0.26,0.68,0.38c0.17,0.09,0.35,0.18,0.53,0.27
			c0.24,0.11,0.48,0.22,0.73,0.33c0.18,0.08,0.36,0.15,0.54,0.22c0.26,0.1,0.52,0.19,0.79,0.28c0.17,0.06,0.34,0.12,0.52,0.17
			c0.5,0.15,1,0.28,1.52,0.39c0.08,0.02,0.16,0.03,0.24,0.04c0.44,0.09,0.88,0.15,1.32,0.21c0.18,0.02,0.35,0.04,0.53,0.05
			c0.33,0.03,0.66,0.05,1,0.06c0.18,0.01,0.37,0.01,0.55,0.01c0.35,0,0.7-0.01,1.06-0.03c0.16-0.01,0.32-0.01,0.48-0.03
			c0.32-0.03,0.63-0.07,0.94-0.12c0.16-0.02,0.31-0.04,0.47-0.06c0.47-0.08,0.93-0.18,1.39-0.3c0.49-0.13,0.96-0.3,1.42-0.47
			c0.02-0.01,0.03-0.01,0.05-0.02c0.14-0.06,0.28-0.12,0.42-0.18c0.1-0.04,0.19-0.09,0.28-0.13c0.23-0.1,0.45-0.2,0.67-0.32
			c0.14-0.07,0.27-0.14,0.41-0.22c0.11-0.06,0.21-0.14,0.32-0.21c0.21-0.13,0.43-0.26,0.63-0.4c0.07-0.05,0.15-0.1,0.22-0.15
			c0.14-0.1,0.25-0.22,0.38-0.32c0.19-0.16,0.38-0.31,0.56-0.47c0.02-0.02,0.05-0.04,0.07-0.06c0.08-0.08,0.16-0.16,0.24-0.25
			c0.06-0.07,0.12-0.14,0.18-0.21c0.15-0.17,0.31-0.33,0.45-0.51c0.09-0.11,0.17-0.22,0.25-0.33c0.18-0.25,0.35-0.51,0.5-0.77
			c0.06-0.1,0.12-0.19,0.17-0.29c0.18-0.33,0.33-0.67,0.46-1.02c0.01-0.03,0.03-0.06,0.04-0.09c0.02-0.07,0.04-0.14,0.06-0.2
			c0.11-0.32,0.19-0.64,0.26-0.96c0.39-1.93,0.1-4.01-1.02-6.03l-21.6-38.88l-7.67-13.79l24.53-6.61c0.49-0.13,0.96-0.3,1.42-0.47
			c0.02-0.01,0.03-0.01,0.05-0.02c0.14-0.06,0.28-0.12,0.42-0.18c0.1-0.04,0.19-0.09,0.28-0.13c0.23-0.1,0.45-0.2,0.67-0.32
			c0.14-0.07,0.27-0.14,0.41-0.22c0.11-0.06,0.21-0.14,0.32-0.21c0.21-0.13,0.43-0.26,0.63-0.4c0.07-0.05,0.15-0.1,0.22-0.15
			c0.14-0.1,0.25-0.22,0.38-0.32c0.19-0.16,0.38-0.31,0.56-0.47c0.02-0.02,0.05-0.04,0.07-0.06c0.08-0.08,0.16-0.16,0.23-0.25
			c0.06-0.07,0.12-0.14,0.18-0.21c0.15-0.17,0.31-0.33,0.45-0.51c0.09-0.11,0.17-0.22,0.25-0.33c0.18-0.25,0.35-0.51,0.5-0.77
			c0.06-0.1,0.12-0.19,0.17-0.29c0.18-0.33,0.33-0.67,0.46-1.02c0.01-0.03,0.03-0.06,0.04-0.09c0.02-0.07,0.04-0.14,0.06-0.2
			c0.1-0.32,0.19-0.64,0.26-0.96C111.46,16.47,111.16,14.39,110.04,12.37z"/>
		<path class="st4" d="M63.36,31.16c3.7-1,5.34-4.22,3.69-7.2c-1.65-2.98-5.97-4.58-9.67-3.58c-3.7,1-5.36,4.21-3.71,7.19
			S59.66,32.15,63.36,31.16z"/>
		<path class="st4" d="M80.42,61.09c3.7-1,5.34-4.22,3.69-7.2c-1.65-2.98-5.97-4.58-9.67-3.58c-3.7,1-5.36,4.21-3.71,7.19
			C72.38,60.48,76.73,62.09,80.42,61.09z"/>
		<path class="st4" d="M27.85,40.72c3.7-1,5.36-4.22,3.71-7.2c-1.65-2.97-5.99-4.57-9.69-3.58c-3.7,1-5.34,4.22-3.7,7.18
			C19.83,40.1,24.15,41.71,27.85,40.72z"/>
		<path class="st4" d="M98.64,21.64c-3.68,0.99-8.03-0.62-9.68-3.59c-1.65-2.97,0.02-6.19,3.7-7.18c3.7-1,8.04,0.61,9.69,3.58
			C104,17.42,102.34,20.65,98.64,21.64z"/>
		<path class="st4" d="M97.33,92.6c3.7-1,5.35-4.21,3.7-7.18c-1.65-2.98-5.98-4.59-9.68-3.59c-3.7,1-5.36,4.22-3.71,7.2
			S93.63,93.59,97.33,92.6"/>
		<g>
			<path class="st4" d="M100.01,42.64c0.43-0.12,0.83-0.26,1.23-0.41c0.06-0.02,0.13-0.04,0.19-0.06c0.26-0.1,0.5-0.21,0.75-0.33
				c0.25-0.11,0.49-0.22,0.73-0.34c0.23-0.12,0.45-0.26,0.67-0.4c0.22-0.13,0.44-0.27,0.65-0.41c0.2-0.15,0.39-0.3,0.58-0.46
				c0.19-0.16,0.38-0.31,0.56-0.47c0.17-0.16,0.33-0.34,0.49-0.51c0.13-0.14,0.25-0.28,0.37-0.42c0.04-0.05,0.09-0.1,0.13-0.15
				c0.06-0.08,0.12-0.15,0.17-0.23c0.22-0.3,0.43-0.62,0.61-0.94c0.02-0.03,0.04-0.06,0.06-0.1c0.19-0.35,0.35-0.71,0.48-1.08
				c0.03-0.09,0.06-0.18,0.09-0.27c0.07-0.2,0.11-0.4,0.16-0.6c0.05-0.18,0.11-0.35,0.14-0.54l3.04-16.68
				c-0.01,0.05-0.03,0.1-0.04,0.16c-0.07,0.32-0.15,0.65-0.26,0.96c-0.02,0.07-0.04,0.14-0.06,0.2c-0.01,0.03-0.03,0.06-0.04,0.09
				c-0.13,0.35-0.28,0.69-0.46,1.02c-0.05,0.1-0.11,0.19-0.17,0.29c-0.15,0.26-0.32,0.52-0.5,0.77c-0.08,0.11-0.16,0.22-0.25,0.33
				c-0.14,0.18-0.3,0.34-0.45,0.51c-0.06,0.07-0.12,0.14-0.18,0.21c-0.08,0.08-0.15,0.17-0.23,0.25c-0.02,0.02-0.05,0.04-0.07,0.06
				c-0.18,0.17-0.37,0.32-0.56,0.47c-0.13,0.11-0.24,0.22-0.38,0.32c-0.07,0.05-0.15,0.1-0.22,0.15c-0.2,0.14-0.41,0.27-0.63,0.4
				c-0.11,0.07-0.21,0.14-0.32,0.21c-0.13,0.08-0.27,0.15-0.41,0.22c-0.21,0.11-0.44,0.21-0.67,0.32c-0.1,0.04-0.19,0.09-0.28,0.13
				c-0.14,0.06-0.28,0.12-0.42,0.18c-0.02,0.01-0.03,0.01-0.05,0.02c-0.45,0.17-0.92,0.34-1.42,0.47l-24.53,6.61l7.67,13.79
				L100.01,42.64z"/>
			<path class="st4" d="M108.55,92.23c-0.02,0.07-0.04,0.14-0.06,0.2c-0.01,0.03-0.03,0.06-0.04,0.09
				c-0.13,0.35-0.28,0.69-0.46,1.02c-0.05,0.1-0.11,0.19-0.17,0.29c-0.15,0.26-0.32,0.52-0.5,0.77c-0.08,0.11-0.16,0.22-0.25,0.33
				c-0.14,0.18-0.3,0.34-0.45,0.51c-0.06,0.07-0.12,0.14-0.18,0.21c-0.08,0.08-0.15,0.17-0.24,0.25c-0.02,0.02-0.05,0.04-0.07,0.06
				c-0.17,0.16-0.37,0.32-0.56,0.47c-0.13,0.11-0.24,0.22-0.38,0.32c-0.07,0.05-0.15,0.1-0.22,0.15c-0.2,0.14-0.41,0.27-0.63,0.4
				c-0.11,0.07-0.21,0.14-0.32,0.21c-0.13,0.08-0.27,0.15-0.4,0.22c-0.21,0.11-0.44,0.21-0.67,0.32c-0.1,0.04-0.19,0.09-0.28,0.13
				c-0.14,0.06-0.28,0.12-0.42,0.18c-0.02,0.01-0.03,0.01-0.05,0.02c-0.45,0.17-0.92,0.34-1.42,0.47c-0.46,0.12-0.92,0.22-1.39,0.3
				c-0.16,0.03-0.31,0.04-0.47,0.06c-0.31,0.05-0.63,0.09-0.94,0.12c-0.16,0.01-0.32,0.02-0.48,0.03c-0.35,0.02-0.7,0.03-1.06,0.03
				c-0.18,0-0.37-0.01-0.55-0.01c-0.33-0.01-0.67-0.03-1-0.06c-0.18-0.02-0.35-0.03-0.53-0.05c-0.44-0.05-0.88-0.12-1.32-0.21
				c-0.08-0.02-0.16-0.03-0.24-0.04c-0.51-0.11-1.02-0.24-1.52-0.39c-0.18-0.05-0.35-0.11-0.52-0.17c-0.26-0.09-0.53-0.18-0.79-0.28
				c-0.18-0.07-0.36-0.15-0.54-0.22c-0.25-0.1-0.49-0.21-0.73-0.33c-0.18-0.09-0.35-0.17-0.53-0.27c-0.23-0.12-0.46-0.25-0.68-0.38
				c-0.17-0.1-0.34-0.2-0.5-0.3c-0.22-0.14-0.43-0.28-0.64-0.43c-0.16-0.11-0.31-0.22-0.46-0.34c-0.21-0.16-0.4-0.32-0.6-0.49
				c-0.14-0.12-0.28-0.24-0.42-0.36c-0.19-0.18-0.38-0.37-0.56-0.56c-0.12-0.12-0.24-0.24-0.35-0.37c-0.19-0.22-0.37-0.44-0.54-0.67
				c-0.09-0.11-0.18-0.22-0.26-0.33c-0.25-0.35-0.48-0.7-0.68-1.07l-21.6-38.88l-7.67-13.79l-9.85,2.65l-14.61,3.94
				c-0.46,0.12-0.92,0.22-1.39,0.3c-0.16,0.03-0.31,0.04-0.47,0.06c-0.31,0.05-0.63,0.09-0.94,0.12c-0.16,0.01-0.32,0.02-0.48,0.03
				c-0.35,0.02-0.7,0.03-1.05,0.03c-0.18,0-0.37-0.01-0.55-0.01c-0.33-0.01-0.67-0.03-1-0.06c-0.18-0.02-0.35-0.03-0.53-0.05
				c-0.44-0.05-0.89-0.12-1.32-0.21c-0.08-0.02-0.16-0.03-0.24-0.04c-0.51-0.11-1.02-0.24-1.52-0.39c-0.18-0.05-0.35-0.11-0.52-0.17
				c-0.26-0.09-0.53-0.18-0.79-0.28c-0.18-0.07-0.36-0.15-0.54-0.22c-0.25-0.1-0.49-0.21-0.73-0.33c-0.18-0.09-0.35-0.17-0.53-0.27
				c-0.23-0.12-0.46-0.25-0.68-0.38c-0.17-0.1-0.34-0.2-0.5-0.3c-0.22-0.14-0.43-0.28-0.64-0.43c-0.16-0.11-0.31-0.22-0.46-0.34
				c-0.21-0.16-0.4-0.32-0.6-0.49c-0.14-0.12-0.28-0.24-0.42-0.36c-0.19-0.18-0.38-0.37-0.56-0.56c-0.12-0.12-0.24-0.24-0.35-0.37
				c-0.19-0.22-0.37-0.44-0.54-0.67c-0.09-0.11-0.18-0.22-0.26-0.33c-0.25-0.35-0.48-0.7-0.68-1.07c-0.17-0.31-0.32-0.62-0.45-0.94
				C9.99,38.17,9.95,38.09,9.92,38c-0.1-0.26-0.19-0.52-0.27-0.79c-0.02-0.06-0.04-0.11-0.05-0.17c-0.09-0.31-0.15-0.62-0.2-0.93
				c-0.01-0.08-0.02-0.15-0.03-0.23c-0.03-0.25-0.05-0.5-0.06-0.75c0-0.08-0.01-0.15-0.01-0.23c0-0.31,0.01-0.61,0.04-0.91
				c0-0.01,0-0.02,0-0.03c0.01-0.04,0.01-0.09,0.02-0.13c0.02-0.17,0.04-0.33,0.07-0.5c0,0,0,0,0,0L6.38,50.01
				c-0.34,1.88-0.02,3.91,1.06,5.86c0.2,0.37,0.43,0.72,0.68,1.07c0.08,0.11,0.18,0.22,0.26,0.33c0.17,0.23,0.35,0.45,0.54,0.66
				c0.11,0.13,0.24,0.25,0.36,0.37c0.18,0.19,0.36,0.38,0.56,0.55c0.13,0.12,0.28,0.24,0.42,0.36c0.19,0.17,0.39,0.33,0.6,0.49
				c0.15,0.12,0.31,0.23,0.46,0.34c0.21,0.15,0.42,0.29,0.64,0.43c0.16,0.1,0.33,0.21,0.5,0.3c0.22,0.13,0.45,0.26,0.68,0.38
				c0.17,0.09,0.35,0.18,0.53,0.27c0.24,0.11,0.48,0.22,0.73,0.32c0.18,0.08,0.36,0.15,0.54,0.22c0.26,0.1,0.52,0.19,0.79,0.28
				c0.13,0.04,0.27,0.09,0.4,0.13c0.04,0.01,0.08,0.03,0.12,0.04c0.5,0.15,1,0.28,1.52,0.39c0.08,0.02,0.16,0.03,0.24,0.04
				c0.44,0.09,0.88,0.15,1.32,0.21c0.07,0.01,0.13,0.01,0.2,0.02c0.11,0.01,0.22,0.02,0.32,0.03c0.33,0.03,0.66,0.05,1,0.06
				c0.18,0.01,0.37,0.01,0.55,0.01c0.35,0,0.7-0.01,1.06-0.03c0.12-0.01,0.24-0.01,0.36-0.02c0.04,0,0.08,0,0.12-0.01
				c0.32-0.03,0.63-0.07,0.94-0.12c0.16-0.02,0.31-0.04,0.47-0.06c0.47-0.08,0.93-0.18,1.39-0.3l24.45-6.59l29.27,52.67
				c0.2,0.37,0.43,0.72,0.68,1.07c0.08,0.11,0.18,0.22,0.26,0.33c0.17,0.23,0.35,0.45,0.54,0.66c0.11,0.13,0.24,0.25,0.35,0.37
				c0.18,0.19,0.36,0.38,0.56,0.56c0.13,0.12,0.28,0.24,0.42,0.36c0.2,0.17,0.39,0.33,0.6,0.49c0.15,0.12,0.31,0.23,0.46,0.34
				c0.21,0.15,0.42,0.29,0.64,0.43c0.16,0.1,0.33,0.21,0.5,0.3c0.22,0.13,0.45,0.26,0.68,0.38c0.17,0.09,0.35,0.18,0.53,0.27
				c0.24,0.11,0.48,0.22,0.73,0.33c0.18,0.08,0.36,0.15,0.54,0.22c0.26,0.1,0.52,0.19,0.79,0.28c0.13,0.04,0.27,0.09,0.4,0.13
				c0.04,0.01,0.08,0.03,0.12,0.04c0.5,0.15,1.01,0.28,1.52,0.39c0.08,0.02,0.16,0.03,0.24,0.04c0.44,0.09,0.88,0.15,1.32,0.21
				c0.07,0.01,0.14,0.01,0.2,0.02c0.11,0.01,0.22,0.02,0.33,0.03c0.33,0.03,0.66,0.05,1,0.06c0.18,0.01,0.37,0.01,0.55,0.01
				c0.35,0,0.71-0.01,1.06-0.03c0.12-0.01,0.24-0.01,0.35-0.02c0.04,0,0.08,0,0.12-0.01c0.32-0.03,0.63-0.07,0.95-0.12
				c0.15-0.02,0.31-0.04,0.46-0.06c0.47-0.08,0.93-0.18,1.39-0.3c0.43-0.12,0.83-0.26,1.23-0.41c0.06-0.02,0.13-0.04,0.19-0.06
				c0.26-0.1,0.5-0.21,0.75-0.33c0.25-0.11,0.49-0.22,0.73-0.34c0.23-0.12,0.45-0.26,0.67-0.4c0.22-0.13,0.44-0.27,0.65-0.41
				c0.2-0.15,0.39-0.3,0.58-0.46c0.19-0.16,0.38-0.31,0.56-0.47c0.17-0.16,0.33-0.34,0.49-0.51c0.13-0.14,0.25-0.27,0.37-0.42
				c0.04-0.05,0.09-0.1,0.13-0.15c0.06-0.08,0.12-0.15,0.17-0.23c0.22-0.3,0.43-0.61,0.61-0.94c0.02-0.03,0.04-0.06,0.06-0.1
				c0.19-0.35,0.35-0.71,0.48-1.08c0.03-0.09,0.06-0.18,0.09-0.27c0.07-0.2,0.11-0.4,0.16-0.6c0.05-0.18,0.11-0.35,0.14-0.54
				l3.04-16.68c-0.01,0.05-0.03,0.1-0.04,0.15C108.74,91.6,108.65,91.92,108.55,92.23z"/>
		</g>
	</g>
</g>
</svg>
