<?xml version="1.0" encoding="utf-8"?>
<!-- Generator: Adobe Illustrator 24.0.0, SVG Export Plug-In . SVG Version: 6.00 Build 0)  -->
<svg version="1.1" id="Layer_1" xmlns="http://www.w3.org/2000/svg" xmlns:xlink="http://www.w3.org/1999/xlink" x="0px" y="0px"
	 viewBox="0 0 143.24 155.25" style="enable-background:new 0 0 143.24 155.25;" xml:space="preserve">
<style type="text/css">
	.st0{fill:#0D0D0D;}
	.st1{fill:#F7BB3B;}
	.st2{fill:#666666;}
	.st3{fill:none;}
	.st4{fill:#CB9B32;}
	.st5{fill:#999999;}
	.st6{fill:#A27D24;}
</style>
<g>
	<g>
		<path class="st0" d="M7.08,138.17v-8.57H4.59v-5.96h2.49v-5.34h7.4v5.34h4.91v5.96h-4.91v7.13c0,1.48,0.66,2.1,2.03,2.1
			c0.97,0,1.91-0.27,2.8-0.7v5.8c-1.32,0.74-3.08,1.21-5.14,1.21C9.73,145.14,7.08,143.19,7.08,138.17z"/>
		<path class="st0" d="M22.59,116.27h7.4v10.25c1.36-1.75,3.31-3.35,6.31-3.35c4.48,0,7.17,2.96,7.17,7.75v13.79h-7.4V133.3
			c0-2.3-1.21-3.54-2.96-3.54c-1.79,0-3.12,1.25-3.12,3.54v11.41h-7.4V116.27z"/>
		<path class="st0" d="M46.23,138.67v-0.08c0-4.36,3.31-6.62,8.26-6.62c1.95,0,3.86,0.39,5.06,0.82v-0.35
			c0-2.18-1.36-3.43-4.21-3.43c-2.22,0-3.93,0.43-5.8,1.17l-1.52-5.22c2.38-0.97,4.91-1.64,8.53-1.64c3.78,0,6.35,0.9,8.02,2.57
			c1.6,1.56,2.26,3.74,2.26,6.7v12.12h-7.32v-2.18c-1.44,1.6-3.43,2.65-6.19,2.65C49.31,145.18,46.23,142.88,46.23,138.67z
			 M59.63,137.07v-0.97c-0.74-0.31-1.79-0.54-2.88-0.54c-2.14,0-3.39,1.05-3.39,2.61v0.08c0,1.44,1.09,2.3,2.61,2.3
			C58.11,140.54,59.63,139.18,59.63,137.07z"/>
		<path class="st0" d="M70.62,123.64h7.4v2.96c1.36-1.75,3.31-3.43,6.31-3.43c4.48,0,7.17,2.96,7.17,7.75v13.79h-7.4V133.3
			c0-2.3-1.21-3.54-2.96-3.54c-1.79,0-3.12,1.25-3.12,3.54v11.41h-7.4V123.64z"/>
		<path class="st0" d="M95.12,148.61l2.38-4.91c2.26,1.25,4.52,1.99,7.36,1.99c3.7,0,5.53-1.83,5.53-5.18v-0.82
			c-1.48,1.71-3.43,3.16-6.51,3.16c-5.18,0-9.35-3.74-9.35-9.78v-0.08c0-6.08,4.25-9.82,9.12-9.82c3.16,0,5.03,1.29,6.62,2.96v-2.49
			h7.4v16.01c0,3.86-0.86,6.54-2.73,8.42c-1.91,1.91-4.87,2.96-9.27,2.96C101.59,151.02,98.16,150.16,95.12,148.61z M110.39,133.06
			v-0.08c0-2.34-1.79-4.05-4.29-4.05c-2.53,0-4.32,1.75-4.32,4.09v0.08c0,2.34,1.79,4.05,4.32,4.05
			C108.6,137.15,110.39,135.4,110.39,133.06z"/>
		<path class="st0" d="M120.05,142.06l2.77-4.48c2.42,1.6,5.06,2.42,7.25,2.42c1.29,0,1.87-0.39,1.87-1.13v-0.08
			c0-0.82-1.17-1.17-3.39-1.79c-4.17-1.09-7.48-2.49-7.48-6.74v-0.08c0-4.48,3.58-6.97,8.45-6.97c3.08,0,6.27,0.9,8.69,2.45
			l-2.53,4.67c-2.18-1.21-4.56-1.95-6.23-1.95c-1.13,0-1.71,0.43-1.71,1.01v0.08c0,0.82,1.21,1.21,3.43,1.87
			c4.17,1.17,7.48,2.61,7.48,6.7v0.08c0,4.64-3.47,7.05-8.61,7.05C126.48,145.18,122.97,144.17,120.05,142.06z"/>
	</g>
	<g>
		<path class="st1" d="M109.94,12.45c-3.09-5.58-11.31-8.62-18.25-6.75L17.59,25.67c-4.72,1.27-7.68,4.5-8.11,8.19
			c0,0.04-0.01,0.08-0.02,0.12c0,0.01,0,0.03-0.01,0.04c-0.03,0.3-0.04,0.6-0.04,0.91c0,0.08,0.01,0.15,0.01,0.23
			c0.01,0.25,0.03,0.5,0.06,0.75c0.01,0.08,0.02,0.15,0.03,0.23c0.05,0.31,0.11,0.62,0.2,0.93c0.02,0.06,0.04,0.11,0.05,0.17
			c0.08,0.26,0.17,0.52,0.27,0.78c0.03,0.09,0.07,0.17,0.1,0.26c0.13,0.31,0.28,0.63,0.45,0.94c0.2,0.37,0.43,0.72,0.68,1.07
			c0.08,0.11,0.18,0.22,0.26,0.33c0.17,0.23,0.35,0.45,0.54,0.66c0.11,0.13,0.23,0.25,0.35,0.37c0.18,0.19,0.36,0.38,0.56,0.56
			c0.13,0.12,0.28,0.24,0.41,0.36c0.19,0.17,0.39,0.33,0.6,0.49c0.15,0.11,0.31,0.23,0.46,0.33c0.21,0.15,0.42,0.29,0.64,0.43
			c0.16,0.1,0.33,0.2,0.5,0.3c0.22,0.13,0.45,0.26,0.68,0.38c0.17,0.09,0.35,0.18,0.53,0.27c0.24,0.11,0.48,0.22,0.73,0.32
			c0.18,0.08,0.36,0.15,0.54,0.22c0.26,0.1,0.52,0.19,0.78,0.28c0.17,0.06,0.35,0.12,0.52,0.17c0.5,0.15,1,0.28,1.52,0.39
			c0.08,0.02,0.16,0.03,0.24,0.04c0.44,0.09,0.88,0.15,1.32,0.21c0.18,0.02,0.35,0.04,0.53,0.05c0.33,0.03,0.66,0.05,0.99,0.06
			c0.18,0.01,0.37,0.01,0.55,0.01c0.35,0,0.7-0.01,1.05-0.03c0.16-0.01,0.32-0.01,0.48-0.03c0.32-0.03,0.63-0.07,0.94-0.12
			c0.16-0.02,0.31-0.04,0.47-0.06c0.47-0.08,0.93-0.18,1.39-0.3l14.57-3.93l9.83-2.65l7.65,13.76l21.55,38.79
			c0.2,0.37,0.43,0.72,0.68,1.07c0.08,0.11,0.18,0.22,0.26,0.33c0.17,0.23,0.35,0.45,0.54,0.66c0.11,0.13,0.23,0.25,0.35,0.37
			c0.18,0.19,0.36,0.38,0.56,0.56c0.13,0.12,0.28,0.24,0.41,0.36c0.19,0.17,0.39,0.33,0.6,0.49c0.15,0.12,0.31,0.23,0.46,0.34
			c0.21,0.15,0.42,0.29,0.64,0.43c0.16,0.1,0.33,0.2,0.5,0.3c0.22,0.13,0.45,0.26,0.68,0.38c0.17,0.09,0.35,0.18,0.53,0.27
			c0.24,0.11,0.48,0.22,0.73,0.33c0.18,0.08,0.36,0.15,0.54,0.22c0.26,0.1,0.52,0.19,0.79,0.28c0.17,0.06,0.34,0.12,0.52,0.17
			c0.5,0.15,1,0.28,1.51,0.39c0.08,0.02,0.16,0.03,0.24,0.04c0.44,0.08,0.88,0.15,1.32,0.21c0.18,0.02,0.35,0.04,0.53,0.05
			c0.33,0.03,0.66,0.05,1,0.06c0.18,0.01,0.37,0.01,0.55,0.01c0.35,0,0.7-0.01,1.05-0.03c0.16-0.01,0.32-0.01,0.48-0.03
			c0.31-0.03,0.63-0.07,0.94-0.12c0.16-0.02,0.31-0.04,0.47-0.06c0.47-0.08,0.93-0.18,1.39-0.3c0.49-0.13,0.96-0.3,1.41-0.47
			c0.02-0.01,0.03-0.01,0.05-0.02c0.14-0.06,0.28-0.12,0.42-0.18c0.1-0.04,0.19-0.09,0.28-0.13c0.22-0.1,0.45-0.2,0.66-0.31
			c0.14-0.07,0.27-0.14,0.4-0.22c0.11-0.06,0.21-0.14,0.32-0.21c0.21-0.13,0.43-0.26,0.63-0.4c0.07-0.05,0.15-0.1,0.22-0.15
			c0.14-0.1,0.25-0.21,0.38-0.32c0.19-0.16,0.38-0.31,0.56-0.47c0.02-0.02,0.05-0.04,0.07-0.06c0.08-0.08,0.16-0.16,0.24-0.25
			c0.06-0.07,0.12-0.14,0.18-0.21c0.15-0.17,0.31-0.33,0.45-0.51c0.09-0.11,0.17-0.22,0.25-0.33c0.18-0.25,0.35-0.51,0.5-0.77
			c0.06-0.1,0.12-0.19,0.17-0.29c0.18-0.33,0.33-0.67,0.46-1.01c0.01-0.03,0.03-0.06,0.04-0.09c0.02-0.07,0.04-0.14,0.06-0.2
			c0.1-0.31,0.19-0.63,0.26-0.96c0.39-1.93,0.1-4-1.02-6.02L86.13,46.37L78.48,32.6l24.48-6.6c0.49-0.13,0.96-0.3,1.41-0.47
			c0.02-0.01,0.03-0.01,0.05-0.02c0.14-0.06,0.28-0.12,0.42-0.18c0.1-0.04,0.19-0.09,0.28-0.13c0.22-0.1,0.45-0.2,0.66-0.31
			c0.14-0.07,0.27-0.14,0.4-0.22c0.11-0.06,0.21-0.14,0.32-0.21c0.21-0.13,0.43-0.26,0.63-0.4c0.07-0.05,0.15-0.1,0.22-0.15
			c0.13-0.1,0.25-0.21,0.38-0.32c0.19-0.16,0.38-0.31,0.56-0.47c0.02-0.02,0.05-0.04,0.07-0.06c0.08-0.08,0.16-0.16,0.23-0.24
			c0.06-0.07,0.12-0.14,0.18-0.2c0.15-0.17,0.31-0.33,0.45-0.51c0.09-0.11,0.17-0.22,0.25-0.33c0.18-0.25,0.35-0.51,0.5-0.77
			c0.06-0.1,0.12-0.19,0.17-0.29c0.18-0.33,0.33-0.67,0.46-1.01c0.01-0.03,0.03-0.06,0.04-0.09c0.02-0.07,0.04-0.14,0.06-0.2
			c0.1-0.31,0.19-0.63,0.26-0.96C111.35,16.54,111.06,14.46,109.94,12.45z"/>
		<g>
			<path class="st2" d="M9.42,35.16c0.01,0.25,0.03,0.5,0.06,0.75C9.46,35.66,9.43,35.41,9.42,35.16z"/>
			<path class="st2" d="M9.52,36.14c0.05,0.29,0.1,0.58,0.18,0.87c0.01,0.02,0.01,0.04,0.02,0.06C9.63,36.76,9.57,36.45,9.52,36.14z
				"/>
			<path class="st2" d="M82.82,112.43c-0.21-0.16-0.4-0.32-0.6-0.49C82.42,112.11,82.61,112.27,82.82,112.43z"/>
			<path class="st2" d="M83.92,113.19c-0.22-0.14-0.43-0.28-0.64-0.43C83.49,112.91,83.7,113.06,83.92,113.19z"/>
			<path class="st2" d="M85.1,113.87c-0.23-0.12-0.46-0.25-0.68-0.38C84.64,113.63,84.87,113.75,85.1,113.87z"/>
			<path class="st2" d="M87.68,114.96c-0.26-0.09-0.53-0.18-0.78-0.28C87.16,114.79,87.42,114.87,87.68,114.96z"/>
			<path class="st2" d="M86.36,114.46c-0.25-0.1-0.49-0.21-0.73-0.32C85.87,114.25,86.11,114.36,86.36,114.46z"/>
			<path class="st2" d="M10.04,38.02c-0.1-0.26-0.19-0.52-0.27-0.78C9.85,37.5,9.94,37.76,10.04,38.02z"/>
			<path class="st2" d="M11.54,40.62c-0.09-0.11-0.18-0.22-0.26-0.33C11.36,40.4,11.45,40.51,11.54,40.62z"/>
			<path class="st2" d="M10.6,39.22c-0.17-0.31-0.32-0.62-0.45-0.94C10.28,38.59,10.43,38.91,10.6,39.22z"/>
			<path class="st2" d="M9.45,34.02c-0.03,0.26-0.04,0.52-0.04,0.78c0,0.04,0,0.09,0.01,0.13C9.41,34.62,9.42,34.32,9.45,34.02z"/>
			<path class="st2" d="M9.45,34.02c-0.03,0.26-0.04,0.52-0.04,0.78C9.41,34.54,9.42,34.28,9.45,34.02
				C9.45,34.02,9.45,34.02,9.45,34.02z"/>
			<path class="st3" d="M25.82,62.62c-0.46,0.12-0.92,0.22-1.39,0.3C24.9,62.84,25.36,62.74,25.82,62.62z"/>
			<path class="st3" d="M83.13,93.02c0.08,0.11,0.18,0.22,0.26,0.33C83.31,93.24,83.21,93.14,83.13,93.02z"/>
			<path class="st3" d="M84.84,94.94c0.13,0.12,0.28,0.24,0.41,0.36C85.12,95.18,84.97,95.07,84.84,94.94z"/>
			<path class="st2" d="M8.25,56.93c-0.25-0.34-0.47-0.7-0.68-1.07C7.77,56.23,8,56.58,8.25,56.93z"/>
			<path class="st2" d="M13.25,61.14c-0.23-0.12-0.46-0.24-0.68-0.37C12.79,60.89,13.02,61.01,13.25,61.14z"/>
			<path class="st2" d="M12.07,60.46c-0.22-0.14-0.43-0.28-0.64-0.43C11.64,60.18,11.85,60.32,12.07,60.46z"/>
			<path class="st2" d="M9.05,57.92c-0.19-0.21-0.36-0.44-0.54-0.66C8.68,57.48,8.85,57.71,9.05,57.92z"/>
			<path class="st3" d="M85.85,95.79c0.15,0.12,0.31,0.23,0.46,0.34C86.16,96.01,86,95.9,85.85,95.79z"/>
			<path class="st2" d="M10.97,59.69c-0.2-0.16-0.4-0.32-0.59-0.48C10.57,59.37,10.76,59.54,10.97,59.69z"/>
			<path class="st2" d="M22.55,63.13c-0.35,0.02-0.7,0.03-1.05,0.03C21.85,63.16,22.2,63.15,22.55,63.13z"/>
			<path class="st2" d="M20.95,63.15c-0.33-0.01-0.66-0.03-1-0.06C20.28,63.12,20.61,63.14,20.95,63.15z"/>
			<path class="st3" d="M23.97,62.99c-0.31,0.05-0.63,0.09-0.94,0.12C23.34,63.07,23.65,63.03,23.97,62.99z"/>
			<path class="st2" d="M19.43,63.03c-0.44-0.05-0.88-0.12-1.32-0.21C18.54,62.91,18.98,62.98,19.43,63.03z"/>
			<path class="st2" d="M15.83,62.23c-0.26-0.09-0.53-0.18-0.78-0.28C15.3,62.05,15.57,62.14,15.83,62.23z"/>
			<path class="st2" d="M17.87,62.78c-0.51-0.11-1.02-0.24-1.51-0.39C16.85,62.55,17.35,62.68,17.87,62.78z"/>
			<path class="st2" d="M14.5,61.73c-0.25-0.1-0.49-0.21-0.73-0.32C14.02,61.52,14.26,61.62,14.5,61.73z"/>
			<path class="st2" d="M9.96,58.85c-0.19-0.18-0.37-0.37-0.56-0.55C9.58,58.48,9.76,58.67,9.96,58.85z"/>
			<path class="st3" d="M27.47,46.28c-0.15,0.03-0.31,0.04-0.47,0.06C27.16,46.32,27.31,46.31,27.47,46.28z"/>
			<path class="st2" d="M89.72,115.52c-0.51-0.11-1.02-0.24-1.52-0.39C88.7,115.28,89.21,115.41,89.72,115.52z"/>
			<path class="st4" d="M104.17,111.17c-0.06,0.08-0.11,0.15-0.17,0.23C104.06,111.32,104.11,111.25,104.17,111.17z"/>
			<path class="st5" d="M102.09,41.85c-0.25,0.11-0.49,0.23-0.75,0.33C101.6,42.08,101.84,41.96,102.09,41.85z"/>
			<path class="st4" d="M105.41,108.8c-0.03,0.09-0.06,0.18-0.09,0.27C105.35,108.98,105.38,108.89,105.41,108.8z"/>
			<path class="st4" d="M104.83,110.14c-0.02,0.03-0.04,0.06-0.06,0.1C104.8,110.2,104.82,110.17,104.83,110.14z"/>
			<path class="st4" d="M103.49,111.97c-0.16,0.17-0.32,0.35-0.49,0.51C103.18,112.32,103.33,112.14,103.49,111.97z"/>
			<path class="st3" d="M99.83,114.56c-0.25,0.11-0.49,0.23-0.75,0.33C99.34,114.79,99.59,114.67,99.83,114.56z"/>
			<path class="st2" d="M97.67,115.36c-0.46,0.12-0.92,0.22-1.39,0.3C96.75,115.58,97.21,115.48,97.67,115.36z"/>
			<path class="st4" d="M102.45,112.95c-0.19,0.16-0.38,0.31-0.58,0.46C102.07,113.26,102.26,113.11,102.45,112.95z"/>
			<path class="st4" d="M101.22,113.82c-0.22,0.13-0.43,0.27-0.67,0.4C100.79,114.09,101,113.96,101.22,113.82z"/>
			<path class="st3" d="M86.95,96.55c0.16,0.1,0.33,0.2,0.5,0.3C87.28,96.76,87.12,96.66,86.95,96.55z"/>
			<path class="st2" d="M81.81,111.58c-0.19-0.18-0.38-0.37-0.56-0.55C81.43,111.22,81.61,111.4,81.81,111.58z"/>
			<path class="st2" d="M80.9,110.66c-0.19-0.21-0.36-0.44-0.54-0.66C80.53,110.22,80.71,110.45,80.9,110.66z"/>
			<path class="st5" d="M107.09,37.43c-0.02,0.03-0.04,0.06-0.06,0.1C107.05,37.5,107.07,37.46,107.09,37.43z"/>
			<path class="st5" d="M107.67,36.09c-0.03,0.09-0.06,0.18-0.09,0.27C107.61,36.27,107.64,36.18,107.67,36.09z"/>
			<path class="st5" d="M106.42,38.46c-0.06,0.08-0.11,0.15-0.17,0.23C106.31,38.62,106.37,38.54,106.42,38.46z"/>
			<path class="st2" d="M80.1,109.66c-0.25-0.34-0.47-0.7-0.68-1.07C79.62,108.96,79.85,109.32,80.1,109.66z"/>
			<path class="st3" d="M101.94,98.32c-0.4,0.15-0.81,0.28-1.24,0.39c0.42-0.11,0.83-0.24,1.22-0.39
				C101.93,98.33,101.94,98.32,101.94,98.32z"/>
			<path class="st5" d="M103.48,41.11c-0.22,0.13-0.43,0.27-0.67,0.4C103.05,41.39,103.26,41.25,103.48,41.11z"/>
			<path class="st5" d="M105.75,39.26c-0.16,0.17-0.31,0.35-0.49,0.51C105.43,39.61,105.59,39.43,105.75,39.26z"/>
			<path class="st5" d="M104.7,40.25c-0.19,0.15-0.37,0.31-0.58,0.46C104.33,40.56,104.51,40.4,104.7,40.25z"/>
			<path class="st3" d="M84.28,94.39c-0.12-0.12-0.24-0.24-0.35-0.37C84.04,94.14,84.17,94.26,84.28,94.39z"/>
			<path class="st3" d="M91.24,98.49c-0.18-0.05-0.35-0.11-0.52-0.17c0.13,0.04,0.26,0.1,0.4,0.14
				C91.16,98.47,91.2,98.48,91.24,98.49z"/>
			<path class="st3" d="M94.84,99.18c-0.18-0.02-0.35-0.03-0.53-0.05c0.07,0.01,0.13,0.02,0.2,0.03
				C94.62,99.17,94.73,99.17,94.84,99.18z"/>
			<path class="st3" d="M96.38,99.26c-0.18,0-0.37-0.01-0.55-0.01C96.02,99.25,96.2,99.25,96.38,99.26z"/>
			<path class="st3" d="M97.91,99.2c-0.16,0.01-0.32,0.02-0.48,0.03c0.12-0.01,0.24,0,0.35-0.01C97.83,99.21,97.87,99.2,97.91,99.2z
				"/>
			<path class="st2" d="M92.8,115.88c-0.33-0.01-0.66-0.03-1-0.06C92.14,115.85,92.47,115.87,92.8,115.88z"/>
			<path class="st3" d="M89.39,97.82c0.18,0.08,0.36,0.15,0.54,0.22C89.75,97.97,89.57,97.9,89.39,97.82z"/>
			<path class="st3" d="M92.75,98.88c0.08,0.02,0.16,0.03,0.24,0.04C92.91,98.91,92.83,98.9,92.75,98.88z"/>
			<path class="st3" d="M88.14,97.23c0.17,0.09,0.35,0.18,0.53,0.27C88.48,97.41,88.31,97.32,88.14,97.23z"/>
			<path class="st2" d="M95.82,115.72c-0.31,0.05-0.63,0.09-0.95,0.12C95.19,115.81,95.51,115.77,95.82,115.72z"/>
			<path class="st2" d="M91.28,115.77c-0.44-0.05-0.88-0.12-1.32-0.21C90.39,115.65,90.83,115.72,91.28,115.77z"/>
			<path class="st3" d="M98.85,99.08c0.16-0.02,0.31-0.04,0.47-0.06C99.16,99.04,99.01,99.06,98.85,99.08z"/>
			<path class="st2" d="M94.4,115.86c-0.35,0.02-0.7,0.03-1.06,0.03C93.7,115.9,94.05,115.89,94.4,115.86z"/>
			<path class="st2" d="M9.46,33.98c0,0.01,0,0.03-0.01,0.04c0,0,0,0,0,0C9.45,34.01,9.45,33.99,9.46,33.98z"/>
			<path class="st4" d="M110.96,18.47c-0.07,0.32-0.15,0.64-0.26,0.96c-0.02,0.07-0.04,0.14-0.06,0.2
				c-0.01,0.03-0.03,0.06-0.04,0.09c-0.13,0.35-0.28,0.68-0.46,1.01c-0.05,0.1-0.11,0.19-0.17,0.29c-0.15,0.26-0.32,0.52-0.5,0.77
				c-0.08,0.11-0.16,0.22-0.25,0.33c-0.14,0.18-0.3,0.34-0.45,0.51c-0.06,0.07-0.12,0.14-0.18,0.2c-0.08,0.08-0.15,0.17-0.23,0.24
				c-0.02,0.02-0.05,0.04-0.07,0.06c-0.17,0.16-0.37,0.32-0.56,0.47c-0.13,0.1-0.24,0.22-0.38,0.32c-0.07,0.05-0.15,0.1-0.22,0.15
				c-0.2,0.14-0.41,0.27-0.63,0.4c-0.11,0.07-0.21,0.14-0.32,0.21c-0.13,0.08-0.27,0.15-0.4,0.22c-0.21,0.11-0.44,0.21-0.66,0.31
				c-0.1,0.04-0.18,0.09-0.28,0.13c-0.14,0.06-0.27,0.12-0.42,0.18c-0.02,0.01-0.03,0.01-0.05,0.02c-0.45,0.17-0.92,0.34-1.41,0.47
				l-24.48,6.6l7.65,13.76l13.8-3.72c0.43-0.12,0.83-0.26,1.22-0.41c0.06-0.02,0.13-0.04,0.19-0.06c0.26-0.1,0.5-0.21,0.75-0.33
				c0.25-0.11,0.49-0.22,0.73-0.34c0.23-0.12,0.45-0.26,0.67-0.4c0.22-0.13,0.44-0.27,0.64-0.41c0.2-0.14,0.39-0.3,0.58-0.46
				c0.19-0.16,0.38-0.31,0.56-0.47c0.17-0.16,0.33-0.34,0.49-0.51c0.13-0.14,0.25-0.27,0.37-0.42c0.04-0.05,0.09-0.1,0.13-0.15
				c0.06-0.08,0.12-0.15,0.17-0.23c0.22-0.3,0.43-0.61,0.61-0.94c0.02-0.03,0.04-0.06,0.06-0.1c0.19-0.35,0.35-0.71,0.48-1.07
				c0.03-0.09,0.06-0.18,0.09-0.27c0.07-0.2,0.11-0.4,0.16-0.6c0.05-0.18,0.11-0.35,0.14-0.54L111,18.31
				C110.99,18.36,110.97,18.41,110.96,18.47z"/>
			<path class="st4" d="M27.47,46.28c-0.15,0.03-0.31,0.04-0.47,0.06c-0.31,0.05-0.63,0.09-0.94,0.12c-0.04,0-0.08,0.01-0.12,0.02
				L22.9,63.11c0.04,0,0.08,0,0.12-0.01c0.31-0.03,0.63-0.07,0.94-0.12c0.16-0.02,0.31-0.04,0.47-0.06c0.47-0.08,0.93-0.18,1.39-0.3
				l3.03-16.64C28.4,46.1,27.93,46.2,27.47,46.28z"/>
			<path class="st6" d="M25.58,46.49c-0.35,0.02-0.7,0.03-1.05,0.03c-0.18,0-0.37-0.01-0.55-0.01c-0.33-0.01-0.66-0.03-0.99-0.06
				c-0.18-0.02-0.35-0.03-0.53-0.05c-0.44-0.05-0.88-0.12-1.32-0.21c-0.08-0.02-0.16-0.02-0.24-0.04c-0.51-0.11-1.02-0.24-1.52-0.39
				c-0.18-0.05-0.35-0.11-0.52-0.17c-0.26-0.09-0.53-0.18-0.78-0.28c-0.18-0.07-0.36-0.15-0.54-0.22c-0.25-0.1-0.49-0.21-0.73-0.33
				c-0.18-0.08-0.35-0.17-0.53-0.27c-0.23-0.12-0.46-0.25-0.68-0.38c-0.17-0.1-0.34-0.2-0.5-0.3c-0.22-0.14-0.43-0.28-0.64-0.43
				c-0.16-0.11-0.31-0.22-0.46-0.34c-0.21-0.16-0.4-0.32-0.6-0.49c-0.14-0.12-0.28-0.24-0.42-0.36c-0.19-0.18-0.38-0.37-0.56-0.56
				c-0.12-0.12-0.24-0.24-0.35-0.37c-0.19-0.21-0.36-0.44-0.54-0.66c-0.09-0.11-0.18-0.22-0.26-0.33c-0.25-0.34-0.47-0.7-0.68-1.07
				c-0.17-0.31-0.32-0.62-0.45-0.94c-0.04-0.09-0.07-0.17-0.1-0.26c-0.1-0.26-0.19-0.52-0.27-0.78c-0.02-0.06-0.04-0.11-0.05-0.17
				C9.71,37.05,9.7,37.02,9.7,37c-0.08-0.29-0.13-0.58-0.18-0.87c-0.01-0.08-0.02-0.15-0.03-0.23c-0.03-0.25-0.05-0.5-0.06-0.75
				c0-0.08-0.01-0.15-0.01-0.23c0-0.04-0.01-0.09-0.01-0.13c0-0.26,0.02-0.52,0.04-0.78c0.01-0.05,0.02-0.1,0.02-0.16
				c0.02-0.17,0.04-0.33,0.07-0.49c0,0,0,0,0,0L6.51,50.01c-0.34,1.88-0.02,3.9,1.06,5.85c0.2,0.37,0.43,0.72,0.68,1.07
				c0.08,0.11,0.18,0.22,0.26,0.33c0.17,0.22,0.35,0.45,0.54,0.66c0.11,0.13,0.24,0.25,0.35,0.37c0.18,0.19,0.36,0.38,0.56,0.55
				c0.13,0.12,0.28,0.24,0.42,0.36c0.19,0.17,0.39,0.33,0.59,0.48c0.15,0.12,0.31,0.23,0.46,0.34c0.21,0.15,0.42,0.29,0.64,0.43
				c0.16,0.1,0.33,0.21,0.5,0.3c0.22,0.13,0.45,0.25,0.68,0.37c0.17,0.09,0.35,0.18,0.53,0.27c0.24,0.11,0.48,0.22,0.73,0.32
				c0.18,0.08,0.36,0.15,0.54,0.22c0.26,0.1,0.52,0.19,0.78,0.28c0.13,0.04,0.27,0.09,0.4,0.13c0.04,0.01,0.08,0.03,0.12,0.04
				c0.5,0.15,1,0.28,1.51,0.39c0.08,0.02,0.16,0.03,0.24,0.04c0.44,0.09,0.88,0.15,1.32,0.21c0.07,0.01,0.13,0.01,0.2,0.02
				c0.11,0.01,0.22,0.02,0.32,0.03c0.33,0.03,0.66,0.05,1,0.06c0.18,0.01,0.37,0.01,0.55,0.01c0.35,0,0.7-0.01,1.05-0.03
				c0.12-0.01,0.24-0.01,0.35-0.02l3.03-16.63C25.82,46.48,25.7,46.48,25.58,46.49z"/>
			<path class="st2" d="M9.46,33.98c0-0.04,0.01-0.08,0.02-0.12c-0.01,0.05-0.02,0.1-0.02,0.16C9.45,34.01,9.45,33.99,9.46,33.98z"
				/>
			<path class="st2" d="M10.15,38.28c-0.04-0.09-0.07-0.17-0.1-0.26C10.08,38.11,10.11,38.19,10.15,38.28z"/>
			<path class="st2" d="M9.52,36.14c-0.01-0.08-0.02-0.15-0.03-0.23C9.5,35.98,9.51,36.06,9.52,36.14z"/>
			<path class="st2" d="M9.42,35.16c0-0.08-0.01-0.15-0.01-0.23C9.41,35.01,9.42,35.08,9.42,35.16z"/>
			<path class="st2" d="M9.77,37.24c-0.02-0.06-0.04-0.11-0.05-0.17C9.73,37.12,9.75,37.18,9.77,37.24z"/>
			<path class="st6" d="M100.7,98.71c-0.46,0.12-0.92,0.22-1.39,0.3c-0.16,0.03-0.31,0.04-0.47,0.06c-0.31,0.05-0.63,0.09-0.94,0.12
				c-0.04,0-0.08,0.01-0.12,0.02l-3.03,16.63c0.04,0,0.08,0,0.12-0.01c0.32-0.03,0.63-0.07,0.95-0.12c0.15-0.02,0.31-0.04,0.46-0.06
				c0.47-0.08,0.93-0.18,1.39-0.3c0.43-0.12,0.83-0.26,1.22-0.41l3.03-16.62C101.53,98.47,101.13,98.6,100.7,98.71z"/>
			<path class="st6" d="M97.43,99.22c-0.35,0.02-0.7,0.03-1.05,0.03c-0.18,0-0.37-0.01-0.55-0.01c-0.33-0.01-0.66-0.03-1-0.06
				c-0.11-0.01-0.22-0.01-0.33-0.02l-3.03,16.63c0.11,0.01,0.22,0.02,0.32,0.03c0.33,0.03,0.66,0.05,1,0.06
				c0.18,0.01,0.37,0.01,0.55,0.01c0.35,0,0.7-0.01,1.06-0.03c0.12-0.01,0.24-0.01,0.35-0.02l3.03-16.63
				C97.67,99.22,97.55,99.22,97.43,99.22z"/>
			<path class="st6" d="M94.31,99.13c-0.44-0.05-0.88-0.12-1.32-0.21c-0.08-0.02-0.16-0.03-0.24-0.04
				c-0.51-0.11-1.02-0.24-1.51-0.39c-0.04-0.01-0.08-0.02-0.12-0.03l-3.03,16.63c0.04,0.01,0.08,0.03,0.12,0.04
				c0.5,0.15,1,0.28,1.52,0.39c0.08,0.02,0.16,0.03,0.24,0.04c0.44,0.09,0.88,0.15,1.32,0.21c0.07,0.01,0.13,0.01,0.2,0.02
				l3.03-16.63C94.44,99.15,94.38,99.14,94.31,99.13z"/>
			<path class="st6" d="M90.72,98.32c-0.26-0.09-0.53-0.18-0.79-0.28c-0.18-0.07-0.36-0.15-0.54-0.22c-0.25-0.1-0.49-0.21-0.73-0.33
				c-0.18-0.09-0.35-0.17-0.53-0.27c-0.23-0.12-0.46-0.25-0.68-0.38c-0.17-0.1-0.34-0.2-0.5-0.3c-0.22-0.14-0.43-0.28-0.64-0.43
				c-0.16-0.11-0.31-0.22-0.46-0.34c-0.21-0.16-0.4-0.32-0.6-0.49c-0.14-0.12-0.28-0.24-0.41-0.36c-0.19-0.18-0.38-0.37-0.56-0.56
				c-0.12-0.12-0.24-0.24-0.35-0.37c-0.19-0.21-0.36-0.44-0.54-0.66c-0.09-0.11-0.18-0.22-0.26-0.33c-0.25-0.34-0.47-0.7-0.68-1.07
				l-3.03,16.64c0.2,0.37,0.43,0.72,0.68,1.07c0.08,0.11,0.18,0.22,0.26,0.33c0.17,0.22,0.35,0.45,0.54,0.66
				c0.11,0.13,0.24,0.25,0.35,0.37c0.18,0.19,0.36,0.38,0.56,0.55c0.13,0.12,0.28,0.24,0.41,0.36c0.19,0.17,0.39,0.33,0.6,0.49
				c0.15,0.12,0.31,0.23,0.46,0.34c0.21,0.15,0.42,0.29,0.64,0.43c0.16,0.1,0.33,0.2,0.5,0.3c0.22,0.13,0.45,0.26,0.68,0.38
				c0.17,0.09,0.35,0.18,0.53,0.27c0.24,0.11,0.48,0.22,0.73,0.32c0.18,0.08,0.36,0.15,0.54,0.22c0.26,0.1,0.52,0.19,0.78,0.28
				c0.13,0.04,0.27,0.09,0.4,0.13l3.03-16.63C90.98,98.42,90.85,98.37,90.72,98.32z"/>
			<path class="st5" d="M102.17,98.23c-0.02,0.01-0.03,0.01-0.05,0.02c-0.06,0.02-0.11,0.05-0.18,0.08
				C102.02,98.29,102.09,98.26,102.17,98.23z"/>
			<path class="st4" d="M108.71,91.17c-0.07,0.32-0.15,0.64-0.26,0.96c-0.02,0.07-0.04,0.14-0.06,0.2
				c-0.01,0.03-0.03,0.06-0.04,0.09c-0.13,0.35-0.28,0.68-0.46,1.01c-0.05,0.1-0.11,0.19-0.17,0.29c-0.15,0.26-0.32,0.52-0.5,0.77
				c-0.08,0.11-0.16,0.22-0.25,0.33c-0.14,0.17-0.3,0.34-0.45,0.51c-0.06,0.07-0.12,0.14-0.18,0.21c-0.08,0.08-0.15,0.17-0.24,0.25
				c-0.02,0.02-0.05,0.04-0.07,0.06c-0.17,0.16-0.37,0.32-0.56,0.47c-0.13,0.11-0.24,0.22-0.38,0.32c-0.07,0.05-0.15,0.1-0.22,0.15
				c-0.2,0.14-0.41,0.27-0.63,0.4c-0.11,0.07-0.21,0.14-0.32,0.21c-0.13,0.08-0.27,0.15-0.4,0.22c-0.21,0.11-0.44,0.21-0.66,0.31
				c-0.1,0.04-0.18,0.09-0.28,0.13c-0.14,0.06-0.28,0.12-0.42,0.18c-0.08,0.03-0.15,0.06-0.23,0.09c-0.01,0-0.01,0-0.01,0.01
				l-3.03,16.62c0.06-0.02,0.13-0.04,0.19-0.06c0.26-0.1,0.5-0.21,0.75-0.33c0.25-0.11,0.49-0.22,0.73-0.34
				c0.23-0.12,0.45-0.26,0.67-0.4c0.22-0.13,0.44-0.27,0.64-0.41c0.2-0.15,0.39-0.3,0.58-0.46c0.19-0.16,0.38-0.31,0.56-0.47
				c0.17-0.16,0.33-0.34,0.49-0.51c0.13-0.14,0.25-0.27,0.37-0.42c0.04-0.05,0.09-0.1,0.13-0.15c0.06-0.08,0.12-0.15,0.17-0.23
				c0.22-0.3,0.43-0.61,0.61-0.93c0.02-0.03,0.04-0.06,0.06-0.1c0.19-0.35,0.35-0.71,0.48-1.07c0.03-0.09,0.06-0.18,0.09-0.27
				c0.07-0.2,0.11-0.4,0.16-0.6c0.05-0.18,0.11-0.35,0.14-0.54l3.03-16.64C108.74,91.07,108.72,91.12,108.71,91.17z"/>
		</g>
		<path class="st6" d="M63.36,31.19c3.69-0.99,5.33-4.21,3.68-7.18c-1.65-2.97-5.96-4.57-9.65-3.57c-3.69,0.99-5.35,4.2-3.7,7.17
			S59.67,32.19,63.36,31.19z"/>
		<path class="st6" d="M80.39,61.06c3.69-0.99,5.33-4.21,3.68-7.18c-1.65-2.97-5.96-4.57-9.65-3.57c-3.69,0.99-5.35,4.2-3.7,7.17
			C72.37,60.45,76.7,62.06,80.39,61.06z"/>
		<path class="st6" d="M27.93,40.73c3.69-0.99,5.35-4.21,3.7-7.18c-1.64-2.96-5.97-4.56-9.66-3.57c-3.69,0.99-5.33,4.21-3.69,7.17
			C19.93,40.12,24.24,41.73,27.93,40.73z"/>
		<path class="st6" d="M98.56,21.7c-3.68,0.99-8.01-0.61-9.66-3.58c-1.64-2.96,0.02-6.18,3.69-7.17c3.69-0.99,8.02,0.61,9.66,3.57
			C103.91,17.49,102.25,20.71,98.56,21.7z"/>
		<path class="st6" d="M97.26,92.5c3.69-0.99,5.34-4.2,3.69-7.17c-1.65-2.97-5.97-4.58-9.66-3.58c-3.69,0.99-5.35,4.21-3.7,7.18
			C89.24,91.9,93.57,93.49,97.26,92.5"/>
		<g>
			<polygon class="st4" points="43.42,42.05 28.85,45.98 25.82,62.62 50.22,56.04 53.25,39.4 			"/>
			<polygon class="st6" points="60.9,53.17 53.25,39.4 50.22,56.04 79.42,108.6 82.45,91.95 			"/>
		</g>
	</g>
</g>
</svg>
