<?xml version="1.0" encoding="utf-8"?>
<!-- Generator: Adobe Illustrator 24.0.0, SVG Export Plug-In . SVG Version: 6.00 Build 0)  -->
<svg version="1.1" id="Layer_1" xmlns="http://www.w3.org/2000/svg" xmlns:xlink="http://www.w3.org/1999/xlink" x="0px" y="0px"
	 viewBox="0 0 403.06 130.59" style="enable-background:new 0 0 403.06 130.59;" xml:space="preserve">
<style type="text/css">
	.st0{fill:#0D0D0D;}
	.st1{fill:#FFFFFF;}
</style>
<g>
	<g>
		<path class="st0" d="M132.02,75.38v-17.2h-5V46.23h5V35.52h14.85v10.71h9.85v11.96h-9.85v14.3c0,2.97,1.33,4.22,4.06,4.22
			c1.95,0,3.83-0.55,5.63-1.41v11.65c-2.66,1.49-6.18,2.42-10.32,2.42C137.34,89.38,132.02,85.47,132.02,75.38z"/>
		<path class="st0" d="M163.13,31.45h14.85v20.56c2.74-3.52,6.64-6.72,12.66-6.72c8.99,0,14.38,5.94,14.38,15.56v27.67h-14.85v-22.9
			c0-4.61-2.42-7.11-5.94-7.11c-3.6,0-6.25,2.5-6.25,7.11v22.9h-14.85V31.45z"/>
		<path class="st0" d="M210.57,76.4v-0.16c0-8.75,6.64-13.29,16.57-13.29c3.91,0,7.74,0.78,10.16,1.64v-0.7
			c0-4.38-2.74-6.88-8.44-6.88c-4.46,0-7.9,0.86-11.65,2.34l-3.05-10.47c4.77-1.95,9.85-3.28,17.12-3.28c7.58,0,12.74,1.8,16.1,5.16
			c3.21,3.13,4.53,7.5,4.53,13.45v24.31h-14.7v-4.38c-2.89,3.21-6.88,5.32-12.43,5.32C216.75,89.45,210.57,84.84,210.57,76.4z
			 M237.46,73.2v-1.96c-1.49-0.62-3.6-1.09-5.78-1.09c-4.3,0-6.8,2.11-6.8,5.24v0.16c0,2.89,2.19,4.61,5.24,4.61
			C234.41,80.15,237.46,77.42,237.46,73.2z"/>
		<path class="st0" d="M259.5,46.23h14.85v5.94c2.74-3.52,6.64-6.88,12.66-6.88c8.99,0,14.38,5.94,14.38,15.56v27.67h-14.85v-22.9
			c0-4.61-2.42-7.11-5.94-7.11c-3.6,0-6.25,2.5-6.25,7.11v22.9H259.5V46.23z"/>
		<path class="st0" d="M308.67,96.33l4.77-9.85c4.53,2.5,9.07,3.99,14.77,3.99c7.43,0,11.1-3.67,11.1-10.4v-1.64
			c-2.97,3.44-6.88,6.33-13.05,6.33c-10.4,0-18.76-7.5-18.76-19.62v-0.16c0-12.2,8.52-19.7,18.29-19.7c6.33,0,10.08,2.58,13.29,5.94
			v-5h14.85v32.13c0,7.74-1.72,13.13-5.47,16.88c-3.83,3.83-9.77,5.94-18.6,5.94C321.64,101.18,314.77,99.46,308.67,96.33z
			 M339.31,65.14v-0.16c0-4.69-3.6-8.13-8.6-8.13c-5.08,0-8.68,3.52-8.68,8.21v0.16c0,4.69,3.6,8.13,8.68,8.13
			C335.71,73.35,339.31,69.83,339.31,65.14z"/>
		<path class="st0" d="M358.69,83.2l5.55-8.99c4.85,3.21,10.16,4.85,14.54,4.85c2.58,0,3.75-0.78,3.75-2.27v-0.16
			c0-1.64-2.35-2.35-6.8-3.6c-8.36-2.19-15.01-5-15.01-13.52v-0.16c0-8.99,7.19-13.99,16.96-13.99c6.18,0,12.58,1.8,17.43,4.92
			l-5.08,9.38c-4.38-2.42-9.15-3.91-12.51-3.91c-2.27,0-3.44,0.86-3.44,2.03v0.16c0,1.64,2.42,2.42,6.88,3.75
			c8.36,2.34,15.01,5.24,15.01,13.45v0.16c0,9.3-6.96,14.15-17.28,14.15C371.59,89.45,364.56,87.42,358.69,83.2z"/>
	</g>
	<g>
		<g>
			<path class="st1" d="M120.18,12.83c-3.38-6.09-12.35-9.41-19.93-7.37L19.32,27.27c-5.15,1.39-8.38,4.92-8.86,8.95
				c-0.01,0.04-0.01,0.09-0.02,0.13c0,0.01,0,0.03-0.01,0.04c-0.03,0.33-0.04,0.66-0.04,0.99c0,0.08,0.01,0.17,0.01,0.25
				c0.01,0.27,0.03,0.54,0.07,0.81c0.01,0.08,0.02,0.17,0.03,0.25c0.05,0.34,0.13,0.68,0.22,1.02c0.02,0.06,0.04,0.12,0.06,0.19
				c0.08,0.29,0.18,0.57,0.3,0.86c0.04,0.09,0.07,0.19,0.11,0.28c0.15,0.34,0.31,0.68,0.49,1.02c0.22,0.4,0.47,0.79,0.74,1.17
				c0.09,0.12,0.19,0.24,0.29,0.36c0.19,0.25,0.38,0.49,0.59,0.73c0.12,0.14,0.26,0.27,0.38,0.4c0.2,0.21,0.4,0.41,0.61,0.61
				c0.15,0.13,0.3,0.26,0.45,0.39c0.21,0.18,0.43,0.36,0.65,0.53c0.16,0.13,0.33,0.25,0.5,0.37c0.23,0.16,0.46,0.32,0.7,0.47
				c0.18,0.11,0.36,0.22,0.55,0.33c0.24,0.14,0.49,0.28,0.75,0.41c0.19,0.1,0.38,0.2,0.57,0.29c0.26,0.13,0.53,0.24,0.8,0.35
				c0.2,0.08,0.39,0.17,0.59,0.24c0.28,0.11,0.57,0.21,0.86,0.3c0.19,0.06,0.38,0.13,0.57,0.19c0.54,0.16,1.1,0.31,1.66,0.42
				c0.09,0.02,0.17,0.03,0.26,0.05c0.48,0.09,0.96,0.17,1.44,0.23c0.19,0.02,0.38,0.04,0.58,0.06c0.36,0.03,0.72,0.06,1.09,0.07
				c0.2,0.01,0.4,0.01,0.6,0.01c0.38,0,0.77-0.01,1.15-0.04c0.17-0.01,0.35-0.01,0.52-0.03c0.34-0.03,0.69-0.08,1.03-0.13
				c0.17-0.02,0.34-0.04,0.51-0.07c0.51-0.09,1.01-0.2,1.51-0.33l15.92-4.29l10.73-2.89l8.35,15.03l23.54,42.36
				c0.22,0.4,0.47,0.79,0.74,1.17c0.09,0.12,0.19,0.24,0.29,0.36c0.19,0.25,0.38,0.49,0.59,0.73c0.12,0.14,0.26,0.27,0.39,0.4
				c0.2,0.21,0.4,0.41,0.61,0.61c0.15,0.13,0.3,0.26,0.45,0.39c0.21,0.18,0.43,0.36,0.65,0.53c0.16,0.13,0.33,0.25,0.5,0.37
				c0.23,0.16,0.46,0.32,0.7,0.47c0.18,0.11,0.36,0.22,0.55,0.33c0.24,0.14,0.49,0.28,0.75,0.41c0.19,0.1,0.38,0.2,0.57,0.29
				c0.26,0.13,0.53,0.24,0.8,0.36c0.2,0.08,0.39,0.17,0.59,0.24c0.28,0.11,0.57,0.21,0.86,0.3c0.19,0.06,0.38,0.13,0.57,0.19
				c0.54,0.16,1.1,0.31,1.65,0.42c0.09,0.02,0.18,0.03,0.26,0.05c0.48,0.09,0.96,0.17,1.44,0.23c0.19,0.02,0.38,0.04,0.58,0.06
				c0.36,0.03,0.72,0.06,1.09,0.07c0.2,0.01,0.4,0.01,0.6,0.01c0.38,0,0.77-0.01,1.15-0.04c0.17-0.01,0.35-0.01,0.52-0.03
				c0.34-0.03,0.69-0.08,1.03-0.13c0.17-0.02,0.34-0.04,0.51-0.07c0.51-0.09,1.01-0.2,1.51-0.33c0.54-0.15,1.05-0.32,1.54-0.51
				c0.02-0.01,0.04-0.01,0.05-0.02c0.16-0.06,0.31-0.13,0.46-0.19c0.11-0.05,0.2-0.1,0.31-0.15c0.25-0.11,0.49-0.22,0.73-0.34
				c0.15-0.08,0.3-0.16,0.44-0.24c0.12-0.07,0.23-0.15,0.35-0.22c0.23-0.14,0.47-0.28,0.68-0.44c0.08-0.06,0.16-0.1,0.24-0.16
				c0.15-0.11,0.27-0.23,0.41-0.35c0.21-0.17,0.42-0.34,0.61-0.52c0.03-0.02,0.05-0.04,0.08-0.07c0.09-0.09,0.17-0.18,0.26-0.27
				c0.07-0.07,0.13-0.15,0.2-0.22c0.17-0.18,0.34-0.36,0.49-0.55c0.09-0.12,0.18-0.24,0.27-0.36c0.2-0.27,0.38-0.55,0.55-0.84
				c0.06-0.1,0.13-0.21,0.18-0.31c0.19-0.36,0.36-0.73,0.5-1.11c0.01-0.03,0.03-0.06,0.04-0.1c0.03-0.07,0.04-0.15,0.07-0.22
				c0.11-0.34,0.21-0.69,0.28-1.05c0.43-2.1,0.1-4.37-1.12-6.57L94.18,49.87l-8.35-15.03l26.73-7.2c0.54-0.15,1.05-0.32,1.54-0.51
				c0.02-0.01,0.04-0.01,0.05-0.02c0.16-0.06,0.3-0.13,0.46-0.19c0.11-0.05,0.2-0.1,0.31-0.15c0.25-0.11,0.49-0.22,0.73-0.34
				c0.15-0.08,0.3-0.16,0.44-0.24c0.12-0.07,0.23-0.15,0.35-0.22c0.23-0.14,0.47-0.28,0.68-0.44c0.08-0.06,0.16-0.1,0.24-0.16
				c0.15-0.11,0.27-0.23,0.41-0.35c0.21-0.17,0.42-0.34,0.61-0.52c0.02-0.02,0.05-0.04,0.08-0.07c0.09-0.09,0.17-0.18,0.26-0.27
				c0.07-0.07,0.13-0.15,0.2-0.22c0.17-0.18,0.34-0.36,0.49-0.56c0.09-0.12,0.18-0.24,0.27-0.36c0.2-0.27,0.38-0.55,0.55-0.84
				c0.06-0.1,0.13-0.21,0.19-0.31c0.19-0.36,0.36-0.73,0.5-1.11c0.01-0.03,0.03-0.06,0.04-0.1c0.03-0.07,0.04-0.15,0.07-0.22
				c0.11-0.34,0.21-0.69,0.28-1.05C121.73,17.3,121.4,15.03,120.18,12.83z"/>
			<path class="st0" d="M69.32,33.3c4.03-1.09,5.82-4.6,4.02-7.84c-1.8-3.24-6.51-4.99-10.54-3.9c-4.03,1.09-5.85,4.59-4.05,7.83
				S65.29,34.39,69.32,33.3z"/>
			<path class="st0" d="M87.91,65.92c4.03-1.09,5.82-4.6,4.02-7.84c-1.8-3.24-6.51-4.99-10.54-3.9c-4.03,1.09-5.85,4.59-4.05,7.83
				C79.15,65.25,83.88,67.01,87.91,65.92z"/>
			<path class="st0" d="M30.62,43.72c4.03-1.09,5.84-4.6,4.04-7.85c-1.79-3.23-6.52-4.98-10.55-3.9c-4.03,1.09-5.82,4.6-4.03,7.83
				C21.87,43.05,26.59,44.81,30.62,43.72z"/>
			<path class="st0" d="M107.76,22.93c-4.01,1.08-8.75-0.67-10.55-3.91c-1.79-3.23,0.02-6.75,4.03-7.83
				c4.03-1.09,8.76,0.67,10.55,3.9C113.6,18.33,111.79,21.85,107.76,22.93z"/>
			<path class="st0" d="M106.33,100.25c4.03-1.09,5.83-4.58,4.03-7.83c-1.8-3.24-6.52-5-10.55-3.91c-4.03,1.09-5.84,4.6-4.04,7.85
				C97.58,99.6,102.3,101.34,106.33,100.25"/>
			<g>
				<path class="st0" d="M109.25,45.81c0.47-0.13,0.9-0.28,1.34-0.44c0.07-0.02,0.14-0.04,0.21-0.07c0.28-0.11,0.55-0.23,0.82-0.36
					c0.27-0.12,0.54-0.24,0.79-0.37c0.25-0.13,0.49-0.28,0.73-0.43c0.24-0.15,0.48-0.29,0.7-0.45c0.22-0.16,0.43-0.33,0.63-0.5
					c0.21-0.17,0.42-0.34,0.61-0.52c0.19-0.18,0.36-0.37,0.53-0.56c0.14-0.15,0.28-0.3,0.4-0.46c0.05-0.06,0.1-0.11,0.15-0.17
					c0.06-0.08,0.13-0.17,0.19-0.25c0.24-0.33,0.47-0.67,0.67-1.02c0.02-0.04,0.04-0.07,0.06-0.1c0.21-0.38,0.38-0.77,0.53-1.17
					c0.04-0.1,0.07-0.19,0.1-0.29c0.07-0.22,0.12-0.44,0.18-0.66c0.05-0.2,0.12-0.39,0.16-0.58l3.31-18.18
					c-0.01,0.06-0.03,0.11-0.05,0.17c-0.07,0.35-0.17,0.7-0.28,1.05c-0.02,0.07-0.04,0.15-0.07,0.22c-0.01,0.03-0.03,0.06-0.04,0.1
					c-0.14,0.38-0.31,0.75-0.5,1.11c-0.06,0.11-0.12,0.21-0.19,0.31c-0.17,0.29-0.35,0.57-0.55,0.84c-0.09,0.12-0.18,0.24-0.27,0.36
					c-0.15,0.19-0.32,0.37-0.49,0.56c-0.07,0.07-0.13,0.15-0.2,0.22c-0.09,0.09-0.17,0.18-0.26,0.27c-0.02,0.02-0.05,0.04-0.08,0.07
					c-0.19,0.18-0.4,0.35-0.61,0.52c-0.14,0.11-0.26,0.24-0.41,0.35c-0.08,0.06-0.16,0.11-0.24,0.16c-0.22,0.15-0.45,0.29-0.68,0.44
					c-0.12,0.07-0.23,0.15-0.35,0.22c-0.14,0.08-0.29,0.16-0.44,0.24c-0.23,0.12-0.48,0.23-0.73,0.34c-0.1,0.05-0.2,0.1-0.31,0.15
					c-0.15,0.06-0.3,0.13-0.46,0.19c-0.02,0.01-0.04,0.01-0.05,0.02c-0.5,0.19-1,0.37-1.54,0.51l-26.73,7.2l8.35,15.03L109.25,45.81
					z"/>
				<path class="st0" d="M118.56,99.86c-0.02,0.07-0.04,0.15-0.07,0.22c-0.01,0.03-0.03,0.06-0.04,0.1
					c-0.14,0.38-0.31,0.75-0.5,1.11c-0.06,0.11-0.12,0.21-0.18,0.31c-0.17,0.29-0.35,0.57-0.55,0.84c-0.09,0.12-0.18,0.24-0.27,0.36
					c-0.15,0.19-0.32,0.37-0.49,0.55c-0.07,0.07-0.13,0.15-0.2,0.22c-0.09,0.09-0.17,0.18-0.26,0.27c-0.02,0.02-0.05,0.04-0.08,0.07
					c-0.19,0.18-0.4,0.35-0.61,0.52c-0.14,0.11-0.26,0.24-0.41,0.35c-0.08,0.06-0.16,0.11-0.24,0.16c-0.22,0.15-0.45,0.29-0.68,0.44
					c-0.12,0.07-0.23,0.15-0.35,0.22c-0.14,0.08-0.29,0.16-0.44,0.24c-0.23,0.12-0.48,0.23-0.73,0.34c-0.1,0.05-0.2,0.1-0.31,0.15
					c-0.15,0.06-0.3,0.13-0.46,0.19c-0.02,0.01-0.04,0.01-0.05,0.02c-0.5,0.19-1,0.37-1.54,0.51c-0.5,0.13-1,0.24-1.51,0.33
					c-0.17,0.03-0.34,0.05-0.51,0.07c-0.34,0.05-0.68,0.1-1.03,0.13c-0.17,0.01-0.35,0.02-0.52,0.03c-0.38,0.02-0.77,0.04-1.15,0.04
					c-0.2,0-0.4-0.01-0.6-0.01c-0.36-0.01-0.73-0.04-1.09-0.07c-0.19-0.02-0.38-0.03-0.58-0.06c-0.48-0.06-0.96-0.13-1.44-0.23
					c-0.09-0.02-0.18-0.03-0.26-0.05c-0.56-0.12-1.11-0.26-1.65-0.42c-0.19-0.06-0.38-0.12-0.57-0.19c-0.29-0.1-0.58-0.19-0.86-0.3
					c-0.2-0.08-0.39-0.16-0.59-0.24c-0.27-0.11-0.54-0.23-0.8-0.36c-0.19-0.09-0.38-0.19-0.57-0.29c-0.25-0.13-0.5-0.27-0.75-0.41
					c-0.18-0.11-0.37-0.22-0.55-0.33c-0.24-0.15-0.47-0.31-0.7-0.47c-0.17-0.12-0.34-0.24-0.5-0.37c-0.22-0.17-0.44-0.35-0.65-0.53
					c-0.15-0.13-0.31-0.26-0.45-0.39c-0.21-0.2-0.41-0.4-0.61-0.61c-0.13-0.13-0.26-0.26-0.39-0.4c-0.21-0.23-0.4-0.48-0.59-0.73
					c-0.09-0.12-0.2-0.24-0.29-0.36c-0.27-0.38-0.52-0.76-0.74-1.17L66.62,57.3l-8.35-15.03l-10.73,2.89l-15.92,4.29
					c-0.5,0.13-1,0.24-1.51,0.33c-0.17,0.03-0.34,0.05-0.51,0.07c-0.34,0.05-0.68,0.1-1.03,0.13c-0.17,0.01-0.35,0.02-0.52,0.03
					c-0.38,0.02-0.77,0.04-1.15,0.04c-0.2,0-0.4-0.01-0.6-0.01c-0.36-0.01-0.72-0.04-1.09-0.07c-0.19-0.02-0.38-0.03-0.58-0.06
					c-0.48-0.06-0.97-0.13-1.44-0.23c-0.09-0.02-0.17-0.03-0.26-0.05c-0.56-0.12-1.11-0.26-1.66-0.42
					c-0.19-0.06-0.38-0.12-0.57-0.19c-0.29-0.1-0.57-0.19-0.86-0.3c-0.2-0.08-0.4-0.16-0.59-0.24c-0.27-0.11-0.53-0.23-0.8-0.35
					c-0.19-0.09-0.38-0.19-0.57-0.29c-0.25-0.13-0.5-0.27-0.75-0.41c-0.18-0.11-0.37-0.22-0.55-0.33c-0.24-0.15-0.47-0.31-0.7-0.47
					c-0.17-0.12-0.34-0.24-0.5-0.37c-0.22-0.17-0.44-0.35-0.65-0.53c-0.15-0.13-0.31-0.26-0.45-0.39c-0.21-0.2-0.41-0.4-0.61-0.61
					c-0.13-0.13-0.26-0.26-0.38-0.4c-0.21-0.23-0.4-0.48-0.59-0.73c-0.09-0.12-0.2-0.24-0.29-0.36c-0.27-0.38-0.52-0.76-0.74-1.17
					c-0.19-0.34-0.35-0.68-0.49-1.02c-0.04-0.09-0.08-0.19-0.11-0.28c-0.11-0.29-0.21-0.57-0.3-0.86c-0.02-0.06-0.04-0.12-0.06-0.19
					c-0.09-0.34-0.16-0.68-0.22-1.02c-0.01-0.08-0.02-0.17-0.03-0.25c-0.04-0.27-0.06-0.54-0.07-0.81c0-0.08-0.01-0.17-0.01-0.25
					c0-0.33,0.01-0.66,0.04-0.99c0-0.01,0-0.02,0-0.03c0.01-0.05,0.01-0.09,0.02-0.14c0.02-0.18,0.04-0.36,0.07-0.54c0,0,0,0,0,0
					L7.22,53.85c-0.37,2.05-0.03,4.26,1.16,6.39c0.22,0.4,0.47,0.79,0.74,1.17c0.09,0.13,0.19,0.24,0.29,0.36
					c0.19,0.25,0.38,0.49,0.59,0.72c0.12,0.14,0.26,0.27,0.39,0.4c0.2,0.21,0.4,0.41,0.61,0.6c0.15,0.14,0.3,0.26,0.46,0.39
					c0.21,0.18,0.43,0.36,0.65,0.53c0.17,0.13,0.34,0.25,0.51,0.37c0.23,0.16,0.46,0.32,0.7,0.47c0.18,0.11,0.36,0.22,0.55,0.33
					c0.24,0.14,0.49,0.28,0.74,0.41c0.19,0.1,0.38,0.2,0.58,0.29c0.26,0.12,0.53,0.24,0.79,0.35c0.2,0.08,0.39,0.17,0.59,0.24
					c0.28,0.11,0.57,0.2,0.86,0.3c0.15,0.05,0.29,0.1,0.44,0.14c0.04,0.01,0.09,0.03,0.13,0.04c0.54,0.16,1.09,0.31,1.65,0.42
					c0.09,0.02,0.18,0.03,0.26,0.05c0.48,0.09,0.96,0.17,1.44,0.23c0.07,0.01,0.15,0.01,0.22,0.02c0.12,0.01,0.24,0.02,0.35,0.03
					c0.36,0.03,0.72,0.06,1.09,0.07c0.2,0.01,0.4,0.01,0.6,0.01c0.38,0,0.77-0.01,1.15-0.04c0.13-0.01,0.26-0.01,0.39-0.02
					c0.04,0,0.09,0,0.13-0.01c0.34-0.03,0.69-0.08,1.03-0.13c0.17-0.02,0.34-0.04,0.51-0.07c0.51-0.09,1.01-0.2,1.51-0.33
					l26.65-7.18l31.89,57.4c0.22,0.4,0.47,0.79,0.74,1.17c0.09,0.13,0.19,0.24,0.29,0.36c0.19,0.25,0.38,0.49,0.59,0.72
					c0.12,0.14,0.26,0.27,0.39,0.4c0.2,0.21,0.4,0.41,0.61,0.61c0.15,0.13,0.3,0.26,0.45,0.39c0.21,0.18,0.43,0.36,0.65,0.53
					c0.16,0.13,0.33,0.25,0.5,0.37c0.23,0.16,0.46,0.32,0.7,0.47c0.18,0.11,0.36,0.22,0.55,0.33c0.24,0.14,0.49,0.28,0.75,0.41
					c0.19,0.1,0.38,0.2,0.57,0.29c0.26,0.12,0.53,0.24,0.8,0.35c0.2,0.08,0.39,0.17,0.59,0.24c0.28,0.11,0.57,0.21,0.86,0.3
					c0.15,0.05,0.29,0.1,0.44,0.14c0.04,0.01,0.09,0.03,0.13,0.04c0.54,0.16,1.1,0.31,1.66,0.42c0.09,0.02,0.17,0.03,0.26,0.05
					c0.48,0.09,0.96,0.17,1.44,0.23c0.07,0.01,0.15,0.01,0.22,0.02c0.12,0.01,0.24,0.02,0.35,0.03c0.36,0.03,0.72,0.06,1.09,0.07
					c0.2,0.01,0.4,0.01,0.6,0.01c0.38,0,0.77-0.01,1.15-0.04c0.13-0.01,0.26-0.01,0.39-0.02c0.04,0,0.09,0,0.13-0.01
					c0.35-0.03,0.69-0.08,1.03-0.13c0.17-0.02,0.34-0.04,0.5-0.07c0.51-0.09,1.01-0.2,1.51-0.33c0.47-0.13,0.9-0.28,1.34-0.44
					c0.07-0.02,0.14-0.04,0.21-0.07c0.28-0.11,0.55-0.23,0.82-0.36c0.27-0.12,0.54-0.24,0.79-0.37c0.25-0.13,0.49-0.28,0.73-0.43
					c0.24-0.15,0.48-0.29,0.7-0.45c0.22-0.16,0.43-0.33,0.63-0.5c0.21-0.17,0.42-0.34,0.61-0.52c0.19-0.18,0.36-0.37,0.54-0.56
					c0.14-0.15,0.28-0.3,0.4-0.45c0.05-0.06,0.1-0.11,0.15-0.16c0.07-0.08,0.13-0.17,0.19-0.25c0.24-0.33,0.47-0.67,0.66-1.02
					c0.02-0.04,0.04-0.07,0.06-0.1c0.21-0.38,0.38-0.77,0.53-1.17c0.04-0.1,0.07-0.19,0.1-0.29c0.07-0.22,0.12-0.44,0.18-0.66
					c0.05-0.2,0.12-0.39,0.16-0.58l3.31-18.18c-0.01,0.06-0.03,0.11-0.05,0.17C118.76,99.16,118.67,99.51,118.56,99.86z"/>
			</g>
		</g>
	</g>
</g>
</svg>
