<svg width="69" height="60" viewBox="0 0 69 60" fill="none" xmlns="http://www.w3.org/2000/svg">
<path d="M49.4306 0.909389H49.4354C59.7454 0.909389 68.1 9.24832 68.1 19.5308C68.1 23.9577 66.1881 28.4009 63.1953 32.6323C60.2068 36.8577 56.1899 40.8017 52.1016 44.211C43.9249 51.0298 35.5778 55.6154 34.9506 55.9492L34.9113 55.9701L34.8742 55.9948C34.6477 56.1458 34.3521 56.1457 34.1259 55.9949L34.0888 55.9702L34.0494 55.9492C33.4271 55.618 25.0787 50.9672 16.9 44.1144C12.8109 40.6882 8.79313 36.7354 5.804 32.5211C2.80981 28.2997 0.9 23.8899 0.9 19.5308C0.9 9.24831 9.25445 0.909389 19.5644 0.909389V0.909452L19.575 0.909327C25.0685 0.844621 30.2976 3.25546 33.8084 7.47015L34.4954 8.29489L35.1877 7.4746C38.723 3.28571 43.9411 0.880104 49.4306 0.909389Z" stroke="black" stroke-width="1.8"/>
<circle cx="34.5082" cy="56.0162" r="2.30816" fill="#FFBC00" stroke="black" stroke-width="1.4"/>
<circle cx="35.0082" cy="8.01621" r="2.30816" fill="#FFBC00" stroke="black" stroke-width="1.4"/>
<path d="M44.6889 6.2848C44.5781 5.87136 44.8232 5.44438 45.2416 5.3544C47.9763 4.76636 50.8245 4.92842 53.4823 5.83064C56.3852 6.81605 58.9308 8.64014 60.797 11.0723C62.6632 13.5044 63.7663 16.4353 63.9668 19.4943C64.1504 22.2951 63.5698 25.0881 62.294 27.5774C62.0988 27.9584 61.6229 28.0846 61.2522 27.8706C60.8815 27.6565 60.7566 27.1835 60.9497 26.8015C62.0734 24.5786 62.5837 22.0905 62.4201 19.5957C62.2397 16.8425 61.2469 14.2047 59.5673 12.0158C57.8877 9.82693 55.5967 8.18525 52.9841 7.29838C50.6166 6.49472 48.0813 6.34359 45.6433 6.85369C45.2243 6.94135 44.7997 6.69823 44.6889 6.2848Z" fill="black"/>
<circle cx="63.4612" cy="6.96928" r="1.76122" fill="#FFBC00" stroke="black" stroke-width="1.4"/>
<circle cx="5.46122" cy="6.96928" r="1.76122" fill="#FFBC00" stroke="black" stroke-width="1.4"/>
</svg>
