<svg width="71" height="72" viewBox="0 0 71 72" fill="none" xmlns="http://www.w3.org/2000/svg">
<path d="M35.5 13L59.5 24.5M35.5 13L11.5 24.5M35.5 13L45 2L69 13.5L59.5 24.5M35.5 13L26 2L2 13L11.5 24.5M59.5 24.5L35.5 36M59.5 24.5L69 35.5L60 39.8125M35.5 36L11.5 24.5M35.5 36L45 47L60 39.8125M35.5 36L26.5 47L11.5 39.9592M35.5 36V68.5M11.5 24.5L2 35.5L11.5 39.9592M35.5 68.5L60 57V39.8125M35.5 68.5L11.5 57.5V39.9592" stroke="black" stroke-width="1.8"/>
<circle cx="35.5" cy="13" r="1.3" fill="#FFBC00" stroke="black" stroke-width="1.4"/>
<circle cx="45" cy="2" r="1.3" fill="#FFBC00" stroke="black" stroke-width="1.4"/>
<circle cx="69" cy="14" r="1.3" fill="#FFBC00" stroke="black" stroke-width="1.4"/>
<circle cx="2" cy="13" r="1.3" fill="#FFBC00" stroke="black" stroke-width="1.4"/>
<circle cx="26" cy="2" r="1.3" fill="#FFBC00" stroke="black" stroke-width="1.4"/>
<circle cx="59.9612" cy="57.4612" r="1.76122" fill="#FFBC00" stroke="black" stroke-width="1.4"/>
<circle cx="59.4612" cy="24.4612" r="1.76122" fill="#FFBC00" stroke="black" stroke-width="1.4"/>
<circle cx="68.4612" cy="35.4612" r="1.76122" fill="#FFBC00" stroke="black" stroke-width="1.4"/>
<circle cx="2.46122" cy="35.4612" r="1.76122" fill="#FFBC00" stroke="black" stroke-width="1.4"/>
<circle cx="11.4612" cy="24.4612" r="1.76122" fill="#FFBC00" stroke="black" stroke-width="1.4"/>
<circle cx="11.4612" cy="57.4612" r="1.76122" fill="#FFBC00" stroke="black" stroke-width="1.4"/>
<circle cx="35.5082" cy="68.0082" r="2.30816" fill="#FFBC00" stroke="black" stroke-width="1.4"/>
<circle cx="35.5082" cy="36.0082" r="2.30816" fill="#FFBC00" stroke="black" stroke-width="1.4"/>
<circle cx="45.0082" cy="47.0082" r="2.30816" fill="#FFBC00" stroke="black" stroke-width="1.4"/>
<circle cx="26.0082" cy="47.0082" r="2.30816" fill="#FFBC00" stroke="black" stroke-width="1.4"/>
</svg>
