
<svg width="71" height="72" viewBox="0 0 71 72" fill="none" xmlns="http://www.w3.org/2000/svg">
<g clip-path="url(#clip0)">
<path d="M47.6393 11.7364C57.8319 21.9291 57.8319 38.4547 47.6393 48.6474C37.4466 58.8401 20.921 58.8401 10.7283 48.6474C0.535595 38.4547 0.535595 21.9291 10.7283 11.7364C20.921 1.54372 37.4466 1.54373 47.6393 11.7364Z" stroke="white" stroke-width="1.8"/>
<path d="M47.5686 48.5766L50.7505 51.7586M50.7505 51.7586L52.5183 49.9909C52.9088 49.6003 53.542 49.6003 53.9325 49.9909L65.2462 61.3046C65.6368 61.6951 65.6368 62.3283 65.2462 62.7188L63.4785 64.4865L61.7107 66.2543C61.3202 66.6448 60.687 66.6448 60.2965 66.2543L48.9828 54.9406C48.5923 54.5501 48.5923 53.9169 48.9828 53.5264L50.7505 51.7586Z" stroke="white" stroke-width="1.8"/>
<circle cx="66.0082" cy="62.0162" r="2.30816" fill="#232530" stroke="white" stroke-width="1.4"/>
<circle cx="61.0082" cy="67.0162" r="2.30816" fill="#232530" stroke="white" stroke-width="1.4"/>
<circle cx="47.0082" cy="48.0162" r="2.30816" fill="#232530" stroke="white" stroke-width="1.4"/>
<circle cx="11.0082" cy="11.0162" r="2.30816" fill="#232530" stroke="white" stroke-width="1.4"/>
<circle cx="53.4612" cy="49.4693" r="1.76122" fill="#232530" stroke="white" stroke-width="1.4"/>
<circle cx="48.4612" cy="54.4693" r="1.76122" fill="#232530" stroke="white" stroke-width="1.4"/>
<circle cx="10.4612" cy="47.9693" r="1.76122" fill="#232530" stroke="white" stroke-width="1.4"/>
<circle cx="47.9612" cy="11.4693" r="1.76122" fill="#232530" stroke="white" stroke-width="1.4"/>
<path d="M10.1258 30.0081C9.50403 30.0081 8.99669 29.5036 9.03167 28.8828C9.23202 25.3269 10.3791 21.8814 12.3634 18.9074C14.3478 15.9334 17.089 13.5516 20.2956 12.0016C20.8554 11.731 21.5159 12.0058 21.7546 12.5799V12.5799C21.9933 13.154 21.7194 13.8097 21.1616 14.0843C18.365 15.4609 15.9738 17.5533 14.2364 20.1571C12.499 22.761 11.4848 25.7722 11.2873 28.883C11.2479 29.5035 10.7476 30.0081 10.1258 30.0081V30.0081Z" fill="white"/>
<path d="M11.4556 37.0784C10.9 37.3023 10.2652 37.0342 10.0718 36.4674C9.74145 35.4994 9.48585 34.5074 9.30725 33.5003C9.20267 32.9105 9.62889 32.3691 10.2234 32.2966V32.2966C10.818 32.2242 11.3553 32.6483 11.4638 33.2373C11.6147 34.0569 11.8229 34.865 12.0869 35.6555C12.2766 36.2236 12.0111 36.8545 11.4556 37.0784V37.0784Z" fill="white"/>
</g>
<defs>
<clipPath id="clip0">
<rect width="71" height="71" fill="white" transform="translate(0 0.00805664)"/>
</clipPath>
</defs>
</svg>
