<svg width="71" height="72" viewBox="0 0 71 72" fill="none" xmlns="http://www.w3.org/2000/svg">
<g clip-path="url(#clip0)">
<path d="M52.4958 35.5081C52.4958 44.3636 50.5611 52.3361 47.4777 58.0623C44.3746 63.8252 40.2385 67.1081 35.8958 67.1081C31.553 67.1081 27.4169 63.8252 24.3138 58.0623C21.2304 52.3361 19.2958 44.3636 19.2958 35.5081C19.2958 26.6526 21.2304 18.68 24.3138 12.9538C27.4169 7.19087 31.553 3.90806 35.8958 3.90806C40.2385 3.90806 44.3746 7.19087 47.4777 12.9538C50.5611 18.68 52.4958 26.6526 52.4958 35.5081Z" stroke="black" stroke-width="1.8"/>
<path d="M44.1958 21.1321C51.8649 25.5599 57.802 31.2216 61.2194 36.755C64.6587 42.3238 65.4336 47.5472 63.2622 51.3081C61.0909 55.0691 56.1798 57.0096 49.6374 56.8155C43.1367 56.6227 35.2649 54.3119 27.5958 49.8842C19.9267 45.4564 13.9897 39.7946 10.5723 34.2612C7.133 28.6924 6.35804 23.4691 8.52942 19.7081C10.7008 15.9472 15.6118 14.0066 22.1542 14.2007C28.655 14.3936 36.5267 16.7044 44.1958 21.1321Z" stroke="black" stroke-width="1.8"/>
<path d="M27.5958 21.1321C35.2649 16.7044 43.1367 14.3936 49.6374 14.2007C56.1798 14.0066 61.0908 15.9472 63.2622 19.7081C65.4336 23.4691 64.6586 28.6924 61.2194 34.2612C57.802 39.7946 51.8649 45.4564 44.1958 49.8841C36.5267 54.3119 28.655 56.6227 22.1542 56.8155C15.6118 57.0096 10.7008 55.0691 8.52942 51.3081C6.35804 47.5472 7.133 42.3238 10.5723 36.755C13.9897 31.2216 19.9267 25.5599 27.5958 21.1321Z" stroke="black" stroke-width="1.8"/>
<circle cx="36" cy="36.0081" r="4.1" fill="#FFBC00" stroke="black" stroke-width="1.8"/>
<circle cx="36" cy="54.0081" r="1.3" transform="rotate(90 36 54.0081)" fill="#FFBC00" stroke="black" stroke-width="1.4"/>
<circle cx="36" cy="17.0081" r="1.3" transform="rotate(90 36 17.0081)" fill="#FFBC00" stroke="black" stroke-width="1.4"/>
<circle cx="23.0082" cy="14.0162" r="2.30816" fill="#FFBC00" stroke="black" stroke-width="1.4"/>
<circle cx="48.5082" cy="14.0162" r="2.30816" fill="#FFBC00" stroke="black" stroke-width="1.4"/>
<circle cx="48.5082" cy="57.0162" r="2.30816" fill="#FFBC00" stroke="black" stroke-width="1.4"/>
<circle cx="23.0082" cy="57.0162" r="2.30816" fill="#FFBC00" stroke="black" stroke-width="1.4"/>
<circle cx="60.4612" cy="35.4693" r="1.76122" fill="#FFBC00" stroke="black" stroke-width="1.4"/>
<circle cx="11.4612" cy="35.4693" r="1.76122" fill="#FFBC00" stroke="black" stroke-width="1.4"/>
</g>
<defs>
<clipPath id="clip0">
<rect width="71" height="71" fill="white" transform="translate(0 0.00805664)"/>
</clipPath>
</defs>
</svg>
