<svg width="98" height="167" xmlns="http://www.w3.org/2000/svg"><g fill="#B9B9BE" fill-rule="evenodd"><path d="M47.5 36.548a7.17 7.17 0 017.167 7.166 7.17 7.17 0 01-7.167 7.167 7.17 7.17 0 01-7.167-7.167 7.17 7.17 0 017.167-7.166m0 28.666c11.875 0 21.5-9.625 21.5-21.5s-9.625-21.5-21.5-21.5S26 31.84 26 43.714s9.625 21.5 21.5 21.5M41 14.214h14v-14H41zM98 79.633H83.48c0 7.085-3.492 13.326-8.798 17.28l-8.589-22.691c-4.16 2.54-8.857 4.213-13.91 4.913l7.964 22.143H34.215l7.964-22.143c-5.045-.707-9.75-2.374-13.902-4.92L0 148.904l10.882 17.31 18.15-50.507H61.7c1.198 0 2.33-.238 3.5-.353l18.28 50.86 10.882-17.31-14.476-38.233C90.66 104.41 98 92.91 98 79.632"/></g></svg>