<?xml version="1.0" encoding="UTF-8"?>
<svg width="20px" height="20px" viewBox="0 0 20 20" version="1.1" xmlns="http://www.w3.org/2000/svg" xmlns:xlink="http://www.w3.org/1999/xlink">
    <title>icon/success</title>
    <g id="Teams/Groups" stroke="none" stroke-width="1" fill="none" fill-rule="evenodd">
        <g id="New-Collection-Copy-5" transform="translate(-445.000000, -413.000000)" fill="#D8D8D8">
            <g id="icon/success" transform="translate(444.000000, 412.000000)">
                <g id="Group-5" transform="translate(1.000000, 1.000000)">
                    <path d="M10,2 C5.589,2 2,5.589 2,10 C2,14.411 5.589,18 10,18 C14.411,18 18,14.411 18,10 C18,5.589 14.411,2 10,2 M10,20 C4.486,20 0,15.514 0,10 C0,4.486 4.486,0 10,0 C15.514,0 20,4.486 20,10 C20,15.514 15.514,20 10,20" id="Fill-1"></path>
                    <polygon id="Fill-3" points="9.1597 14.9272 5.1167 10.8842 6.8837 9.1162 8.8407 11.0732 12.9827 5.2742 15.0167 6.7262"></polygon>
                </g>
            </g>
        </g>
    </g>
</svg>
