<svg width="16" height="16" viewBox="0 0 16 16" fill="none" xmlns="http://www.w3.org/2000/svg">
<path d="M16 2.44444V13.5556C16 14.9022 14.9022 16 13.5556 16H11.1111V9.77778H12.72C12.9467 9.77778 13.1378 9.60889 13.1644 9.38667L13.3289 8.05333C13.3467 7.92889 13.3067 7.8 13.2222 7.70667C13.1378 7.60889 13.0178 7.55556 12.8889 7.55556H11.1111V6C11.1111 5.51111 11.5111 5.11111 12 5.11111H12.8889C13.1333 5.11111 13.3333 4.91111 13.3333 4.66667V3.16444C13.3333 2.93778 13.1556 2.74667 12.9289 2.72444C12.9022 2.72 12.2756 2.66667 11.48 2.66667C9.52444 2.66667 8.44444 3.83111 8.44444 5.94222V7.55556H6.66667C6.42222 7.55556 6.22222 7.75556 6.22222 8V9.33333C6.22222 9.57778 6.42222 9.77778 6.66667 9.77778H8.44444V16H2.44444C1.09778 16 0 14.9022 0 13.5556V2.44444C0 1.09778 1.09778 0 2.44444 0H13.5556C14.9022 0 16 1.09778 16 2.44444Z" fill="black"/>
</svg>
