<svg width="16" height="16" viewBox="0 0 16 16" fill="none" xmlns="http://www.w3.org/2000/svg">
<path fill-rule="evenodd" clip-rule="evenodd" d="M14.6 2.5C14.6 3.10751 14.1075 3.6 13.5 3.6C12.8925 3.6 12.4 3.10751 12.4 2.5C12.4 1.89249 12.8925 1.4 13.5 1.4C14.1075 1.4 14.6 1.89249 14.6 2.5ZM16 2.5C16 3.88071 14.8807 5 13.5 5C12.8708 5 12.2959 4.76756 11.8565 4.38386L5.42777 8L11.8565 11.6161C12.2959 11.2324 12.8708 11 13.5 11C14.8807 11 16 12.1193 16 13.5C16 14.8807 14.8807 16 13.5 16C12.1193 16 11 14.8807 11 13.5C11 13.2559 11.035 13.02 11.1002 12.797L4.69648 9.19493C4.27259 9.97245 3.4479 10.5 2.5 10.5C1.11929 10.5 0 9.38071 0 8C0 6.61929 1.11929 5.5 2.5 5.5C3.44791 5.5 4.27259 6.02755 4.69648 6.80507L11.1002 3.20298C11.035 2.97998 11 2.74407 11 2.5C11 1.11929 12.1193 0 13.5 0C14.8807 0 16 1.11929 16 2.5ZM3.6 8C3.6 8.60751 3.10751 9.1 2.5 9.1C1.89249 9.1 1.4 8.60751 1.4 8C1.4 7.39249 1.89249 6.9 2.5 6.9C3.10751 6.9 3.6 7.39249 3.6 8ZM13.5 14.6C14.1075 14.6 14.6 14.1075 14.6 13.5C14.6 12.8925 14.1075 12.4 13.5 12.4C12.8925 12.4 12.4 12.8925 12.4 13.5C12.4 14.1075 12.8925 14.6 13.5 14.6Z" fill="black"/>
</svg>
