<svg width="16" height="16" viewBox="0 0 16 16" fill="none" xmlns="http://www.w3.org/2000/svg">
<path d="M15.8929 2.63997C15.7805 2.52378 15.6076 2.49064 15.4601 2.55845L15.3977 2.58702C15.3447 2.6114 15.2918 2.63578 15.2384 2.65978C15.3935 2.41255 15.5165 2.14817 15.6015 1.87465C15.6487 1.7238 15.5973 1.55885 15.4723 1.46133C15.3474 1.3638 15.1752 1.35352 15.04 1.43618C14.6053 1.70018 14.1878 1.89027 13.7562 2.02284C13.1048 1.39085 12.2175 1 11.2381 1C9.23929 1 7.61913 2.62016 7.61913 4.61899C7.61913 4.62089 7.61913 4.69632 7.61913 4.80946L7.23857 4.77898C3.53463 4.3409 2.48017 1.84951 2.43636 1.74208C2.36551 1.56304 2.20932 1.43237 2.02075 1.39314C1.83256 1.35314 1.63714 1.41218 1.50076 1.54818C1.42533 1.62399 0.762106 2.32569 0.762106 3.66662C0.762106 4.62203 1.188 5.39688 1.73923 5.99953C1.48247 5.84297 1.33276 5.71611 1.32895 5.71268C1.15334 5.55954 0.901913 5.52754 0.693154 5.63344C0.485158 5.73973 0.362494 5.96182 0.383446 6.19458C0.390684 6.27496 0.552967 7.7995 2.31408 8.95072L1.99294 9.00901C1.79828 9.04443 1.63561 9.17815 1.56323 9.36252C1.49124 9.54728 1.51943 9.75566 1.63828 9.91413C1.67828 9.96785 2.42227 10.9351 4.03786 11.4912C3.17502 11.7789 1.98951 12.0474 0.571633 12.0474C0.347637 12.0474 0.143831 12.1785 0.0512608 12.3827C-0.04169 12.5869 -0.00626205 12.8265 0.141545 12.9948C0.202877 13.0653 1.68971 14.7141 5.52393 14.7141C11.8907 14.7141 14.8571 8.80368 14.8571 4.80946V4.61899C14.8571 4.56261 14.851 4.50737 14.8487 4.45175C15.6457 3.68148 15.9455 3.10358 15.9599 3.07501C16.0319 2.93025 16.0053 2.75578 15.8929 2.63997Z" fill="black"/>
</svg>
