<svg width="16" height="16" viewBox="0 0 16 16" fill="none" xmlns="http://www.w3.org/2000/svg">
<path d="M4.84211 0C2.17221 0 0 2.17221 0 4.84211V11.1579C0 13.8278 2.17221 16 4.84211 16H11.1579C13.8278 16 16 13.8278 16 11.1579V4.84211C16 2.17221 13.8278 0 11.1579 0H4.84211ZM12.2105 2.94737C12.6758 2.94737 13.0526 3.32421 13.0526 3.78947C13.0526 4.25432 12.6758 4.63158 12.2105 4.63158C11.7453 4.63158 11.3684 4.25432 11.3684 3.78947C11.3684 3.32421 11.7453 2.94737 12.2105 2.94737ZM8 3.78947C10.3217 3.78947 12.2105 5.67832 12.2105 8C12.2105 10.3217 10.3217 12.2105 8 12.2105C5.67832 12.2105 3.78947 10.3217 3.78947 8C3.78947 5.67832 5.67832 3.78947 8 3.78947ZM8 5.05263C7.61295 5.05263 7.22968 5.12887 6.87209 5.27699C6.5145 5.42511 6.18958 5.64221 5.9159 5.9159C5.64221 6.18958 5.42511 6.5145 5.27699 6.87209C5.12887 7.22968 5.05263 7.61295 5.05263 8C5.05263 8.38705 5.12887 8.77032 5.27699 9.12791C5.42511 9.4855 5.64221 9.81042 5.9159 10.0841C6.18958 10.3578 6.5145 10.5749 6.87209 10.723C7.22968 10.8711 7.61295 10.9474 8 10.9474C8.38705 10.9474 8.77032 10.8711 9.12791 10.723C9.4855 10.5749 9.81042 10.3578 10.0841 10.0841C10.3578 9.81042 10.5749 9.4855 10.723 9.12791C10.8711 8.77032 10.9474 8.38705 10.9474 8C10.9474 7.61295 10.8711 7.22968 10.723 6.87209C10.5749 6.5145 10.3578 6.18958 10.0841 5.9159C9.81042 5.64221 9.4855 5.42511 9.12791 5.27699C8.77032 5.12887 8.38705 5.05263 8 5.05263Z" fill="black"/>
</svg>