<svg width="16" height="16" viewBox="0 0 16 16" fill="none" xmlns="http://www.w3.org/2000/svg">
<path fill-rule="evenodd" clip-rule="evenodd" d="M3.30748 4.91689C3.00608 5.23932 3.01583 5.74699 3.33206 6.05614L3.33322 6.05727C3.65335 6.36714 4.16276 6.35685 4.46872 6.03114L7.12465 3.20311V11.0319C7.12465 11.4735 7.47742 11.8408 7.925 11.8409C8.37259 11.8408 8.72563 11.4735 8.72563 11.0319V3.20311L11.3815 6.03111C11.5381 6.19669 11.7493 6.28298 11.9622 6.28298C12.1626 6.28298 12.3621 6.20706 12.5169 6.05742L12.5182 6.05614C12.8337 5.74772 12.8465 5.24018 12.5427 4.91684L7.92514 0L3.30748 4.91689ZM4.75599e-05 10.6837V12.5546C4.75599e-05 14.467 1.42934 16 3.28302 16H12.566C14.4206 16 15.8499 14.467 15.8499 12.5546V10.4675C15.8499 10.0259 15.497 9.65855 15.0493 9.65855C14.6015 9.65855 14.2486 10.0259 14.2486 10.4675V12.5546C14.2486 13.6245 13.5098 14.3821 12.5669 14.3821H3.283C2.34009 14.3821 1.60127 13.6246 1.60127 12.5546V10.358C1.60127 9.9164 1.24835 9.54906 0.800636 9.54906C0.352916 9.54906 0 9.91641 0 10.358L4.75599e-05 10.6837Z" fill="#FFBC00"/>
</svg>
