<svg width="16" height="16" viewBox="0 0 16 16" fill="none" xmlns="http://www.w3.org/2000/svg">
<path d="M9.08452 0.999991C8.96029 1.00142 8.84028 1.04522 8.74432 1.12412C8.64836 1.20303 8.58222 1.31233 8.55682 1.43394L7.7358 5.37357C5.95474 5.42341 4.34565 5.96505 3.15767 6.82599C2.83076 6.59289 2.432 6.45454 2 6.45454C0.895273 6.45454 0 7.34981 0 8.45454C0 9.23708 0.450205 9.91311 1.10511 10.2415C1.10111 10.3127 1.09091 10.3825 1.09091 10.4545C1.09091 13.2662 4.18436 15.5454 8 15.5454C11.8156 15.5454 14.9091 13.2662 14.9091 10.4545C14.9091 10.3825 14.8989 10.3127 14.8949 10.2415C15.5498 9.91311 16 9.23708 16 8.45454C16 7.34981 15.1047 6.45454 14 6.45454C13.568 6.45454 13.1692 6.59289 12.8423 6.82599C11.7846 6.05943 10.3929 5.54512 8.84375 5.40553L9.51562 2.18181L11.6825 2.59445C11.826 3.14007 12.319 3.54545 12.9091 3.54545C13.6109 3.54545 14.1818 2.97454 14.1818 2.27272C14.1818 1.5709 13.6109 0.999991 12.9091 0.999991C12.4885 0.999991 12.1175 1.2074 11.8857 1.52272L9.19318 1.00993C9.15738 1.003 9.12098 0.999665 9.08452 0.999991ZM5.27273 8.27272C5.97564 8.27272 6.54545 8.84254 6.54545 9.54545C6.54545 10.2484 5.97564 10.8182 5.27273 10.8182C4.56982 10.8182 4 10.2484 4 9.54545C4 8.84254 4.56982 8.27272 5.27273 8.27272ZM10.7273 8.27272C11.4302 8.27272 12 8.84254 12 9.54545C12 10.2484 11.4302 10.8182 10.7273 10.8182C10.0244 10.8182 9.45455 10.2484 9.45455 9.54545C9.45455 8.84254 10.0244 8.27272 10.7273 8.27272ZM5.63636 11.9091C5.77591 11.9091 5.91547 11.9623 6.02202 12.0689C6.04129 12.0867 6.64074 12.6364 7.99929 12.6364C9.37129 12.6364 9.97182 12.0747 9.97727 12.0689C10.1904 11.8558 10.5355 11.8558 10.7486 12.0689C10.9617 12.282 10.962 12.6275 10.7493 12.8402C10.6584 12.9311 9.81018 13.7266 8 13.7266C6.18982 13.7266 5.34162 12.9311 5.25071 12.8402C5.03762 12.6275 5.03762 12.282 5.25071 12.0689C5.35726 11.9623 5.49682 11.9091 5.63636 11.9091Z" fill="black"/>
</svg>
