<?xml version="1.0" encoding="UTF-8"?>
<svg width="24px" height="24px" viewBox="0 0 24 24" version="1.1" xmlns="http://www.w3.org/2000/svg" xmlns:xlink="http://www.w3.org/1999/xlink">
    <title>Group 3</title>
    <g id="Symbols" stroke="none" stroke-width="1" fill="none" fill-rule="evenodd">
        <g id="component/footer" transform="translate(-49.000000, -206.000000)" fill="#616168">
            <g id="Group" transform="translate(1.000000, 54.000000)">
                <g id="Group-3" transform="translate(48.000000, 152.000000)">
                    <path d="M17.9899,8.9884 C17.9959,9.1174 18.0019,9.2494 18.0019,9.3814 C18.0019,13.3849 14.9569,18.0004 9.3844,18.0004 C7.6744,18.0004 6.0859,17.4964 4.7464,16.6399 C4.9834,16.6669 5.2354,16.6819 5.4799,16.6819 C6.8989,16.6819 8.2249,16.1959 9.2629,15.3844 C7.9369,15.3604 6.8599,14.4844 6.4744,13.2799 C6.6604,13.3159 6.9334,13.3354 7.1284,13.3354 C7.4044,13.3354 7.8394,13.2979 8.0944,13.2289 C6.7084,12.9499 6.0004,11.7259 6.0004,10.2604 L6.0004,10.2184 C6.0004,10.4479 6.5404,10.5829 7.0369,10.5994 C6.2239,10.0549 5.3539,9.1294 5.3539,8.0779 C5.3539,7.5229 5.5024,7.0024 5.7634,6.5554 C7.2574,8.3884 9.4894,9.5944 12.0079,9.7204 C11.9554,9.4984 11.9284,9.2674 11.9284,9.0289 C11.9284,7.3564 13.2844,6.0004 14.9584,6.0004 C15.8299,6.0004 16.6159,6.3679 17.1694,6.9574 C17.8579,6.8224 18.5074,6.5704 19.0924,6.2224 C18.8659,6.9304 18.3859,7.5229 17.7619,7.8979 C18.3739,7.8244 18.9574,7.6609 19.5004,7.4209 C19.0939,8.0269 18.5839,8.5609 17.9899,8.9884 M22.5004,0.0004 L1.5004,0.0004 C0.6754,0.0004 0.0004,0.6754 0.0004,1.5004 L0.0004,22.5004 C0.0004,23.3254 0.6754,24.0004 1.5004,24.0004 L22.5004,24.0004 C23.3254,24.0004 24.0004,23.3254 24.0004,22.5004 L24.0004,1.5004 C24.0004,0.6754 23.3254,0.0004 22.5004,0.0004" id="Fill-1"></path>
                </g>
            </g>
        </g>
    </g>
</svg>