<?xml version="1.0" encoding="UTF-8"?>
<svg width="24px" height="24px" viewBox="0 0 24 24" version="1.1" xmlns="http://www.w3.org/2000/svg" xmlns:xlink="http://www.w3.org/1999/xlink">
    <title>Fill 4</title>
    <g id="Symbols" stroke="none" stroke-width="1" fill="none" fill-rule="evenodd">
        <g id="component/footer" transform="translate(-1.000000, -206.000000)" fill="#616168">
            <g id="Group" transform="translate(1.000000, 54.000000)">
                <path d="M16.5,159.5 L15,159.5 C13.725,159.5 13.5,159.5 13.5,162.5 L16.5,162.5 L16.5,165.5 L13.5,165.5 L13.5,171.5 L10.5,171.5 L10.5,165.5 L7.5,165.5 L7.5,162.5 L10.5,162.5 C10.5,160.2035 10.5,156.5 15,156.5 L16.5,156.5 L16.5,159.5 Z M22.5,152 L1.5,152 C0.675,152 0,152.675 0,153.5 L0,174.5 C0,175.325 0.675,176 1.5,176 L22.5,176 C23.325,176 24,175.325 24,174.5 L24,153.5 C24,152.675 23.325,152 22.5,152 L22.5,152 Z" id="Fill-4"></path>
            </g>
        </g>
    </g>
</svg>