<?xml version="1.0" encoding="UTF-8"?>
<svg width="24px" height="24px" viewBox="0 0 24 24" version="1.1" xmlns="http://www.w3.org/2000/svg" xmlns:xlink="http://www.w3.org/1999/xlink">
    <title>Fill 6</title>
    <g id="Symbols" stroke="none" stroke-width="1" fill="none" fill-rule="evenodd">
        <g id="component/footer" transform="translate(-97.000000, -206.000000)" fill="#616168">
            <g id="Group" transform="translate(1.000000, 54.000000)">
                <path d="M112.5,159.5 L117,159.5 L117,155 L112.5,155 L112.5,159.5 Z M117,173 L99,173 L99,164 L102,164 C102,167.309 104.6925,170 108,170 C111.3075,170 114,167.309 114,164 L117,164 L117,173 Z M108,161 C109.656,161 111,162.3455 111,164 C111,165.6545 109.656,167 108,167 C106.344,167 105,165.6545 105,164 C105,162.3455 106.344,161 108,161 L108,161 Z M99,152 L97.5,152 C96.6705,152 96,152.6705 96,153.5 L96,155 L96,164 L96,173 L96,174.5 C96,175.3295 96.6705,176 97.5,176 L99,176 L117,176 L118.5,176 C119.3295,176 120,175.3295 120,174.5 L120,173 L120,164 L120,155 L120,153.5 C120,152.6705 119.3295,152 118.5,152 L117,152 L99,152 Z" id="Fill-6"></path>
            </g>
        </g>
    </g>
</svg>