<svg xmlns="http://www.w3.org/2000/svg" xmlns:xlink="http://www.w3.org/1999/xlink" width="351" height="280" fill="none" xmlns:v="https://vecta.io/nano"><style><![CDATA[.B{fill:#000}.C{fill:#fed253}.D{opacity:.2}.E{opacity:.05}.F{fill:#3f3d56}.G{fill:#ffbc00}.H{opacity:.1}.I{fill:#be6f72}.J{fill:#fbbebe}.K{stroke-miterlimit:10}]]></style><g clip-path="url(#A)"><path d="M148.662 5.193c-43.101-16.502-93.105 7.93-124.109 50.385C15.415 68.11 7.701 82.912 4.293 99.647c-4.127 20.266-1.66 42.079 4.129 61.638 8.73 29.495 25.353 55.349 46.995 69.5s48.246 15.894 70.152 2.426c12.191-7.496 23.234-19.545 36.624-21.545 20.496-3.059 37.836 17.887 56.385 29.682 12.698 8.074 26.665 12.01 40.483 15.827 15.668 4.331 32.249 8.535 47.407 1.792 12.553-5.588 22.742-18.337 29.496-33.249s10.361-31.903 12.716-48.941c1.476-10.693 2.488-21.654 1.289-32.393-1.247-11.218-4.878-21.83-9.612-31.312-10.683-21.425-26.875-37.41-44.376-48.86s-36.407-18.697-55.24-25.66c-33.855-12.55-57.159-26.968-91.995-33.429l-.084.07z" class="G H"/><g class="F"><path d="M274.957 183.185c-7.904 25.827-11.077 75.117-11.077 75.117H72.936c.622-23.443-13.045-71.993-13.46-75.726-.352-3.119 12.3-19.252 16.486-24.495a4.386 4.386 0 013.423-1.648H251.97c.9.003 1.778.28 2.516.796a65.721 65.721 0 0120.152 22.622 4.391 4.391 0 01.32 3.334z"/><path d="M243.373 212.448H90.126v17.844h153.247v-17.844z"/></g><path d="M235.817 212.448H97.682c-4.173 0-7.556 3.389-7.556 7.57v2.704c0 4.181 3.383 7.57 7.556 7.57h138.135c4.173 0 7.556-3.389 7.556-7.57v-2.704c0-4.181-3.383-7.57-7.556-7.57z" fill="#fff" class="H"/><path d="M82.257 173.024s-9.528-29.46 6.213-33.611 50.127 1.246 50.127 1.246 26.924-13.693 57.988-2.905c0 0 44.317-13.277 53.015-.415s-2.07 35.685-2.07 35.685H82.256z" class="F"/><g class="B"><path d="M75.424 182.777l7.87-15.767 6.628 30.706-1.245 11.204-13.253-26.143zm180.58 0l-7.869-15.767-6.625 30.706 1.241 11.204 13.253-26.143z" class="H"/><path d="M89.342 196.878l149.683-.824 1.656 16.598-150.76-.412-.58-15.362z" class="H"/></g><path d="M163.612 196.79a1.547 1.547 0 0 0-.2.43l-.488 1.313-.236.609a15.745 15.745 0 0 1-.896 2.071c-.092.174-.21.334-.351.471-.148.134-.352.289-.296.476a1.53 1.53 0 0 0 .724 0 3.02 3.02 0 0 0 .844-.43l3.075-1.986a4.77 4.77 0 0 0 .945-.728 9.05 9.05 0 0 0 .64-.87c.625-.849 1.518-1.49 2.042-2.409a.115.115 0 0 0 .017-.049c0-.063-.087-.081-.154-.074-1.564.159-3.051.729-4.608.965-.334.032-.833-.081-1.058.211z" class="C"/><path d="M163.918 197.304c-.049.12-.091.271 0 .352l.099-.06-.116-.228m.351 1.211c-.049.116-.091.268 0 .352l.099-.06-.116-.225m-1.993 2.197c-.049.116-.088.267 0 .352l.095-.06-.116-.225m.717-.514c-.046.116-.088.268 0 .352l.098-.06-.116-.225m3.855-2.528c-.045.119-.088.267 0 .352l.099-.06-.116-.229m-1.251.257c-.046.12-.088.271 0 .352l.095-.06-.116-.229m-.425-.76c-.046.116-.088.268 0 .352l.094-.06-.116-.225m-1.841 1.792c-.035.067-.067.158 0 .208l.06-.039-.06-.127m-.703 1.183c-.032.071-.063.159 0 .208l.063-.039-.063-.127m2.46-1.609c-.032.071-.063.159 0 .211l.06-.038-.06-.127m-1.11 1.363c-.046-.064-.106-.134-.176-.113v.07h.14m-.284-1.232c-.046-.063-.109-.13-.176-.109v.071h.141m2.716-1.363c-.049.119-.092.271 0 .352l.098-.06-.116-.229m.714-.51c-.046.12-.088.271 0 .352l.095-.06-.112-.229m.267-1.042c-.035.07-.067.158 0 .208l.06-.039-.064-.127m-.689 1.197c-.035.071-.067.162 0 .211l.06-.038-.06-.127m1.35-.218c-.046-.064-.109-.134-.176-.113v.074h.14m-.284-1.232c-.046-.064-.109-.134-.176-.113v.074h.141m-2.534 2.186c-.046-.063-.109-.13-.176-.112v.074h.141m1.781-1.088c-.045-.064-.109-.134-.179-.113v.074h.141" class="B D"/><path d="M164.856 197.621c-.09.13-.159.274-.203.426l-.489 1.317-.232.609c-.254.71-.558 1.401-.91 2.067-.09.176-.209.336-.352.472s-.351.289-.291.479c.231.053.471.053.703 0a3.19 3.19 0 0 0 .847-.43l3.071-1.985c.346-.202.665-.447.949-.729a10.46 10.46 0 0 0 .64-.87c.622-.852 1.518-1.493 2.038-2.408a.085.085 0 0 0 0-.05c0-.067-.088-.081-.151-.077-1.567.162-3.054.732-4.607.968-.292.032-.788-.081-1.013.211z" class="C"/><path d="M165.159 198.135c-.046.12-.088.268 0 .352l.095-.063-.116-.225m.341 1.207c-.046.12-.088.271 0 .352l.095-.06-.113-.228m-1.978 2.2c-.046.12-.088.272 0 .353l.098-.06-.116-.229m.717-.511c-.046.12-.088.271 0 .352l.095-.06-.116-.228m3.859-2.521c-.046.116-.088.267 0 .352l.094-.06-.116-.225m-1.247.253c-.049.12-.091.268 0 .352l.099-.063-.116-.226m-.429-.76c-.049.116-.092.267 0 .352l.098-.06-.116-.229m-1.856 1.792c-.035.071-.066.159 0 .208l.064-.039-.064-.123m-.692 1.183c-.035.071-.067.159 0 .208l.06-.039-.064-.127m2.446-1.609c-.035.071-.066.159 0 .208l.064-.039-.064-.127m-1.092 1.363c-.046-.06-.109-.13-.176-.109v.071h.14m-.285-1.233c-.045-.064-.109-.134-.175-.113v.074h.14m2.713-1.362c-.045.119-.088.267 0 .352l.095-.064-.112-.225m.717-.511c-.049.12-.091.268 0 .353l.098-.064-.116-.225m.264-1.042c-.031.07-.063.158 0 .208l.063-.039-.063-.127m-.689 1.183c-.035.07-.067.158-.018.208l.064-.039-.064-.123m1.368-.204c-.046-.064-.109-.134-.176-.113v.074h.141m-.288-1.232c-.046-.064-.106-.134-.176-.113v.07h.141m-2.531 2.18c-.046-.064-.109-.134-.176-.113v.074h.14m1.779-1.081c-.046-.06-.109-.13-.176-.109v.07h.141" class="B D"/><path d="M156.573 196.375a1.46 1.46 0 0 0-.204.429l-.488 1.317-.236.609a15.96 15.96 0 0 1-.906 2.067 1.83 1.83 0 0 1-.352.472c-.148.134-.351.289-.292.475.233.05.474.044.703-.017.303-.098.589-.243.847-.43l3.072-1.982a4.85 4.85 0 0 0 .949-.733 9.85 9.85 0 0 0 .639-.869c.622-.849 1.519-1.49 2.039-2.405a.11.11 0 0 0 .017-.053c0-.063-.087-.081-.151-.074-1.567.162-3.054.729-4.607.965-.309.067-.805-.063-1.03.229z" class="C"/><path d="M156.872 196.889c-.046.119-.088.271 0 .352l.095-.06-.116-.229m.344 1.212c-.045.116-.088.267 0 .352l.095-.06-.112-.226m-1.979 2.208c-.046.12-.088.268 0 .352l.098-.06-.116-.225m.717-.525c-.045.12-.087.268 0 .352l.095-.06-.116-.225m3.859-2.528c-.045.12-.088.271 0 .352l.095-.06-.116-.229m-1.248.261c-.049.116-.091.267 0 .352l.099-.06-.116-.229m-.429-.763c-.049.119-.091.267 0 .352l.098-.064-.116-.225m-1.855 1.795c-.035.071-.067.159-.018.208l.063-.039-.063-.126m-.664 1.183c-.035.07-.067.158 0 .207l.06-.038-.063-.127m2.435-1.592c-.035.071-.067.162 0 .212l.063-.039-.063-.127m-1.093 1.363c-.046-.064-.109-.134-.176-.113v.074h.141m-.285-1.25c-.046-.063-.109-.134-.176-.113v.071h.141m2.713-1.359c-.046.116-.088.268 0 .352l.095-.06-.113-.229m.718-.514c-.05.12-.092.271 0 .352l.098-.059-.116-.229m.264-1.043c-.032.071-.064.159 0 .208l.063-.039-.063-.123m-.693 1.183c-.032.071-.063.159 0 .208l.063-.039-.063-.126m1.354-.205c-.046-.059-.109-.13-.176-.109v.071h.141m-.289-1.233c-.046-.063-.105-.134-.176-.113v.074h.141m-2.531 2.176c-.045-.06-.109-.13-.175-.109v.07h.14m1.779-1.077c-.046-.063-.109-.133-.176-.112v.074h.141" class="B D"/><path d="M162.783 194.717a1.541 1.541 0 0 0-.2.429l-.489 1.313-.235.61a15.886 15.886 0 0 1-.91 2.07 1.81 1.81 0 0 1-.352.468c-.147.134-.351.289-.292.479a1.57 1.57 0 0 0 .721 0 3.08 3.08 0 0 0 .843-.43l3.076-1.985c.344-.204.663-.448.948-.729.228-.278.441-.568.637-.87.625-.852 1.518-1.493 2.041-2.408a.106.106 0 0 0 0-.05c0-.063-.087-.08-.151-.077-1.567.162-3.054.732-4.607.968-.306.032-.805-.081-1.03.212z" class="C"/><path d="M163.089 195.23c-.049.12-.091.268 0 .353l.095-.064-.116-.225m.34 1.207c-.045.12-.087.272 0 .353l.095-.06-.116-.229m-1.975 2.204c-.045.116-.088.268 0 .352l.095-.06-.112-.225m.716-.511c-.049.116-.091.268 0 .352l.099-.06-.116-.228m3.855-2.528c-.049.12-.091.267 0 .352l.099-.06-.116-.225m-1.254.253c-.046.12-.088.271 0 .352l.098-.06-.116-.228m-.429-.761c-.045.116-.088.267 0 .352l.099-.06-.116-.225m-1.856 1.788c-.031.071-.063.159 0 .208l.063-.039-.063-.123m-.689 1.183c-.035.071-.067.159 0 .208l.063-.039-.063-.126m2.439-1.61c-.032.071-.063.159 0 .208l.063-.039-.063-.126m-1.09 1.362c-.045-.059-.108-.13-.175-.109v.071h.14m-.288-1.232c-.045-.064-.105-.134-.175-.113v.074h.14m2.717-1.363c-.049.12-.088.267 0 .352l.095-.063-.116-.226m.716-.51c-.045.119-.087.267 0 .352l.099-.064-.116-.225m.267-1.042c-.035.071-.067.159 0 .208l.06-.039-.06-.127m-.692 1.183c-.032.071-.064.159 0 .208l.063-.039-.063-.123m1.349-.204c-.045-.064-.105-.134-.175-.113v.074h.14m-.284-1.236c-.046-.063-.109-.133-.176-.112v.07h.141m-2.535 2.183c-.042-.063-.105-.134-.175-.113v.074h.14m1.782-1.077c-.046-.064-.109-.134-.176-.113v.071h.141" class="B D"/><use xlink:href="#B" class="C"/><g class="B"><use xlink:href="#B" class="E"/><path d="M161.845 194.399c-.046.12-.088.272 0 .353l.095-.06-.113-.229m.341 1.211c-.05.116-.092.267 0 .352l.098-.06-.116-.225m-1.978 2.197c-.049.116-.091.268 0 .352l.099-.06-.116-.225m.713-.514c-.046.116-.088.267 0 .352l.095-.06-.113-.225m3.856-2.528c-.046.119-.088.271 0 .352l.094-.06-.116-.229m-1.247.257c-.05.12-.092.271 0 .352l.095-.06-.116-.229m-.426-.76c-.049.12-.091.268 0 .352l.095-.059-.116-.226m-1.852 1.792c-.035.071-.066.159 0 .208l.06-.039-.088-.116m-.665 1.172c-.035.071-.066.159 0 .208l.06-.039-.06-.126m2.443-1.61c-.035.071-.067.159 0 .212l.06-.039-.081-.13m-1.054 1.366c-.045-.063-.109-.134-.175-.113v.074h.14m-.316-1.236c-.046-.059-.109-.13-.176-.109v.071h.141m2.727-1.363c-.046.12-.088.271 0 .352l.098-.059-.116-.229m.717-.515c-.049.12-.088.271 0 .352l.095-.06-.116-.228m.27-1.039c-.035.07-.066.159-.017.208l.063-.039-.063-.127m-.675 1.187c-.035.066-.067.158 0 .207l.063-.038-.063-.127m1.35-.204c-.046-.064-.109-.131-.176-.113v.074h.14m-.284-1.232c-.046-.064-.109-.134-.176-.113v.074h.14m-2.536 2.176c-.046-.063-.109-.13-.176-.109v.07h.141m1.791-1.077c-.045-.064-.108-.134-.175-.113v.074h.14" class="D"/></g><path d="M159.058 197.621c-.091.13-.159.274-.201.426l-.492 1.317-.232.609c-.254.71-.558 1.401-.91 2.067a1.77 1.77 0 0 1-.351.472c-.148.134-.352.289-.292.479.231.053.472.053.703 0 .302-.1.588-.245.847-.43l3.072-1.985a4.73 4.73 0 0 0 .948-.729c.23-.278.443-.568.64-.87.622-.852 1.518-1.493 2.038-2.408a.132.132 0 0 0 .022-.05c0-.067-.092-.081-.155-.077-1.568.162-3.054.732-4.608.968-.305.032-.804-.081-1.029.211z" class="C"/><path d="M159.36 198.135c-.046.12-.088.268 0 .352l.094-.063-.115-.225m.344 1.207c-.046.12-.088.271 0 .352l.099-.06-.116-.228m-1.979 2.2c-.049.12-.091.272 0 .353l.099-.06-.116-.229m.713-.511c-.046.12-.088.271 0 .352l.095-.06-.116-.228m3.858-2.521c-.045.116-.087.267 0 .352l.095-.06-.116-.225m-1.247.253c-.049.12-.091.268 0 .352l.098-.063-.116-.226m-.428-.76c-.049.116-.092.267 0 .352l.098-.06-.116-.229m-1.859 1.792c-.035.071-.067.159 0 .208l.063-.039-.063-.123m-.703 1.183c-.035.071-.067.159 0 .208l.06-.039-.06-.127m2.461-1.609c-.036.071-.067.159 0 .208l.059-.039-.063-.127m-1.094 1.363c-.045-.06-.108-.13-.175-.109v.071h.14m-.273-1.233c-.046-.064-.109-.134-.176-.113v.074h.141m2.702-1.362c-.046.119-.088.267 0 .352l.095-.064-.113-.225m.717-.511c-.049.12-.091.268 0 .353l.095-.064-.116-.225m.268-1.042c-.032.07-.064.158 0 .208l.063-.039-.063-.127m-.69 1.183c-.035.07-.067.158-.018.208l.064-.039-.064-.123m1.368-.204c-.046-.064-.109-.134-.176-.113v.074h.141m-.288-1.232c-.042-.064-.106-.134-.176-.113v.07h.141m-2.531 2.18c-.046-.064-.109-.134-.176-.113v.074h.141m1.778-1.081c-.046-.06-.109-.13-.176-.109v.07h.141" class="B D"/><use xlink:href="#C" class="C"/><g class="B"><use xlink:href="#C" class="E"/><path d="M166.403 193.987c-.049.116-.091.268 0 .352l.099-.059-.116-.229m.326 1.208c-.049.119-.091.267 0 .352l.095-.06-.116-.225m-1.965 2.196c-.045.12-.088.268 0 .353l.095-.064-.116-.225m.721-.511c-.05.12-.092.268 0 .352l.098-.06-.116-.225m3.856-2.528c-.049.12-.092.271 0 .352l.098-.06-.116-.228m-1.254.26c-.046.117-.088.268 0 .353l.094-.06-.112-.226m-.429-.768c-.046.12-.088.268 0 .352l.095-.063-.116-.225m-1.866 1.796c-.032.07-.064.158 0 .207l.059-.038-.059-.127m-.678 1.183c-.032.07-.064.158 0 .208l.063-.039-.063-.127m2.435-1.605c-.032.067-.063.158 0 .207l.063-.038-.063-.127m-1.086 1.362c-.046-.063-.105-.133-.176-.112v.074h.141m-.285-1.233c-.045-.063-.108-.133-.175-.112v.07h.14m2.717-1.359c-.049.116-.092.268 0 .352l.098-.06-.116-.225m.713-.514c-.045.116-.088.268 0 .352l.095-.06-.112-.229m.268-1.045c-.036.07-.067.158 0 .207l.059-.038-.059-.124m-.693 1.184c-.036.07-.067.158 0 .207l.059-.038-.059-.127m1.349-.204c-.045-.06-.109-.131-.175-.11v.071h.14m-.285-1.233c-.045-.063-.108-.134-.175-.112v.073h.14m-2.523 2.18c-.046-.064-.109-.134-.176-.113v.071h.141m1.771-1.078c-.046-.063-.109-.134-.176-.112v.073h.141" class="D"/></g><use xlink:href="#D" class="C"/><g class="B"><use xlink:href="#D" class="E"/><path d="M171.236 197.304c.049.12.091.271 0 .352l-.099-.06.116-.228m-.324 1.211c.049.116.091.268 0 .352l-.095-.06.116-.225m1.961 2.197c.046.116.088.267 0 .352l-.094-.06.116-.225m-.721-.514c.049.116.092.268 0 .352l-.098-.06.116-.225m-3.856-2.528c.049.119.092.267 0 .352l-.098-.06.116-.229m1.254.257c.046.12.088.271 0 .352l-.094-.06.112-.229m.429-.76c.046.116.088.268 0 .352l-.095-.06.116-.225m1.87 1.792c.032.067.063.158 0 .208l-.06-.039.06-.127m.675 1.183c.031.071.063.159 0 .208l-.063-.039.063-.127m-2.432-1.609c.031.071.063.159 0 .211l-.06-.038.06-.127m1.082 1.363c.046-.064.106-.134.176-.113v.07h-.141m.288-1.232c.046-.063.109-.13.176-.109v.071h-.141m-2.719-1.363c.049.119.091.271 0 .352l-.099-.06.116-.229m-.714-.51c.046.12.088.271 0 .352l-.095-.06.113-.229m-.267-1.042c.035.07.067.158 0 .208l-.06-.039.06-.127m.692 1.197c.035.071.067.162 0 .211l-.059-.038.059-.127m-1.349-.218c.045-.064.109-.134.175-.113v.074h-.14m.284-1.232c.046-.064.109-.134.176-.113v.074h-.141m2.528 2.186c.045-.063.109-.13.176-.112v.074h-.138m-1.778-1.088c.046-.064.109-.134.176-.113v.074h-.141" class="D"/></g><use xlink:href="#E" class="C"/><g class="B"><use xlink:href="#E" class="E"/><path d="M169.994 198.135c.046.12.088.268 0 .352l-.094-.063.116-.225m-.341 1.207c.046.12.088.271 0 .352l-.099-.06.116-.228m1.976 2.2c.049.12.091.272 0 .353l-.099-.06.116-.229m-.713-.511c.046.12.088.271 0 .352l-.095-.06.116-.228m-3.859-2.521c.045.116.088.267 0 .352l-.095-.06.116-.225m1.247.253c.05.12.092.268 0 .352l-.098-.063.116-.226m.429-.76c.049.116.091.267 0 .352l-.099-.06.116-.229m1.856 1.792c.035.071.066.159.017.208l-.063-.039.063-.123m.675 1.183c.035.071.067.159 0 .208l-.06-.039.06-.127m-2.442-1.609c.035.071.067.159 0 .208l-.06-.039.064-.127m1.089 1.363c.045-.06.109-.13.175-.109v.071h-.14m.285-1.233c.045-.064.109-.134.175-.113v.074h-.14m-2.713-1.362c.045.119.088.267 0 .352l-.095-.064.112-.225m-.716-.511c.049.12.091.268 0 .353l-.095-.064.116-.225m-.268-1.042c.032.07.064.158 0 .208l-.063-.039.063-.127m.689 1.183c.035.07.067.158 0 .208l-.063-.039.063-.123m-1.349-.204c.045-.064.109-.134.175-.113v.074h-.14m.288-1.232c.046-.064.106-.134.176-.113v.07h-.141m2.531 2.18c.045-.064.109-.134.175-.113v.074h-.14m-1.779-1.081c.046-.06.109-.13.176-.109v.07h-.141" class="D"/></g><use xlink:href="#F" class="C"/><g class="B"><use xlink:href="#F" class="E"/><path d="M174.549 195.646c.049.12.091.268 0 .352l-.095-.06.116-.225m-.34 1.204c.045.12.088.271 0 .352l-.095-.06.116-.229m1.974 2.201c.046.119.088.271 0 .352l-.095-.06.113-.229m-.716-.51c.049.12.091.271 0 .352l-.099-.06.116-.229m-3.855-2.521c.049.117.091.268 0 .352l-.099-.059.116-.226m1.255.254c.046.119.088.267 0 .352l-.098-.06.116-.225m.428-.768c.045.12.088.271 0 .352l-.099-.06.116-.229m1.856 1.796c.032.07.064.158 0 .208l-.063-.039.063-.127m.689 1.187c.035.067.067.158 0 .208l-.063-.039.063-.127m-2.439-1.609c.032.07.063.158 0 .208l-.063-.039.063-.127m1.09 1.363c.046-.064.109-.131.176-.113v.074h-.141m.288-1.232c.046-.064.106-.134.176-.113v.074h-.14m-2.718-1.363c.049.12.088.268 0 .352l-.095-.059.116-.226m-.717-.514c.046.12.088.268 0 .352l-.098-.06.116-.225m-.267-1.045c.035.07.067.158 0 .207l-.06-.038.06-.127m.692 1.183c.032.07.064.158 0 .207l-.063-.038.063-.127m-1.349-.201c.045-.063.105-.133.175-.112v.074h-.14m.285-1.233c.045-.063.109-.133.175-.112v.07h-.14m2.533 2.18c.046-.064.106-.134.176-.113v.074h-.141m-1.781-1.081c.046-.063.109-.13.176-.109v.07h-.141" class="D"/></g><use xlink:href="#G" class="C"/><g class="B"><use xlink:href="#G" class="E"/><path d="M159.226 196.062c.046.116.088.267 0 .352l-.095-.06.113-.226m-.341 1.205c.05.119.092.267 0 .352l-.098-.064.116-.225m1.978 2.201c.049.119.092.271 0 .352l-.098-.06.116-.229m-.714-.511c.046.12.088.272 0 .352l-.095-.059.113-.229m-3.855-2.521c.045.116.088.267 0 .352l-.095-.06.116-.225m1.248.253c.049.116.091.268 0 .352l-.095-.06.116-.225m.425-.767c.049.119.091.271 0 .352l-.095-.06.116-.229m1.852 1.795c.035.071.067.159 0 .208l-.06-.039.064-.126m.688 1.169c.035.07.067.158 0 .211l-.059-.039.059-.126m-2.442-1.595c.035.07.066.158 0 .207l-.06-.038.06-.127m1.093 1.363c.046-.064.109-.134.176-.113v.074h-.141m.285-1.226c.045-.063.109-.133.175-.112v.074h-.14m-2.713-1.37c.045.116.087.268 0 .352l-.099-.06.116-.225m-.717-.514c.049.116.088.267 0 .352l-.095-.06.116-.225m-.267-1.028c.032.067.064.158 0 .207l-.063-.038.063-.127m.689 1.165c.035.071.066.159 0 .208l-.064-.039.064-.126m-1.35-.194c.046-.064.109-.134.176-.113v.07h-.141m.285-1.239c.046-.063.109-.13.176-.109v.07h-.141m2.534 2.18c.046-.063.109-.134.176-.113v.074h-.14m-1.779-1.081c.045-.063.109-.133.176-.112v.074h-.141" class="D"/></g><path d="M170.712 194.301a1.47 1.47 0 0 1 .2.43l.492 1.313.232.609c.255.711.559 1.402.91 2.07.092.175.211.334.352.472s.351.285.291.475a1.5 1.5 0 0 1-.702-.017 3.09 3.09 0 0 1-.847-.43l-3.072-1.986a4.694 4.694 0 0 1-.949-.728 9.729 9.729 0 0 1-.64-.87c-.622-.849-1.518-1.489-2.038-2.408a.116.116 0 0 1-.021-.05c0-.063.088-.081.155-.074 1.567.159 3.054.729 4.607.965.306.049.805-.063 1.03.229z" class="C"/><path d="M170.409 194.805c.046.119.088.271 0 .352l-.094-.06.112-.229m-.341 1.221c.049.117.092.268 0 .352l-.098-.059.116-.226m1.978 2.198c.05.116.092.267 0 .352l-.098-.06.116-.226m-.714-.514c.046.116.088.268 0 .352l-.094-.06.112-.225m-3.855-2.528c.045.12.087.268 0 .352l-.095-.063.112-.225m1.255.257c.049.119.091.271 0 .352l-.095-.06.116-.229m.422-.761c.049.117.091.268 0 .352l-.095-.059.116-.226m1.852 1.782c.035.07.067.158 0 .211l-.059-.038.063-.127m.688 1.19c.035.07.067.158 0 .208l-.06-.039.06-.127m-2.442-1.609c.035.07.067.158 0 .208l-.06-.039.06-.123m1.093 1.362c.046-.063.109-.133.176-.112v.07h-.141m.284-1.232c.046-.063.109-.13.176-.113v.074h-.141m-2.716-1.363c.046.12.088.271 0 .352l-.099-.059.116-.229m-.72-.511c.046.12.088.271 0 .352l-.095-.06.116-.229m-.263-1.041c.035.07.067.158.017.207l-.063-.038.063-.127m.674 1.183c.036.07.067.158 0 .211l-.059-.039.063-.127m-1.353-.204c.046-.063.109-.134.176-.112v.074h-.141m.286-1.233c.045-.063.109-.134.175-.112v.074h-.14m2.533 2.175c.046-.063.109-.133.176-.112v.074h-.141m-1.778-1.078c.046-.063.105-.134.176-.112v.07h-.141" class="B D"/><path d="M178.581 196.375a1.36 1.36 0 0 1 .2.43l.492 1.316.232.609a16.32 16.32 0 0 0 .914 2.06c.091.175.209.335.351.472.148.134.352.289.292.475-.233.05-.473.044-.703-.017a3.035 3.035 0 0 1-.847-.43l-3.072-1.982a4.884 4.884 0 0 1-.949-.732 9.342 9.342 0 0 1-.639-.87c-.622-.849-1.519-1.49-2.039-2.405a.163.163 0 0 1-.021-.053c0-.063.092-.081.155-.074 1.567.162 3.054.729 4.607.965.303.074.802-.056 1.027.236z" class="C"/><path d="M178.278 196.889c.046.119.088.271 0 .352l-.095-.06.116-.229m-.341 1.212c.046.116.088.267 0 .352l-.098-.06.116-.226m1.975 2.208c.049.12.091.268 0 .352l-.098-.06.116-.225m-.714-.525c.046.12.088.268 0 .352l-.094-.06.116-.225m-3.859-2.528c.045.12.087.271 0 .352l-.095-.06.116-.229m1.247.261c.049.116.091.267 0 .352l-.098-.06.116-.229m.428-.763c.05.119.092.267 0 .352l-.098-.064.116-.225m1.863 1.795c.035.071.066.159 0 .208l-.064-.039.064-.14m.703 1.197c.035.07.067.158 0 .207l-.06-.038.06-.127m-2.46-1.592c.035.071.067.162 0 .212l-.06-.039.063-.127m1.089 1.363c.046-.064.109-.134.176-.113v.074h-.141m.278-1.25c.046-.063.109-.134.176-.113v.071h-.141m-2.706-1.359c.046.116.088.268 0 .352l-.095-.06.113-.229m-.717-.514c.049.12.091.271 0 .352l-.095-.059.116-.229m-.267-1.043c.031.071.063.159 0 .208l-.064-.039.064-.123m.688 1.183c.036.071.067.159.018.208l-.063-.039.063-.126m-1.366-.205c.045-.059.108-.13.175-.109v.071h-.14m.288-1.233c.045-.063.105-.134.175-.113v.074h-.14m2.53 2.176c.046-.06.109-.13.176-.109v.07h-.141m-1.778-1.077c.046-.063.109-.133.176-.112v.074h-.141" class="B D"/><path d="M176.096 197.621a1.34 1.34 0 0 1 .2.426l.492 1.317.232.609c.254.71.558 1.4.91 2.067a1.77 1.77 0 0 0 .352.472c.144.133.351.288.291.478a1.537 1.537 0 0 1-.72 0 3.143 3.143 0 0 1-.847-.429l-3.072-1.986a4.63 4.63 0 0 1-.948-.729 9.57 9.57 0 0 1-.651-.887c-.622-.852-1.518-1.493-2.038-2.408a.116.116 0 0 1-.021-.05c0-.067.091-.081.155-.077 1.567.162 3.054.732 4.607.968.334.049.833-.063 1.058.229z" class="C"/><path d="M175.793 198.135c.046.12.088.268 0 .352l-.095-.063.113-.225m-.341 1.207c.049.12.091.271 0 .352l-.098-.06.116-.228m1.978 2.2c.05.12.092.272 0 .353l-.098-.06.116-.229m-.713-.511c.045.12.088.271 0 .352l-.095-.06.112-.228m-3.855-2.521c.045.116.088.267 0 .352l-.095-.06.116-.225m1.248.253c.049.12.091.268 0 .352l-.109-.056.116-.226m.439-.767c.049.116.091.267 0 .352l-.095-.06.116-.229m1.852 1.792c.035.071.067.159 0 .208l-.06-.039.064-.123m.688 1.183c.035.071.067.159 0 .208l-.059-.039.059-.127m-2.442-1.609c.035.071.066.159 0 .208l-.06-.039.06-.127m1.079 1.363c.046-.06.109-.13.176-.109v.071h-.141m.316-1.233c.046-.064.109-.134.176-.113v.074h-.176m-2.696-1.362c.046.119.088.267 0 .352l-.098-.064.116-.225m-.717-.511c.049.12.088.268 0 .353l-.095-.064.116-.225m-.267-1.042c.032.07.064.158 0 .208l-.063-.039.063-.127m.689 1.183c.035.07.067.158 0 .208l-.063-.039.063-.123m-1.35-.204c.046-.064.109-.134.176-.113v.074h-.14m.285-1.232c.045-.064.109-.134.175-.113v.07h-.14m2.54 2.18c.046-.064.109-.134.176-.113v.074h-.14m-1.793-1.081c.046-.06.109-.13.176-.109v.07h-.137" class="B D"/><use xlink:href="#H" class="C"/><g class="B"><use xlink:href="#H" class="E"/><path d="M182.316 198.98c-.063.113-.154.236-.281.226v-.113l.246-.049m-1.16.475c-.063.109-.154.236-.281.222v-.113l.25-.049m-.503 2.912c-.063.109-.155.236-.281.225v-.113l.249-.052m-.052-.888c-.064.113-.155.24-.282.225v-.112l.246-.05m-.4-4.605c-.064.113-.155.239-.282.225v-.112l.246-.05m.556 1.141c-.063.109-.155.236-.281.222v-.113l.249-.049m.854-.148c-.063.109-.155.236-.281.226v-.113l.246-.049m-.253 2.559c-.035.071-.084.152-.154.141v-.07l.137-.028m-.517 1.264c-.035.07-.085.147-.155.14v-.074l.137-.028m-.27-2.929c-.035.07-.084.151-.155.141v-.071l.141-.031m-.411 1.693c.077 0 .172 0 .196.067l-.059.042-.092-.109m1.15-.538c.077 0 .172 0 .197.07l-.06.039-.091-.106m-.612-2.978c-.064.109-.155.236-.282.225v-.113l.246-.053m-.049-.887c-.063.113-.155.239-.281.225v-.112l.249-.05m.647-.869c-.031.067-.081.148-.151.141v-.074l.137-.028m-.516 1.27c-.035.071-.085.152-.155.141v-.074l.137-.028m-.696-1.197c.077 0 .172 0 .197.067l-.06.042-.091-.105m1.149-.542c.081 0 .172 0 .197.07l-.06.039-.091-.106m-.127 3.341c.078 0 .172 0 .197.071l-.06.039-.091-.106m-.253-2.067c.077 0 .172 0 .197.067l-.06.042-.091-.106" class="D"/></g><path d="M157.223 198.899a1.51 1.51 0 0 1-.21.426l-.728 1.201-.33.56a15.908 15.908 0 0 0-1.055 1.996c-.08.179-.132.369-.154.563 0 .198 0 .458-.194.525a1.528 1.528 0 0 1-.432-.577 2.988 2.988 0 0 1-.186-.93l-.352-3.648a5.099 5.099 0 0 1 0-1.197 10.09 10.09 0 0 1 .285-1.056c.278-1.018.225-2.113.619-3.095a.096.096 0 0 1 .028-.046c.049-.042.119.018.154.074.847 1.331 1.322 2.852 2.109 4.225.144.3.541.623.446.979z" class="C"/><path d="M156.64 198.98c-.064.113-.159.236-.285.226v-.113l.249-.049m-1.159.475c-.067.109-.158.236-.285.222v-.113l.25-.049m-.503 2.912c-.063.109-.155.236-.281.225v-.113l.249-.052m-.049-.888c-.063.113-.155.24-.285.225v-.112l.25-.05m-.418-4.605c-.063.113-.158.239-.285.225v-.112l.25-.05m.569 1.141c-.063.109-.155.236-.281.222v-.113l.249-.049m.858-.148c-.063.109-.158.236-.285.226v-.113l.25-.049m-.26 2.559c-.032.071-.084.152-.155.141v-.07l.137-.028m-.513 1.264c-.035.07-.084.147-.155.14v-.074l.138-.028m-.271-2.929c-.035.07-.084.151-.155.141v-.071l.137-.031m-.407 1.693c.077 0 .172 0 .197.067l-.06.042-.091-.109m1.148-.538c.078 0 .173 0 .197.07l-.06.039-.091-.106m-.608-2.978c-.063.109-.158.236-.285.225v-.113l.25-.053m-.049-.887c-.064.113-.155.239-.281.225v-.112l.249-.05m.647-.869c-.035.067-.084.148-.154.141v-.074l.137-.028m-.517 1.27c-.032.071-.081.152-.151.141v-.074l.137-.028m-.696-1.197c.077 0 .168 0 .196.067l-.059.042-.092-.105m1.15-.542c.077 0 .168 0 .196.07l-.059.039-.092-.106m-.129 3.341c.077 0 .172 0 .196.071l-.059.039-.092-.106m-.249-2.067c.077 0 .168 0 .196.067l-.059.042-.092-.106" class="B D"/><path d="M184.028 200.79a1.51 1.51 0 0 1-.352.32l-1.103.86-.51.408c-.601.455-1.168.952-1.698 1.489a1.772 1.772 0 0 0-.351.469c-.084.179-.169.426-.351.422a1.556 1.556 0 0 1-.201-.704c.004-.319.057-.635.158-.937l.967-3.521a4.71 4.71 0 0 1 .415-1.123c.194-.303.406-.595.636-.873.622-.848.963-1.898 1.68-2.669a.103.103 0 0 1 .042-.035c.06-.021.105.06.116.127.32 1.545.221 3.137.464 4.69.042.345.298.788.088 1.077z" class="C"/><path d="M183.448 200.667c-.099.081-.229.165-.352.109l.029-.109.253.042m-1.238.032c-.098.081-.228.165-.351.109l.028-.109.253.042m-1.49 2.542c-.098.081-.228.169-.351.109l.028-.109.25.042m.291-.841c-.098.081-.228.165-.351.109l.028-.109.253.042m1.265-4.447c-.102.081-.232.166-.352.109l.029-.109.249.042m.147 1.268c-.098.081-.232.166-.351.109l.028-.109.249.042m.887.176c-.099.081-.229.166-.352.109l.032-.112.249.042m-1.153 2.306c-.056.053-.13.113-.193.078v-.071l.141.021m-.907 1c-.056.057-.133.113-.193.078v-.071l.137.022m.832-2.831c-.056.053-.13.109-.193.077l.018-.07.14.021m-.994 1.437c.074.024.158.063.158.137h-.07l-.046-.13m1.265-.082c.074.025.158.064.158.134h-.07l-.046-.13m.489-2.986c-.098.081-.228.169-.351.11l.028-.11.249.043m.292-.842c-.098.081-.228.166-.351.109l.031-.109.25.042m.931-.574c-.06.053-.134.113-.197.078l.021-.071.137.022m-.924.999c-.056.057-.13.113-.193.078v-.071l.141.021m-.201-1.366c.074.025.158.064.158.138h-.07l-.046-.134m1.265-.074c.074.025.159.063.162.134h-.074l-.045-.13m-1.318 3.087c.073.025.158.064.158.134l-.07.018-.05-.131m.514-2.021c.073.025.158.064.158.134h-.071l-.045-.134" class="B D"/><use xlink:href="#I" class="C"/><g class="B"><use xlink:href="#I" class="E"/><path d="M180.348 197.72c.049.119.091.271 0 .352l-.095-.06.116-.229m-.341 1.211c.046.116.088.268 0 .352l-.095-.06.116-.228m1.975 2.2c.046.116.088.268 0 .352l-.094-.059.112-.226m-.717-.514c.049.116.091.268 0 .352l-.095-.06.116-.225m-3.858-2.528c.049.12.091.268 0 .352l-.095-.06.116-.225m1.251.26c.045.12.088.271 0 .352l-.099-.059.116-.229m.429-.768c.045.116.088.268 0 .352l-.099-.06.116-.225m1.856 1.789c.032.07.063.158 0 .211l-.063-.039.063-.127m.689 1.184c.035.07.067.158 0 .207l-.063-.038.063-.127m-2.439-1.609c.032.07.063.158 0 .207l-.063-.038.063-.127m1.09 1.366c.045-.063.109-.134.175-.112v.07h-.14m.288-1.232c.045-.064.105-.134.175-.113v.074h-.14m-2.717-1.363c.046.12.088.271 0 .352l-.095-.06.116-.228m-.721-.511c.05.12.092.271 0 .352l-.098-.059.116-.229m-.263-1.043c.032.071.063.159 0 .208l-.06-.039.06-.126m.692 1.182c.032.071.063.159 0 .212l-.063-.039.063-.127m-1.349-.204c.042-.063.105-.134.175-.113v.074h-.14m.284-1.232c.046-.063.109-.134.176-.113v.085h-.141m2.531 2.165c.045-.063.109-.134.175-.112v.059h-.14m-1.771-1.056c.046-.063.109-.133.176-.112v.07h-.141" class="D"/></g><path d="M174.855 193.47c.088.132.156.277.2.43l.489 1.316.235.61c.254.709.558 1.4.911 2.066.09.176.209.335.351.472.148.134.351.289.292.475a1.503 1.503 0 0 1-.721-.017 2.998 2.998 0 0 1-.843-.43l-3.082-1.982a5.036 5.036 0 0 1-.949-.732 9.134 9.134 0 0 1-.636-.87c-.626-.849-1.519-1.489-2.042-2.405a.119.119 0 0 1 0-.053c0-.063.087-.081.151-.074 1.567.162 3.054.733 4.607.965.313.049.812-.063 1.037.229z" class="C"/><path d="M174.549 193.987c.049.116.091.268 0 .352l-.095-.059.116-.229m-.34 1.208c.045.119.088.267 0 .352l-.095-.06.116-.225m1.974 2.196c.046.12.088.268 0 .353l-.095-.064.113-.225m-.716-.511c.049.12.091.268 0 .352l-.099-.06.116-.225m-3.855-2.528c.049.12.091.271 0 .352l-.099-.06.116-.228m1.255.26c.046.117.088.268 0 .353l-.098-.06.116-.226m.428-.768c.045.12.088.268 0 .352l-.099-.063.116-.225m1.856 1.796c.032.07.064.158 0 .207l-.063-.038.063-.127m.689 1.183c.035.07.067.158 0 .208l-.063-.039.063-.127m-2.439-1.605c.032.067.063.158 0 .207l-.063-.038.063-.127m1.09 1.362c.046-.063.109-.133.176-.112v.074h-.141m.288-1.233c.046-.063.106-.133.176-.112v.07h-.14m-2.718-1.359c.049.116.088.268 0 .352l-.095-.06.116-.225m-.717-.514c.046.116.088.268 0 .352l-.098-.06.116-.229m-.267-1.045c.035.07.067.158 0 .207l-.06-.038.06-.124m.692 1.184c.032.07.064.158 0 .207l-.063-.038.063-.127m-1.349-.204c.045-.06.105-.131.175-.11v.071h-.14m.285-1.233c.045-.063.109-.134.175-.112v.073h-.14m2.533 2.18c.046-.064.106-.134.176-.113v.071h-.141m-1.781-1.078c.046-.063.109-.134.176-.112v.073h-.141" class="B D"/><use xlink:href="#J" class="F"/><use xlink:href="#J" opacity=".25" class="B"/><path d="M269.404 155.12c2.812-.282 5.332-1.891 7.669-3.521a168.27 168.27 0 008.712-6.465c.766-.602 1.567-1.281 1.81-2.225.218-.849-.063-1.743-.352-2.574a411.731 411.731 0 00-4.343-12.13 20.19 20.19 0 00-4.513-7.746 424.458 424.458 0 00-8.294-9.489c-2.597-2.88-3.275-7.116-4.86-10.658a2.58 2.58 0 00-.668-1.014 2.332 2.332 0 00-1.371-.352 15.59 15.59 0 00-6.161.979c-1.36.511-2.78 1.384-3.103 2.817-.351 1.542.731 3.007 1.757 4.225a16.223 16.223 0 002.351 2.465c1.206.954 2.657 1.545 3.912 2.436a19.983 19.983 0 012.812 2.588c1.258 1.32 2.533 2.658 3.391 4.271.777 1.465 1.177 3.095 1.571 4.704l2.204 9.052 1.208 4.951a.86.86 0 01-.191.935.853.853 0 01-.279.184 18.573 18.573 0 00-3.968 4.166 5.22 5.22 0 00-.921 1.898 6.022 6.022 0 00.056 2.035c.422 2.905.97 5.602 1.571 8.468zM236.245 139.631a1.668 1.668 0 00.591 1.507 13.443 13.443 0 002.966 2.302c.222.103.415.259.562.455.086.16.137.336.151.517.408 3.081-.843 6.151-2.481 8.803a23.022 23.022 0 01-3.637 4.559 18.377 18.377 0 01-4.116 2.944c-2.516 1.32-5.395 2.049-8.22 1.76-2.826-.289-5.581-1.704-7.243-4.01-1.947-2.701-2.222-6.236-2.267-9.567-.032-1.985 0-4.052.914-5.823a3.774 3.774 0 011.332-1.56c.836-.511 1.897-.528 2.737-1.032a2.721 2.721 0 001.29-2.024c.035-.352.025-.704.267-.951.18-.142.398-.226.626-.243l6.888-1.172c2.488-.419 5.022-.842 7.553-.645.836.067 2.066-.017 2.312.954.246.972-.211 2.261-.225 3.226z" class="I"/><path d="M236.245 139.631a1.668 1.668 0 0 0 .591 1.507 13.443 13.443 0 0 0 2.966 2.302 1.48 1.48 0 0 1 .562.455c.086.16.137.336.151.517.408 3.081-.843 6.151-2.481 8.803a23.022 23.022 0 0 1-3.637 4.559 18.377 18.377 0 0 1-4.116 2.944c-2.516 1.32-5.395 2.049-8.22 1.76s-5.581-1.704-7.243-4.01c-1.947-2.701-2.222-6.236-2.267-9.567-.032-1.985 0-4.052.914-5.823a3.774 3.774 0 0 1 1.332-1.56c.836-.511 1.897-.528 2.737-1.032a2.721 2.721 0 0 0 1.29-2.024c.035-.352.025-.704.267-.951a1.15 1.15 0 0 1 .626-.243l6.888-1.172c2.488-.419 5.022-.842 7.553-.645.836.067 2.066-.017 2.312.954s-.211 2.261-.225 3.226z" class="B E"/><path d="M232.039 267.157c1.054 1.788 2.628 3.207 3.739 4.957.671 1.056 1.167 2.408.682 3.57-.408.972-1.406 1.56-2.358 1.986a16.408 16.408 0 01-8.302 1.285 6 6 0 01-1.514-.324c-1.568-.602-2.52-2.197-3.135-3.76a8.4 8.4 0 00-.805-1.743c-.703-.982-1.821-1.521-2.812-2.176-.991-.655-1.982-1.612-1.999-2.817a7.783 7.783 0 01.274-1.545c.176-.947.063-1.923.081-2.884.023-1.101.219-2.192.58-3.232.085-.331.267-.629.523-.856.23-.148.491-.241.763-.271a20.975 20.975 0 019.977.609c.64.201 1.863.423 2.334.902.397.401.351.919.422 1.461.2 1.697.726 3.34 1.55 4.838zM209.205 261.129c.506 3.661 1.019 7.341 2.151 10.858.197.609.408 1.282.151 1.866a2.144 2.144 0 01-.703.789c-2.499 1.958-6.013 2.039-9.102 1.328a21.001 21.001 0 01-5.103-1.902 1.577 1.577 0 01-.485-.352 1.61 1.61 0 01-.302-.687 18.853 18.853 0 011.609-13.414 5.667 5.667 0 011.287-1.733c.776-.644 1.788-.898 2.765-1.133 2.239-.539 4.569-1.335 6.843-1.62.661 1.782.629 4.109.889 6z" class="F"/><path d="M223.024 217.564c-5.166.18-10.245 1.5-15.414 1.616-2.46.053-5.029-.208-7.029-1.616-1.627-1.141-2.685-2.905-3.694-4.619-.808-1.374-1.624-2.768-2.084-4.3-.808-2.693-.45-5.584 0-8.362.351-2.162.836-4.496 2.488-5.933.991-.866 2.285-1.288 3.546-1.662 5.975-1.76 12.157-2.852 18.311-3.929 1.827-.324 3.662-.644 5.514-.789a28.86 28.86 0 0 1 13.291 2.113c1.888.789 3.747 1.831 4.97 3.472 1.437 1.94 1.813 4.51 1.529 6.911s-1.167 4.68-2.042 6.933l-2.812 7.285c-.594 1.535-.973 4.285-2.854 4.63-1.792.331-4.568-1-6.371-1.282a47.174 47.174 0 0 0-7.349-.468z" fill="#f86d70"/><path d="M226.806 142.321c7.777 0 14.082-6.317 14.082-14.108s-6.305-14.109-14.082-14.109a14.1 14.1 0 0 0-14.083 14.109c0 7.791 6.305 14.108 14.083 14.108z" class="I"/><g class="G"><path d="M225.783 157.958l6.112-6.979a20.852 20.852 0 0 1 1.736-1.831c.864-.771 1.884-1.433 2.421-2.465.84-1.609.253-3.573.176-5.351a.928.928 0 0 1 .436-.87c.404-.229.703.042 1.026.197.784.373 1.757.071 2.548.409.58.246.974.785 1.43 1.218s1.118.788 1.701.549c.303-.127.528-.394.826-.535.728-.352 1.557.186 2.362.186.703 0 1.346-.408 2.014-.647a8.575 8.575 0 0 1 2.267-.352l6.898-.483c.134 5.123-.924 10.211-2.154 15.183-1.251 5.063-2.527 10.193-5.054 14.756-1.103 1.989-2.442 3.873-2.811 6.225a5.683 5.683 0 0 0 .067 2.039 1.58 1.58 0 0 0 .351.792c.327 2.38-.162 4.982-1.589 6.915-.773 1.056-1.757 1.933-2.46 3.042s-1.054 2.574-.4 3.711c-2.172.704-4.443-.468-6.653-1.038-4.92-1.268-10.083.496-14.582 2.837-1.507.786-3.047 1.659-4.744 1.761-3.044.201-5.644-2.039-8.537-3.007-4.864-1.627-10.079.43-15.112 1.387-.703.138-1.518.24-2.144-.148s-.906-1.214-.984-1.971c-.291-2.817 1.238-5.454 2.039-8.169a16.524 16.524 0 0 0-1.195-12.028 10.863 10.863 0 0 1-1.132-6.813c.025-.141.046-.281.067-.419l1.764-11.394c.156-1.337.45-2.656.879-3.932 1.054-2.856 3.444-5.071 6.111-6.539s5.624-2.278 8.579-3.056a51.705 51.705 0 0 1 7.426-1.567c.352-.039.78-.049 1.012.225a1.03 1.03 0 0 1 .19.613c.088 1.408-.457 2.761-.52 4.158-.084 1.993.815 3.898 1.891 5.578 2.063 3.204 4.484 5.83 7.742 7.813z"/><path d="M256.099 142.522c.769-.874 1.985-1.159 3.124-1.409l2.987-.63a7.67 7.67 0 011.719-.229c.425 0 .843.085 1.265.078a6.47 6.47 0 001.884-.405l5.272-1.701c-1.758 2.444-1.969 5.634-1.997 8.637a35.77 35.77 0 00.134 3.873c.144 1.38.425 2.771.228 4.148-.225 1.595-1.054 3.324-.232 4.707.433.729 1.234 1.148 2.004 1.504a45.664 45.664 0 00-14.888 6.017c-1.086.683-2.161 1.426-3.391 1.792-.798.208-1.615.335-2.439.377l-2.615.229c-.45-6.243 1.48-12.38 3.385-18.341.499-1.553.994-3.109 1.602-4.626.538-1.349.984-2.916 1.958-4.021z"/></g><path d="M216.002 162.429a11.31 11.31 0 01-1.803.042.397.397 0 00-.432.352l-1.153 8.644a3.47 3.47 0 01-.734 1.712 3.734 3.734 0 00-.84 2.852v14.678s-.074 1.958 1.43 1.958c1.796.228 3.613.228 5.409 0 0 0 1.202-.225 1.202-2.031V176.2a3.533 3.533 0 00-.742-2.877 3.613 3.613 0 01-.703-1.701l-1.209-8.858a.397.397 0 00-.425-.335z" class="F"/><use xlink:href="#K" class="G"/><use xlink:href="#K" opacity=".25" class="B"/><path d="M189.286 183.988c-.313 1.694-.482 3.468 0 5.116s1.785 3.169 3.475 3.461c1.157.211 2.341-.141 3.409-.634l3.163-1.524c2.366-.852 5.015-.553 7.398.246.757.29 1.53.533 2.316.729.686.12 1.381.183 2.077.19 2.608.102 5.254.201 7.795-.398a4.565 4.565 0 0 0 1.989-.887 4.465 4.465 0 0 0 1.192-2.053c.615-1.919.703-4.147-.404-5.834-.802-1.229-2.144-2.025-3.55-2.465a18.939 18.939 0 0 0-4.347-.609 3.864 3.864 0 0 0-3.666 1.264l-1.789 1.599a4.41 4.41 0 0 1-1.181.845c-.378.14-.774.224-1.177.25a30.5 30.5 0 0 1-3.975.158c-.133-.806.352-1.602.31-2.415a2.603 2.603 0 0 0-1.255-1.986 6.15 6.15 0 0 0-2.291-.785c-1.8-.331-3.694-.423-5.43.155-2.689.922-3.578 2.971-4.059 5.577z" class="I"/><path d="M222.845 196.354c7.201-2.683 15.421-3.715 22.492-.705 1.216.522 2.534 1.363 2.657 2.683.06.61-.158 1.208-.281 1.807-.386 1.887.158 3.827.281 5.753s-.351 4.155-2.059 5.063c-.9 7.605-2.654 14.813-5.918 21.735a15.283 15.283 0 0 0-1.287 3.289c-.249 1.161-.197 2.366-.246 3.552-.151 3.616-1.254 7.116-2.347 10.563a13.38 13.38 0 0 1-.837 2.18c-.784 1.478-2.108 2.602-3.036 3.985s-1.469 3.331-.535 4.704c.556.81-1.405 1.321-2.393 1.338-4.298.076-8.596-.1-12.873-.528a1.283 1.283 0 0 1-.955-.307 1.305 1.305 0 0 1-.451-.897c-.422-1.496-.836-3.102-.351-4.577.26-.782.773-1.511.755-2.335 0-.704-.429-1.366-.597-2.067-.517-2.158 1.318-4.07 2.667-5.83 2.812-3.683 3.929-8.366 4.945-12.898a1701.488 1701.488 0 0 0 3.89-17.759c-1.089.859-.97 2.288-2.017 3.197-1.237 1.056-3.31.394-4.217-.951s-.998-3.091-.96-4.729c.116-5.446 1.779-11.157 3.673-16.266zm-9.552 1.996c-1.736-4.274-5.813-7.637-10.382-8.031s-9.394 2.514-10.75 6.922a17.55 17.55 0 0 0-.577 3.232c-1.219 10.915-1.219 22.13 1.49 32.788.556 2.197 1.23 4.38 1.427 6.633s-.133 4.644-1.427 6.503c-.351.521-.808 1.014-.98 1.627-.201.704-.021 1.437.161 2.141l2.274 8.869c.101.57.343 1.105.703 1.556.664.704 1.757.736 2.738.638a21 21 0 0 0 7.401-2.173c2.109-1.081 4.274-2.943 4.147-5.324-.031-.595-.207-1.211 0-1.76.213-.399.495-.757.833-1.056 1.234-1.373 1.515-3.398 1.181-5.211s-1.212-3.479-2.077-5.106.19-3.757.468-5.528c.963-6.133-1.02-12.569.702-18.534 1.266 1.102 3.255 1.856 4.545.785 1.149-.958 1.012-2.732.773-4.225-.801-4.933-.773-10.119-2.65-14.746z" fill="#f86d70"/><path d="M214.48 129.621c.461.465.601 1.338 1.157 1.619s1.275-.313 1.606-.996c.548-1.127.65-2.465.703-3.774s.101-2.638.544-3.828 1.406-2.218 2.503-2.183c.724.025 1.374.49 2.01.898a17.9 17.9 0 0 0 6.129 2.514c.626.123 1.29.208 1.866-.102a1.567 1.567 0 0 0 .703-1.827c1.508-.352 3.163.954 3.444 2.75.088.559.06 1.14.134 1.707.228 1.761 1.578 3.239 3.082 3.366a1.4 1.4 0 0 0 .84-.155c.404-.246.622-.764.815-1.25.809-2.024 1.627-4.098 1.817-6.337a23.53 23.53 0 0 0-.088-3.828c-.123-1.563-.263-3.19-.952-4.528-1.054-2.063-3.163-2.964-5.11-3.668a112.906 112.906 0 0 0-5.992-1.976 26.457 26.457 0 0 0-5.81-1.218 15.444 15.444 0 0 0-9.703 2.743 10.406 10.406 0 0 0-3.068 3.067 7.046 7.046 0 0 0-1.054 4.503c.161 1.225.703 2.331.98 3.521.45 1.94.179 4-.031 5.986a5.753 5.753 0 0 0 .091 2.394c.256.785.879 1.376 1.532.993.629-.321 1.135-1.109 1.852-.391z" class="F"/><path d="M190.403 168.996a23.286 23.286 0 0 0-.615 3.457l-.102 2.377c-.249 2.947-1.715 5.75-1.588 8.707a5.261 5.261 0 0 1 2.896-.426c-.26-.908.397-1.884 1.251-2.285s1.842-.377 2.783-.31c2.636.187 5.272.62 7.679 1.739a.405.405 0 0 0 .352.053c.151-.074.148-.285.148-.45-.022-1.437 1.483-2.433 1.841-3.824.257-1.004-.119-2.046-.394-3.046-1.054-3.76-.646-7.746-.955-11.64-.176-2.204-.703-4.577-2.404-5.986a5.268 5.268 0 0 0-5.536-.521c-4.066 2.018-4.47 8.303-5.356 12.155z" class="G"/><path d="M60.365 155.12c-2.811-.282-5.331-1.891-7.668-3.521a169.271 169.271 0 01-8.716-6.465c-.763-.602-1.564-1.281-1.806-2.225-.218-.848.063-1.743.35-2.574a390.833 390.833 0 014.345-12.122 26.857 26.857 0 011.992-4.423 26.537 26.537 0 012.52-3.324 424.976 424.976 0 018.294-9.489c2.598-2.88 3.272-7.115 4.86-10.657.137-.388.366-.737.669-1.014a2.33 2.33 0 011.37-.353c2.1-.088 4.195.248 6.161.99 1.36.51 2.78 1.384 3.103 2.817.352 1.542-.73 3.006-1.757 4.225a16.334 16.334 0 01-2.351 2.464c-1.209.955-2.657 1.546-3.912 2.437a20.118 20.118 0 00-2.811 2.588c-1.258 1.32-2.53 2.658-3.388 4.271-.777 1.464-1.177 3.095-1.571 4.704l-2.207 9.035-1.21 4.95a.864.864 0 00.468 1.12 18.515 18.515 0 013.972 4.165c.432.563.745 1.209.92 1.898a5.996 5.996 0 01-.056 2.035c-.422 2.905-.97 5.602-1.57 8.468zM93.524 139.631c.02.28-.013.56-.099.827a2.095 2.095 0 01-.495.68 13.512 13.512 0 01-2.963 2.303 1.488 1.488 0 00-.566.454c-.084.16-.134.337-.147.517-.408 3.081.843 6.152 2.48 8.803a23.01 23.01 0 003.635 4.549 18.365 18.365 0 004.119 2.943c2.516 1.321 5.394 2.05 8.22 1.761 2.826-.289 5.581-1.704 7.243-4.01 1.947-2.701 2.221-6.236 2.267-9.567.032-1.986 0-4.053-.914-5.824a3.779 3.779 0 00-1.332-1.559c-.836-.511-1.897-.528-2.737-1.032a2.724 2.724 0 01-1.29-2.025c-.035-.352-.025-.704-.267-.95a1.14 1.14 0 00-.626-.243l-6.888-1.173c-2.488-.419-5.022-.841-7.553-.644-.84.067-2.07-.018-2.312.954-.243.972.21 2.271.225 3.236z" class="J"/><path d="M93.524 139.631c.02.28-.013.56-.099.827a2.095 2.095 0 0 1-.495.68 13.512 13.512 0 0 1-2.963 2.303 1.488 1.488 0 0 0-.566.454 1.32 1.32 0 0 0-.147.517c-.408 3.081.843 6.152 2.48 8.803a23.01 23.01 0 0 0 3.635 4.549 18.365 18.365 0 0 0 4.119 2.943c2.516 1.321 5.394 2.05 8.22 1.761s5.581-1.704 7.243-4.01c1.947-2.701 2.221-6.236 2.267-9.567.032-1.986 0-4.053-.914-5.824a3.779 3.779 0 0 0-1.332-1.559c-.836-.511-1.897-.528-2.737-1.032a2.724 2.724 0 0 1-1.29-2.025c-.035-.352-.025-.704-.267-.95a1.14 1.14 0 0 0-.626-.243l-6.888-1.173c-2.488-.419-5.022-.841-7.553-.644-.84.067-2.07-.018-2.312.954s.21 2.271.225 3.236z" class="B E"/><path d="M97.73 267.157c-1.054 1.788-2.629 3.207-3.74 4.957-.674 1.056-1.17 2.408-.68 3.57.407.972 1.405 1.56 2.357 1.986a16.403 16.403 0 008.298 1.285 6.02 6.02 0 001.518-.324c1.568-.602 2.52-2.197 3.135-3.76.2-.61.471-1.195.805-1.743.685-.982 1.82-1.521 2.811-2.176.991-.655 1.983-1.612 2-2.817a7.783 7.783 0 00-.274-1.545c-.176-.947-.063-1.923-.084-2.884a10.437 10.437 0 00-.577-3.232 1.713 1.713 0 00-.523-.856 1.768 1.768 0 00-.763-.271 20.974 20.974 0 00-9.967.623c-.64.201-1.863.423-2.337.902-.394.401-.352.919-.418 1.461a13.287 13.287 0 01-1.56 4.824zM120.561 261.129c-.506 3.661-1.016 7.341-2.148 10.858-.196.609-.407 1.282-.151 1.866.166.318.407.589.703.789 2.499 1.958 6.013 2.039 9.103 1.328a21.017 21.017 0 005.103-1.902c.182-.085.347-.205.485-.352.153-.202.256-.437.302-.687a18.853 18.853 0 00-1.61-13.414 5.62 5.62 0 00-1.29-1.733c-.773-.644-1.785-.898-2.762-1.133-2.239-.539-4.569-1.335-6.846-1.62-.657 1.782-.626 4.109-.889 6z" class="F"/><path d="M106.745 217.564c5.166.18 10.245 1.5 15.415 1.616 2.46.053 5.025-.208 7.028-1.616 1.628-1.141 2.686-2.905 3.691-4.619.811-1.374 1.627-2.768 2.087-4.3.809-2.693.45-5.584 0-8.362-.351-2.162-.836-4.496-2.488-5.933-.995-.866-2.284-1.288-3.546-1.662-5.975-1.76-12.157-2.852-18.31-3.929-1.828-.324-3.662-.644-5.514-.789a28.864 28.864 0 0 0-13.292 2.113c-1.887.789-3.746 1.831-4.97 3.472-1.44 1.94-1.813 4.51-1.528 6.911s1.166 4.68 2.042 6.933l2.811 7.285c.594 1.535.974 4.285 2.85 4.63 1.796.331 4.57-1 6.376-1.282a47.164 47.164 0 0 1 7.348-.468z" fill="#e3e8f4"/><path d="M102.967 142.321c7.777 0 14.082-6.317 14.082-14.108s-6.305-14.109-14.082-14.109-14.082 6.317-14.082 14.109 6.304 14.108 14.082 14.108z" class="J"/><g class="G"><path d="M103.986 157.958l-6.111-6.979a20.868 20.868 0 0 0-1.736-1.831c-.865-.771-1.884-1.433-2.422-2.465-.84-1.609-.256-3.573-.176-5.351a.932.932 0 0 0-.435-.87c-.404-.229-.703.042-1.03.197-.78.373-1.757.071-2.545.409-.58.246-.973.785-1.43 1.218s-1.121.788-1.7.549c-.307-.127-.532-.394-.827-.535-.727-.352-1.56.186-2.361.186-.703 0-1.347-.408-2.018-.647a8.553 8.553 0 0 0-2.263-.352l-6.917-.476c-.13 5.123.928 10.211 2.158 15.183 1.251 5.063 2.527 10.193 5.054 14.756 1.104 1.989 2.443 3.873 2.812 6.225.099.678.076 1.368-.067 2.039a1.581 1.581 0 0 1-.352.792c-.33 2.38.162 4.982 1.585 6.915.777 1.056 1.758 1.933 2.46 3.042s1.055 2.574.401 3.711c2.172.704 4.442-.468 6.653-1.038 4.92-1.268 10.083.496 14.578 2.837 1.511.786 3.05 1.659 4.748 1.761 3.043.201 5.644-2.039 8.537-3.007 4.864-1.627 10.075.43 15.112 1.387.72.138 1.518.24 2.143-.148s.907-1.214.985-1.971c.291-2.817-1.238-5.454-2.039-8.169a16.504 16.504 0 0 1 1.195-12.028 10.884 10.884 0 0 0 1.132-6.813c-.025-.14-.046-.281-.067-.419l-1.747-11.401a19.683 19.683 0 0 0-.878-3.932c-1.072-2.856-3.445-5.071-6.112-6.539s-5.623-2.278-8.579-3.056a51.647 51.647 0 0 0-7.426-1.567c-.351-.039-.78-.049-1.012.225a1.035 1.035 0 0 0-.19.613c-.088 1.408.457 2.761.517 4.158.088 1.993-.812 3.898-1.891 5.578-2.059 3.204-4.481 5.83-7.739 7.813z"/><path d="M73.67 142.522c-.769-.874-1.988-1.159-3.124-1.409l-2.987-.63a7.696 7.696 0 00-1.722-.229c-.422 0-.84.085-1.262.078a6.47 6.47 0 01-1.883-.405l-5.272-1.701c1.757 2.444 1.968 5.634 1.996 8.637a34.86 34.86 0 01-.137 3.873c-.14 1.38-.422 2.771-.225 4.148.225 1.595 1.055 3.324.232 4.707-.436.729-1.233 1.148-2.003 1.504a45.67 45.67 0 0114.89 6.035c1.087.683 2.162 1.426 3.392 1.792.798.208 1.615.334 2.44.377l2.614.228c.45-6.242-1.48-12.379-3.385-18.34-.499-1.553-.994-3.109-1.602-4.627-.541-1.366-.998-2.933-1.961-4.038z"/></g><path d="M105.209 179.777a1.519 1.519 0 0 0-.2.43l-.489 1.316-.235.61a15.9 15.9 0 0 1-.911 2.066c-.09.176-.209.335-.351.472-.148.134-.352.289-.295.476a1.53 1.53 0 0 0 .724-.018 3.01 3.01 0 0 0 .843-.43l3.075-1.982c.344-.205.661-.451.946-.732.231-.277.444-.567.639-.87.626-.849 1.519-1.489 2.042-2.405a.158.158 0 0 0 .018-.053c0-.063-.088-.081-.155-.074-1.564.159-3.05.729-4.604.965-.32.05-.819-.063-1.047.229z" class="C"/><path d="M105.519 180.291c-.05.12-.092.271 0 .352l.098-.06-.116-.229m.338 1.211c-.05.117-.092.268 0 .353l.094-.06-.116-.226m-1.975 2.198c-.045.119-.087.267 0 .352l.095-.06-.116-.226m.721-.514c-.049.12-.092.268 0 .352l.098-.059-.116-.226m3.848-2.528c-.049.12-.091.271 0 .352l.099-.059-.116-.229m-1.248.26c-.045.116-.087.268 0 .352l.095-.06-.112-.229m-.429-.764c-.046.12-.088.268 0 .353l.095-.06-.113-.226m-1.855 1.793c-.032.07-.064.158 0 .208l.059-.039-.059-.127m-.693 1.183c-.031.07-.063.158 0 .208l.064-.039-.064-.127m2.443-1.609c-.032.07-.063.162 0 .211l.063-.038-.063-.127m-1.093 1.362c-.042-.063-.105-.133-.176-.112v.074h.141m-.285-1.232c-.045-.064-.109-.134-.176-.113v.07h.141m2.716-1.363c-.049.12-.091.272 0 .352l.099-.059-.116-.229m.714-.511c-.046.12-.088.271 0 .352l.095-.06-.113-.228m.267-1.042c-.035.07-.067.158 0 .207l.06-.038-.06-.124m-.693 1.184c-.035.07-.066.158 0 .207l.06-.038-.06-.127m1.368-.205c-.046-.06-.109-.13-.176-.109v.071h.141m-.317-1.233c-.046-.063-.109-.133-.176-.112v.074h.141m-2.52 2.175c-.046-.059-.109-.13-.176-.109v.071h.141m1.782-1.078c-.046-.063-.109-.133-.176-.112v.074h.141" class="B D"/><path d="M106.457 180.608c-.091.13-.159.275-.2.429l-.492 1.314-.232.609a16.15 16.15 0 0 1-.911 2.07 1.89 1.89 0 0 1-.351.472c-.148.134-.352.285-.292.475.237.058.484.058.721 0 .302-.1.587-.244.847-.429l3.071-1.986c.346-.202.665-.447.949-.729a9.73 9.73 0 0 0 .64-.87c.622-.848 1.518-1.493 2.038-2.408a.118.118 0 0 0 .021-.049c0-.064-.091-.081-.154-.074-1.568.158-3.054.728-4.608.964-.323.032-.822-.081-1.047.212z" class="C"/><path d="M106.76 181.122c-.046.12-.088.271 0 .352l.094-.06-.116-.229m.341 1.208c-.045.12-.088.271 0 .352l.099-.06-.116-.229m-1.976 2.205c-.049.116-.092.267 0 .352l.098-.06-.116-.225m.714-.515c-.045.117-.088.268 0 .352l.095-.059-.116-.226m3.859-2.528c-.046.12-.088.268 0 .352l.095-.06-.116-.225m-1.247.254c-.049.119-.092.271 0 .352l.098-.06-.116-.229m-.429-.761c-.049.117-.092.268 0 .353l.098-.06-.116-.226m-1.855 1.789c-.035.07-.067.158 0 .211l.063-.039-.063-.126m-.693 1.183c-.035.07-.067.158 0 .208l.06-.039-.06-.127m2.443-1.609c-.035.07-.067.159 0 .208l.06-.039-.063-.127m-1.09 1.367c-.046-.064-.109-.134-.176-.113v.07h.141m-.285-1.232c-.046-.064-.109-.134-.176-.113v.074h.141m2.713-1.363c-.046.12-.088.272 0 .353l.095-.06-.113-.229m.717-.511c-.049.12-.091.271 0 .352l.095-.06-.116-.228m.268-1.043c-.032.071-.064.159 0 .208l.063-.039-.063-.127m-.689 1.184c-.035.07-.067.158 0 .211l.063-.039-.063-.126m1.35-.205c-.046-.063-.109-.133-.176-.112v.074h.14m-.284-1.233c-.046-.063-.109-.133-.179-.112v.074h.14m-2.531 2.172c-.046-.063-.109-.134-.176-.112v.073h.141m1.779-1.074c-.046-.063-.109-.133-.176-.112v.07h.14" class="B D"/><path d="M98.18 179.362c-.09.13-.158.276-.2.429l-.492 1.317-.232.609c-.255.709-.559 1.4-.91 2.067-.091.175-.21.334-.352.472s-.35.288-.291.475a1.51 1.51 0 0 0 .72 0 3.04 3.04 0 0 0 .847-.43l3.072-1.982a4.75 4.75 0 0 0 .949-.732 9.21 9.21 0 0 0 .639-.87c.622-.848 1.519-1.489 2.039-2.405a.143.143 0 0 0 .021-.049c0-.067-.091-.085-.155-.077-1.567.161-3.054.732-4.607.964-.345.032-.83-.077-1.047.212z" class="C"/><path d="M98.475 179.879c-.045.116-.087.268 0 .352l.095-.06-.116-.225m.341 1.204c-.046.12-.088.267 0 .352l.099-.06-.116-.225m-1.975 2.197c-.05.12-.091.268 0 .352l.098-.063-.116-.226m.714-.51c-.046.12-.088.267 0 .352l.095-.063-.116-.226m3.865-2.524c-.045.12-.087.271 0 .352l.095-.06-.116-.229m-1.254.261c-.049.116-.091.267 0 .352l.098-.06-.116-.226m-.429-.767c-.049.12-.09.271 0 .352l.099-.06-.116-.229m-1.856 1.796c-.035.071-.067.159 0 .208l.063-.039-.063-.126m-.692 1.182c-.035.071-.067.159 0 .208l.06-.039-.06-.123m2.443-1.609c-.035.07-.067.158 0 .208l.06-.039-.064-.127m-1.09 1.363c-.045-.063-.109-.134-.175-.113v.074h.14m-.285-1.239c-.045-.064-.108-.134-.175-.113v.07h.14m2.713-1.365c-.045.116-.087.267 0 .352l.095-.06-.112-.225m.717-.5c-.049.116-.091.267 0 .352l.095-.06-.116-.226m.253-1.042c-.032.07-.063.158 0 .211l.063-.039-.063-.126m-.675 1.176c-.035.07-.067.158-.018.207l.063-.038-.063-.127m1.368-.208c-.046-.063-.109-.133-.176-.112v.07h.141m-.289-1.225c-.045-.064-.109-.134-.179-.113v.074h.141m-2.528 2.179c-.045-.063-.109-.133-.175-.112v.07h.14m1.779-1.077c-.045-.064-.109-.134-.175-.113v.074h.14" class="B D"/><path d="M104.384 177.703a1.557 1.557 0 0 0-.201.429l-.488 1.314-.236.609a16.12 16.12 0 0 1-.906 2.07 1.894 1.894 0 0 1-.352.472c-.147.134-.351.285-.291.475a1.51 1.51 0 0 0 .72 0c.302-.099.588-.244.847-.429l3.072-1.986c.345-.202.664-.447.949-.729.228-.279.441-.569.639-.87.622-.848 1.518-1.492 2.039-2.408a.079.079 0 0 0 .017-.049c0-.064-.088-.081-.151-.074-1.567.158-3.054.729-4.607.965-.327.031-.826-.081-1.051.211z" class="C"/><path d="M104.689 178.217c-.049.12-.088.271 0 .352l.095-.06-.116-.228m.341 1.211c-.046.116-.088.267 0 .352l.095-.06-.113-.229m-1.978 2.201c-.046.116-.088.267 0 .352l.095-.06-.113-.225m.717-.514c-.049.116-.091.267 0 .352l.095-.06-.116-.226m3.859-2.528c-.049.12-.091.268 0 .352l.095-.063-.116-.225m-1.247.257c-.05.12-.092.271 0 .352l.098-.06-.116-.229m-.433-.76c-.046.116-.088.267 0 .352l.099-.06-.116-.225m-1.855 1.788c-.032.071-.064.159 0 .211l.063-.038-.063-.127m-.69 1.183c-.035.071-.067.159-.018.208l.064-.039-.064-.127m2.461-1.609c-.035.071-.067.159-.017.208l.063-.039-.063-.123m-1.076 1.363c-.046-.064-.109-.134-.176-.113v.071h.141m-.285-1.233c-.046-.063-.109-.134-.179-.113v.074h.14m2.706-1.362c-.045.119-.087.271 0 .352l.095-.06-.116-.229m.724-.511c-.049.12-.091.272 0 .353l.099-.06-.116-.229m.27-1.043c-.031.071-.063.159 0 .208l.06-.039-.06-.126m-.692 1.183c-.031.07-.063.158 0 .211l.063-.038-.063-.127m1.353-.204c-.045-.064-.109-.134-.179-.113v.074h.141m-.285-1.232c-.045-.064-.109-.134-.175-.113v.074h.137m-2.528 2.176c-.045-.064-.109-.134-.175-.113v.074h.14m1.779-1.077c-.046-.064-.109-.134-.176-.113v.07h.14" class="B D"/><use xlink:href="#L" class="C"/><g class="B"><use xlink:href="#L" class="E"/><path d="M103.452 177.39c-.046.116-.088.267 0 .352l.098-.06-.116-.229m.334 1.208c-.049.116-.091.267 0 .352l.099-.06-.116-.225m-1.978 2.197c-.049.12-.092.267 0 .352l.098-.06-.116-.225m.713-.514c-.046.119-.088.267 0 .352l.095-.06-.113-.226m3.856-2.527c-.046.119-.088.271 0 .352l.095-.06-.113-.229m-1.251.26c-.046.117-.088.268 0 .352l.095-.059-.116-.226m-.425-.767c-.05.119-.088.267 0 .352l.095-.064-.116-.225m-1.852 1.796c-.035.07-.067.158 0 .208l.031-.043-.059-.126m-.665 1.183c-.031.07-.066.158 0 .207l.06-.038-.06-.127m2.443-1.602c-.036.067-.067.158 0 .207l.059-.038-.059-.127m-1.093 1.363c-.046-.064-.109-.134-.176-.113v.074h.137m-.281-1.215c-.046-.063-.109-.133-.176-.112v.07h.141m2.716-1.366c-.049.116-.091.267 0 .352l.099-.06-.116-.229m.714-.521c-.046.116-.088.267 0 .352l.095-.06-.116-.229m.27-1.045c-.035.07-.067.158-.018.208l.064-.039-.064-.123m-.675 1.182c-.035.071-.066.159 0 .208l.06-.039-.063-.126m1.353-.205c-.046-.059-.109-.13-.176-.109v.071h.141m-.285-1.232c-.045-.064-.109-.134-.175-.113v.074h.14m-2.533 2.179c-.046-.063-.109-.134-.176-.112v.07h.14m1.778-1.077c-.046-.064-.105-.134-.176-.113v.074h.141" class="D"/></g><use xlink:href="#M" class="C"/><g class="B"><use xlink:href="#M" class="E"/><path d="M103.86 171.566c-.046.116-.088.268 0 .352l.095-.06-.112-.225m.337 1.218c-.046.12-.088.268 0 .352l.098-.06-.116-.225m-1.975 2.197c-.049.12-.091.268 0 .352l.098-.063-.116-.225m.714-.511c-.046.12-.088.268 0 .352l.095-.063-.116-.226m3.859-2.524c-.046.12-.088.271 0 .352l.095-.06-.116-.229m-1.248.261c-.049.116-.091.267 0 .352l.095-.06-.116-.225m-.425-.768c-.05.12-.092.271 0 .352l.098-.06-.116-.229m-1.856 1.786c-.035.07-.066.158 0 .207l.06-.038-.063-.127m-.689 1.194c-.035.07-.067.158 0 .207l.06-.038-.06-.124m2.443-1.609c-.036.07-.067.159 0 .208l.059-.039-.059-.127m-1.079 1.363c-.046-.063-.109-.134-.176-.113v.092h.141m-.3-1.25c-.045-.063-.109-.134-.175-.113v.071h.14m2.713-1.36c-.045.117-.087.268 0 .353l.099-.06-.116-.226m.717-.514c-.049.116-.091.268 0 .352l.095-.06-.116-.225m.267-1.049c-.031.07-.063.158 0 .211l.064-.039-.064-.126m-.689 1.183c-.035.07-.066.158 0 .208l.064-.039-.064-.127m1.35-.201c-.046-.063-.109-.133-.176-.112v.07h.141m-.285-1.232c-.045-.063-.109-.134-.175-.113v.074h.14m-2.541 2.18c-.046-.064-.109-.134-.176-.113v.07h.141m1.792-1.077c-.045-.063-.109-.134-.175-.113v.074h.137" class="D"/></g><path d="M100.658 180.608a1.45 1.45 0 0 0-.2.429l-.492 1.314-.232.609a16.43 16.43 0 0 1-.91 2.07 1.87 1.87 0 0 1-.352.472c-.144.134-.351.285-.291.475a1.51 1.51 0 0 0 .72 0 3.13 3.13 0 0 0 .847-.429l3.072-1.986a4.73 4.73 0 0 0 .948-.729c.23-.278.443-.568.64-.87.622-.848 1.518-1.493 2.038-2.408a.135.135 0 0 0 .022-.049c0-.064-.088-.081-.155-.074-1.568.158-3.054.728-4.608.964-.323.032-.822-.081-1.047.212z" class="C"/><path d="M100.96 181.122c-.045.12-.087.271 0 .352l.095-.06-.112-.229m.34 1.208c-.049.12-.091.271 0 .352l.099-.06-.116-.229m-1.979 2.205c-.049.116-.091.267 0 .352l.099-.06-.116-.225m.714-.515c-.046.117-.088.268 0 .352l.094-.059-.112-.226m3.855-2.528c-.046.12-.088.268 0 .352l.095-.06-.113-.225m-1.25.254c-.05.119-.092.271 0 .352l.095-.06-.116-.229m-.426-.761c-.049.117-.091.268 0 .353l.095-.06-.116-.226m-1.852 1.789c-.035.07-.067.158 0 .211l.06-.039-.063-.126m-.69 1.183c-.035.07-.066.158 0 .208l.06-.039-.06-.127m2.443-1.609c-.035.07-.067.159 0 .208l.06-.039-.06-.127m-1.093 1.367c-.046-.064-.109-.134-.176-.113v.07h.141m-.284-1.232c-.046-.064-.109-.134-.176-.113v.074h.14m2.713-1.363c-.046.12-.088.272 0 .353l.098-.06-.116-.229m.718-.511c-.05.12-.088.271 0 .352l.095-.06-.116-.228m.27-1.043c-.035.071-.067.159-.017.208l.063-.039-.063-.127m-.675 1.184c-.035.07-.067.158 0 .211l.06-.039-.063-.126m1.356-.205c-.046-.063-.109-.133-.176-.112v.074h.141m-.288-1.233c-.046-.063-.109-.133-.176-.112v.074h.141m-2.535 2.172c-.045-.063-.109-.134-.175-.112v.073h.14m1.779-1.074c-.046-.063-.109-.133-.176-.112v.07h.14" class="B D"/><use xlink:href="#N" class="C"/><g class="B"><use xlink:href="#N" class="E"/><path d="M108.021 176.974c-.05.116-.092.268 0 .352l.098-.06-.116-.225m.32 1.215c-.046.12-.088.267 0 .352l.095-.063-.116-.226m-1.975 2.19c-.046.12-.088.271 0 .352l.095-.059-.116-.229m.72-.511c-.049.12-.091.268 0 .352l.098-.063-.116-.226m3.856-2.524c-.049.12-.091.271 0 .352l.099-.06-.116-.229m-1.255.261c-.046.116-.088.267 0 .352l.095-.06-.113-.225m-.428-.768c-.046.12-.088.271 0 .352l.095-.06-.113-.229m-1.856 1.796c-.032.071-.063.159 0 .208l.063-.039-.063-.126m-.692 1.183c-.032.07-.064.158 0 .207l.063-.038-.063-.124m2.442-1.609c-.031.071-.063.159 0 .208l.064-.039-.064-.127m-1.089 1.363c-.046-.063-.109-.134-.176-.112v.073h.141m-.288-1.232c-.046-.063-.106-.134-.176-.112v.07h.141m2.716-1.359c-.049.116-.091.267 0 .352l.095-.06-.116-.226m.717-.513c-.046.116-.088.267 0 .352l.098-.06-.116-.225m.267-1.05c-.035.071-.066.159 0 .212l.06-.039-.06-.127m-.691 1.183c-.032.071-.064.159 0 .208l.059-.039-.059-.126m1.342-.202c-.046-.063-.106-.133-.176-.112v.07h.141m-.278-1.232c-.046-.063-.109-.134-.176-.113v.06h.141m-2.534 2.194c-.046-.064-.106-.134-.176-.113v.07h.141m1.782-1.077c-.046-.063-.109-.134-.176-.113v.074h.14" class="D"/></g><use xlink:href="#O" class="C"/><g class="B"><use xlink:href="#O" class="E"/><path d="M112.839 180.291c.046.12.088.271 0 .352l-.098-.06.116-.229m-.341 1.211c.049.117.091.268 0 .353l-.099-.06.116-.226m1.979 2.198c.049.119.091.267 0 .352l-.095-.06.116-.226m-.717-.514c.046.12.088.268 0 .352l-.098-.059.116-.226m-3.855-2.528c.045.12.087.271 0 .352l-.099-.059.116-.229m1.251.26c.046.116.088.268 0 .352l-.095-.06.116-.229m.426-.764c.045.12.088.268 0 .353l-.095-.06.116-.226m1.851 1.793c.035.07.067.158 0 .208l-.06-.039.06-.127m.693 1.183c.032.07.063.158 0 .208l-.06-.039.06-.127m-2.443-1.609c.032.07.064.162 0 .211l-.059-.038.059-.127m1.094 1.362c.045-.063.105-.133.175-.112v.074h-.144m.288-1.232c.046-.064.109-.134.176-.113v.07h-.141m-2.716-1.363c.049.12.091.272 0 .352l-.098-.059.116-.229m-.714-.511c.045.12.088.271 0 .352l-.095-.06.116-.228m-.27-1.042c.035.07.066.158 0 .207l-.06-.038.063-.124m.689 1.184c.035.07.067.158 0 .207l-.06-.038.06-.127m-1.35-.205c.046-.06.109-.13.176-.109v.071h-.141m.285-1.233c.045-.063.109-.133.175-.112v.074h-.14m2.534 2.175c.046-.059.109-.13.176-.109v.071h-.141m-1.782-1.078c.046-.063.109-.133.18-.112v.074h-.137" class="D"/></g><use xlink:href="#P" class="C"/><g class="B"><use xlink:href="#P" class="E"/><path d="M111.595 181.122c.046.12.088.271 0 .352l-.095-.06.116-.229m-.341 1.208c.046.12.088.271 0 .352l-.094-.06.112-.229m1.979 2.205c.046.116.088.267 0 .352l-.099-.06.116-.225m-.699-.515c.045.117.087.268 0 .352l-.095-.059.116-.226m-3.887-2.528c.045.12.087.268 0 .352l-.095-.06.116-.225m1.258.254c.049.119.091.271 0 .352l-.099-.06.116-.229m.429-.761c.049.117.092.268 0 .353l-.098-.06.116-.226m1.855 1.789c.035.07.067.158.018.211l-.064-.039.064-.126m.675 1.183c.035.07.066.158 0 .208l-.06-.039.063-.127m-2.445-1.609c.035.07.066.159.017.208l-.063-.039.063-.127m1.075 1.367c.046-.064.109-.134.176-.113v.07h-.141m.285-1.232c.046-.064.109-.134.176-.113v.074h-.141m-2.713-1.363c.046.12.088.272 0 .353l-.095-.06.116-.229m-.72-.511c.049.12.091.271 0 .352l-.098-.06.115-.228m-.253-1.043c.032.071.064.159 0 .208l-.063-.039.063-.127m.682 1.184c.032.07.063.158 0 .211l-.063-.039.063-.126m-1.353-.205c.046-.063.109-.133.176-.112v.074h-.141m.285-1.233c.046-.063.106-.133.176-.112v.074h-.141m2.534 2.172c.046-.063.109-.134.176-.112v.073h-.141m-1.778-1.074c.046-.063.109-.133.176-.112v.07h-.141" class="D"/></g><use xlink:href="#Q" class="C"/><g class="B"><use xlink:href="#Q" class="E"/><path d="M116.15 178.633c.049.12.092.267 0 .352l-.098-.063.116-.226m-.338 1.208c.046.12.088.271 0 .352l-.095-.06.116-.229m1.975 2.204c.046.116.088.267 0 .352l-.095-.06.116-.229m-.72-.51c.049.116.091.268 0 .352l-.099-.06.116-.228m-3.852-2.525c.05.116.092.267 0 .352l-.098-.06.116-.225m1.252.253c.045.12.088.268 0 .353l-.095-.06.112-.229m.428-.761c.046.116.088.268 0 .352l-.095-.06.113-.225m1.856 1.789c.031.07.063.158 0 .207l-.06-.038.06-.124m.692 1.184c.032.07.064.158 0 .207l-.063-.049.063-.127m-2.442-1.598c.031.07.063.158 0 .208l-.064-.039.064-.127m1.089 1.363c.046-.06.109-.13.176-.109v.07h-.141m.289-1.233c.046-.063.109-.133.176-.112v.074h-.141m-2.717-1.363c.05.12.092.268 0 .352l-.095-.063.116-.225m-.717-.511c.046.12.088.268 0 .352l-.098-.063.115-.226m-.266-1.042c.035.07.066.158 0 .208l-.06-.039.06-.127m.692 1.184c.032.07.063.158 0 .207l-.06-.038.06-.124m-1.35-.204c.046-.063.109-.134.176-.113v.074h-.141m.296-1.232c.045-.064.109-.134.175-.113v.07h-.14m2.523 2.18c.046-.063.105-.133.176-.112v.074h-.141m-1.782-1.078c.046-.063.109-.134.176-.113v.071h-.14" class="D"/></g><use xlink:href="#R" class="C"/><g class="B"><use xlink:href="#R" class="E"/><path d="M100.827 179.048c.046.12.088.267 0 .352l-.095-.06.116-.225m-.341 1.204c.046.12.088.271 0 .352l-.098-.059.116-.229m1.975 2.2c.049.12.091.271 0 .352l-.099-.06.116-.229m-.713-.517c.045.12.088.271 0 .352l-.095-.06.116-.229m-3.859-2.528c.046.116.088.268 0 .352l-.095-.06.116-.225m1.248.285c.05.12.091.268 0 .352l-.099-.06.117-.225m.428-.771c.05.12.092.271 0 .352l-.098-.06.116-.229m1.855 1.782c.036.071.067.159 0 .208l-.063-.039.063-.127m.693 1.187c.035.067.067.158 0 .208l-.06-.039.06-.127m-2.443-1.609c.035.071.067.159 0 .208l-.06-.039.064-.126m1.089 1.362c.046-.063.109-.13.176-.113v.074h-.141m.285-1.232c.045-.063.109-.134.176-.113v.074h-.141m-2.72-1.363c.046.12.088.268 0 .352l-.095-.059.112-.226m-.72-.514c.05.12.091.268 0 .353l-.095-.06.116-.226m-.256-1.046c.031.071.063.159 0 .208l-.063-.039.063-.126m.688 1.183c.035.07.067.159 0 .208l-.063-.039.063-.127m-1.349-.201c.045-.063.108-.134.175-.112v.073h-.14m.288-1.232c.046-.063.105-.134.176-.112v.07h-.14m2.53 2.179c.046-.063.109-.133.176-.112v.07h-.141m-1.779-1.077c.046-.064.11-.13.176-.109v.07h-.14" class="D"/></g><path d="M112.312 177.287c.091.131.159.276.2.43l.492 1.313.232.609a16.1 16.1 0 0 0 .911 2.071 1.86 1.86 0 0 0 .351.471c.148.134.351.289.292.476a1.516 1.516 0 0 1-.721 0 3.048 3.048 0 0 1-.847-.43l-3.092-2a4.75 4.75 0 0 1-.949-.732 9.222 9.222 0 0 1-.64-.87c-.622-.848-1.518-1.489-2.038-2.408a.118.118 0 0 1-.021-.049c0-.064.091-.081.154-.074 1.568.158 3.054.729 4.608.964.344.05.843-.063 1.068.229z" class="C"/><path d="M112.01 177.802c.046.119.088.271 0 .352l-.095-.06.112-.229m-.337 1.211c.046.116.088.268 0 .352l-.098-.06.116-.225m1.975 2.197c.049.117.091.268 0 .352l-.099-.059.116-.226m-.713-.514c.045.116.088.268 0 .352l-.095-.06.116-.225m-3.86-2.528c.046.12.088.271 0 .352l-.094-.06.116-.229m1.247.257c.05.12.092.272 0 .353l-.098-.06.116-.229m.429-.761c.049.12.092.268 0 .352l-.098-.06.116-.225m1.855 1.792c.035.067.067.159.018.208l-.063-.039.063-.127m.674 1.184c.036.07.067.158 0 .207l-.059-.038.059-.127m-2.442-1.609c.035.07.067.158 0 .211l-.06-.039.064-.126m1.089 1.362c.046-.063.109-.134.176-.112v.073h-.141m.285-1.236c.045-.06.109-.13.176-.109v.071h-.141m-2.713-1.363c.046.12.088.271 0 .352l-.095-.06.112-.228m-.717-.511c.05.12.092.271 0 .352l-.095-.06.116-.229m-.267-1.042c.032.071.064.159 0 .208l-.063-.039.063-.126m.689 1.186c.035.067.067.158.018.208l-.063-.039.063-.127m-1.368-.204c.046-.063.109-.13.176-.113v.071h-.14m.285-1.229c.045-.063.109-.134.179-.113v.074h-.141m2.531 2.176c.045-.063.108-.13.175-.109v.071h-.14m-1.779-1.078c.046-.063.109-.134.176-.113v.074h-.14" class="B D"/><path d="M104.028 168.158c.091.131.159.276.201.429l.492 1.317.232.609c.254.71.559 1.4.91 2.067a1.75 1.75 0 0 0 .351.472c.148.134.352.289.292.479a1.569 1.569 0 0 1-.721-.021 3.062 3.062 0 0 1-.847-.43l-3.071-1.982a4.75 4.75 0 0 1-.949-.732 9.353 9.353 0 0 1-.64-.87c-.622-.849-1.518-1.489-2.038-2.405a.15.15 0 0 1-.021-.049c0-.067.091-.085.155-.078 1.567.162 3.054.733 4.607.965.323.053.822-.06 1.047.229z" class="C"/><path d="M103.726 168.675c.046.116.088.268 0 .352l-.095-.059.113-.226m-.338 1.204c.046.12.088.268 0 .352l-.098-.059.116-.226m1.976 2.197c.049.12.091.272 0 .353l-.099-.06.116-.229m-.714-.511c.046.12.088.268 0 .352l-.095-.063.116-.225m-3.859-2.525c.046.12.088.271 0 .352l-.095-.06.116-.228m1.248.26c.049.116.092.268 0 .352l-.098-.06.116-.225m.429-.768c.049.12.091.271 0 .352l-.098-.059.116-.229m1.855 1.796c.035.07.067.158 0 .207l-.063-.038.063-.127m.692 1.183c.035.07.067.158 0 .207l-.06-.038.06-.123m-2.443-1.61c.036.071.067.159 0 .208l-.059-.039.063-.126m1.097 1.362c.045-.063.109-.133.175-.112v.074h-.14m.277-1.233c.046-.063.109-.133.176-.112v.07h-.141m-2.712-1.359c.045.116.087.267 0 .352l-.095-.06.112-.225m-.717-.497c.049.116.091.268 0 .352l-.095-.06.116-.225m-.267-1.067c.032.07.063.158 0 .211l-.063-.038.063-.127m.688 1.183c.036.07.067.158 0 .208l-.063-.039.063-.127m-1.349-.2c.046-.064.11-.134.176-.113v.07h-.14m.284-1.232c.045-.063.109-.134.179-.112v.073h-.141m2.531 2.18c.046-.064.109-.134.176-.113v.071h-.141m-1.764-1.078c.046-.063.109-.134.176-.112v.073h-.141" class="B D"/><path d="M115.212 167.341a1.34 1.34 0 0 1 .2.426l.492 1.317.232.609c.254.71.558 1.4.91 2.067a1.77 1.77 0 0 0 .352.472c.144.133.351.288.291.478a1.55 1.55 0 0 1-.72-.017 3.174 3.174 0 0 1-.865-.423l-3.071-1.986a4.677 4.677 0 0 1-.949-.732 9.67 9.67 0 0 1-.64-.866c-.622-.852-1.518-1.493-2.038-2.408a.116.116 0 0 1-.021-.05c0-.067.091-.084.154-.077 1.568.162 3.054.732 4.608.968.341.032.84-.081 1.065.222z" class="C"/><path d="M114.909 167.844c.046.12.088.268 0 .352l-.095-.06.113-.225m-.341 1.191c.049.119.091.271 0 .352l-.098-.06.116-.229m1.978 2.214c.049.12.092.271 0 .352l-.098-.059.116-.229m-.714-.511c.046.12.088.271 0 .352l-.095-.06.116-.228m-3.859-2.521c.046.116.088.267 0 .352l-.095-.06.116-.225m1.248.253c.049.12.091.268 0 .352l-.095-.063.116-.226m.426-.764c.049.12.091.271 0 .352l-.095-.06.116-.228m1.852 1.796c.035.07.066.158 0 .207l-.06-.038.063-.127m.689 1.186c.035.071.067.159 0 .208l-.06-.039.06-.127m-2.443-1.609c.035.071.067.159 0 .208l-.06-.039.06-.127m1.094 1.363c.045-.063.109-.13.175-.109v.071h-.14m.284-1.233c.046-.063.109-.133.176-.112v.074h-.141m-2.713-1.363c.046.12.088.268 0 .352l-.098-.06.116-.225m-.717-.514c.049.12.088.267 0 .352l-.095-.06.116-.225m-.267-1.046c.031.07.063.158 0 .208l-.063-.039.063-.127m.689 1.183c.035.07.066.158.017.208l-.063-.039.063-.127m-1.367-.2c.046-.064.109-.134.176-.113v.074h-.141m.285-1.232c.046-.064.109-.134.176-.113v.07h-.14m2.533 2.18c.046-.064.109-.134.176-.113v.074h-.141m-1.778-1.081c.045-.063.109-.13.175-.109v.07h-.137" class="B D"/><path d="M120.181 179.362a1.51 1.51 0 0 1 .204.429l.488 1.317.236.609a15.69 15.69 0 0 0 .906 2.067c.091.175.21.334.352.472s.351.288.292.475a1.516 1.516 0 0 1-.721 0 3.035 3.035 0 0 1-.847-.43l-3.072-1.982a4.772 4.772 0 0 1-.948-.732 9.875 9.875 0 0 1-.64-.87c-.622-.848-1.518-1.489-2.038-2.405a.086.086 0 0 1-.018-.049c0-.067.088-.085.151-.077 1.568.161 3.054.732 4.608.964.326.032.836-.077 1.047.212z" class="C"/><path d="M119.879 179.879c.045.116.087.268 0 .352l-.095-.06.116-.225m-.341 1.204c.045.12.088.267 0 .352l-.095-.06.112-.225m1.979 2.197c.046.12.088.268 0 .352l-.098-.063.116-.226m-.717-.51c.046.12.088.267 0 .352l-.095-.063.116-.226m-3.859-2.524c.046.12.088.271 0 .352l-.095-.06.116-.229m1.248.261c.049.116.091.267 0 .352l-.099-.06.116-.226m.429-.767c.049.12.091.271 0 .352l-.098-.06.115-.229m1.856 1.796c.036.071.067.159.018.208l-.063-.039.063-.126m.674 1.182c.035.071.067.159 0 .208l-.06-.039.064-.123m-2.446-1.609c.035.07.067.158.017.208l-.063-.039.063-.127m1.076 1.363c.045-.063.109-.134.175-.113v.074h-.154m.299-1.239c.045-.064.109-.134.176-.113v.07h-.141m-2.714-1.365c.046.116.088.267 0 .352l-.094-.06.116-.225m-.721-.5c.049.116.092.267 0 .352l-.098-.06.116-.226m-.264-1.042c.032.07.063.158 0 .211l-.063-.039.063-.126m.693 1.176c.032.07.063.158 0 .207l-.063-.038.063-.127m-1.353-.208c.046-.063.109-.133.176-.112v.07h-.141m.288-1.225c.046-.064.106-.134.176-.113v.074h-.141m2.53 2.179c.046-.063.109-.133.176-.112v.07h-.141m-1.778-1.077c.046-.064.109-.134.176-.113v.074h-.147" class="B D"/><path d="M117.696 180.608a1.37 1.37 0 0 1 .201.429l.492 1.314.232.609c.255.71.559 1.402.91 2.07a1.89 1.89 0 0 0 .351.472c.148.134.352.285.292.475a1.511 1.511 0 0 1-.72 0 3.129 3.129 0 0 1-.847-.429l-3.079-2.011a4.663 4.663 0 0 1-.949-.729 9.714 9.714 0 0 1-.64-.869c-.622-.849-1.518-1.493-2.038-2.409a.12.12 0 0 1-.021-.049c0-.063.091-.081.155-.074 1.567.159 3.054.729 4.607.965.33.056.829-.056 1.054.236z" class="C"/><path d="M117.394 181.122c.046.12.088.271 0 .352l-.095-.06.116-.229m-.341 1.208c.046.12.088.271 0 .352l-.098-.06.116-.229m1.975 2.205c.049.116.091.267 0 .352l-.099-.06.116-.225m-.713-.515c.046.117.088.268 0 .352l-.095-.059.116-.226m-3.859-2.528c.046.12.088.268 0 .352l-.095-.06.116-.225m1.248.254c.049.119.091.271 0 .352l-.099-.06.116-.229m.429-.761c.05.117.092.268 0 .353l-.098-.06.116-.226m1.855 1.789c.035.07.067.158.018.211l-.063-.039.063-.126m.675 1.183c.035.07.067.158 0 .208l-.06-.039.06-.127m-2.443-1.609c.035.07.067.159 0 .208l-.06-.039.064-.127m1.089 1.367c.046-.064.109-.134.176-.113v.07h-.141m.285-1.232c.045-.064.109-.134.175-.113v.074h-.14m-2.713-1.363c.046.12.088.272 0 .353l-.095-.06.112-.229m-.717-.511c.05.12.092.271 0 .352l-.094-.06.116-.228m-.267-1.043c.032.071.063.159 0 .208l-.063-.039.063-.127m.688 1.184c.035.07.067.158.018.211l-.063-.039.063-.126m-1.367-.205c.046-.063.109-.133.176-.112v.074h-.141m.288-1.233c.046-.063.106-.133.176-.112v.074h-.14m2.529 2.172c.046-.063.109-.134.176-.112v.073h-.14m-1.778-1.074c.045-.063.109-.133.175-.112v.07h-.14" class="B D"/><use xlink:href="#S" class="C"/><g class="B"><use xlink:href="#S" class="E"/><path d="M123.917 181.967c-.064.112-.155.239-.282.225v-.113l.25-.049m-1.163.476c-.063.109-.155.236-.281.225v-.116l.246-.049m-.499 2.912c-.064.109-.155.235-.282.225v-.113l.25-.049m-.05-.888c-.067.109-.158.236-.284.222v-.113l.249-.049m-.421-4.602c-.063.109-.154.236-.281.222v-.113l.25-.049m.569 1.138c-.064.109-.155.236-.282.221v-.112l.25-.05m.854-.144c-.063.113-.154.24-.281.225v-.112l.25-.049m-.26 2.563c-.036.07-.085.147-.155.14v-.074l.137-.028m-.514 1.264c-.035.071-.084.152-.154.141v-.07l.137-.032m-.27-2.929c-.036.07-.085.151-.155.141v-.071l.137-.032m-.408 1.694c.077 0 .172 0 .197.067l-.06.042-.091-.105m1.149-.542c.078 0 .173 0 .197.07l-.059.039-.092-.106m-.612-2.979c-.064.113-.155.236-.281.225v-.112l.249-.05m-.049-.88c-.063.109-.154.236-.281.222v-.113l.25-.049m.646-.87c-.035.071-.084.148-.154.141v-.074l.14-.028m-.52 1.264c-.032.071-.084.152-.155.141v-.07l.138-.032m-.71-1.197c.081 0 .172 0 .197.067l-.06.042-.091-.105m1.166-.543c.078 0 .169 0 .197.07l-.06.043-.091-.11m-.13 3.342c.077 0 .172 0 .196.071l-.059.038-.092-.105m-.253-2.067c.081 0 .173 0 .197.067l-.06.042-.091-.106" class="D"/></g><path d="M98.83 181.886a1.51 1.51 0 0 1-.21.426l-.728 1.201-.33.56a15.68 15.68 0 0 0-1.054 1.999 1.77 1.77 0 0 0-.158.56c0 .201 0 .458-.194.525a1.562 1.562 0 0 1-.432-.578 2.967 2.967 0 0 1-.186-.929l-.352-3.648a4.878 4.878 0 0 1-.017-1.197c.075-.357.17-.71.284-1.056.278-1.018.225-2.113.619-3.095a.103.103 0 0 1 .028-.046c.05-.042.12 0 .155.074.847 1.331 1.321 2.852 2.108 4.225.17.299.556.623.468.979z" class="C"/><path d="M98.24 181.967c-.063.112-.154.239-.285.225v-.113l.25-.049m-1.16.476c-.063.109-.158.236-.285.225v-.116l.25-.049m-.502 2.912c-.064.109-.155.235-.282.225v-.113l.25-.049m-.053-.888c-.063.109-.155.236-.281.222v-.113l.25-.049m-.418-4.602c-.064.109-.155.236-.285.222v-.113l.25-.049m.569 1.138c-.064.109-.155.236-.282.221v-.112l.25-.05m.857-.144c-.063.113-.154.24-.284.225v-.112l.25-.049m-.26 2.563c-.032.07-.085.147-.151.14v-.074l.137-.028m-.517 1.264c-.036.071-.085.152-.155.141v-.07l.137-.032m-.27-2.929c-.036.07-.085.151-.155.141v-.071l.137-.032m-.408 1.694c.077 0 .172 0 .197.067l-.06.042-.091-.105m1.149-.542c.077 0 .172 0 .197.07l-.06.039-.091-.106m-.612-2.979c-.063.113-.155.236-.285.225v-.112l.25-.05m-.046-.88c-.063.109-.154.236-.281.222v-.113l.25-.049m.647-.87c-.035.071-.085.148-.155.141v-.074l.137-.028m-.517 1.264c-.035.071-.084.152-.155.141v-.07l.141-.032m-.689-1.197c.078 0 .17 0 .197.067l-.06.042-.09-.105m1.141-.543c.077 0 .172 0 .197.07l-.06.043-.091-.11m-.13 3.342c.08 0 .172 0 .197.071l-.06.038-.091-.105m-.25-2.067c.077 0 .169 0 .197.067l-.06.042-.091-.106" class="B D"/><path d="M125.628 183.791a1.389 1.389 0 0 1-.351.32l-1.104.859-.51.409c-.601.454-1.168.952-1.697 1.489a1.888 1.888 0 0 0-.351.468c-.085.18-.169.426-.352.423a1.542 1.542 0 0 1-.2-.704c.005-.319.058-.635.158-.937l.966-3.521a4.92 4.92 0 0 1 .415-1.127 9.05 9.05 0 0 1 .636-.873c.622-.848.963-1.898 1.68-2.669 0 0 .025-.028.042-.031s.106.059.12.123c.316 1.546.218 3.137.46 4.693.053.331.299.775.088 1.078z" class="C"/><path d="M125.048 183.653c-.098.081-.228.166-.351.109l.028-.109.253.043m-1.237.032c-.098.081-.228.165-.351.109l.028-.109.253.042m-1.491 2.546c-.098.077-.228.165-.351.109l.028-.113.25.042m.291-.841c-.098.081-.228.165-.351.109l.032-.109.249.042m1.265-4.447c-.098.081-.232.165-.351.109l.028-.109.25.042m.147 1.267c-.099.081-.229.166-.352.11l.028-.11.253.043m.869.176c-.099.081-.229.165-.352.109l.028-.113.25.043m-1.132 2.306c-.059.056-.133.113-.196.077l.021-.07.137.021m-.924.993c-.056.053-.13.109-.193.074l.017-.071.141.022m.794-2.821c-.057.056-.13.113-.194.078v-.071l.141.021m-.96 1.437c.074.028.158.067.158.137h-.07l-.045-.134m1.265-.08c.074.024.158.063.161.137h-.07l-.049-.13m.492-2.983c-.102.081-.232.166-.351.109l.028-.112.249.042m.289-.842c-.099.081-.229.166-.352.11l.028-.11.25.043m.935-.574c-.06.056-.134.112-.197.077l.021-.07.137.021m-.924 1.003c-.056.053-.13.11-.193.074v-.07l.14.021m-.2-1.362c.074.024.158.063.161.133l-.07.018-.049-.134m1.265-.095c.074.025.162.063.162.137h-.071l-.049-.13m-1.308 3.088c.074.025.159.063.159.137h-.071l-.049-.133m.503-2.004c.074.025.158.063.158.134l-.07.018-.046-.134" class="B D"/><use xlink:href="#T" class="C"/><g class="B"><use xlink:href="#T" class="E"/><path d="M121.949 180.721c.049.119.091.271 0 .352l-.099-.06.116-.229m-.337 1.197c.045.116.088.268 0 .352l-.095-.06.116-.225m1.975 2.194c.046.116.088.267 0 .352l-.095-.06.112-.225m-.716-.511c.049.116.091.267 0 .352l-.099-.06.116-.225m-3.855-2.528c.049.12.091.268 0 .352l-.099-.063.116-.226m1.255.257c.046.12.088.271 0 .352l-.098-.06.116-.228m.428-.761c.046.116.088.268 0 .352l-.094-.06.112-.225m1.855 1.806c.032.07.064.162 0 .211l-.063-.038.063-.127m.693 1.165c.032.071.064.159 0 .208l-.063-.039.063-.126m-2.443-1.606c.032.07.064.158 0 .208l-.063-.036.063-.126m1.09 1.362c.046-.063.109-.133.176-.112v.07h-.141m.288-1.236c.046-.063.106-.13.176-.109v.07h-.141m-2.716-1.362c.049.12.088.271 0 .352l-.095-.06.116-.229m-.717-.51c.045.119.087.271 0 .352l-.099-.06.116-.229m-.266-1.042c.035.071.067.159 0 .208l-.06-.039.06-.127m.692 1.183c.031.071.063.162 0 .212l-.064-.039.064-.127m-1.35-.204c.046-.063.106-.134.176-.113v.074h-.141m.285-1.232c.045-.064.109-.134.175-.113v.074h-.14m2.534 2.176c.046-.063.105-.13.176-.113v.074h-.141m-1.782-1.077c.046-.064.109-.134.176-.113v.074h-.14" class="D"/></g><path d="M116.455 176.457c.088.132.156.277.201.429l.488 1.317.236.609c.253.71.557 1.401.91 2.067a1.77 1.77 0 0 0 .351.472c.148.134.352.289.292.479a1.575 1.575 0 0 1-.703-.021 3.012 3.012 0 0 1-.843-.43l-3.076-1.982a4.953 4.953 0 0 1-.948-.733 9.178 9.178 0 0 1-.637-.869c-.625-.849-1.518-1.49-2.041-2.405a.145.145 0 0 1-.018-.049c0-.067.088-.085.151-.078 1.568.162 3.054.733 4.608.965.305.053.804-.06 1.029.229z" class="C"/><path d="M116.15 176.974c.049.116.092.268 0 .352l-.098-.06.116-.225m-.338 1.215c.046.12.088.267 0 .352l-.095-.063.116-.226m1.975 2.19c.046.12.088.271 0 .352l-.095-.059.116-.229m-.72-.511c.049.12.091.268 0 .352l-.099-.063.116-.226m-3.852-2.524c.05.12.092.271 0 .352l-.098-.06.116-.229m1.252.261c.045.116.088.267 0 .352l-.095-.06.112-.225m.428-.768c.046.12.088.271 0 .352l-.095-.06.113-.229m1.856 1.796c.031.071.063.159 0 .208l-.06-.039.06-.126m.692 1.183c.032.07.064.158 0 .207l-.063-.038.063-.124m-2.442-1.609c.031.071.063.159 0 .208l-.064-.039.064-.127m1.089 1.363c.046-.063.109-.134.176-.112v.073h-.141m.289-1.232c.046-.063.109-.134.176-.112v.07h-.141m-2.717-1.359c.05.116.092.267 0 .352l-.095-.06.116-.226m-.717-.513c.046.116.088.267 0 .352l-.098-.06.115-.225m-.266-1.05c.035.071.066.159 0 .212l-.06-.039.06-.127m.692 1.183c.032.071.063.159 0 .208l-.06-.039.06-.126m-1.35-.202c.046-.063.109-.133.176-.112v.07h-.141m.296-1.232c.045-.063.109-.134.175-.113v.06h-.14m2.523 2.194c.046-.064.105-.134.176-.113v.07h-.141m-1.782-1.077c.046-.063.109-.134.176-.113v.074h-.14" class="B D"/><path d="M123.639 190.245H97.204a1.11 1.11 0 0 1-1.076-.842l-1.518-6.08a1.118 1.118 0 0 1 .59-1.264 1.1 1.1 0 0 1 .485-.113h29.469a1.102 1.102 0 0 1 .873.425 1.122 1.122 0 0 1 .202.952l-1.518 6.08a1.106 1.106 0 0 1-1.072.842zM88.84 127.202c-1.002-1.257-.897-3.261-.412-4.884s1.297-3.133 1.532-4.834c.278-1.972-.197-4.225.791-5.841.64-1.057 1.757-1.56 2.811-1.835s2.194-.376 3.21-.866c1.366-.658 2.424-1.95 3.665-2.891 1.374-1.056 3.096-1.64 4.656-1.056 1.459.535 2.527 1.982 3.866 2.859a23.33 23.33 0 0 0 2.109 1.102 24.582 24.582 0 0 1 3.63 2.518c.837.658 1.719 1.373 2.109 2.464.436 1.229.134 2.645-.313 3.873a4.626 4.626 0 0 0-.425 1.817c.046.782.517 1.426.928 2.042.97 1.462 1.757 3.201 1.725 5.05 0 .83-.189 1.661-.084 2.464a5.37 5.37 0 0 1 .127 1.13c-.036.377-.275.775-.601.764a.91.91 0 0 1-.496-.264c-1.054-.873-2.46-1.63-3.56-.831a.723.723 0 0 1-.418.208.554.554 0 0 1-.331-.19c-1.679-1.623-1.887-5.031-3.922-5.943-.903-.409-1.919-.166-2.882-.307-1.159-.165-2.21-.883-3.349-1.172-2.087-.532-4.407.532-5.623 2.584-.555.933-.89 2.018-1.31 3.039-.55 1.317-2.39 4.225-3.867 2.683-.478-.493-.544-1.328-1.09-1.838-.772-.718-1.788-.965-2.477-1.845z" class="F"/><path d="M106.924 196.354c-7.204-2.683-15.42-3.715-22.492-.705-1.216.522-2.534 1.363-2.66 2.683-.057.609.161 1.208.28 1.807.39 1.887-.154 3.827-.28 5.753s.351 4.155 2.059 5.063c.903 7.605 2.653 14.813 5.922 21.735a15.466 15.466 0 0 1 1.286 3.288c.25 1.162.197 2.367.246 3.553.151 3.616 1.255 7.116 2.348 10.563a13.24 13.24 0 0 0 .836 2.179c.784 1.479 2.109 2.602 3.037 3.986s1.469 3.31.523 4.69c-.555.81 1.406 1.32 2.39 1.338a109.8 109.8 0 0 0 12.874-.514 1.293 1.293 0 0 0 1.27-.71 1.31 1.31 0 0 0 .135-.494c.419-1.497.837-3.102.352-4.577-.26-.782-.773-1.511-.759-2.335 0-.704.432-1.366.601-2.067.516-2.158-1.318-4.07-2.668-5.83-2.811-3.683-3.929-8.366-4.945-12.898a1782.301 1782.301 0 0 1-3.894-17.759c1.09.859.974 2.288 2.021 3.197 1.237 1.056 3.311.394 4.235-.951s.998-3.091.96-4.729c-.12-5.447-1.782-11.157-3.677-16.266zm9.553 1.996c1.736-4.274 5.809-7.637 10.396-8.031s9.394 2.514 10.75 6.922a17.55 17.55 0 0 1 .577 3.232c1.216 10.915 1.219 22.13-1.49 32.788-.556 2.197-1.23 4.38-1.427 6.633s.133 4.644 1.427 6.503c.351.521.808 1.014.98 1.627.2.704.021 1.437-.162 2.141l-2.273 8.869a3.463 3.463 0 0 1-.703 1.556c-.665.704-1.758.736-2.738.638a20.963 20.963 0 0 1-7.419-2.173c-2.109-1.081-4.274-2.943-4.147-5.324.032-.595.207-1.211 0-1.76a3.75 3.75 0 0 0-.83-1.056c-1.233-1.373-1.514-3.398-1.18-5.211s1.212-3.479 2.077-5.106-.19-3.757-.468-5.528c-.963-6.133 1.016-12.569-.703-18.534-1.265 1.102-3.258 1.856-4.544.785-1.149-.958-1.012-2.732-.773-4.225.801-4.933.773-10.119 2.65-14.746z" fill="#e3e8f4"/><path d="M53.361 114.298c-.703-.053-.945-1.004-.664-1.631s.868-1.056 1.28-1.612c1.148-1.535.769-3.666.663-5.581-.158-2.887.436-5.76 1.027-8.591.298-1.43.611-2.894 1.405-4.13a6.202 6.202 0 0 1 4.154-2.771 3.383 3.383 0 0 1 2.278-2.74 6.315 6.315 0 0 1 3.82.159c.17.073.355.098.538.074.197-.075.37-.203.499-.37a3.462 3.462 0 0 1 4.382-.352 997.348 997.348 0 0 1 3.73-21.362c.22-1.19.614-2.436 1.405-3.359.64-.757 1.525-1.408 2.516-1.383.4.029.792.115 1.167.257.854.281 1.757.626 2.274 1.359a3.91 3.91 0 0 1 .57 1.538 15.08 15.08 0 0 1 .238 4.187l-.372 6.658c-.053 3.944-1.055 7.799-1.656 11.7-.703 4.613-.819 9.373-2.46 13.732-1.5 4.024-4.245 7.588-5.089 11.802-.41 2.049-.214 4.475 1.406 5.785-.045.592-.86.609-1.451.606h-3.163a36.169 36.169 0 0 1-4.316-.201c-4.917-.627-9.257-3.408-14.18-3.774z" class="G"/><g stroke="#fff" class="K"><path d="M55.75 113.917c-.58-.025-.77-.905-.513-1.5s.77-1.014 1.135-1.542c1.016-1.468.76-3.444.731-5.225-.045-2.69.545-5.387 1.132-8.046.295-1.341.605-2.718 1.3-3.894a5.793 5.793 0 0 1 3.596-2.714 3.39 3.39 0 0 1 2.01-2.624 4.852 4.852 0 0 1 3.226.029.73.73 0 0 0 .45.052 1.05 1.05 0 0 0 .432-.352c.984-1.098 2.66-1.306 3.715-.454l3.813-20.038a7.591 7.591 0 0 1 1.283-3.168c.566-.73 1.335-1.363 2.168-1.37.336.016.667.085.981.204.703.24 1.459.532 1.88 1.197a3.68 3.68 0 0 1 .433 1.409 15.36 15.36 0 0 1 .073 3.897l-.52 6.218c-.165 3.68-1.142 7.31-1.757 10.965-.731 4.323-.984 8.767-2.495 12.89-1.406 3.802-3.82 7.211-4.664 11.165-.411 1.926-.32 4.183 1.012 5.355-.056.553-.748.595-1.248.609l-2.677.081c-1.214.06-2.43.036-3.641-.07-4.12-.426-7.704-2.884-11.855-3.074z"/><path d="M80.527 70.514l1.055.352a233.11 233.11 0 00-2.025 13.982c.425.105.823.299 1.167.57a11.183 11.183 0 00-.703 3.004 28.229 28.229 0 00-4.379-1.247l.475-1.785a.5.5 0 01.186-.33.818.818 0 01.383-.047c.703-.031.917-.96.952-1.668.137-2.595.763-5.138 1.389-7.662a.997.997 0 00-1.382.116c.208-.26 0-1.651.018-2.024.028-.567-.056-1.095.422-1.43.39-.271 1.054-.222 1.476-.517.461-.316.802-.779.966-1.314v0z"/></g><path d="M117.246 162.172c-.492.268-1.005.497-1.532.687a.325.325 0 00-.128.062.341.341 0 00-.136.243.359.359 0 00.014.142l2.109 7.83c.151.57.144 1.17-.018 1.736a3.479 3.479 0 00.299 2.747l5.244 12.601s.632 1.708 1.922 1.169a19.983 19.983 0 004.646-1.94s.952-.627.306-2.179l-5.17-12.408a3.3 3.3 0 00-1.662-2.201 3.341 3.341 0 01-1.227-1.201l-4.178-7.147a.354.354 0 00-.489-.141z" class="F"/><use xlink:href="#U" class="G"/><use xlink:href="#U" opacity=".25" class="B"/><path d="M140.484 183.988c.313 1.694.478 3.468-.017 5.116s-1.786 3.169-3.476 3.461c-1.156.211-2.341-.141-3.409-.634s-2.07-1.126-3.163-1.524c-2.365-.852-5.015-.553-7.398.246-.757.29-1.53.533-2.316.729-.686.12-1.381.183-2.077.19-2.608.102-5.254.201-7.795-.398a4.565 4.565 0 0 1-1.989-.887 4.465 4.465 0 0 1-1.192-2.053c-.615-1.919-.703-4.147.404-5.834.802-1.229 2.144-2.024 3.546-2.465 1.421-.37 2.88-.574 4.348-.609a3.865 3.865 0 0 1 3.669 1.278l1.785 1.599a4.49 4.49 0 0 0 1.181.845 4.19 4.19 0 0 0 1.181.25 30.5 30.5 0 0 0 3.975.158c.133-.806-.352-1.602-.309-2.415a2.594 2.594 0 0 1 1.254-1.986 6.144 6.144 0 0 1 2.292-.785c1.799-.331 3.693-.423 5.429.155 2.707.908 3.596 2.958 4.077 5.563z" class="J"/><path d="M139.366 168.996a23.03 23.03 0 0 1 .615 3.457l.102 2.377c.25 2.947 1.715 5.75 1.589 8.707a5.288 5.288 0 0 0-2.896-.426c.26-.908-.397-1.883-1.251-2.285s-1.842-.377-2.787-.31c-2.633.187-5.272.62-7.679 1.74a.388.388 0 0 1-.352.052c-.151-.073-.147-.285-.147-.45.021-1.437-1.483-2.433-1.842-3.824-.257-1.003.12-2.046.394-3.046 1.036-3.76.646-7.746.956-11.64.175-2.204.702-4.577 2.4-5.986a5.269 5.269 0 0 1 5.56-.521c4.048 2.018 4.453 8.303 5.338 12.155zm164.887 85.957c.352-1.908 2.794-2.841 4.618-2.186.984.352 1.814 1.028 2.734 1.524a8.568 8.568 0 0 0 6.987.412 9.589 9.589 0 0 0 5.166-4.795c1.269-2.627 1.346-5.634 1.406-8.563.053-2.986.056-6.162-1.522-8.694m-41.371-17.953c1.908 0 3.454-2.108 3.454-4.708s-1.546-4.707-3.454-4.707-3.455 2.107-3.455 4.707 1.547 4.708 3.455 4.708zm17.965 0c1.908 0 3.455-2.108 3.455-4.708s-1.547-4.707-3.455-4.707-3.454 2.107-3.454 4.707 1.546 4.708 3.454 4.708z" class="G"/><path d="M312.808 252.492c0 12.922-9.029 11.489-20.173 11.489s-20.177 1.433-20.177-11.489c0-7.594 3.118-18.45 7.95-26.115 3.395-5.38 7.63-9.189 12.227-9.189 3.901 0 7.542 2.746 10.627 6.865 5.732 7.648 9.546 20.045 9.546 28.439z" class="F"/><path d="M303.262 224.053a11.904 11.904 0 01-3.582 6.762 11.867 11.867 0 01-14.396 1.465 11.905 11.905 0 01-4.866-5.903c3.395-5.38 7.63-9.189 12.227-9.189 3.891 0 7.532 2.746 10.617 6.865z" class="B H"/><path d="M291.531 231.588c6.563 0 11.882-5.33 11.882-11.904s-5.319-11.905-11.882-11.905-11.882 5.33-11.882 11.905 5.32 11.904 11.882 11.904z" class="F"/><path d="M285.173 219.335c.763 0 1.382-1.1 1.382-2.457s-.619-2.458-1.382-2.458-1.381 1.1-1.381 2.458.619 2.457 1.381 2.457zm12.712 0c.763 0 1.381-1.1 1.381-2.457s-.618-2.458-1.381-2.458-1.381 1.1-1.381 2.458.618 2.457 1.381 2.457z" fill="#fff"/><g class="G"><path d="M285.174 217.191a1.109 1.109 0 0 0 0-2.218c-.612 0-1.107.496-1.107 1.109a1.11 1.11 0 0 0 1.107 1.109zm12.712 0a1.109 1.109 0 0 0 0-2.218c-.612 0-1.107.496-1.107 1.109a1.11 1.11 0 0 0 1.107 1.109zm-9.335 7.989a1.419 1.419 0 0 1 1.314-.258c.158.05.306.127.461.184.801.295 1.701.031 2.46-.353s1.525-.961 1.782-1.788m-12.571 29.39c1.754 0 3.177-3.347 3.177-7.475s-1.423-7.475-3.177-7.475-3.177 3.346-3.177 7.475 1.422 7.475 3.177 7.475zm26.364-11.484c2.361-3.383 3.11-6.942 1.672-7.95s-4.518.918-6.879 4.301-3.111 6.942-1.673 7.95 4.518-.918 6.88-4.301zm-22.636 25.053c3.663 0 6.632-1.488 6.632-3.323s-2.969-3.324-6.632-3.324-6.632 1.488-6.632 3.324 2.969 3.323 6.632 3.323zm14.375 0c3.662 0 6.631-1.488 6.631-3.323s-2.969-3.324-6.631-3.324-6.632 1.488-6.632 3.324 2.969 3.323 6.632 3.323z"/><path d="M301.955 236c-.457-.032-.629-.669-.443-1.088s.58-.705.858-1.057c.766-1.024.513-2.464.443-3.725-.106-1.926.288-3.841.681-5.732a8.31 8.31 0 0 1 .928-2.757 4.152 4.152 0 0 1 2.773-1.848 2.257 2.257 0 0 1 1.518-1.828 4.253 4.253 0 0 1 2.552.106.66.66 0 0 0 .351.049.765.765 0 0 0 .334-.246 2.31 2.31 0 0 1 2.924-.229 643.65 643.65 0 0 1 2.492-14.253 4.765 4.765 0 0 1 .931-2.243 2.265 2.265 0 0 1 1.68-.922 2.69 2.69 0 0 1 .777.172c.569.19 1.17.419 1.518.908a2.59 2.59 0 0 1 .38 1.025 10.1 10.1 0 0 1 .158 2.792l-.246 4.444c-.035 2.63-.703 5.207-1.104 7.809-.467 3.077-.548 6.253-1.634 9.155-1.005 2.686-2.836 5.063-3.398 7.876-.275 1.366-.141 2.986.941 3.873-.031.394-.576.409-.97.405h-2.108a23.666 23.666 0 0 1-2.879-.134c-3.271-.44-6.171-2.299-9.457-2.552z"/></g><g stroke="#fff" class="K"><path d="M303.55 235.753c-.386 0-.509-.602-.351-1 .218-.366.471-.711.756-1.028.678-.979.509-2.299.488-3.489-.028-1.792.352-3.592.756-5.366a8.818 8.818 0 0 1 .868-2.599 3.855 3.855 0 0 1 2.4-1.809 2.272 2.272 0 0 1 1.343-1.761 3.224 3.224 0 0 1 2.15.021.489.489 0 0 0 .299.036.734.734 0 0 0 .292-.243 1.84 1.84 0 0 1 2.46-.303 742.492 742.492 0 0 1 2.541-13.38 5.158 5.158 0 0 1 .858-2.112c.376-.486.892-.909 1.447-.912.225.008.446.055.654.137.498.11.942.392 1.255.796.159.293.258.615.292.947.124.861.139 1.734.045 2.598l-.351 4.152c-.109 2.464-.759 4.876-1.171 7.316-.488 2.884-.657 5.848-1.665 8.602-.932 2.535-2.552 4.809-3.114 7.45-.271 1.285-.211 2.789.678 3.574-.039.352-.499.394-.833.405l-1.789.056a18.05 18.05 0 0 1-2.428-.035c-2.717-.285-5.11-1.923-7.88-2.053z"/><path d="M320.086 206.776l.703.243a155.423 155.423 0 00-1.35 9.33c.283.068.548.197.777.377a7.574 7.574 0 00-.478 2.007 18.635 18.635 0 00-2.921-.831l.313-1.193a.348.348 0 01.127-.222.544.544 0 01.256-.028c.475-.025.612-.645.636-1.113.147-1.73.456-3.441.925-5.113a.662.662 0 00-.921.078c.137-.176 0-1.102 0-1.352.017-.38-.035-.732.285-.954.256-.183.702-.148.984-.352a1.68 1.68 0 00.664-.877v0z"/></g><g class="G"><path d="M300.183 220.099h-4.597a.327.327 0 00-.326.328v.313c0 .181.146.327.326.327h4.597a.326.326 0 00.327-.327v-.313a.327.327 0 00-.327-.328zM287.472 220.099h-4.597a.327.327 0 00-.326.328v.313c0 .181.146.327.326.327h4.597a.326.326 0 00.327-.327v-.313a.327.327 0 00-.327-.328z"/><path d="M275.063 75.88a7.61 7.61 0 1 0 0-15.232 7.61 7.61 0 1 0 0 15.232zM30.106 36.798c4.198 0 7.602-3.41 7.602-7.616s-3.404-7.616-7.602-7.616-7.602 3.41-7.602 7.616 3.404 7.616 7.602 7.616zm38.659 18.309c4.198 0 7.602-3.41 7.602-7.616s-3.404-7.616-7.602-7.616-7.602 3.41-7.602 7.616 3.404 7.616 7.602 7.616zm179.978-12.373c4.198 0 7.602-3.41 7.602-7.616s-3.404-7.616-7.602-7.616a7.61 7.61 0 1 0 0 15.232zm51.715 15.172c7.036 0 12.74-5.715 12.74-12.764s-5.704-12.763-12.74-12.763-12.74 5.714-12.74 12.763 5.704 12.764 12.74 12.764zm12.212 63.025c7.036 0 12.74-5.714 12.74-12.763s-5.704-12.764-12.74-12.764-12.739 5.715-12.739 12.764 5.703 12.763 12.739 12.763zM13.24 88.538c7.036 0 12.74-5.714 12.74-12.763s-5.704-12.764-12.74-12.764S.5 68.726.5 75.775s5.704 12.763 12.74 12.763z" class="H"/></g></g><defs><clipPath id="A"><path fill="#fff" transform="translate(.5)" d="M0 0h350v279.054H0z"/></clipPath><path id="B" d="M161.542 193.885a1.372 1.372 0 0 0-.2.43l-.492 1.313-.232.609a16.236 16.236 0 0 1-.91 2.071 1.894 1.894 0 0 1-.352.472c-.144.133-.351.288-.292.475a1.52 1.52 0 0 0 .703 0c.304-.097.59-.242.847-.43l3.072-1.982c.345-.204.664-.45.949-.732a9.4 9.4 0 0 0 .64-.87c.622-.849 1.518-1.489 2.038-2.408a.13.13 0 0 0 .021-.05c0-.063-.088-.081-.155-.074-1.567.159-3.054.729-4.607.965-.306.032-.805-.081-1.03.211z"/><path id="C" d="M166.097 193.47a1.519 1.519 0 0 0-.2.43l-.489 1.316-.235.61c-.255.709-.559 1.4-.911 2.066-.09.176-.209.335-.351.472-.148.134-.352.289-.295.475.239.053.487.047.724-.017.301-.098.586-.243.843-.43l3.075-1.982c.344-.205.661-.451.946-.732.231-.277.444-.567.639-.87.626-.849 1.518-1.489 2.042-2.405a.119.119 0 0 0 0-.053c0-.063-.088-.081-.154-.074-1.564.162-3.051.733-4.604.965-.306.049-.805-.063-1.03.229z"/><path id="D" d="M171.541 196.79c.088.132.156.277.2.43l.489 1.313.235.609c.258.712.567 1.404.924 2.07.092.175.211.334.352.472.148.134.351.289.295.476a1.528 1.528 0 0 1-.724 0 3.039 3.039 0 0 1-.843-.43l-3.1-1.996a4.814 4.814 0 0 1-.945-.729 9.05 9.05 0 0 1-.64-.87c-.626-.848-1.518-1.489-2.042-2.408a.14.14 0 0 1 0-.05c0-.063.088-.081.155-.073 1.564.158 3.05.728 4.604.964.316.043.815-.07 1.04.222z"/><path id="E" d="M170.297 197.621a1.34 1.34 0 0 1 .2.426l.492 1.317.232.609c.254.71.558 1.4.91 2.067a1.77 1.77 0 0 0 .352.472c.147.133.351.288.291.478a1.537 1.537 0 0 1-.72 0 3.143 3.143 0 0 1-.847-.429l-3.089-2.004a4.694 4.694 0 0 1-.949-.728 9.729 9.729 0 0 1-.64-.87c-.622-.852-1.518-1.493-2.038-2.408a.116.116 0 0 1-.021-.05c0-.067.091-.081.154-.077 1.568.162 3.054.732 4.608.968.341.049.84-.063 1.065.229z"/><path id="F" d="M174.855 195.132a1.51 1.51 0 0 1 .2.426l.489 1.317.235.609a15.72 15.72 0 0 0 .911 2.067c.09.176.208.335.351.472s.352.288.292.479a1.568 1.568 0 0 1-.721 0 3.08 3.08 0 0 1-.843-.43l-3.082-2.003a4.928 4.928 0 0 1-.949-.733 9.439 9.439 0 0 1-.636-.866c-.626-.852-1.519-1.493-2.042-2.408a.106.106 0 0 1 0-.05c0-.066.088-.084.151-.077 1.567.162 3.054.732 4.607.968.313.05.812-.063 1.037.229z"/><path id="G" d="M159.528 195.547c.092.129.159.274.201.426l.492 1.317.232.609c.255.71.559 1.4.91 2.067.09.176.209.335.351.472s.352.289.292.479a1.565 1.565 0 0 1-.72-.021 3.062 3.062 0 0 1-.847-.43l-3.072-1.982a4.718 4.718 0 0 1-.949-.733 9.519 9.519 0 0 1-.639-.866c-.622-.852-1.519-1.493-2.039-2.408a.151.151 0 0 1-.021-.049c0-.067.088-.085.155-.078 1.567.162 3.054.732 4.607.965.323.053.823-.06 1.047.232z"/><path id="H" d="M182.91 198.899a1.487 1.487 0 0 1-.211.426l-.727 1.201-.33.56c-.4.639-.752 1.306-1.055 1.996a1.778 1.778 0 0 0-.154.563c0 .198 0 .458-.194.525a1.528 1.528 0 0 1-.432-.577 3.087 3.087 0 0 1-.19-.93l-.351-3.648a4.702 4.702 0 0 1 0-1.197 8.35 8.35 0 0 1 .285-1.056c.277-1.018.224-2.113.618-3.095a.104.104 0 0 1 .028-.046c.049-.042.12.018.155.074.843 1.331 1.321 2.852 2.108 4.225.141.3.538.623.45.979z"/><path id="I" d="M180.654 197.206c.089.132.156.277.201.429l.488 1.314.236.609a16.12 16.12 0 0 0 .906 2.07c.093.174.212.333.352.472.147.134.351.285.292.475a1.503 1.503 0 0 1-.721-.017 3.175 3.175 0 0 1-.847-.43l-3.072-1.986a4.757 4.757 0 0 1-.948-.729 10.066 10.066 0 0 1-.64-.869c-.622-.849-1.518-1.493-2.038-2.409a.082.082 0 0 1 0-.049c0-.063.087-.081.151-.074 1.567.159 3.054.729 4.607.965.309.049.798-.06 1.033.229z"/><path id="J" d="M182.035 207.258h-26.432a1.105 1.105 0 01-1.075-.842l-1.522-6.08a1.12 1.12 0 01.204-.95 1.112 1.112 0 01.872-.427h29.468a1.11 1.11 0 011.076 1.377l-1.515 6.087a1.111 1.111 0 01-1.076.835z"/><path id="K" d="M215.651 176.284h-1.104a3.095 3.095 0 00-3.092 3.099v6.151a3.095 3.095 0 003.092 3.098h1.104a3.096 3.096 0 003.093-3.098v-6.151a3.096 3.096 0 00-3.093-3.099z"/><path id="L" d="M103.143 176.872a1.47 1.47 0 0 0-.201.43l-.492 1.317-.232.609c-.254.71-.558 1.4-.91 2.067-.09.176-.208.335-.351.471s-.352.289-.292.476c.238.052.485.046.721-.018.303-.097.589-.242.847-.429l3.071-1.983c.345-.204.664-.45.949-.732a9.22 9.22 0 0 0 .64-.87c.625-.848 1.518-1.489 2.042-2.405a.138.138 0 0 0 .017-.052c0-.064-.088-.081-.155-.074-1.567.162-3.054.732-4.607.964-.323.05-.822-.063-1.047.229z"/><path id="M" d="M103.558 171.063a1.403 1.403 0 0 0-.201.429l-.492 1.317-.232.609c-.255.71-.559 1.4-.91 2.067a1.85 1.85 0 0 1-.351.472c-.148.134-.352.289-.292.475a1.5 1.5 0 0 0 .72-.017c.303-.098.589-.243.847-.43l3.072-1.982a4.72 4.72 0 0 0 .949-.733 9.2 9.2 0 0 0 .639-.869c.623-.849 1.519-1.49 2.039-2.405a.151.151 0 0 0 .021-.049c0-.067-.091-.085-.155-.078-1.567.162-3.054.732-4.607.965-.323.049-.823-.06-1.047.229z"/><path id="N" d="M107.698 176.457a1.586 1.586 0 0 0-.201.429l-.488 1.317-.236.609c-.253.71-.557 1.401-.91 2.067-.09.176-.209.335-.351.472-.148.134-.352.289-.292.479.238.049.485.042.72-.021a3.02 3.02 0 0 0 .844-.43l3.075-1.982a4.93 4.93 0 0 0 .949-.733 9.17 9.17 0 0 0 .636-.869c.626-.849 1.518-1.49 2.042-2.405a.125.125 0 0 0 .017-.049c0-.067-.087-.085-.151-.078-1.567.162-3.054.733-4.607.965-.323.053-.822-.06-1.047.229z"/><path id="O" d="M113.141 179.777a1.52 1.52 0 0 1 .2.43l.489 1.316.235.61a15.9 15.9 0 0 0 .911 2.066c.09.176.209.335.351.472.148.134.352.289.295.476a1.529 1.529 0 0 1-.724-.018 3.012 3.012 0 0 1-.843-.43l-3.072-1.982a4.884 4.884 0 0 1-.949-.732 8.755 8.755 0 0 1-.639-.87c-.626-.849-1.519-1.489-2.042-2.405a.158.158 0 0 1-.018-.053c0-.063.088-.081.155-.074 1.567.159 3.05.729 4.607.965.32.05.819-.063 1.044.229z"/><path id="P" d="M111.887 180.608a1.46 1.46 0 0 1 .204.429l.488 1.314.236.609a15.73 15.73 0 0 0 .906 2.07c.092.175.211.334.352.472.148.134.351.285.292.475a1.516 1.516 0 0 1-.721 0 3.143 3.143 0 0 1-.847-.429l-3.068-2.011a4.793 4.793 0 0 1-.949-.729 10.269 10.269 0 0 1-.639-.869c-.623-.849-1.519-1.493-2.039-2.409a.079.079 0 0 1-.017-.049c0-.063.087-.081.151-.074 1.567.159 3.054.729 4.607.965.341.056.833-.056 1.044.236z"/><path id="Q" d="M116.455 178.118a1.52 1.52 0 0 1 .201.43l.488 1.313.236.609c.253.712.557 1.403.91 2.071.091.174.209.332.351.468.148.134.352.289.292.479a1.546 1.546 0 0 1-.703-.018 3.105 3.105 0 0 1-.843-.429l-3.104-1.968a4.97 4.97 0 0 1-.949-.729 9.687 9.687 0 0 1-.636-.87c-.625-.852-1.518-1.493-2.042-2.408a.124.124 0 0 1-.017-.05c0-.063.088-.081.151-.077 1.567.162 3.054.732 4.607.968.334.032.833-.081 1.058.211z"/><path id="R" d="M101.129 178.534c.096.128.169.272.215.426l.492 1.317.232.609c.255.709.559 1.4.91 2.067.09.176.209.335.351.472.148.133.352.288.292.478a1.537 1.537 0 0 1-.72 0 3.129 3.129 0 0 1-.847-.429l-3.072-1.986a4.743 4.743 0 0 1-.949-.732 9.752 9.752 0 0 1-.64-.866c-.622-.853-1.518-1.493-2.038-2.409a.116.116 0 0 1-.021-.049c0-.067.091-.085.155-.078 1.567.162 3.054.733 4.607.969.309.031.808-.067 1.033.211z"/><path id="S" d="M124.511 181.886a1.513 1.513 0 0 1-.211.426l-.727 1.201-.331.56c-.397.641-.75 1.309-1.054 1.999a1.86 1.86 0 0 0-.155.56c0 .201 0 .458-.193.525a1.523 1.523 0 0 1-.432-.578 3.075 3.075 0 0 1-.19-.929l-.352-3.648c-.05-.397-.05-.8 0-1.197a10.09 10.09 0 0 1 .285-1.056c.278-1.018.225-2.113.619-3.095a.096.096 0 0 1 .028-.046c.049-.042.119 0 .154.074.844 1.331 1.322 2.852 2.109 4.225.127.299.538.623.45.979z"/><path id="T" d="M122.254 180.193c.089.132.156.276.201.429l.488 1.313.236.61a15.62 15.62 0 0 0 .91 2.07 1.89 1.89 0 0 0 .351.472c.148.134.352.288.292.475a1.518 1.518 0 0 1-.703 0 2.97 2.97 0 0 1-.843-.429l-3.075-1.986a4.87 4.87 0 0 1-.949-.729 9.495 9.495 0 0 1-.636-.87c-.626-.848-1.519-1.489-2.042-2.408a.112.112 0 0 1-.018-.049c0-.064.088-.081.151-.074 1.568.158 3.054.728 4.608.964.305.036.804-.081 1.029.212z"/><path id="U" d="M121.898 174.194l-.95.398a2.882 2.882 0 00-1.546 3.767l2.201 5.283a2.872 2.872 0 003.76 1.549l.95-.397a2.88 2.88 0 001.546-3.767l-2.2-5.284a2.874 2.874 0 00-3.761-1.549z"/></defs></svg>