<?xml version="1.0" encoding="UTF-8"?>
<svg width="16px" height="16px" viewBox="0 0 16 16" version="1.1" xmlns="http://www.w3.org/2000/svg" xmlns:xlink="http://www.w3.org/1999/xlink">
    <defs>
        <polygon id="path-2" points="0 16 15.1578947 16 15.1578947 0 0 0"></polygon>
    </defs>
    <g id="Beta-UI" stroke="none" stroke-width="1" fill="none" fill-rule="evenodd">
        <g id="Folder-Dropdown" transform="translate(-31.000000, -37.000000)">
            <g id="Group-6" transform="translate(9.000000, 9.000000)">
                <g id="Trash-Can" transform="translate(22.000000, 28.000000)">
                    <g id="Group-8">
                        <g transform="translate(-0.000000, 0.000000)">
                            <path d="M3.36842105,5.89473684 L11.7894737,5.89473684 L11.7903158,14.3157895 L3.36842105,14.3157895 L3.36842105,5.89473684 Z M1.68421053,14.3157895 C1.68421053,15.2446316 2.43957895,16 3.36842105,16 L11.7894737,16 C12.7183158,16 13.4736842,15.2446316 13.4736842,14.3157895 L13.4736842,4.21052632 L1.68421053,4.21052632 L1.68421053,14.3157895 Z" id="Fill-1" fill="currentColor"></path>
                            <polygon id="Fill-3" fill="currentColor" points="10.1052632 1.68421053 10.1052632 0 5.05263158 0 5.05263158 1.68421053 0 1.68421053 0 3.36842105 15.1578947 3.36842105 15.1578947 1.68421053"></polygon>
                            <mask id="mask-3" fill="white">
                                <use xlink:href="#path-2"></use>
                            </mask>
                            <g id="Clip-6"></g>
                            <polygon id="Fill-5" fill="currentColor" mask="url(#mask-3)" points="5.05263158 12.6315789 6.73684211 12.6315789 6.73684211 7.57894737 5.05263158 7.57894737"></polygon>
                            <polygon id="Fill-7" fill="currentColor" mask="url(#mask-3)" points="8.42105263 12.6315789 10.1052632 12.6315789 10.1052632 7.57894737 8.42105263 7.57894737"></polygon>
                        </g>
                    </g>
                </g>
            </g>
        </g>
    </g>
</svg>
