<svg width="113" height="98" viewBox="0 0 113 98" fill="none" xmlns="http://www.w3.org/2000/svg">
<path d="M3.5 13C3.5 8.58172 7.08172 5 11.5 5L50 5C52.7614 5 55 7.23858 55 10C55 12.7614 57.2386 15 60 15H98.5C102.918 15 106.5 18.5817 106.5 23V89C106.5 93.4183 102.918 97 98.5 97H11.5C7.08172 97 3.5 93.4183 3.5 89L3.5 13Z" fill="url(#paint0_linear)"/>
<path d="M6.5 14C6.5 11.7909 8.29086 10 10.5 10H82.5L102.5 27.4959V89C102.5 91.2091 100.709 93 98.5 93H10.5C8.29086 93 6.5 91.2091 6.5 89V14Z" fill="url(#paint1_linear)"/>
<g filter="url(#filter0_d)">
<path d="M82.5 10V23.5C82.5 25.7091 84.2909 27.5 86.5 27.5H102.5L82.5 10Z" fill="url(#paint2_linear)"/>
</g>
<path d="M6.5 14C6.5 11.7909 8.29086 10 10.5 10H82.5L102.5 27.4959V89C102.5 91.2091 100.709 93 98.5 93H10.5C8.29086 93 6.5 91.2091 6.5 89V14Z" fill="url(#paint3_linear)"/>
<g filter="url(#filter1_d)">
<path d="M82.5 10V23.5C82.5 25.7091 84.2909 27.5 86.5 27.5H102.5L82.5 10Z" fill="url(#paint4_linear)"/>
</g>
<path d="M0.678769 32.1713C0.581301 29.897 2.39875 28 4.6751 28L105.325 28C107.601 28 109.419 29.897 109.321 32.1713L106.664 94.1713C106.572 96.3118 104.81 98 102.668 98H7.33224C5.18972 98 3.42765 96.3118 3.33591 94.1713L0.678769 32.1713Z" fill="#E5E5F3"/>
<defs>
<filter id="filter0_d" x="68.5" y="0" width="44" height="41.5" filterUnits="userSpaceOnUse" color-interpolation-filters="sRGB">
<feFlood flood-opacity="0" result="BackgroundImageFix"/>
<feColorMatrix in="SourceAlpha" type="matrix" values="0 0 0 0 0 0 0 0 0 0 0 0 0 0 0 0 0 0 127 0"/>
<feOffset dx="-2" dy="2"/>
<feGaussianBlur stdDeviation="6"/>
<feColorMatrix type="matrix" values="0 0 0 0 0 0 0 0 0 0 0 0 0 0 0 0 0 0 0.15 0"/>
<feBlend mode="normal" in2="BackgroundImageFix" result="effect1_dropShadow"/>
<feBlend mode="normal" in="SourceGraphic" in2="effect1_dropShadow" result="shape"/>
</filter>
<filter id="filter1_d" x="68.5" y="0" width="44" height="41.5" filterUnits="userSpaceOnUse" color-interpolation-filters="sRGB">
<feFlood flood-opacity="0" result="BackgroundImageFix"/>
<feColorMatrix in="SourceAlpha" type="matrix" values="0 0 0 0 0 0 0 0 0 0 0 0 0 0 0 0 0 0 127 0"/>
<feOffset dx="-2" dy="2"/>
<feGaussianBlur stdDeviation="6"/>
<feColorMatrix type="matrix" values="0 0 0 0 0 0 0 0 0 0 0 0 0 0 0 0 0 0 0.15 0"/>
<feBlend mode="normal" in2="BackgroundImageFix" result="effect1_dropShadow"/>
<feBlend mode="normal" in="SourceGraphic" in2="effect1_dropShadow" result="shape"/>
</filter>
<linearGradient id="paint0_linear" x1="55" y1="11" x2="55" y2="97" gradientUnits="userSpaceOnUse">
<stop offset="0.0885417" stop-color="#D6D6F3"/>
<stop offset="0.369792" stop-color="#A8A8BC"/>
</linearGradient>
<linearGradient id="paint1_linear" x1="54.5" y1="10" x2="54.5" y2="93" gradientUnits="userSpaceOnUse">
<stop stop-color="#AAD0FD"/>
<stop offset="1" stop-color="#7CAFDF"/>
</linearGradient>
<linearGradient id="paint2_linear" x1="92.5" y1="14" x2="92.5" y2="30" gradientUnits="userSpaceOnUse">
<stop offset="0.270833" stop-color="#A7DDFC"/>
<stop offset="1" stop-color="#72A6D6"/>
</linearGradient>
<linearGradient id="paint3_linear" x1="54.5" y1="10" x2="54.5" y2="93" gradientUnits="userSpaceOnUse">
<stop stop-color="#FDE7AA"/>
<stop offset="1" stop-color="#ECD38A"/>
</linearGradient>
<linearGradient id="paint4_linear" x1="92.5" y1="14" x2="92.5" y2="30" gradientUnits="userSpaceOnUse">
<stop offset="0.270833" stop-color="#FCE5A7"/>
<stop offset="1" stop-color="#E4CB84"/>
</linearGradient>
</defs>
</svg>
