<?xml version="1.0" encoding="UTF-8"?>
<svg width="25px" height="19px" viewBox="0 0 25 19" version="1.1" xmlns="http://www.w3.org/2000/svg" xmlns:xlink="http://www.w3.org/1999/xlink">
    <title>52DEB022-D609-40EF-95A4-2D1BC6C03EE4@1.00x</title>
    <defs>
        <polygon id="path-1" points="0 0 15 0 15 16.3681641 7.18896484 14.2265625 7.18896484 11.5860596 3.26135254 6.90148926 0 6.90148926"></polygon>
    </defs>
    <g id="Beta-UI" stroke="none" stroke-width="1" fill="none" fill-rule="evenodd">
        <g id="Upload-Dropdown-Copy" transform="translate(-30.000000, -35.000000)">
            <g id="Folder-Square-with-Circle-Corners" transform="translate(31.000000, 34.000000)">
                <g id="Group">
                    <g id="Fill-1-Copy" transform="translate(10.000000, 0.000000)">
                        <mask id="mask-2" fill="white">
                            <use xlink:href="#path-1"></use>
                        </mask>
                        <g id="Mask"></g>
                        <path d="M11.9,13.6 C11.5136,13.6 11.2,13.2864 11.2,12.9 C11.2,12.5136 11.5136,12.2 11.9,12.2 C12.2864,12.2 12.6,12.5136 12.6,12.9 C12.6,13.2864 12.2864,13.6 11.9,13.6 M9.9288,12.2 L4.0705,12.2 C3.8598,11.6071 3.3929,11.1402 2.8,10.9288 L2.8,5.0712 C3.3929,4.8598 3.8598,4.3929 4.0705,3.8 L9.9295,3.8 C10.1402,4.3929 10.6071,4.8598 11.2,5.0705 L11.2,10.9288 C10.6071,11.1402 10.1402,11.6071 9.9288,12.2 M2.1,13.6 C1.7136,13.6 1.4,13.2864 1.4,12.9 C1.4,12.5136 1.7136,12.2 2.1,12.2 C2.4864,12.2 2.8,12.5136 2.8,12.9 C2.8,13.2864 2.4864,13.6 2.1,13.6 M2.1,2.4 C2.4864,2.4 2.8,2.7136 2.8,3.1 C2.8,3.4864 2.4864,3.8 2.1,3.8 C1.7136,3.8 1.4,3.4864 1.4,3.1 C1.4,2.7136 1.7136,2.4 2.1,2.4 M11.9,2.4 C12.2864,2.4 12.6,2.7136 12.6,3.1 C12.6,3.4864 12.2864,3.8 11.9,3.8 C11.5136,3.8 11.2,3.4864 11.2,3.1 C11.2,2.7136 11.5136,2.4 11.9,2.4 M12.6,10.9288 L12.6,5.0712 C13.4134,4.7814 14,4.0114 14,3.1 C14,1.9422 13.0578,1 11.9,1 C10.9886,1 10.2193,1.5866 9.9288,2.4 L4.0705,2.4 C3.7807,1.5866 3.0114,1 2.1,1 C0.9422,1 0,1.9422 0,3.1 C0,4.0114 0.5866,4.7814 1.4,5.0705 L1.4,10.9288 C0.5866,11.2193 0,11.9893 0,12.9 C0,14.0578 0.9422,15 2.1,15 C3.0114,15 3.7807,14.4134 4.0705,13.6 L9.9295,13.6 C10.2193,14.4134 10.9886,15 11.9,15 C13.0578,15 14,14.0578 14,12.9 C14,11.9893 13.4134,11.2193 12.6,10.9288" fill="currentColor" mask="url(#mask-2)"></path>
                    </g>
                    <g id="Group-5-Copy" transform="translate(0.000000, 6.000000)" stroke="currentColor" stroke-linecap="round" stroke-linejoin="round" stroke-width="1.75">
                        <path d="M7.68595041,2.92561983 L14.6280992,2.92561983 C14.9008264,2.92561983 15.1239669,3.14876033 15.1239669,3.4214876 L15.1239669,12.3471074 C15.1239669,12.6198347 14.9008264,12.8429752 14.6280992,12.8429752 L0.743801653,12.8429752 C0.47107438,12.8429752 0.247933884,12.6198347 0.247933884,12.3471074 L0.247933884,0.894014721 C0.247933884,0.621287448 0.47107438,0.398146952 0.743801653,0.398146952 L5.08080449,0.398146952" id="Stroke-1"></path>
                        <line x1="5.08080449" y1="0.468072056" x2="7.68595041" y2="2.92561983" id="Stroke-3"></line>
                    </g>
                </g>
            </g>
        </g>
    </g>
</svg>
