<?xml version="1.0" encoding="UTF-8"?>
<svg width="142px" height="144px" viewBox="0 0 142 144" version="1.1" xmlns="http://www.w3.org/2000/svg" xmlns:xlink="http://www.w3.org/1999/xlink">
    <!-- Generator: sketchtool 64 (101010) - https://sketch.com -->
    <title>3D344D91-E955-4E3F-A1B6-F2DFEAAF3238@1.00x</title>
    <desc>Created with sketchtool.</desc>
    <g id="Model-Detail" stroke="none" stroke-width="1" fill="none" fill-rule="evenodd">
        <g id="Upload" transform="translate(-469.000000, -398.000000)" fill="#B9B9BE">
            <g id="Group-3" transform="translate(149.000000, 167.000000)">
                <g id="Group-2" transform="translate(254.000000, 219.000000)">
                    <g id="Group-5" transform="translate(53.000000, 0.000000)">
                        <g id="icon/Upload-icon">
                            <g id="Group" transform="translate(13.000000, 12.000000)">
                                <path d="M78,72 L30,72 C20.076,72 12,63.924 12,54 C12,44.076 20.076,36 30,36 C33.426,36 36.786,36.996 39.708,38.88 C41.352,39.942 43.404,40.14 45.21,39.402 C47.022,38.67 48.366,37.11 48.81,35.202 C51.978,21.54 63.984,12 78,12 C94.542,12 108,25.458 108,42 C108,58.542 94.542,72 78,72 M120,42 C120,18.84 101.16,0 78,0 C60.858,0 45.858,10.194 39.378,25.518 C36.366,24.516 33.204,24 30,24 C13.458,24 0,37.458 0,54 C0,70.542 13.458,84 30,84 L78,84 C101.16,84 120,65.16 120,42" id="Fill-1"></path>
                                <polygon id="Fill-3" points="142 115.997026 114 88 86 115.997026 94.4113023 124.407435 108.051413 110.768773 108.051413 144 119.948587 144 119.948587 110.768773 133.588698 124.407435"></polygon>
                            </g>
                        </g>
                    </g>
                </g>
            </g>
        </g>
    </g>
</svg>