<?xml version="1.0" encoding="UTF-8"?>
<svg width="47px" height="44px" viewBox="0 0 47 44" version="1.1" xmlns="http://www.w3.org/2000/svg" xmlns:xlink="http://www.w3.org/1999/xlink">
    <!-- Generator: sketchtool 64 (101010) - https://sketch.com -->
    <title>03CEB9E7-7C16-4BE7-A238-3BAB1B4AB344@1.00x</title>
    <desc>Created with sketchtool.</desc>
    <defs>
        <polygon id="path-1" points="0 0.606728571 34.0272 0.606728571 34.0272 15.7142857 0 15.7142857"></polygon>
    </defs>
    <g id="Unregistered-Landing" stroke="none" stroke-width="1" fill="none" fill-rule="evenodd">
        <g id="Alpha-Register" transform="translate(-512.000000, -209.000000)">
            <g id="icon/User-icon" transform="translate(511.000000, 207.000000)">
                <g id="Group-8" transform="translate(1.000000, 2.000000)">
                    <path d="M17.0127484,12.9498286 C14.6669419,12.9498286 12.759329,14.8842571 12.759329,17.2665429 C12.759329,19.6456857 14.6669419,21.5832571 17.0127484,21.5832571 C19.3601032,21.5832571 21.2661677,19.6456857 21.2661677,17.2665429 C21.2661677,14.8842571 19.3601032,12.9498286 17.0127484,12.9498286 M17.0127484,25.8999714 C12.3226839,25.8999714 8.50745806,22.0264 8.50745806,17.2665429 C8.50745806,12.5066857 12.3226839,8.63311429 17.0127484,8.63311429 C21.7028129,8.63311429 25.5195871,12.5066857 25.5195871,17.2665429 C25.5195871,22.0264 21.7028129,25.8999714 17.0127484,25.8999714" id="Fill-1" fill="#FFFFFF"></path>
                    <g id="Group-5" transform="translate(0.000000, 27.451600)">
                        <mask id="mask-2" fill="white">
                            <use xlink:href="#path-1"></use>
                        </mask>
                        <g id="Clip-4"></g>
                        <path d="M4.5908129,11.3977286 L29.4362323,11.3977286 C28.1634581,7.49744286 23.4099097,4.92344286 17.0119742,4.92344286 C10.6171355,4.92344286 5.86203871,7.49744286 4.5908129,11.3977286 L4.5908129,11.3977286 Z M34.0272,15.7144429 L-0.00015483871,15.7144429 L-0.00015483871,13.5568714 C-0.00015483871,5.93072857 6.99545806,0.606728571 17.0119742,0.606728571 C27.0300387,0.606728571 34.0272,5.93072857 34.0272,13.5568714 L34.0272,15.7144429 Z" id="Fill-3" fill="#FFFFFF" mask="url(#mask-2)"></path>
                    </g>
                    <polygon id="Fill-6" fill="#FFFFFF" points="46.7859097 6.4746 40.4065548 6.4746 40.4065548 0.000314285714 36.1531355 0.000314285714 36.1531355 6.4746 29.7737806 6.4746 29.7737806 10.7913143 36.1531355 10.7913143 36.1531355 17.2671714 40.4065548 17.2671714 40.4065548 10.7913143 46.7859097 10.7913143"></polygon>
                </g>
            </g>
        </g>
    </g>
</svg>