<?xml version="1.0" encoding="UTF-8"?>
<svg width="47px" height="45px" viewBox="0 0 47 45" version="1.1" xmlns="http://www.w3.org/2000/svg" xmlns:xlink="http://www.w3.org/1999/xlink">
    <defs>
        <polygon id="path-1" points="0 0 31.3327458 0 31.3327458 13.7083333 0 13.7083333"></polygon>
    </defs>
    <g id="Unregistered-Landing" stroke="none" stroke-width="1" fill="none" fill-rule="evenodd">
        <g id="Alpha-SIgn-In" transform="translate(-512.000000, -208.000000)">
            <g id="icon/Sign-in" transform="translate(511.000000, 207.000000)">
                <g id="Group-9" stroke-width="1" transform="translate(1.000000, 1.000000)">
                    <g id="Group-5" transform="translate(0.000000, 33.291667)">
                        <mask id="mask-2" fill="white">
                            <use xlink:href="#path-1"></use>
                        </mask>
                        <g id="Clip-4"></g>
                    </g>
                    <path d="M34,17 L44,17 L44,9 L34,9 L34,17 Z M39,3 C40.6545,3 42,4.344 42,6 L36,6 C36,4.344 37.3455,3 39,3 L39,3 Z M45.4,6.15384615 C45.4,2.76 42.5296,0 39,0 C35.4704,0 32.6,2.76 32.6,6.15384615 C31.7168,6.15384615 31,6.84307692 31,7.69230769 L31,18.4615385 C31,19.3107692 31.7168,20 32.6,20 L45.4,20 C46.2832,20 47,19.3107692 47,18.4615385 L47,7.69230769 C47,6.84307692 46.2832,6.15384615 45.4,6.15384615 L45.4,6.15384615 Z" id="Fill-6" fill="#FFFFFF"></path>
                    <path d="M40.9166667,12.9583333 C40.9166667,14.0412917 40.0393333,14.9166667 38.9583333,14.9166667 C37.8773333,14.9166667 37,14.0412917 37,12.9583333 C37,11.8773333 37.8773333,11 38.9583333,11 C40.0393333,11 40.9166667,11.8773333 40.9166667,12.9583333" id="Fill-8" fill="#FFFFFF"></path>
                </g>
                <path d="M18.0127484,14.9498286 C15.6669419,14.9498286 13.759329,16.8842571 13.759329,19.2665429 C13.759329,21.6456857 15.6669419,23.5832571 18.0127484,23.5832571 C20.3601032,23.5832571 22.2661677,21.6456857 22.2661677,19.2665429 C22.2661677,16.8842571 20.3601032,14.9498286 18.0127484,14.9498286 M18.0127484,27.8999714 C13.3226839,27.8999714 9.50745806,24.0264 9.50745806,19.2665429 C9.50745806,14.5066857 13.3226839,10.6331143 18.0127484,10.6331143 C22.7028129,10.6331143 26.5195871,14.5066857 26.5195871,19.2665429 C26.5195871,24.0264 22.7028129,27.8999714 18.0127484,27.8999714" id="Fill-1" fill="#FFFFFF"></path>
                <path d="M5.5908129,40.8493286 L30.4362323,40.8493286 C29.1634581,36.9490429 24.4099097,34.3750429 18.0119742,34.3750429 C11.6171355,34.3750429 6.86203871,36.9490429 5.5908129,40.8493286 L5.5908129,40.8493286 Z M35.0272,45.1660429 L0.999845161,45.1660429 L0.999845161,43.0084714 C0.999845161,35.3823286 7.99545806,30.0583286 18.0119742,30.0583286 C28.0300387,30.0583286 35.0272,35.3823286 35.0272,43.0084714 L35.0272,45.1660429 Z" id="Fill-3" fill="#FFFFFF"></path>
            </g>
        </g>
    </g>
</svg>