
<?xml version="1.0" encoding="UTF-8"?>
<svg width="15px" height="24px" viewBox="0 0 15 24" version="1.1" xmlns="http://www.w3.org/2000/svg" xmlns:xlink="http://www.w3.org/1999/xlink">
    <defs>
        <polygon id="path-1" points="0.618628571 0.122971429 5.37942857 0.122971429 5.37942857 10.2852571 0.618628571 10.2852571"></polygon>
    </defs>
    <g id="Symbols" stroke="none" stroke-width="1" fill-rule="evenodd">
        <g id="icon/white-upload-icon">
            <g id="Group-5-Copy">
                <polygon id="Fill-1"  points="6.85668571 5.37982357e-14 1.47725714 5.37942857 3.0944 6.99542857 6.85668571 3.232 10.6201143 6.99542857 12.2372571 5.37942857"></polygon>
                <g id="Group-4" transform="translate(8.334857, 12.709943)">
                    <mask id="mask-2" >
                        <use xlink:href="#path-1"></use>
                    </mask>
                    <g id="Clip-3"></g>
                    <path d="M2.17634286,0.496685714 C1.99805714,0.373257143 1.82205714,0.249828571 1.65291429,0.122971429 L0.618628571,2.19268571 C0.702057143,2.25211429 0.787771429,2.31497143 0.868914286,2.37325714 C2.16034286,3.27268571 3.09405714,3.92182857 3.09405714,7.19154286 L3.09405714,10.2852571 L5.37977143,10.2852571 L5.37977143,7.19154286 C5.37977143,2.72868571 3.67691429,1.5424 2.17634286,0.496685714" id="Fill-2" mask="url(#mask-2)"></path>
                </g>
                <path d="M8.33485714,10.4242286 L8.33942857,10.4265143 C8.12571429,9.66651429 8,8.6768 8,7.33051429 L8,2.42422857 L5.71428571,2.42422857 L5.71428571,7.33051429 C5.71428571,11.4573714 4.55085714,12.2676571 3.20342857,13.2070857 C1.70171429,14.2528 1.42108547e-14,15.4390857 1.42108547e-14,19.9019429 L1.42108547e-14,22.9956571 L2.28571429,22.9956571 L2.28571429,19.9019429 C2.28571429,16.6322286 3.21828571,15.9819429 4.50971429,15.0825143 C5.296,14.5362286 6.176,13.9225143 6.85714286,12.7636571 L8.33485714,10.4242286 Z" id="Fill-5"></path>
            </g>
        </g>
    </g>
</svg>