
<?xml version="1.0" encoding="UTF-8"?>
<svg width="90px" height="150px" viewBox="0 0 90 150" version="1.1" xmlns="http://www.w3.org/2000/svg" xmlns:xlink="http://www.w3.org/1999/xlink">
    <defs>
        <polygon id="path-1" points="0.283811003 0.797213842 31.147693 0.797213842 31.147693 66.6784916 0.283811003 66.6784916"></polygon>
    </defs>
    <g id="Linear-Versioning" stroke="none" stroke-width="1" fill="none" fill-rule="evenodd">
        <g id="Version-3-Filled-Out" transform="translate(-522.000000, -315.000000)">
            <g id="Group-5-Copy-2" transform="translate(522.000000, 315.000000)">
                <polygon id="Fill-1" fill="#B9B9BE" points="44.4513398 3.48769618e-13 9.57693878 34.8744011 20.0607453 45.3507986 44.4513398 20.952795 68.8493434 45.3507986 79.33315 34.8744011"></polygon>
                <g id="Group-4" transform="translate(57.760914, 82.397533)">
                    <mask id="mask-2" fill="white">
                        <use xlink:href="#path-1"></use>
                    </mask>
                    <g id="Clip-3"></g>
                    <path d="M10.3823469,3.21997338 C9.22653505,2.41979592 8.08554126,1.61961846 6.98900177,0.797213842 L0.283811003,14.2150044 C0.824671695,14.6002751 1.38035049,15.0077728 1.90639308,15.3856344 C10.2786202,21.2165572 16.3318146,25.424898 16.3318146,46.6221917 L16.3318146,66.6784916 L31.1499157,66.6784916 L31.1499157,46.6221917 C31.1499157,17.6898492 20.1104303,9.99925466 10.3823469,3.21997338" id="Fill-2" fill="#B9B9BE" mask="url(#mask-2)"></path>
                </g>
                <path d="M54.0342059,67.5794321 L54.0638421,67.5942502 C52.6783496,62.6672316 51.863354,56.2509938 51.863354,47.5231322 L51.863354,15.7160781 L37.0452529,15.7160781 L37.0452529,47.5231322 C37.0452529,74.2772138 29.5028394,79.5302307 20.7675688,85.6204703 C11.0320763,92.3997516 9.21278237e-14,100.090346 9.21278237e-14,129.022689 L9.21278237e-14,149.078988 L14.8181012,149.078988 L14.8181012,129.022689 C14.8181012,107.825395 20.8638864,103.609645 29.2361136,97.7787223 C34.3335404,94.2371961 40.0385093,90.2585359 44.4543035,82.7457587 L54.0342059,67.5794321 Z" id="Fill-5" fill="#B9B9BE"></path>
            </g>
        </g>
    </g>
</svg>