<svg width="32" height="32" viewBox="0 0 32 32" fill="none" xmlns="http://www.w3.org/2000/svg">
<rect x="9" y="2" width="21" height="21" fill="#1B8CF8" fill-opacity="0.8"/>
<path d="M23 30.8332V31.7332H23.3706L23.6337 31.4722L23 30.8332ZM31 22.9L31.6337 23.5391L31.9 23.275V22.9H31ZM1 30.8332H0.1V31.7332H1V30.8332ZM1 8.9L0.363603 8.2636L0.1 8.52721V8.9H1ZM31 0.899994H31.9V-6.07967e-06H31V0.899994ZM8.99997 0.899994V-6.07967e-06H8.62718L8.36358 0.263599L8.99997 0.899994ZM27 22C26.5029 22 26.1 22.4029 26.1 22.9C26.1 23.3971 26.5029 23.8 27 23.8V22ZM9.83319 12.9C9.83319 12.4029 9.43025 12 8.93319 12C8.43614 12 8.03319 12.4029 8.03319 12.9H9.83319ZM23.6337 31.4722L31.6337 23.5391L30.3663 22.2609L22.3663 30.1941L23.6337 31.4722ZM23 29.9332H1V31.7332H23V29.9332ZM30.3636 0.263597L22.3636 8.2636L23.6364 9.53639L31.6364 1.53639L30.3636 0.263597ZM1.9 30.8332V8.9H0.1V30.8332H1.9ZM31.9 22.9V0.899994H30.1V22.9H31.9ZM1.6364 31.4696L9.56959 23.5364L8.2968 22.2636L0.363604 30.1968L1.6364 31.4696ZM22.1 8.9V22.9H23.9V8.9H22.1ZM22.1 22.9V30.8332H23.9V22.9H22.1ZM8.93319 23.8H23V22H8.93319V23.8ZM31 22H27V23.8H31V22ZM9.83319 22.9V12.9H8.03319V22.9H9.83319ZM1 9.8L9 9.79999L9 7.99999L1 8L1 9.8ZM9 9.79999L23 9.8L23 8L9 7.99999L9 9.79999ZM8.36358 0.263599L0.363603 8.2636L1.6364 9.53639L9.63637 1.53639L8.36358 0.263599ZM31 -6.07967e-06H8.99997V1.79999H31V-6.07967e-06ZM9.9 8.89999L9.89997 0.899991L8.09997 0.899997L8.1 8.9L9.9 8.89999Z" fill="black"/>
</svg>
