<svg width="16" height="16" viewBox="0 0 16 16" fill="none" xmlns="http://www.w3.org/2000/svg">
<path fill-rule="evenodd" clip-rule="evenodd" d="M3.9536 1.43242V0.842072H4.78009V1.43242H3.9536ZM3.9536 3.79382V2.61312H4.78009V3.79382H3.9536ZM3.9536 6.15521V4.97451H4.78009V6.15521H3.9536ZM3.9536 8.51661V7.33591H4.78009V8.51661H3.9536ZM3.9536 10.1529V9.69731H4.78009V9.87441H4.86864V10.7009H4.57685L4.40562 10.9355L3.73801 10.4483L3.9536 10.1529ZM6.87583 10.7009H5.87224V9.87441H6.87583V10.7009ZM8.88302 10.7009H7.87942V9.87441H8.88302V10.7009ZM10.8902 10.7009H9.88661V9.87441H10.8902V10.7009ZM12.8974 10.7009H11.8938V9.87441H12.8974V10.7009ZM14.4028 10.7009H13.901V9.87441H14.4028V10.7009ZM3.81556 11.7441L3.2255 12.5526L2.55789 12.0654L3.14795 11.2569L3.81556 11.7441ZM2.63544 13.3611L2.04538 14.1697L1.37777 13.6825L1.96783 12.8739L2.63544 13.3611ZM1.45532 14.9782L1.16029 15.3825L0.492676 14.8953L0.787706 14.491L1.45532 14.9782Z" fill="black"/>
<path opacity="0.6" d="M11.7588 5.74767L14.7588 1H4.7588L1 5.74767H11.7588Z" fill="#1B8CF8"/>
<path opacity="0.6" d="M11.5 14.7477V5H1V14.7477H11.5Z" fill="#1B8CF8"/>
<path opacity="0.6" d="M14 10V2L11.5 5.5V14.5L14 10Z" fill="#1B8CF8"/>
<path fill-rule="evenodd" clip-rule="evenodd" d="M14.6812 0.0657825C14.7075 0.0749858 14.8419 0.121877 14.9699 0.241931C15.1058 0.36937 15.161 0.50957 15.1728 0.539645L15.1736 0.541647C15.1935 0.592002 15.2042 0.633654 15.209 0.653755C15.2191 0.695881 15.2239 0.730206 15.2257 0.743514C15.2298 0.774621 15.2318 0.802 15.2327 0.815814C15.2349 0.847652 15.2363 0.883729 15.2374 0.917582C15.2396 0.988103 15.2414 1.08503 15.2429 1.20132C15.2459 1.4355 15.2478 1.76648 15.249 2.16267C15.2514 2.95592 15.2506 4.02017 15.2484 5.11589C15.2441 7.30776 15.234 9.6307 15.2315 10.1752C15.2305 10.3954 15.1746 10.6063 15.0685 10.7967L12.4298 15.5379C12.3319 15.7164 12.1957 15.8093 12.1433 15.8422C12.0791 15.8825 12.0229 15.9054 11.9932 15.9166C11.933 15.9392 11.8829 15.95 11.8635 15.9539C11.8188 15.9632 11.7804 15.9674 11.7636 15.9691C11.7236 15.9733 11.681 15.9758 11.6454 15.9776C11.5699 15.9813 11.4683 15.9842 11.3493 15.9866C11.1088 15.9914 10.7689 15.9947 10.3606 15.9968C9.5425 16.0011 8.43508 16.0007 7.2658 15.9979C4.92658 15.9924 2.33203 15.9774 1.29188 15.971C0.583928 15.9666 0.00177338 15.3956 0.0016491 14.6756L0 4.97718C0 4.82857 0.0404807 4.71662 0.053154 4.68229C0.0712839 4.63319 0.0906243 4.59438 0.102657 4.57147C0.127061 4.52499 0.15258 4.48533 0.169514 4.45989C0.205329 4.40608 0.248512 4.34796 0.290542 4.29327C0.377024 4.18073 0.495216 4.03546 0.631113 3.87228C0.904766 3.54369 1.27342 3.11471 1.65889 2.67123C2.43097 1.78294 3.28424 0.820622 3.61204 0.451723C3.85358 0.179897 4.19672 0.0189052 4.57109 0.0174386C5.28451 0.0146437 7.7328 0.00545455 10.008 0.00166098C11.1454 -0.000235488 12.2407 -0.00078568 13.0546 0.00149398C13.4611 0.00263272 13.7997 0.00448253 14.0387 0.0072584C14.1575 0.0086379 14.2558 0.0102892 14.3269 0.0123324C14.3612 0.0133177 14.3966 0.0145941 14.4273 0.0164711C14.4408 0.0172939 14.4662 0.018972 14.4947 0.0223855C14.5069 0.0238476 14.5381 0.0277166 14.5764 0.0359712C14.5945 0.0398913 14.6326 0.0486218 14.6789 0.0649928C14.6795 0.0652158 14.6803 0.0654786 14.6812 0.0657825ZM4.74104 1.66977C4.36053 2.09846 3.59973 2.958 2.90648 3.7556C2.78949 3.89019 2.67475 4.02265 2.56433 4.15069H11.2557L12.888 1.65406C12.0972 1.65227 11.0734 1.65286 10.0107 1.65464C7.88766 1.65818 5.61322 1.66642 4.74104 1.66977ZM13.5974 3.5896C13.5972 4.07205 13.5965 4.58841 13.5955 5.11259C13.5913 7.19387 13.582 9.39395 13.579 10.074C13.3925 10.409 12.9764 11.1565 12.5305 11.9575L12.5293 5.22332L13.5974 3.5896ZM10.8765 5.80367H1.65312L1.65457 14.3202C2.85223 14.3273 5.16489 14.34 7.26971 14.3449C8.43803 14.3477 9.54038 14.3481 10.352 14.3439C10.5456 14.3429 10.7218 14.3416 10.8779 14.3401L10.8765 5.80367Z" fill="black"/>
</svg>
