<svg width="32" height="32" viewBox="0 0 32 32" fill="none" xmlns="http://www.w3.org/2000/svg">
<path d="M23 30.9332V31.8332H23.3706L23.6337 31.5723L23 30.9332ZM31 23L31.6337 23.6391L31.9 23.375V23H31ZM1 30.9332H0.1V31.8332H1V30.9332ZM1 9L0.363603 8.36361L0.1 8.62721V9H1ZM31 1H31.9V0.1H31V1ZM8.99997 1V0.1H8.62718L8.36358 0.363605L8.99997 1ZM27 22.1C26.5029 22.1 26.1 22.5029 26.1 23C26.1 23.4971 26.5029 23.9 27 23.9V22.1ZM9.83319 13C9.83319 12.5029 9.43025 12.1 8.93319 12.1C8.43613 12.1 8.03319 12.5029 8.03319 13H9.83319ZM23.6337 31.5723L31.6337 23.6391L30.3663 22.3609L22.3663 30.2941L23.6337 31.5723ZM23 30.0332H1V31.8332H23V30.0332ZM30.3636 0.363603L22.3636 8.36361L23.6364 9.6364L31.6364 1.6364L30.3636 0.363603ZM1.9 30.9332V9H0.1V30.9332H1.9ZM31.9 23V1H30.1V23H31.9ZM1.6364 31.5696L9.56959 23.6364L8.2968 22.3636L0.363604 30.2968L1.6364 31.5696ZM22.1 9V23H23.9V9H22.1ZM22.1 23V30.9332H23.9V23H22.1ZM8.93319 23.9H23V22.1H8.93319V23.9ZM31 22.1H27V23.9H31V22.1ZM9.83319 23V13H8.03319V23H9.83319ZM1 9.9L9 9.9L9 8.1L1 8.1L1 9.9ZM9 9.9L23 9.9V8.1L9 8.1L9 9.9ZM8.36358 0.363605L0.363603 8.36361L1.6364 9.6364L9.63637 1.63639L8.36358 0.363605ZM31 0.1H8.99997V1.9H31V0.1ZM9.9 9L9.89997 0.999997L8.09997 1L8.1 9L9.9 9Z" fill="black"/>
<rect x="2" y="10" width="20" height="20" fill="#1B8CF8" fill-opacity="0.6"/>
<path d="M9.5 2H29.5L22.6139 8.5H3L9.5 2Z" fill="#1B8CF8" fill-opacity="0.6"/>
</svg>
