<svg width="32" height="32" viewBox="0 0 32 32" fill="none" xmlns="http://www.w3.org/2000/svg">
<path d="M23 30.8332V31.7332H23.3706L23.6337 31.4722L23 30.8332ZM31 22.9L31.6337 23.5391L31.9 23.275V22.9H31ZM1 30.8332H0.1V31.7332H1V30.8332ZM1 8.9L0.360941 8.26628L0.1 8.52941V8.9H1ZM31 0.899994H31.9V-6.07967e-06H31V0.899994ZM8.93319 0.899994V-6.07967e-06H8.55819L8.29413 0.266272L8.93319 0.899994ZM23.6337 31.4722L31.6337 23.5391L30.3663 22.2609L22.3663 30.1941L23.6337 31.4722ZM23 29.9332H1V31.7332H23V29.9332ZM30.3636 0.263597L22.3636 8.2636L23.6364 9.5364L31.6364 1.53639L30.3636 0.263597ZM1.9 30.8332V8.9H0.1V30.8332H1.9ZM31.9 22.9V0.899994H30.1V22.9H31.9ZM1.6364 31.4696L9.56959 23.5364L8.2968 22.2636L0.363604 30.1968L1.6364 31.4696ZM22.1 8.9V22.9H23.9V8.9H22.1ZM22.1 22.9V30.8332H23.9V22.9H22.1ZM8.93319 23.8H23V22H8.93319V23.8ZM31 22H23V23.8H31V22ZM9.83319 22.9V8.89999H8.03319V22.9H9.83319ZM1 9.8L8.93319 9.79999L8.93319 7.99999L1 8L1 9.8ZM8.93319 9.79999L23 9.8V8L8.93319 7.99999L8.93319 9.79999ZM8.29413 0.266272L0.360941 8.26628L1.63906 9.53372L9.57225 1.53372L8.29413 0.266272ZM31 -6.07967e-06H8.93319V1.79999H31V-6.07967e-06ZM9.83319 8.89999V0.899994H8.03319V8.89999H9.83319Z" fill="black"/>
<path d="M23 8.9L25.6329 6.26704M23 8.9H18M23 8.9V13.9M23 30.8332L25.6329 28.2222M23 30.8332V30.6798M23 30.8332H18.9332M1 8.9L6 8.89999M1 8.9L1.11009 8.78991M1 8.9V12.9M31 0.899994H9.16566C9.05957 0.899994 8.95783 0.942137 8.88282 1.01715L5.39206 4.50793M31 0.899994V22.7333C31 22.84 30.9574 22.9422 30.8817 23.0174L28.1832 25.6932M31 0.899994L28.1832 3.71675M5.39206 4.50793H27.3921M5.39206 4.50793L1.11009 8.78991M27.3921 4.50793L28.1832 3.71675M27.3921 4.50793L25.6329 6.26704M28.1832 3.71675V25.6932M28.1832 25.6932L25.6329 28.2222M25.6329 6.26704V28.2222M18 8.9L23 13.9M18 8.9L14 8.89999M23 13.9V17.9M14 8.89999L23 17.9M14 8.89999H10M23 17.9V21.9M10 8.89999L23 21.9M10 8.89999H6M23 21.9V25.9M6 8.89999L23 25.9M23 25.9V30.6798M1.11009 8.78991L23 30.6798M1 12.9L18.9332 30.8332M1 12.9V17.4M18.9332 30.8332H14.4332M1 17.4L14.4332 30.8332M1 17.4V21.9M14.4332 30.8332H9.93322M1 21.9L9.93322 30.8332M1 21.9V26.3666M9.93322 30.8332H1.4C1.17909 30.8332 1 30.6541 1 30.4332V26.3666M1 26.3666L6 31.3666" stroke="black" stroke-width="1.4"/>
</svg>
