<?xml version="1.0" encoding="UTF-8"?>
<svg width="35px" height="36px" viewBox="0 0 35 36" version="1.1" xmlns="http://www.w3.org/2000/svg" xmlns:xlink="http://www.w3.org/1999/xlink">
    <!-- Generator: sketchtool 64 (101010) - https://sketch.com -->
    <title>A0CD8496-AAD4-4BCC-BBE7-E2839DD3981F@1.00x</title>
    <desc>Created with sketchtool.</desc>
    <g id="Model-Detail" stroke="none" stroke-width="1" fill="none" fill-rule="evenodd" opacity="0.4">
        <g id="Model-Detail-Copy-2" transform="translate(-522.000000, -824.000000)" fill="#000000">
            <g id="Group-15" transform="translate(231.000000, 824.000000)">
                <g id="Group-4" transform="translate(291.466052, 0.744905)">
                    <path d="M10.8601967,30.2529836 C10.8478033,30.236459 10.8419016,30.2169836 10.8265574,30.2022295 L2.01718033,21.3928525 L2.01718033,18.601377 L13.6687869,30.2529836 L10.8601967,30.2529836 Z M6.69186885,30.2529836 L2.01718033,25.5788852 L2.01718033,22.8198689 L9.45029508,30.2529836 L6.69186885,30.2529836 Z M2.01718033,30.2529836 L2.01718033,27.0059016 L5.26485246,30.2529836 L2.01718033,30.2529836 Z M6.13062295,5.37993443 L25.4638033,5.37993443 L22.9013115,7.94242623 L3.56872131,7.94242623 L6.13062295,5.37993443 Z M9.49396721,2.01659016 L28.8265574,2.01659016 L26.4723934,4.37193443 L7.13862295,4.37193443 L9.49396721,2.01659016 Z M22.1848525,12.5763934 L19.5680656,9.95901639 L22.1848525,9.95901639 L22.1848525,12.5763934 Z M22.1848525,16.6054426 L15.5390164,9.95901639 L18.1416393,9.95901639 L22.1848525,14.0034098 L22.1848525,16.6054426 Z M14.5251148,31.7171803 C14.5251148,31.0674098 14.5658361,30.427082 14.6384262,29.7961967 L2.01718033,17.1749508 L2.01718033,14.4159344 L15.0716066,27.4697705 C15.1689836,27.0991475 15.2811148,26.7350164 15.4026885,26.3744262 L2.01718033,12.988918 L2.01718033,10.3520656 L16.1616393,24.4971148 C16.3144918,24.1790164 16.4797377,23.8674098 16.6520656,23.5605246 L3.05114754,9.95901639 L5.87095082,9.95901639 L17.7562623,21.8437377 C17.9563279,21.5704918 18.1640656,21.3019672 18.3806557,21.0422951 L7.29796721,9.95901639 L9.96137705,9.95901639 L19.6672131,19.6648525 C19.9097705,19.4317377 20.1594098,19.2057049 20.415541,18.9873443 L11.3883934,9.95901639 L14.1125902,9.95901639 L21.9659016,17.812918 C22.6752787,17.3396066 23.4230164,16.9205902 24.2020328,16.5582295 L24.2020328,9.49337705 L25.6479344,8.04806557 L25.6479344,15.9668852 C25.9790164,15.8494426 26.3154098,15.7438033 26.6565246,15.6464262 L26.6565246,7.04006557 L27.9855738,5.71101639 L27.9855738,15.3247869 C28.3178361,15.2586885 28.6542295,15.2055738 28.9941639,15.1601311 L28.9941639,4.70242623 L30.2523934,3.44301639 L30.2523934,15.0367869 C30.5787541,15.0179016 30.9062951,15.0060984 31.2367869,15.0060984 C31.5838033,15.0060984 31.9278689,15.0196721 32.2695738,15.040918 L32.2695738,1.00859016 L31.2609836,1.29318778e-12 L9.07613115,1.29318778e-12 L8.36321311,0.295081967 L0.295672131,8.36262295 L-1.42108547e-14,9.07613115 L-1.42108547e-14,31.2615738 L1.00859016,32.2695738 L14.5386885,32.2695738 C14.533377,32.0860328 14.5251148,31.9024918 14.5251148,31.7171803 L14.5251148,31.7171803 Z" id="Fill-11"></path>
                    <path d="M32.7942295,22.6371541 L25.7860328,29.6453508 C25.657377,29.4281705 25.5110164,29.221023 25.3280656,29.0368918 C25.1445246,28.8533508 24.9332459,28.7105311 24.7131148,28.5860066 L31.7278033,21.571318 C32.0128525,21.2862689 32.5091803,21.2862689 32.7942295,21.571318 C32.936459,21.7135475 33.015541,21.9029902 33.015541,22.1042361 C33.015541,22.305482 32.936459,22.4949246 32.7942295,22.6371541 M24.2610492,32.2373508 C23.4749508,33.0234492 22.258623,33.2730885 21.3468197,33.3409574 C21.632459,32.6793836 21.6047213,32.1116459 21.5817049,31.6507279 C21.5167869,30.3240393 22.399082,29.6618754 23.1952131,29.6618754 C23.5982951,29.6618754 23.9765902,29.8182689 24.2616393,30.1039082 C24.8518033,30.693482 24.8529836,31.6448262 24.2610492,32.2373508 M34.524,22.1042361 C34.524,21.4999082 34.2879344,20.9315803 33.8612459,20.5048918 C33.0066885,19.6497443 31.5159344,19.6497443 30.661377,20.5043016 L22.9626885,28.2035803 C22.2603934,28.2549246 21.5752131,28.5246295 21.0623607,29.0368918 C19.9953443,30.1039082 20.0396066,31.0027279 20.0750164,31.7250885 C20.1057049,32.3453508 20.1281311,32.7938754 19.3792131,33.5433836 L18.291541,34.6304656 C19.6613115,34.8045639 19.9841311,34.8724328 20.7383607,34.8724328 C21.8667541,34.8724328 23.9636066,34.6682361 25.3280656,33.3031869 C25.8491803,32.7820721 26.1436721,32.101023 26.1920656,31.3721705 L33.8612459,23.7041705 C34.2879344,23.2768918 34.524,22.7085639 34.524,22.1042361" id="Fill-12"></path>
                </g>
            </g>
        </g>
    </g>
</svg>