<?xml version="1.0" encoding="UTF-8"?>
<svg width="35px" height="36px" viewBox="0 0 35 36" version="1.1" xmlns="http://www.w3.org/2000/svg" xmlns:xlink="http://www.w3.org/1999/xlink">
    <g id="Model-Detail" stroke="none" stroke-width="1" fill="none" fill-rule="evenodd" opacity="0.4">
        <g id="Model-Detail-Copy-2" transform="translate(-579.000000, -824.000000)" fill="#000000">
            <g id="Group-15" transform="translate(231.000000, 824.000000)">
                <g id="Group-5" transform="translate(348.192607, 0.619436)">
                    <polygon id="Fill-9" points="1.60660591 10.0845443 23.7920485 10.0845443 23.7920485 8.06736393 1.60660591 8.06736393"></polygon>
                    <path d="M14.5499043,31.8428852 C14.5499043,31.3064262 14.577642,30.776459 14.6266256,30.2535738 L3.44301903,30.2535738 L9.49337968,24.202623 L16.4000682,24.202623 C16.7618387,23.4997377 17.1720026,22.8263607 17.6264289,22.1860328 L10.0847239,22.1860328 L10.0847239,13.1099016 C10.0847239,12.5527869 9.63265837,12.1013115 9.07613378,12.1013115 C8.51901903,12.1013115 8.06754362,12.5527869 8.06754362,13.1099016 L8.06754362,22.7767869 L2.01718296,28.8271475 L2.01718296,9.49396721 L8.06754362,3.44360656 L8.06754362,9.07613115 C8.06754362,9.6332459 8.51901903,10.0847213 9.07613378,10.0847213 C9.63265837,10.0847213 10.0847239,9.6332459 10.0847239,9.07613115 L10.0847239,2.01718033 L28.82656,2.01718033 L22.4805272,8.36321311 L22.1854453,9.07613115 L22.1854453,17.8140984 C22.8281338,17.3968525 23.5015108,17.0220984 24.2020354,16.6951475 L24.2020354,9.49396721 L30.2523961,3.44301639 L30.2523961,15.1642623 C30.5864289,15.1447869 30.9222321,15.1312131 31.2609862,15.1312131 C31.6003305,15.1312131 31.9355436,15.1447869 32.2695764,15.1642623 L32.2695764,1.00859016 L31.2609862,2.94875235e-13 L9.07672395,2.94875235e-13 L9.07613378,2.94875235e-13 C8.79639608,2.94875235e-13 8.54380591,0.113901639 8.36144526,0.297442623 L0.295674766,8.36321311 L2.48689958e-14,9.07613115 L2.48689958e-14,31.2609836 C-0.000587529274,31.5194754 0.0979698478,31.7779672 0.295674766,31.975082 C0.492199356,32.1716066 0.750100995,32.2701639 1.0085928,32.2701639 L14.5605272,32.2701639 C14.5569862,32.1279344 14.5499043,31.9862951 14.5499043,31.8428852" id="Fill-13"></path>
                    <path d="M32.8184879,22.762623 L25.8102912,29.7708197 C25.6816354,29.5536393 25.5352748,29.3464918 25.3523239,29.1623607 C25.168783,28.9788197 24.9580944,28.836 24.7379633,28.7114754 L31.7520617,21.6967869 C32.0371108,21.4117377 32.5334387,21.4117377 32.8184879,21.6967869 C32.9613076,21.8390164 33.0397994,22.028459 33.0397994,22.2297049 C33.0397994,22.4309508 32.9613076,22.6203934 32.8184879,22.762623 M24.2858977,32.3628197 C23.4992092,33.148918 22.2834715,33.3985574 21.371078,33.4664262 C21.6573076,32.8048525 21.6289797,32.2371148 21.6065535,31.7761967 C21.5410453,30.4495082 22.4233403,29.7873443 23.2194715,29.7873443 C23.6225535,29.7873443 24.0014387,29.9437377 24.2858977,30.229377 C24.8766518,30.8189508 24.877242,31.7702951 24.2858977,32.3628197 M34.5482584,22.2297049 C34.5482584,21.625377 34.312783,21.0570492 33.8860944,20.6303607 C33.0309469,19.7752131 31.5401928,19.7752131 30.6862256,20.6297705 L22.9869469,28.3290492 C22.2846518,28.3803934 21.5994715,28.6500984 21.0872092,29.1623607 C20.0196026,30.229377 20.0644551,31.1281967 20.0998649,31.8505574 C20.1305535,32.4708197 20.1529797,32.9193443 19.4034715,33.6688525 L18.3163895,34.7559344 C19.6855698,34.9300328 20.0083895,34.9979016 20.762619,34.9979016 C21.8910125,34.9979016 23.9878649,34.7937049 25.3523239,33.4286557 C25.8734387,32.907541 26.1679305,32.2264918 26.2163239,31.4976393 L33.8855043,23.8296393 C34.312783,23.4023607 34.5482584,22.8340328 34.5482584,22.2297049" id="Fill-14"></path>
                </g>
            </g>
        </g>
    </g>
</svg>