<svg width="16" height="16" viewBox="0 0 16 16" fill="none" xmlns="http://www.w3.org/2000/svg">
<path fill-rule="evenodd" clip-rule="evenodd" d="M3.95372 1.43242V0.842072H4.78021V1.43242H3.95372ZM3.95372 3.79382V2.61312H4.78021V3.79382H3.95372ZM3.95372 6.15521V4.97451H4.78021V6.15521H3.95372ZM3.95372 8.51661V7.33591H4.78021V8.51661H3.95372ZM3.95372 10.1529V9.69731H4.78021V9.87441H4.86876V10.7009H4.57697L4.40574 10.9355L3.73813 10.4483L3.95372 10.1529ZM6.87595 10.7009H5.87236V9.87441H6.87595V10.7009ZM8.88314 10.7009H7.87954V9.87441H8.88314V10.7009ZM10.8903 10.7009H9.88673V9.87441H10.8903V10.7009ZM12.8975 10.7009H11.8939V9.87441H12.8975V10.7009ZM14.4029 10.7009H13.9011V9.87441H14.4029V10.7009ZM3.81568 11.7441L3.22562 12.5526L2.55801 12.0654L3.14807 11.2569L3.81568 11.7441ZM2.63556 13.3611L2.0455 14.1697L1.37789 13.6825L1.96795 12.8739L2.63556 13.3611ZM1.45544 14.9782L1.16041 15.3825L0.492798 14.8953L0.787828 14.491L1.45544 14.9782Z" fill="black"/>
<path opacity="0.6" d="M11.7588 14.7646V5H1V14.7646H11.7588Z" fill="#1B8CF8"/>
<path opacity="0.6" d="M4.5 5V1L1 4.5V5H4.5Z" fill="#1B8CF8"/>
<path fill-rule="evenodd" clip-rule="evenodd" d="M14.6813 0.0657825C14.7077 0.0749858 14.8421 0.121877 14.9701 0.241931C15.1059 0.36937 15.1611 0.50957 15.1729 0.539645L15.1737 0.541647C15.1936 0.592002 15.2043 0.633654 15.2091 0.653755C15.2193 0.695881 15.224 0.730206 15.2258 0.743514C15.2299 0.774621 15.2319 0.802 15.2328 0.815814C15.235 0.847652 15.2364 0.883729 15.2375 0.917582C15.2397 0.988103 15.2415 1.08503 15.243 1.20132C15.246 1.4355 15.248 1.76648 15.2491 2.16267C15.2515 2.95592 15.2507 4.02017 15.2486 5.11589C15.2442 7.30776 15.2341 9.6307 15.2317 10.1752C15.2307 10.3954 15.1747 10.6063 15.0687 10.7967L12.4299 15.5379C12.332 15.7164 12.1958 15.8093 12.1434 15.8422C12.0792 15.8825 12.023 15.9054 11.9933 15.9166C11.9331 15.9392 11.883 15.95 11.8636 15.9539C11.8189 15.9632 11.7805 15.9674 11.7637 15.9691C11.7238 15.9733 11.6811 15.9758 11.6455 15.9776C11.57 15.9813 11.4685 15.9842 11.3495 15.9866C11.109 15.9914 10.7691 15.9947 10.3607 15.9968C9.54262 16.0011 8.4352 16.0007 7.26593 15.9979C4.9267 15.9924 2.33215 15.9774 1.29201 15.971C0.58405 15.9666 0.00189545 15.3956 0.00177117 14.6756L0.00012207 4.97718C0.00012207 4.82857 0.0406027 4.71662 0.0532761 4.68229C0.071406 4.63319 0.0907464 4.59438 0.102779 4.57147C0.127183 4.52499 0.152702 4.48533 0.169636 4.45989C0.205451 4.40608 0.248634 4.34796 0.290664 4.29327C0.377146 4.18073 0.495338 4.03546 0.631235 3.87228C0.904888 3.54369 1.27355 3.11471 1.65901 2.67123C2.43109 1.78294 3.28437 0.820622 3.61216 0.451723C3.8537 0.179897 4.19684 0.0189052 4.57121 0.0174386C5.28464 0.0146437 7.73293 0.00545455 10.0081 0.00166098C11.1455 -0.000235488 12.2408 -0.00078568 13.0547 0.00149398C13.4613 0.00263272 13.7998 0.00448253 14.0389 0.0072584C14.1577 0.0086379 14.256 0.0102892 14.3271 0.0123324C14.3613 0.0133177 14.3967 0.0145941 14.4274 0.0164711C14.4409 0.0172939 14.4663 0.018972 14.4948 0.0223855C14.5071 0.0238476 14.5382 0.0277166 14.5765 0.0359712C14.5946 0.0398913 14.6327 0.0486218 14.679 0.0649928C14.6797 0.0652158 14.6804 0.0654786 14.6813 0.0657825ZM4.74116 1.66977C4.36066 2.09846 3.59985 2.958 2.9066 3.7556C2.78962 3.89019 2.67488 4.02265 2.56445 4.15069H11.2558L12.8881 1.65406C12.0973 1.65227 11.0736 1.65286 10.0109 1.65464C7.88778 1.65818 5.61334 1.66642 4.74116 1.66977ZM13.5975 3.5896C13.5973 4.07205 13.5966 4.58841 13.5956 5.11259C13.5914 7.19387 13.5821 9.39395 13.5791 10.074C13.3926 10.409 12.9765 11.1565 12.5306 11.9575L12.5295 5.22332L13.5975 3.5896ZM10.8766 5.80367H1.65324L1.65469 14.3202C2.85235 14.3273 5.16502 14.34 7.26983 14.3449C8.43816 14.3477 9.5405 14.3481 10.3521 14.3439C10.5457 14.3429 10.7219 14.3416 10.878 14.3401L10.8766 5.80367Z" fill="black"/>
</svg>
