<svg width="16" height="16" viewBox="0 0 16 16" fill="none" xmlns="http://www.w3.org/2000/svg">
<path fill-rule="evenodd" clip-rule="evenodd" d="M3.98094 0.323753C4.18409 0.115524 4.46307 -0.0013113 4.75397 1.11049e-05L16 0.0511325V11.301C16 11.5856 15.8869 11.8586 15.6857 12.0599L13.8436 13.9019L11.689 15.9667H1.07317C0.480473 15.9667 0 15.4862 0 14.8935V4.29666L2.15128 2.19917L3.98094 0.323753ZM2.91197 3.36511L2.36163 3.90169L11.1368 3.90169L11.6871 3.36511H2.91197ZM12.6829 4.30184V13.1225L12.0975 13.6834V4.87258L12.6829 4.30184ZM10.7317 5.26755L8.67312 5.26755L10.7317 7.32612V5.26755ZM10.7317 9.25773L6.74151 5.26754H4.52016L10.7317 11.5146V9.25773ZM10.7317 13.4517L2.59403 5.26754L1.36585 5.26755V6.25296L9.7137 14.6008H10.7317V13.4517ZM7.78209 14.6008L1.36585 8.18457V10.6432L5.32347 14.6008H7.78209ZM3.39186 14.6008L1.36585 12.5748V14.6008H3.39186ZM14.0488 11.7652L14.6341 11.1798V2.37969L14.0488 2.96506V11.7652ZM13.6758 1.40644L4.87191 1.36641L4.25451 1.99925H13.083L13.6758 1.40644Z" fill="black"/>
</svg>
