<?xml version="1.0" encoding="UTF-8"?>
<svg width="33px" height="33px" viewBox="0 0 33 33" version="1.1" xmlns="http://www.w3.org/2000/svg" xmlns:xlink="http://www.w3.org/1999/xlink">
    <defs>
        <polygon id="path-1" points="-2.65038932e-06 0.383016393 32.2707541 0.383016393 32.2707541 32.6525311 -2.65038932e-06 32.6525311"></polygon>
    </defs>
    <g id="Model-Detail" stroke="none" stroke-width="1" fill="none" fill-rule="evenodd" opacity="0.4">
        <g id="Model-Detail-Copy-2" transform="translate(-277.000000, -825.000000)">
            <g id="Group-15" transform="translate(231.000000, 824.000000)">
                <g id="Group-3" transform="translate(46.032787, 1.207325)">
                    <mask id="mask-2" fill="white">
                        <use xlink:href="#path-1"></use>
                    </mask>
                    <g id="Clip-2"></g>
                    <path d="M24.2032131,23.5787607 L24.2032131,23.5769902 L24.2032131,23.5752197 L24.2032131,9.87633443 L30.2535738,3.82597377 L30.2535738,22.5684 L27.2283934,22.5684 C26.6718689,22.5684 26.2198033,23.0198754 26.2198033,23.5769902 C26.2198033,24.1335148 26.6718689,24.5855803 27.2283934,24.5855803 L28.8271475,24.5855803 L24.2032131,29.2101049 L24.2032131,23.5787607 Z M3.44301639,30.635941 L9.49337705,24.5855803 L22.1854426,24.5855803 L22.1854426,30.635941 L3.44301639,30.635941 Z M22.7767869,8.45049836 L10.0847213,8.45049836 L10.0847213,2.39954754 L28.8277377,2.39954754 L22.7767869,8.45049836 Z M8.06754098,8.45049836 L3.44360656,8.45049836 L8.06754098,3.82656393 L8.06754098,8.45049836 Z M9.07613115,12.4842689 C8.51960656,12.4842689 8.06754098,12.9357443 8.06754098,13.492859 L8.06754098,23.1597443 L2.01777049,29.2095148 L2.01777049,10.4676787 L22.1854426,10.4676787 L22.1854426,22.5684 L10.0847213,22.5684 L10.0847213,13.492859 C10.0847213,12.9357443 9.6332459,12.4842689 9.07613115,12.4842689 L9.07613115,12.4842689 Z M32.2707541,23.5769902 C32.2707541,23.5764 32.2701639,23.5758098 32.2701639,23.5746295 L32.2701639,1.39154754 L31.2621639,0.382957377 L9.07672131,0.382957377 L9.07613115,0.382957377 L9.07613115,0.382957377 C8.79698361,0.382957377 8.54380328,0.49744918 8.3602623,0.681580328 L0.296262295,8.74617049 L-2.65038932e-06,9.45908852 L-2.65038932e-06,31.6409902 C-0.000590163934,31.9000721 0.0973770492,32.1597443 0.295672131,32.3574492 C0.492196721,32.5539738 0.750688525,32.6525311 1.00859016,32.6525311 L23.6118689,32.6525311 L31.9744918,24.2904984 C32.1574426,24.1081377 32.2707541,23.8555475 32.2707541,23.5769902 L32.2707541,23.5769902 Z" id="Fill-1" fill="#000000" mask="url(#mask-2)"></path>
                </g>
            </g>
        </g>
    </g>
</svg>