<svg width="33" height="32" viewBox="0 0 33 32" fill="none" xmlns="http://www.w3.org/2000/svg">
<g>
<path d="M23.6001 8.90003L26.233 6.26707M23.6001 8.90003H18.6001M23.6001 8.90003V13.9M23.6001 30.8332L26.233 28.2223M23.6001 30.8332V26.5M23.6001 30.8332L1.6001 8.90003M23.6001 30.8332H19.5333M1.6001 8.90003L6.1001 8.90002M1.6001 8.90003L5.99215 4.50796M1.6001 8.90003V12.9M31.6001 0.900024H9.76576C9.65967 0.900024 9.55793 0.942167 9.48291 1.01718L5.99215 4.50796M31.6001 0.900024V22.7334C31.6001 22.84 31.5575 22.9423 31.4818 23.0174L28.7833 25.6933M31.6001 0.900024L28.7833 3.71678M5.99215 4.50796H27.9922M27.9922 4.50796L28.7833 3.71678M27.9922 4.50796L26.233 6.26707M28.7833 3.71678V25.6933M28.7833 25.6933L26.233 28.2223M26.233 6.26707V28.2223M18.6001 8.90003L23.6001 13.9M18.6001 8.90003L14.6001 8.90002M23.6001 13.9V17.9M14.6001 8.90002L23.6001 17.9M14.6001 8.90002H10.4001M23.6001 17.9V22.1M10.4001 8.90002L23.6001 22.1M10.4001 8.90002H6.1001M23.6001 22.1V26.5M6.1001 8.90002L23.6001 26.5M1.6001 12.9L19.5333 30.8332M1.6001 12.9V17.4M19.5333 30.8332H15.0333M1.6001 17.4L15.0333 30.8332M1.6001 17.4V21.9M15.0333 30.8332H10.5333M1.6001 21.9L10.5333 30.8332M1.6001 21.9V26.3666M10.5333 30.8332H2.0001C1.77918 30.8332 1.6001 30.6541 1.6001 30.4332V26.3666M1.6001 26.3666L6.6001 31.3666" stroke="black" stroke-width="1.8"/>
</g>
</svg>
