<svg width="16" height="16" viewBox="0 0 16 16" fill="none" xmlns="http://www.w3.org/2000/svg">
<path opacity="0.4" d="M13.9527 10.2958V1.65308H4.86133L4.86136 10.2958H13.9527Z" fill="#1B8CF8"/>
<path fill-rule="evenodd" clip-rule="evenodd" d="M4.32909 1.43239V0.842041H5.15558V1.43239H4.32909ZM4.32909 3.79379V2.61309H5.15558V3.79379H4.32909ZM4.32909 6.15518V4.97448H5.15558V6.15518H4.32909ZM4.32909 8.51658V7.33588H5.15558V8.51658H4.32909ZM4.32909 10.1529V9.69728H5.15558V9.87438H5.24413V10.7009H4.95234L4.78111 10.9355L4.1135 10.4483L4.32909 10.1529ZM7.25132 10.7009H6.24772V9.87438H7.25132V10.7009ZM9.2585 10.7009H8.25491V9.87438H9.2585V10.7009ZM11.2657 10.7009H10.2621V9.87438H11.2657V10.7009ZM13.2729 10.7009H12.2693V9.87438H13.2729V10.7009ZM14.7783 10.7009H14.2765V9.87438H14.7783V10.7009ZM4.19105 11.744L3.60099 12.5526L2.93338 12.0654L3.52344 11.2568L4.19105 11.744ZM3.01093 13.3611L2.42087 14.1697L1.75326 13.6824L2.34332 12.8739L3.01093 13.3611ZM1.83081 14.9782L1.53578 15.3825L0.868164 14.8952L1.16319 14.491L1.83081 14.9782Z" fill="black"/>
<path fill-rule="evenodd" clip-rule="evenodd" d="M15.0562 0.0657825C15.0825 0.0749858 15.2169 0.121877 15.3449 0.241931C15.4808 0.36937 15.536 0.50957 15.5478 0.539645L15.5486 0.541647C15.5685 0.592002 15.5792 0.633654 15.584 0.653755C15.5941 0.695881 15.5989 0.730206 15.6007 0.743514C15.6048 0.774621 15.6068 0.802 15.6077 0.815814C15.6099 0.847652 15.6113 0.883729 15.6124 0.917582C15.6146 0.988102 15.6164 1.08503 15.6179 1.20132C15.6209 1.4355 15.6228 1.76648 15.624 2.16267C15.6264 2.95592 15.6256 4.02017 15.6234 5.11589C15.6191 7.30776 15.609 9.6307 15.6065 10.1752C15.6055 10.3954 15.5496 10.6063 15.4435 10.7967L12.8048 15.5379C12.7069 15.7164 12.5707 15.8093 12.5183 15.8422C12.4541 15.8825 12.3979 15.9054 12.3682 15.9166C12.308 15.9392 12.2579 15.95 12.2385 15.9539C12.1938 15.9632 12.1554 15.9674 12.1386 15.9691C12.0986 15.9733 12.056 15.9758 12.0204 15.9776C11.9449 15.9813 11.8433 15.9842 11.7243 15.9866C11.4838 15.9914 11.1439 15.9947 10.7356 15.9968C9.9175 16.0011 8.81008 16.0007 7.6408 15.9979C5.30158 15.9924 2.70703 15.9774 1.66688 15.971C0.958928 15.9666 0.376773 15.3956 0.376649 14.6756L0.375 4.97718C0.375 4.82857 0.415481 4.71662 0.428154 4.68229C0.446284 4.63319 0.465624 4.59438 0.477657 4.57147C0.502061 4.52499 0.52758 4.48533 0.544514 4.45989C0.580329 4.40608 0.623512 4.34796 0.665542 4.29327C0.752024 4.18073 0.870216 4.03546 1.00611 3.87228C1.27977 3.54368 1.64842 3.11471 2.03389 2.67123C2.80597 1.78295 3.65924 0.820622 3.98704 0.451723C4.22858 0.179897 4.57172 0.0189052 4.94609 0.0174386C5.65951 0.0146437 8.1078 0.00545455 10.383 0.00166098C11.5204 -0.000235488 12.6157 -0.00078568 13.4296 0.00149398C13.8361 0.00263272 14.1747 0.00448253 14.4137 0.0072584C14.5325 0.00863789 14.6308 0.0102892 14.7019 0.0123324C14.7362 0.0133177 14.7716 0.0145941 14.8023 0.0164711C14.8158 0.0172939 14.8412 0.018972 14.8697 0.0223855C14.8819 0.0238476 14.9131 0.0277166 14.9514 0.0359712C14.9695 0.0398913 15.0076 0.0486218 15.0539 0.0649928C15.0545 0.0652158 15.0553 0.0654786 15.0562 0.0657825ZM5.11604 1.66977C4.73553 2.09846 3.97473 2.958 3.28148 3.7556C3.16449 3.89019 3.04975 4.02265 2.93933 4.15069H11.6307L13.263 1.65406C12.4722 1.65227 11.4484 1.65286 10.3857 1.65464C8.26266 1.65818 5.98822 1.66642 5.11604 1.66977ZM13.9724 3.5896C13.9722 4.07205 13.9715 4.58841 13.9705 5.11259C13.9663 7.19387 13.957 9.39395 13.954 10.074C13.7675 10.409 13.3514 11.1565 12.9055 11.9575L12.9043 5.22332L13.9724 3.5896ZM11.2515 5.80367H2.02812L2.02957 14.3202C3.22723 14.3273 5.53989 14.34 7.64471 14.3449C8.81303 14.3477 9.91538 14.3481 10.727 14.3439C10.9206 14.3429 11.0968 14.3416 11.2529 14.3401L11.2515 5.80367Z" fill="black"/>
</svg>
