<svg width="16" height="16" viewBox="0 0 16 16" fill="none" xmlns="http://www.w3.org/2000/svg">
<path fill-rule="evenodd" clip-rule="evenodd" d="M4.30247 0H16V11.6992L11.6958 15.9674H0V4.30249L4.30247 0ZM3.90243 2.33166L2.33165 3.90244L3.90244 3.90244L3.90243 2.33166ZM5.26829 3.90244L11.1317 3.90244L13.6683 1.36585H5.26828L5.26829 3.90244ZM14.6341 2.33165L12.0975 4.86825V13.6455L13.6585 12.0976H13.3659C12.9887 12.0976 12.6829 11.7918 12.6829 11.4146C12.6829 11.0375 12.9887 10.7317 13.3659 10.7317H14.6341V2.33165ZM10.7317 14.6016V12.0976H4.83565L2.33166 14.6016H10.7317ZM1.36585 13.6358V5.26829L10.7317 5.26829V10.7317H5.2357V6.53659C5.2357 6.15942 4.92995 5.85366 4.55278 5.85366C4.17561 5.85366 3.86985 6.15942 3.86985 6.53659V11.1318L1.36585 13.6358Z" fill="black"/>
</svg>
